<svg xmlns="http://www.w3.org/2000/svg" width="512" height="428" viewBox="0 0 512 428"><rect x="0" y="0" width="512" height="428" fill="white"/><rect x="46.0" y="46.0" width="420.0" height="336.0" fill="#fbfbf7" stroke="#333" stroke-width="1.5"/><line x1="46.0" y1="46.0" x2="46.0" y2="38.0" stroke="#888" stroke-width="1"/><line x1="46.0" y1="382.0" x2="46.0" y2="390.0" stroke="#888" stroke-width="1"/><text x="46.0" y="36.0" text-anchor="middle" font-family="Arial" font-size="9" fill="#666">0</text><text x="46.0" y="398.0" text-anchor="middle" font-family="Arial" font-size="9" fill="#666">0</text><line x1="67.0" y1="46.0" x2="67.0" y2="42.0" stroke="#888" stroke-width="1"/><line x1="67.0" y1="382.0" x2="67.0" y2="386.0" stroke="#888" stroke-width="1"/><line x1="88.0" y1="46.0" x2="88.0" y2="38.0" stroke="#888" stroke-width="1"/><line x1="88.0" y1="382.0" x2="88.0" y2="390.0" stroke="#888" stroke-width="1"/><text x="88.0" y="36.0" text-anchor="middle" font-family="Arial" font-size="9" fill="#666">1</text><text x="88.0" y="398.0" text-anchor="middle" font-family="Arial" font-size="9" fill="#666">1</text><line x1="109.0" y1="46.0" x2="109.0" y2="42.0" stroke="#888" stroke-width="1"/><line x1="109.0" y1="382.0" x2="109.0" y2="386.0" stroke="#888" stroke-width="1"/><line x1="130.0" y1="46.0" x2="130.0" y2="38.0" stroke="#888" stroke-width="1"/><line x1="130.0" y1="382.0" x2="130.0" y2="390.0" stroke="#888" stroke-width="1"/><text x="130.0" y="36.0" text-anchor="middle" font-family="Arial" font-size="9" fill="#666">2</text><text x="130.0" y="398.0" text-anchor="middle" font-family="Arial" font-size="9" fill="#666">2</text><line x1="151.0" y1="46.0" x2="151.0" y2="42.0" stroke="#888" stroke-width="1"/><line x1="151.0" y1="382.0" x2="151.0" y2="386.0" stroke="#888" stroke-width="1"/><line x1="172.0" y1="46.0" x2="172.0" y2="38.0" stroke="#888" stroke-width="1"/><line x1="172.0" y1="382.0" x2="172.0" y2="390.0" stroke="#888" stroke-width="1"/><text x="172.0" y="36.0" text-anchor="middle" font-family="Arial" font-size="9" fill="#666">3</text><text x="172.0" y="398.0" text-anchor="middle" font-family="Arial" font-size="9" fill="#666">3</text><line x1="193.0" y1="46.0" x2="193.0" y2="42.0" stroke="#888" stroke-width="1"/><line x1="193.0" y1="382.0" x2="193.0" y2="386.0" stroke="#888" stroke-width="1"/><line x1="214.0" y1="46.0" x2="214.0" y2="38.0" stroke="#888" stroke-width="1"/><line x1="214.0" y1="382.0" x2="214.0" y2="390.0" stroke="#888" stroke-width="1"/><text x="214.0" y="36.0" text-anchor="middle" font-family="Arial" font-size="9" fill="#666">4</text><text x="214.0" y="398.0" text-anchor="middle" font-family="Arial" font-size="9" fill="#666">4</text><line x1="235.0" y1="46.0" x2="235.0" y2="42.0" stroke="#888" stroke-width="1"/><line x1="235.0" y1="382.0" x2="235.0" y2="386.0" stroke="#888" stroke-width="1"/><line x1="256.0" y1="46.0" x2="256.0" y2="38.0" stroke="#888" stroke-width="1"/><line x1="256.0" y1="382.0" x2="256.0" y2="390.0" stroke="#888" stroke-width="1"/><text x="256.0" y="36.0" text-anchor="middle" font-family="Arial" font-size="9" fill="#666">5</text><text x="256.0" y="398.0" text-anchor="middle" font-family="Arial" font-size="9" fill="#666">5</text><line x1="277.0" y1="46.0" x2="277.0" y2="42.0" stroke="#888" stroke-width="1"/><line x1="277.0" y1="382.0" x2="277.0" y2="386.0" stroke="#888" stroke-width="1"/><line x1="298.0" y1="46.0" x2="298.0" y2="38.0" stroke="#888" stroke-width="1"/><line x1="298.0" y1="382.0" x2="298.0" y2="390.0" stroke="#888" stroke-width="1"/><text x="298.0" y="36.0" text-anchor="middle" font-family="Arial" font-size="9" fill="#666">6</text><text x="298.0" y="398.0" text-anchor="middle" font-family="Arial" font-size="9" fill="#666">6</text><line x1="319.0" y1="46.0" x2="319.0" y2="42.0" stroke="#888" stroke-width="1"/><line x1="319.0" y1="382.0" x2="319.0" y2="386.0" stroke="#888" stroke-width="1"/><line x1="340.0" y1="46.0" x2="340.0" y2="38.0" stroke="#888" stroke-width="1"/><line x1="340.0" y1="382.0" x2="340.0" y2="390.0" stroke="#888" stroke-width="1"/><text x="340.0" y="36.0" text-anchor="middle" font-family="Arial" font-size="9" fill="#666">7</text><text x="340.0" y="398.0" text-anchor="middle" font-family="Arial" font-size="9" fill="#666">7</text><line x1="361.0" y1="46.0" x2="361.0" y2="42.0" stroke="#888" stroke-width="1"/><line x1="361.0" y1="382.0" x2="361.0" y2="386.0" stroke="#888" stroke-width="1"/><line x1="382.0" y1="46.0" x2="382.0" y2="38.0" stroke="#888" stroke-width="1"/><line x1="382.0" y1="382.0" x2="382.0" y2="390.0" stroke="#888" stroke-width="1"/><text x="382.0" y="36.0" text-anchor="middle" font-family="Arial" font-size="9" fill="#666">8</text><text x="382.0" y="398.0" text-anchor="middle" font-family="Arial" font-size="9" fill="#666">8</text><line x1="403.0" y1="46.0" x2="403.0" y2="42.0" stroke="#888" stroke-width="1"/><line x1="403.0" y1="382.0" x2="403.0" y2="386.0" stroke="#888" stroke-width="1"/><line x1="424.0" y1="46.0" x2="424.0" y2="38.0" stroke="#888" stroke-width="1"/><line x1="424.0" y1="382.0" x2="424.0" y2="390.0" stroke="#888" stroke-width="1"/><text x="424.0" y="36.0" text-anchor="middle" font-family="Arial" font-size="9" fill="#666">9</text><text x="424.0" y="398.0" text-anchor="middle" font-family="Arial" font-size="9" fill="#666">9</text><line x1="445.0" y1="46.0" x2="445.0" y2="42.0" stroke="#888" stroke-width="1"/><line x1="445.0" y1="382.0" x2="445.0" y2="386.0" stroke="#888" stroke-width="1"/><line x1="466.0" y1="46.0" x2="466.0" y2="38.0" stroke="#888" stroke-width="1"/><line x1="466.0" y1="382.0" x2="466.0" y2="390.0" stroke="#888" stroke-width="1"/><text x="466.0" y="36.0" text-anchor="middle" font-family="Arial" font-size="9" fill="#666">10</text><text x="466.0" y="398.0" text-anchor="middle" font-family="Arial" font-size="9" fill="#666">10</text><line x1="46.0" y1="382.0" x2="38.0" y2="382.0" stroke="#888" stroke-width="1"/><line x1="466.0" y1="382.0" x2="474.0" y2="382.0" stroke="#888" stroke-width="1"/><text x="36.0" y="385.0" text-anchor="end" font-family="Arial" font-size="9" fill="#666">0</text><text x="476.0" y="385.0" text-anchor="start" font-family="Arial" font-size="9" fill="#666">0</text><line x1="46.0" y1="361.0" x2="42.0" y2="361.0" stroke="#888" stroke-width="1"/><line x1="466.0" y1="361.0" x2="470.0" y2="361.0" stroke="#888" stroke-width="1"/><line x1="46.0" y1="340.0" x2="38.0" y2="340.0" stroke="#888" stroke-width="1"/><line x1="466.0" y1="340.0" x2="474.0" y2="340.0" stroke="#888" stroke-width="1"/><text x="36.0" y="343.0" text-anchor="end" font-family="Arial" font-size="9" fill="#666">1</text><text x="476.0" y="343.0" text-anchor="start" font-family="Arial" font-size="9" fill="#666">1</text><line x1="46.0" y1="319.0" x2="42.0" y2="319.0" stroke="#888" stroke-width="1"/><line x1="466.0" y1="319.0" x2="470.0" y2="319.0" stroke="#888" stroke-width="1"/><line x1="46.0" y1="298.0" x2="38.0" y2="298.0" stroke="#888" stroke-width="1"/><line x1="466.0" y1="298.0" x2="474.0" y2="298.0" stroke="#888" stroke-width="1"/><text x="36.0" y="301.0" text-anchor="end" font-family="Arial" font-size="9" fill="#666">2</text><text x="476.0" y="301.0" text-anchor="start" font-family="Arial" font-size="9" fill="#666">2</text><line x1="46.0" y1="277.0" x2="42.0" y2="277.0" stroke="#888" stroke-width="1"/><line x1="466.0" y1="277.0" x2="470.0" y2="277.0" stroke="#888" stroke-width="1"/><line x1="46.0" y1="256.0" x2="38.0" y2="256.0" stroke="#888" stroke-width="1"/><line x1="466.0" y1="256.0" x2="474.0" y2="256.0" stroke="#888" stroke-width="1"/><text x="36.0" y="259.0" text-anchor="end" font-family="Arial" font-size="9" fill="#666">3</text><text x="476.0" y="259.0" text-anchor="start" font-family="Arial" font-size="9" fill="#666">3</text><line x1="46.0" y1="235.0" x2="42.0" y2="235.0" stroke="#888" stroke-width="1"/><line x1="466.0" y1="235.0" x2="470.0" y2="235.0" stroke="#888" stroke-width="1"/><line x1="46.0" y1="214.0" x2="38.0" y2="214.0" stroke="#888" stroke-width="1"/><line x1="466.0" y1="214.0" x2="474.0" y2="214.0" stroke="#888" stroke-width="1"/><text x="36.0" y="217.0" text-anchor="end" font-family="Arial" font-size="9" fill="#666">4</text><text x="476.0" y="217.0" text-anchor="start" font-family="Arial" font-size="9" fill="#666">4</text><line x1="46.0" y1="193.0" x2="42.0" y2="193.0" stroke="#888" stroke-width="1"/><line x1="466.0" y1="193.0" x2="470.0" y2="193.0" stroke="#888" stroke-width="1"/><line x1="46.0" y1="172.0" x2="38.0" y2="172.0" stroke="#888" stroke-width="1"/><line x1="466.0" y1="172.0" x2="474.0" y2="172.0" stroke="#888" stroke-width="1"/><text x="36.0" y="175.0" text-anchor="end" font-family="Arial" font-size="9" fill="#666">5</text><text x="476.0" y="175.0" text-anchor="start" font-family="Arial" font-size="9" fill="#666">5</text><line x1="46.0" y1="151.0" x2="42.0" y2="151.0" stroke="#888" stroke-width="1"/><line x1="466.0" y1="151.0" x2="470.0" y2="151.0" stroke="#888" stroke-width="1"/><line x1="46.0" y1="130.0" x2="38.0" y2="130.0" stroke="#888" stroke-width="1"/><line x1="466.0" y1="130.0" x2="474.0" y2="130.0" stroke="#888" stroke-width="1"/><text x="36.0" y="133.0" text-anchor="end" font-family="Arial" font-size="9" fill="#666">6</text><text x="476.0" y="133.0" text-anchor="start" font-family="Arial" font-size="9" fill="#666">6</text><line x1="46.0" y1="109.0" x2="42.0" y2="109.0" stroke="#888" stroke-width="1"/><line x1="466.0" y1="109.0" x2="470.0" y2="109.0" stroke="#888" stroke-width="1"/><line x1="46.0" y1="88.0" x2="38.0" y2="88.0" stroke="#888" stroke-width="1"/><line x1="466.0" y1="88.0" x2="474.0" y2="88.0" stroke="#888" stroke-width="1"/><text x="36.0" y="91.0" text-anchor="end" font-family="Arial" font-size="9" fill="#666">7</text><text x="476.0" y="91.0" text-anchor="start" font-family="Arial" font-size="9" fill="#666">7</text><line x1="46.0" y1="67.0" x2="42.0" y2="67.0" stroke="#888" stroke-width="1"/><line x1="466.0" y1="67.0" x2="470.0" y2="67.0" stroke="#888" stroke-width="1"/><line x1="46.0" y1="46.0" x2="38.0" y2="46.0" stroke="#888" stroke-width="1"/><line x1="466.0" y1="46.0" x2="474.0" y2="46.0" stroke="#888" stroke-width="1"/><text x="36.0" y="49.0" text-anchor="end" font-family="Arial" font-size="9" fill="#666">8</text><text x="476.0" y="49.0" text-anchor="start" font-family="Arial" font-size="9" fill="#666">8</text><rect x="130.0" y="130.0" width="252.0" height="168.0" fill="none" stroke="#9aa" stroke-width="1" stroke-dasharray="3 3"/><rect x="198.5" y="299.3" width="85.7" height="60.5" fill="#f2f2f2" stroke="#333" stroke-width="1.5" stroke-dasharray="6 4"/><text x="241.3" y="326.9" text-anchor="middle" font-family="Arial" font-size="12" font-weight="bold" fill="#222">PORCH</text><text x="241.3" y="342.7" text-anchor="middle" font-family="Arial" font-size="10" fill="#555">2.1×1.5 m</text><rect x="285.4" y="130.0" width="96.6" height="168.0" fill="#d9ead3" stroke="#333" stroke-width="1.5"/><text x="333.7" y="205.6" text-anchor="middle" font-family="Arial" font-size="12" font-weight="bold" fill="#222">BEDROOM</text><text x="333.7" y="221.4" text-anchor="middle" font-family="Arial" font-size="10" fill="#555">2.3×4.0 m</text><text x="333.7" y="232.9" text-anchor="middle" font-family="Arial" font-size="10" fill="#555">9.2 sqm</text><rect x="130.0" y="218.2" width="67.2" height="79.8" fill="#ead1dc" stroke="#333" stroke-width="1.5"/><text x="163.6" y="249.7" text-anchor="middle" font-family="Arial" font-size="12" font-weight="bold" fill="#222">T&amp;B</text><text x="163.6" y="265.5" text-anchor="middle" font-family="Arial" font-size="10" fill="#555">1.6×1.9 m</text><text x="163.6" y="277.0" text-anchor="middle" font-family="Arial" font-size="10" fill="#555">3.0 sqm</text><rect x="197.2" y="130.0" width="88.2" height="168.0" fill="#cfe2f3" stroke="#333" stroke-width="1.5"/><text x="241.3" y="205.6" text-anchor="middle" font-family="Arial" font-size="12" font-weight="bold" fill="#222">GREAT ROOM</text><text x="241.3" y="221.4" text-anchor="middle" font-family="Arial" font-size="10" fill="#555">2.1×4.0 m</text><text x="241.3" y="232.9" text-anchor="middle" font-family="Arial" font-size="10" fill="#555">8.4 sqm</text><rect x="130.0" y="130.0" width="67.2" height="88.2" fill="#cfe2f3" stroke="#333" stroke-width="1.5"/><text x="163.6" y="165.7" text-anchor="middle" font-family="Arial" font-size="12" font-weight="bold" fill="#222">KITCHEN</text><text x="163.6" y="181.5" text-anchor="middle" font-family="Arial" font-size="10" fill="#555">1.6×2.1 m</text><text x="163.6" y="193.0" text-anchor="middle" font-family="Arial" font-size="10" fill="#555">3.4 sqm</text><text x="256.0" y="416.0" text-anchor="middle" font-family="Arial" font-size="12" font-weight="bold" fill="#888">FRONT (street)</text><rect x="283.30" y="130.00" width="4.20" height="168.00" fill="#555" stroke="none"/><rect x="195.10" y="218.20" width="4.20" height="79.80" fill="#555" stroke="none"/><rect x="130.00" y="216.10" width="67.20" height="4.20" fill="#555" stroke="none"/><rect x="285.40" y="125.80" width="96.60" height="8.40" fill="#555" stroke="none"/><rect x="285.40" y="293.80" width="96.60" height="8.40" fill="#555" stroke="none"/><rect x="377.80" y="130.00" width="8.40" height="168.00" fill="#555" stroke="none"/><rect x="130.00" y="293.80" width="67.20" height="8.40" fill="#555" stroke="none"/><rect x="125.80" y="218.20" width="8.40" height="79.80" fill="#555" stroke="none"/><rect x="197.20" y="125.80" width="88.20" height="8.40" fill="#555" stroke="none"/><rect x="197.20" y="293.80" width="88.20" height="8.40" fill="#555" stroke="none"/><rect x="130.00" y="125.80" width="67.20" height="8.40" fill="#555" stroke="none"/><rect x="125.80" y="130.00" width="8.40" height="88.20" fill="#555" stroke="none"/><rect x="281.20" y="293.80" width="8.40" height="8.40" fill="#555" stroke="none"/><rect x="281.20" y="125.80" width="8.40" height="8.40" fill="#555" stroke="none"/><rect x="193.00" y="293.80" width="8.40" height="8.40" fill="#555" stroke="none"/><rect x="125.80" y="214.00" width="8.40" height="8.40" fill="#555" stroke="none"/><rect x="281.20" y="125.80" width="8.40" height="8.40" fill="#555" stroke="none"/><rect x="377.80" y="125.80" width="8.40" height="8.40" fill="#555" stroke="none"/><rect x="281.20" y="293.80" width="8.40" height="8.40" fill="#555" stroke="none"/><rect x="377.80" y="293.80" width="8.40" height="8.40" fill="#555" stroke="none"/><rect x="377.80" y="293.80" width="8.40" height="8.40" fill="#555" stroke="none"/><rect x="377.80" y="125.80" width="8.40" height="8.40" fill="#555" stroke="none"/><rect x="125.80" y="293.80" width="8.40" height="8.40" fill="#555" stroke="none"/><rect x="193.00" y="293.80" width="8.40" height="8.40" fill="#555" stroke="none"/><rect x="125.80" y="293.80" width="8.40" height="8.40" fill="#555" stroke="none"/><rect x="125.80" y="214.00" width="8.40" height="8.40" fill="#555" stroke="none"/><rect x="281.20" y="125.80" width="8.40" height="8.40" fill="#555" stroke="none"/><rect x="193.00" y="293.80" width="8.40" height="8.40" fill="#555" stroke="none"/><rect x="281.20" y="293.80" width="8.40" height="8.40" fill="#555" stroke="none"/><rect x="125.80" y="125.80" width="8.40" height="8.40" fill="#555" stroke="none"/><rect x="125.80" y="214.00" width="8.40" height="8.40" fill="#555" stroke="none"/><rect x="125.80" y="125.80" width="8.40" height="8.40" fill="#555" stroke="none"/><rect x="192.2" y="132.1" width="5.0" height="84.0" fill="#cfe2f3" stroke="none"/><rect x="197.2" y="132.1" width="5.0" height="84.0" fill="#cfe2f3" stroke="none"/><rect x="192.2" y="262.3" width="5.0" height="29.4" fill="#ead1dc" stroke="none"/><rect x="197.2" y="262.3" width="5.0" height="29.4" fill="#cfe2f3" stroke="none"/><line x1="197.2" y1="291.7" x2="167.8" y2="291.7" stroke="#444" stroke-width="1.4"/><path d="M 167.8 291.7 A 29.4 29.4 0 0 1 197.2 262.3" fill="none" stroke="#999" stroke-width="0.7" stroke-dasharray="2 2"/><rect x="285.4" y="136.3" width="5.0" height="33.6" fill="#d9ead3" stroke="none"/><rect x="280.4" y="136.3" width="5.0" height="33.6" fill="#cfe2f3" stroke="none"/><line x1="285.4" y1="136.3" x2="319.0" y2="136.3" stroke="#444" stroke-width="1.4"/><path d="M 319.0 136.3 A 33.6 33.6 0 0 1 285.4 169.9" fill="none" stroke="#999" stroke-width="0.7" stroke-dasharray="2 2"/><rect x="241.3" y="293.0" width="37.8" height="5.0" fill="#cfe2f3" stroke="none"/><rect x="241.3" y="298.0" width="37.8" height="5.0" fill="#fbfbf7" stroke="none"/><line x1="279.1" y1="298.0" x2="279.1" y2="260.2" stroke="#444" stroke-width="1.4"/><path d="M 279.1 260.2 A 37.8 37.8 0 0 0 241.3 298.0" fill="none" stroke="#999" stroke-width="0.7" stroke-dasharray="2 2"/><rect x="136.3" y="130.0" width="33.6" height="5.0" fill="#cfe2f3" stroke="none"/><rect x="136.3" y="125.0" width="33.6" height="5.0" fill="#fbfbf7" stroke="none"/><line x1="136.3" y1="130.0" x2="136.3" y2="163.6" stroke="#444" stroke-width="1.4"/><path d="M 136.3 163.6 A 33.6 33.6 0 0 0 169.9 130.0" fill="none" stroke="#999" stroke-width="0.7" stroke-dasharray="2 2"/><rect x="307.1" y="293.0" width="53.1" height="5.0" fill="#d9ead3" stroke="none"/><rect x="307.1" y="298.0" width="53.1" height="5.0" fill="#fbfbf7" stroke="none"/><line x1="307.1" y1="295.0" x2="360.2" y2="295.0" stroke="#222" stroke-width="1.0"/><line x1="307.1" y1="298.0" x2="360.2" y2="298.0" stroke="#222" stroke-width="1.0"/><line x1="307.1" y1="301.0" x2="360.2" y2="301.0" stroke="#222" stroke-width="1.0"/><rect x="307.1" y="130.0" width="53.1" height="5.0" fill="#d9ead3" stroke="none"/><rect x="307.1" y="125.0" width="53.1" height="5.0" fill="#fbfbf7" stroke="none"/><line x1="307.1" y1="127.0" x2="360.2" y2="127.0" stroke="#222" stroke-width="1.0"/><line x1="307.1" y1="130.0" x2="360.2" y2="130.0" stroke="#222" stroke-width="1.0"/><line x1="307.1" y1="133.0" x2="360.2" y2="133.0" stroke="#222" stroke-width="1.0"/><rect x="377.0" y="167.8" width="5.0" height="92.4" fill="#d9ead3" stroke="none"/><rect x="382.0" y="167.8" width="5.0" height="92.4" fill="#fbfbf7" stroke="none"/><line x1="379.0" y1="260.2" x2="379.0" y2="167.8" stroke="#222" stroke-width="1.0"/><line x1="382.0" y1="260.2" x2="382.0" y2="167.8" stroke="#222" stroke-width="1.0"/><line x1="385.0" y1="260.2" x2="385.0" y2="167.8" stroke="#222" stroke-width="1.0"/><rect x="130.0" y="239.2" width="5.0" height="37.8" fill="#ead1dc" stroke="none"/><rect x="125.0" y="239.2" width="5.0" height="37.8" fill="#fbfbf7" stroke="none"/><line x1="127.0" y1="277.0" x2="127.0" y2="239.2" stroke="#222" stroke-width="1.0"/><line x1="130.0" y1="277.0" x2="130.0" y2="239.2" stroke="#222" stroke-width="1.0"/><line x1="133.0" y1="277.0" x2="133.0" y2="239.2" stroke="#222" stroke-width="1.0"/><rect x="146.8" y="293.0" width="33.6" height="5.0" fill="#ead1dc" stroke="none"/><rect x="146.8" y="298.0" width="33.6" height="5.0" fill="#fbfbf7" stroke="none"/><line x1="146.8" y1="295.0" x2="180.4" y2="295.0" stroke="#222" stroke-width="1.0"/><line x1="146.8" y1="298.0" x2="180.4" y2="298.0" stroke="#222" stroke-width="1.0"/><line x1="146.8" y1="301.0" x2="180.4" y2="301.0" stroke="#222" stroke-width="1.0"/><rect x="217.0" y="130.0" width="48.5" height="5.0" fill="#cfe2f3" stroke="none"/><rect x="217.0" y="125.0" width="48.5" height="5.0" fill="#fbfbf7" stroke="none"/><line x1="217.0" y1="127.0" x2="265.5" y2="127.0" stroke="#222" stroke-width="1.0"/><line x1="217.0" y1="130.0" x2="265.5" y2="130.0" stroke="#222" stroke-width="1.0"/><line x1="217.0" y1="133.0" x2="265.5" y2="133.0" stroke="#222" stroke-width="1.0"/><rect x="130.0" y="149.9" width="5.0" height="48.5" fill="#cfe2f3" stroke="none"/><rect x="125.0" y="149.9" width="5.0" height="48.5" fill="#fbfbf7" stroke="none"/><line x1="127.0" y1="198.4" x2="127.0" y2="149.9" stroke="#222" stroke-width="1.0"/><line x1="130.0" y1="198.4" x2="130.0" y2="149.9" stroke="#222" stroke-width="1.0"/><line x1="133.0" y1="198.4" x2="133.0" y2="149.9" stroke="#222" stroke-width="1.0"/><rect x="197.2" y="167.8" width="25.2" height="50.4" fill="#e9e2d4" stroke="#7a6a52" stroke-width="1"/><circle cx="232.9" cy="207.7" r="7.3" fill="#ffffff" stroke="#7a6a52" stroke-width="1"/><circle cx="232.9" cy="178.3" r="7.3" fill="#ffffff" stroke="#7a6a52" stroke-width="1"/></svg>