<svg xmlns="http://www.w3.org/2000/svg" width="470" height="554" viewBox="0 0 470 554"><rect x="0" y="0" width="470" height="554" fill="white"/><rect x="46.0" y="46.0" width="378.0" height="462.0" fill="#fbfbf7" stroke="#333" stroke-width="1.5"/><line x1="46.0" y1="46.0" x2="46.0" y2="38.0" stroke="#888" stroke-width="1"/><line x1="46.0" y1="508.0" x2="46.0" y2="516.0" stroke="#888" stroke-width="1"/><text x="46.0" y="36.0" text-anchor="middle" font-family="Arial" font-size="9" fill="#666">0</text><text x="46.0" y="524.0" text-anchor="middle" font-family="Arial" font-size="9" fill="#666">0</text><line x1="67.0" y1="46.0" x2="67.0" y2="42.0" stroke="#888" stroke-width="1"/><line x1="67.0" y1="508.0" x2="67.0" y2="512.0" stroke="#888" stroke-width="1"/><line x1="88.0" y1="46.0" x2="88.0" y2="38.0" stroke="#888" stroke-width="1"/><line x1="88.0" y1="508.0" x2="88.0" y2="516.0" stroke="#888" stroke-width="1"/><text x="88.0" y="36.0" text-anchor="middle" font-family="Arial" font-size="9" fill="#666">1</text><text x="88.0" y="524.0" text-anchor="middle" font-family="Arial" font-size="9" fill="#666">1</text><line x1="109.0" y1="46.0" x2="109.0" y2="42.0" stroke="#888" stroke-width="1"/><line x1="109.0" y1="508.0" x2="109.0" y2="512.0" stroke="#888" stroke-width="1"/><line x1="130.0" y1="46.0" x2="130.0" y2="38.0" stroke="#888" stroke-width="1"/><line x1="130.0" y1="508.0" x2="130.0" y2="516.0" stroke="#888" stroke-width="1"/><text x="130.0" y="36.0" text-anchor="middle" font-family="Arial" font-size="9" fill="#666">2</text><text x="130.0" y="524.0" text-anchor="middle" font-family="Arial" font-size="9" fill="#666">2</text><line x1="151.0" y1="46.0" x2="151.0" y2="42.0" stroke="#888" stroke-width="1"/><line x1="151.0" y1="508.0" x2="151.0" y2="512.0" stroke="#888" stroke-width="1"/><line x1="172.0" y1="46.0" x2="172.0" y2="38.0" stroke="#888" stroke-width="1"/><line x1="172.0" y1="508.0" x2="172.0" y2="516.0" stroke="#888" stroke-width="1"/><text x="172.0" y="36.0" text-anchor="middle" font-family="Arial" font-size="9" fill="#666">3</text><text x="172.0" y="524.0" text-anchor="middle" font-family="Arial" font-size="9" fill="#666">3</text><line x1="193.0" y1="46.0" x2="193.0" y2="42.0" stroke="#888" stroke-width="1"/><line x1="193.0" y1="508.0" x2="193.0" y2="512.0" stroke="#888" stroke-width="1"/><line x1="214.0" y1="46.0" x2="214.0" y2="38.0" stroke="#888" stroke-width="1"/><line x1="214.0" y1="508.0" x2="214.0" y2="516.0" stroke="#888" stroke-width="1"/><text x="214.0" y="36.0" text-anchor="middle" font-family="Arial" font-size="9" fill="#666">4</text><text x="214.0" y="524.0" text-anchor="middle" font-family="Arial" font-size="9" fill="#666">4</text><line x1="235.0" y1="46.0" x2="235.0" y2="42.0" stroke="#888" stroke-width="1"/><line x1="235.0" y1="508.0" x2="235.0" y2="512.0" stroke="#888" stroke-width="1"/><line x1="256.0" y1="46.0" x2="256.0" y2="38.0" stroke="#888" stroke-width="1"/><line x1="256.0" y1="508.0" x2="256.0" y2="516.0" stroke="#888" stroke-width="1"/><text x="256.0" y="36.0" text-anchor="middle" font-family="Arial" font-size="9" fill="#666">5</text><text x="256.0" y="524.0" text-anchor="middle" font-family="Arial" font-size="9" fill="#666">5</text><line x1="277.0" y1="46.0" x2="277.0" y2="42.0" stroke="#888" stroke-width="1"/><line x1="277.0" y1="508.0" x2="277.0" y2="512.0" stroke="#888" stroke-width="1"/><line x1="298.0" y1="46.0" x2="298.0" y2="38.0" stroke="#888" stroke-width="1"/><line x1="298.0" y1="508.0" x2="298.0" y2="516.0" stroke="#888" stroke-width="1"/><text x="298.0" y="36.0" text-anchor="middle" font-family="Arial" font-size="9" fill="#666">6</text><text x="298.0" y="524.0" text-anchor="middle" font-family="Arial" font-size="9" fill="#666">6</text><line x1="319.0" y1="46.0" x2="319.0" y2="42.0" stroke="#888" stroke-width="1"/><line x1="319.0" y1="508.0" x2="319.0" y2="512.0" stroke="#888" stroke-width="1"/><line x1="340.0" y1="46.0" x2="340.0" y2="38.0" stroke="#888" stroke-width="1"/><line x1="340.0" y1="508.0" x2="340.0" y2="516.0" stroke="#888" stroke-width="1"/><text x="340.0" y="36.0" text-anchor="middle" font-family="Arial" font-size="9" fill="#666">7</text><text x="340.0" y="524.0" text-anchor="middle" font-family="Arial" font-size="9" fill="#666">7</text><line x1="361.0" y1="46.0" x2="361.0" y2="42.0" stroke="#888" stroke-width="1"/><line x1="361.0" y1="508.0" x2="361.0" y2="512.0" stroke="#888" stroke-width="1"/><line x1="382.0" y1="46.0" x2="382.0" y2="38.0" stroke="#888" stroke-width="1"/><line x1="382.0" y1="508.0" x2="382.0" y2="516.0" stroke="#888" stroke-width="1"/><text x="382.0" y="36.0" text-anchor="middle" font-family="Arial" font-size="9" fill="#666">8</text><text x="382.0" y="524.0" text-anchor="middle" font-family="Arial" font-size="9" fill="#666">8</text><line x1="403.0" y1="46.0" x2="403.0" y2="42.0" stroke="#888" stroke-width="1"/><line x1="403.0" y1="508.0" x2="403.0" y2="512.0" stroke="#888" stroke-width="1"/><line x1="424.0" y1="46.0" x2="424.0" y2="38.0" stroke="#888" stroke-width="1"/><line x1="424.0" y1="508.0" x2="424.0" y2="516.0" stroke="#888" stroke-width="1"/><text x="424.0" y="36.0" text-anchor="middle" font-family="Arial" font-size="9" fill="#666">9</text><text x="424.0" y="524.0" text-anchor="middle" font-family="Arial" font-size="9" fill="#666">9</text><line x1="46.0" y1="508.0" x2="38.0" y2="508.0" stroke="#888" stroke-width="1"/><line x1="424.0" y1="508.0" x2="432.0" y2="508.0" stroke="#888" stroke-width="1"/><text x="36.0" y="511.0" text-anchor="end" font-family="Arial" font-size="9" fill="#666">0</text><text x="434.0" y="511.0" text-anchor="start" font-family="Arial" font-size="9" fill="#666">0</text><line x1="46.0" y1="487.0" x2="42.0" y2="487.0" stroke="#888" stroke-width="1"/><line x1="424.0" y1="487.0" x2="428.0" y2="487.0" stroke="#888" stroke-width="1"/><line x1="46.0" y1="466.0" x2="38.0" y2="466.0" stroke="#888" stroke-width="1"/><line x1="424.0" y1="466.0" x2="432.0" y2="466.0" stroke="#888" stroke-width="1"/><text x="36.0" y="469.0" text-anchor="end" font-family="Arial" font-size="9" fill="#666">1</text><text x="434.0" y="469.0" text-anchor="start" font-family="Arial" font-size="9" fill="#666">1</text><line x1="46.0" y1="445.0" x2="42.0" y2="445.0" stroke="#888" stroke-width="1"/><line x1="424.0" y1="445.0" x2="428.0" y2="445.0" stroke="#888" stroke-width="1"/><line x1="46.0" y1="424.0" x2="38.0" y2="424.0" stroke="#888" stroke-width="1"/><line x1="424.0" y1="424.0" x2="432.0" y2="424.0" stroke="#888" stroke-width="1"/><text x="36.0" y="427.0" text-anchor="end" font-family="Arial" font-size="9" fill="#666">2</text><text x="434.0" y="427.0" text-anchor="start" font-family="Arial" font-size="9" fill="#666">2</text><line x1="46.0" y1="403.0" x2="42.0" y2="403.0" stroke="#888" stroke-width="1"/><line x1="424.0" y1="403.0" x2="428.0" y2="403.0" stroke="#888" stroke-width="1"/><line x1="46.0" y1="382.0" x2="38.0" y2="382.0" stroke="#888" stroke-width="1"/><line x1="424.0" y1="382.0" x2="432.0" y2="382.0" stroke="#888" stroke-width="1"/><text x="36.0" y="385.0" text-anchor="end" font-family="Arial" font-size="9" fill="#666">3</text><text x="434.0" y="385.0" text-anchor="start" font-family="Arial" font-size="9" fill="#666">3</text><line x1="46.0" y1="361.0" x2="42.0" y2="361.0" stroke="#888" stroke-width="1"/><line x1="424.0" y1="361.0" x2="428.0" y2="361.0" stroke="#888" stroke-width="1"/><line x1="46.0" y1="340.0" x2="38.0" y2="340.0" stroke="#888" stroke-width="1"/><line x1="424.0" y1="340.0" x2="432.0" y2="340.0" stroke="#888" stroke-width="1"/><text x="36.0" y="343.0" text-anchor="end" font-family="Arial" font-size="9" fill="#666">4</text><text x="434.0" y="343.0" text-anchor="start" font-family="Arial" font-size="9" fill="#666">4</text><line x1="46.0" y1="319.0" x2="42.0" y2="319.0" stroke="#888" stroke-width="1"/><line x1="424.0" y1="319.0" x2="428.0" y2="319.0" stroke="#888" stroke-width="1"/><line x1="46.0" y1="298.0" x2="38.0" y2="298.0" stroke="#888" stroke-width="1"/><line x1="424.0" y1="298.0" x2="432.0" y2="298.0" stroke="#888" stroke-width="1"/><text x="36.0" y="301.0" text-anchor="end" font-family="Arial" font-size="9" fill="#666">5</text><text x="434.0" y="301.0" text-anchor="start" font-family="Arial" font-size="9" fill="#666">5</text><line x1="46.0" y1="277.0" x2="42.0" y2="277.0" stroke="#888" stroke-width="1"/><line x1="424.0" y1="277.0" x2="428.0" y2="277.0" stroke="#888" stroke-width="1"/><line x1="46.0" y1="256.0" x2="38.0" y2="256.0" stroke="#888" stroke-width="1"/><line x1="424.0" y1="256.0" x2="432.0" y2="256.0" stroke="#888" stroke-width="1"/><text x="36.0" y="259.0" text-anchor="end" font-family="Arial" font-size="9" fill="#666">6</text><text x="434.0" y="259.0" text-anchor="start" font-family="Arial" font-size="9" fill="#666">6</text><line x1="46.0" y1="235.0" x2="42.0" y2="235.0" stroke="#888" stroke-width="1"/><line x1="424.0" y1="235.0" x2="428.0" y2="235.0" stroke="#888" stroke-width="1"/><line x1="46.0" y1="214.0" x2="38.0" y2="214.0" stroke="#888" stroke-width="1"/><line x1="424.0" y1="214.0" x2="432.0" y2="214.0" stroke="#888" stroke-width="1"/><text x="36.0" y="217.0" text-anchor="end" font-family="Arial" font-size="9" fill="#666">7</text><text x="434.0" y="217.0" text-anchor="start" font-family="Arial" font-size="9" fill="#666">7</text><line x1="46.0" y1="193.0" x2="42.0" y2="193.0" stroke="#888" stroke-width="1"/><line x1="424.0" y1="193.0" x2="428.0" y2="193.0" stroke="#888" stroke-width="1"/><line x1="46.0" y1="172.0" x2="38.0" y2="172.0" stroke="#888" stroke-width="1"/><line x1="424.0" y1="172.0" x2="432.0" y2="172.0" stroke="#888" stroke-width="1"/><text x="36.0" y="175.0" text-anchor="end" font-family="Arial" font-size="9" fill="#666">8</text><text x="434.0" y="175.0" text-anchor="start" font-family="Arial" font-size="9" fill="#666">8</text><line x1="46.0" y1="151.0" x2="42.0" y2="151.0" stroke="#888" stroke-width="1"/><line x1="424.0" y1="151.0" x2="428.0" y2="151.0" stroke="#888" stroke-width="1"/><line x1="46.0" y1="130.0" x2="38.0" y2="130.0" stroke="#888" stroke-width="1"/><line x1="424.0" y1="130.0" x2="432.0" y2="130.0" stroke="#888" stroke-width="1"/><text x="36.0" y="133.0" text-anchor="end" font-family="Arial" font-size="9" fill="#666">9</text><text x="434.0" y="133.0" text-anchor="start" font-family="Arial" font-size="9" fill="#666">9</text><line x1="46.0" y1="109.0" x2="42.0" y2="109.0" stroke="#888" stroke-width="1"/><line x1="424.0" y1="109.0" x2="428.0" y2="109.0" stroke="#888" stroke-width="1"/><line x1="46.0" y1="88.0" x2="38.0" y2="88.0" stroke="#888" stroke-width="1"/><line x1="424.0" y1="88.0" x2="432.0" y2="88.0" stroke="#888" stroke-width="1"/><text x="36.0" y="91.0" text-anchor="end" font-family="Arial" font-size="9" fill="#666">10</text><text x="434.0" y="91.0" text-anchor="start" font-family="Arial" font-size="9" fill="#666">10</text><line x1="46.0" y1="67.0" x2="42.0" y2="67.0" stroke="#888" stroke-width="1"/><line x1="424.0" y1="67.0" x2="428.0" y2="67.0" stroke="#888" stroke-width="1"/><line x1="46.0" y1="46.0" x2="38.0" y2="46.0" stroke="#888" stroke-width="1"/><line x1="424.0" y1="46.0" x2="432.0" y2="46.0" stroke="#888" stroke-width="1"/><text x="36.0" y="49.0" text-anchor="end" font-family="Arial" font-size="9" fill="#666">11</text><text x="434.0" y="49.0" text-anchor="start" font-family="Arial" font-size="9" fill="#666">11</text><rect x="130.0" y="130.0" width="210.0" height="294.0" fill="none" stroke="#9aa" stroke-width="1" stroke-dasharray="3 3"/><rect x="131.3" y="425.3" width="207.5" height="60.5" fill="#f2f2f2" stroke="#333" stroke-width="1.5" stroke-dasharray="6 4"/><text x="235.0" y="452.9" text-anchor="middle" font-family="Arial" font-size="12" font-weight="bold" fill="#222">PORCH</text><text x="235.0" y="468.7" text-anchor="middle" font-family="Arial" font-size="10" fill="#555">5.0×1.5 m</text><rect x="130.0" y="130.0" width="126.0" height="86.1" fill="#d9ead3" stroke="#333" stroke-width="1.5"/><text x="193.0" y="170.4" text-anchor="middle" font-family="Arial" font-size="12" font-weight="bold" fill="#222">BEDROOM</text><text x="193.0" y="186.2" text-anchor="middle" font-family="Arial" font-size="10" fill="#555">3.0×2.0 m · 6.2 sqm</text><rect x="256.0" y="130.0" width="84.0" height="50.4" fill="#ead1dc" stroke="#333" stroke-width="1.5"/><text x="298.0" y="146.8" text-anchor="middle" font-family="Arial" font-size="12" font-weight="bold" fill="#222">T&amp;B</text><text x="298.0" y="162.6" text-anchor="middle" font-family="Arial" font-size="10" fill="#555">2.0×1.2 m</text><text x="298.0" y="174.1" text-anchor="middle" font-family="Arial" font-size="10" fill="#555">2.4 sqm</text><rect x="130.0" y="306.4" width="210.0" height="117.6" fill="#cfe2f3" stroke="#333" stroke-width="1.5"/><text x="235.0" y="362.6" text-anchor="middle" font-family="Arial" font-size="12" font-weight="bold" fill="#222">LIVING</text><text x="235.0" y="378.4" text-anchor="middle" font-family="Arial" font-size="10" fill="#555">5.0×2.8 m · 14.0 sqm</text><rect x="130.0" y="216.1" width="126.0" height="90.3" fill="#cfe2f3" stroke="#333" stroke-width="1.5"/><text x="193.0" y="258.6" text-anchor="middle" font-family="Arial" font-size="12" font-weight="bold" fill="#222">DINING</text><text x="193.0" y="274.4" text-anchor="middle" font-family="Arial" font-size="10" fill="#555">3.0×2.1 m · 6.5 sqm</text><rect x="256.0" y="180.4" width="84.0" height="126.0" fill="#cfe2f3" stroke="#333" stroke-width="1.5"/><text x="298.0" y="235.0" text-anchor="middle" font-family="Arial" font-size="12" font-weight="bold" fill="#222">KITCHEN</text><text x="298.0" y="250.8" text-anchor="middle" font-family="Arial" font-size="10" fill="#555">2.0×3.0 m</text><text x="298.0" y="262.3" text-anchor="middle" font-family="Arial" font-size="10" fill="#555">6.0 sqm</text><text x="235.0" y="542.0" text-anchor="middle" font-family="Arial" font-size="12" font-weight="bold" fill="#888">FRONT (street)</text><rect x="253.90" y="130.00" width="4.20" height="50.40" fill="#555" stroke="none"/><rect x="130.00" y="214.00" width="126.00" height="4.20" fill="#555" stroke="none"/><rect x="253.90" y="180.40" width="4.20" height="35.70" fill="#555" stroke="none"/><rect x="256.00" y="178.30" width="84.00" height="4.20" fill="#555" stroke="none"/><rect x="130.00" y="125.80" width="126.00" height="8.40" fill="#555" stroke="none"/><rect x="125.80" y="130.00" width="8.40" height="86.10" fill="#555" stroke="none"/><rect x="256.00" y="125.80" width="84.00" height="8.40" fill="#555" stroke="none"/><rect x="335.80" y="130.00" width="8.40" height="50.40" fill="#555" stroke="none"/><rect x="130.00" y="419.80" width="210.00" height="8.40" fill="#555" stroke="none"/><rect x="335.80" y="306.40" width="8.40" height="117.60" fill="#555" stroke="none"/><rect x="125.80" y="306.40" width="8.40" height="117.60" fill="#555" stroke="none"/><rect x="125.80" y="216.10" width="8.40" height="90.30" fill="#555" stroke="none"/><rect x="335.80" y="180.40" width="8.40" height="126.00" fill="#555" stroke="none"/><rect x="253.90" y="178.30" width="4.20" height="4.20" fill="#555" stroke="none"/><rect x="251.80" y="125.80" width="8.40" height="8.40" fill="#555" stroke="none"/><rect x="125.80" y="211.90" width="8.40" height="8.40" fill="#555" stroke="none"/><rect x="253.90" y="178.30" width="4.20" height="4.20" fill="#555" stroke="none"/><rect x="253.90" y="178.30" width="4.20" height="4.20" fill="#555" stroke="none"/><rect x="335.80" y="176.20" width="8.40" height="8.40" fill="#555" stroke="none"/><rect x="125.80" y="125.80" width="8.40" height="8.40" fill="#555" stroke="none"/><rect x="251.80" y="125.80" width="8.40" height="8.40" fill="#555" stroke="none"/><rect x="125.80" y="211.90" width="8.40" height="8.40" fill="#555" stroke="none"/><rect x="125.80" y="125.80" width="8.40" height="8.40" fill="#555" stroke="none"/><rect x="251.80" y="125.80" width="8.40" height="8.40" fill="#555" stroke="none"/><rect x="335.80" y="125.80" width="8.40" height="8.40" fill="#555" stroke="none"/><rect x="335.80" y="176.20" width="8.40" height="8.40" fill="#555" stroke="none"/><rect x="335.80" y="125.80" width="8.40" height="8.40" fill="#555" stroke="none"/><rect x="125.80" y="419.80" width="8.40" height="8.40" fill="#555" stroke="none"/><rect x="335.80" y="419.80" width="8.40" height="8.40" fill="#555" stroke="none"/><rect x="335.80" y="419.80" width="8.40" height="8.40" fill="#555" stroke="none"/><rect x="125.80" y="419.80" width="8.40" height="8.40" fill="#555" stroke="none"/><rect x="125.80" y="211.90" width="8.40" height="8.40" fill="#555" stroke="none"/><rect x="335.80" y="176.20" width="8.40" height="8.40" fill="#555" stroke="none"/><rect x="132.1" y="306.4" width="123.9" height="5.0" fill="#cfe2f3" stroke="none"/><rect x="132.1" y="301.4" width="123.9" height="5.0" fill="#cfe2f3" stroke="none"/><rect x="256.0" y="306.4" width="81.9" height="5.0" fill="#cfe2f3" stroke="none"/><rect x="256.0" y="301.4" width="81.9" height="5.0" fill="#cfe2f3" stroke="none"/><rect x="251.0" y="218.2" width="5.0" height="88.2" fill="#cfe2f3" stroke="none"/><rect x="256.0" y="218.2" width="5.0" height="88.2" fill="#cfe2f3" stroke="none"/><rect x="136.3" y="216.1" width="33.6" height="5.0" fill="#cfe2f3" stroke="none"/><rect x="136.3" y="211.1" width="33.6" height="5.0" fill="#d9ead3" stroke="none"/><line x1="136.3" y1="216.1" x2="136.3" y2="182.5" stroke="#444" stroke-width="1.4"/><path d="M 136.3 182.5 A 33.6 33.6 0 0 1 169.9 216.1" fill="none" stroke="#999" stroke-width="0.7" stroke-dasharray="2 2"/><rect x="262.3" y="175.4" width="29.4" height="5.0" fill="#ead1dc" stroke="none"/><rect x="262.3" y="180.4" width="29.4" height="5.0" fill="#cfe2f3" stroke="none"/><line x1="262.3" y1="180.4" x2="262.3" y2="151.0" stroke="#444" stroke-width="1.4"/><path d="M 262.3 151.0 A 29.4 29.4 0 0 1 291.7 180.4" fill="none" stroke="#999" stroke-width="0.7" stroke-dasharray="2 2"/><rect x="136.3" y="419.0" width="37.8" height="5.0" fill="#cfe2f3" stroke="none"/><rect x="136.3" y="424.0" width="37.8" height="5.0" fill="#fbfbf7" stroke="none"/><line x1="136.3" y1="424.0" x2="136.3" y2="386.2" stroke="#444" stroke-width="1.4"/><path d="M 136.3 386.2 A 37.8 37.8 0 0 1 174.1 424.0" fill="none" stroke="#999" stroke-width="0.7" stroke-dasharray="2 2"/><rect x="335.0" y="186.7" width="5.0" height="33.6" fill="#cfe2f3" stroke="none"/><rect x="340.0" y="186.7" width="5.0" height="33.6" fill="#fbfbf7" stroke="none"/><line x1="340.0" y1="186.7" x2="306.4" y2="186.7" stroke="#444" stroke-width="1.4"/><path d="M 306.4 186.7 A 33.6 33.6 0 0 0 340.0 220.3" fill="none" stroke="#999" stroke-width="0.7" stroke-dasharray="2 2"/><rect x="158.3" y="130.0" width="69.3" height="5.0" fill="#d9ead3" stroke="none"/><rect x="158.3" y="125.0" width="69.3" height="5.0" fill="#fbfbf7" stroke="none"/><line x1="158.3" y1="127.0" x2="227.6" y2="127.0" stroke="#222" stroke-width="1.0"/><line x1="158.3" y1="130.0" x2="227.6" y2="130.0" stroke="#222" stroke-width="1.0"/><line x1="158.3" y1="133.0" x2="227.6" y2="133.0" stroke="#222" stroke-width="1.0"/><rect x="130.0" y="149.4" width="5.0" height="47.3" fill="#d9ead3" stroke="none"/><rect x="125.0" y="149.4" width="5.0" height="47.3" fill="#fbfbf7" stroke="none"/><line x1="127.0" y1="196.7" x2="127.0" y2="149.4" stroke="#222" stroke-width="1.0"/><line x1="130.0" y1="196.7" x2="130.0" y2="149.4" stroke="#222" stroke-width="1.0"/><line x1="133.0" y1="196.7" x2="133.0" y2="149.4" stroke="#222" stroke-width="1.0"/><rect x="279.1" y="130.0" width="37.8" height="5.0" fill="#ead1dc" stroke="none"/><rect x="279.1" y="125.0" width="37.8" height="5.0" fill="#fbfbf7" stroke="none"/><line x1="279.1" y1="127.0" x2="316.9" y2="127.0" stroke="#222" stroke-width="1.0"/><line x1="279.1" y1="130.0" x2="316.9" y2="130.0" stroke="#222" stroke-width="1.0"/><line x1="279.1" y1="133.0" x2="316.9" y2="133.0" stroke="#222" stroke-width="1.0"/><rect x="335.0" y="142.6" width="5.0" height="25.2" fill="#ead1dc" stroke="none"/><rect x="340.0" y="142.6" width="5.0" height="25.2" fill="#fbfbf7" stroke="none"/><line x1="337.0" y1="167.8" x2="337.0" y2="142.6" stroke="#222" stroke-width="1.0"/><line x1="340.0" y1="167.8" x2="340.0" y2="142.6" stroke="#222" stroke-width="1.0"/><line x1="343.0" y1="167.8" x2="343.0" y2="142.6" stroke="#222" stroke-width="1.0"/><rect x="221.2" y="419.0" width="84.3" height="5.0" fill="#cfe2f3" stroke="none"/><rect x="221.2" y="424.0" width="84.3" height="5.0" fill="#fbfbf7" stroke="none"/><line x1="221.2" y1="421.0" x2="305.5" y2="421.0" stroke="#222" stroke-width="1.0"/><line x1="221.2" y1="424.0" x2="305.5" y2="424.0" stroke="#222" stroke-width="1.0"/><line x1="221.2" y1="427.0" x2="305.5" y2="427.0" stroke="#222" stroke-width="1.0"/><rect x="130.0" y="332.9" width="5.0" height="64.7" fill="#cfe2f3" stroke="none"/><rect x="125.0" y="332.9" width="5.0" height="64.7" fill="#fbfbf7" stroke="none"/><line x1="127.0" y1="397.5" x2="127.0" y2="332.9" stroke="#222" stroke-width="1.0"/><line x1="130.0" y1="397.5" x2="130.0" y2="332.9" stroke="#222" stroke-width="1.0"/><line x1="133.0" y1="397.5" x2="133.0" y2="332.9" stroke="#222" stroke-width="1.0"/><rect x="335.0" y="332.9" width="5.0" height="64.7" fill="#cfe2f3" stroke="none"/><rect x="340.0" y="332.9" width="5.0" height="64.7" fill="#fbfbf7" stroke="none"/><line x1="337.0" y1="397.5" x2="337.0" y2="332.9" stroke="#222" stroke-width="1.0"/><line x1="340.0" y1="397.5" x2="340.0" y2="332.9" stroke="#222" stroke-width="1.0"/><line x1="343.0" y1="397.5" x2="343.0" y2="332.9" stroke="#222" stroke-width="1.0"/><rect x="130.0" y="236.4" width="5.0" height="49.7" fill="#cfe2f3" stroke="none"/><rect x="125.0" y="236.4" width="5.0" height="49.7" fill="#fbfbf7" stroke="none"/><line x1="127.0" y1="286.1" x2="127.0" y2="236.4" stroke="#222" stroke-width="1.0"/><line x1="130.0" y1="286.1" x2="130.0" y2="236.4" stroke="#222" stroke-width="1.0"/><line x1="133.0" y1="286.1" x2="133.0" y2="236.4" stroke="#222" stroke-width="1.0"/><rect x="335.0" y="249.4" width="5.0" height="40.4" fill="#cfe2f3" stroke="none"/><rect x="340.0" y="249.4" width="5.0" height="40.4" fill="#fbfbf7" stroke="none"/><line x1="337.0" y1="289.9" x2="337.0" y2="249.4" stroke="#222" stroke-width="1.0"/><line x1="340.0" y1="289.9" x2="340.0" y2="249.4" stroke="#222" stroke-width="1.0"/><line x1="343.0" y1="289.9" x2="343.0" y2="249.4" stroke="#222" stroke-width="1.0"/></svg>