<svg xmlns="http://www.w3.org/2000/svg" width="428" height="512" viewBox="0 0 428 512"><rect x="0" y="0" width="428" height="512" fill="white"/><rect x="46.0" y="46.0" width="336.0" height="420.0" fill="#fbfbf7" stroke="#333" stroke-width="1.5"/><line x1="46.0" y1="46.0" x2="46.0" y2="38.0" stroke="#888" stroke-width="1"/><line x1="46.0" y1="466.0" x2="46.0" y2="474.0" stroke="#888" stroke-width="1"/><text x="46.0" y="36.0" text-anchor="middle" font-family="Arial" font-size="9" fill="#666">0</text><text x="46.0" y="482.0" text-anchor="middle" font-family="Arial" font-size="9" fill="#666">0</text><line x1="67.0" y1="46.0" x2="67.0" y2="42.0" stroke="#888" stroke-width="1"/><line x1="67.0" y1="466.0" x2="67.0" y2="470.0" stroke="#888" stroke-width="1"/><line x1="88.0" y1="46.0" x2="88.0" y2="38.0" stroke="#888" stroke-width="1"/><line x1="88.0" y1="466.0" x2="88.0" y2="474.0" stroke="#888" stroke-width="1"/><text x="88.0" y="36.0" text-anchor="middle" font-family="Arial" font-size="9" fill="#666">1</text><text x="88.0" y="482.0" text-anchor="middle" font-family="Arial" font-size="9" fill="#666">1</text><line x1="109.0" y1="46.0" x2="109.0" y2="42.0" stroke="#888" stroke-width="1"/><line x1="109.0" y1="466.0" x2="109.0" y2="470.0" stroke="#888" stroke-width="1"/><line x1="130.0" y1="46.0" x2="130.0" y2="38.0" stroke="#888" stroke-width="1"/><line x1="130.0" y1="466.0" x2="130.0" y2="474.0" stroke="#888" stroke-width="1"/><text x="130.0" y="36.0" text-anchor="middle" font-family="Arial" font-size="9" fill="#666">2</text><text x="130.0" y="482.0" text-anchor="middle" font-family="Arial" font-size="9" fill="#666">2</text><line x1="151.0" y1="46.0" x2="151.0" y2="42.0" stroke="#888" stroke-width="1"/><line x1="151.0" y1="466.0" x2="151.0" y2="470.0" stroke="#888" stroke-width="1"/><line x1="172.0" y1="46.0" x2="172.0" y2="38.0" stroke="#888" stroke-width="1"/><line x1="172.0" y1="466.0" x2="172.0" y2="474.0" stroke="#888" stroke-width="1"/><text x="172.0" y="36.0" text-anchor="middle" font-family="Arial" font-size="9" fill="#666">3</text><text x="172.0" y="482.0" text-anchor="middle" font-family="Arial" font-size="9" fill="#666">3</text><line x1="193.0" y1="46.0" x2="193.0" y2="42.0" stroke="#888" stroke-width="1"/><line x1="193.0" y1="466.0" x2="193.0" y2="470.0" stroke="#888" stroke-width="1"/><line x1="214.0" y1="46.0" x2="214.0" y2="38.0" stroke="#888" stroke-width="1"/><line x1="214.0" y1="466.0" x2="214.0" y2="474.0" stroke="#888" stroke-width="1"/><text x="214.0" y="36.0" text-anchor="middle" font-family="Arial" font-size="9" fill="#666">4</text><text x="214.0" y="482.0" text-anchor="middle" font-family="Arial" font-size="9" fill="#666">4</text><line x1="235.0" y1="46.0" x2="235.0" y2="42.0" stroke="#888" stroke-width="1"/><line x1="235.0" y1="466.0" x2="235.0" y2="470.0" stroke="#888" stroke-width="1"/><line x1="256.0" y1="46.0" x2="256.0" y2="38.0" stroke="#888" stroke-width="1"/><line x1="256.0" y1="466.0" x2="256.0" y2="474.0" stroke="#888" stroke-width="1"/><text x="256.0" y="36.0" text-anchor="middle" font-family="Arial" font-size="9" fill="#666">5</text><text x="256.0" y="482.0" text-anchor="middle" font-family="Arial" font-size="9" fill="#666">5</text><line x1="277.0" y1="46.0" x2="277.0" y2="42.0" stroke="#888" stroke-width="1"/><line x1="277.0" y1="466.0" x2="277.0" y2="470.0" stroke="#888" stroke-width="1"/><line x1="298.0" y1="46.0" x2="298.0" y2="38.0" stroke="#888" stroke-width="1"/><line x1="298.0" y1="466.0" x2="298.0" y2="474.0" stroke="#888" stroke-width="1"/><text x="298.0" y="36.0" text-anchor="middle" font-family="Arial" font-size="9" fill="#666">6</text><text x="298.0" y="482.0" text-anchor="middle" font-family="Arial" font-size="9" fill="#666">6</text><line x1="319.0" y1="46.0" x2="319.0" y2="42.0" stroke="#888" stroke-width="1"/><line x1="319.0" y1="466.0" x2="319.0" y2="470.0" stroke="#888" stroke-width="1"/><line x1="340.0" y1="46.0" x2="340.0" y2="38.0" stroke="#888" stroke-width="1"/><line x1="340.0" y1="466.0" x2="340.0" y2="474.0" stroke="#888" stroke-width="1"/><text x="340.0" y="36.0" text-anchor="middle" font-family="Arial" font-size="9" fill="#666">7</text><text x="340.0" y="482.0" text-anchor="middle" font-family="Arial" font-size="9" fill="#666">7</text><line x1="361.0" y1="46.0" x2="361.0" y2="42.0" stroke="#888" stroke-width="1"/><line x1="361.0" y1="466.0" x2="361.0" y2="470.0" stroke="#888" stroke-width="1"/><line x1="382.0" y1="46.0" x2="382.0" y2="38.0" stroke="#888" stroke-width="1"/><line x1="382.0" y1="466.0" x2="382.0" y2="474.0" stroke="#888" stroke-width="1"/><text x="382.0" y="36.0" text-anchor="middle" font-family="Arial" font-size="9" fill="#666">8</text><text x="382.0" y="482.0" text-anchor="middle" font-family="Arial" font-size="9" fill="#666">8</text><line x1="46.0" y1="466.0" x2="38.0" y2="466.0" stroke="#888" stroke-width="1"/><line x1="382.0" y1="466.0" x2="390.0" y2="466.0" stroke="#888" stroke-width="1"/><text x="36.0" y="469.0" text-anchor="end" font-family="Arial" font-size="9" fill="#666">0</text><text x="392.0" y="469.0" text-anchor="start" font-family="Arial" font-size="9" fill="#666">0</text><line x1="46.0" y1="445.0" x2="42.0" y2="445.0" stroke="#888" stroke-width="1"/><line x1="382.0" y1="445.0" x2="386.0" y2="445.0" stroke="#888" stroke-width="1"/><line x1="46.0" y1="424.0" x2="38.0" y2="424.0" stroke="#888" stroke-width="1"/><line x1="382.0" y1="424.0" x2="390.0" y2="424.0" stroke="#888" stroke-width="1"/><text x="36.0" y="427.0" text-anchor="end" font-family="Arial" font-size="9" fill="#666">1</text><text x="392.0" y="427.0" text-anchor="start" font-family="Arial" font-size="9" fill="#666">1</text><line x1="46.0" y1="403.0" x2="42.0" y2="403.0" stroke="#888" stroke-width="1"/><line x1="382.0" y1="403.0" x2="386.0" y2="403.0" stroke="#888" stroke-width="1"/><line x1="46.0" y1="382.0" x2="38.0" y2="382.0" stroke="#888" stroke-width="1"/><line x1="382.0" y1="382.0" x2="390.0" y2="382.0" stroke="#888" stroke-width="1"/><text x="36.0" y="385.0" text-anchor="end" font-family="Arial" font-size="9" fill="#666">2</text><text x="392.0" y="385.0" text-anchor="start" font-family="Arial" font-size="9" fill="#666">2</text><line x1="46.0" y1="361.0" x2="42.0" y2="361.0" stroke="#888" stroke-width="1"/><line x1="382.0" y1="361.0" x2="386.0" y2="361.0" stroke="#888" stroke-width="1"/><line x1="46.0" y1="340.0" x2="38.0" y2="340.0" stroke="#888" stroke-width="1"/><line x1="382.0" y1="340.0" x2="390.0" y2="340.0" stroke="#888" stroke-width="1"/><text x="36.0" y="343.0" text-anchor="end" font-family="Arial" font-size="9" fill="#666">3</text><text x="392.0" y="343.0" text-anchor="start" font-family="Arial" font-size="9" fill="#666">3</text><line x1="46.0" y1="319.0" x2="42.0" y2="319.0" stroke="#888" stroke-width="1"/><line x1="382.0" y1="319.0" x2="386.0" y2="319.0" stroke="#888" stroke-width="1"/><line x1="46.0" y1="298.0" x2="38.0" y2="298.0" stroke="#888" stroke-width="1"/><line x1="382.0" y1="298.0" x2="390.0" y2="298.0" stroke="#888" stroke-width="1"/><text x="36.0" y="301.0" text-anchor="end" font-family="Arial" font-size="9" fill="#666">4</text><text x="392.0" y="301.0" text-anchor="start" font-family="Arial" font-size="9" fill="#666">4</text><line x1="46.0" y1="277.0" x2="42.0" y2="277.0" stroke="#888" stroke-width="1"/><line x1="382.0" y1="277.0" x2="386.0" y2="277.0" stroke="#888" stroke-width="1"/><line x1="46.0" y1="256.0" x2="38.0" y2="256.0" stroke="#888" stroke-width="1"/><line x1="382.0" y1="256.0" x2="390.0" y2="256.0" stroke="#888" stroke-width="1"/><text x="36.0" y="259.0" text-anchor="end" font-family="Arial" font-size="9" fill="#666">5</text><text x="392.0" y="259.0" text-anchor="start" font-family="Arial" font-size="9" fill="#666">5</text><line x1="46.0" y1="235.0" x2="42.0" y2="235.0" stroke="#888" stroke-width="1"/><line x1="382.0" y1="235.0" x2="386.0" y2="235.0" stroke="#888" stroke-width="1"/><line x1="46.0" y1="214.0" x2="38.0" y2="214.0" stroke="#888" stroke-width="1"/><line x1="382.0" y1="214.0" x2="390.0" y2="214.0" stroke="#888" stroke-width="1"/><text x="36.0" y="217.0" text-anchor="end" font-family="Arial" font-size="9" fill="#666">6</text><text x="392.0" y="217.0" text-anchor="start" font-family="Arial" font-size="9" fill="#666">6</text><line x1="46.0" y1="193.0" x2="42.0" y2="193.0" stroke="#888" stroke-width="1"/><line x1="382.0" y1="193.0" x2="386.0" y2="193.0" stroke="#888" stroke-width="1"/><line x1="46.0" y1="172.0" x2="38.0" y2="172.0" stroke="#888" stroke-width="1"/><line x1="382.0" y1="172.0" x2="390.0" y2="172.0" stroke="#888" stroke-width="1"/><text x="36.0" y="175.0" text-anchor="end" font-family="Arial" font-size="9" fill="#666">7</text><text x="392.0" y="175.0" text-anchor="start" font-family="Arial" font-size="9" fill="#666">7</text><line x1="46.0" y1="151.0" x2="42.0" y2="151.0" stroke="#888" stroke-width="1"/><line x1="382.0" y1="151.0" x2="386.0" y2="151.0" stroke="#888" stroke-width="1"/><line x1="46.0" y1="130.0" x2="38.0" y2="130.0" stroke="#888" stroke-width="1"/><line x1="382.0" y1="130.0" x2="390.0" y2="130.0" stroke="#888" stroke-width="1"/><text x="36.0" y="133.0" text-anchor="end" font-family="Arial" font-size="9" fill="#666">8</text><text x="392.0" y="133.0" text-anchor="start" font-family="Arial" font-size="9" fill="#666">8</text><line x1="46.0" y1="109.0" x2="42.0" y2="109.0" stroke="#888" stroke-width="1"/><line x1="382.0" y1="109.0" x2="386.0" y2="109.0" stroke="#888" stroke-width="1"/><line x1="46.0" y1="88.0" x2="38.0" y2="88.0" stroke="#888" stroke-width="1"/><line x1="382.0" y1="88.0" x2="390.0" y2="88.0" stroke="#888" stroke-width="1"/><text x="36.0" y="91.0" text-anchor="end" font-family="Arial" font-size="9" fill="#666">9</text><text x="392.0" y="91.0" text-anchor="start" font-family="Arial" font-size="9" fill="#666">9</text><line x1="46.0" y1="67.0" x2="42.0" y2="67.0" stroke="#888" stroke-width="1"/><line x1="382.0" y1="67.0" x2="386.0" y2="67.0" stroke="#888" stroke-width="1"/><line x1="46.0" y1="46.0" x2="38.0" y2="46.0" stroke="#888" stroke-width="1"/><line x1="382.0" y1="46.0" x2="390.0" y2="46.0" stroke="#888" stroke-width="1"/><text x="36.0" y="49.0" text-anchor="end" font-family="Arial" font-size="9" fill="#666">10</text><text x="392.0" y="49.0" text-anchor="start" font-family="Arial" font-size="9" fill="#666">10</text><rect x="130.0" y="130.0" width="168.0" height="252.0" fill="none" stroke="#9aa" stroke-width="1" stroke-dasharray="3 3"/><rect x="215.3" y="383.3" width="81.5" height="60.5" fill="#f2f2f2" stroke="#333" stroke-width="1.5" stroke-dasharray="6 4"/><text x="256.0" y="410.9" text-anchor="middle" font-family="Arial" font-size="12" font-weight="bold" fill="#222">PORCH</text><text x="256.0" y="426.7" text-anchor="middle" font-family="Arial" font-size="10" fill="#555">2.0×1.5 m</text><rect x="130.0" y="130.0" width="168.0" height="98.7" fill="#d9ead3" stroke="#333" stroke-width="1.5"/><text x="214.0" y="176.7" text-anchor="middle" font-family="Arial" font-size="12" font-weight="bold" fill="#222">BEDROOM</text><text x="214.0" y="192.5" text-anchor="middle" font-family="Arial" font-size="10" fill="#555">4.0×2.4 m · 9.4 sqm</text><rect x="130.0" y="319.0" width="84.0" height="63.0" fill="#ead1dc" stroke="#333" stroke-width="1.5"/><text x="172.0" y="342.1" text-anchor="middle" font-family="Arial" font-size="12" font-weight="bold" fill="#222">T&amp;B</text><text x="172.0" y="357.9" text-anchor="middle" font-family="Arial" font-size="10" fill="#555">2.0×1.5 m</text><text x="172.0" y="369.4" text-anchor="middle" font-family="Arial" font-size="10" fill="#555">3.0 sqm</text><rect x="214.0" y="228.7" width="84.0" height="153.3" fill="#cfe2f3" stroke="#333" stroke-width="1.5"/><text x="256.0" y="296.5" text-anchor="middle" font-family="Arial" font-size="11" font-weight="bold" fill="#222">GREAT ROOM</text><text x="256.0" y="312.2" text-anchor="middle" font-family="Arial" font-size="10" fill="#555">2.0×3.6 m</text><text x="256.0" y="323.7" text-anchor="middle" font-family="Arial" font-size="10" fill="#555">7.3 sqm</text><rect x="130.0" y="228.7" width="84.0" height="90.3" fill="#cfe2f3" stroke="#333" stroke-width="1.5"/><text x="172.0" y="265.5" text-anchor="middle" font-family="Arial" font-size="12" font-weight="bold" fill="#222">KITCHEN</text><text x="172.0" y="281.2" text-anchor="middle" font-family="Arial" font-size="10" fill="#555">2.0×2.1 m</text><text x="172.0" y="292.8" text-anchor="middle" font-family="Arial" font-size="10" fill="#555">4.3 sqm</text><text x="214.0" y="500.0" text-anchor="middle" font-family="Arial" font-size="12" font-weight="bold" fill="#888">FRONT (street)</text><rect x="214.00" y="226.60" width="84.00" height="4.20" fill="#555" stroke="none"/><rect x="130.00" y="226.60" width="84.00" height="4.20" fill="#555" stroke="none"/><rect x="211.90" y="319.00" width="4.20" height="63.00" fill="#555" stroke="none"/><rect x="130.00" y="316.90" width="84.00" height="4.20" fill="#555" stroke="none"/><rect x="130.00" y="125.80" width="168.00" height="8.40" fill="#555" stroke="none"/><rect x="293.80" y="130.00" width="8.40" height="98.70" fill="#555" stroke="none"/><rect x="125.80" y="130.00" width="8.40" height="98.70" fill="#555" stroke="none"/><rect x="130.00" y="377.80" width="84.00" height="8.40" fill="#555" stroke="none"/><rect x="125.80" y="319.00" width="8.40" height="63.00" fill="#555" stroke="none"/><rect x="214.00" y="377.80" width="84.00" height="8.40" fill="#555" stroke="none"/><rect x="293.80" y="228.70" width="8.40" height="153.30" fill="#555" stroke="none"/><rect x="125.80" y="228.70" width="8.40" height="90.30" fill="#555" stroke="none"/><rect x="293.80" y="224.50" width="8.40" height="8.40" fill="#555" stroke="none"/><rect x="125.80" y="224.50" width="8.40" height="8.40" fill="#555" stroke="none"/><rect x="209.80" y="377.80" width="8.40" height="8.40" fill="#555" stroke="none"/><rect x="125.80" y="314.80" width="8.40" height="8.40" fill="#555" stroke="none"/><rect x="125.80" y="125.80" width="8.40" height="8.40" fill="#555" stroke="none"/><rect x="293.80" y="125.80" width="8.40" height="8.40" fill="#555" stroke="none"/><rect x="293.80" y="224.50" width="8.40" height="8.40" fill="#555" stroke="none"/><rect x="293.80" y="125.80" width="8.40" height="8.40" fill="#555" stroke="none"/><rect x="125.80" y="224.50" width="8.40" height="8.40" fill="#555" stroke="none"/><rect x="125.80" y="125.80" width="8.40" height="8.40" fill="#555" stroke="none"/><rect x="125.80" y="377.80" width="8.40" height="8.40" fill="#555" stroke="none"/><rect x="209.80" y="377.80" width="8.40" height="8.40" fill="#555" stroke="none"/><rect x="125.80" y="377.80" width="8.40" height="8.40" fill="#555" stroke="none"/><rect x="125.80" y="314.80" width="8.40" height="8.40" fill="#555" stroke="none"/><rect x="209.80" y="377.80" width="8.40" height="8.40" fill="#555" stroke="none"/><rect x="293.80" y="377.80" width="8.40" height="8.40" fill="#555" stroke="none"/><rect x="293.80" y="377.80" width="8.40" height="8.40" fill="#555" stroke="none"/><rect x="293.80" y="224.50" width="8.40" height="8.40" fill="#555" stroke="none"/><rect x="125.80" y="314.80" width="8.40" height="8.40" fill="#555" stroke="none"/><rect x="125.80" y="224.50" width="8.40" height="8.40" fill="#555" stroke="none"/><rect x="209.0" y="230.8" width="5.0" height="86.1" fill="#cfe2f3" stroke="none"/><rect x="214.0" y="230.8" width="5.0" height="86.1" fill="#cfe2f3" stroke="none"/><rect x="258.1" y="228.7" width="33.6" height="5.0" fill="#cfe2f3" stroke="none"/><rect x="258.1" y="223.7" width="33.6" height="5.0" fill="#d9ead3" stroke="none"/><line x1="291.7" y1="228.7" x2="291.7" y2="195.1" stroke="#444" stroke-width="1.4"/><path d="M 291.7 195.1 A 33.6 33.6 0 0 0 258.1 228.7" fill="none" stroke="#999" stroke-width="0.7" stroke-dasharray="2 2"/><rect x="209.0" y="346.3" width="5.0" height="29.4" fill="#ead1dc" stroke="none"/><rect x="214.0" y="346.3" width="5.0" height="29.4" fill="#cfe2f3" stroke="none"/><line x1="214.0" y1="375.7" x2="184.6" y2="375.7" stroke="#444" stroke-width="1.4"/><path d="M 184.6 375.7 A 29.4 29.4 0 0 1 214.0 346.3" fill="none" stroke="#999" stroke-width="0.7" stroke-dasharray="2 2"/><rect x="253.9" y="377.0" width="37.8" height="5.0" fill="#cfe2f3" stroke="none"/><rect x="253.9" y="382.0" width="37.8" height="5.0" fill="#fbfbf7" stroke="none"/><line x1="291.7" y1="382.0" x2="291.7" y2="344.2" stroke="#444" stroke-width="1.4"/><path d="M 291.7 344.2 A 37.8 37.8 0 0 0 253.9 382.0" fill="none" stroke="#999" stroke-width="0.7" stroke-dasharray="2 2"/><rect x="130.0" y="279.1" width="5.0" height="33.6" fill="#cfe2f3" stroke="none"/><rect x="125.0" y="279.1" width="5.0" height="33.6" fill="#fbfbf7" stroke="none"/><line x1="130.0" y1="312.7" x2="163.6" y2="312.7" stroke="#444" stroke-width="1.4"/><path d="M 163.6 312.7 A 33.6 33.6 0 0 0 130.0 279.1" fill="none" stroke="#999" stroke-width="0.7" stroke-dasharray="2 2"/><rect x="130.0" y="152.2" width="5.0" height="54.3" fill="#d9ead3" stroke="none"/><rect x="125.0" y="152.2" width="5.0" height="54.3" fill="#fbfbf7" stroke="none"/><line x1="127.0" y1="206.5" x2="127.0" y2="152.2" stroke="#222" stroke-width="1.0"/><line x1="130.0" y1="206.5" x2="130.0" y2="152.2" stroke="#222" stroke-width="1.0"/><line x1="133.0" y1="206.5" x2="133.0" y2="152.2" stroke="#222" stroke-width="1.0"/><rect x="293.0" y="152.2" width="5.0" height="54.3" fill="#d9ead3" stroke="none"/><rect x="298.0" y="152.2" width="5.0" height="54.3" fill="#fbfbf7" stroke="none"/><line x1="295.0" y1="206.5" x2="295.0" y2="152.2" stroke="#222" stroke-width="1.0"/><line x1="298.0" y1="206.5" x2="298.0" y2="152.2" stroke="#222" stroke-width="1.0"/><line x1="301.0" y1="206.5" x2="301.0" y2="152.2" stroke="#222" stroke-width="1.0"/><rect x="167.8" y="130.0" width="92.4" height="5.0" fill="#d9ead3" stroke="none"/><rect x="167.8" y="125.0" width="92.4" height="5.0" fill="#fbfbf7" stroke="none"/><line x1="167.8" y1="127.0" x2="260.2" y2="127.0" stroke="#222" stroke-width="1.0"/><line x1="167.8" y1="130.0" x2="260.2" y2="130.0" stroke="#222" stroke-width="1.0"/><line x1="167.8" y1="133.0" x2="260.2" y2="133.0" stroke="#222" stroke-width="1.0"/><rect x="153.1" y="377.0" width="37.8" height="5.0" fill="#ead1dc" stroke="none"/><rect x="153.1" y="382.0" width="37.8" height="5.0" fill="#fbfbf7" stroke="none"/><line x1="153.1" y1="379.0" x2="190.9" y2="379.0" stroke="#222" stroke-width="1.0"/><line x1="153.1" y1="382.0" x2="190.9" y2="382.0" stroke="#222" stroke-width="1.0"/><line x1="153.1" y1="385.0" x2="190.9" y2="385.0" stroke="#222" stroke-width="1.0"/><rect x="130.0" y="334.8" width="5.0" height="31.5" fill="#ead1dc" stroke="none"/><rect x="125.0" y="334.8" width="5.0" height="31.5" fill="#fbfbf7" stroke="none"/><line x1="127.0" y1="366.2" x2="127.0" y2="334.8" stroke="#222" stroke-width="1.0"/><line x1="130.0" y1="366.2" x2="130.0" y2="334.8" stroke="#222" stroke-width="1.0"/><line x1="133.0" y1="366.2" x2="133.0" y2="334.8" stroke="#222" stroke-width="1.0"/><rect x="293.0" y="263.2" width="5.0" height="84.3" fill="#cfe2f3" stroke="none"/><rect x="298.0" y="263.2" width="5.0" height="84.3" fill="#fbfbf7" stroke="none"/><line x1="295.0" y1="347.5" x2="295.0" y2="263.2" stroke="#222" stroke-width="1.0"/><line x1="298.0" y1="347.5" x2="298.0" y2="263.2" stroke="#222" stroke-width="1.0"/><line x1="301.0" y1="347.5" x2="301.0" y2="263.2" stroke="#222" stroke-width="1.0"/><rect x="214.0" y="266.5" width="25.2" height="52.5" fill="#e9e2d4" stroke="#7a6a52" stroke-width="1"/><circle cx="249.7" cy="307.4" r="7.3" fill="#ffffff" stroke="#7a6a52" stroke-width="1"/><circle cx="249.7" cy="278.1" r="7.3" fill="#ffffff" stroke="#7a6a52" stroke-width="1"/></svg>