<svg xmlns="http://www.w3.org/2000/svg" width="596" height="512" viewBox="0 0 596 512"><rect x="0" y="0" width="596" height="512" fill="white"/><rect x="46.0" y="46.0" width="504.0" height="420.0" fill="#fbfbf7" stroke="#333" stroke-width="1.5"/><line x1="46.0" y1="46.0" x2="46.0" y2="38.0" stroke="#888" stroke-width="1"/><line x1="46.0" y1="466.0" x2="46.0" y2="474.0" stroke="#888" stroke-width="1"/><text x="46.0" y="36.0" text-anchor="middle" font-family="Arial" font-size="9" fill="#666">0</text><text x="46.0" y="482.0" text-anchor="middle" font-family="Arial" font-size="9" fill="#666">0</text><line x1="67.0" y1="46.0" x2="67.0" y2="42.0" stroke="#888" stroke-width="1"/><line x1="67.0" y1="466.0" x2="67.0" y2="470.0" stroke="#888" stroke-width="1"/><line x1="88.0" y1="46.0" x2="88.0" y2="38.0" stroke="#888" stroke-width="1"/><line x1="88.0" y1="466.0" x2="88.0" y2="474.0" stroke="#888" stroke-width="1"/><text x="88.0" y="36.0" text-anchor="middle" font-family="Arial" font-size="9" fill="#666">1</text><text x="88.0" y="482.0" text-anchor="middle" font-family="Arial" font-size="9" fill="#666">1</text><line x1="109.0" y1="46.0" x2="109.0" y2="42.0" stroke="#888" stroke-width="1"/><line x1="109.0" y1="466.0" x2="109.0" y2="470.0" stroke="#888" stroke-width="1"/><line x1="130.0" y1="46.0" x2="130.0" y2="38.0" stroke="#888" stroke-width="1"/><line x1="130.0" y1="466.0" x2="130.0" y2="474.0" stroke="#888" stroke-width="1"/><text x="130.0" y="36.0" text-anchor="middle" font-family="Arial" font-size="9" fill="#666">2</text><text x="130.0" y="482.0" text-anchor="middle" font-family="Arial" font-size="9" fill="#666">2</text><line x1="151.0" y1="46.0" x2="151.0" y2="42.0" stroke="#888" stroke-width="1"/><line x1="151.0" y1="466.0" x2="151.0" y2="470.0" stroke="#888" stroke-width="1"/><line x1="172.0" y1="46.0" x2="172.0" y2="38.0" stroke="#888" stroke-width="1"/><line x1="172.0" y1="466.0" x2="172.0" y2="474.0" stroke="#888" stroke-width="1"/><text x="172.0" y="36.0" text-anchor="middle" font-family="Arial" font-size="9" fill="#666">3</text><text x="172.0" y="482.0" text-anchor="middle" font-family="Arial" font-size="9" fill="#666">3</text><line x1="193.0" y1="46.0" x2="193.0" y2="42.0" stroke="#888" stroke-width="1"/><line x1="193.0" y1="466.0" x2="193.0" y2="470.0" stroke="#888" stroke-width="1"/><line x1="214.0" y1="46.0" x2="214.0" y2="38.0" stroke="#888" stroke-width="1"/><line x1="214.0" y1="466.0" x2="214.0" y2="474.0" stroke="#888" stroke-width="1"/><text x="214.0" y="36.0" text-anchor="middle" font-family="Arial" font-size="9" fill="#666">4</text><text x="214.0" y="482.0" text-anchor="middle" font-family="Arial" font-size="9" fill="#666">4</text><line x1="235.0" y1="46.0" x2="235.0" y2="42.0" stroke="#888" stroke-width="1"/><line x1="235.0" y1="466.0" x2="235.0" y2="470.0" stroke="#888" stroke-width="1"/><line x1="256.0" y1="46.0" x2="256.0" y2="38.0" stroke="#888" stroke-width="1"/><line x1="256.0" y1="466.0" x2="256.0" y2="474.0" stroke="#888" stroke-width="1"/><text x="256.0" y="36.0" text-anchor="middle" font-family="Arial" font-size="9" fill="#666">5</text><text x="256.0" y="482.0" text-anchor="middle" font-family="Arial" font-size="9" fill="#666">5</text><line x1="277.0" y1="46.0" x2="277.0" y2="42.0" stroke="#888" stroke-width="1"/><line x1="277.0" y1="466.0" x2="277.0" y2="470.0" stroke="#888" stroke-width="1"/><line x1="298.0" y1="46.0" x2="298.0" y2="38.0" stroke="#888" stroke-width="1"/><line x1="298.0" y1="466.0" x2="298.0" y2="474.0" stroke="#888" stroke-width="1"/><text x="298.0" y="36.0" text-anchor="middle" font-family="Arial" font-size="9" fill="#666">6</text><text x="298.0" y="482.0" text-anchor="middle" font-family="Arial" font-size="9" fill="#666">6</text><line x1="319.0" y1="46.0" x2="319.0" y2="42.0" stroke="#888" stroke-width="1"/><line x1="319.0" y1="466.0" x2="319.0" y2="470.0" stroke="#888" stroke-width="1"/><line x1="340.0" y1="46.0" x2="340.0" y2="38.0" stroke="#888" stroke-width="1"/><line x1="340.0" y1="466.0" x2="340.0" y2="474.0" stroke="#888" stroke-width="1"/><text x="340.0" y="36.0" text-anchor="middle" font-family="Arial" font-size="9" fill="#666">7</text><text x="340.0" y="482.0" text-anchor="middle" font-family="Arial" font-size="9" fill="#666">7</text><line x1="361.0" y1="46.0" x2="361.0" y2="42.0" stroke="#888" stroke-width="1"/><line x1="361.0" y1="466.0" x2="361.0" y2="470.0" stroke="#888" stroke-width="1"/><line x1="382.0" y1="46.0" x2="382.0" y2="38.0" stroke="#888" stroke-width="1"/><line x1="382.0" y1="466.0" x2="382.0" y2="474.0" stroke="#888" stroke-width="1"/><text x="382.0" y="36.0" text-anchor="middle" font-family="Arial" font-size="9" fill="#666">8</text><text x="382.0" y="482.0" text-anchor="middle" font-family="Arial" font-size="9" fill="#666">8</text><line x1="403.0" y1="46.0" x2="403.0" y2="42.0" stroke="#888" stroke-width="1"/><line x1="403.0" y1="466.0" x2="403.0" y2="470.0" stroke="#888" stroke-width="1"/><line x1="424.0" y1="46.0" x2="424.0" y2="38.0" stroke="#888" stroke-width="1"/><line x1="424.0" y1="466.0" x2="424.0" y2="474.0" stroke="#888" stroke-width="1"/><text x="424.0" y="36.0" text-anchor="middle" font-family="Arial" font-size="9" fill="#666">9</text><text x="424.0" y="482.0" text-anchor="middle" font-family="Arial" font-size="9" fill="#666">9</text><line x1="445.0" y1="46.0" x2="445.0" y2="42.0" stroke="#888" stroke-width="1"/><line x1="445.0" y1="466.0" x2="445.0" y2="470.0" stroke="#888" stroke-width="1"/><line x1="466.0" y1="46.0" x2="466.0" y2="38.0" stroke="#888" stroke-width="1"/><line x1="466.0" y1="466.0" x2="466.0" y2="474.0" stroke="#888" stroke-width="1"/><text x="466.0" y="36.0" text-anchor="middle" font-family="Arial" font-size="9" fill="#666">10</text><text x="466.0" y="482.0" text-anchor="middle" font-family="Arial" font-size="9" fill="#666">10</text><line x1="487.0" y1="46.0" x2="487.0" y2="42.0" stroke="#888" stroke-width="1"/><line x1="487.0" y1="466.0" x2="487.0" y2="470.0" stroke="#888" stroke-width="1"/><line x1="508.0" y1="46.0" x2="508.0" y2="38.0" stroke="#888" stroke-width="1"/><line x1="508.0" y1="466.0" x2="508.0" y2="474.0" stroke="#888" stroke-width="1"/><text x="508.0" y="36.0" text-anchor="middle" font-family="Arial" font-size="9" fill="#666">11</text><text x="508.0" y="482.0" text-anchor="middle" font-family="Arial" font-size="9" fill="#666">11</text><line x1="529.0" y1="46.0" x2="529.0" y2="42.0" stroke="#888" stroke-width="1"/><line x1="529.0" y1="466.0" x2="529.0" y2="470.0" stroke="#888" stroke-width="1"/><line x1="550.0" y1="46.0" x2="550.0" y2="38.0" stroke="#888" stroke-width="1"/><line x1="550.0" y1="466.0" x2="550.0" y2="474.0" stroke="#888" stroke-width="1"/><text x="550.0" y="36.0" text-anchor="middle" font-family="Arial" font-size="9" fill="#666">12</text><text x="550.0" y="482.0" text-anchor="middle" font-family="Arial" font-size="9" fill="#666">12</text><line x1="46.0" y1="466.0" x2="38.0" y2="466.0" stroke="#888" stroke-width="1"/><line x1="550.0" y1="466.0" x2="558.0" y2="466.0" stroke="#888" stroke-width="1"/><text x="36.0" y="469.0" text-anchor="end" font-family="Arial" font-size="9" fill="#666">0</text><text x="560.0" y="469.0" text-anchor="start" font-family="Arial" font-size="9" fill="#666">0</text><line x1="46.0" y1="445.0" x2="42.0" y2="445.0" stroke="#888" stroke-width="1"/><line x1="550.0" y1="445.0" x2="554.0" y2="445.0" stroke="#888" stroke-width="1"/><line x1="46.0" y1="424.0" x2="38.0" y2="424.0" stroke="#888" stroke-width="1"/><line x1="550.0" y1="424.0" x2="558.0" y2="424.0" stroke="#888" stroke-width="1"/><text x="36.0" y="427.0" text-anchor="end" font-family="Arial" font-size="9" fill="#666">1</text><text x="560.0" y="427.0" text-anchor="start" font-family="Arial" font-size="9" fill="#666">1</text><line x1="46.0" y1="403.0" x2="42.0" y2="403.0" stroke="#888" stroke-width="1"/><line x1="550.0" y1="403.0" x2="554.0" y2="403.0" stroke="#888" stroke-width="1"/><line x1="46.0" y1="382.0" x2="38.0" y2="382.0" stroke="#888" stroke-width="1"/><line x1="550.0" y1="382.0" x2="558.0" y2="382.0" stroke="#888" stroke-width="1"/><text x="36.0" y="385.0" text-anchor="end" font-family="Arial" font-size="9" fill="#666">2</text><text x="560.0" y="385.0" text-anchor="start" font-family="Arial" font-size="9" fill="#666">2</text><line x1="46.0" y1="361.0" x2="42.0" y2="361.0" stroke="#888" stroke-width="1"/><line x1="550.0" y1="361.0" x2="554.0" y2="361.0" stroke="#888" stroke-width="1"/><line x1="46.0" y1="340.0" x2="38.0" y2="340.0" stroke="#888" stroke-width="1"/><line x1="550.0" y1="340.0" x2="558.0" y2="340.0" stroke="#888" stroke-width="1"/><text x="36.0" y="343.0" text-anchor="end" font-family="Arial" font-size="9" fill="#666">3</text><text x="560.0" y="343.0" text-anchor="start" font-family="Arial" font-size="9" fill="#666">3</text><line x1="46.0" y1="319.0" x2="42.0" y2="319.0" stroke="#888" stroke-width="1"/><line x1="550.0" y1="319.0" x2="554.0" y2="319.0" stroke="#888" stroke-width="1"/><line x1="46.0" y1="298.0" x2="38.0" y2="298.0" stroke="#888" stroke-width="1"/><line x1="550.0" y1="298.0" x2="558.0" y2="298.0" stroke="#888" stroke-width="1"/><text x="36.0" y="301.0" text-anchor="end" font-family="Arial" font-size="9" fill="#666">4</text><text x="560.0" y="301.0" text-anchor="start" font-family="Arial" font-size="9" fill="#666">4</text><line x1="46.0" y1="277.0" x2="42.0" y2="277.0" stroke="#888" stroke-width="1"/><line x1="550.0" y1="277.0" x2="554.0" y2="277.0" stroke="#888" stroke-width="1"/><line x1="46.0" y1="256.0" x2="38.0" y2="256.0" stroke="#888" stroke-width="1"/><line x1="550.0" y1="256.0" x2="558.0" y2="256.0" stroke="#888" stroke-width="1"/><text x="36.0" y="259.0" text-anchor="end" font-family="Arial" font-size="9" fill="#666">5</text><text x="560.0" y="259.0" text-anchor="start" font-family="Arial" font-size="9" fill="#666">5</text><line x1="46.0" y1="235.0" x2="42.0" y2="235.0" stroke="#888" stroke-width="1"/><line x1="550.0" y1="235.0" x2="554.0" y2="235.0" stroke="#888" stroke-width="1"/><line x1="46.0" y1="214.0" x2="38.0" y2="214.0" stroke="#888" stroke-width="1"/><line x1="550.0" y1="214.0" x2="558.0" y2="214.0" stroke="#888" stroke-width="1"/><text x="36.0" y="217.0" text-anchor="end" font-family="Arial" font-size="9" fill="#666">6</text><text x="560.0" y="217.0" text-anchor="start" font-family="Arial" font-size="9" fill="#666">6</text><line x1="46.0" y1="193.0" x2="42.0" y2="193.0" stroke="#888" stroke-width="1"/><line x1="550.0" y1="193.0" x2="554.0" y2="193.0" stroke="#888" stroke-width="1"/><line x1="46.0" y1="172.0" x2="38.0" y2="172.0" stroke="#888" stroke-width="1"/><line x1="550.0" y1="172.0" x2="558.0" y2="172.0" stroke="#888" stroke-width="1"/><text x="36.0" y="175.0" text-anchor="end" font-family="Arial" font-size="9" fill="#666">7</text><text x="560.0" y="175.0" text-anchor="start" font-family="Arial" font-size="9" fill="#666">7</text><line x1="46.0" y1="151.0" x2="42.0" y2="151.0" stroke="#888" stroke-width="1"/><line x1="550.0" y1="151.0" x2="554.0" y2="151.0" stroke="#888" stroke-width="1"/><line x1="46.0" y1="130.0" x2="38.0" y2="130.0" stroke="#888" stroke-width="1"/><line x1="550.0" y1="130.0" x2="558.0" y2="130.0" stroke="#888" stroke-width="1"/><text x="36.0" y="133.0" text-anchor="end" font-family="Arial" font-size="9" fill="#666">8</text><text x="560.0" y="133.0" text-anchor="start" font-family="Arial" font-size="9" fill="#666">8</text><line x1="46.0" y1="109.0" x2="42.0" y2="109.0" stroke="#888" stroke-width="1"/><line x1="550.0" y1="109.0" x2="554.0" y2="109.0" stroke="#888" stroke-width="1"/><line x1="46.0" y1="88.0" x2="38.0" y2="88.0" stroke="#888" stroke-width="1"/><line x1="550.0" y1="88.0" x2="558.0" y2="88.0" stroke="#888" stroke-width="1"/><text x="36.0" y="91.0" text-anchor="end" font-family="Arial" font-size="9" fill="#666">9</text><text x="560.0" y="91.0" text-anchor="start" font-family="Arial" font-size="9" fill="#666">9</text><line x1="46.0" y1="67.0" x2="42.0" y2="67.0" stroke="#888" stroke-width="1"/><line x1="550.0" y1="67.0" x2="554.0" y2="67.0" stroke="#888" stroke-width="1"/><line x1="46.0" y1="46.0" x2="38.0" y2="46.0" stroke="#888" stroke-width="1"/><line x1="550.0" y1="46.0" x2="558.0" y2="46.0" stroke="#888" stroke-width="1"/><text x="36.0" y="49.0" text-anchor="end" font-family="Arial" font-size="9" fill="#666">10</text><text x="560.0" y="49.0" text-anchor="start" font-family="Arial" font-size="9" fill="#666">10</text><rect x="130.0" y="130.0" width="336.0" height="252.0" fill="none" stroke="#9aa" stroke-width="1" stroke-dasharray="3 3"/><rect x="316.1" y="383.3" width="148.7" height="60.5" fill="#f2f2f2" stroke="#333" stroke-width="1.5" stroke-dasharray="6 4"/><text x="390.4" y="410.9" text-anchor="middle" font-family="Arial" font-size="12" font-weight="bold" fill="#222">PORCH</text><text x="390.4" y="426.7" text-anchor="middle" font-family="Arial" font-size="10" fill="#555">3.6×1.5 m</text><rect x="130.0" y="182.5" width="92.4" height="199.5" fill="#d9ead3" stroke="#333" stroke-width="1.5"/><text x="176.2" y="273.9" text-anchor="middle" font-family="Arial" font-size="12" font-weight="bold" fill="#222">MASTER BR</text><text x="176.2" y="289.7" text-anchor="middle" font-family="Arial" font-size="10" fill="#555">2.2×4.8 m</text><text x="176.2" y="301.2" text-anchor="middle" font-family="Arial" font-size="10" fill="#555">10.4 sqm</text><rect x="130.0" y="130.0" width="105.0" height="52.5" fill="#ead1dc" stroke="#333" stroke-width="1.5"/><text x="182.5" y="147.8" text-anchor="middle" font-family="Arial" font-size="12" font-weight="bold" fill="#222">ENSUITE</text><text x="182.5" y="163.7" text-anchor="middle" font-family="Arial" font-size="10" fill="#555">2.5×1.2 m</text><text x="182.5" y="175.2" text-anchor="middle" font-family="Arial" font-size="10" fill="#555">3.1 sqm</text><rect x="222.4" y="243.4" width="92.4" height="138.6" fill="#d9ead3" stroke="#333" stroke-width="1.5"/><text x="268.6" y="304.3" text-anchor="middle" font-family="Arial" font-size="12" font-weight="bold" fill="#222">BEDROOM</text><text x="268.6" y="320.1" text-anchor="middle" font-family="Arial" font-size="10" fill="#555">2.2×3.3 m</text><text x="268.6" y="331.6" text-anchor="middle" font-family="Arial" font-size="10" fill="#555">7.3 sqm</text><rect x="235.0" y="130.0" width="105.0" height="63.0" fill="#ead1dc" stroke="#333" stroke-width="1.5"/><text x="287.5" y="153.1" text-anchor="middle" font-family="Arial" font-size="12" font-weight="bold" fill="#222">T&amp;B</text><text x="287.5" y="168.9" text-anchor="middle" font-family="Arial" font-size="10" fill="#555">2.5×1.5 m</text><text x="287.5" y="180.4" text-anchor="middle" font-family="Arial" font-size="10" fill="#555">3.8 sqm</text><rect x="222.4" y="193.0" width="117.6" height="50.4" fill="#efefef" stroke="none"/><rect x="222.4" y="182.5" width="12.6" height="10.5" fill="#efefef" stroke="none"/><text x="281.2" y="215.6" text-anchor="middle" font-family="Arial" font-size="12" font-weight="bold" fill="#222">HALL</text><text x="281.2" y="231.4" text-anchor="middle" font-family="Arial" font-size="10" fill="#555">3.4 sqm L</text><rect x="314.8" y="298.0" width="151.2" height="84.0" fill="#cfe2f3" stroke="none"/><rect x="314.8" y="243.4" width="25.2" height="54.6" fill="#cfe2f3" stroke="none"/><text x="390.4" y="337.4" text-anchor="middle" font-family="Arial" font-size="12" font-weight="bold" fill="#222">LIVING</text><text x="390.4" y="353.2" text-anchor="middle" font-family="Arial" font-size="10" fill="#555">8.0 sqm (L-shaped)</text><rect x="340.0" y="205.6" width="126.0" height="92.4" fill="#cfe2f3" stroke="#333" stroke-width="1.5"/><text x="403.0" y="249.2" text-anchor="middle" font-family="Arial" font-size="12" font-weight="bold" fill="#222">DINING</text><text x="403.0" y="265.0" text-anchor="middle" font-family="Arial" font-size="10" fill="#555">3.0×2.2 m · 6.6 sqm</text><rect x="340.0" y="130.0" width="126.0" height="75.6" fill="#cfe2f3" stroke="#333" stroke-width="1.5"/><text x="403.0" y="165.1" text-anchor="middle" font-family="Arial" font-size="12" font-weight="bold" fill="#222">KITCHEN</text><text x="403.0" y="180.9" text-anchor="middle" font-family="Arial" font-size="10" fill="#555">3.0×1.8 m · 5.4 sqm</text><text x="298.0" y="500.0" text-anchor="middle" font-family="Arial" font-size="12" font-weight="bold" fill="#888">FRONT (street)</text><rect x="130.00" y="180.40" width="92.40" height="4.20" fill="#555" stroke="none"/><rect x="220.30" y="243.40" width="4.20" height="138.60" fill="#555" stroke="none"/><rect x="220.30" y="193.00" width="4.20" height="50.40" fill="#555" stroke="none"/><rect x="220.30" y="182.50" width="4.20" height="10.50" fill="#555" stroke="none"/><rect x="232.90" y="130.00" width="4.20" height="52.50" fill="#555" stroke="none"/><rect x="222.40" y="180.40" width="12.60" height="4.20" fill="#555" stroke="none"/><rect x="222.40" y="241.30" width="92.40" height="4.20" fill="#555" stroke="none"/><rect x="312.70" y="298.00" width="4.20" height="84.00" fill="#555" stroke="none"/><rect x="312.70" y="243.40" width="4.20" height="54.60" fill="#555" stroke="none"/><rect x="235.00" y="190.90" width="105.00" height="4.20" fill="#555" stroke="none"/><rect x="232.90" y="182.50" width="4.20" height="10.50" fill="#555" stroke="none"/><rect x="337.90" y="130.00" width="4.20" height="63.00" fill="#555" stroke="none"/><rect x="314.80" y="241.30" width="25.20" height="4.20" fill="#555" stroke="none"/><rect x="337.90" y="193.00" width="4.20" height="12.60" fill="#555" stroke="none"/><rect x="130.00" y="377.80" width="92.40" height="8.40" fill="#555" stroke="none"/><rect x="125.80" y="182.50" width="8.40" height="199.50" fill="#555" stroke="none"/><rect x="130.00" y="125.80" width="105.00" height="8.40" fill="#555" stroke="none"/><rect x="125.80" y="130.00" width="8.40" height="52.50" fill="#555" stroke="none"/><rect x="222.40" y="377.80" width="92.40" height="8.40" fill="#555" stroke="none"/><rect x="235.00" y="125.80" width="105.00" height="8.40" fill="#555" stroke="none"/><rect x="314.80" y="377.80" width="151.20" height="8.40" fill="#555" stroke="none"/><rect x="461.80" y="298.00" width="8.40" height="84.00" fill="#555" stroke="none"/><rect x="461.80" y="205.60" width="8.40" height="92.40" fill="#555" stroke="none"/><rect x="340.00" y="125.80" width="126.00" height="8.40" fill="#555" stroke="none"/><rect x="461.80" y="130.00" width="8.40" height="75.60" fill="#555" stroke="none"/><rect x="125.80" y="178.30" width="8.40" height="8.40" fill="#555" stroke="none"/><rect x="220.30" y="180.40" width="4.20" height="4.20" fill="#555" stroke="none"/><rect x="218.20" y="377.80" width="8.40" height="8.40" fill="#555" stroke="none"/><rect x="220.30" y="241.30" width="4.20" height="4.20" fill="#555" stroke="none"/><rect x="220.30" y="241.30" width="4.20" height="4.20" fill="#555" stroke="none"/><rect x="220.30" y="180.40" width="4.20" height="4.20" fill="#555" stroke="none"/><rect x="232.90" y="180.40" width="4.20" height="4.20" fill="#555" stroke="none"/><rect x="230.80" y="125.80" width="8.40" height="8.40" fill="#555" stroke="none"/><rect x="220.30" y="180.40" width="4.20" height="4.20" fill="#555" stroke="none"/><rect x="232.90" y="180.40" width="4.20" height="4.20" fill="#555" stroke="none"/><rect x="220.30" y="241.30" width="4.20" height="4.20" fill="#555" stroke="none"/><rect x="312.70" y="241.30" width="4.20" height="4.20" fill="#555" stroke="none"/><rect x="310.60" y="377.80" width="8.40" height="8.40" fill="#555" stroke="none"/><rect x="312.70" y="241.30" width="4.20" height="4.20" fill="#555" stroke="none"/><rect x="232.90" y="190.90" width="4.20" height="4.20" fill="#555" stroke="none"/><rect x="337.90" y="190.90" width="4.20" height="4.20" fill="#555" stroke="none"/><rect x="232.90" y="190.90" width="4.20" height="4.20" fill="#555" stroke="none"/><rect x="232.90" y="180.40" width="4.20" height="4.20" fill="#555" stroke="none"/><rect x="337.90" y="190.90" width="4.20" height="4.20" fill="#555" stroke="none"/><rect x="335.80" y="125.80" width="8.40" height="8.40" fill="#555" stroke="none"/><rect x="312.70" y="241.30" width="4.20" height="4.20" fill="#555" stroke="none"/><rect x="337.90" y="190.90" width="4.20" height="4.20" fill="#555" stroke="none"/><rect x="125.80" y="377.80" width="8.40" height="8.40" fill="#555" stroke="none"/><rect x="218.20" y="377.80" width="8.40" height="8.40" fill="#555" stroke="none"/><rect x="125.80" y="377.80" width="8.40" height="8.40" fill="#555" stroke="none"/><rect x="125.80" y="178.30" width="8.40" height="8.40" fill="#555" stroke="none"/><rect x="125.80" y="125.80" width="8.40" height="8.40" fill="#555" stroke="none"/><rect x="230.80" y="125.80" width="8.40" height="8.40" fill="#555" stroke="none"/><rect x="125.80" y="178.30" width="8.40" height="8.40" fill="#555" stroke="none"/><rect x="125.80" y="125.80" width="8.40" height="8.40" fill="#555" stroke="none"/><rect x="218.20" y="377.80" width="8.40" height="8.40" fill="#555" stroke="none"/><rect x="310.60" y="377.80" width="8.40" height="8.40" fill="#555" stroke="none"/><rect x="230.80" y="125.80" width="8.40" height="8.40" fill="#555" stroke="none"/><rect x="335.80" y="125.80" width="8.40" height="8.40" fill="#555" stroke="none"/><rect x="310.60" y="377.80" width="8.40" height="8.40" fill="#555" stroke="none"/><rect x="461.80" y="377.80" width="8.40" height="8.40" fill="#555" stroke="none"/><rect x="461.80" y="377.80" width="8.40" height="8.40" fill="#555" stroke="none"/><rect x="335.80" y="125.80" width="8.40" height="8.40" fill="#555" stroke="none"/><rect x="461.80" y="125.80" width="8.40" height="8.40" fill="#555" stroke="none"/><rect x="461.80" y="125.80" width="8.40" height="8.40" fill="#555" stroke="none"/><rect x="335.0" y="205.6" width="5.0" height="37.8" fill="#efefef" stroke="none"/><rect x="340.0" y="205.6" width="5.0" height="37.8" fill="#cfe2f3" stroke="none"/><rect x="340.0" y="298.0" width="123.9" height="5.0" fill="#cfe2f3" stroke="none"/><rect x="340.0" y="293.0" width="123.9" height="5.0" fill="#cfe2f3" stroke="none"/><rect x="335.0" y="243.4" width="5.0" height="54.6" fill="#cfe2f3" stroke="none"/><rect x="340.0" y="243.4" width="5.0" height="54.6" fill="#cfe2f3" stroke="none"/><rect x="340.0" y="205.6" width="123.9" height="5.0" fill="#cfe2f3" stroke="none"/><rect x="340.0" y="200.6" width="123.9" height="5.0" fill="#cfe2f3" stroke="none"/><rect x="241.3" y="188.0" width="29.4" height="5.0" fill="#ead1dc" stroke="none"/><rect x="241.3" y="193.0" width="29.4" height="5.0" fill="#efefef" stroke="none"/><line x1="241.3" y1="193.0" x2="241.3" y2="163.6" stroke="#444" stroke-width="1.4"/><path d="M 241.3 163.6 A 29.4 29.4 0 0 1 270.7 193.0" fill="none" stroke="#999" stroke-width="0.7" stroke-dasharray="2 2"/><rect x="136.3" y="182.5" width="29.4" height="5.0" fill="#d9ead3" stroke="none"/><rect x="136.3" y="177.5" width="29.4" height="5.0" fill="#ead1dc" stroke="none"/><line x1="136.3" y1="182.5" x2="136.3" y2="153.1" stroke="#444" stroke-width="1.4"/><path d="M 136.3 153.1 A 29.4 29.4 0 0 1 165.7 182.5" fill="none" stroke="#999" stroke-width="0.7" stroke-dasharray="2 2"/><rect x="217.4" y="193.0" width="5.0" height="33.6" fill="#d9ead3" stroke="none"/><rect x="222.4" y="193.0" width="5.0" height="33.6" fill="#efefef" stroke="none"/><line x1="222.4" y1="193.0" x2="188.8" y2="193.0" stroke="#444" stroke-width="1.4"/><path d="M 188.8 193.0 A 33.6 33.6 0 0 0 222.4 226.6" fill="none" stroke="#999" stroke-width="0.7" stroke-dasharray="2 2"/><rect x="228.7" y="243.4" width="33.6" height="5.0" fill="#d9ead3" stroke="none"/><rect x="228.7" y="238.4" width="33.6" height="5.0" fill="#efefef" stroke="none"/><line x1="228.7" y1="243.4" x2="228.7" y2="277.0" stroke="#444" stroke-width="1.4"/><path d="M 228.7 277.0 A 33.6 33.6 0 0 0 262.3 243.4" fill="none" stroke="#999" stroke-width="0.7" stroke-dasharray="2 2"/><rect x="321.1" y="377.0" width="37.8" height="5.0" fill="#cfe2f3" stroke="none"/><rect x="321.1" y="382.0" width="37.8" height="5.0" fill="#fbfbf7" stroke="none"/><line x1="321.1" y1="382.0" x2="321.1" y2="344.2" stroke="#444" stroke-width="1.4"/><path d="M 321.1 344.2 A 37.8 37.8 0 0 1 358.9 382.0" fill="none" stroke="#999" stroke-width="0.7" stroke-dasharray="2 2"/><rect x="346.3" y="130.0" width="33.6" height="5.0" fill="#cfe2f3" stroke="none"/><rect x="346.3" y="125.0" width="33.6" height="5.0" fill="#fbfbf7" stroke="none"/><line x1="346.3" y1="130.0" x2="346.3" y2="163.6" stroke="#444" stroke-width="1.4"/><path d="M 346.3 163.6 A 33.6 33.6 0 0 0 379.9 130.0" fill="none" stroke="#999" stroke-width="0.7" stroke-dasharray="2 2"/><rect x="150.8" y="377.0" width="50.8" height="5.0" fill="#d9ead3" stroke="none"/><rect x="150.8" y="382.0" width="50.8" height="5.0" fill="#fbfbf7" stroke="none"/><line x1="150.8" y1="379.0" x2="201.6" y2="379.0" stroke="#222" stroke-width="1.0"/><line x1="150.8" y1="382.0" x2="201.6" y2="382.0" stroke="#222" stroke-width="1.0"/><line x1="150.8" y1="385.0" x2="201.6" y2="385.0" stroke="#222" stroke-width="1.0"/><rect x="130.0" y="231.9" width="5.0" height="100.8" fill="#d9ead3" stroke="none"/><rect x="125.0" y="231.9" width="5.0" height="100.8" fill="#fbfbf7" stroke="none"/><line x1="127.0" y1="332.7" x2="127.0" y2="231.9" stroke="#222" stroke-width="1.0"/><line x1="130.0" y1="332.7" x2="130.0" y2="231.9" stroke="#222" stroke-width="1.0"/><line x1="133.0" y1="332.7" x2="133.0" y2="231.9" stroke="#222" stroke-width="1.0"/><rect x="163.6" y="130.0" width="37.8" height="5.0" fill="#ead1dc" stroke="none"/><rect x="163.6" y="125.0" width="37.8" height="5.0" fill="#fbfbf7" stroke="none"/><line x1="163.6" y1="127.0" x2="201.4" y2="127.0" stroke="#222" stroke-width="1.0"/><line x1="163.6" y1="130.0" x2="201.4" y2="130.0" stroke="#222" stroke-width="1.0"/><line x1="163.6" y1="133.0" x2="201.4" y2="133.0" stroke="#222" stroke-width="1.0"/><rect x="130.0" y="143.1" width="5.0" height="26.2" fill="#ead1dc" stroke="none"/><rect x="125.0" y="143.1" width="5.0" height="26.2" fill="#fbfbf7" stroke="none"/><line x1="127.0" y1="169.4" x2="127.0" y2="143.1" stroke="#222" stroke-width="1.0"/><line x1="130.0" y1="169.4" x2="130.0" y2="143.1" stroke="#222" stroke-width="1.0"/><line x1="133.0" y1="169.4" x2="133.0" y2="143.1" stroke="#222" stroke-width="1.0"/><rect x="243.2" y="377.0" width="50.8" height="5.0" fill="#d9ead3" stroke="none"/><rect x="243.2" y="382.0" width="50.8" height="5.0" fill="#fbfbf7" stroke="none"/><line x1="243.2" y1="379.0" x2="294.0" y2="379.0" stroke="#222" stroke-width="1.0"/><line x1="243.2" y1="382.0" x2="294.0" y2="382.0" stroke="#222" stroke-width="1.0"/><line x1="243.2" y1="385.0" x2="294.0" y2="385.0" stroke="#222" stroke-width="1.0"/><rect x="268.6" y="130.0" width="37.8" height="5.0" fill="#ead1dc" stroke="none"/><rect x="268.6" y="125.0" width="37.8" height="5.0" fill="#fbfbf7" stroke="none"/><line x1="268.6" y1="127.0" x2="306.4" y2="127.0" stroke="#222" stroke-width="1.0"/><line x1="268.6" y1="130.0" x2="306.4" y2="130.0" stroke="#222" stroke-width="1.0"/><line x1="268.6" y1="133.0" x2="306.4" y2="133.0" stroke="#222" stroke-width="1.0"/><rect x="392.8" y="377.0" width="52.0" height="5.0" fill="#cfe2f3" stroke="none"/><rect x="392.8" y="382.0" width="52.0" height="5.0" fill="#fbfbf7" stroke="none"/><line x1="392.8" y1="379.0" x2="444.7" y2="379.0" stroke="#222" stroke-width="1.0"/><line x1="392.8" y1="382.0" x2="444.7" y2="382.0" stroke="#222" stroke-width="1.0"/><line x1="392.8" y1="385.0" x2="444.7" y2="385.0" stroke="#222" stroke-width="1.0"/><rect x="461.0" y="316.9" width="5.0" height="46.2" fill="#cfe2f3" stroke="none"/><rect x="466.0" y="316.9" width="5.0" height="46.2" fill="#fbfbf7" stroke="none"/><line x1="463.0" y1="363.1" x2="463.0" y2="316.9" stroke="#222" stroke-width="1.0"/><line x1="466.0" y1="363.1" x2="466.0" y2="316.9" stroke="#222" stroke-width="1.0"/><line x1="469.0" y1="363.1" x2="469.0" y2="316.9" stroke="#222" stroke-width="1.0"/><rect x="461.0" y="226.4" width="5.0" height="50.8" fill="#cfe2f3" stroke="none"/><rect x="466.0" y="226.4" width="5.0" height="50.8" fill="#fbfbf7" stroke="none"/><line x1="463.0" y1="277.2" x2="463.0" y2="226.4" stroke="#222" stroke-width="1.0"/><line x1="466.0" y1="277.2" x2="466.0" y2="226.4" stroke="#222" stroke-width="1.0"/><line x1="469.0" y1="277.2" x2="469.0" y2="226.4" stroke="#222" stroke-width="1.0"/><rect x="461.0" y="147.0" width="5.0" height="41.6" fill="#cfe2f3" stroke="none"/><rect x="466.0" y="147.0" width="5.0" height="41.6" fill="#fbfbf7" stroke="none"/><line x1="463.0" y1="188.6" x2="463.0" y2="147.0" stroke="#222" stroke-width="1.0"/><line x1="466.0" y1="188.6" x2="466.0" y2="147.0" stroke="#222" stroke-width="1.0"/><line x1="469.0" y1="188.6" x2="469.0" y2="147.0" stroke="#222" stroke-width="1.0"/><rect x="409.0" y="130.0" width="40.4" height="5.0" fill="#cfe2f3" stroke="none"/><rect x="409.0" y="125.0" width="40.4" height="5.0" fill="#fbfbf7" stroke="none"/><line x1="409.0" y1="127.0" x2="449.5" y2="127.0" stroke="#222" stroke-width="1.0"/><line x1="409.0" y1="130.0" x2="449.5" y2="130.0" stroke="#222" stroke-width="1.0"/><line x1="409.0" y1="133.0" x2="449.5" y2="133.0" stroke="#222" stroke-width="1.0"/></svg>