<svg xmlns="http://www.w3.org/2000/svg" width="554" height="554" viewBox="0 0 554 554"><rect x="0" y="0" width="554" height="554" fill="white"/><rect x="46.0" y="46.0" width="462.0" height="462.0" fill="#fbfbf7" stroke="#333" stroke-width="1.5"/><line x1="46.0" y1="46.0" x2="46.0" y2="38.0" stroke="#888" stroke-width="1"/><line x1="46.0" y1="508.0" x2="46.0" y2="516.0" stroke="#888" stroke-width="1"/><text x="46.0" y="36.0" text-anchor="middle" font-family="Arial" font-size="9" fill="#666">0</text><text x="46.0" y="524.0" text-anchor="middle" font-family="Arial" font-size="9" fill="#666">0</text><line x1="67.0" y1="46.0" x2="67.0" y2="42.0" stroke="#888" stroke-width="1"/><line x1="67.0" y1="508.0" x2="67.0" y2="512.0" stroke="#888" stroke-width="1"/><line x1="88.0" y1="46.0" x2="88.0" y2="38.0" stroke="#888" stroke-width="1"/><line x1="88.0" y1="508.0" x2="88.0" y2="516.0" stroke="#888" stroke-width="1"/><text x="88.0" y="36.0" text-anchor="middle" font-family="Arial" font-size="9" fill="#666">1</text><text x="88.0" y="524.0" text-anchor="middle" font-family="Arial" font-size="9" fill="#666">1</text><line x1="109.0" y1="46.0" x2="109.0" y2="42.0" stroke="#888" stroke-width="1"/><line x1="109.0" y1="508.0" x2="109.0" y2="512.0" stroke="#888" stroke-width="1"/><line x1="130.0" y1="46.0" x2="130.0" y2="38.0" stroke="#888" stroke-width="1"/><line x1="130.0" y1="508.0" x2="130.0" y2="516.0" stroke="#888" stroke-width="1"/><text x="130.0" y="36.0" text-anchor="middle" font-family="Arial" font-size="9" fill="#666">2</text><text x="130.0" y="524.0" text-anchor="middle" font-family="Arial" font-size="9" fill="#666">2</text><line x1="151.0" y1="46.0" x2="151.0" y2="42.0" stroke="#888" stroke-width="1"/><line x1="151.0" y1="508.0" x2="151.0" y2="512.0" stroke="#888" stroke-width="1"/><line x1="172.0" y1="46.0" x2="172.0" y2="38.0" stroke="#888" stroke-width="1"/><line x1="172.0" y1="508.0" x2="172.0" y2="516.0" stroke="#888" stroke-width="1"/><text x="172.0" y="36.0" text-anchor="middle" font-family="Arial" font-size="9" fill="#666">3</text><text x="172.0" y="524.0" text-anchor="middle" font-family="Arial" font-size="9" fill="#666">3</text><line x1="193.0" y1="46.0" x2="193.0" y2="42.0" stroke="#888" stroke-width="1"/><line x1="193.0" y1="508.0" x2="193.0" y2="512.0" stroke="#888" stroke-width="1"/><line x1="214.0" y1="46.0" x2="214.0" y2="38.0" stroke="#888" stroke-width="1"/><line x1="214.0" y1="508.0" x2="214.0" y2="516.0" stroke="#888" stroke-width="1"/><text x="214.0" y="36.0" text-anchor="middle" font-family="Arial" font-size="9" fill="#666">4</text><text x="214.0" y="524.0" text-anchor="middle" font-family="Arial" font-size="9" fill="#666">4</text><line x1="235.0" y1="46.0" x2="235.0" y2="42.0" stroke="#888" stroke-width="1"/><line x1="235.0" y1="508.0" x2="235.0" y2="512.0" stroke="#888" stroke-width="1"/><line x1="256.0" y1="46.0" x2="256.0" y2="38.0" stroke="#888" stroke-width="1"/><line x1="256.0" y1="508.0" x2="256.0" y2="516.0" stroke="#888" stroke-width="1"/><text x="256.0" y="36.0" text-anchor="middle" font-family="Arial" font-size="9" fill="#666">5</text><text x="256.0" y="524.0" text-anchor="middle" font-family="Arial" font-size="9" fill="#666">5</text><line x1="277.0" y1="46.0" x2="277.0" y2="42.0" stroke="#888" stroke-width="1"/><line x1="277.0" y1="508.0" x2="277.0" y2="512.0" stroke="#888" stroke-width="1"/><line x1="298.0" y1="46.0" x2="298.0" y2="38.0" stroke="#888" stroke-width="1"/><line x1="298.0" y1="508.0" x2="298.0" y2="516.0" stroke="#888" stroke-width="1"/><text x="298.0" y="36.0" text-anchor="middle" font-family="Arial" font-size="9" fill="#666">6</text><text x="298.0" y="524.0" text-anchor="middle" font-family="Arial" font-size="9" fill="#666">6</text><line x1="319.0" y1="46.0" x2="319.0" y2="42.0" stroke="#888" stroke-width="1"/><line x1="319.0" y1="508.0" x2="319.0" y2="512.0" stroke="#888" stroke-width="1"/><line x1="340.0" y1="46.0" x2="340.0" y2="38.0" stroke="#888" stroke-width="1"/><line x1="340.0" y1="508.0" x2="340.0" y2="516.0" stroke="#888" stroke-width="1"/><text x="340.0" y="36.0" text-anchor="middle" font-family="Arial" font-size="9" fill="#666">7</text><text x="340.0" y="524.0" text-anchor="middle" font-family="Arial" font-size="9" fill="#666">7</text><line x1="361.0" y1="46.0" x2="361.0" y2="42.0" stroke="#888" stroke-width="1"/><line x1="361.0" y1="508.0" x2="361.0" y2="512.0" stroke="#888" stroke-width="1"/><line x1="382.0" y1="46.0" x2="382.0" y2="38.0" stroke="#888" stroke-width="1"/><line x1="382.0" y1="508.0" x2="382.0" y2="516.0" stroke="#888" stroke-width="1"/><text x="382.0" y="36.0" text-anchor="middle" font-family="Arial" font-size="9" fill="#666">8</text><text x="382.0" y="524.0" text-anchor="middle" font-family="Arial" font-size="9" fill="#666">8</text><line x1="403.0" y1="46.0" x2="403.0" y2="42.0" stroke="#888" stroke-width="1"/><line x1="403.0" y1="508.0" x2="403.0" y2="512.0" stroke="#888" stroke-width="1"/><line x1="424.0" y1="46.0" x2="424.0" y2="38.0" stroke="#888" stroke-width="1"/><line x1="424.0" y1="508.0" x2="424.0" y2="516.0" stroke="#888" stroke-width="1"/><text x="424.0" y="36.0" text-anchor="middle" font-family="Arial" font-size="9" fill="#666">9</text><text x="424.0" y="524.0" text-anchor="middle" font-family="Arial" font-size="9" fill="#666">9</text><line x1="445.0" y1="46.0" x2="445.0" y2="42.0" stroke="#888" stroke-width="1"/><line x1="445.0" y1="508.0" x2="445.0" y2="512.0" stroke="#888" stroke-width="1"/><line x1="466.0" y1="46.0" x2="466.0" y2="38.0" stroke="#888" stroke-width="1"/><line x1="466.0" y1="508.0" x2="466.0" y2="516.0" stroke="#888" stroke-width="1"/><text x="466.0" y="36.0" text-anchor="middle" font-family="Arial" font-size="9" fill="#666">10</text><text x="466.0" y="524.0" text-anchor="middle" font-family="Arial" font-size="9" fill="#666">10</text><line x1="487.0" y1="46.0" x2="487.0" y2="42.0" stroke="#888" stroke-width="1"/><line x1="487.0" y1="508.0" x2="487.0" y2="512.0" stroke="#888" stroke-width="1"/><line x1="508.0" y1="46.0" x2="508.0" y2="38.0" stroke="#888" stroke-width="1"/><line x1="508.0" y1="508.0" x2="508.0" y2="516.0" stroke="#888" stroke-width="1"/><text x="508.0" y="36.0" text-anchor="middle" font-family="Arial" font-size="9" fill="#666">11</text><text x="508.0" y="524.0" text-anchor="middle" font-family="Arial" font-size="9" fill="#666">11</text><line x1="46.0" y1="508.0" x2="38.0" y2="508.0" stroke="#888" stroke-width="1"/><line x1="508.0" y1="508.0" x2="516.0" y2="508.0" stroke="#888" stroke-width="1"/><text x="36.0" y="511.0" text-anchor="end" font-family="Arial" font-size="9" fill="#666">0</text><text x="518.0" y="511.0" text-anchor="start" font-family="Arial" font-size="9" fill="#666">0</text><line x1="46.0" y1="487.0" x2="42.0" y2="487.0" stroke="#888" stroke-width="1"/><line x1="508.0" y1="487.0" x2="512.0" y2="487.0" stroke="#888" stroke-width="1"/><line x1="46.0" y1="466.0" x2="38.0" y2="466.0" stroke="#888" stroke-width="1"/><line x1="508.0" y1="466.0" x2="516.0" y2="466.0" stroke="#888" stroke-width="1"/><text x="36.0" y="469.0" text-anchor="end" font-family="Arial" font-size="9" fill="#666">1</text><text x="518.0" y="469.0" text-anchor="start" font-family="Arial" font-size="9" fill="#666">1</text><line x1="46.0" y1="445.0" x2="42.0" y2="445.0" stroke="#888" stroke-width="1"/><line x1="508.0" y1="445.0" x2="512.0" y2="445.0" stroke="#888" stroke-width="1"/><line x1="46.0" y1="424.0" x2="38.0" y2="424.0" stroke="#888" stroke-width="1"/><line x1="508.0" y1="424.0" x2="516.0" y2="424.0" stroke="#888" stroke-width="1"/><text x="36.0" y="427.0" text-anchor="end" font-family="Arial" font-size="9" fill="#666">2</text><text x="518.0" y="427.0" text-anchor="start" font-family="Arial" font-size="9" fill="#666">2</text><line x1="46.0" y1="403.0" x2="42.0" y2="403.0" stroke="#888" stroke-width="1"/><line x1="508.0" y1="403.0" x2="512.0" y2="403.0" stroke="#888" stroke-width="1"/><line x1="46.0" y1="382.0" x2="38.0" y2="382.0" stroke="#888" stroke-width="1"/><line x1="508.0" y1="382.0" x2="516.0" y2="382.0" stroke="#888" stroke-width="1"/><text x="36.0" y="385.0" text-anchor="end" font-family="Arial" font-size="9" fill="#666">3</text><text x="518.0" y="385.0" text-anchor="start" font-family="Arial" font-size="9" fill="#666">3</text><line x1="46.0" y1="361.0" x2="42.0" y2="361.0" stroke="#888" stroke-width="1"/><line x1="508.0" y1="361.0" x2="512.0" y2="361.0" stroke="#888" stroke-width="1"/><line x1="46.0" y1="340.0" x2="38.0" y2="340.0" stroke="#888" stroke-width="1"/><line x1="508.0" y1="340.0" x2="516.0" y2="340.0" stroke="#888" stroke-width="1"/><text x="36.0" y="343.0" text-anchor="end" font-family="Arial" font-size="9" fill="#666">4</text><text x="518.0" y="343.0" text-anchor="start" font-family="Arial" font-size="9" fill="#666">4</text><line x1="46.0" y1="319.0" x2="42.0" y2="319.0" stroke="#888" stroke-width="1"/><line x1="508.0" y1="319.0" x2="512.0" y2="319.0" stroke="#888" stroke-width="1"/><line x1="46.0" y1="298.0" x2="38.0" y2="298.0" stroke="#888" stroke-width="1"/><line x1="508.0" y1="298.0" x2="516.0" y2="298.0" stroke="#888" stroke-width="1"/><text x="36.0" y="301.0" text-anchor="end" font-family="Arial" font-size="9" fill="#666">5</text><text x="518.0" y="301.0" text-anchor="start" font-family="Arial" font-size="9" fill="#666">5</text><line x1="46.0" y1="277.0" x2="42.0" y2="277.0" stroke="#888" stroke-width="1"/><line x1="508.0" y1="277.0" x2="512.0" y2="277.0" stroke="#888" stroke-width="1"/><line x1="46.0" y1="256.0" x2="38.0" y2="256.0" stroke="#888" stroke-width="1"/><line x1="508.0" y1="256.0" x2="516.0" y2="256.0" stroke="#888" stroke-width="1"/><text x="36.0" y="259.0" text-anchor="end" font-family="Arial" font-size="9" fill="#666">6</text><text x="518.0" y="259.0" text-anchor="start" font-family="Arial" font-size="9" fill="#666">6</text><line x1="46.0" y1="235.0" x2="42.0" y2="235.0" stroke="#888" stroke-width="1"/><line x1="508.0" y1="235.0" x2="512.0" y2="235.0" stroke="#888" stroke-width="1"/><line x1="46.0" y1="214.0" x2="38.0" y2="214.0" stroke="#888" stroke-width="1"/><line x1="508.0" y1="214.0" x2="516.0" y2="214.0" stroke="#888" stroke-width="1"/><text x="36.0" y="217.0" text-anchor="end" font-family="Arial" font-size="9" fill="#666">7</text><text x="518.0" y="217.0" text-anchor="start" font-family="Arial" font-size="9" fill="#666">7</text><line x1="46.0" y1="193.0" x2="42.0" y2="193.0" stroke="#888" stroke-width="1"/><line x1="508.0" y1="193.0" x2="512.0" y2="193.0" stroke="#888" stroke-width="1"/><line x1="46.0" y1="172.0" x2="38.0" y2="172.0" stroke="#888" stroke-width="1"/><line x1="508.0" y1="172.0" x2="516.0" y2="172.0" stroke="#888" stroke-width="1"/><text x="36.0" y="175.0" text-anchor="end" font-family="Arial" font-size="9" fill="#666">8</text><text x="518.0" y="175.0" text-anchor="start" font-family="Arial" font-size="9" fill="#666">8</text><line x1="46.0" y1="151.0" x2="42.0" y2="151.0" stroke="#888" stroke-width="1"/><line x1="508.0" y1="151.0" x2="512.0" y2="151.0" stroke="#888" stroke-width="1"/><line x1="46.0" y1="130.0" x2="38.0" y2="130.0" stroke="#888" stroke-width="1"/><line x1="508.0" y1="130.0" x2="516.0" y2="130.0" stroke="#888" stroke-width="1"/><text x="36.0" y="133.0" text-anchor="end" font-family="Arial" font-size="9" fill="#666">9</text><text x="518.0" y="133.0" text-anchor="start" font-family="Arial" font-size="9" fill="#666">9</text><line x1="46.0" y1="109.0" x2="42.0" y2="109.0" stroke="#888" stroke-width="1"/><line x1="508.0" y1="109.0" x2="512.0" y2="109.0" stroke="#888" stroke-width="1"/><line x1="46.0" y1="88.0" x2="38.0" y2="88.0" stroke="#888" stroke-width="1"/><line x1="508.0" y1="88.0" x2="516.0" y2="88.0" stroke="#888" stroke-width="1"/><text x="36.0" y="91.0" text-anchor="end" font-family="Arial" font-size="9" fill="#666">10</text><text x="518.0" y="91.0" text-anchor="start" font-family="Arial" font-size="9" fill="#666">10</text><line x1="46.0" y1="67.0" x2="42.0" y2="67.0" stroke="#888" stroke-width="1"/><line x1="508.0" y1="67.0" x2="512.0" y2="67.0" stroke="#888" stroke-width="1"/><line x1="46.0" y1="46.0" x2="38.0" y2="46.0" stroke="#888" stroke-width="1"/><line x1="508.0" y1="46.0" x2="516.0" y2="46.0" stroke="#888" stroke-width="1"/><text x="36.0" y="49.0" text-anchor="end" font-family="Arial" font-size="9" fill="#666">11</text><text x="518.0" y="49.0" text-anchor="start" font-family="Arial" font-size="9" fill="#666">11</text><rect x="130.0" y="130.0" width="294.0" height="294.0" fill="none" stroke="#9aa" stroke-width="1" stroke-dasharray="3 3"/><rect x="272.0" y="425.3" width="150.8" height="60.5" fill="#f2f2f2" stroke="#333" stroke-width="1.5" stroke-dasharray="6 4"/><text x="347.4" y="452.9" text-anchor="middle" font-family="Arial" font-size="12" font-weight="bold" fill="#222">PORCH</text><text x="347.4" y="468.7" text-anchor="middle" font-family="Arial" font-size="10" fill="#555">3.6×1.5 m</text><rect x="130.0" y="298.0" width="140.7" height="126.0" fill="#d9ead3" stroke="none"/><rect x="239.2" y="243.4" width="31.5" height="54.6" fill="#d9ead3" stroke="none"/><text x="200.3" y="358.4" text-anchor="middle" font-family="Arial" font-size="12" font-weight="bold" fill="#222">MASTER BR</text><text x="200.3" y="374.2" text-anchor="middle" font-family="Arial" font-size="10" fill="#555">11.0 sqm (L-shaped)</text><rect x="130.0" y="243.4" width="109.2" height="54.6" fill="#ead1dc" stroke="#333" stroke-width="1.5"/><text x="184.6" y="262.3" text-anchor="middle" font-family="Arial" font-size="12" font-weight="bold" fill="#222">ENSUITE</text><text x="184.6" y="278.1" text-anchor="middle" font-family="Arial" font-size="10" fill="#555">2.6×1.3 m</text><text x="184.6" y="289.6" text-anchor="middle" font-family="Arial" font-size="10" fill="#555">3.4 sqm</text><rect x="130.0" y="130.0" width="140.7" height="113.4" fill="#d9ead3" stroke="#333" stroke-width="1.5"/><text x="200.3" y="184.0" text-anchor="middle" font-family="Arial" font-size="12" font-weight="bold" fill="#222">BEDROOM</text><text x="200.3" y="199.8" text-anchor="middle" font-family="Arial" font-size="10" fill="#555">3.4×2.7 m · 9.0 sqm</text><rect x="270.7" y="130.0" width="77.7" height="71.4" fill="#ead1dc" stroke="#333" stroke-width="1.5"/><text x="309.5" y="157.3" text-anchor="middle" font-family="Arial" font-size="12" font-weight="bold" fill="#222">T&amp;B</text><text x="309.5" y="173.1" text-anchor="middle" font-family="Arial" font-size="10" fill="#555">1.9×1.7 m</text><text x="309.5" y="184.6" text-anchor="middle" font-family="Arial" font-size="10" fill="#555">3.1 sqm</text><rect x="270.7" y="201.4" width="153.3" height="222.6" fill="#cfe2f3" stroke="#333" stroke-width="1.5"/><text x="347.3" y="310.1" text-anchor="middle" font-family="Arial" font-size="12" font-weight="bold" fill="#222">GREAT ROOM</text><text x="347.3" y="325.9" text-anchor="middle" font-family="Arial" font-size="10" fill="#555">3.6×5.3 m · 19.3 sqm</text><rect x="348.4" y="130.0" width="75.6" height="71.4" fill="#cfe2f3" stroke="#333" stroke-width="1.5"/><text x="386.2" y="157.3" text-anchor="middle" font-family="Arial" font-size="12" font-weight="bold" fill="#222">KITCHEN</text><text x="386.2" y="173.1" text-anchor="middle" font-family="Arial" font-size="10" fill="#555">1.8×1.7 m</text><text x="386.2" y="184.6" text-anchor="middle" font-family="Arial" font-size="10" fill="#555">3.1 sqm</text><text x="277.0" y="542.0" text-anchor="middle" font-family="Arial" font-size="12" font-weight="bold" fill="#888">FRONT (street)</text><rect x="130.00" y="295.90" width="109.20" height="4.20" fill="#555" stroke="none"/><rect x="268.60" y="298.00" width="4.20" height="126.00" fill="#555" stroke="none"/><rect x="237.10" y="243.40" width="4.20" height="54.60" fill="#555" stroke="none"/><rect x="239.20" y="241.30" width="31.50" height="4.20" fill="#555" stroke="none"/><rect x="268.60" y="243.40" width="4.20" height="54.60" fill="#555" stroke="none"/><rect x="130.00" y="241.30" width="109.20" height="4.20" fill="#555" stroke="none"/><rect x="268.60" y="130.00" width="4.20" height="71.40" fill="#555" stroke="none"/><rect x="268.60" y="201.40" width="4.20" height="42.00" fill="#555" stroke="none"/><rect x="270.70" y="199.30" width="77.70" height="4.20" fill="#555" stroke="none"/><rect x="346.30" y="130.00" width="4.20" height="71.40" fill="#555" stroke="none"/><rect x="130.00" y="419.80" width="140.70" height="8.40" fill="#555" stroke="none"/><rect x="125.80" y="298.00" width="8.40" height="126.00" fill="#555" stroke="none"/><rect x="125.80" y="243.40" width="8.40" height="54.60" fill="#555" stroke="none"/><rect x="130.00" y="125.80" width="140.70" height="8.40" fill="#555" stroke="none"/><rect x="125.80" y="130.00" width="8.40" height="113.40" fill="#555" stroke="none"/><rect x="270.70" y="125.80" width="77.70" height="8.40" fill="#555" stroke="none"/><rect x="270.70" y="419.80" width="153.30" height="8.40" fill="#555" stroke="none"/><rect x="419.80" y="201.40" width="8.40" height="222.60" fill="#555" stroke="none"/><rect x="348.40" y="125.80" width="75.60" height="8.40" fill="#555" stroke="none"/><rect x="419.80" y="130.00" width="8.40" height="71.40" fill="#555" stroke="none"/><rect x="125.80" y="293.80" width="8.40" height="8.40" fill="#555" stroke="none"/><rect x="237.10" y="295.90" width="4.20" height="4.20" fill="#555" stroke="none"/><rect x="266.50" y="419.80" width="8.40" height="8.40" fill="#555" stroke="none"/><rect x="237.10" y="295.90" width="4.20" height="4.20" fill="#555" stroke="none"/><rect x="237.10" y="241.30" width="4.20" height="4.20" fill="#555" stroke="none"/><rect x="237.10" y="241.30" width="4.20" height="4.20" fill="#555" stroke="none"/><rect x="268.60" y="241.30" width="4.20" height="4.20" fill="#555" stroke="none"/><rect x="268.60" y="241.30" width="4.20" height="4.20" fill="#555" stroke="none"/><rect x="125.80" y="239.20" width="8.40" height="8.40" fill="#555" stroke="none"/><rect x="237.10" y="241.30" width="4.20" height="4.20" fill="#555" stroke="none"/><rect x="268.60" y="199.30" width="4.20" height="4.20" fill="#555" stroke="none"/><rect x="266.50" y="125.80" width="8.40" height="8.40" fill="#555" stroke="none"/><rect x="268.60" y="241.30" width="4.20" height="4.20" fill="#555" stroke="none"/><rect x="268.60" y="199.30" width="4.20" height="4.20" fill="#555" stroke="none"/><rect x="268.60" y="199.30" width="4.20" height="4.20" fill="#555" stroke="none"/><rect x="344.20" y="125.80" width="8.40" height="8.40" fill="#555" stroke="none"/><rect x="125.80" y="419.80" width="8.40" height="8.40" fill="#555" stroke="none"/><rect x="266.50" y="419.80" width="8.40" height="8.40" fill="#555" stroke="none"/><rect x="125.80" y="419.80" width="8.40" height="8.40" fill="#555" stroke="none"/><rect x="125.80" y="293.80" width="8.40" height="8.40" fill="#555" stroke="none"/><rect x="125.80" y="293.80" width="8.40" height="8.40" fill="#555" stroke="none"/><rect x="125.80" y="239.20" width="8.40" height="8.40" fill="#555" stroke="none"/><rect x="125.80" y="125.80" width="8.40" height="8.40" fill="#555" stroke="none"/><rect x="266.50" y="125.80" width="8.40" height="8.40" fill="#555" stroke="none"/><rect x="125.80" y="239.20" width="8.40" height="8.40" fill="#555" stroke="none"/><rect x="125.80" y="125.80" width="8.40" height="8.40" fill="#555" stroke="none"/><rect x="266.50" y="125.80" width="8.40" height="8.40" fill="#555" stroke="none"/><rect x="344.20" y="125.80" width="8.40" height="8.40" fill="#555" stroke="none"/><rect x="266.50" y="419.80" width="8.40" height="8.40" fill="#555" stroke="none"/><rect x="419.80" y="419.80" width="8.40" height="8.40" fill="#555" stroke="none"/><rect x="419.80" y="419.80" width="8.40" height="8.40" fill="#555" stroke="none"/><rect x="344.20" y="125.80" width="8.40" height="8.40" fill="#555" stroke="none"/><rect x="419.80" y="125.80" width="8.40" height="8.40" fill="#555" stroke="none"/><rect x="419.80" y="125.80" width="8.40" height="8.40" fill="#555" stroke="none"/><rect x="350.5" y="201.4" width="71.4" height="5.0" fill="#cfe2f3" stroke="none"/><rect x="350.5" y="196.4" width="71.4" height="5.0" fill="#cfe2f3" stroke="none"/><rect x="136.3" y="298.0" width="29.4" height="5.0" fill="#d9ead3" stroke="none"/><rect x="136.3" y="293.0" width="29.4" height="5.0" fill="#ead1dc" stroke="none"/><line x1="136.3" y1="298.0" x2="136.3" y2="268.6" stroke="#444" stroke-width="1.4"/><path d="M 136.3 268.6 A 29.4 29.4 0 0 1 165.7 298.0" fill="none" stroke="#999" stroke-width="0.7" stroke-dasharray="2 2"/><rect x="277.0" y="196.4" width="29.4" height="5.0" fill="#ead1dc" stroke="none"/><rect x="277.0" y="201.4" width="29.4" height="5.0" fill="#cfe2f3" stroke="none"/><line x1="277.0" y1="201.4" x2="277.0" y2="172.0" stroke="#444" stroke-width="1.4"/><path d="M 277.0 172.0 A 29.4 29.4 0 0 1 306.4 201.4" fill="none" stroke="#999" stroke-width="0.7" stroke-dasharray="2 2"/><rect x="265.7" y="249.7" width="5.0" height="33.6" fill="#d9ead3" stroke="none"/><rect x="270.7" y="249.7" width="5.0" height="33.6" fill="#cfe2f3" stroke="none"/><line x1="270.7" y1="249.7" x2="237.1" y2="249.7" stroke="#444" stroke-width="1.4"/><path d="M 237.1 249.7 A 33.6 33.6 0 0 0 270.7 283.3" fill="none" stroke="#999" stroke-width="0.7" stroke-dasharray="2 2"/><rect x="265.7" y="203.5" width="5.0" height="33.6" fill="#d9ead3" stroke="none"/><rect x="270.7" y="203.5" width="5.0" height="33.6" fill="#cfe2f3" stroke="none"/><line x1="270.7" y1="237.1" x2="237.1" y2="237.1" stroke="#444" stroke-width="1.4"/><path d="M 237.1 237.1 A 33.6 33.6 0 0 1 270.7 203.5" fill="none" stroke="#999" stroke-width="0.7" stroke-dasharray="2 2"/><rect x="379.9" y="419.0" width="37.8" height="5.0" fill="#cfe2f3" stroke="none"/><rect x="379.9" y="424.0" width="37.8" height="5.0" fill="#fbfbf7" stroke="none"/><line x1="417.7" y1="424.0" x2="417.7" y2="386.2" stroke="#444" stroke-width="1.4"/><path d="M 417.7 386.2 A 37.8 37.8 0 0 0 379.9 424.0" fill="none" stroke="#999" stroke-width="0.7" stroke-dasharray="2 2"/><rect x="354.7" y="130.0" width="33.6" height="5.0" fill="#cfe2f3" stroke="none"/><rect x="354.7" y="125.0" width="33.6" height="5.0" fill="#fbfbf7" stroke="none"/><line x1="354.7" y1="130.0" x2="354.7" y2="163.6" stroke="#444" stroke-width="1.4"/><path d="M 354.7 163.6 A 33.6 33.6 0 0 0 388.3 130.0" fill="none" stroke="#999" stroke-width="0.7" stroke-dasharray="2 2"/><rect x="161.7" y="419.0" width="77.4" height="5.0" fill="#d9ead3" stroke="none"/><rect x="161.7" y="424.0" width="77.4" height="5.0" fill="#fbfbf7" stroke="none"/><line x1="161.7" y1="421.0" x2="239.1" y2="421.0" stroke="#222" stroke-width="1.0"/><line x1="161.7" y1="424.0" x2="239.1" y2="424.0" stroke="#222" stroke-width="1.0"/><line x1="161.7" y1="427.0" x2="239.1" y2="427.0" stroke="#222" stroke-width="1.0"/><rect x="130.0" y="326.4" width="5.0" height="69.3" fill="#d9ead3" stroke="none"/><rect x="125.0" y="326.4" width="5.0" height="69.3" fill="#fbfbf7" stroke="none"/><line x1="127.0" y1="395.6" x2="127.0" y2="326.4" stroke="#222" stroke-width="1.0"/><line x1="130.0" y1="395.6" x2="130.0" y2="326.4" stroke="#222" stroke-width="1.0"/><line x1="133.0" y1="395.6" x2="133.0" y2="326.4" stroke="#222" stroke-width="1.0"/><rect x="130.0" y="257.0" width="5.0" height="27.3" fill="#ead1dc" stroke="none"/><rect x="125.0" y="257.0" width="5.0" height="27.3" fill="#fbfbf7" stroke="none"/><line x1="127.0" y1="284.4" x2="127.0" y2="257.0" stroke="#222" stroke-width="1.0"/><line x1="130.0" y1="284.4" x2="130.0" y2="257.0" stroke="#222" stroke-width="1.0"/><line x1="133.0" y1="284.4" x2="133.0" y2="257.0" stroke="#222" stroke-width="1.0"/><rect x="161.7" y="130.0" width="77.4" height="5.0" fill="#d9ead3" stroke="none"/><rect x="161.7" y="125.0" width="77.4" height="5.0" fill="#fbfbf7" stroke="none"/><line x1="161.7" y1="127.0" x2="239.1" y2="127.0" stroke="#222" stroke-width="1.0"/><line x1="161.7" y1="130.0" x2="239.1" y2="130.0" stroke="#222" stroke-width="1.0"/><line x1="161.7" y1="133.0" x2="239.1" y2="133.0" stroke="#222" stroke-width="1.0"/><rect x="130.0" y="155.5" width="5.0" height="62.4" fill="#d9ead3" stroke="none"/><rect x="125.0" y="155.5" width="5.0" height="62.4" fill="#fbfbf7" stroke="none"/><line x1="127.0" y1="217.9" x2="127.0" y2="155.5" stroke="#222" stroke-width="1.0"/><line x1="130.0" y1="217.9" x2="130.0" y2="155.5" stroke="#222" stroke-width="1.0"/><line x1="133.0" y1="217.9" x2="133.0" y2="155.5" stroke="#222" stroke-width="1.0"/><rect x="290.6" y="130.0" width="37.8" height="5.0" fill="#ead1dc" stroke="none"/><rect x="290.6" y="125.0" width="37.8" height="5.0" fill="#fbfbf7" stroke="none"/><line x1="290.6" y1="127.0" x2="328.4" y2="127.0" stroke="#222" stroke-width="1.0"/><line x1="290.6" y1="130.0" x2="328.4" y2="130.0" stroke="#222" stroke-width="1.0"/><line x1="290.6" y1="133.0" x2="328.4" y2="133.0" stroke="#222" stroke-width="1.0"/><rect x="419.0" y="262.3" width="5.0" height="100.8" fill="#cfe2f3" stroke="none"/><rect x="424.0" y="262.3" width="5.0" height="100.8" fill="#fbfbf7" stroke="none"/><line x1="421.0" y1="363.1" x2="421.0" y2="262.3" stroke="#222" stroke-width="1.0"/><line x1="424.0" y1="363.1" x2="424.0" y2="262.3" stroke="#222" stroke-width="1.0"/><line x1="427.0" y1="363.1" x2="427.0" y2="262.3" stroke="#222" stroke-width="1.0"/><rect x="292.4" y="419.0" width="53.1" height="5.0" fill="#cfe2f3" stroke="none"/><rect x="292.4" y="424.0" width="53.1" height="5.0" fill="#fbfbf7" stroke="none"/><line x1="292.4" y1="421.0" x2="345.5" y2="421.0" stroke="#222" stroke-width="1.0"/><line x1="292.4" y1="424.0" x2="345.5" y2="424.0" stroke="#222" stroke-width="1.0"/><line x1="292.4" y1="427.0" x2="345.5" y2="427.0" stroke="#222" stroke-width="1.0"/><rect x="419.0" y="146.0" width="5.0" height="39.3" fill="#cfe2f3" stroke="none"/><rect x="424.0" y="146.0" width="5.0" height="39.3" fill="#fbfbf7" stroke="none"/><line x1="421.0" y1="185.3" x2="421.0" y2="146.0" stroke="#222" stroke-width="1.0"/><line x1="424.0" y1="185.3" x2="424.0" y2="146.0" stroke="#222" stroke-width="1.0"/><line x1="427.0" y1="185.3" x2="427.0" y2="146.0" stroke="#222" stroke-width="1.0"/></svg>