<svg xmlns="http://www.w3.org/2000/svg" width="512" height="680" viewBox="0 0 512 680"><rect x="0" y="0" width="512" height="680" fill="white"/><rect x="46.0" y="46.0" width="420.0" height="588.0" fill="#fbfbf7" stroke="#333" stroke-width="1.5"/><line x1="46.0" y1="46.0" x2="46.0" y2="38.0" stroke="#888" stroke-width="1"/><line x1="46.0" y1="634.0" x2="46.0" y2="642.0" stroke="#888" stroke-width="1"/><text x="46.0" y="36.0" text-anchor="middle" font-family="Arial" font-size="9" fill="#666">0</text><text x="46.0" y="650.0" text-anchor="middle" font-family="Arial" font-size="9" fill="#666">0</text><line x1="67.0" y1="46.0" x2="67.0" y2="42.0" stroke="#888" stroke-width="1"/><line x1="67.0" y1="634.0" x2="67.0" y2="638.0" stroke="#888" stroke-width="1"/><line x1="88.0" y1="46.0" x2="88.0" y2="38.0" stroke="#888" stroke-width="1"/><line x1="88.0" y1="634.0" x2="88.0" y2="642.0" stroke="#888" stroke-width="1"/><text x="88.0" y="36.0" text-anchor="middle" font-family="Arial" font-size="9" fill="#666">1</text><text x="88.0" y="650.0" text-anchor="middle" font-family="Arial" font-size="9" fill="#666">1</text><line x1="109.0" y1="46.0" x2="109.0" y2="42.0" stroke="#888" stroke-width="1"/><line x1="109.0" y1="634.0" x2="109.0" y2="638.0" stroke="#888" stroke-width="1"/><line x1="130.0" y1="46.0" x2="130.0" y2="38.0" stroke="#888" stroke-width="1"/><line x1="130.0" y1="634.0" x2="130.0" y2="642.0" stroke="#888" stroke-width="1"/><text x="130.0" y="36.0" text-anchor="middle" font-family="Arial" font-size="9" fill="#666">2</text><text x="130.0" y="650.0" text-anchor="middle" font-family="Arial" font-size="9" fill="#666">2</text><line x1="151.0" y1="46.0" x2="151.0" y2="42.0" stroke="#888" stroke-width="1"/><line x1="151.0" y1="634.0" x2="151.0" y2="638.0" stroke="#888" stroke-width="1"/><line x1="172.0" y1="46.0" x2="172.0" y2="38.0" stroke="#888" stroke-width="1"/><line x1="172.0" y1="634.0" x2="172.0" y2="642.0" stroke="#888" stroke-width="1"/><text x="172.0" y="36.0" text-anchor="middle" font-family="Arial" font-size="9" fill="#666">3</text><text x="172.0" y="650.0" text-anchor="middle" font-family="Arial" font-size="9" fill="#666">3</text><line x1="193.0" y1="46.0" x2="193.0" y2="42.0" stroke="#888" stroke-width="1"/><line x1="193.0" y1="634.0" x2="193.0" y2="638.0" stroke="#888" stroke-width="1"/><line x1="214.0" y1="46.0" x2="214.0" y2="38.0" stroke="#888" stroke-width="1"/><line x1="214.0" y1="634.0" x2="214.0" y2="642.0" stroke="#888" stroke-width="1"/><text x="214.0" y="36.0" text-anchor="middle" font-family="Arial" font-size="9" fill="#666">4</text><text x="214.0" y="650.0" text-anchor="middle" font-family="Arial" font-size="9" fill="#666">4</text><line x1="235.0" y1="46.0" x2="235.0" y2="42.0" stroke="#888" stroke-width="1"/><line x1="235.0" y1="634.0" x2="235.0" y2="638.0" stroke="#888" stroke-width="1"/><line x1="256.0" y1="46.0" x2="256.0" y2="38.0" stroke="#888" stroke-width="1"/><line x1="256.0" y1="634.0" x2="256.0" y2="642.0" stroke="#888" stroke-width="1"/><text x="256.0" y="36.0" text-anchor="middle" font-family="Arial" font-size="9" fill="#666">5</text><text x="256.0" y="650.0" text-anchor="middle" font-family="Arial" font-size="9" fill="#666">5</text><line x1="277.0" y1="46.0" x2="277.0" y2="42.0" stroke="#888" stroke-width="1"/><line x1="277.0" y1="634.0" x2="277.0" y2="638.0" stroke="#888" stroke-width="1"/><line x1="298.0" y1="46.0" x2="298.0" y2="38.0" stroke="#888" stroke-width="1"/><line x1="298.0" y1="634.0" x2="298.0" y2="642.0" stroke="#888" stroke-width="1"/><text x="298.0" y="36.0" text-anchor="middle" font-family="Arial" font-size="9" fill="#666">6</text><text x="298.0" y="650.0" text-anchor="middle" font-family="Arial" font-size="9" fill="#666">6</text><line x1="319.0" y1="46.0" x2="319.0" y2="42.0" stroke="#888" stroke-width="1"/><line x1="319.0" y1="634.0" x2="319.0" y2="638.0" stroke="#888" stroke-width="1"/><line x1="340.0" y1="46.0" x2="340.0" y2="38.0" stroke="#888" stroke-width="1"/><line x1="340.0" y1="634.0" x2="340.0" y2="642.0" stroke="#888" stroke-width="1"/><text x="340.0" y="36.0" text-anchor="middle" font-family="Arial" font-size="9" fill="#666">7</text><text x="340.0" y="650.0" text-anchor="middle" font-family="Arial" font-size="9" fill="#666">7</text><line x1="361.0" y1="46.0" x2="361.0" y2="42.0" stroke="#888" stroke-width="1"/><line x1="361.0" y1="634.0" x2="361.0" y2="638.0" stroke="#888" stroke-width="1"/><line x1="382.0" y1="46.0" x2="382.0" y2="38.0" stroke="#888" stroke-width="1"/><line x1="382.0" y1="634.0" x2="382.0" y2="642.0" stroke="#888" stroke-width="1"/><text x="382.0" y="36.0" text-anchor="middle" font-family="Arial" font-size="9" fill="#666">8</text><text x="382.0" y="650.0" text-anchor="middle" font-family="Arial" font-size="9" fill="#666">8</text><line x1="403.0" y1="46.0" x2="403.0" y2="42.0" stroke="#888" stroke-width="1"/><line x1="403.0" y1="634.0" x2="403.0" y2="638.0" stroke="#888" stroke-width="1"/><line x1="424.0" y1="46.0" x2="424.0" y2="38.0" stroke="#888" stroke-width="1"/><line x1="424.0" y1="634.0" x2="424.0" y2="642.0" stroke="#888" stroke-width="1"/><text x="424.0" y="36.0" text-anchor="middle" font-family="Arial" font-size="9" fill="#666">9</text><text x="424.0" y="650.0" text-anchor="middle" font-family="Arial" font-size="9" fill="#666">9</text><line x1="445.0" y1="46.0" x2="445.0" y2="42.0" stroke="#888" stroke-width="1"/><line x1="445.0" y1="634.0" x2="445.0" y2="638.0" stroke="#888" stroke-width="1"/><line x1="466.0" y1="46.0" x2="466.0" y2="38.0" stroke="#888" stroke-width="1"/><line x1="466.0" y1="634.0" x2="466.0" y2="642.0" stroke="#888" stroke-width="1"/><text x="466.0" y="36.0" text-anchor="middle" font-family="Arial" font-size="9" fill="#666">10</text><text x="466.0" y="650.0" text-anchor="middle" font-family="Arial" font-size="9" fill="#666">10</text><line x1="46.0" y1="634.0" x2="38.0" y2="634.0" stroke="#888" stroke-width="1"/><line x1="466.0" y1="634.0" x2="474.0" y2="634.0" stroke="#888" stroke-width="1"/><text x="36.0" y="637.0" text-anchor="end" font-family="Arial" font-size="9" fill="#666">0</text><text x="476.0" y="637.0" text-anchor="start" font-family="Arial" font-size="9" fill="#666">0</text><line x1="46.0" y1="613.0" x2="42.0" y2="613.0" stroke="#888" stroke-width="1"/><line x1="466.0" y1="613.0" x2="470.0" y2="613.0" stroke="#888" stroke-width="1"/><line x1="46.0" y1="592.0" x2="38.0" y2="592.0" stroke="#888" stroke-width="1"/><line x1="466.0" y1="592.0" x2="474.0" y2="592.0" stroke="#888" stroke-width="1"/><text x="36.0" y="595.0" text-anchor="end" font-family="Arial" font-size="9" fill="#666">1</text><text x="476.0" y="595.0" text-anchor="start" font-family="Arial" font-size="9" fill="#666">1</text><line x1="46.0" y1="571.0" x2="42.0" y2="571.0" stroke="#888" stroke-width="1"/><line x1="466.0" y1="571.0" x2="470.0" y2="571.0" stroke="#888" stroke-width="1"/><line x1="46.0" y1="550.0" x2="38.0" y2="550.0" stroke="#888" stroke-width="1"/><line x1="466.0" y1="550.0" x2="474.0" y2="550.0" stroke="#888" stroke-width="1"/><text x="36.0" y="553.0" text-anchor="end" font-family="Arial" font-size="9" fill="#666">2</text><text x="476.0" y="553.0" text-anchor="start" font-family="Arial" font-size="9" fill="#666">2</text><line x1="46.0" y1="529.0" x2="42.0" y2="529.0" stroke="#888" stroke-width="1"/><line x1="466.0" y1="529.0" x2="470.0" y2="529.0" stroke="#888" stroke-width="1"/><line x1="46.0" y1="508.0" x2="38.0" y2="508.0" stroke="#888" stroke-width="1"/><line x1="466.0" y1="508.0" x2="474.0" y2="508.0" stroke="#888" stroke-width="1"/><text x="36.0" y="511.0" text-anchor="end" font-family="Arial" font-size="9" fill="#666">3</text><text x="476.0" y="511.0" text-anchor="start" font-family="Arial" font-size="9" fill="#666">3</text><line x1="46.0" y1="487.0" x2="42.0" y2="487.0" stroke="#888" stroke-width="1"/><line x1="466.0" y1="487.0" x2="470.0" y2="487.0" stroke="#888" stroke-width="1"/><line x1="46.0" y1="466.0" x2="38.0" y2="466.0" stroke="#888" stroke-width="1"/><line x1="466.0" y1="466.0" x2="474.0" y2="466.0" stroke="#888" stroke-width="1"/><text x="36.0" y="469.0" text-anchor="end" font-family="Arial" font-size="9" fill="#666">4</text><text x="476.0" y="469.0" text-anchor="start" font-family="Arial" font-size="9" fill="#666">4</text><line x1="46.0" y1="445.0" x2="42.0" y2="445.0" stroke="#888" stroke-width="1"/><line x1="466.0" y1="445.0" x2="470.0" y2="445.0" stroke="#888" stroke-width="1"/><line x1="46.0" y1="424.0" x2="38.0" y2="424.0" stroke="#888" stroke-width="1"/><line x1="466.0" y1="424.0" x2="474.0" y2="424.0" stroke="#888" stroke-width="1"/><text x="36.0" y="427.0" text-anchor="end" font-family="Arial" font-size="9" fill="#666">5</text><text x="476.0" y="427.0" text-anchor="start" font-family="Arial" font-size="9" fill="#666">5</text><line x1="46.0" y1="403.0" x2="42.0" y2="403.0" stroke="#888" stroke-width="1"/><line x1="466.0" y1="403.0" x2="470.0" y2="403.0" stroke="#888" stroke-width="1"/><line x1="46.0" y1="382.0" x2="38.0" y2="382.0" stroke="#888" stroke-width="1"/><line x1="466.0" y1="382.0" x2="474.0" y2="382.0" stroke="#888" stroke-width="1"/><text x="36.0" y="385.0" text-anchor="end" font-family="Arial" font-size="9" fill="#666">6</text><text x="476.0" y="385.0" text-anchor="start" font-family="Arial" font-size="9" fill="#666">6</text><line x1="46.0" y1="361.0" x2="42.0" y2="361.0" stroke="#888" stroke-width="1"/><line x1="466.0" y1="361.0" x2="470.0" y2="361.0" stroke="#888" stroke-width="1"/><line x1="46.0" y1="340.0" x2="38.0" y2="340.0" stroke="#888" stroke-width="1"/><line x1="466.0" y1="340.0" x2="474.0" y2="340.0" stroke="#888" stroke-width="1"/><text x="36.0" y="343.0" text-anchor="end" font-family="Arial" font-size="9" fill="#666">7</text><text x="476.0" y="343.0" text-anchor="start" font-family="Arial" font-size="9" fill="#666">7</text><line x1="46.0" y1="319.0" x2="42.0" y2="319.0" stroke="#888" stroke-width="1"/><line x1="466.0" y1="319.0" x2="470.0" y2="319.0" stroke="#888" stroke-width="1"/><line x1="46.0" y1="298.0" x2="38.0" y2="298.0" stroke="#888" stroke-width="1"/><line x1="466.0" y1="298.0" x2="474.0" y2="298.0" stroke="#888" stroke-width="1"/><text x="36.0" y="301.0" text-anchor="end" font-family="Arial" font-size="9" fill="#666">8</text><text x="476.0" y="301.0" text-anchor="start" font-family="Arial" font-size="9" fill="#666">8</text><line x1="46.0" y1="277.0" x2="42.0" y2="277.0" stroke="#888" stroke-width="1"/><line x1="466.0" y1="277.0" x2="470.0" y2="277.0" stroke="#888" stroke-width="1"/><line x1="46.0" y1="256.0" x2="38.0" y2="256.0" stroke="#888" stroke-width="1"/><line x1="466.0" y1="256.0" x2="474.0" y2="256.0" stroke="#888" stroke-width="1"/><text x="36.0" y="259.0" text-anchor="end" font-family="Arial" font-size="9" fill="#666">9</text><text x="476.0" y="259.0" text-anchor="start" font-family="Arial" font-size="9" fill="#666">9</text><line x1="46.0" y1="235.0" x2="42.0" y2="235.0" stroke="#888" stroke-width="1"/><line x1="466.0" y1="235.0" x2="470.0" y2="235.0" stroke="#888" stroke-width="1"/><line x1="46.0" y1="214.0" x2="38.0" y2="214.0" stroke="#888" stroke-width="1"/><line x1="466.0" y1="214.0" x2="474.0" y2="214.0" stroke="#888" stroke-width="1"/><text x="36.0" y="217.0" text-anchor="end" font-family="Arial" font-size="9" fill="#666">10</text><text x="476.0" y="217.0" text-anchor="start" font-family="Arial" font-size="9" fill="#666">10</text><line x1="46.0" y1="193.0" x2="42.0" y2="193.0" stroke="#888" stroke-width="1"/><line x1="466.0" y1="193.0" x2="470.0" y2="193.0" stroke="#888" stroke-width="1"/><line x1="46.0" y1="172.0" x2="38.0" y2="172.0" stroke="#888" stroke-width="1"/><line x1="466.0" y1="172.0" x2="474.0" y2="172.0" stroke="#888" stroke-width="1"/><text x="36.0" y="175.0" text-anchor="end" font-family="Arial" font-size="9" fill="#666">11</text><text x="476.0" y="175.0" text-anchor="start" font-family="Arial" font-size="9" fill="#666">11</text><line x1="46.0" y1="151.0" x2="42.0" y2="151.0" stroke="#888" stroke-width="1"/><line x1="466.0" y1="151.0" x2="470.0" y2="151.0" stroke="#888" stroke-width="1"/><line x1="46.0" y1="130.0" x2="38.0" y2="130.0" stroke="#888" stroke-width="1"/><line x1="466.0" y1="130.0" x2="474.0" y2="130.0" stroke="#888" stroke-width="1"/><text x="36.0" y="133.0" text-anchor="end" font-family="Arial" font-size="9" fill="#666">12</text><text x="476.0" y="133.0" text-anchor="start" font-family="Arial" font-size="9" fill="#666">12</text><line x1="46.0" y1="109.0" x2="42.0" y2="109.0" stroke="#888" stroke-width="1"/><line x1="466.0" y1="109.0" x2="470.0" y2="109.0" stroke="#888" stroke-width="1"/><line x1="46.0" y1="88.0" x2="38.0" y2="88.0" stroke="#888" stroke-width="1"/><line x1="466.0" y1="88.0" x2="474.0" y2="88.0" stroke="#888" stroke-width="1"/><text x="36.0" y="91.0" text-anchor="end" font-family="Arial" font-size="9" fill="#666">13</text><text x="476.0" y="91.0" text-anchor="start" font-family="Arial" font-size="9" fill="#666">13</text><line x1="46.0" y1="67.0" x2="42.0" y2="67.0" stroke="#888" stroke-width="1"/><line x1="466.0" y1="67.0" x2="470.0" y2="67.0" stroke="#888" stroke-width="1"/><line x1="46.0" y1="46.0" x2="38.0" y2="46.0" stroke="#888" stroke-width="1"/><line x1="466.0" y1="46.0" x2="474.0" y2="46.0" stroke="#888" stroke-width="1"/><text x="36.0" y="49.0" text-anchor="end" font-family="Arial" font-size="9" fill="#666">14</text><text x="476.0" y="49.0" text-anchor="start" font-family="Arial" font-size="9" fill="#666">14</text><rect x="130.0" y="130.0" width="252.0" height="420.0" fill="none" stroke="#9aa" stroke-width="1" stroke-dasharray="3 3"/><rect x="257.3" y="551.3" width="123.5" height="60.5" fill="#f2f2f2" stroke="#333" stroke-width="1.5" stroke-dasharray="6 4"/><text x="319.0" y="578.9" text-anchor="middle" font-family="Arial" font-size="12" font-weight="bold" fill="#222">PORCH</text><text x="319.0" y="594.6" text-anchor="middle" font-family="Arial" font-size="10" fill="#555">3.0×1.5 m</text><rect x="130.0" y="193.0" width="126.0" height="132.3" fill="#d9ead3" stroke="#333" stroke-width="1.5"/><text x="193.0" y="256.5" text-anchor="middle" font-family="Arial" font-size="12" font-weight="bold" fill="#222">MASTER BR</text><text x="193.0" y="272.3" text-anchor="middle" font-family="Arial" font-size="10" fill="#555">3.0×3.1 m · 9.4 sqm</text><rect x="130.0" y="130.0" width="126.0" height="63.0" fill="#ead1dc" stroke="#333" stroke-width="1.5"/><text x="193.0" y="158.8" text-anchor="middle" font-family="Arial" font-size="12" font-weight="bold" fill="#222">ENSUITE</text><text x="193.0" y="174.7" text-anchor="middle" font-family="Arial" font-size="10" fill="#555">3.0×1.5 m · 4.5 sqm</text><rect x="130.0" y="325.3" width="126.0" height="105.0" fill="#d9ead3" stroke="#333" stroke-width="1.5"/><text x="193.0" y="375.2" text-anchor="middle" font-family="Arial" font-size="12" font-weight="bold" fill="#222">BEDROOM</text><text x="193.0" y="391.0" text-anchor="middle" font-family="Arial" font-size="10" fill="#555">3.0×2.5 m · 7.5 sqm</text><rect x="130.0" y="430.3" width="126.0" height="119.7" fill="#ead1dc" stroke="#333" stroke-width="1.5"/><text x="193.0" y="487.5" text-anchor="middle" font-family="Arial" font-size="12" font-weight="bold" fill="#222">T&amp;B</text><text x="193.0" y="503.3" text-anchor="middle" font-family="Arial" font-size="10" fill="#555">3.0×2.9 m · 8.6 sqm</text><rect x="256.0" y="283.3" width="126.0" height="84.0" fill="#efefef" stroke="#333" stroke-width="1.5"/><text x="319.0" y="322.7" text-anchor="middle" font-family="Arial" font-size="12" font-weight="bold" fill="#222">HALL</text><text x="319.0" y="338.5" text-anchor="middle" font-family="Arial" font-size="10" fill="#555">3.0×2.0 m · 6.0 sqm</text><rect x="256.0" y="130.0" width="126.0" height="153.3" fill="#cfe2f3" stroke="#333" stroke-width="1.5"/><text x="319.0" y="198.3" text-anchor="middle" font-family="Arial" font-size="12" font-weight="bold" fill="#222">KITCHEN</text><text x="319.0" y="214.1" text-anchor="middle" font-family="Arial" font-size="10" fill="#555">3.0×3.6 m</text><text x="319.0" y="225.6" text-anchor="middle" font-family="Arial" font-size="10" fill="#555">10.9 sqm</text><rect x="256.0" y="367.3" width="126.0" height="182.7" fill="#cfe2f3" stroke="#333" stroke-width="1.5"/><text x="319.0" y="450.2" text-anchor="middle" font-family="Arial" font-size="12" font-weight="bold" fill="#222">GREAT ROOM</text><text x="319.0" y="466.1" text-anchor="middle" font-family="Arial" font-size="10" fill="#555">3.0×4.3 m</text><text x="319.0" y="477.6" text-anchor="middle" font-family="Arial" font-size="10" fill="#555">13.1 sqm</text><text x="256.0" y="668.0" text-anchor="middle" font-family="Arial" font-size="12" font-weight="bold" fill="#888">FRONT (street)</text><rect x="130.00" y="190.90" width="126.00" height="4.20" fill="#555" stroke="none"/><rect x="130.00" y="323.20" width="126.00" height="4.20" fill="#555" stroke="none"/><rect x="253.90" y="283.30" width="4.20" height="42.00" fill="#555" stroke="none"/><rect x="253.90" y="193.00" width="4.20" height="90.30" fill="#555" stroke="none"/><rect x="253.90" y="130.00" width="4.20" height="63.00" fill="#555" stroke="none"/><rect x="130.00" y="428.20" width="126.00" height="4.20" fill="#555" stroke="none"/><rect x="253.90" y="325.30" width="4.20" height="42.00" fill="#555" stroke="none"/><rect x="253.90" y="367.30" width="4.20" height="63.00" fill="#555" stroke="none"/><rect x="253.90" y="430.30" width="4.20" height="119.70" fill="#555" stroke="none"/><rect x="125.80" y="193.00" width="8.40" height="132.30" fill="#555" stroke="none"/><rect x="130.00" y="125.80" width="126.00" height="8.40" fill="#555" stroke="none"/><rect x="125.80" y="130.00" width="8.40" height="63.00" fill="#555" stroke="none"/><rect x="125.80" y="325.30" width="8.40" height="105.00" fill="#555" stroke="none"/><rect x="130.00" y="545.80" width="126.00" height="8.40" fill="#555" stroke="none"/><rect x="125.80" y="430.30" width="8.40" height="119.70" fill="#555" stroke="none"/><rect x="377.80" y="283.30" width="8.40" height="84.00" fill="#555" stroke="none"/><rect x="256.00" y="125.80" width="126.00" height="8.40" fill="#555" stroke="none"/><rect x="377.80" y="130.00" width="8.40" height="153.30" fill="#555" stroke="none"/><rect x="256.00" y="545.80" width="126.00" height="8.40" fill="#555" stroke="none"/><rect x="377.80" y="367.30" width="8.40" height="182.70" fill="#555" stroke="none"/><rect x="125.80" y="188.80" width="8.40" height="8.40" fill="#555" stroke="none"/><rect x="253.90" y="190.90" width="4.20" height="4.20" fill="#555" stroke="none"/><rect x="125.80" y="321.10" width="8.40" height="8.40" fill="#555" stroke="none"/><rect x="253.90" y="323.20" width="4.20" height="4.20" fill="#555" stroke="none"/><rect x="253.90" y="323.20" width="4.20" height="4.20" fill="#555" stroke="none"/><rect x="253.90" y="190.90" width="4.20" height="4.20" fill="#555" stroke="none"/><rect x="253.90" y="190.90" width="4.20" height="4.20" fill="#555" stroke="none"/><rect x="251.80" y="125.80" width="8.40" height="8.40" fill="#555" stroke="none"/><rect x="125.80" y="426.10" width="8.40" height="8.40" fill="#555" stroke="none"/><rect x="253.90" y="428.20" width="4.20" height="4.20" fill="#555" stroke="none"/><rect x="253.90" y="323.20" width="4.20" height="4.20" fill="#555" stroke="none"/><rect x="253.90" y="428.20" width="4.20" height="4.20" fill="#555" stroke="none"/><rect x="251.80" y="545.80" width="8.40" height="8.40" fill="#555" stroke="none"/><rect x="253.90" y="428.20" width="4.20" height="4.20" fill="#555" stroke="none"/><rect x="125.80" y="321.10" width="8.40" height="8.40" fill="#555" stroke="none"/><rect x="125.80" y="188.80" width="8.40" height="8.40" fill="#555" stroke="none"/><rect x="125.80" y="125.80" width="8.40" height="8.40" fill="#555" stroke="none"/><rect x="251.80" y="125.80" width="8.40" height="8.40" fill="#555" stroke="none"/><rect x="125.80" y="188.80" width="8.40" height="8.40" fill="#555" stroke="none"/><rect x="125.80" y="125.80" width="8.40" height="8.40" fill="#555" stroke="none"/><rect x="125.80" y="426.10" width="8.40" height="8.40" fill="#555" stroke="none"/><rect x="125.80" y="321.10" width="8.40" height="8.40" fill="#555" stroke="none"/><rect x="125.80" y="545.80" width="8.40" height="8.40" fill="#555" stroke="none"/><rect x="251.80" y="545.80" width="8.40" height="8.40" fill="#555" stroke="none"/><rect x="125.80" y="545.80" width="8.40" height="8.40" fill="#555" stroke="none"/><rect x="125.80" y="426.10" width="8.40" height="8.40" fill="#555" stroke="none"/><rect x="251.80" y="125.80" width="8.40" height="8.40" fill="#555" stroke="none"/><rect x="377.80" y="125.80" width="8.40" height="8.40" fill="#555" stroke="none"/><rect x="377.80" y="125.80" width="8.40" height="8.40" fill="#555" stroke="none"/><rect x="251.80" y="545.80" width="8.40" height="8.40" fill="#555" stroke="none"/><rect x="377.80" y="545.80" width="8.40" height="8.40" fill="#555" stroke="none"/><rect x="377.80" y="545.80" width="8.40" height="8.40" fill="#555" stroke="none"/><rect x="258.1" y="278.3" width="121.8" height="5.0" fill="#cfe2f3" stroke="none"/><rect x="258.1" y="283.3" width="121.8" height="5.0" fill="#efefef" stroke="none"/><rect x="258.1" y="362.3" width="121.8" height="5.0" fill="#efefef" stroke="none"/><rect x="258.1" y="367.3" width="121.8" height="5.0" fill="#cfe2f3" stroke="none"/><rect x="136.3" y="193.0" width="29.4" height="5.0" fill="#d9ead3" stroke="none"/><rect x="136.3" y="188.0" width="29.4" height="5.0" fill="#ead1dc" stroke="none"/><line x1="136.3" y1="193.0" x2="136.3" y2="163.6" stroke="#444" stroke-width="1.4"/><path d="M 136.3 163.6 A 29.4 29.4 0 0 1 165.7 193.0" fill="none" stroke="#999" stroke-width="0.7" stroke-dasharray="2 2"/><rect x="251.0" y="285.4" width="5.0" height="33.6" fill="#d9ead3" stroke="none"/><rect x="256.0" y="285.4" width="5.0" height="33.6" fill="#efefef" stroke="none"/><line x1="256.0" y1="319.0" x2="222.4" y2="319.0" stroke="#444" stroke-width="1.4"/><path d="M 222.4 319.0 A 33.6 33.6 0 0 1 256.0 285.4" fill="none" stroke="#999" stroke-width="0.7" stroke-dasharray="2 2"/><rect x="251.0" y="331.6" width="5.0" height="33.6" fill="#d9ead3" stroke="none"/><rect x="256.0" y="331.6" width="5.0" height="33.6" fill="#efefef" stroke="none"/><line x1="256.0" y1="331.6" x2="222.4" y2="331.6" stroke="#444" stroke-width="1.4"/><path d="M 222.4 331.6 A 33.6 33.6 0 0 0 256.0 365.2" fill="none" stroke="#999" stroke-width="0.7" stroke-dasharray="2 2"/><rect x="251.0" y="514.3" width="5.0" height="29.4" fill="#ead1dc" stroke="none"/><rect x="256.0" y="514.3" width="5.0" height="29.4" fill="#cfe2f3" stroke="none"/><line x1="256.0" y1="543.7" x2="226.6" y2="543.7" stroke="#444" stroke-width="1.4"/><path d="M 226.6 543.7 A 29.4 29.4 0 0 1 256.0 514.3" fill="none" stroke="#999" stroke-width="0.7" stroke-dasharray="2 2"/><rect x="337.9" y="545.0" width="37.8" height="5.0" fill="#cfe2f3" stroke="none"/><rect x="337.9" y="550.0" width="37.8" height="5.0" fill="#fbfbf7" stroke="none"/><line x1="375.7" y1="550.0" x2="375.7" y2="512.2" stroke="#444" stroke-width="1.4"/><path d="M 375.7 512.2 A 37.8 37.8 0 0 0 337.9 550.0" fill="none" stroke="#999" stroke-width="0.7" stroke-dasharray="2 2"/><rect x="262.3" y="130.0" width="33.6" height="5.0" fill="#cfe2f3" stroke="none"/><rect x="262.3" y="125.0" width="33.6" height="5.0" fill="#fbfbf7" stroke="none"/><line x1="262.3" y1="130.0" x2="262.3" y2="163.6" stroke="#444" stroke-width="1.4"/><path d="M 262.3 163.6 A 33.6 33.6 0 0 0 295.9 130.0" fill="none" stroke="#999" stroke-width="0.7" stroke-dasharray="2 2"/><rect x="130.0" y="222.7" width="5.0" height="72.8" fill="#d9ead3" stroke="none"/><rect x="125.0" y="222.7" width="5.0" height="72.8" fill="#fbfbf7" stroke="none"/><line x1="127.0" y1="295.5" x2="127.0" y2="222.7" stroke="#222" stroke-width="1.0"/><line x1="130.0" y1="295.5" x2="130.0" y2="222.7" stroke="#222" stroke-width="1.0"/><line x1="133.0" y1="295.5" x2="133.0" y2="222.7" stroke="#222" stroke-width="1.0"/><rect x="174.1" y="130.0" width="37.8" height="5.0" fill="#ead1dc" stroke="none"/><rect x="174.1" y="125.0" width="37.8" height="5.0" fill="#fbfbf7" stroke="none"/><line x1="174.1" y1="127.0" x2="211.9" y2="127.0" stroke="#222" stroke-width="1.0"/><line x1="174.1" y1="130.0" x2="211.9" y2="130.0" stroke="#222" stroke-width="1.0"/><line x1="174.1" y1="133.0" x2="211.9" y2="133.0" stroke="#222" stroke-width="1.0"/><rect x="130.0" y="145.8" width="5.0" height="31.5" fill="#ead1dc" stroke="none"/><rect x="125.0" y="145.8" width="5.0" height="31.5" fill="#fbfbf7" stroke="none"/><line x1="127.0" y1="177.2" x2="127.0" y2="145.8" stroke="#222" stroke-width="1.0"/><line x1="130.0" y1="177.2" x2="130.0" y2="145.8" stroke="#222" stroke-width="1.0"/><line x1="133.0" y1="177.2" x2="133.0" y2="145.8" stroke="#222" stroke-width="1.0"/><rect x="130.0" y="348.9" width="5.0" height="57.8" fill="#d9ead3" stroke="none"/><rect x="125.0" y="348.9" width="5.0" height="57.8" fill="#fbfbf7" stroke="none"/><line x1="127.0" y1="406.7" x2="127.0" y2="348.9" stroke="#222" stroke-width="1.0"/><line x1="130.0" y1="406.7" x2="130.0" y2="348.9" stroke="#222" stroke-width="1.0"/><line x1="133.0" y1="406.7" x2="133.0" y2="348.9" stroke="#222" stroke-width="1.0"/><rect x="174.1" y="545.0" width="37.8" height="5.0" fill="#ead1dc" stroke="none"/><rect x="174.1" y="550.0" width="37.8" height="5.0" fill="#fbfbf7" stroke="none"/><line x1="174.1" y1="547.0" x2="211.9" y2="547.0" stroke="#222" stroke-width="1.0"/><line x1="174.1" y1="550.0" x2="211.9" y2="550.0" stroke="#222" stroke-width="1.0"/><line x1="174.1" y1="553.0" x2="211.9" y2="553.0" stroke="#222" stroke-width="1.0"/><rect x="130.0" y="471.2" width="5.0" height="37.8" fill="#ead1dc" stroke="none"/><rect x="125.0" y="471.2" width="5.0" height="37.8" fill="#fbfbf7" stroke="none"/><line x1="127.0" y1="509.1" x2="127.0" y2="471.2" stroke="#222" stroke-width="1.0"/><line x1="130.0" y1="509.1" x2="130.0" y2="471.2" stroke="#222" stroke-width="1.0"/><line x1="133.0" y1="509.1" x2="133.0" y2="471.2" stroke="#222" stroke-width="1.0"/><rect x="377.0" y="164.5" width="5.0" height="84.3" fill="#cfe2f3" stroke="none"/><rect x="382.0" y="164.5" width="5.0" height="84.3" fill="#fbfbf7" stroke="none"/><line x1="379.0" y1="248.8" x2="379.0" y2="164.5" stroke="#222" stroke-width="1.0"/><line x1="382.0" y1="248.8" x2="382.0" y2="164.5" stroke="#222" stroke-width="1.0"/><line x1="385.0" y1="248.8" x2="385.0" y2="164.5" stroke="#222" stroke-width="1.0"/><rect x="325.0" y="130.0" width="40.4" height="5.0" fill="#cfe2f3" stroke="none"/><rect x="325.0" y="125.0" width="40.4" height="5.0" fill="#fbfbf7" stroke="none"/><line x1="325.0" y1="127.0" x2="365.5" y2="127.0" stroke="#222" stroke-width="1.0"/><line x1="325.0" y1="130.0" x2="365.5" y2="130.0" stroke="#222" stroke-width="1.0"/><line x1="325.0" y1="133.0" x2="365.5" y2="133.0" stroke="#222" stroke-width="1.0"/><rect x="377.0" y="408.4" width="5.0" height="100.5" fill="#cfe2f3" stroke="none"/><rect x="382.0" y="408.4" width="5.0" height="100.5" fill="#fbfbf7" stroke="none"/><line x1="379.0" y1="508.9" x2="379.0" y2="408.4" stroke="#222" stroke-width="1.0"/><line x1="382.0" y1="508.9" x2="382.0" y2="408.4" stroke="#222" stroke-width="1.0"/><line x1="385.0" y1="508.9" x2="385.0" y2="408.4" stroke="#222" stroke-width="1.0"/><rect x="271.6" y="545.0" width="38.1" height="5.0" fill="#cfe2f3" stroke="none"/><rect x="271.6" y="550.0" width="38.1" height="5.0" fill="#fbfbf7" stroke="none"/><line x1="271.6" y1="547.0" x2="309.7" y2="547.0" stroke="#222" stroke-width="1.0"/><line x1="271.6" y1="550.0" x2="309.7" y2="550.0" stroke="#222" stroke-width="1.0"/><line x1="271.6" y1="553.0" x2="309.7" y2="553.0" stroke="#222" stroke-width="1.0"/></svg>