<svg xmlns="http://www.w3.org/2000/svg" width="533" height="533" viewBox="0 0 533 533"><rect x="0" y="0" width="533" height="533" fill="white"/><rect x="46.0" y="46.0" width="441.0" height="441.0" fill="#fbfbf7" stroke="#333" stroke-width="1.5"/><line x1="46.0" y1="46.0" x2="46.0" y2="38.0" stroke="#888" stroke-width="1"/><line x1="46.0" y1="487.0" x2="46.0" y2="495.0" stroke="#888" stroke-width="1"/><text x="46.0" y="36.0" text-anchor="middle" font-family="Arial" font-size="9" fill="#666">0</text><text x="46.0" y="503.0" text-anchor="middle" font-family="Arial" font-size="9" fill="#666">0</text><line x1="67.0" y1="46.0" x2="67.0" y2="42.0" stroke="#888" stroke-width="1"/><line x1="67.0" y1="487.0" x2="67.0" y2="491.0" stroke="#888" stroke-width="1"/><line x1="88.0" y1="46.0" x2="88.0" y2="38.0" stroke="#888" stroke-width="1"/><line x1="88.0" y1="487.0" x2="88.0" y2="495.0" stroke="#888" stroke-width="1"/><text x="88.0" y="36.0" text-anchor="middle" font-family="Arial" font-size="9" fill="#666">1</text><text x="88.0" y="503.0" text-anchor="middle" font-family="Arial" font-size="9" fill="#666">1</text><line x1="109.0" y1="46.0" x2="109.0" y2="42.0" stroke="#888" stroke-width="1"/><line x1="109.0" y1="487.0" x2="109.0" y2="491.0" stroke="#888" stroke-width="1"/><line x1="130.0" y1="46.0" x2="130.0" y2="38.0" stroke="#888" stroke-width="1"/><line x1="130.0" y1="487.0" x2="130.0" y2="495.0" stroke="#888" stroke-width="1"/><text x="130.0" y="36.0" text-anchor="middle" font-family="Arial" font-size="9" fill="#666">2</text><text x="130.0" y="503.0" text-anchor="middle" font-family="Arial" font-size="9" fill="#666">2</text><line x1="151.0" y1="46.0" x2="151.0" y2="42.0" stroke="#888" stroke-width="1"/><line x1="151.0" y1="487.0" x2="151.0" y2="491.0" stroke="#888" stroke-width="1"/><line x1="172.0" y1="46.0" x2="172.0" y2="38.0" stroke="#888" stroke-width="1"/><line x1="172.0" y1="487.0" x2="172.0" y2="495.0" stroke="#888" stroke-width="1"/><text x="172.0" y="36.0" text-anchor="middle" font-family="Arial" font-size="9" fill="#666">3</text><text x="172.0" y="503.0" text-anchor="middle" font-family="Arial" font-size="9" fill="#666">3</text><line x1="193.0" y1="46.0" x2="193.0" y2="42.0" stroke="#888" stroke-width="1"/><line x1="193.0" y1="487.0" x2="193.0" y2="491.0" stroke="#888" stroke-width="1"/><line x1="214.0" y1="46.0" x2="214.0" y2="38.0" stroke="#888" stroke-width="1"/><line x1="214.0" y1="487.0" x2="214.0" y2="495.0" stroke="#888" stroke-width="1"/><text x="214.0" y="36.0" text-anchor="middle" font-family="Arial" font-size="9" fill="#666">4</text><text x="214.0" y="503.0" text-anchor="middle" font-family="Arial" font-size="9" fill="#666">4</text><line x1="235.0" y1="46.0" x2="235.0" y2="42.0" stroke="#888" stroke-width="1"/><line x1="235.0" y1="487.0" x2="235.0" y2="491.0" stroke="#888" stroke-width="1"/><line x1="256.0" y1="46.0" x2="256.0" y2="38.0" stroke="#888" stroke-width="1"/><line x1="256.0" y1="487.0" x2="256.0" y2="495.0" stroke="#888" stroke-width="1"/><text x="256.0" y="36.0" text-anchor="middle" font-family="Arial" font-size="9" fill="#666">5</text><text x="256.0" y="503.0" text-anchor="middle" font-family="Arial" font-size="9" fill="#666">5</text><line x1="277.0" y1="46.0" x2="277.0" y2="42.0" stroke="#888" stroke-width="1"/><line x1="277.0" y1="487.0" x2="277.0" y2="491.0" stroke="#888" stroke-width="1"/><line x1="298.0" y1="46.0" x2="298.0" y2="38.0" stroke="#888" stroke-width="1"/><line x1="298.0" y1="487.0" x2="298.0" y2="495.0" stroke="#888" stroke-width="1"/><text x="298.0" y="36.0" text-anchor="middle" font-family="Arial" font-size="9" fill="#666">6</text><text x="298.0" y="503.0" text-anchor="middle" font-family="Arial" font-size="9" fill="#666">6</text><line x1="319.0" y1="46.0" x2="319.0" y2="42.0" stroke="#888" stroke-width="1"/><line x1="319.0" y1="487.0" x2="319.0" y2="491.0" stroke="#888" stroke-width="1"/><line x1="340.0" y1="46.0" x2="340.0" y2="38.0" stroke="#888" stroke-width="1"/><line x1="340.0" y1="487.0" x2="340.0" y2="495.0" stroke="#888" stroke-width="1"/><text x="340.0" y="36.0" text-anchor="middle" font-family="Arial" font-size="9" fill="#666">7</text><text x="340.0" y="503.0" text-anchor="middle" font-family="Arial" font-size="9" fill="#666">7</text><line x1="361.0" y1="46.0" x2="361.0" y2="42.0" stroke="#888" stroke-width="1"/><line x1="361.0" y1="487.0" x2="361.0" y2="491.0" stroke="#888" stroke-width="1"/><line x1="382.0" y1="46.0" x2="382.0" y2="38.0" stroke="#888" stroke-width="1"/><line x1="382.0" y1="487.0" x2="382.0" y2="495.0" stroke="#888" stroke-width="1"/><text x="382.0" y="36.0" text-anchor="middle" font-family="Arial" font-size="9" fill="#666">8</text><text x="382.0" y="503.0" text-anchor="middle" font-family="Arial" font-size="9" fill="#666">8</text><line x1="403.0" y1="46.0" x2="403.0" y2="42.0" stroke="#888" stroke-width="1"/><line x1="403.0" y1="487.0" x2="403.0" y2="491.0" stroke="#888" stroke-width="1"/><line x1="424.0" y1="46.0" x2="424.0" y2="38.0" stroke="#888" stroke-width="1"/><line x1="424.0" y1="487.0" x2="424.0" y2="495.0" stroke="#888" stroke-width="1"/><text x="424.0" y="36.0" text-anchor="middle" font-family="Arial" font-size="9" fill="#666">9</text><text x="424.0" y="503.0" text-anchor="middle" font-family="Arial" font-size="9" fill="#666">9</text><line x1="445.0" y1="46.0" x2="445.0" y2="42.0" stroke="#888" stroke-width="1"/><line x1="445.0" y1="487.0" x2="445.0" y2="491.0" stroke="#888" stroke-width="1"/><line x1="466.0" y1="46.0" x2="466.0" y2="38.0" stroke="#888" stroke-width="1"/><line x1="466.0" y1="487.0" x2="466.0" y2="495.0" stroke="#888" stroke-width="1"/><text x="466.0" y="36.0" text-anchor="middle" font-family="Arial" font-size="9" fill="#666">10</text><text x="466.0" y="503.0" text-anchor="middle" font-family="Arial" font-size="9" fill="#666">10</text><line x1="487.0" y1="46.0" x2="487.0" y2="42.0" stroke="#888" stroke-width="1"/><line x1="487.0" y1="487.0" x2="487.0" y2="491.0" stroke="#888" stroke-width="1"/><line x1="46.0" y1="487.0" x2="38.0" y2="487.0" stroke="#888" stroke-width="1"/><line x1="487.0" y1="487.0" x2="495.0" y2="487.0" stroke="#888" stroke-width="1"/><text x="36.0" y="490.0" text-anchor="end" font-family="Arial" font-size="9" fill="#666">0</text><text x="497.0" y="490.0" text-anchor="start" font-family="Arial" font-size="9" fill="#666">0</text><line x1="46.0" y1="466.0" x2="42.0" y2="466.0" stroke="#888" stroke-width="1"/><line x1="487.0" y1="466.0" x2="491.0" y2="466.0" stroke="#888" stroke-width="1"/><line x1="46.0" y1="445.0" x2="38.0" y2="445.0" stroke="#888" stroke-width="1"/><line x1="487.0" y1="445.0" x2="495.0" y2="445.0" stroke="#888" stroke-width="1"/><text x="36.0" y="448.0" text-anchor="end" font-family="Arial" font-size="9" fill="#666">1</text><text x="497.0" y="448.0" text-anchor="start" font-family="Arial" font-size="9" fill="#666">1</text><line x1="46.0" y1="424.0" x2="42.0" y2="424.0" stroke="#888" stroke-width="1"/><line x1="487.0" y1="424.0" x2="491.0" y2="424.0" stroke="#888" stroke-width="1"/><line x1="46.0" y1="403.0" x2="38.0" y2="403.0" stroke="#888" stroke-width="1"/><line x1="487.0" y1="403.0" x2="495.0" y2="403.0" stroke="#888" stroke-width="1"/><text x="36.0" y="406.0" text-anchor="end" font-family="Arial" font-size="9" fill="#666">2</text><text x="497.0" y="406.0" text-anchor="start" font-family="Arial" font-size="9" fill="#666">2</text><line x1="46.0" y1="382.0" x2="42.0" y2="382.0" stroke="#888" stroke-width="1"/><line x1="487.0" y1="382.0" x2="491.0" y2="382.0" stroke="#888" stroke-width="1"/><line x1="46.0" y1="361.0" x2="38.0" y2="361.0" stroke="#888" stroke-width="1"/><line x1="487.0" y1="361.0" x2="495.0" y2="361.0" stroke="#888" stroke-width="1"/><text x="36.0" y="364.0" text-anchor="end" font-family="Arial" font-size="9" fill="#666">3</text><text x="497.0" y="364.0" text-anchor="start" font-family="Arial" font-size="9" fill="#666">3</text><line x1="46.0" y1="340.0" x2="42.0" y2="340.0" stroke="#888" stroke-width="1"/><line x1="487.0" y1="340.0" x2="491.0" y2="340.0" stroke="#888" stroke-width="1"/><line x1="46.0" y1="319.0" x2="38.0" y2="319.0" stroke="#888" stroke-width="1"/><line x1="487.0" y1="319.0" x2="495.0" y2="319.0" stroke="#888" stroke-width="1"/><text x="36.0" y="322.0" text-anchor="end" font-family="Arial" font-size="9" fill="#666">4</text><text x="497.0" y="322.0" text-anchor="start" font-family="Arial" font-size="9" fill="#666">4</text><line x1="46.0" y1="298.0" x2="42.0" y2="298.0" stroke="#888" stroke-width="1"/><line x1="487.0" y1="298.0" x2="491.0" y2="298.0" stroke="#888" stroke-width="1"/><line x1="46.0" y1="277.0" x2="38.0" y2="277.0" stroke="#888" stroke-width="1"/><line x1="487.0" y1="277.0" x2="495.0" y2="277.0" stroke="#888" stroke-width="1"/><text x="36.0" y="280.0" text-anchor="end" font-family="Arial" font-size="9" fill="#666">5</text><text x="497.0" y="280.0" text-anchor="start" font-family="Arial" font-size="9" fill="#666">5</text><line x1="46.0" y1="256.0" x2="42.0" y2="256.0" stroke="#888" stroke-width="1"/><line x1="487.0" y1="256.0" x2="491.0" y2="256.0" stroke="#888" stroke-width="1"/><line x1="46.0" y1="235.0" x2="38.0" y2="235.0" stroke="#888" stroke-width="1"/><line x1="487.0" y1="235.0" x2="495.0" y2="235.0" stroke="#888" stroke-width="1"/><text x="36.0" y="238.0" text-anchor="end" font-family="Arial" font-size="9" fill="#666">6</text><text x="497.0" y="238.0" text-anchor="start" font-family="Arial" font-size="9" fill="#666">6</text><line x1="46.0" y1="214.0" x2="42.0" y2="214.0" stroke="#888" stroke-width="1"/><line x1="487.0" y1="214.0" x2="491.0" y2="214.0" stroke="#888" stroke-width="1"/><line x1="46.0" y1="193.0" x2="38.0" y2="193.0" stroke="#888" stroke-width="1"/><line x1="487.0" y1="193.0" x2="495.0" y2="193.0" stroke="#888" stroke-width="1"/><text x="36.0" y="196.0" text-anchor="end" font-family="Arial" font-size="9" fill="#666">7</text><text x="497.0" y="196.0" text-anchor="start" font-family="Arial" font-size="9" fill="#666">7</text><line x1="46.0" y1="172.0" x2="42.0" y2="172.0" stroke="#888" stroke-width="1"/><line x1="487.0" y1="172.0" x2="491.0" y2="172.0" stroke="#888" stroke-width="1"/><line x1="46.0" y1="151.0" x2="38.0" y2="151.0" stroke="#888" stroke-width="1"/><line x1="487.0" y1="151.0" x2="495.0" y2="151.0" stroke="#888" stroke-width="1"/><text x="36.0" y="154.0" text-anchor="end" font-family="Arial" font-size="9" fill="#666">8</text><text x="497.0" y="154.0" text-anchor="start" font-family="Arial" font-size="9" fill="#666">8</text><line x1="46.0" y1="130.0" x2="42.0" y2="130.0" stroke="#888" stroke-width="1"/><line x1="487.0" y1="130.0" x2="491.0" y2="130.0" stroke="#888" stroke-width="1"/><line x1="46.0" y1="109.0" x2="38.0" y2="109.0" stroke="#888" stroke-width="1"/><line x1="487.0" y1="109.0" x2="495.0" y2="109.0" stroke="#888" stroke-width="1"/><text x="36.0" y="112.0" text-anchor="end" font-family="Arial" font-size="9" fill="#666">9</text><text x="497.0" y="112.0" text-anchor="start" font-family="Arial" font-size="9" fill="#666">9</text><line x1="46.0" y1="88.0" x2="42.0" y2="88.0" stroke="#888" stroke-width="1"/><line x1="487.0" y1="88.0" x2="491.0" y2="88.0" stroke="#888" stroke-width="1"/><line x1="46.0" y1="67.0" x2="38.0" y2="67.0" stroke="#888" stroke-width="1"/><line x1="487.0" y1="67.0" x2="495.0" y2="67.0" stroke="#888" stroke-width="1"/><text x="36.0" y="70.0" text-anchor="end" font-family="Arial" font-size="9" fill="#666">10</text><text x="497.0" y="70.0" text-anchor="start" font-family="Arial" font-size="9" fill="#666">10</text><line x1="46.0" y1="46.0" x2="42.0" y2="46.0" stroke="#888" stroke-width="1"/><line x1="487.0" y1="46.0" x2="491.0" y2="46.0" stroke="#888" stroke-width="1"/><rect x="130.0" y="130.0" width="273.0" height="273.0" fill="none" stroke="#9aa" stroke-width="1" stroke-dasharray="3 3"/><rect x="278.3" y="404.3" width="123.5" height="60.5" fill="#f2f2f2" stroke="#333" stroke-width="1.5" stroke-dasharray="6 4"/><text x="340.0" y="431.9" text-anchor="middle" font-family="Arial" font-size="12" font-weight="bold" fill="#222">PORCH</text><text x="340.0" y="447.7" text-anchor="middle" font-family="Arial" font-size="10" fill="#555">3.0×1.5 m</text><rect x="130.0" y="130.0" width="147.0" height="113.4" fill="#d9ead3" stroke="#333" stroke-width="1.5"/><text x="203.5" y="184.0" text-anchor="middle" font-family="Arial" font-size="12" font-weight="bold" fill="#222">MASTER BR</text><text x="203.5" y="199.8" text-anchor="middle" font-family="Arial" font-size="10" fill="#555">3.5×2.7 m · 9.4 sqm</text><rect x="130.0" y="243.4" width="73.5" height="75.6" fill="#ead1dc" stroke="#333" stroke-width="1.5"/><text x="166.8" y="272.8" text-anchor="middle" font-family="Arial" font-size="12" font-weight="bold" fill="#222">ENSUITE</text><text x="166.8" y="288.6" text-anchor="middle" font-family="Arial" font-size="10" fill="#555">1.8×1.8 m</text><text x="166.8" y="300.1" text-anchor="middle" font-family="Arial" font-size="10" fill="#555">3.1 sqm</text><rect x="130.0" y="319.0" width="147.0" height="84.0" fill="#d9ead3" stroke="#333" stroke-width="1.5"/><text x="203.5" y="358.4" text-anchor="middle" font-family="Arial" font-size="12" font-weight="bold" fill="#222">BEDROOM</text><text x="203.5" y="374.2" text-anchor="middle" font-family="Arial" font-size="10" fill="#555">3.5×2.0 m · 7.0 sqm</text><rect x="203.5" y="243.4" width="73.5" height="75.6" fill="#ead1dc" stroke="#333" stroke-width="1.5"/><text x="240.2" y="272.8" text-anchor="middle" font-family="Arial" font-size="12" font-weight="bold" fill="#222">T&amp;B</text><text x="240.2" y="288.6" text-anchor="middle" font-family="Arial" font-size="10" fill="#555">1.8×1.8 m</text><text x="240.2" y="300.1" text-anchor="middle" font-family="Arial" font-size="10" fill="#555">3.1 sqm</text><rect x="277.0" y="283.3" width="126.0" height="119.7" fill="#cfe2f3" stroke="#333" stroke-width="1.5"/><text x="340.0" y="340.5" text-anchor="middle" font-family="Arial" font-size="12" font-weight="bold" fill="#222">LIVING</text><text x="340.0" y="356.3" text-anchor="middle" font-family="Arial" font-size="10" fill="#555">3.0×2.9 m · 8.6 sqm</text><rect x="277.0" y="195.1" width="126.0" height="88.2" fill="#cfe2f3" stroke="#333" stroke-width="1.5"/><text x="340.0" y="236.6" text-anchor="middle" font-family="Arial" font-size="12" font-weight="bold" fill="#222">DINING</text><text x="340.0" y="252.4" text-anchor="middle" font-family="Arial" font-size="10" fill="#555">3.0×2.1 m · 6.3 sqm</text><rect x="277.0" y="130.0" width="126.0" height="65.1" fill="#cfe2f3" stroke="#333" stroke-width="1.5"/><text x="340.0" y="159.9" text-anchor="middle" font-family="Arial" font-size="12" font-weight="bold" fill="#222">KITCHEN</text><text x="340.0" y="175.7" text-anchor="middle" font-family="Arial" font-size="10" fill="#555">3.0×1.6 m · 4.7 sqm</text><text x="266.5" y="521.0" text-anchor="middle" font-family="Arial" font-size="12" font-weight="bold" fill="#888">FRONT (street)</text><rect x="130.00" y="241.30" width="73.50" height="4.20" fill="#555" stroke="none"/><rect x="203.50" y="241.30" width="73.50" height="4.20" fill="#555" stroke="none"/><rect x="274.90" y="195.10" width="4.20" height="48.30" fill="#555" stroke="none"/><rect x="274.90" y="130.00" width="4.20" height="65.10" fill="#555" stroke="none"/><rect x="130.00" y="316.90" width="73.50" height="4.20" fill="#555" stroke="none"/><rect x="201.40" y="243.40" width="4.20" height="75.60" fill="#555" stroke="none"/><rect x="203.50" y="316.90" width="73.50" height="4.20" fill="#555" stroke="none"/><rect x="274.90" y="319.00" width="4.20" height="84.00" fill="#555" stroke="none"/><rect x="274.90" y="283.30" width="4.20" height="35.70" fill="#555" stroke="none"/><rect x="274.90" y="243.40" width="4.20" height="39.90" fill="#555" stroke="none"/><rect x="130.00" y="125.80" width="147.00" height="8.40" fill="#555" stroke="none"/><rect x="125.80" y="130.00" width="8.40" height="113.40" fill="#555" stroke="none"/><rect x="125.80" y="243.40" width="8.40" height="75.60" fill="#555" stroke="none"/><rect x="130.00" y="398.80" width="147.00" height="8.40" fill="#555" stroke="none"/><rect x="125.80" y="319.00" width="8.40" height="84.00" fill="#555" stroke="none"/><rect x="277.00" y="398.80" width="126.00" height="8.40" fill="#555" stroke="none"/><rect x="398.80" y="283.30" width="8.40" height="119.70" fill="#555" stroke="none"/><rect x="398.80" y="195.10" width="8.40" height="88.20" fill="#555" stroke="none"/><rect x="277.00" y="125.80" width="126.00" height="8.40" fill="#555" stroke="none"/><rect x="398.80" y="130.00" width="8.40" height="65.10" fill="#555" stroke="none"/><rect x="125.80" y="239.20" width="8.40" height="8.40" fill="#555" stroke="none"/><rect x="201.40" y="241.30" width="4.20" height="4.20" fill="#555" stroke="none"/><rect x="201.40" y="241.30" width="4.20" height="4.20" fill="#555" stroke="none"/><rect x="274.90" y="241.30" width="4.20" height="4.20" fill="#555" stroke="none"/><rect x="274.90" y="241.30" width="4.20" height="4.20" fill="#555" stroke="none"/><rect x="272.80" y="125.80" width="8.40" height="8.40" fill="#555" stroke="none"/><rect x="125.80" y="314.80" width="8.40" height="8.40" fill="#555" stroke="none"/><rect x="201.40" y="316.90" width="4.20" height="4.20" fill="#555" stroke="none"/><rect x="201.40" y="316.90" width="4.20" height="4.20" fill="#555" stroke="none"/><rect x="201.40" y="241.30" width="4.20" height="4.20" fill="#555" stroke="none"/><rect x="201.40" y="316.90" width="4.20" height="4.20" fill="#555" stroke="none"/><rect x="274.90" y="316.90" width="4.20" height="4.20" fill="#555" stroke="none"/><rect x="272.80" y="398.80" width="8.40" height="8.40" fill="#555" stroke="none"/><rect x="274.90" y="316.90" width="4.20" height="4.20" fill="#555" stroke="none"/><rect x="274.90" y="316.90" width="4.20" height="4.20" fill="#555" stroke="none"/><rect x="274.90" y="241.30" width="4.20" height="4.20" fill="#555" stroke="none"/><rect x="125.80" y="125.80" width="8.40" height="8.40" fill="#555" stroke="none"/><rect x="272.80" y="125.80" width="8.40" height="8.40" fill="#555" stroke="none"/><rect x="125.80" y="239.20" width="8.40" height="8.40" fill="#555" stroke="none"/><rect x="125.80" y="125.80" width="8.40" height="8.40" fill="#555" stroke="none"/><rect x="125.80" y="314.80" width="8.40" height="8.40" fill="#555" stroke="none"/><rect x="125.80" y="239.20" width="8.40" height="8.40" fill="#555" stroke="none"/><rect x="125.80" y="398.80" width="8.40" height="8.40" fill="#555" stroke="none"/><rect x="272.80" y="398.80" width="8.40" height="8.40" fill="#555" stroke="none"/><rect x="125.80" y="398.80" width="8.40" height="8.40" fill="#555" stroke="none"/><rect x="125.80" y="314.80" width="8.40" height="8.40" fill="#555" stroke="none"/><rect x="272.80" y="398.80" width="8.40" height="8.40" fill="#555" stroke="none"/><rect x="398.80" y="398.80" width="8.40" height="8.40" fill="#555" stroke="none"/><rect x="398.80" y="398.80" width="8.40" height="8.40" fill="#555" stroke="none"/><rect x="272.80" y="125.80" width="8.40" height="8.40" fill="#555" stroke="none"/><rect x="398.80" y="125.80" width="8.40" height="8.40" fill="#555" stroke="none"/><rect x="398.80" y="125.80" width="8.40" height="8.40" fill="#555" stroke="none"/><rect x="279.1" y="283.3" width="121.8" height="5.0" fill="#cfe2f3" stroke="none"/><rect x="279.1" y="278.3" width="121.8" height="5.0" fill="#cfe2f3" stroke="none"/><rect x="279.1" y="195.1" width="121.8" height="5.0" fill="#cfe2f3" stroke="none"/><rect x="279.1" y="190.1" width="121.8" height="5.0" fill="#cfe2f3" stroke="none"/><rect x="136.3" y="238.4" width="29.4" height="5.0" fill="#d9ead3" stroke="none"/><rect x="136.3" y="243.4" width="29.4" height="5.0" fill="#ead1dc" stroke="none"/><line x1="136.3" y1="243.4" x2="136.3" y2="272.8" stroke="#444" stroke-width="1.4"/><path d="M 136.3 272.8 A 29.4 29.4 0 0 0 165.7 243.4" fill="none" stroke="#999" stroke-width="0.7" stroke-dasharray="2 2"/><rect x="272.0" y="325.3" width="5.0" height="33.6" fill="#d9ead3" stroke="none"/><rect x="277.0" y="325.3" width="5.0" height="33.6" fill="#cfe2f3" stroke="none"/><line x1="277.0" y1="325.3" x2="243.4" y2="325.3" stroke="#444" stroke-width="1.4"/><path d="M 243.4 325.3 A 33.6 33.6 0 0 0 277.0 358.9" fill="none" stroke="#999" stroke-width="0.7" stroke-dasharray="2 2"/><rect x="272.0" y="203.5" width="5.0" height="33.6" fill="#d9ead3" stroke="none"/><rect x="277.0" y="203.5" width="5.0" height="33.6" fill="#cfe2f3" stroke="none"/><line x1="277.0" y1="237.1" x2="243.4" y2="237.1" stroke="#444" stroke-width="1.4"/><path d="M 243.4 237.1 A 33.6 33.6 0 0 1 277.0 203.5" fill="none" stroke="#999" stroke-width="0.7" stroke-dasharray="2 2"/><rect x="272.0" y="283.3" width="5.0" height="29.4" fill="#ead1dc" stroke="none"/><rect x="277.0" y="283.3" width="5.0" height="29.4" fill="#cfe2f3" stroke="none"/><line x1="277.0" y1="312.7" x2="247.6" y2="312.7" stroke="#444" stroke-width="1.4"/><path d="M 247.6 312.7 A 29.4 29.4 0 0 1 277.0 283.3" fill="none" stroke="#999" stroke-width="0.7" stroke-dasharray="2 2"/><rect x="358.9" y="398.0" width="37.8" height="5.0" fill="#cfe2f3" stroke="none"/><rect x="358.9" y="403.0" width="37.8" height="5.0" fill="#fbfbf7" stroke="none"/><line x1="396.7" y1="403.0" x2="396.7" y2="365.2" stroke="#444" stroke-width="1.4"/><path d="M 396.7 365.2 A 37.8 37.8 0 0 0 358.9 403.0" fill="none" stroke="#999" stroke-width="0.7" stroke-dasharray="2 2"/><rect x="283.3" y="130.0" width="33.6" height="5.0" fill="#cfe2f3" stroke="none"/><rect x="283.3" y="125.0" width="33.6" height="5.0" fill="#fbfbf7" stroke="none"/><line x1="283.3" y1="130.0" x2="283.3" y2="163.6" stroke="#444" stroke-width="1.4"/><path d="M 283.3 163.6 A 33.6 33.6 0 0 0 316.9 130.0" fill="none" stroke="#999" stroke-width="0.7" stroke-dasharray="2 2"/><rect x="130.0" y="155.5" width="5.0" height="62.4" fill="#d9ead3" stroke="none"/><rect x="125.0" y="155.5" width="5.0" height="62.4" fill="#fbfbf7" stroke="none"/><line x1="127.0" y1="217.9" x2="127.0" y2="155.5" stroke="#222" stroke-width="1.0"/><line x1="130.0" y1="217.9" x2="130.0" y2="155.5" stroke="#222" stroke-width="1.0"/><line x1="133.0" y1="217.9" x2="133.0" y2="155.5" stroke="#222" stroke-width="1.0"/><rect x="163.1" y="130.0" width="80.8" height="5.0" fill="#d9ead3" stroke="none"/><rect x="163.1" y="125.0" width="80.8" height="5.0" fill="#fbfbf7" stroke="none"/><line x1="163.1" y1="127.0" x2="243.9" y2="127.0" stroke="#222" stroke-width="1.0"/><line x1="163.1" y1="130.0" x2="243.9" y2="130.0" stroke="#222" stroke-width="1.0"/><line x1="163.1" y1="133.0" x2="243.9" y2="133.0" stroke="#222" stroke-width="1.0"/><rect x="130.0" y="262.3" width="5.0" height="37.8" fill="#ead1dc" stroke="none"/><rect x="125.0" y="262.3" width="5.0" height="37.8" fill="#fbfbf7" stroke="none"/><line x1="127.0" y1="300.1" x2="127.0" y2="262.3" stroke="#222" stroke-width="1.0"/><line x1="130.0" y1="300.1" x2="130.0" y2="262.3" stroke="#222" stroke-width="1.0"/><line x1="133.0" y1="300.1" x2="133.0" y2="262.3" stroke="#222" stroke-width="1.0"/><rect x="163.1" y="398.0" width="80.8" height="5.0" fill="#d9ead3" stroke="none"/><rect x="163.1" y="403.0" width="80.8" height="5.0" fill="#fbfbf7" stroke="none"/><line x1="163.1" y1="400.0" x2="243.9" y2="400.0" stroke="#222" stroke-width="1.0"/><line x1="163.1" y1="403.0" x2="243.9" y2="403.0" stroke="#222" stroke-width="1.0"/><line x1="163.1" y1="406.0" x2="243.9" y2="406.0" stroke="#222" stroke-width="1.0"/><rect x="130.0" y="337.9" width="5.0" height="46.2" fill="#d9ead3" stroke="none"/><rect x="125.0" y="337.9" width="5.0" height="46.2" fill="#fbfbf7" stroke="none"/><line x1="127.0" y1="384.1" x2="127.0" y2="337.9" stroke="#222" stroke-width="1.0"/><line x1="130.0" y1="384.1" x2="130.0" y2="337.9" stroke="#222" stroke-width="1.0"/><line x1="133.0" y1="384.1" x2="133.0" y2="337.9" stroke="#222" stroke-width="1.0"/><rect x="292.6" y="398.0" width="38.1" height="5.0" fill="#cfe2f3" stroke="none"/><rect x="292.6" y="403.0" width="38.1" height="5.0" fill="#fbfbf7" stroke="none"/><line x1="292.6" y1="400.0" x2="330.7" y2="400.0" stroke="#222" stroke-width="1.0"/><line x1="292.6" y1="403.0" x2="330.7" y2="403.0" stroke="#222" stroke-width="1.0"/><line x1="292.6" y1="406.0" x2="330.7" y2="406.0" stroke="#222" stroke-width="1.0"/><rect x="398.0" y="310.3" width="5.0" height="65.8" fill="#cfe2f3" stroke="none"/><rect x="403.0" y="310.3" width="5.0" height="65.8" fill="#fbfbf7" stroke="none"/><line x1="400.0" y1="376.1" x2="400.0" y2="310.3" stroke="#222" stroke-width="1.0"/><line x1="403.0" y1="376.1" x2="403.0" y2="310.3" stroke="#222" stroke-width="1.0"/><line x1="406.0" y1="376.1" x2="406.0" y2="310.3" stroke="#222" stroke-width="1.0"/><rect x="398.0" y="214.9" width="5.0" height="48.5" fill="#cfe2f3" stroke="none"/><rect x="403.0" y="214.9" width="5.0" height="48.5" fill="#fbfbf7" stroke="none"/><line x1="400.0" y1="263.4" x2="400.0" y2="214.9" stroke="#222" stroke-width="1.0"/><line x1="403.0" y1="263.4" x2="403.0" y2="214.9" stroke="#222" stroke-width="1.0"/><line x1="406.0" y1="263.4" x2="406.0" y2="214.9" stroke="#222" stroke-width="1.0"/><rect x="398.0" y="143.6" width="5.0" height="37.8" fill="#cfe2f3" stroke="none"/><rect x="403.0" y="143.6" width="5.0" height="37.8" fill="#fbfbf7" stroke="none"/><line x1="400.0" y1="181.4" x2="400.0" y2="143.6" stroke="#222" stroke-width="1.0"/><line x1="403.0" y1="181.4" x2="403.0" y2="143.6" stroke="#222" stroke-width="1.0"/><line x1="406.0" y1="181.4" x2="406.0" y2="143.6" stroke="#222" stroke-width="1.0"/><rect x="346.0" y="130.0" width="40.4" height="5.0" fill="#cfe2f3" stroke="none"/><rect x="346.0" y="125.0" width="40.4" height="5.0" fill="#fbfbf7" stroke="none"/><line x1="346.0" y1="127.0" x2="386.5" y2="127.0" stroke="#222" stroke-width="1.0"/><line x1="346.0" y1="130.0" x2="386.5" y2="130.0" stroke="#222" stroke-width="1.0"/><line x1="346.0" y1="133.0" x2="386.5" y2="133.0" stroke="#222" stroke-width="1.0"/></svg>