<svg xmlns="http://www.w3.org/2000/svg" width="596" height="512" viewBox="0 0 596 512"><rect x="0" y="0" width="596" height="512" fill="white"/><rect x="46.0" y="46.0" width="504.0" height="420.0" fill="#fbfbf7" stroke="#333" stroke-width="1.5"/><line x1="46.0" y1="46.0" x2="46.0" y2="38.0" stroke="#888" stroke-width="1"/><line x1="46.0" y1="466.0" x2="46.0" y2="474.0" stroke="#888" stroke-width="1"/><text x="46.0" y="36.0" text-anchor="middle" font-family="Arial" font-size="9" fill="#666">0</text><text x="46.0" y="482.0" text-anchor="middle" font-family="Arial" font-size="9" fill="#666">0</text><line x1="67.0" y1="46.0" x2="67.0" y2="42.0" stroke="#888" stroke-width="1"/><line x1="67.0" y1="466.0" x2="67.0" y2="470.0" stroke="#888" stroke-width="1"/><line x1="88.0" y1="46.0" x2="88.0" y2="38.0" stroke="#888" stroke-width="1"/><line x1="88.0" y1="466.0" x2="88.0" y2="474.0" stroke="#888" stroke-width="1"/><text x="88.0" y="36.0" text-anchor="middle" font-family="Arial" font-size="9" fill="#666">1</text><text x="88.0" y="482.0" text-anchor="middle" font-family="Arial" font-size="9" fill="#666">1</text><line x1="109.0" y1="46.0" x2="109.0" y2="42.0" stroke="#888" stroke-width="1"/><line x1="109.0" y1="466.0" x2="109.0" y2="470.0" stroke="#888" stroke-width="1"/><line x1="130.0" y1="46.0" x2="130.0" y2="38.0" stroke="#888" stroke-width="1"/><line x1="130.0" y1="466.0" x2="130.0" y2="474.0" stroke="#888" stroke-width="1"/><text x="130.0" y="36.0" text-anchor="middle" font-family="Arial" font-size="9" fill="#666">2</text><text x="130.0" y="482.0" text-anchor="middle" font-family="Arial" font-size="9" fill="#666">2</text><line x1="151.0" y1="46.0" x2="151.0" y2="42.0" stroke="#888" stroke-width="1"/><line x1="151.0" y1="466.0" x2="151.0" y2="470.0" stroke="#888" stroke-width="1"/><line x1="172.0" y1="46.0" x2="172.0" y2="38.0" stroke="#888" stroke-width="1"/><line x1="172.0" y1="466.0" x2="172.0" y2="474.0" stroke="#888" stroke-width="1"/><text x="172.0" y="36.0" text-anchor="middle" font-family="Arial" font-size="9" fill="#666">3</text><text x="172.0" y="482.0" text-anchor="middle" font-family="Arial" font-size="9" fill="#666">3</text><line x1="193.0" y1="46.0" x2="193.0" y2="42.0" stroke="#888" stroke-width="1"/><line x1="193.0" y1="466.0" x2="193.0" y2="470.0" stroke="#888" stroke-width="1"/><line x1="214.0" y1="46.0" x2="214.0" y2="38.0" stroke="#888" stroke-width="1"/><line x1="214.0" y1="466.0" x2="214.0" y2="474.0" stroke="#888" stroke-width="1"/><text x="214.0" y="36.0" text-anchor="middle" font-family="Arial" font-size="9" fill="#666">4</text><text x="214.0" y="482.0" text-anchor="middle" font-family="Arial" font-size="9" fill="#666">4</text><line x1="235.0" y1="46.0" x2="235.0" y2="42.0" stroke="#888" stroke-width="1"/><line x1="235.0" y1="466.0" x2="235.0" y2="470.0" stroke="#888" stroke-width="1"/><line x1="256.0" y1="46.0" x2="256.0" y2="38.0" stroke="#888" stroke-width="1"/><line x1="256.0" y1="466.0" x2="256.0" y2="474.0" stroke="#888" stroke-width="1"/><text x="256.0" y="36.0" text-anchor="middle" font-family="Arial" font-size="9" fill="#666">5</text><text x="256.0" y="482.0" text-anchor="middle" font-family="Arial" font-size="9" fill="#666">5</text><line x1="277.0" y1="46.0" x2="277.0" y2="42.0" stroke="#888" stroke-width="1"/><line x1="277.0" y1="466.0" x2="277.0" y2="470.0" stroke="#888" stroke-width="1"/><line x1="298.0" y1="46.0" x2="298.0" y2="38.0" stroke="#888" stroke-width="1"/><line x1="298.0" y1="466.0" x2="298.0" y2="474.0" stroke="#888" stroke-width="1"/><text x="298.0" y="36.0" text-anchor="middle" font-family="Arial" font-size="9" fill="#666">6</text><text x="298.0" y="482.0" text-anchor="middle" font-family="Arial" font-size="9" fill="#666">6</text><line x1="319.0" y1="46.0" x2="319.0" y2="42.0" stroke="#888" stroke-width="1"/><line x1="319.0" y1="466.0" x2="319.0" y2="470.0" stroke="#888" stroke-width="1"/><line x1="340.0" y1="46.0" x2="340.0" y2="38.0" stroke="#888" stroke-width="1"/><line x1="340.0" y1="466.0" x2="340.0" y2="474.0" stroke="#888" stroke-width="1"/><text x="340.0" y="36.0" text-anchor="middle" font-family="Arial" font-size="9" fill="#666">7</text><text x="340.0" y="482.0" text-anchor="middle" font-family="Arial" font-size="9" fill="#666">7</text><line x1="361.0" y1="46.0" x2="361.0" y2="42.0" stroke="#888" stroke-width="1"/><line x1="361.0" y1="466.0" x2="361.0" y2="470.0" stroke="#888" stroke-width="1"/><line x1="382.0" y1="46.0" x2="382.0" y2="38.0" stroke="#888" stroke-width="1"/><line x1="382.0" y1="466.0" x2="382.0" y2="474.0" stroke="#888" stroke-width="1"/><text x="382.0" y="36.0" text-anchor="middle" font-family="Arial" font-size="9" fill="#666">8</text><text x="382.0" y="482.0" text-anchor="middle" font-family="Arial" font-size="9" fill="#666">8</text><line x1="403.0" y1="46.0" x2="403.0" y2="42.0" stroke="#888" stroke-width="1"/><line x1="403.0" y1="466.0" x2="403.0" y2="470.0" stroke="#888" stroke-width="1"/><line x1="424.0" y1="46.0" x2="424.0" y2="38.0" stroke="#888" stroke-width="1"/><line x1="424.0" y1="466.0" x2="424.0" y2="474.0" stroke="#888" stroke-width="1"/><text x="424.0" y="36.0" text-anchor="middle" font-family="Arial" font-size="9" fill="#666">9</text><text x="424.0" y="482.0" text-anchor="middle" font-family="Arial" font-size="9" fill="#666">9</text><line x1="445.0" y1="46.0" x2="445.0" y2="42.0" stroke="#888" stroke-width="1"/><line x1="445.0" y1="466.0" x2="445.0" y2="470.0" stroke="#888" stroke-width="1"/><line x1="466.0" y1="46.0" x2="466.0" y2="38.0" stroke="#888" stroke-width="1"/><line x1="466.0" y1="466.0" x2="466.0" y2="474.0" stroke="#888" stroke-width="1"/><text x="466.0" y="36.0" text-anchor="middle" font-family="Arial" font-size="9" fill="#666">10</text><text x="466.0" y="482.0" text-anchor="middle" font-family="Arial" font-size="9" fill="#666">10</text><line x1="487.0" y1="46.0" x2="487.0" y2="42.0" stroke="#888" stroke-width="1"/><line x1="487.0" y1="466.0" x2="487.0" y2="470.0" stroke="#888" stroke-width="1"/><line x1="508.0" y1="46.0" x2="508.0" y2="38.0" stroke="#888" stroke-width="1"/><line x1="508.0" y1="466.0" x2="508.0" y2="474.0" stroke="#888" stroke-width="1"/><text x="508.0" y="36.0" text-anchor="middle" font-family="Arial" font-size="9" fill="#666">11</text><text x="508.0" y="482.0" text-anchor="middle" font-family="Arial" font-size="9" fill="#666">11</text><line x1="529.0" y1="46.0" x2="529.0" y2="42.0" stroke="#888" stroke-width="1"/><line x1="529.0" y1="466.0" x2="529.0" y2="470.0" stroke="#888" stroke-width="1"/><line x1="550.0" y1="46.0" x2="550.0" y2="38.0" stroke="#888" stroke-width="1"/><line x1="550.0" y1="466.0" x2="550.0" y2="474.0" stroke="#888" stroke-width="1"/><text x="550.0" y="36.0" text-anchor="middle" font-family="Arial" font-size="9" fill="#666">12</text><text x="550.0" y="482.0" text-anchor="middle" font-family="Arial" font-size="9" fill="#666">12</text><line x1="46.0" y1="466.0" x2="38.0" y2="466.0" stroke="#888" stroke-width="1"/><line x1="550.0" y1="466.0" x2="558.0" y2="466.0" stroke="#888" stroke-width="1"/><text x="36.0" y="469.0" text-anchor="end" font-family="Arial" font-size="9" fill="#666">0</text><text x="560.0" y="469.0" text-anchor="start" font-family="Arial" font-size="9" fill="#666">0</text><line x1="46.0" y1="445.0" x2="42.0" y2="445.0" stroke="#888" stroke-width="1"/><line x1="550.0" y1="445.0" x2="554.0" y2="445.0" stroke="#888" stroke-width="1"/><line x1="46.0" y1="424.0" x2="38.0" y2="424.0" stroke="#888" stroke-width="1"/><line x1="550.0" y1="424.0" x2="558.0" y2="424.0" stroke="#888" stroke-width="1"/><text x="36.0" y="427.0" text-anchor="end" font-family="Arial" font-size="9" fill="#666">1</text><text x="560.0" y="427.0" text-anchor="start" font-family="Arial" font-size="9" fill="#666">1</text><line x1="46.0" y1="403.0" x2="42.0" y2="403.0" stroke="#888" stroke-width="1"/><line x1="550.0" y1="403.0" x2="554.0" y2="403.0" stroke="#888" stroke-width="1"/><line x1="46.0" y1="382.0" x2="38.0" y2="382.0" stroke="#888" stroke-width="1"/><line x1="550.0" y1="382.0" x2="558.0" y2="382.0" stroke="#888" stroke-width="1"/><text x="36.0" y="385.0" text-anchor="end" font-family="Arial" font-size="9" fill="#666">2</text><text x="560.0" y="385.0" text-anchor="start" font-family="Arial" font-size="9" fill="#666">2</text><line x1="46.0" y1="361.0" x2="42.0" y2="361.0" stroke="#888" stroke-width="1"/><line x1="550.0" y1="361.0" x2="554.0" y2="361.0" stroke="#888" stroke-width="1"/><line x1="46.0" y1="340.0" x2="38.0" y2="340.0" stroke="#888" stroke-width="1"/><line x1="550.0" y1="340.0" x2="558.0" y2="340.0" stroke="#888" stroke-width="1"/><text x="36.0" y="343.0" text-anchor="end" font-family="Arial" font-size="9" fill="#666">3</text><text x="560.0" y="343.0" text-anchor="start" font-family="Arial" font-size="9" fill="#666">3</text><line x1="46.0" y1="319.0" x2="42.0" y2="319.0" stroke="#888" stroke-width="1"/><line x1="550.0" y1="319.0" x2="554.0" y2="319.0" stroke="#888" stroke-width="1"/><line x1="46.0" y1="298.0" x2="38.0" y2="298.0" stroke="#888" stroke-width="1"/><line x1="550.0" y1="298.0" x2="558.0" y2="298.0" stroke="#888" stroke-width="1"/><text x="36.0" y="301.0" text-anchor="end" font-family="Arial" font-size="9" fill="#666">4</text><text x="560.0" y="301.0" text-anchor="start" font-family="Arial" font-size="9" fill="#666">4</text><line x1="46.0" y1="277.0" x2="42.0" y2="277.0" stroke="#888" stroke-width="1"/><line x1="550.0" y1="277.0" x2="554.0" y2="277.0" stroke="#888" stroke-width="1"/><line x1="46.0" y1="256.0" x2="38.0" y2="256.0" stroke="#888" stroke-width="1"/><line x1="550.0" y1="256.0" x2="558.0" y2="256.0" stroke="#888" stroke-width="1"/><text x="36.0" y="259.0" text-anchor="end" font-family="Arial" font-size="9" fill="#666">5</text><text x="560.0" y="259.0" text-anchor="start" font-family="Arial" font-size="9" fill="#666">5</text><line x1="46.0" y1="235.0" x2="42.0" y2="235.0" stroke="#888" stroke-width="1"/><line x1="550.0" y1="235.0" x2="554.0" y2="235.0" stroke="#888" stroke-width="1"/><line x1="46.0" y1="214.0" x2="38.0" y2="214.0" stroke="#888" stroke-width="1"/><line x1="550.0" y1="214.0" x2="558.0" y2="214.0" stroke="#888" stroke-width="1"/><text x="36.0" y="217.0" text-anchor="end" font-family="Arial" font-size="9" fill="#666">6</text><text x="560.0" y="217.0" text-anchor="start" font-family="Arial" font-size="9" fill="#666">6</text><line x1="46.0" y1="193.0" x2="42.0" y2="193.0" stroke="#888" stroke-width="1"/><line x1="550.0" y1="193.0" x2="554.0" y2="193.0" stroke="#888" stroke-width="1"/><line x1="46.0" y1="172.0" x2="38.0" y2="172.0" stroke="#888" stroke-width="1"/><line x1="550.0" y1="172.0" x2="558.0" y2="172.0" stroke="#888" stroke-width="1"/><text x="36.0" y="175.0" text-anchor="end" font-family="Arial" font-size="9" fill="#666">7</text><text x="560.0" y="175.0" text-anchor="start" font-family="Arial" font-size="9" fill="#666">7</text><line x1="46.0" y1="151.0" x2="42.0" y2="151.0" stroke="#888" stroke-width="1"/><line x1="550.0" y1="151.0" x2="554.0" y2="151.0" stroke="#888" stroke-width="1"/><line x1="46.0" y1="130.0" x2="38.0" y2="130.0" stroke="#888" stroke-width="1"/><line x1="550.0" y1="130.0" x2="558.0" y2="130.0" stroke="#888" stroke-width="1"/><text x="36.0" y="133.0" text-anchor="end" font-family="Arial" font-size="9" fill="#666">8</text><text x="560.0" y="133.0" text-anchor="start" font-family="Arial" font-size="9" fill="#666">8</text><line x1="46.0" y1="109.0" x2="42.0" y2="109.0" stroke="#888" stroke-width="1"/><line x1="550.0" y1="109.0" x2="554.0" y2="109.0" stroke="#888" stroke-width="1"/><line x1="46.0" y1="88.0" x2="38.0" y2="88.0" stroke="#888" stroke-width="1"/><line x1="550.0" y1="88.0" x2="558.0" y2="88.0" stroke="#888" stroke-width="1"/><text x="36.0" y="91.0" text-anchor="end" font-family="Arial" font-size="9" fill="#666">9</text><text x="560.0" y="91.0" text-anchor="start" font-family="Arial" font-size="9" fill="#666">9</text><line x1="46.0" y1="67.0" x2="42.0" y2="67.0" stroke="#888" stroke-width="1"/><line x1="550.0" y1="67.0" x2="554.0" y2="67.0" stroke="#888" stroke-width="1"/><line x1="46.0" y1="46.0" x2="38.0" y2="46.0" stroke="#888" stroke-width="1"/><line x1="550.0" y1="46.0" x2="558.0" y2="46.0" stroke="#888" stroke-width="1"/><text x="36.0" y="49.0" text-anchor="end" font-family="Arial" font-size="9" fill="#666">10</text><text x="560.0" y="49.0" text-anchor="start" font-family="Arial" font-size="9" fill="#666">10</text><rect x="130.0" y="130.0" width="336.0" height="252.0" fill="none" stroke="#9aa" stroke-width="1" stroke-dasharray="3 3"/><rect x="131.3" y="383.3" width="104.6" height="60.5" fill="#f2f2f2" stroke="#333" stroke-width="1.5" stroke-dasharray="6 4"/><text x="183.6" y="410.9" text-anchor="middle" font-family="Arial" font-size="12" font-weight="bold" fill="#222">PORCH</text><text x="183.6" y="426.7" text-anchor="middle" font-family="Arial" font-size="10" fill="#555">2.5×1.5 m</text><rect x="130.0" y="130.0" width="151.2" height="151.2" fill="#d9ead3" stroke="#333" stroke-width="1.5"/><text x="205.6" y="202.9" text-anchor="middle" font-family="Arial" font-size="12" font-weight="bold" fill="#222">MASTER BR</text><text x="205.6" y="218.8" text-anchor="middle" font-family="Arial" font-size="10" fill="#555">3.6×3.6 m · 13.0 sqm</text><rect x="346.3" y="130.0" width="119.7" height="157.5" fill="#d9ead3" stroke="#333" stroke-width="1.5"/><text x="406.2" y="200.3" text-anchor="middle" font-family="Arial" font-size="12" font-weight="bold" fill="#222">BEDROOM</text><text x="406.2" y="216.2" text-anchor="middle" font-family="Arial" font-size="10" fill="#555">2.9×3.8 m</text><text x="406.2" y="227.7" text-anchor="middle" font-family="Arial" font-size="10" fill="#555">10.7 sqm</text><rect x="281.2" y="130.0" width="65.1" height="81.9" fill="#ead1dc" stroke="#333" stroke-width="1.5"/><text x="313.8" y="162.6" text-anchor="middle" font-family="Arial" font-size="12" font-weight="bold" fill="#222">T&amp;B</text><text x="313.8" y="178.4" text-anchor="middle" font-family="Arial" font-size="10" fill="#555">1.6×1.9 m</text><text x="313.8" y="189.9" text-anchor="middle" font-family="Arial" font-size="10" fill="#555">3.0 sqm</text><rect x="281.2" y="211.9" width="65.1" height="69.3" fill="#efefef" stroke="#333" stroke-width="1.5"/><text x="313.8" y="238.1" text-anchor="middle" font-family="Arial" font-size="12" font-weight="bold" fill="#222">HALL</text><text x="313.8" y="253.9" text-anchor="middle" font-family="Arial" font-size="10" fill="#555">1.6×1.6 m</text><text x="313.8" y="265.4" text-anchor="middle" font-family="Arial" font-size="10" fill="#555">2.6 sqm</text><rect x="130.0" y="281.2" width="107.1" height="100.8" fill="#cfe2f3" stroke="#333" stroke-width="1.5"/><text x="183.5" y="323.2" text-anchor="middle" font-family="Arial" font-size="12" font-weight="bold" fill="#222">LIVING</text><text x="183.5" y="339.0" text-anchor="middle" font-family="Arial" font-size="10" fill="#555">2.5×2.4 m</text><text x="183.5" y="350.5" text-anchor="middle" font-family="Arial" font-size="10" fill="#555">6.1 sqm</text><rect x="237.1" y="281.2" width="107.1" height="100.8" fill="#cfe2f3" stroke="#333" stroke-width="1.5"/><text x="290.6" y="323.2" text-anchor="middle" font-family="Arial" font-size="12" font-weight="bold" fill="#222">DINING</text><text x="290.6" y="339.0" text-anchor="middle" font-family="Arial" font-size="10" fill="#555">2.5×2.4 m</text><text x="290.6" y="350.5" text-anchor="middle" font-family="Arial" font-size="10" fill="#555">6.1 sqm</text><rect x="344.2" y="287.5" width="121.8" height="94.5" fill="#cfe2f3" stroke="#333" stroke-width="1.5"/><text x="405.1" y="326.4" text-anchor="middle" font-family="Arial" font-size="12" font-weight="bold" fill="#222">KITCHEN</text><text x="405.1" y="342.2" text-anchor="middle" font-family="Arial" font-size="10" fill="#555">2.9×2.2 m</text><text x="405.1" y="353.7" text-anchor="middle" font-family="Arial" font-size="10" fill="#555">6.5 sqm</text><text x="298.0" y="500.0" text-anchor="middle" font-family="Arial" font-size="12" font-weight="bold" fill="#888">FRONT (street)</text><rect x="279.10" y="130.00" width="4.20" height="81.90" fill="#555" stroke="none"/><rect x="279.10" y="211.90" width="4.20" height="69.30" fill="#555" stroke="none"/><rect x="130.00" y="279.10" width="107.10" height="4.20" fill="#555" stroke="none"/><rect x="237.10" y="279.10" width="44.10" height="4.20" fill="#555" stroke="none"/><rect x="344.20" y="130.00" width="4.20" height="81.90" fill="#555" stroke="none"/><rect x="344.20" y="211.90" width="4.20" height="69.30" fill="#555" stroke="none"/><rect x="346.30" y="285.40" width="119.70" height="4.20" fill="#555" stroke="none"/><rect x="281.20" y="209.80" width="65.10" height="4.20" fill="#555" stroke="none"/><rect x="130.00" y="125.80" width="151.20" height="8.40" fill="#555" stroke="none"/><rect x="125.80" y="130.00" width="8.40" height="151.20" fill="#555" stroke="none"/><rect x="346.30" y="125.80" width="119.70" height="8.40" fill="#555" stroke="none"/><rect x="461.80" y="130.00" width="8.40" height="157.50" fill="#555" stroke="none"/><rect x="344.20" y="281.20" width="4.20" height="6.30" fill="#555" stroke="none"/><rect x="281.20" y="125.80" width="65.10" height="8.40" fill="#555" stroke="none"/><rect x="344.20" y="279.10" width="2.10" height="4.20" fill="#555" stroke="none"/><rect x="130.00" y="377.80" width="107.10" height="8.40" fill="#555" stroke="none"/><rect x="125.80" y="281.20" width="8.40" height="100.80" fill="#555" stroke="none"/><rect x="237.10" y="377.80" width="107.10" height="8.40" fill="#555" stroke="none"/><rect x="342.10" y="281.20" width="4.20" height="6.30" fill="#555" stroke="none"/><rect x="344.20" y="285.40" width="2.10" height="4.20" fill="#555" stroke="none"/><rect x="344.20" y="377.80" width="121.80" height="8.40" fill="#555" stroke="none"/><rect x="461.80" y="287.50" width="8.40" height="94.50" fill="#555" stroke="none"/><rect x="279.10" y="209.80" width="4.20" height="4.20" fill="#555" stroke="none"/><rect x="277.00" y="125.80" width="8.40" height="8.40" fill="#555" stroke="none"/><rect x="279.10" y="209.80" width="4.20" height="4.20" fill="#555" stroke="none"/><rect x="125.80" y="277.00" width="8.40" height="8.40" fill="#555" stroke="none"/><rect x="344.20" y="209.80" width="4.20" height="4.20" fill="#555" stroke="none"/><rect x="342.10" y="125.80" width="8.40" height="8.40" fill="#555" stroke="none"/><rect x="344.20" y="209.80" width="4.20" height="4.20" fill="#555" stroke="none"/><rect x="344.20" y="285.40" width="4.20" height="4.20" fill="#555" stroke="none"/><rect x="461.80" y="283.30" width="8.40" height="8.40" fill="#555" stroke="none"/><rect x="279.10" y="209.80" width="4.20" height="4.20" fill="#555" stroke="none"/><rect x="344.20" y="209.80" width="4.20" height="4.20" fill="#555" stroke="none"/><rect x="125.80" y="125.80" width="8.40" height="8.40" fill="#555" stroke="none"/><rect x="277.00" y="125.80" width="8.40" height="8.40" fill="#555" stroke="none"/><rect x="125.80" y="277.00" width="8.40" height="8.40" fill="#555" stroke="none"/><rect x="125.80" y="125.80" width="8.40" height="8.40" fill="#555" stroke="none"/><rect x="342.10" y="125.80" width="8.40" height="8.40" fill="#555" stroke="none"/><rect x="461.80" y="125.80" width="8.40" height="8.40" fill="#555" stroke="none"/><rect x="461.80" y="283.30" width="8.40" height="8.40" fill="#555" stroke="none"/><rect x="461.80" y="125.80" width="8.40" height="8.40" fill="#555" stroke="none"/><rect x="344.20" y="285.40" width="4.20" height="4.20" fill="#555" stroke="none"/><rect x="277.00" y="125.80" width="8.40" height="8.40" fill="#555" stroke="none"/><rect x="342.10" y="125.80" width="8.40" height="8.40" fill="#555" stroke="none"/><rect x="125.80" y="377.80" width="8.40" height="8.40" fill="#555" stroke="none"/><rect x="125.80" y="377.80" width="8.40" height="8.40" fill="#555" stroke="none"/><rect x="125.80" y="277.00" width="8.40" height="8.40" fill="#555" stroke="none"/><rect x="461.80" y="377.80" width="8.40" height="8.40" fill="#555" stroke="none"/><rect x="461.80" y="377.80" width="8.40" height="8.40" fill="#555" stroke="none"/><rect x="461.80" y="283.30" width="8.40" height="8.40" fill="#555" stroke="none"/><rect x="283.3" y="276.2" width="58.8" height="5.0" fill="#efefef" stroke="none"/><rect x="283.3" y="281.2" width="58.8" height="5.0" fill="#cfe2f3" stroke="none"/><rect x="232.1" y="283.3" width="5.0" height="96.6" fill="#cfe2f3" stroke="none"/><rect x="237.1" y="283.3" width="5.0" height="96.6" fill="#cfe2f3" stroke="none"/><rect x="339.2" y="289.6" width="5.0" height="90.3" fill="#cfe2f3" stroke="none"/><rect x="344.2" y="289.6" width="5.0" height="90.3" fill="#cfe2f3" stroke="none"/><rect x="276.2" y="241.3" width="5.0" height="33.6" fill="#d9ead3" stroke="none"/><rect x="281.2" y="241.3" width="5.0" height="33.6" fill="#efefef" stroke="none"/><line x1="281.2" y1="274.9" x2="247.6" y2="274.9" stroke="#444" stroke-width="1.4"/><path d="M 247.6 274.9 A 33.6 33.6 0 0 1 281.2 241.3" fill="none" stroke="#999" stroke-width="0.7" stroke-dasharray="2 2"/><rect x="346.3" y="247.6" width="5.0" height="33.6" fill="#d9ead3" stroke="none"/><rect x="341.3" y="247.6" width="5.0" height="33.6" fill="#efefef" stroke="none"/><line x1="346.3" y1="281.2" x2="379.9" y2="281.2" stroke="#444" stroke-width="1.4"/><path d="M 379.9 281.2 A 33.6 33.6 0 0 0 346.3 247.6" fill="none" stroke="#999" stroke-width="0.7" stroke-dasharray="2 2"/><rect x="287.5" y="206.9" width="29.4" height="5.0" fill="#ead1dc" stroke="none"/><rect x="287.5" y="211.9" width="29.4" height="5.0" fill="#efefef" stroke="none"/><line x1="287.5" y1="211.9" x2="287.5" y2="182.5" stroke="#444" stroke-width="1.4"/><path d="M 287.5 182.5 A 29.4 29.4 0 0 1 316.9 211.9" fill="none" stroke="#999" stroke-width="0.7" stroke-dasharray="2 2"/><rect x="136.3" y="377.0" width="37.8" height="5.0" fill="#cfe2f3" stroke="none"/><rect x="136.3" y="382.0" width="37.8" height="5.0" fill="#fbfbf7" stroke="none"/><line x1="136.3" y1="382.0" x2="136.3" y2="344.2" stroke="#444" stroke-width="1.4"/><path d="M 136.3 344.2 A 37.8 37.8 0 0 1 174.1 382.0" fill="none" stroke="#999" stroke-width="0.7" stroke-dasharray="2 2"/><rect x="461.0" y="342.1" width="5.0" height="33.6" fill="#cfe2f3" stroke="none"/><rect x="466.0" y="342.1" width="5.0" height="33.6" fill="#fbfbf7" stroke="none"/><line x1="466.0" y1="375.7" x2="432.4" y2="375.7" stroke="#444" stroke-width="1.4"/><path d="M 432.4 375.7 A 33.6 33.6 0 0 1 466.0 342.1" fill="none" stroke="#999" stroke-width="0.7" stroke-dasharray="2 2"/><rect x="130.0" y="164.0" width="5.0" height="83.2" fill="#d9ead3" stroke="none"/><rect x="125.0" y="164.0" width="5.0" height="83.2" fill="#fbfbf7" stroke="none"/><line x1="127.0" y1="247.2" x2="127.0" y2="164.0" stroke="#222" stroke-width="1.0"/><line x1="130.0" y1="247.2" x2="130.0" y2="164.0" stroke="#222" stroke-width="1.0"/><line x1="133.0" y1="247.2" x2="133.0" y2="164.0" stroke="#222" stroke-width="1.0"/><rect x="164.0" y="130.0" width="83.2" height="5.0" fill="#d9ead3" stroke="none"/><rect x="164.0" y="125.0" width="83.2" height="5.0" fill="#fbfbf7" stroke="none"/><line x1="164.0" y1="127.0" x2="247.2" y2="127.0" stroke="#222" stroke-width="1.0"/><line x1="164.0" y1="130.0" x2="247.2" y2="130.0" stroke="#222" stroke-width="1.0"/><line x1="164.0" y1="133.0" x2="247.2" y2="133.0" stroke="#222" stroke-width="1.0"/><rect x="461.0" y="165.4" width="5.0" height="86.6" fill="#d9ead3" stroke="none"/><rect x="466.0" y="165.4" width="5.0" height="86.6" fill="#fbfbf7" stroke="none"/><line x1="463.0" y1="252.1" x2="463.0" y2="165.4" stroke="#222" stroke-width="1.0"/><line x1="466.0" y1="252.1" x2="466.0" y2="165.4" stroke="#222" stroke-width="1.0"/><line x1="469.0" y1="252.1" x2="469.0" y2="165.4" stroke="#222" stroke-width="1.0"/><rect x="373.2" y="130.0" width="65.8" height="5.0" fill="#d9ead3" stroke="none"/><rect x="373.2" y="125.0" width="65.8" height="5.0" fill="#fbfbf7" stroke="none"/><line x1="373.2" y1="127.0" x2="439.0" y2="127.0" stroke="#222" stroke-width="1.0"/><line x1="373.2" y1="130.0" x2="439.0" y2="130.0" stroke="#222" stroke-width="1.0"/><line x1="373.2" y1="133.0" x2="439.0" y2="133.0" stroke="#222" stroke-width="1.0"/><rect x="297.5" y="130.0" width="32.6" height="5.0" fill="#ead1dc" stroke="none"/><rect x="297.5" y="125.0" width="32.6" height="5.0" fill="#fbfbf7" stroke="none"/><line x1="297.5" y1="127.0" x2="330.0" y2="127.0" stroke="#222" stroke-width="1.0"/><line x1="297.5" y1="130.0" x2="330.0" y2="130.0" stroke="#222" stroke-width="1.0"/><line x1="297.5" y1="133.0" x2="330.0" y2="133.0" stroke="#222" stroke-width="1.0"/><rect x="193.0" y="377.0" width="37.8" height="5.0" fill="#cfe2f3" stroke="none"/><rect x="193.0" y="382.0" width="37.8" height="5.0" fill="#fbfbf7" stroke="none"/><line x1="193.0" y1="379.0" x2="230.8" y2="379.0" stroke="#222" stroke-width="1.0"/><line x1="193.0" y1="382.0" x2="230.8" y2="382.0" stroke="#222" stroke-width="1.0"/><line x1="193.0" y1="385.0" x2="230.8" y2="385.0" stroke="#222" stroke-width="1.0"/><rect x="130.0" y="303.9" width="5.0" height="55.4" fill="#cfe2f3" stroke="none"/><rect x="125.0" y="303.9" width="5.0" height="55.4" fill="#fbfbf7" stroke="none"/><line x1="127.0" y1="359.3" x2="127.0" y2="303.9" stroke="#222" stroke-width="1.0"/><line x1="130.0" y1="359.3" x2="130.0" y2="303.9" stroke="#222" stroke-width="1.0"/><line x1="133.0" y1="359.3" x2="133.0" y2="303.9" stroke="#222" stroke-width="1.0"/><rect x="261.2" y="377.0" width="58.9" height="5.0" fill="#cfe2f3" stroke="none"/><rect x="261.2" y="382.0" width="58.9" height="5.0" fill="#fbfbf7" stroke="none"/><line x1="261.2" y1="379.0" x2="320.1" y2="379.0" stroke="#222" stroke-width="1.0"/><line x1="261.2" y1="382.0" x2="320.1" y2="382.0" stroke="#222" stroke-width="1.0"/><line x1="261.2" y1="385.0" x2="320.1" y2="385.0" stroke="#222" stroke-width="1.0"/><rect x="371.6" y="377.0" width="67.0" height="5.0" fill="#cfe2f3" stroke="none"/><rect x="371.6" y="382.0" width="67.0" height="5.0" fill="#fbfbf7" stroke="none"/><line x1="371.6" y1="379.0" x2="438.6" y2="379.0" stroke="#222" stroke-width="1.0"/><line x1="371.6" y1="382.0" x2="438.6" y2="382.0" stroke="#222" stroke-width="1.0"/><line x1="371.6" y1="385.0" x2="438.6" y2="385.0" stroke="#222" stroke-width="1.0"/><rect x="461.0" y="289.6" width="5.0" height="37.8" fill="#cfe2f3" stroke="none"/><rect x="466.0" y="289.6" width="5.0" height="37.8" fill="#fbfbf7" stroke="none"/><line x1="463.0" y1="327.4" x2="463.0" y2="289.6" stroke="#222" stroke-width="1.0"/><line x1="466.0" y1="327.4" x2="466.0" y2="289.6" stroke="#222" stroke-width="1.0"/><line x1="469.0" y1="327.4" x2="469.0" y2="289.6" stroke="#222" stroke-width="1.0"/></svg>