<svg xmlns="http://www.w3.org/2000/svg" width="596" height="512" viewBox="0 0 596 512"><rect x="0" y="0" width="596" height="512" fill="white"/><rect x="46.0" y="46.0" width="504.0" height="420.0" fill="#fbfbf7" stroke="#333" stroke-width="1.5"/><line x1="46.0" y1="46.0" x2="46.0" y2="38.0" stroke="#888" stroke-width="1"/><line x1="46.0" y1="466.0" x2="46.0" y2="474.0" stroke="#888" stroke-width="1"/><text x="46.0" y="36.0" text-anchor="middle" font-family="Arial" font-size="9" fill="#666">0</text><text x="46.0" y="482.0" text-anchor="middle" font-family="Arial" font-size="9" fill="#666">0</text><line x1="67.0" y1="46.0" x2="67.0" y2="42.0" stroke="#888" stroke-width="1"/><line x1="67.0" y1="466.0" x2="67.0" y2="470.0" stroke="#888" stroke-width="1"/><line x1="88.0" y1="46.0" x2="88.0" y2="38.0" stroke="#888" stroke-width="1"/><line x1="88.0" y1="466.0" x2="88.0" y2="474.0" stroke="#888" stroke-width="1"/><text x="88.0" y="36.0" text-anchor="middle" font-family="Arial" font-size="9" fill="#666">1</text><text x="88.0" y="482.0" text-anchor="middle" font-family="Arial" font-size="9" fill="#666">1</text><line x1="109.0" y1="46.0" x2="109.0" y2="42.0" stroke="#888" stroke-width="1"/><line x1="109.0" y1="466.0" x2="109.0" y2="470.0" stroke="#888" stroke-width="1"/><line x1="130.0" y1="46.0" x2="130.0" y2="38.0" stroke="#888" stroke-width="1"/><line x1="130.0" y1="466.0" x2="130.0" y2="474.0" stroke="#888" stroke-width="1"/><text x="130.0" y="36.0" text-anchor="middle" font-family="Arial" font-size="9" fill="#666">2</text><text x="130.0" y="482.0" text-anchor="middle" font-family="Arial" font-size="9" fill="#666">2</text><line x1="151.0" y1="46.0" x2="151.0" y2="42.0" stroke="#888" stroke-width="1"/><line x1="151.0" y1="466.0" x2="151.0" y2="470.0" stroke="#888" stroke-width="1"/><line x1="172.0" y1="46.0" x2="172.0" y2="38.0" stroke="#888" stroke-width="1"/><line x1="172.0" y1="466.0" x2="172.0" y2="474.0" stroke="#888" stroke-width="1"/><text x="172.0" y="36.0" text-anchor="middle" font-family="Arial" font-size="9" fill="#666">3</text><text x="172.0" y="482.0" text-anchor="middle" font-family="Arial" font-size="9" fill="#666">3</text><line x1="193.0" y1="46.0" x2="193.0" y2="42.0" stroke="#888" stroke-width="1"/><line x1="193.0" y1="466.0" x2="193.0" y2="470.0" stroke="#888" stroke-width="1"/><line x1="214.0" y1="46.0" x2="214.0" y2="38.0" stroke="#888" stroke-width="1"/><line x1="214.0" y1="466.0" x2="214.0" y2="474.0" stroke="#888" stroke-width="1"/><text x="214.0" y="36.0" text-anchor="middle" font-family="Arial" font-size="9" fill="#666">4</text><text x="214.0" y="482.0" text-anchor="middle" font-family="Arial" font-size="9" fill="#666">4</text><line x1="235.0" y1="46.0" x2="235.0" y2="42.0" stroke="#888" stroke-width="1"/><line x1="235.0" y1="466.0" x2="235.0" y2="470.0" stroke="#888" stroke-width="1"/><line x1="256.0" y1="46.0" x2="256.0" y2="38.0" stroke="#888" stroke-width="1"/><line x1="256.0" y1="466.0" x2="256.0" y2="474.0" stroke="#888" stroke-width="1"/><text x="256.0" y="36.0" text-anchor="middle" font-family="Arial" font-size="9" fill="#666">5</text><text x="256.0" y="482.0" text-anchor="middle" font-family="Arial" font-size="9" fill="#666">5</text><line x1="277.0" y1="46.0" x2="277.0" y2="42.0" stroke="#888" stroke-width="1"/><line x1="277.0" y1="466.0" x2="277.0" y2="470.0" stroke="#888" stroke-width="1"/><line x1="298.0" y1="46.0" x2="298.0" y2="38.0" stroke="#888" stroke-width="1"/><line x1="298.0" y1="466.0" x2="298.0" y2="474.0" stroke="#888" stroke-width="1"/><text x="298.0" y="36.0" text-anchor="middle" font-family="Arial" font-size="9" fill="#666">6</text><text x="298.0" y="482.0" text-anchor="middle" font-family="Arial" font-size="9" fill="#666">6</text><line x1="319.0" y1="46.0" x2="319.0" y2="42.0" stroke="#888" stroke-width="1"/><line x1="319.0" y1="466.0" x2="319.0" y2="470.0" stroke="#888" stroke-width="1"/><line x1="340.0" y1="46.0" x2="340.0" y2="38.0" stroke="#888" stroke-width="1"/><line x1="340.0" y1="466.0" x2="340.0" y2="474.0" stroke="#888" stroke-width="1"/><text x="340.0" y="36.0" text-anchor="middle" font-family="Arial" font-size="9" fill="#666">7</text><text x="340.0" y="482.0" text-anchor="middle" font-family="Arial" font-size="9" fill="#666">7</text><line x1="361.0" y1="46.0" x2="361.0" y2="42.0" stroke="#888" stroke-width="1"/><line x1="361.0" y1="466.0" x2="361.0" y2="470.0" stroke="#888" stroke-width="1"/><line x1="382.0" y1="46.0" x2="382.0" y2="38.0" stroke="#888" stroke-width="1"/><line x1="382.0" y1="466.0" x2="382.0" y2="474.0" stroke="#888" stroke-width="1"/><text x="382.0" y="36.0" text-anchor="middle" font-family="Arial" font-size="9" fill="#666">8</text><text x="382.0" y="482.0" text-anchor="middle" font-family="Arial" font-size="9" fill="#666">8</text><line x1="403.0" y1="46.0" x2="403.0" y2="42.0" stroke="#888" stroke-width="1"/><line x1="403.0" y1="466.0" x2="403.0" y2="470.0" stroke="#888" stroke-width="1"/><line x1="424.0" y1="46.0" x2="424.0" y2="38.0" stroke="#888" stroke-width="1"/><line x1="424.0" y1="466.0" x2="424.0" y2="474.0" stroke="#888" stroke-width="1"/><text x="424.0" y="36.0" text-anchor="middle" font-family="Arial" font-size="9" fill="#666">9</text><text x="424.0" y="482.0" text-anchor="middle" font-family="Arial" font-size="9" fill="#666">9</text><line x1="445.0" y1="46.0" x2="445.0" y2="42.0" stroke="#888" stroke-width="1"/><line x1="445.0" y1="466.0" x2="445.0" y2="470.0" stroke="#888" stroke-width="1"/><line x1="466.0" y1="46.0" x2="466.0" y2="38.0" stroke="#888" stroke-width="1"/><line x1="466.0" y1="466.0" x2="466.0" y2="474.0" stroke="#888" stroke-width="1"/><text x="466.0" y="36.0" text-anchor="middle" font-family="Arial" font-size="9" fill="#666">10</text><text x="466.0" y="482.0" text-anchor="middle" font-family="Arial" font-size="9" fill="#666">10</text><line x1="487.0" y1="46.0" x2="487.0" y2="42.0" stroke="#888" stroke-width="1"/><line x1="487.0" y1="466.0" x2="487.0" y2="470.0" stroke="#888" stroke-width="1"/><line x1="508.0" y1="46.0" x2="508.0" y2="38.0" stroke="#888" stroke-width="1"/><line x1="508.0" y1="466.0" x2="508.0" y2="474.0" stroke="#888" stroke-width="1"/><text x="508.0" y="36.0" text-anchor="middle" font-family="Arial" font-size="9" fill="#666">11</text><text x="508.0" y="482.0" text-anchor="middle" font-family="Arial" font-size="9" fill="#666">11</text><line x1="529.0" y1="46.0" x2="529.0" y2="42.0" stroke="#888" stroke-width="1"/><line x1="529.0" y1="466.0" x2="529.0" y2="470.0" stroke="#888" stroke-width="1"/><line x1="550.0" y1="46.0" x2="550.0" y2="38.0" stroke="#888" stroke-width="1"/><line x1="550.0" y1="466.0" x2="550.0" y2="474.0" stroke="#888" stroke-width="1"/><text x="550.0" y="36.0" text-anchor="middle" font-family="Arial" font-size="9" fill="#666">12</text><text x="550.0" y="482.0" text-anchor="middle" font-family="Arial" font-size="9" fill="#666">12</text><line x1="46.0" y1="466.0" x2="38.0" y2="466.0" stroke="#888" stroke-width="1"/><line x1="550.0" y1="466.0" x2="558.0" y2="466.0" stroke="#888" stroke-width="1"/><text x="36.0" y="469.0" text-anchor="end" font-family="Arial" font-size="9" fill="#666">0</text><text x="560.0" y="469.0" text-anchor="start" font-family="Arial" font-size="9" fill="#666">0</text><line x1="46.0" y1="445.0" x2="42.0" y2="445.0" stroke="#888" stroke-width="1"/><line x1="550.0" y1="445.0" x2="554.0" y2="445.0" stroke="#888" stroke-width="1"/><line x1="46.0" y1="424.0" x2="38.0" y2="424.0" stroke="#888" stroke-width="1"/><line x1="550.0" y1="424.0" x2="558.0" y2="424.0" stroke="#888" stroke-width="1"/><text x="36.0" y="427.0" text-anchor="end" font-family="Arial" font-size="9" fill="#666">1</text><text x="560.0" y="427.0" text-anchor="start" font-family="Arial" font-size="9" fill="#666">1</text><line x1="46.0" y1="403.0" x2="42.0" y2="403.0" stroke="#888" stroke-width="1"/><line x1="550.0" y1="403.0" x2="554.0" y2="403.0" stroke="#888" stroke-width="1"/><line x1="46.0" y1="382.0" x2="38.0" y2="382.0" stroke="#888" stroke-width="1"/><line x1="550.0" y1="382.0" x2="558.0" y2="382.0" stroke="#888" stroke-width="1"/><text x="36.0" y="385.0" text-anchor="end" font-family="Arial" font-size="9" fill="#666">2</text><text x="560.0" y="385.0" text-anchor="start" font-family="Arial" font-size="9" fill="#666">2</text><line x1="46.0" y1="361.0" x2="42.0" y2="361.0" stroke="#888" stroke-width="1"/><line x1="550.0" y1="361.0" x2="554.0" y2="361.0" stroke="#888" stroke-width="1"/><line x1="46.0" y1="340.0" x2="38.0" y2="340.0" stroke="#888" stroke-width="1"/><line x1="550.0" y1="340.0" x2="558.0" y2="340.0" stroke="#888" stroke-width="1"/><text x="36.0" y="343.0" text-anchor="end" font-family="Arial" font-size="9" fill="#666">3</text><text x="560.0" y="343.0" text-anchor="start" font-family="Arial" font-size="9" fill="#666">3</text><line x1="46.0" y1="319.0" x2="42.0" y2="319.0" stroke="#888" stroke-width="1"/><line x1="550.0" y1="319.0" x2="554.0" y2="319.0" stroke="#888" stroke-width="1"/><line x1="46.0" y1="298.0" x2="38.0" y2="298.0" stroke="#888" stroke-width="1"/><line x1="550.0" y1="298.0" x2="558.0" y2="298.0" stroke="#888" stroke-width="1"/><text x="36.0" y="301.0" text-anchor="end" font-family="Arial" font-size="9" fill="#666">4</text><text x="560.0" y="301.0" text-anchor="start" font-family="Arial" font-size="9" fill="#666">4</text><line x1="46.0" y1="277.0" x2="42.0" y2="277.0" stroke="#888" stroke-width="1"/><line x1="550.0" y1="277.0" x2="554.0" y2="277.0" stroke="#888" stroke-width="1"/><line x1="46.0" y1="256.0" x2="38.0" y2="256.0" stroke="#888" stroke-width="1"/><line x1="550.0" y1="256.0" x2="558.0" y2="256.0" stroke="#888" stroke-width="1"/><text x="36.0" y="259.0" text-anchor="end" font-family="Arial" font-size="9" fill="#666">5</text><text x="560.0" y="259.0" text-anchor="start" font-family="Arial" font-size="9" fill="#666">5</text><line x1="46.0" y1="235.0" x2="42.0" y2="235.0" stroke="#888" stroke-width="1"/><line x1="550.0" y1="235.0" x2="554.0" y2="235.0" stroke="#888" stroke-width="1"/><line x1="46.0" y1="214.0" x2="38.0" y2="214.0" stroke="#888" stroke-width="1"/><line x1="550.0" y1="214.0" x2="558.0" y2="214.0" stroke="#888" stroke-width="1"/><text x="36.0" y="217.0" text-anchor="end" font-family="Arial" font-size="9" fill="#666">6</text><text x="560.0" y="217.0" text-anchor="start" font-family="Arial" font-size="9" fill="#666">6</text><line x1="46.0" y1="193.0" x2="42.0" y2="193.0" stroke="#888" stroke-width="1"/><line x1="550.0" y1="193.0" x2="554.0" y2="193.0" stroke="#888" stroke-width="1"/><line x1="46.0" y1="172.0" x2="38.0" y2="172.0" stroke="#888" stroke-width="1"/><line x1="550.0" y1="172.0" x2="558.0" y2="172.0" stroke="#888" stroke-width="1"/><text x="36.0" y="175.0" text-anchor="end" font-family="Arial" font-size="9" fill="#666">7</text><text x="560.0" y="175.0" text-anchor="start" font-family="Arial" font-size="9" fill="#666">7</text><line x1="46.0" y1="151.0" x2="42.0" y2="151.0" stroke="#888" stroke-width="1"/><line x1="550.0" y1="151.0" x2="554.0" y2="151.0" stroke="#888" stroke-width="1"/><line x1="46.0" y1="130.0" x2="38.0" y2="130.0" stroke="#888" stroke-width="1"/><line x1="550.0" y1="130.0" x2="558.0" y2="130.0" stroke="#888" stroke-width="1"/><text x="36.0" y="133.0" text-anchor="end" font-family="Arial" font-size="9" fill="#666">8</text><text x="560.0" y="133.0" text-anchor="start" font-family="Arial" font-size="9" fill="#666">8</text><line x1="46.0" y1="109.0" x2="42.0" y2="109.0" stroke="#888" stroke-width="1"/><line x1="550.0" y1="109.0" x2="554.0" y2="109.0" stroke="#888" stroke-width="1"/><line x1="46.0" y1="88.0" x2="38.0" y2="88.0" stroke="#888" stroke-width="1"/><line x1="550.0" y1="88.0" x2="558.0" y2="88.0" stroke="#888" stroke-width="1"/><text x="36.0" y="91.0" text-anchor="end" font-family="Arial" font-size="9" fill="#666">9</text><text x="560.0" y="91.0" text-anchor="start" font-family="Arial" font-size="9" fill="#666">9</text><line x1="46.0" y1="67.0" x2="42.0" y2="67.0" stroke="#888" stroke-width="1"/><line x1="550.0" y1="67.0" x2="554.0" y2="67.0" stroke="#888" stroke-width="1"/><line x1="46.0" y1="46.0" x2="38.0" y2="46.0" stroke="#888" stroke-width="1"/><line x1="550.0" y1="46.0" x2="558.0" y2="46.0" stroke="#888" stroke-width="1"/><text x="36.0" y="49.0" text-anchor="end" font-family="Arial" font-size="9" fill="#666">10</text><text x="560.0" y="49.0" text-anchor="start" font-family="Arial" font-size="9" fill="#666">10</text><rect x="130.0" y="130.0" width="336.0" height="252.0" fill="none" stroke="#9aa" stroke-width="1" stroke-dasharray="3 3"/><rect x="341.3" y="383.3" width="123.5" height="60.5" fill="#f2f2f2" stroke="#333" stroke-width="1.5" stroke-dasharray="6 4"/><text x="403.0" y="410.9" text-anchor="middle" font-family="Arial" font-size="12" font-weight="bold" fill="#222">PORCH</text><text x="403.0" y="426.7" text-anchor="middle" font-family="Arial" font-size="10" fill="#555">3.0×1.5 m</text><rect x="130.0" y="264.4" width="210.0" height="117.6" fill="#d9ead3" stroke="#333" stroke-width="1.5"/><text x="235.0" y="320.6" text-anchor="middle" font-family="Arial" font-size="12" font-weight="bold" fill="#222">MASTER BR</text><text x="235.0" y="336.4" text-anchor="middle" font-family="Arial" font-size="10" fill="#555">5.0×2.8 m · 14.0 sqm</text><rect x="130.0" y="130.0" width="119.7" height="134.4" fill="#d9ead3" stroke="#333" stroke-width="1.5"/><text x="189.8" y="188.8" text-anchor="middle" font-family="Arial" font-size="12" font-weight="bold" fill="#222">BEDROOM</text><text x="189.8" y="204.6" text-anchor="middle" font-family="Arial" font-size="10" fill="#555">2.9×3.2 m</text><text x="189.8" y="216.1" text-anchor="middle" font-family="Arial" font-size="10" fill="#555">9.1 sqm</text><rect x="249.7" y="130.0" width="90.3" height="79.8" fill="#ead1dc" stroke="#333" stroke-width="1.5"/><text x="294.9" y="161.5" text-anchor="middle" font-family="Arial" font-size="12" font-weight="bold" fill="#222">T&amp;B</text><text x="294.9" y="177.3" text-anchor="middle" font-family="Arial" font-size="10" fill="#555">2.1×1.9 m</text><text x="294.9" y="188.8" text-anchor="middle" font-family="Arial" font-size="10" fill="#555">4.1 sqm</text><rect x="249.7" y="209.8" width="90.3" height="54.6" fill="#efefef" stroke="#333" stroke-width="1.5"/><text x="294.9" y="228.7" text-anchor="middle" font-family="Arial" font-size="12" font-weight="bold" fill="#222">HALL</text><text x="294.9" y="244.5" text-anchor="middle" font-family="Arial" font-size="10" fill="#555">2.1×1.3 m</text><text x="294.9" y="256.0" text-anchor="middle" font-family="Arial" font-size="10" fill="#555">2.8 sqm</text><rect x="340.0" y="298.0" width="126.0" height="84.0" fill="#cfe2f3" stroke="#333" stroke-width="1.5"/><text x="403.0" y="337.4" text-anchor="middle" font-family="Arial" font-size="12" font-weight="bold" fill="#222">LIVING</text><text x="403.0" y="353.2" text-anchor="middle" font-family="Arial" font-size="10" fill="#555">3.0×2.0 m · 6.0 sqm</text><rect x="340.0" y="214.0" width="126.0" height="84.0" fill="#cfe2f3" stroke="#333" stroke-width="1.5"/><text x="403.0" y="253.3" text-anchor="middle" font-family="Arial" font-size="12" font-weight="bold" fill="#222">DINING</text><text x="403.0" y="269.1" text-anchor="middle" font-family="Arial" font-size="10" fill="#555">3.0×2.0 m · 6.0 sqm</text><rect x="340.0" y="130.0" width="126.0" height="84.0" fill="#cfe2f3" stroke="#333" stroke-width="1.5"/><text x="403.0" y="169.3" text-anchor="middle" font-family="Arial" font-size="12" font-weight="bold" fill="#222">KITCHEN</text><text x="403.0" y="185.2" text-anchor="middle" font-family="Arial" font-size="10" fill="#555">3.0×2.0 m · 6.0 sqm</text><text x="298.0" y="500.0" text-anchor="middle" font-family="Arial" font-size="12" font-weight="bold" fill="#888">FRONT (street)</text><rect x="130.00" y="262.30" width="119.70" height="4.20" fill="#555" stroke="none"/><rect x="249.70" y="262.30" width="90.30" height="4.20" fill="#555" stroke="none"/><rect x="337.90" y="298.00" width="4.20" height="84.00" fill="#555" stroke="none"/><rect x="337.90" y="264.40" width="4.20" height="33.60" fill="#555" stroke="none"/><rect x="247.60" y="130.00" width="4.20" height="79.80" fill="#555" stroke="none"/><rect x="247.60" y="209.80" width="4.20" height="54.60" fill="#555" stroke="none"/><rect x="249.70" y="207.70" width="90.30" height="4.20" fill="#555" stroke="none"/><rect x="337.90" y="130.00" width="4.20" height="79.80" fill="#555" stroke="none"/><rect x="337.90" y="209.80" width="4.20" height="4.20" fill="#555" stroke="none"/><rect x="130.00" y="377.80" width="210.00" height="8.40" fill="#555" stroke="none"/><rect x="125.80" y="264.40" width="8.40" height="117.60" fill="#555" stroke="none"/><rect x="130.00" y="125.80" width="119.70" height="8.40" fill="#555" stroke="none"/><rect x="125.80" y="130.00" width="8.40" height="134.40" fill="#555" stroke="none"/><rect x="249.70" y="125.80" width="90.30" height="8.40" fill="#555" stroke="none"/><rect x="340.00" y="377.80" width="126.00" height="8.40" fill="#555" stroke="none"/><rect x="461.80" y="298.00" width="8.40" height="84.00" fill="#555" stroke="none"/><rect x="461.80" y="214.00" width="8.40" height="84.00" fill="#555" stroke="none"/><rect x="340.00" y="125.80" width="126.00" height="8.40" fill="#555" stroke="none"/><rect x="461.80" y="130.00" width="8.40" height="84.00" fill="#555" stroke="none"/><rect x="125.80" y="260.20" width="8.40" height="8.40" fill="#555" stroke="none"/><rect x="247.60" y="262.30" width="4.20" height="4.20" fill="#555" stroke="none"/><rect x="247.60" y="262.30" width="4.20" height="4.20" fill="#555" stroke="none"/><rect x="335.80" y="377.80" width="8.40" height="8.40" fill="#555" stroke="none"/><rect x="247.60" y="207.70" width="4.20" height="4.20" fill="#555" stroke="none"/><rect x="245.50" y="125.80" width="8.40" height="8.40" fill="#555" stroke="none"/><rect x="247.60" y="262.30" width="4.20" height="4.20" fill="#555" stroke="none"/><rect x="247.60" y="207.70" width="4.20" height="4.20" fill="#555" stroke="none"/><rect x="247.60" y="207.70" width="4.20" height="4.20" fill="#555" stroke="none"/><rect x="337.90" y="207.70" width="4.20" height="4.20" fill="#555" stroke="none"/><rect x="337.90" y="207.70" width="4.20" height="4.20" fill="#555" stroke="none"/><rect x="335.80" y="125.80" width="8.40" height="8.40" fill="#555" stroke="none"/><rect x="125.80" y="377.80" width="8.40" height="8.40" fill="#555" stroke="none"/><rect x="335.80" y="377.80" width="8.40" height="8.40" fill="#555" stroke="none"/><rect x="125.80" y="377.80" width="8.40" height="8.40" fill="#555" stroke="none"/><rect x="125.80" y="260.20" width="8.40" height="8.40" fill="#555" stroke="none"/><rect x="125.80" y="125.80" width="8.40" height="8.40" fill="#555" stroke="none"/><rect x="245.50" y="125.80" width="8.40" height="8.40" fill="#555" stroke="none"/><rect x="125.80" y="260.20" width="8.40" height="8.40" fill="#555" stroke="none"/><rect x="125.80" y="125.80" width="8.40" height="8.40" fill="#555" stroke="none"/><rect x="245.50" y="125.80" width="8.40" height="8.40" fill="#555" stroke="none"/><rect x="335.80" y="125.80" width="8.40" height="8.40" fill="#555" stroke="none"/><rect x="335.80" y="377.80" width="8.40" height="8.40" fill="#555" stroke="none"/><rect x="461.80" y="377.80" width="8.40" height="8.40" fill="#555" stroke="none"/><rect x="461.80" y="377.80" width="8.40" height="8.40" fill="#555" stroke="none"/><rect x="335.80" y="125.80" width="8.40" height="8.40" fill="#555" stroke="none"/><rect x="461.80" y="125.80" width="8.40" height="8.40" fill="#555" stroke="none"/><rect x="461.80" y="125.80" width="8.40" height="8.40" fill="#555" stroke="none"/><rect x="335.0" y="214.0" width="5.0" height="48.3" fill="#efefef" stroke="none"/><rect x="340.0" y="214.0" width="5.0" height="48.3" fill="#cfe2f3" stroke="none"/><rect x="342.1" y="298.0" width="121.8" height="5.0" fill="#cfe2f3" stroke="none"/><rect x="342.1" y="293.0" width="121.8" height="5.0" fill="#cfe2f3" stroke="none"/><rect x="340.0" y="214.0" width="123.9" height="5.0" fill="#cfe2f3" stroke="none"/><rect x="340.0" y="209.0" width="123.9" height="5.0" fill="#cfe2f3" stroke="none"/><rect x="256.0" y="204.8" width="29.4" height="5.0" fill="#ead1dc" stroke="none"/><rect x="256.0" y="209.8" width="29.4" height="5.0" fill="#efefef" stroke="none"/><line x1="256.0" y1="209.8" x2="256.0" y2="180.4" stroke="#444" stroke-width="1.4"/><path d="M 256.0 180.4 A 29.4 29.4 0 0 1 285.4 209.8" fill="none" stroke="#999" stroke-width="0.7" stroke-dasharray="2 2"/><rect x="300.1" y="264.4" width="33.6" height="5.0" fill="#d9ead3" stroke="none"/><rect x="300.1" y="259.4" width="33.6" height="5.0" fill="#efefef" stroke="none"/><line x1="333.7" y1="264.4" x2="333.7" y2="298.0" stroke="#444" stroke-width="1.4"/><path d="M 333.7 298.0 A 33.6 33.6 0 0 1 300.1 264.4" fill="none" stroke="#999" stroke-width="0.7" stroke-dasharray="2 2"/><rect x="244.7" y="224.5" width="5.0" height="33.6" fill="#d9ead3" stroke="none"/><rect x="249.7" y="224.5" width="5.0" height="33.6" fill="#efefef" stroke="none"/><line x1="249.7" y1="258.1" x2="216.1" y2="258.1" stroke="#444" stroke-width="1.4"/><path d="M 216.1 258.1 A 33.6 33.6 0 0 1 249.7 224.5" fill="none" stroke="#999" stroke-width="0.7" stroke-dasharray="2 2"/><rect x="346.3" y="377.0" width="37.8" height="5.0" fill="#cfe2f3" stroke="none"/><rect x="346.3" y="382.0" width="37.8" height="5.0" fill="#fbfbf7" stroke="none"/><line x1="346.3" y1="382.0" x2="346.3" y2="344.2" stroke="#444" stroke-width="1.4"/><path d="M 346.3 344.2 A 37.8 37.8 0 0 1 384.1 382.0" fill="none" stroke="#999" stroke-width="0.7" stroke-dasharray="2 2"/><rect x="346.3" y="130.0" width="33.6" height="5.0" fill="#cfe2f3" stroke="none"/><rect x="346.3" y="125.0" width="33.6" height="5.0" fill="#fbfbf7" stroke="none"/><line x1="346.3" y1="130.0" x2="346.3" y2="163.6" stroke="#444" stroke-width="1.4"/><path d="M 346.3 163.6 A 33.6 33.6 0 0 0 379.9 130.0" fill="none" stroke="#999" stroke-width="0.7" stroke-dasharray="2 2"/><rect x="184.6" y="377.0" width="100.8" height="5.0" fill="#d9ead3" stroke="none"/><rect x="184.6" y="382.0" width="100.8" height="5.0" fill="#fbfbf7" stroke="none"/><line x1="184.6" y1="379.0" x2="285.4" y2="379.0" stroke="#222" stroke-width="1.0"/><line x1="184.6" y1="382.0" x2="285.4" y2="382.0" stroke="#222" stroke-width="1.0"/><line x1="184.6" y1="385.0" x2="285.4" y2="385.0" stroke="#222" stroke-width="1.0"/><rect x="130.0" y="290.9" width="5.0" height="64.7" fill="#d9ead3" stroke="none"/><rect x="125.0" y="290.9" width="5.0" height="64.7" fill="#fbfbf7" stroke="none"/><line x1="127.0" y1="355.5" x2="127.0" y2="290.9" stroke="#222" stroke-width="1.0"/><line x1="130.0" y1="355.5" x2="130.0" y2="290.9" stroke="#222" stroke-width="1.0"/><line x1="133.0" y1="355.5" x2="133.0" y2="290.9" stroke="#222" stroke-width="1.0"/><rect x="130.0" y="160.2" width="5.0" height="73.9" fill="#d9ead3" stroke="none"/><rect x="125.0" y="160.2" width="5.0" height="73.9" fill="#fbfbf7" stroke="none"/><line x1="127.0" y1="234.2" x2="127.0" y2="160.2" stroke="#222" stroke-width="1.0"/><line x1="130.0" y1="234.2" x2="130.0" y2="160.2" stroke="#222" stroke-width="1.0"/><line x1="133.0" y1="234.2" x2="133.0" y2="160.2" stroke="#222" stroke-width="1.0"/><rect x="156.9" y="130.0" width="65.8" height="5.0" fill="#d9ead3" stroke="none"/><rect x="156.9" y="125.0" width="65.8" height="5.0" fill="#fbfbf7" stroke="none"/><line x1="156.9" y1="127.0" x2="222.7" y2="127.0" stroke="#222" stroke-width="1.0"/><line x1="156.9" y1="130.0" x2="222.7" y2="130.0" stroke="#222" stroke-width="1.0"/><line x1="156.9" y1="133.0" x2="222.7" y2="133.0" stroke="#222" stroke-width="1.0"/><rect x="275.9" y="130.0" width="37.8" height="5.0" fill="#ead1dc" stroke="none"/><rect x="275.9" y="125.0" width="37.8" height="5.0" fill="#fbfbf7" stroke="none"/><line x1="275.9" y1="127.0" x2="313.8" y2="127.0" stroke="#222" stroke-width="1.0"/><line x1="275.9" y1="130.0" x2="313.8" y2="130.0" stroke="#222" stroke-width="1.0"/><line x1="275.9" y1="133.0" x2="313.8" y2="133.0" stroke="#222" stroke-width="1.0"/><rect x="412.3" y="377.0" width="38.1" height="5.0" fill="#cfe2f3" stroke="none"/><rect x="412.3" y="382.0" width="38.1" height="5.0" fill="#fbfbf7" stroke="none"/><line x1="412.3" y1="379.0" x2="450.4" y2="379.0" stroke="#222" stroke-width="1.0"/><line x1="412.3" y1="382.0" x2="450.4" y2="382.0" stroke="#222" stroke-width="1.0"/><line x1="412.3" y1="385.0" x2="450.4" y2="385.0" stroke="#222" stroke-width="1.0"/><rect x="461.0" y="316.9" width="5.0" height="46.2" fill="#cfe2f3" stroke="none"/><rect x="466.0" y="316.9" width="5.0" height="46.2" fill="#fbfbf7" stroke="none"/><line x1="463.0" y1="363.1" x2="463.0" y2="316.9" stroke="#222" stroke-width="1.0"/><line x1="466.0" y1="363.1" x2="466.0" y2="316.9" stroke="#222" stroke-width="1.0"/><line x1="469.0" y1="363.1" x2="469.0" y2="316.9" stroke="#222" stroke-width="1.0"/><rect x="461.0" y="232.9" width="5.0" height="46.2" fill="#cfe2f3" stroke="none"/><rect x="466.0" y="232.9" width="5.0" height="46.2" fill="#fbfbf7" stroke="none"/><line x1="463.0" y1="279.1" x2="463.0" y2="232.9" stroke="#222" stroke-width="1.0"/><line x1="466.0" y1="279.1" x2="466.0" y2="232.9" stroke="#222" stroke-width="1.0"/><line x1="469.0" y1="279.1" x2="469.0" y2="232.9" stroke="#222" stroke-width="1.0"/><rect x="461.0" y="148.9" width="5.0" height="46.2" fill="#cfe2f3" stroke="none"/><rect x="466.0" y="148.9" width="5.0" height="46.2" fill="#fbfbf7" stroke="none"/><line x1="463.0" y1="195.1" x2="463.0" y2="148.9" stroke="#222" stroke-width="1.0"/><line x1="466.0" y1="195.1" x2="466.0" y2="148.9" stroke="#222" stroke-width="1.0"/><line x1="469.0" y1="195.1" x2="469.0" y2="148.9" stroke="#222" stroke-width="1.0"/><rect x="409.0" y="130.0" width="40.4" height="5.0" fill="#cfe2f3" stroke="none"/><rect x="409.0" y="125.0" width="40.4" height="5.0" fill="#fbfbf7" stroke="none"/><line x1="409.0" y1="127.0" x2="449.5" y2="127.0" stroke="#222" stroke-width="1.0"/><line x1="409.0" y1="130.0" x2="449.5" y2="130.0" stroke="#222" stroke-width="1.0"/><line x1="409.0" y1="133.0" x2="449.5" y2="133.0" stroke="#222" stroke-width="1.0"/></svg>