<svg xmlns="http://www.w3.org/2000/svg" width="596" height="512" viewBox="0 0 596 512"><rect x="0" y="0" width="596" height="512" fill="white"/><rect x="46.0" y="46.0" width="504.0" height="420.0" fill="#fbfbf7" stroke="#333" stroke-width="1.5"/><line x1="46.0" y1="46.0" x2="46.0" y2="38.0" stroke="#888" stroke-width="1"/><line x1="46.0" y1="466.0" x2="46.0" y2="474.0" stroke="#888" stroke-width="1"/><text x="46.0" y="36.0" text-anchor="middle" font-family="Arial" font-size="9" fill="#666">0</text><text x="46.0" y="482.0" text-anchor="middle" font-family="Arial" font-size="9" fill="#666">0</text><line x1="67.0" y1="46.0" x2="67.0" y2="42.0" stroke="#888" stroke-width="1"/><line x1="67.0" y1="466.0" x2="67.0" y2="470.0" stroke="#888" stroke-width="1"/><line x1="88.0" y1="46.0" x2="88.0" y2="38.0" stroke="#888" stroke-width="1"/><line x1="88.0" y1="466.0" x2="88.0" y2="474.0" stroke="#888" stroke-width="1"/><text x="88.0" y="36.0" text-anchor="middle" font-family="Arial" font-size="9" fill="#666">1</text><text x="88.0" y="482.0" text-anchor="middle" font-family="Arial" font-size="9" fill="#666">1</text><line x1="109.0" y1="46.0" x2="109.0" y2="42.0" stroke="#888" stroke-width="1"/><line x1="109.0" y1="466.0" x2="109.0" y2="470.0" stroke="#888" stroke-width="1"/><line x1="130.0" y1="46.0" x2="130.0" y2="38.0" stroke="#888" stroke-width="1"/><line x1="130.0" y1="466.0" x2="130.0" y2="474.0" stroke="#888" stroke-width="1"/><text x="130.0" y="36.0" text-anchor="middle" font-family="Arial" font-size="9" fill="#666">2</text><text x="130.0" y="482.0" text-anchor="middle" font-family="Arial" font-size="9" fill="#666">2</text><line x1="151.0" y1="46.0" x2="151.0" y2="42.0" stroke="#888" stroke-width="1"/><line x1="151.0" y1="466.0" x2="151.0" y2="470.0" stroke="#888" stroke-width="1"/><line x1="172.0" y1="46.0" x2="172.0" y2="38.0" stroke="#888" stroke-width="1"/><line x1="172.0" y1="466.0" x2="172.0" y2="474.0" stroke="#888" stroke-width="1"/><text x="172.0" y="36.0" text-anchor="middle" font-family="Arial" font-size="9" fill="#666">3</text><text x="172.0" y="482.0" text-anchor="middle" font-family="Arial" font-size="9" fill="#666">3</text><line x1="193.0" y1="46.0" x2="193.0" y2="42.0" stroke="#888" stroke-width="1"/><line x1="193.0" y1="466.0" x2="193.0" y2="470.0" stroke="#888" stroke-width="1"/><line x1="214.0" y1="46.0" x2="214.0" y2="38.0" stroke="#888" stroke-width="1"/><line x1="214.0" y1="466.0" x2="214.0" y2="474.0" stroke="#888" stroke-width="1"/><text x="214.0" y="36.0" text-anchor="middle" font-family="Arial" font-size="9" fill="#666">4</text><text x="214.0" y="482.0" text-anchor="middle" font-family="Arial" font-size="9" fill="#666">4</text><line x1="235.0" y1="46.0" x2="235.0" y2="42.0" stroke="#888" stroke-width="1"/><line x1="235.0" y1="466.0" x2="235.0" y2="470.0" stroke="#888" stroke-width="1"/><line x1="256.0" y1="46.0" x2="256.0" y2="38.0" stroke="#888" stroke-width="1"/><line x1="256.0" y1="466.0" x2="256.0" y2="474.0" stroke="#888" stroke-width="1"/><text x="256.0" y="36.0" text-anchor="middle" font-family="Arial" font-size="9" fill="#666">5</text><text x="256.0" y="482.0" text-anchor="middle" font-family="Arial" font-size="9" fill="#666">5</text><line x1="277.0" y1="46.0" x2="277.0" y2="42.0" stroke="#888" stroke-width="1"/><line x1="277.0" y1="466.0" x2="277.0" y2="470.0" stroke="#888" stroke-width="1"/><line x1="298.0" y1="46.0" x2="298.0" y2="38.0" stroke="#888" stroke-width="1"/><line x1="298.0" y1="466.0" x2="298.0" y2="474.0" stroke="#888" stroke-width="1"/><text x="298.0" y="36.0" text-anchor="middle" font-family="Arial" font-size="9" fill="#666">6</text><text x="298.0" y="482.0" text-anchor="middle" font-family="Arial" font-size="9" fill="#666">6</text><line x1="319.0" y1="46.0" x2="319.0" y2="42.0" stroke="#888" stroke-width="1"/><line x1="319.0" y1="466.0" x2="319.0" y2="470.0" stroke="#888" stroke-width="1"/><line x1="340.0" y1="46.0" x2="340.0" y2="38.0" stroke="#888" stroke-width="1"/><line x1="340.0" y1="466.0" x2="340.0" y2="474.0" stroke="#888" stroke-width="1"/><text x="340.0" y="36.0" text-anchor="middle" font-family="Arial" font-size="9" fill="#666">7</text><text x="340.0" y="482.0" text-anchor="middle" font-family="Arial" font-size="9" fill="#666">7</text><line x1="361.0" y1="46.0" x2="361.0" y2="42.0" stroke="#888" stroke-width="1"/><line x1="361.0" y1="466.0" x2="361.0" y2="470.0" stroke="#888" stroke-width="1"/><line x1="382.0" y1="46.0" x2="382.0" y2="38.0" stroke="#888" stroke-width="1"/><line x1="382.0" y1="466.0" x2="382.0" y2="474.0" stroke="#888" stroke-width="1"/><text x="382.0" y="36.0" text-anchor="middle" font-family="Arial" font-size="9" fill="#666">8</text><text x="382.0" y="482.0" text-anchor="middle" font-family="Arial" font-size="9" fill="#666">8</text><line x1="403.0" y1="46.0" x2="403.0" y2="42.0" stroke="#888" stroke-width="1"/><line x1="403.0" y1="466.0" x2="403.0" y2="470.0" stroke="#888" stroke-width="1"/><line x1="424.0" y1="46.0" x2="424.0" y2="38.0" stroke="#888" stroke-width="1"/><line x1="424.0" y1="466.0" x2="424.0" y2="474.0" stroke="#888" stroke-width="1"/><text x="424.0" y="36.0" text-anchor="middle" font-family="Arial" font-size="9" fill="#666">9</text><text x="424.0" y="482.0" text-anchor="middle" font-family="Arial" font-size="9" fill="#666">9</text><line x1="445.0" y1="46.0" x2="445.0" y2="42.0" stroke="#888" stroke-width="1"/><line x1="445.0" y1="466.0" x2="445.0" y2="470.0" stroke="#888" stroke-width="1"/><line x1="466.0" y1="46.0" x2="466.0" y2="38.0" stroke="#888" stroke-width="1"/><line x1="466.0" y1="466.0" x2="466.0" y2="474.0" stroke="#888" stroke-width="1"/><text x="466.0" y="36.0" text-anchor="middle" font-family="Arial" font-size="9" fill="#666">10</text><text x="466.0" y="482.0" text-anchor="middle" font-family="Arial" font-size="9" fill="#666">10</text><line x1="487.0" y1="46.0" x2="487.0" y2="42.0" stroke="#888" stroke-width="1"/><line x1="487.0" y1="466.0" x2="487.0" y2="470.0" stroke="#888" stroke-width="1"/><line x1="508.0" y1="46.0" x2="508.0" y2="38.0" stroke="#888" stroke-width="1"/><line x1="508.0" y1="466.0" x2="508.0" y2="474.0" stroke="#888" stroke-width="1"/><text x="508.0" y="36.0" text-anchor="middle" font-family="Arial" font-size="9" fill="#666">11</text><text x="508.0" y="482.0" text-anchor="middle" font-family="Arial" font-size="9" fill="#666">11</text><line x1="529.0" y1="46.0" x2="529.0" y2="42.0" stroke="#888" stroke-width="1"/><line x1="529.0" y1="466.0" x2="529.0" y2="470.0" stroke="#888" stroke-width="1"/><line x1="550.0" y1="46.0" x2="550.0" y2="38.0" stroke="#888" stroke-width="1"/><line x1="550.0" y1="466.0" x2="550.0" y2="474.0" stroke="#888" stroke-width="1"/><text x="550.0" y="36.0" text-anchor="middle" font-family="Arial" font-size="9" fill="#666">12</text><text x="550.0" y="482.0" text-anchor="middle" font-family="Arial" font-size="9" fill="#666">12</text><line x1="46.0" y1="466.0" x2="38.0" y2="466.0" stroke="#888" stroke-width="1"/><line x1="550.0" y1="466.0" x2="558.0" y2="466.0" stroke="#888" stroke-width="1"/><text x="36.0" y="469.0" text-anchor="end" font-family="Arial" font-size="9" fill="#666">0</text><text x="560.0" y="469.0" text-anchor="start" font-family="Arial" font-size="9" fill="#666">0</text><line x1="46.0" y1="445.0" x2="42.0" y2="445.0" stroke="#888" stroke-width="1"/><line x1="550.0" y1="445.0" x2="554.0" y2="445.0" stroke="#888" stroke-width="1"/><line x1="46.0" y1="424.0" x2="38.0" y2="424.0" stroke="#888" stroke-width="1"/><line x1="550.0" y1="424.0" x2="558.0" y2="424.0" stroke="#888" stroke-width="1"/><text x="36.0" y="427.0" text-anchor="end" font-family="Arial" font-size="9" fill="#666">1</text><text x="560.0" y="427.0" text-anchor="start" font-family="Arial" font-size="9" fill="#666">1</text><line x1="46.0" y1="403.0" x2="42.0" y2="403.0" stroke="#888" stroke-width="1"/><line x1="550.0" y1="403.0" x2="554.0" y2="403.0" stroke="#888" stroke-width="1"/><line x1="46.0" y1="382.0" x2="38.0" y2="382.0" stroke="#888" stroke-width="1"/><line x1="550.0" y1="382.0" x2="558.0" y2="382.0" stroke="#888" stroke-width="1"/><text x="36.0" y="385.0" text-anchor="end" font-family="Arial" font-size="9" fill="#666">2</text><text x="560.0" y="385.0" text-anchor="start" font-family="Arial" font-size="9" fill="#666">2</text><line x1="46.0" y1="361.0" x2="42.0" y2="361.0" stroke="#888" stroke-width="1"/><line x1="550.0" y1="361.0" x2="554.0" y2="361.0" stroke="#888" stroke-width="1"/><line x1="46.0" y1="340.0" x2="38.0" y2="340.0" stroke="#888" stroke-width="1"/><line x1="550.0" y1="340.0" x2="558.0" y2="340.0" stroke="#888" stroke-width="1"/><text x="36.0" y="343.0" text-anchor="end" font-family="Arial" font-size="9" fill="#666">3</text><text x="560.0" y="343.0" text-anchor="start" font-family="Arial" font-size="9" fill="#666">3</text><line x1="46.0" y1="319.0" x2="42.0" y2="319.0" stroke="#888" stroke-width="1"/><line x1="550.0" y1="319.0" x2="554.0" y2="319.0" stroke="#888" stroke-width="1"/><line x1="46.0" y1="298.0" x2="38.0" y2="298.0" stroke="#888" stroke-width="1"/><line x1="550.0" y1="298.0" x2="558.0" y2="298.0" stroke="#888" stroke-width="1"/><text x="36.0" y="301.0" text-anchor="end" font-family="Arial" font-size="9" fill="#666">4</text><text x="560.0" y="301.0" text-anchor="start" font-family="Arial" font-size="9" fill="#666">4</text><line x1="46.0" y1="277.0" x2="42.0" y2="277.0" stroke="#888" stroke-width="1"/><line x1="550.0" y1="277.0" x2="554.0" y2="277.0" stroke="#888" stroke-width="1"/><line x1="46.0" y1="256.0" x2="38.0" y2="256.0" stroke="#888" stroke-width="1"/><line x1="550.0" y1="256.0" x2="558.0" y2="256.0" stroke="#888" stroke-width="1"/><text x="36.0" y="259.0" text-anchor="end" font-family="Arial" font-size="9" fill="#666">5</text><text x="560.0" y="259.0" text-anchor="start" font-family="Arial" font-size="9" fill="#666">5</text><line x1="46.0" y1="235.0" x2="42.0" y2="235.0" stroke="#888" stroke-width="1"/><line x1="550.0" y1="235.0" x2="554.0" y2="235.0" stroke="#888" stroke-width="1"/><line x1="46.0" y1="214.0" x2="38.0" y2="214.0" stroke="#888" stroke-width="1"/><line x1="550.0" y1="214.0" x2="558.0" y2="214.0" stroke="#888" stroke-width="1"/><text x="36.0" y="217.0" text-anchor="end" font-family="Arial" font-size="9" fill="#666">6</text><text x="560.0" y="217.0" text-anchor="start" font-family="Arial" font-size="9" fill="#666">6</text><line x1="46.0" y1="193.0" x2="42.0" y2="193.0" stroke="#888" stroke-width="1"/><line x1="550.0" y1="193.0" x2="554.0" y2="193.0" stroke="#888" stroke-width="1"/><line x1="46.0" y1="172.0" x2="38.0" y2="172.0" stroke="#888" stroke-width="1"/><line x1="550.0" y1="172.0" x2="558.0" y2="172.0" stroke="#888" stroke-width="1"/><text x="36.0" y="175.0" text-anchor="end" font-family="Arial" font-size="9" fill="#666">7</text><text x="560.0" y="175.0" text-anchor="start" font-family="Arial" font-size="9" fill="#666">7</text><line x1="46.0" y1="151.0" x2="42.0" y2="151.0" stroke="#888" stroke-width="1"/><line x1="550.0" y1="151.0" x2="554.0" y2="151.0" stroke="#888" stroke-width="1"/><line x1="46.0" y1="130.0" x2="38.0" y2="130.0" stroke="#888" stroke-width="1"/><line x1="550.0" y1="130.0" x2="558.0" y2="130.0" stroke="#888" stroke-width="1"/><text x="36.0" y="133.0" text-anchor="end" font-family="Arial" font-size="9" fill="#666">8</text><text x="560.0" y="133.0" text-anchor="start" font-family="Arial" font-size="9" fill="#666">8</text><line x1="46.0" y1="109.0" x2="42.0" y2="109.0" stroke="#888" stroke-width="1"/><line x1="550.0" y1="109.0" x2="554.0" y2="109.0" stroke="#888" stroke-width="1"/><line x1="46.0" y1="88.0" x2="38.0" y2="88.0" stroke="#888" stroke-width="1"/><line x1="550.0" y1="88.0" x2="558.0" y2="88.0" stroke="#888" stroke-width="1"/><text x="36.0" y="91.0" text-anchor="end" font-family="Arial" font-size="9" fill="#666">9</text><text x="560.0" y="91.0" text-anchor="start" font-family="Arial" font-size="9" fill="#666">9</text><line x1="46.0" y1="67.0" x2="42.0" y2="67.0" stroke="#888" stroke-width="1"/><line x1="550.0" y1="67.0" x2="554.0" y2="67.0" stroke="#888" stroke-width="1"/><line x1="46.0" y1="46.0" x2="38.0" y2="46.0" stroke="#888" stroke-width="1"/><line x1="550.0" y1="46.0" x2="558.0" y2="46.0" stroke="#888" stroke-width="1"/><text x="36.0" y="49.0" text-anchor="end" font-family="Arial" font-size="9" fill="#666">10</text><text x="560.0" y="49.0" text-anchor="start" font-family="Arial" font-size="9" fill="#666">10</text><rect x="130.0" y="130.0" width="336.0" height="252.0" fill="none" stroke="#9aa" stroke-width="1" stroke-dasharray="3 3"/><rect x="131.3" y="383.3" width="123.5" height="60.5" fill="#f2f2f2" stroke="#333" stroke-width="1.5" stroke-dasharray="6 4"/><text x="193.0" y="410.9" text-anchor="middle" font-family="Arial" font-size="12" font-weight="bold" fill="#222">PORCH</text><text x="193.0" y="426.7" text-anchor="middle" font-family="Arial" font-size="10" fill="#555">3.0×1.5 m</text><rect x="130.0" y="130.0" width="126.0" height="168.0" fill="#d9ead3" stroke="#333" stroke-width="1.5"/><text x="193.0" y="205.6" text-anchor="middle" font-family="Arial" font-size="12" font-weight="bold" fill="#222">MASTER BR</text><text x="193.0" y="221.4" text-anchor="middle" font-family="Arial" font-size="10" fill="#555">3.0×4.0 m</text><text x="193.0" y="232.9" text-anchor="middle" font-family="Arial" font-size="10" fill="#555">12.0 sqm</text><rect x="256.0" y="130.0" width="63.0" height="84.0" fill="#ead1dc" stroke="#333" stroke-width="1.5"/><text x="287.5" y="163.6" text-anchor="middle" font-family="Arial" font-size="12" font-weight="bold" fill="#222">ENSUITE</text><text x="287.5" y="179.4" text-anchor="middle" font-family="Arial" font-size="10" fill="#555">1.5×2.0 m</text><text x="287.5" y="190.9" text-anchor="middle" font-family="Arial" font-size="10" fill="#555">3.0 sqm</text><rect x="352.6" y="256.0" width="113.4" height="126.0" fill="#d9ead3" stroke="#333" stroke-width="1.5"/><text x="409.3" y="310.6" text-anchor="middle" font-family="Arial" font-size="12" font-weight="bold" fill="#222">BEDROOM</text><text x="409.3" y="326.4" text-anchor="middle" font-family="Arial" font-size="10" fill="#555">2.7×3.0 m</text><text x="409.3" y="337.9" text-anchor="middle" font-family="Arial" font-size="10" fill="#555">8.1 sqm</text><rect x="319.0" y="130.0" width="63.0" height="84.0" fill="#ead1dc" stroke="#333" stroke-width="1.5"/><text x="350.5" y="163.6" text-anchor="middle" font-family="Arial" font-size="12" font-weight="bold" fill="#222">T&amp;B</text><text x="350.5" y="179.4" text-anchor="middle" font-family="Arial" font-size="10" fill="#555">1.5×2.0 m</text><text x="350.5" y="190.9" text-anchor="middle" font-family="Arial" font-size="10" fill="#555">3.0 sqm</text><rect x="256.0" y="214.0" width="126.0" height="42.0" fill="#efefef" stroke="#333" stroke-width="1.5"/><text x="319.0" y="232.3" text-anchor="middle" font-family="Arial" font-size="12" font-weight="bold" fill="#222">HALL</text><text x="319.0" y="248.2" text-anchor="middle" font-family="Arial" font-size="10" fill="#555">3.0×1.0 m · 3.0 sqm</text><rect x="130.0" y="298.0" width="126.0" height="84.0" fill="#cfe2f3" stroke="#333" stroke-width="1.5"/><text x="193.0" y="337.4" text-anchor="middle" font-family="Arial" font-size="12" font-weight="bold" fill="#222">LIVING</text><text x="193.0" y="353.2" text-anchor="middle" font-family="Arial" font-size="10" fill="#555">3.0×2.0 m · 6.0 sqm</text><rect x="256.0" y="256.0" width="96.6" height="126.0" fill="#cfe2f3" stroke="#333" stroke-width="1.5"/><text x="304.3" y="310.6" text-anchor="middle" font-family="Arial" font-size="12" font-weight="bold" fill="#222">DINING</text><text x="304.3" y="326.4" text-anchor="middle" font-family="Arial" font-size="10" fill="#555">2.3×3.0 m</text><text x="304.3" y="337.9" text-anchor="middle" font-family="Arial" font-size="10" fill="#555">6.9 sqm</text><rect x="382.0" y="130.0" width="84.0" height="126.0" fill="#cfe2f3" stroke="#333" stroke-width="1.5"/><text x="424.0" y="184.6" text-anchor="middle" font-family="Arial" font-size="12" font-weight="bold" fill="#222">KITCHEN</text><text x="424.0" y="200.4" text-anchor="middle" font-family="Arial" font-size="10" fill="#555">2.0×3.0 m</text><text x="424.0" y="211.9" text-anchor="middle" font-family="Arial" font-size="10" fill="#555">6.0 sqm</text><text x="298.0" y="500.0" text-anchor="middle" font-family="Arial" font-size="12" font-weight="bold" fill="#888">FRONT (street)</text><rect x="253.90" y="130.00" width="4.20" height="84.00" fill="#555" stroke="none"/><rect x="253.90" y="214.00" width="4.20" height="42.00" fill="#555" stroke="none"/><rect x="130.00" y="295.90" width="126.00" height="4.20" fill="#555" stroke="none"/><rect x="253.90" y="256.00" width="4.20" height="42.00" fill="#555" stroke="none"/><rect x="316.90" y="130.00" width="4.20" height="84.00" fill="#555" stroke="none"/><rect x="256.00" y="211.90" width="63.00" height="4.20" fill="#555" stroke="none"/><rect x="352.60" y="253.90" width="29.40" height="4.20" fill="#555" stroke="none"/><rect x="350.50" y="256.00" width="4.20" height="126.00" fill="#555" stroke="none"/><rect x="382.00" y="253.90" width="84.00" height="4.20" fill="#555" stroke="none"/><rect x="319.00" y="211.90" width="63.00" height="4.20" fill="#555" stroke="none"/><rect x="379.90" y="130.00" width="4.20" height="84.00" fill="#555" stroke="none"/><rect x="130.00" y="125.80" width="126.00" height="8.40" fill="#555" stroke="none"/><rect x="125.80" y="130.00" width="8.40" height="168.00" fill="#555" stroke="none"/><rect x="256.00" y="125.80" width="63.00" height="8.40" fill="#555" stroke="none"/><rect x="352.60" y="377.80" width="113.40" height="8.40" fill="#555" stroke="none"/><rect x="461.80" y="256.00" width="8.40" height="126.00" fill="#555" stroke="none"/><rect x="319.00" y="125.80" width="63.00" height="8.40" fill="#555" stroke="none"/><rect x="130.00" y="377.80" width="126.00" height="8.40" fill="#555" stroke="none"/><rect x="125.80" y="298.00" width="8.40" height="84.00" fill="#555" stroke="none"/><rect x="256.00" y="377.80" width="96.60" height="8.40" fill="#555" stroke="none"/><rect x="382.00" y="125.80" width="84.00" height="8.40" fill="#555" stroke="none"/><rect x="461.80" y="130.00" width="8.40" height="126.00" fill="#555" stroke="none"/><rect x="253.90" y="211.90" width="4.20" height="4.20" fill="#555" stroke="none"/><rect x="251.80" y="125.80" width="8.40" height="8.40" fill="#555" stroke="none"/><rect x="253.90" y="211.90" width="4.20" height="4.20" fill="#555" stroke="none"/><rect x="125.80" y="293.80" width="8.40" height="8.40" fill="#555" stroke="none"/><rect x="316.90" y="211.90" width="4.20" height="4.20" fill="#555" stroke="none"/><rect x="314.80" y="125.80" width="8.40" height="8.40" fill="#555" stroke="none"/><rect x="253.90" y="211.90" width="4.20" height="4.20" fill="#555" stroke="none"/><rect x="316.90" y="211.90" width="4.20" height="4.20" fill="#555" stroke="none"/><rect x="348.40" y="377.80" width="8.40" height="8.40" fill="#555" stroke="none"/><rect x="461.80" y="251.80" width="8.40" height="8.40" fill="#555" stroke="none"/><rect x="316.90" y="211.90" width="4.20" height="4.20" fill="#555" stroke="none"/><rect x="377.80" y="125.80" width="8.40" height="8.40" fill="#555" stroke="none"/><rect x="125.80" y="125.80" width="8.40" height="8.40" fill="#555" stroke="none"/><rect x="251.80" y="125.80" width="8.40" height="8.40" fill="#555" stroke="none"/><rect x="125.80" y="293.80" width="8.40" height="8.40" fill="#555" stroke="none"/><rect x="125.80" y="125.80" width="8.40" height="8.40" fill="#555" stroke="none"/><rect x="251.80" y="125.80" width="8.40" height="8.40" fill="#555" stroke="none"/><rect x="314.80" y="125.80" width="8.40" height="8.40" fill="#555" stroke="none"/><rect x="348.40" y="377.80" width="8.40" height="8.40" fill="#555" stroke="none"/><rect x="461.80" y="377.80" width="8.40" height="8.40" fill="#555" stroke="none"/><rect x="461.80" y="377.80" width="8.40" height="8.40" fill="#555" stroke="none"/><rect x="461.80" y="251.80" width="8.40" height="8.40" fill="#555" stroke="none"/><rect x="314.80" y="125.80" width="8.40" height="8.40" fill="#555" stroke="none"/><rect x="377.80" y="125.80" width="8.40" height="8.40" fill="#555" stroke="none"/><rect x="125.80" y="377.80" width="8.40" height="8.40" fill="#555" stroke="none"/><rect x="125.80" y="377.80" width="8.40" height="8.40" fill="#555" stroke="none"/><rect x="125.80" y="293.80" width="8.40" height="8.40" fill="#555" stroke="none"/><rect x="348.40" y="377.80" width="8.40" height="8.40" fill="#555" stroke="none"/><rect x="377.80" y="125.80" width="8.40" height="8.40" fill="#555" stroke="none"/><rect x="461.80" y="125.80" width="8.40" height="8.40" fill="#555" stroke="none"/><rect x="461.80" y="251.80" width="8.40" height="8.40" fill="#555" stroke="none"/><rect x="461.80" y="125.80" width="8.40" height="8.40" fill="#555" stroke="none"/><rect x="258.1" y="251.0" width="92.4" height="5.0" fill="#efefef" stroke="none"/><rect x="258.1" y="256.0" width="92.4" height="5.0" fill="#cfe2f3" stroke="none"/><rect x="382.0" y="216.1" width="5.0" height="37.8" fill="#cfe2f3" stroke="none"/><rect x="377.0" y="216.1" width="5.0" height="37.8" fill="#efefef" stroke="none"/><rect x="251.0" y="300.1" width="5.0" height="79.8" fill="#cfe2f3" stroke="none"/><rect x="256.0" y="300.1" width="5.0" height="79.8" fill="#cfe2f3" stroke="none"/><rect x="251.0" y="184.6" width="5.0" height="29.4" fill="#d9ead3" stroke="none"/><rect x="256.0" y="184.6" width="5.0" height="29.4" fill="#ead1dc" stroke="none"/><line x1="256.0" y1="214.0" x2="285.4" y2="214.0" stroke="#444" stroke-width="1.4"/><path d="M 285.4 214.0 A 29.4 29.4 0 0 0 256.0 184.6" fill="none" stroke="#999" stroke-width="0.7" stroke-dasharray="2 2"/><rect x="216.1" y="293.0" width="33.6" height="5.0" fill="#d9ead3" stroke="none"/><rect x="216.1" y="298.0" width="33.6" height="5.0" fill="#cfe2f3" stroke="none"/><line x1="249.7" y1="298.0" x2="249.7" y2="264.4" stroke="#444" stroke-width="1.4"/><path d="M 249.7 264.4 A 33.6 33.6 0 0 0 216.1 298.0" fill="none" stroke="#999" stroke-width="0.7" stroke-dasharray="2 2"/><rect x="325.3" y="209.0" width="29.4" height="5.0" fill="#ead1dc" stroke="none"/><rect x="325.3" y="214.0" width="29.4" height="5.0" fill="#efefef" stroke="none"/><line x1="325.3" y1="214.0" x2="325.3" y2="184.6" stroke="#444" stroke-width="1.4"/><path d="M 325.3 184.6 A 29.4 29.4 0 0 1 354.7 214.0" fill="none" stroke="#999" stroke-width="0.7" stroke-dasharray="2 2"/><rect x="352.6" y="342.1" width="5.0" height="33.6" fill="#d9ead3" stroke="none"/><rect x="347.6" y="342.1" width="5.0" height="33.6" fill="#cfe2f3" stroke="none"/><line x1="352.6" y1="375.7" x2="386.2" y2="375.7" stroke="#444" stroke-width="1.4"/><path d="M 386.2 375.7 A 33.6 33.6 0 0 0 352.6 342.1" fill="none" stroke="#999" stroke-width="0.7" stroke-dasharray="2 2"/><rect x="136.3" y="377.0" width="37.8" height="5.0" fill="#cfe2f3" stroke="none"/><rect x="136.3" y="382.0" width="37.8" height="5.0" fill="#fbfbf7" stroke="none"/><line x1="136.3" y1="382.0" x2="136.3" y2="344.2" stroke="#444" stroke-width="1.4"/><path d="M 136.3 344.2 A 37.8 37.8 0 0 1 174.1 382.0" fill="none" stroke="#999" stroke-width="0.7" stroke-dasharray="2 2"/><rect x="388.3" y="130.0" width="33.6" height="5.0" fill="#cfe2f3" stroke="none"/><rect x="388.3" y="125.0" width="33.6" height="5.0" fill="#fbfbf7" stroke="none"/><line x1="388.3" y1="130.0" x2="388.3" y2="163.6" stroke="#444" stroke-width="1.4"/><path d="M 388.3 163.6 A 33.6 33.6 0 0 0 421.9 130.0" fill="none" stroke="#999" stroke-width="0.7" stroke-dasharray="2 2"/><rect x="130.0" y="167.8" width="5.0" height="92.4" fill="#d9ead3" stroke="none"/><rect x="125.0" y="167.8" width="5.0" height="92.4" fill="#fbfbf7" stroke="none"/><line x1="127.0" y1="260.2" x2="127.0" y2="167.8" stroke="#222" stroke-width="1.0"/><line x1="130.0" y1="260.2" x2="130.0" y2="167.8" stroke="#222" stroke-width="1.0"/><line x1="133.0" y1="260.2" x2="133.0" y2="167.8" stroke="#222" stroke-width="1.0"/><rect x="158.3" y="130.0" width="69.3" height="5.0" fill="#d9ead3" stroke="none"/><rect x="158.3" y="125.0" width="69.3" height="5.0" fill="#fbfbf7" stroke="none"/><line x1="158.3" y1="127.0" x2="227.6" y2="127.0" stroke="#222" stroke-width="1.0"/><line x1="158.3" y1="130.0" x2="227.6" y2="130.0" stroke="#222" stroke-width="1.0"/><line x1="158.3" y1="133.0" x2="227.6" y2="133.0" stroke="#222" stroke-width="1.0"/><rect x="271.8" y="130.0" width="31.5" height="5.0" fill="#ead1dc" stroke="none"/><rect x="271.8" y="125.0" width="31.5" height="5.0" fill="#fbfbf7" stroke="none"/><line x1="271.8" y1="127.0" x2="303.2" y2="127.0" stroke="#222" stroke-width="1.0"/><line x1="271.8" y1="130.0" x2="303.2" y2="130.0" stroke="#222" stroke-width="1.0"/><line x1="271.8" y1="133.0" x2="303.2" y2="133.0" stroke="#222" stroke-width="1.0"/><rect x="461.0" y="284.4" width="5.0" height="69.3" fill="#d9ead3" stroke="none"/><rect x="466.0" y="284.4" width="5.0" height="69.3" fill="#fbfbf7" stroke="none"/><line x1="463.0" y1="353.7" x2="463.0" y2="284.4" stroke="#222" stroke-width="1.0"/><line x1="466.0" y1="353.7" x2="466.0" y2="284.4" stroke="#222" stroke-width="1.0"/><line x1="469.0" y1="353.7" x2="469.0" y2="284.4" stroke="#222" stroke-width="1.0"/><rect x="378.1" y="377.0" width="62.4" height="5.0" fill="#d9ead3" stroke="none"/><rect x="378.1" y="382.0" width="62.4" height="5.0" fill="#fbfbf7" stroke="none"/><line x1="378.1" y1="379.0" x2="440.5" y2="379.0" stroke="#222" stroke-width="1.0"/><line x1="378.1" y1="382.0" x2="440.5" y2="382.0" stroke="#222" stroke-width="1.0"/><line x1="378.1" y1="385.0" x2="440.5" y2="385.0" stroke="#222" stroke-width="1.0"/><rect x="334.8" y="130.0" width="31.5" height="5.0" fill="#ead1dc" stroke="none"/><rect x="334.8" y="125.0" width="31.5" height="5.0" fill="#fbfbf7" stroke="none"/><line x1="334.8" y1="127.0" x2="366.2" y2="127.0" stroke="#222" stroke-width="1.0"/><line x1="334.8" y1="130.0" x2="366.2" y2="130.0" stroke="#222" stroke-width="1.0"/><line x1="334.8" y1="133.0" x2="366.2" y2="133.0" stroke="#222" stroke-width="1.0"/><rect x="202.3" y="377.0" width="38.1" height="5.0" fill="#cfe2f3" stroke="none"/><rect x="202.3" y="382.0" width="38.1" height="5.0" fill="#fbfbf7" stroke="none"/><line x1="202.3" y1="379.0" x2="240.4" y2="379.0" stroke="#222" stroke-width="1.0"/><line x1="202.3" y1="382.0" x2="240.4" y2="382.0" stroke="#222" stroke-width="1.0"/><line x1="202.3" y1="385.0" x2="240.4" y2="385.0" stroke="#222" stroke-width="1.0"/><rect x="130.0" y="316.9" width="5.0" height="46.2" fill="#cfe2f3" stroke="none"/><rect x="125.0" y="316.9" width="5.0" height="46.2" fill="#fbfbf7" stroke="none"/><line x1="127.0" y1="363.1" x2="127.0" y2="316.9" stroke="#222" stroke-width="1.0"/><line x1="130.0" y1="363.1" x2="130.0" y2="316.9" stroke="#222" stroke-width="1.0"/><line x1="133.0" y1="363.1" x2="133.0" y2="316.9" stroke="#222" stroke-width="1.0"/><rect x="277.7" y="377.0" width="53.1" height="5.0" fill="#cfe2f3" stroke="none"/><rect x="277.7" y="382.0" width="53.1" height="5.0" fill="#fbfbf7" stroke="none"/><line x1="277.7" y1="379.0" x2="330.8" y2="379.0" stroke="#222" stroke-width="1.0"/><line x1="277.7" y1="382.0" x2="330.8" y2="382.0" stroke="#222" stroke-width="1.0"/><line x1="277.7" y1="385.0" x2="330.8" y2="385.0" stroke="#222" stroke-width="1.0"/><rect x="461.0" y="158.4" width="5.0" height="69.3" fill="#cfe2f3" stroke="none"/><rect x="466.0" y="158.4" width="5.0" height="69.3" fill="#fbfbf7" stroke="none"/><line x1="463.0" y1="227.7" x2="463.0" y2="158.4" stroke="#222" stroke-width="1.0"/><line x1="466.0" y1="227.7" x2="466.0" y2="158.4" stroke="#222" stroke-width="1.0"/><line x1="469.0" y1="227.7" x2="469.0" y2="158.4" stroke="#222" stroke-width="1.0"/></svg>