<svg xmlns="http://www.w3.org/2000/svg" width="680" height="512" viewBox="0 0 680 512"><rect x="0" y="0" width="680" height="512" fill="white"/><rect x="46.0" y="46.0" width="588.0" height="420.0" fill="#fbfbf7" stroke="#333" stroke-width="1.5"/><line x1="46.0" y1="46.0" x2="46.0" y2="38.0" stroke="#888" stroke-width="1"/><line x1="46.0" y1="466.0" x2="46.0" y2="474.0" stroke="#888" stroke-width="1"/><text x="46.0" y="36.0" text-anchor="middle" font-family="Arial" font-size="9" fill="#666">0</text><text x="46.0" y="482.0" text-anchor="middle" font-family="Arial" font-size="9" fill="#666">0</text><line x1="67.0" y1="46.0" x2="67.0" y2="42.0" stroke="#888" stroke-width="1"/><line x1="67.0" y1="466.0" x2="67.0" y2="470.0" stroke="#888" stroke-width="1"/><line x1="88.0" y1="46.0" x2="88.0" y2="38.0" stroke="#888" stroke-width="1"/><line x1="88.0" y1="466.0" x2="88.0" y2="474.0" stroke="#888" stroke-width="1"/><text x="88.0" y="36.0" text-anchor="middle" font-family="Arial" font-size="9" fill="#666">1</text><text x="88.0" y="482.0" text-anchor="middle" font-family="Arial" font-size="9" fill="#666">1</text><line x1="109.0" y1="46.0" x2="109.0" y2="42.0" stroke="#888" stroke-width="1"/><line x1="109.0" y1="466.0" x2="109.0" y2="470.0" stroke="#888" stroke-width="1"/><line x1="130.0" y1="46.0" x2="130.0" y2="38.0" stroke="#888" stroke-width="1"/><line x1="130.0" y1="466.0" x2="130.0" y2="474.0" stroke="#888" stroke-width="1"/><text x="130.0" y="36.0" text-anchor="middle" font-family="Arial" font-size="9" fill="#666">2</text><text x="130.0" y="482.0" text-anchor="middle" font-family="Arial" font-size="9" fill="#666">2</text><line x1="151.0" y1="46.0" x2="151.0" y2="42.0" stroke="#888" stroke-width="1"/><line x1="151.0" y1="466.0" x2="151.0" y2="470.0" stroke="#888" stroke-width="1"/><line x1="172.0" y1="46.0" x2="172.0" y2="38.0" stroke="#888" stroke-width="1"/><line x1="172.0" y1="466.0" x2="172.0" y2="474.0" stroke="#888" stroke-width="1"/><text x="172.0" y="36.0" text-anchor="middle" font-family="Arial" font-size="9" fill="#666">3</text><text x="172.0" y="482.0" text-anchor="middle" font-family="Arial" font-size="9" fill="#666">3</text><line x1="193.0" y1="46.0" x2="193.0" y2="42.0" stroke="#888" stroke-width="1"/><line x1="193.0" y1="466.0" x2="193.0" y2="470.0" stroke="#888" stroke-width="1"/><line x1="214.0" y1="46.0" x2="214.0" y2="38.0" stroke="#888" stroke-width="1"/><line x1="214.0" y1="466.0" x2="214.0" y2="474.0" stroke="#888" stroke-width="1"/><text x="214.0" y="36.0" text-anchor="middle" font-family="Arial" font-size="9" fill="#666">4</text><text x="214.0" y="482.0" text-anchor="middle" font-family="Arial" font-size="9" fill="#666">4</text><line x1="235.0" y1="46.0" x2="235.0" y2="42.0" stroke="#888" stroke-width="1"/><line x1="235.0" y1="466.0" x2="235.0" y2="470.0" stroke="#888" stroke-width="1"/><line x1="256.0" y1="46.0" x2="256.0" y2="38.0" stroke="#888" stroke-width="1"/><line x1="256.0" y1="466.0" x2="256.0" y2="474.0" stroke="#888" stroke-width="1"/><text x="256.0" y="36.0" text-anchor="middle" font-family="Arial" font-size="9" fill="#666">5</text><text x="256.0" y="482.0" text-anchor="middle" font-family="Arial" font-size="9" fill="#666">5</text><line x1="277.0" y1="46.0" x2="277.0" y2="42.0" stroke="#888" stroke-width="1"/><line x1="277.0" y1="466.0" x2="277.0" y2="470.0" stroke="#888" stroke-width="1"/><line x1="298.0" y1="46.0" x2="298.0" y2="38.0" stroke="#888" stroke-width="1"/><line x1="298.0" y1="466.0" x2="298.0" y2="474.0" stroke="#888" stroke-width="1"/><text x="298.0" y="36.0" text-anchor="middle" font-family="Arial" font-size="9" fill="#666">6</text><text x="298.0" y="482.0" text-anchor="middle" font-family="Arial" font-size="9" fill="#666">6</text><line x1="319.0" y1="46.0" x2="319.0" y2="42.0" stroke="#888" stroke-width="1"/><line x1="319.0" y1="466.0" x2="319.0" y2="470.0" stroke="#888" stroke-width="1"/><line x1="340.0" y1="46.0" x2="340.0" y2="38.0" stroke="#888" stroke-width="1"/><line x1="340.0" y1="466.0" x2="340.0" y2="474.0" stroke="#888" stroke-width="1"/><text x="340.0" y="36.0" text-anchor="middle" font-family="Arial" font-size="9" fill="#666">7</text><text x="340.0" y="482.0" text-anchor="middle" font-family="Arial" font-size="9" fill="#666">7</text><line x1="361.0" y1="46.0" x2="361.0" y2="42.0" stroke="#888" stroke-width="1"/><line x1="361.0" y1="466.0" x2="361.0" y2="470.0" stroke="#888" stroke-width="1"/><line x1="382.0" y1="46.0" x2="382.0" y2="38.0" stroke="#888" stroke-width="1"/><line x1="382.0" y1="466.0" x2="382.0" y2="474.0" stroke="#888" stroke-width="1"/><text x="382.0" y="36.0" text-anchor="middle" font-family="Arial" font-size="9" fill="#666">8</text><text x="382.0" y="482.0" text-anchor="middle" font-family="Arial" font-size="9" fill="#666">8</text><line x1="403.0" y1="46.0" x2="403.0" y2="42.0" stroke="#888" stroke-width="1"/><line x1="403.0" y1="466.0" x2="403.0" y2="470.0" stroke="#888" stroke-width="1"/><line x1="424.0" y1="46.0" x2="424.0" y2="38.0" stroke="#888" stroke-width="1"/><line x1="424.0" y1="466.0" x2="424.0" y2="474.0" stroke="#888" stroke-width="1"/><text x="424.0" y="36.0" text-anchor="middle" font-family="Arial" font-size="9" fill="#666">9</text><text x="424.0" y="482.0" text-anchor="middle" font-family="Arial" font-size="9" fill="#666">9</text><line x1="445.0" y1="46.0" x2="445.0" y2="42.0" stroke="#888" stroke-width="1"/><line x1="445.0" y1="466.0" x2="445.0" y2="470.0" stroke="#888" stroke-width="1"/><line x1="466.0" y1="46.0" x2="466.0" y2="38.0" stroke="#888" stroke-width="1"/><line x1="466.0" y1="466.0" x2="466.0" y2="474.0" stroke="#888" stroke-width="1"/><text x="466.0" y="36.0" text-anchor="middle" font-family="Arial" font-size="9" fill="#666">10</text><text x="466.0" y="482.0" text-anchor="middle" font-family="Arial" font-size="9" fill="#666">10</text><line x1="487.0" y1="46.0" x2="487.0" y2="42.0" stroke="#888" stroke-width="1"/><line x1="487.0" y1="466.0" x2="487.0" y2="470.0" stroke="#888" stroke-width="1"/><line x1="508.0" y1="46.0" x2="508.0" y2="38.0" stroke="#888" stroke-width="1"/><line x1="508.0" y1="466.0" x2="508.0" y2="474.0" stroke="#888" stroke-width="1"/><text x="508.0" y="36.0" text-anchor="middle" font-family="Arial" font-size="9" fill="#666">11</text><text x="508.0" y="482.0" text-anchor="middle" font-family="Arial" font-size="9" fill="#666">11</text><line x1="529.0" y1="46.0" x2="529.0" y2="42.0" stroke="#888" stroke-width="1"/><line x1="529.0" y1="466.0" x2="529.0" y2="470.0" stroke="#888" stroke-width="1"/><line x1="550.0" y1="46.0" x2="550.0" y2="38.0" stroke="#888" stroke-width="1"/><line x1="550.0" y1="466.0" x2="550.0" y2="474.0" stroke="#888" stroke-width="1"/><text x="550.0" y="36.0" text-anchor="middle" font-family="Arial" font-size="9" fill="#666">12</text><text x="550.0" y="482.0" text-anchor="middle" font-family="Arial" font-size="9" fill="#666">12</text><line x1="571.0" y1="46.0" x2="571.0" y2="42.0" stroke="#888" stroke-width="1"/><line x1="571.0" y1="466.0" x2="571.0" y2="470.0" stroke="#888" stroke-width="1"/><line x1="592.0" y1="46.0" x2="592.0" y2="38.0" stroke="#888" stroke-width="1"/><line x1="592.0" y1="466.0" x2="592.0" y2="474.0" stroke="#888" stroke-width="1"/><text x="592.0" y="36.0" text-anchor="middle" font-family="Arial" font-size="9" fill="#666">13</text><text x="592.0" y="482.0" text-anchor="middle" font-family="Arial" font-size="9" fill="#666">13</text><line x1="613.0" y1="46.0" x2="613.0" y2="42.0" stroke="#888" stroke-width="1"/><line x1="613.0" y1="466.0" x2="613.0" y2="470.0" stroke="#888" stroke-width="1"/><line x1="634.0" y1="46.0" x2="634.0" y2="38.0" stroke="#888" stroke-width="1"/><line x1="634.0" y1="466.0" x2="634.0" y2="474.0" stroke="#888" stroke-width="1"/><text x="634.0" y="36.0" text-anchor="middle" font-family="Arial" font-size="9" fill="#666">14</text><text x="634.0" y="482.0" text-anchor="middle" font-family="Arial" font-size="9" fill="#666">14</text><line x1="46.0" y1="466.0" x2="38.0" y2="466.0" stroke="#888" stroke-width="1"/><line x1="634.0" y1="466.0" x2="642.0" y2="466.0" stroke="#888" stroke-width="1"/><text x="36.0" y="469.0" text-anchor="end" font-family="Arial" font-size="9" fill="#666">0</text><text x="644.0" y="469.0" text-anchor="start" font-family="Arial" font-size="9" fill="#666">0</text><line x1="46.0" y1="445.0" x2="42.0" y2="445.0" stroke="#888" stroke-width="1"/><line x1="634.0" y1="445.0" x2="638.0" y2="445.0" stroke="#888" stroke-width="1"/><line x1="46.0" y1="424.0" x2="38.0" y2="424.0" stroke="#888" stroke-width="1"/><line x1="634.0" y1="424.0" x2="642.0" y2="424.0" stroke="#888" stroke-width="1"/><text x="36.0" y="427.0" text-anchor="end" font-family="Arial" font-size="9" fill="#666">1</text><text x="644.0" y="427.0" text-anchor="start" font-family="Arial" font-size="9" fill="#666">1</text><line x1="46.0" y1="403.0" x2="42.0" y2="403.0" stroke="#888" stroke-width="1"/><line x1="634.0" y1="403.0" x2="638.0" y2="403.0" stroke="#888" stroke-width="1"/><line x1="46.0" y1="382.0" x2="38.0" y2="382.0" stroke="#888" stroke-width="1"/><line x1="634.0" y1="382.0" x2="642.0" y2="382.0" stroke="#888" stroke-width="1"/><text x="36.0" y="385.0" text-anchor="end" font-family="Arial" font-size="9" fill="#666">2</text><text x="644.0" y="385.0" text-anchor="start" font-family="Arial" font-size="9" fill="#666">2</text><line x1="46.0" y1="361.0" x2="42.0" y2="361.0" stroke="#888" stroke-width="1"/><line x1="634.0" y1="361.0" x2="638.0" y2="361.0" stroke="#888" stroke-width="1"/><line x1="46.0" y1="340.0" x2="38.0" y2="340.0" stroke="#888" stroke-width="1"/><line x1="634.0" y1="340.0" x2="642.0" y2="340.0" stroke="#888" stroke-width="1"/><text x="36.0" y="343.0" text-anchor="end" font-family="Arial" font-size="9" fill="#666">3</text><text x="644.0" y="343.0" text-anchor="start" font-family="Arial" font-size="9" fill="#666">3</text><line x1="46.0" y1="319.0" x2="42.0" y2="319.0" stroke="#888" stroke-width="1"/><line x1="634.0" y1="319.0" x2="638.0" y2="319.0" stroke="#888" stroke-width="1"/><line x1="46.0" y1="298.0" x2="38.0" y2="298.0" stroke="#888" stroke-width="1"/><line x1="634.0" y1="298.0" x2="642.0" y2="298.0" stroke="#888" stroke-width="1"/><text x="36.0" y="301.0" text-anchor="end" font-family="Arial" font-size="9" fill="#666">4</text><text x="644.0" y="301.0" text-anchor="start" font-family="Arial" font-size="9" fill="#666">4</text><line x1="46.0" y1="277.0" x2="42.0" y2="277.0" stroke="#888" stroke-width="1"/><line x1="634.0" y1="277.0" x2="638.0" y2="277.0" stroke="#888" stroke-width="1"/><line x1="46.0" y1="256.0" x2="38.0" y2="256.0" stroke="#888" stroke-width="1"/><line x1="634.0" y1="256.0" x2="642.0" y2="256.0" stroke="#888" stroke-width="1"/><text x="36.0" y="259.0" text-anchor="end" font-family="Arial" font-size="9" fill="#666">5</text><text x="644.0" y="259.0" text-anchor="start" font-family="Arial" font-size="9" fill="#666">5</text><line x1="46.0" y1="235.0" x2="42.0" y2="235.0" stroke="#888" stroke-width="1"/><line x1="634.0" y1="235.0" x2="638.0" y2="235.0" stroke="#888" stroke-width="1"/><line x1="46.0" y1="214.0" x2="38.0" y2="214.0" stroke="#888" stroke-width="1"/><line x1="634.0" y1="214.0" x2="642.0" y2="214.0" stroke="#888" stroke-width="1"/><text x="36.0" y="217.0" text-anchor="end" font-family="Arial" font-size="9" fill="#666">6</text><text x="644.0" y="217.0" text-anchor="start" font-family="Arial" font-size="9" fill="#666">6</text><line x1="46.0" y1="193.0" x2="42.0" y2="193.0" stroke="#888" stroke-width="1"/><line x1="634.0" y1="193.0" x2="638.0" y2="193.0" stroke="#888" stroke-width="1"/><line x1="46.0" y1="172.0" x2="38.0" y2="172.0" stroke="#888" stroke-width="1"/><line x1="634.0" y1="172.0" x2="642.0" y2="172.0" stroke="#888" stroke-width="1"/><text x="36.0" y="175.0" text-anchor="end" font-family="Arial" font-size="9" fill="#666">7</text><text x="644.0" y="175.0" text-anchor="start" font-family="Arial" font-size="9" fill="#666">7</text><line x1="46.0" y1="151.0" x2="42.0" y2="151.0" stroke="#888" stroke-width="1"/><line x1="634.0" y1="151.0" x2="638.0" y2="151.0" stroke="#888" stroke-width="1"/><line x1="46.0" y1="130.0" x2="38.0" y2="130.0" stroke="#888" stroke-width="1"/><line x1="634.0" y1="130.0" x2="642.0" y2="130.0" stroke="#888" stroke-width="1"/><text x="36.0" y="133.0" text-anchor="end" font-family="Arial" font-size="9" fill="#666">8</text><text x="644.0" y="133.0" text-anchor="start" font-family="Arial" font-size="9" fill="#666">8</text><line x1="46.0" y1="109.0" x2="42.0" y2="109.0" stroke="#888" stroke-width="1"/><line x1="634.0" y1="109.0" x2="638.0" y2="109.0" stroke="#888" stroke-width="1"/><line x1="46.0" y1="88.0" x2="38.0" y2="88.0" stroke="#888" stroke-width="1"/><line x1="634.0" y1="88.0" x2="642.0" y2="88.0" stroke="#888" stroke-width="1"/><text x="36.0" y="91.0" text-anchor="end" font-family="Arial" font-size="9" fill="#666">9</text><text x="644.0" y="91.0" text-anchor="start" font-family="Arial" font-size="9" fill="#666">9</text><line x1="46.0" y1="67.0" x2="42.0" y2="67.0" stroke="#888" stroke-width="1"/><line x1="634.0" y1="67.0" x2="638.0" y2="67.0" stroke="#888" stroke-width="1"/><line x1="46.0" y1="46.0" x2="38.0" y2="46.0" stroke="#888" stroke-width="1"/><line x1="634.0" y1="46.0" x2="642.0" y2="46.0" stroke="#888" stroke-width="1"/><text x="36.0" y="49.0" text-anchor="end" font-family="Arial" font-size="9" fill="#666">10</text><text x="644.0" y="49.0" text-anchor="start" font-family="Arial" font-size="9" fill="#666">10</text><rect x="130.0" y="130.0" width="420.0" height="252.0" fill="none" stroke="#9aa" stroke-width="1" stroke-dasharray="3 3"/><rect x="131.3" y="383.3" width="253.7" height="60.5" fill="#f2f2f2" stroke="#333" stroke-width="1.5" stroke-dasharray="6 4"/><text x="258.1" y="410.9" text-anchor="middle" font-family="Arial" font-size="12" font-weight="bold" fill="#222">PORCH</text><text x="258.1" y="426.7" text-anchor="middle" font-family="Arial" font-size="10" fill="#555">6.1×1.5 m</text><rect x="130.0" y="130.0" width="210.0" height="126.0" fill="#d9ead3" stroke="#333" stroke-width="1.5"/><text x="235.0" y="190.3" text-anchor="middle" font-family="Arial" font-size="12" font-weight="bold" fill="#222">MASTER BR</text><text x="235.0" y="206.2" text-anchor="middle" font-family="Arial" font-size="10" fill="#555">5.0×3.0 m · 15.0 sqm</text><rect x="340.0" y="130.0" width="63.0" height="84.0" fill="#ead1dc" stroke="#333" stroke-width="1.5"/><text x="371.5" y="163.6" text-anchor="middle" font-family="Arial" font-size="12" font-weight="bold" fill="#222">ENSUITE</text><text x="371.5" y="179.4" text-anchor="middle" font-family="Arial" font-size="10" fill="#555">1.5×2.0 m</text><text x="371.5" y="190.9" text-anchor="middle" font-family="Arial" font-size="10" fill="#555">3.0 sqm</text><rect x="386.2" y="256.0" width="163.8" height="126.0" fill="#d9ead3" stroke="#333" stroke-width="1.5"/><text x="468.1" y="316.4" text-anchor="middle" font-family="Arial" font-size="12" font-weight="bold" fill="#222">BEDROOM</text><text x="468.1" y="332.2" text-anchor="middle" font-family="Arial" font-size="10" fill="#555">3.9×3.0 m · 11.7 sqm</text><rect x="403.0" y="130.0" width="63.0" height="84.0" fill="#ead1dc" stroke="#333" stroke-width="1.5"/><text x="434.5" y="163.6" text-anchor="middle" font-family="Arial" font-size="12" font-weight="bold" fill="#222">T&amp;B</text><text x="434.5" y="179.4" text-anchor="middle" font-family="Arial" font-size="10" fill="#555">1.5×2.0 m</text><text x="434.5" y="190.9" text-anchor="middle" font-family="Arial" font-size="10" fill="#555">3.0 sqm</text><rect x="340.0" y="214.0" width="126.0" height="42.0" fill="#efefef" stroke="#333" stroke-width="1.5"/><text x="403.0" y="232.3" text-anchor="middle" font-family="Arial" font-size="12" font-weight="bold" fill="#222">HALL</text><text x="403.0" y="248.2" text-anchor="middle" font-family="Arial" font-size="10" fill="#555">3.0×1.0 m · 3.0 sqm</text><rect x="130.0" y="256.0" width="256.2" height="126.0" fill="#cfe2f3" stroke="#333" stroke-width="1.5"/><text x="258.1" y="316.4" text-anchor="middle" font-family="Arial" font-size="12" font-weight="bold" fill="#222">GREAT ROOM</text><text x="258.1" y="332.2" text-anchor="middle" font-family="Arial" font-size="10" fill="#555">6.1×3.0 m · 18.3 sqm</text><rect x="466.0" y="130.0" width="84.0" height="126.0" fill="#cfe2f3" stroke="#333" stroke-width="1.5"/><text x="508.0" y="184.6" text-anchor="middle" font-family="Arial" font-size="12" font-weight="bold" fill="#222">KITCHEN</text><text x="508.0" y="200.4" text-anchor="middle" font-family="Arial" font-size="10" fill="#555">2.0×3.0 m</text><text x="508.0" y="211.9" text-anchor="middle" font-family="Arial" font-size="10" fill="#555">6.0 sqm</text><text x="340.0" y="500.0" text-anchor="middle" font-family="Arial" font-size="12" font-weight="bold" fill="#888">FRONT (street)</text><rect x="337.90" y="130.00" width="4.20" height="84.00" fill="#555" stroke="none"/><rect x="337.90" y="214.00" width="4.20" height="42.00" fill="#555" stroke="none"/><rect x="130.00" y="253.90" width="210.00" height="4.20" fill="#555" stroke="none"/><rect x="400.90" y="130.00" width="4.20" height="84.00" fill="#555" stroke="none"/><rect x="340.00" y="211.90" width="63.00" height="4.20" fill="#555" stroke="none"/><rect x="386.20" y="253.90" width="79.80" height="4.20" fill="#555" stroke="none"/><rect x="384.10" y="256.00" width="4.20" height="126.00" fill="#555" stroke="none"/><rect x="466.00" y="253.90" width="84.00" height="4.20" fill="#555" stroke="none"/><rect x="403.00" y="211.90" width="63.00" height="4.20" fill="#555" stroke="none"/><rect x="463.90" y="130.00" width="4.20" height="84.00" fill="#555" stroke="none"/><rect x="130.00" y="125.80" width="210.00" height="8.40" fill="#555" stroke="none"/><rect x="125.80" y="130.00" width="8.40" height="126.00" fill="#555" stroke="none"/><rect x="340.00" y="125.80" width="63.00" height="8.40" fill="#555" stroke="none"/><rect x="386.20" y="377.80" width="163.80" height="8.40" fill="#555" stroke="none"/><rect x="545.80" y="256.00" width="8.40" height="126.00" fill="#555" stroke="none"/><rect x="403.00" y="125.80" width="63.00" height="8.40" fill="#555" stroke="none"/><rect x="130.00" y="377.80" width="256.20" height="8.40" fill="#555" stroke="none"/><rect x="125.80" y="256.00" width="8.40" height="126.00" fill="#555" stroke="none"/><rect x="466.00" y="125.80" width="84.00" height="8.40" fill="#555" stroke="none"/><rect x="545.80" y="130.00" width="8.40" height="126.00" fill="#555" stroke="none"/><rect x="337.90" y="211.90" width="4.20" height="4.20" fill="#555" stroke="none"/><rect x="335.80" y="125.80" width="8.40" height="8.40" fill="#555" stroke="none"/><rect x="337.90" y="211.90" width="4.20" height="4.20" fill="#555" stroke="none"/><rect x="125.80" y="251.80" width="8.40" height="8.40" fill="#555" stroke="none"/><rect x="400.90" y="211.90" width="4.20" height="4.20" fill="#555" stroke="none"/><rect x="398.80" y="125.80" width="8.40" height="8.40" fill="#555" stroke="none"/><rect x="337.90" y="211.90" width="4.20" height="4.20" fill="#555" stroke="none"/><rect x="400.90" y="211.90" width="4.20" height="4.20" fill="#555" stroke="none"/><rect x="382.00" y="377.80" width="8.40" height="8.40" fill="#555" stroke="none"/><rect x="545.80" y="251.80" width="8.40" height="8.40" fill="#555" stroke="none"/><rect x="400.90" y="211.90" width="4.20" height="4.20" fill="#555" stroke="none"/><rect x="461.80" y="125.80" width="8.40" height="8.40" fill="#555" stroke="none"/><rect x="125.80" y="125.80" width="8.40" height="8.40" fill="#555" stroke="none"/><rect x="335.80" y="125.80" width="8.40" height="8.40" fill="#555" stroke="none"/><rect x="125.80" y="251.80" width="8.40" height="8.40" fill="#555" stroke="none"/><rect x="125.80" y="125.80" width="8.40" height="8.40" fill="#555" stroke="none"/><rect x="335.80" y="125.80" width="8.40" height="8.40" fill="#555" stroke="none"/><rect x="398.80" y="125.80" width="8.40" height="8.40" fill="#555" stroke="none"/><rect x="382.00" y="377.80" width="8.40" height="8.40" fill="#555" stroke="none"/><rect x="545.80" y="377.80" width="8.40" height="8.40" fill="#555" stroke="none"/><rect x="545.80" y="377.80" width="8.40" height="8.40" fill="#555" stroke="none"/><rect x="545.80" y="251.80" width="8.40" height="8.40" fill="#555" stroke="none"/><rect x="398.80" y="125.80" width="8.40" height="8.40" fill="#555" stroke="none"/><rect x="461.80" y="125.80" width="8.40" height="8.40" fill="#555" stroke="none"/><rect x="125.80" y="377.80" width="8.40" height="8.40" fill="#555" stroke="none"/><rect x="382.00" y="377.80" width="8.40" height="8.40" fill="#555" stroke="none"/><rect x="125.80" y="377.80" width="8.40" height="8.40" fill="#555" stroke="none"/><rect x="125.80" y="251.80" width="8.40" height="8.40" fill="#555" stroke="none"/><rect x="461.80" y="125.80" width="8.40" height="8.40" fill="#555" stroke="none"/><rect x="545.80" y="125.80" width="8.40" height="8.40" fill="#555" stroke="none"/><rect x="545.80" y="251.80" width="8.40" height="8.40" fill="#555" stroke="none"/><rect x="545.80" y="125.80" width="8.40" height="8.40" fill="#555" stroke="none"/><rect x="342.1" y="251.0" width="42.0" height="5.0" fill="#efefef" stroke="none"/><rect x="342.1" y="256.0" width="42.0" height="5.0" fill="#cfe2f3" stroke="none"/><rect x="466.0" y="216.1" width="5.0" height="37.8" fill="#cfe2f3" stroke="none"/><rect x="461.0" y="216.1" width="5.0" height="37.8" fill="#efefef" stroke="none"/><rect x="335.0" y="184.6" width="5.0" height="29.4" fill="#d9ead3" stroke="none"/><rect x="340.0" y="184.6" width="5.0" height="29.4" fill="#ead1dc" stroke="none"/><line x1="340.0" y1="214.0" x2="369.4" y2="214.0" stroke="#444" stroke-width="1.4"/><path d="M 369.4 214.0 A 29.4 29.4 0 0 0 340.0 184.6" fill="none" stroke="#999" stroke-width="0.7" stroke-dasharray="2 2"/><rect x="335.0" y="216.1" width="5.0" height="33.6" fill="#d9ead3" stroke="none"/><rect x="340.0" y="216.1" width="5.0" height="33.6" fill="#efefef" stroke="none"/><line x1="340.0" y1="249.7" x2="306.4" y2="249.7" stroke="#444" stroke-width="1.4"/><path d="M 306.4 249.7 A 33.6 33.6 0 0 1 340.0 216.1" fill="none" stroke="#999" stroke-width="0.7" stroke-dasharray="2 2"/><rect x="409.3" y="209.0" width="29.4" height="5.0" fill="#ead1dc" stroke="none"/><rect x="409.3" y="214.0" width="29.4" height="5.0" fill="#efefef" stroke="none"/><line x1="409.3" y1="214.0" x2="409.3" y2="184.6" stroke="#444" stroke-width="1.4"/><path d="M 409.3 184.6 A 29.4 29.4 0 0 1 438.7 214.0" fill="none" stroke="#999" stroke-width="0.7" stroke-dasharray="2 2"/><rect x="386.2" y="342.1" width="5.0" height="33.6" fill="#d9ead3" stroke="none"/><rect x="381.2" y="342.1" width="5.0" height="33.6" fill="#cfe2f3" stroke="none"/><line x1="386.2" y1="375.7" x2="419.8" y2="375.7" stroke="#444" stroke-width="1.4"/><path d="M 419.8 375.7 A 33.6 33.6 0 0 0 386.2 342.1" fill="none" stroke="#999" stroke-width="0.7" stroke-dasharray="2 2"/><rect x="136.3" y="377.0" width="37.8" height="5.0" fill="#cfe2f3" stroke="none"/><rect x="136.3" y="382.0" width="37.8" height="5.0" fill="#fbfbf7" stroke="none"/><line x1="136.3" y1="382.0" x2="136.3" y2="344.2" stroke="#444" stroke-width="1.4"/><path d="M 136.3 344.2 A 37.8 37.8 0 0 1 174.1 382.0" fill="none" stroke="#999" stroke-width="0.7" stroke-dasharray="2 2"/><rect x="472.3" y="130.0" width="33.6" height="5.0" fill="#cfe2f3" stroke="none"/><rect x="472.3" y="125.0" width="33.6" height="5.0" fill="#fbfbf7" stroke="none"/><line x1="472.3" y1="130.0" x2="472.3" y2="163.6" stroke="#444" stroke-width="1.4"/><path d="M 472.3 163.6 A 33.6 33.6 0 0 0 505.9 130.0" fill="none" stroke="#999" stroke-width="0.7" stroke-dasharray="2 2"/><rect x="184.6" y="130.0" width="100.8" height="5.0" fill="#d9ead3" stroke="none"/><rect x="184.6" y="125.0" width="100.8" height="5.0" fill="#fbfbf7" stroke="none"/><line x1="184.6" y1="127.0" x2="285.4" y2="127.0" stroke="#222" stroke-width="1.0"/><line x1="184.6" y1="130.0" x2="285.4" y2="130.0" stroke="#222" stroke-width="1.0"/><line x1="184.6" y1="133.0" x2="285.4" y2="133.0" stroke="#222" stroke-width="1.0"/><rect x="130.0" y="158.4" width="5.0" height="69.3" fill="#d9ead3" stroke="none"/><rect x="125.0" y="158.4" width="5.0" height="69.3" fill="#fbfbf7" stroke="none"/><line x1="127.0" y1="227.7" x2="127.0" y2="158.4" stroke="#222" stroke-width="1.0"/><line x1="130.0" y1="227.7" x2="130.0" y2="158.4" stroke="#222" stroke-width="1.0"/><line x1="133.0" y1="227.7" x2="133.0" y2="158.4" stroke="#222" stroke-width="1.0"/><rect x="355.8" y="130.0" width="31.5" height="5.0" fill="#ead1dc" stroke="none"/><rect x="355.8" y="125.0" width="31.5" height="5.0" fill="#fbfbf7" stroke="none"/><line x1="355.8" y1="127.0" x2="387.2" y2="127.0" stroke="#222" stroke-width="1.0"/><line x1="355.8" y1="130.0" x2="387.2" y2="130.0" stroke="#222" stroke-width="1.0"/><line x1="355.8" y1="133.0" x2="387.2" y2="133.0" stroke="#222" stroke-width="1.0"/><rect x="423.0" y="377.0" width="90.1" height="5.0" fill="#d9ead3" stroke="none"/><rect x="423.0" y="382.0" width="90.1" height="5.0" fill="#fbfbf7" stroke="none"/><line x1="423.0" y1="379.0" x2="513.1" y2="379.0" stroke="#222" stroke-width="1.0"/><line x1="423.0" y1="382.0" x2="513.1" y2="382.0" stroke="#222" stroke-width="1.0"/><line x1="423.0" y1="385.0" x2="513.1" y2="385.0" stroke="#222" stroke-width="1.0"/><rect x="545.0" y="284.4" width="5.0" height="69.3" fill="#d9ead3" stroke="none"/><rect x="550.0" y="284.4" width="5.0" height="69.3" fill="#fbfbf7" stroke="none"/><line x1="547.0" y1="353.7" x2="547.0" y2="284.4" stroke="#222" stroke-width="1.0"/><line x1="550.0" y1="353.7" x2="550.0" y2="284.4" stroke="#222" stroke-width="1.0"/><line x1="553.0" y1="353.7" x2="553.0" y2="284.4" stroke="#222" stroke-width="1.0"/><rect x="418.8" y="130.0" width="31.5" height="5.0" fill="#ead1dc" stroke="none"/><rect x="418.8" y="125.0" width="31.5" height="5.0" fill="#fbfbf7" stroke="none"/><line x1="418.8" y1="127.0" x2="450.2" y2="127.0" stroke="#222" stroke-width="1.0"/><line x1="418.8" y1="130.0" x2="450.2" y2="130.0" stroke="#222" stroke-width="1.0"/><line x1="418.8" y1="133.0" x2="450.2" y2="133.0" stroke="#222" stroke-width="1.0"/><rect x="236.1" y="377.0" width="100.8" height="5.0" fill="#cfe2f3" stroke="none"/><rect x="236.1" y="382.0" width="100.8" height="5.0" fill="#fbfbf7" stroke="none"/><line x1="236.1" y1="379.0" x2="336.9" y2="379.0" stroke="#222" stroke-width="1.0"/><line x1="236.1" y1="382.0" x2="336.9" y2="382.0" stroke="#222" stroke-width="1.0"/><line x1="236.1" y1="385.0" x2="336.9" y2="385.0" stroke="#222" stroke-width="1.0"/><rect x="130.0" y="284.4" width="5.0" height="69.3" fill="#cfe2f3" stroke="none"/><rect x="125.0" y="284.4" width="5.0" height="69.3" fill="#fbfbf7" stroke="none"/><line x1="127.0" y1="353.7" x2="127.0" y2="284.4" stroke="#222" stroke-width="1.0"/><line x1="130.0" y1="353.7" x2="130.0" y2="284.4" stroke="#222" stroke-width="1.0"/><line x1="133.0" y1="353.7" x2="133.0" y2="284.4" stroke="#222" stroke-width="1.0"/><rect x="545.0" y="158.4" width="5.0" height="69.3" fill="#cfe2f3" stroke="none"/><rect x="550.0" y="158.4" width="5.0" height="69.3" fill="#fbfbf7" stroke="none"/><line x1="547.0" y1="227.7" x2="547.0" y2="158.4" stroke="#222" stroke-width="1.0"/><line x1="550.0" y1="227.7" x2="550.0" y2="158.4" stroke="#222" stroke-width="1.0"/><line x1="553.0" y1="227.7" x2="553.0" y2="158.4" stroke="#222" stroke-width="1.0"/></svg>