<svg xmlns="http://www.w3.org/2000/svg" width="596" height="596" viewBox="0 0 596 596"><rect x="0" y="0" width="596" height="596" fill="white"/><rect x="46.0" y="46.0" width="504.0" height="504.0" fill="#fbfbf7" stroke="#333" stroke-width="1.5"/><line x1="46.0" y1="46.0" x2="46.0" y2="38.0" stroke="#888" stroke-width="1"/><line x1="46.0" y1="550.0" x2="46.0" y2="558.0" stroke="#888" stroke-width="1"/><text x="46.0" y="36.0" text-anchor="middle" font-family="Arial" font-size="9" fill="#666">0</text><text x="46.0" y="566.0" text-anchor="middle" font-family="Arial" font-size="9" fill="#666">0</text><line x1="67.0" y1="46.0" x2="67.0" y2="42.0" stroke="#888" stroke-width="1"/><line x1="67.0" y1="550.0" x2="67.0" y2="554.0" stroke="#888" stroke-width="1"/><line x1="88.0" y1="46.0" x2="88.0" y2="38.0" stroke="#888" stroke-width="1"/><line x1="88.0" y1="550.0" x2="88.0" y2="558.0" stroke="#888" stroke-width="1"/><text x="88.0" y="36.0" text-anchor="middle" font-family="Arial" font-size="9" fill="#666">1</text><text x="88.0" y="566.0" text-anchor="middle" font-family="Arial" font-size="9" fill="#666">1</text><line x1="109.0" y1="46.0" x2="109.0" y2="42.0" stroke="#888" stroke-width="1"/><line x1="109.0" y1="550.0" x2="109.0" y2="554.0" stroke="#888" stroke-width="1"/><line x1="130.0" y1="46.0" x2="130.0" y2="38.0" stroke="#888" stroke-width="1"/><line x1="130.0" y1="550.0" x2="130.0" y2="558.0" stroke="#888" stroke-width="1"/><text x="130.0" y="36.0" text-anchor="middle" font-family="Arial" font-size="9" fill="#666">2</text><text x="130.0" y="566.0" text-anchor="middle" font-family="Arial" font-size="9" fill="#666">2</text><line x1="151.0" y1="46.0" x2="151.0" y2="42.0" stroke="#888" stroke-width="1"/><line x1="151.0" y1="550.0" x2="151.0" y2="554.0" stroke="#888" stroke-width="1"/><line x1="172.0" y1="46.0" x2="172.0" y2="38.0" stroke="#888" stroke-width="1"/><line x1="172.0" y1="550.0" x2="172.0" y2="558.0" stroke="#888" stroke-width="1"/><text x="172.0" y="36.0" text-anchor="middle" font-family="Arial" font-size="9" fill="#666">3</text><text x="172.0" y="566.0" text-anchor="middle" font-family="Arial" font-size="9" fill="#666">3</text><line x1="193.0" y1="46.0" x2="193.0" y2="42.0" stroke="#888" stroke-width="1"/><line x1="193.0" y1="550.0" x2="193.0" y2="554.0" stroke="#888" stroke-width="1"/><line x1="214.0" y1="46.0" x2="214.0" y2="38.0" stroke="#888" stroke-width="1"/><line x1="214.0" y1="550.0" x2="214.0" y2="558.0" stroke="#888" stroke-width="1"/><text x="214.0" y="36.0" text-anchor="middle" font-family="Arial" font-size="9" fill="#666">4</text><text x="214.0" y="566.0" text-anchor="middle" font-family="Arial" font-size="9" fill="#666">4</text><line x1="235.0" y1="46.0" x2="235.0" y2="42.0" stroke="#888" stroke-width="1"/><line x1="235.0" y1="550.0" x2="235.0" y2="554.0" stroke="#888" stroke-width="1"/><line x1="256.0" y1="46.0" x2="256.0" y2="38.0" stroke="#888" stroke-width="1"/><line x1="256.0" y1="550.0" x2="256.0" y2="558.0" stroke="#888" stroke-width="1"/><text x="256.0" y="36.0" text-anchor="middle" font-family="Arial" font-size="9" fill="#666">5</text><text x="256.0" y="566.0" text-anchor="middle" font-family="Arial" font-size="9" fill="#666">5</text><line x1="277.0" y1="46.0" x2="277.0" y2="42.0" stroke="#888" stroke-width="1"/><line x1="277.0" y1="550.0" x2="277.0" y2="554.0" stroke="#888" stroke-width="1"/><line x1="298.0" y1="46.0" x2="298.0" y2="38.0" stroke="#888" stroke-width="1"/><line x1="298.0" y1="550.0" x2="298.0" y2="558.0" stroke="#888" stroke-width="1"/><text x="298.0" y="36.0" text-anchor="middle" font-family="Arial" font-size="9" fill="#666">6</text><text x="298.0" y="566.0" text-anchor="middle" font-family="Arial" font-size="9" fill="#666">6</text><line x1="319.0" y1="46.0" x2="319.0" y2="42.0" stroke="#888" stroke-width="1"/><line x1="319.0" y1="550.0" x2="319.0" y2="554.0" stroke="#888" stroke-width="1"/><line x1="340.0" y1="46.0" x2="340.0" y2="38.0" stroke="#888" stroke-width="1"/><line x1="340.0" y1="550.0" x2="340.0" y2="558.0" stroke="#888" stroke-width="1"/><text x="340.0" y="36.0" text-anchor="middle" font-family="Arial" font-size="9" fill="#666">7</text><text x="340.0" y="566.0" text-anchor="middle" font-family="Arial" font-size="9" fill="#666">7</text><line x1="361.0" y1="46.0" x2="361.0" y2="42.0" stroke="#888" stroke-width="1"/><line x1="361.0" y1="550.0" x2="361.0" y2="554.0" stroke="#888" stroke-width="1"/><line x1="382.0" y1="46.0" x2="382.0" y2="38.0" stroke="#888" stroke-width="1"/><line x1="382.0" y1="550.0" x2="382.0" y2="558.0" stroke="#888" stroke-width="1"/><text x="382.0" y="36.0" text-anchor="middle" font-family="Arial" font-size="9" fill="#666">8</text><text x="382.0" y="566.0" text-anchor="middle" font-family="Arial" font-size="9" fill="#666">8</text><line x1="403.0" y1="46.0" x2="403.0" y2="42.0" stroke="#888" stroke-width="1"/><line x1="403.0" y1="550.0" x2="403.0" y2="554.0" stroke="#888" stroke-width="1"/><line x1="424.0" y1="46.0" x2="424.0" y2="38.0" stroke="#888" stroke-width="1"/><line x1="424.0" y1="550.0" x2="424.0" y2="558.0" stroke="#888" stroke-width="1"/><text x="424.0" y="36.0" text-anchor="middle" font-family="Arial" font-size="9" fill="#666">9</text><text x="424.0" y="566.0" text-anchor="middle" font-family="Arial" font-size="9" fill="#666">9</text><line x1="445.0" y1="46.0" x2="445.0" y2="42.0" stroke="#888" stroke-width="1"/><line x1="445.0" y1="550.0" x2="445.0" y2="554.0" stroke="#888" stroke-width="1"/><line x1="466.0" y1="46.0" x2="466.0" y2="38.0" stroke="#888" stroke-width="1"/><line x1="466.0" y1="550.0" x2="466.0" y2="558.0" stroke="#888" stroke-width="1"/><text x="466.0" y="36.0" text-anchor="middle" font-family="Arial" font-size="9" fill="#666">10</text><text x="466.0" y="566.0" text-anchor="middle" font-family="Arial" font-size="9" fill="#666">10</text><line x1="487.0" y1="46.0" x2="487.0" y2="42.0" stroke="#888" stroke-width="1"/><line x1="487.0" y1="550.0" x2="487.0" y2="554.0" stroke="#888" stroke-width="1"/><line x1="508.0" y1="46.0" x2="508.0" y2="38.0" stroke="#888" stroke-width="1"/><line x1="508.0" y1="550.0" x2="508.0" y2="558.0" stroke="#888" stroke-width="1"/><text x="508.0" y="36.0" text-anchor="middle" font-family="Arial" font-size="9" fill="#666">11</text><text x="508.0" y="566.0" text-anchor="middle" font-family="Arial" font-size="9" fill="#666">11</text><line x1="529.0" y1="46.0" x2="529.0" y2="42.0" stroke="#888" stroke-width="1"/><line x1="529.0" y1="550.0" x2="529.0" y2="554.0" stroke="#888" stroke-width="1"/><line x1="550.0" y1="46.0" x2="550.0" y2="38.0" stroke="#888" stroke-width="1"/><line x1="550.0" y1="550.0" x2="550.0" y2="558.0" stroke="#888" stroke-width="1"/><text x="550.0" y="36.0" text-anchor="middle" font-family="Arial" font-size="9" fill="#666">12</text><text x="550.0" y="566.0" text-anchor="middle" font-family="Arial" font-size="9" fill="#666">12</text><line x1="46.0" y1="550.0" x2="38.0" y2="550.0" stroke="#888" stroke-width="1"/><line x1="550.0" y1="550.0" x2="558.0" y2="550.0" stroke="#888" stroke-width="1"/><text x="36.0" y="553.0" text-anchor="end" font-family="Arial" font-size="9" fill="#666">0</text><text x="560.0" y="553.0" text-anchor="start" font-family="Arial" font-size="9" fill="#666">0</text><line x1="46.0" y1="529.0" x2="42.0" y2="529.0" stroke="#888" stroke-width="1"/><line x1="550.0" y1="529.0" x2="554.0" y2="529.0" stroke="#888" stroke-width="1"/><line x1="46.0" y1="508.0" x2="38.0" y2="508.0" stroke="#888" stroke-width="1"/><line x1="550.0" y1="508.0" x2="558.0" y2="508.0" stroke="#888" stroke-width="1"/><text x="36.0" y="511.0" text-anchor="end" font-family="Arial" font-size="9" fill="#666">1</text><text x="560.0" y="511.0" text-anchor="start" font-family="Arial" font-size="9" fill="#666">1</text><line x1="46.0" y1="487.0" x2="42.0" y2="487.0" stroke="#888" stroke-width="1"/><line x1="550.0" y1="487.0" x2="554.0" y2="487.0" stroke="#888" stroke-width="1"/><line x1="46.0" y1="466.0" x2="38.0" y2="466.0" stroke="#888" stroke-width="1"/><line x1="550.0" y1="466.0" x2="558.0" y2="466.0" stroke="#888" stroke-width="1"/><text x="36.0" y="469.0" text-anchor="end" font-family="Arial" font-size="9" fill="#666">2</text><text x="560.0" y="469.0" text-anchor="start" font-family="Arial" font-size="9" fill="#666">2</text><line x1="46.0" y1="445.0" x2="42.0" y2="445.0" stroke="#888" stroke-width="1"/><line x1="550.0" y1="445.0" x2="554.0" y2="445.0" stroke="#888" stroke-width="1"/><line x1="46.0" y1="424.0" x2="38.0" y2="424.0" stroke="#888" stroke-width="1"/><line x1="550.0" y1="424.0" x2="558.0" y2="424.0" stroke="#888" stroke-width="1"/><text x="36.0" y="427.0" text-anchor="end" font-family="Arial" font-size="9" fill="#666">3</text><text x="560.0" y="427.0" text-anchor="start" font-family="Arial" font-size="9" fill="#666">3</text><line x1="46.0" y1="403.0" x2="42.0" y2="403.0" stroke="#888" stroke-width="1"/><line x1="550.0" y1="403.0" x2="554.0" y2="403.0" stroke="#888" stroke-width="1"/><line x1="46.0" y1="382.0" x2="38.0" y2="382.0" stroke="#888" stroke-width="1"/><line x1="550.0" y1="382.0" x2="558.0" y2="382.0" stroke="#888" stroke-width="1"/><text x="36.0" y="385.0" text-anchor="end" font-family="Arial" font-size="9" fill="#666">4</text><text x="560.0" y="385.0" text-anchor="start" font-family="Arial" font-size="9" fill="#666">4</text><line x1="46.0" y1="361.0" x2="42.0" y2="361.0" stroke="#888" stroke-width="1"/><line x1="550.0" y1="361.0" x2="554.0" y2="361.0" stroke="#888" stroke-width="1"/><line x1="46.0" y1="340.0" x2="38.0" y2="340.0" stroke="#888" stroke-width="1"/><line x1="550.0" y1="340.0" x2="558.0" y2="340.0" stroke="#888" stroke-width="1"/><text x="36.0" y="343.0" text-anchor="end" font-family="Arial" font-size="9" fill="#666">5</text><text x="560.0" y="343.0" text-anchor="start" font-family="Arial" font-size="9" fill="#666">5</text><line x1="46.0" y1="319.0" x2="42.0" y2="319.0" stroke="#888" stroke-width="1"/><line x1="550.0" y1="319.0" x2="554.0" y2="319.0" stroke="#888" stroke-width="1"/><line x1="46.0" y1="298.0" x2="38.0" y2="298.0" stroke="#888" stroke-width="1"/><line x1="550.0" y1="298.0" x2="558.0" y2="298.0" stroke="#888" stroke-width="1"/><text x="36.0" y="301.0" text-anchor="end" font-family="Arial" font-size="9" fill="#666">6</text><text x="560.0" y="301.0" text-anchor="start" font-family="Arial" font-size="9" fill="#666">6</text><line x1="46.0" y1="277.0" x2="42.0" y2="277.0" stroke="#888" stroke-width="1"/><line x1="550.0" y1="277.0" x2="554.0" y2="277.0" stroke="#888" stroke-width="1"/><line x1="46.0" y1="256.0" x2="38.0" y2="256.0" stroke="#888" stroke-width="1"/><line x1="550.0" y1="256.0" x2="558.0" y2="256.0" stroke="#888" stroke-width="1"/><text x="36.0" y="259.0" text-anchor="end" font-family="Arial" font-size="9" fill="#666">7</text><text x="560.0" y="259.0" text-anchor="start" font-family="Arial" font-size="9" fill="#666">7</text><line x1="46.0" y1="235.0" x2="42.0" y2="235.0" stroke="#888" stroke-width="1"/><line x1="550.0" y1="235.0" x2="554.0" y2="235.0" stroke="#888" stroke-width="1"/><line x1="46.0" y1="214.0" x2="38.0" y2="214.0" stroke="#888" stroke-width="1"/><line x1="550.0" y1="214.0" x2="558.0" y2="214.0" stroke="#888" stroke-width="1"/><text x="36.0" y="217.0" text-anchor="end" font-family="Arial" font-size="9" fill="#666">8</text><text x="560.0" y="217.0" text-anchor="start" font-family="Arial" font-size="9" fill="#666">8</text><line x1="46.0" y1="193.0" x2="42.0" y2="193.0" stroke="#888" stroke-width="1"/><line x1="550.0" y1="193.0" x2="554.0" y2="193.0" stroke="#888" stroke-width="1"/><line x1="46.0" y1="172.0" x2="38.0" y2="172.0" stroke="#888" stroke-width="1"/><line x1="550.0" y1="172.0" x2="558.0" y2="172.0" stroke="#888" stroke-width="1"/><text x="36.0" y="175.0" text-anchor="end" font-family="Arial" font-size="9" fill="#666">9</text><text x="560.0" y="175.0" text-anchor="start" font-family="Arial" font-size="9" fill="#666">9</text><line x1="46.0" y1="151.0" x2="42.0" y2="151.0" stroke="#888" stroke-width="1"/><line x1="550.0" y1="151.0" x2="554.0" y2="151.0" stroke="#888" stroke-width="1"/><line x1="46.0" y1="130.0" x2="38.0" y2="130.0" stroke="#888" stroke-width="1"/><line x1="550.0" y1="130.0" x2="558.0" y2="130.0" stroke="#888" stroke-width="1"/><text x="36.0" y="133.0" text-anchor="end" font-family="Arial" font-size="9" fill="#666">10</text><text x="560.0" y="133.0" text-anchor="start" font-family="Arial" font-size="9" fill="#666">10</text><line x1="46.0" y1="109.0" x2="42.0" y2="109.0" stroke="#888" stroke-width="1"/><line x1="550.0" y1="109.0" x2="554.0" y2="109.0" stroke="#888" stroke-width="1"/><line x1="46.0" y1="88.0" x2="38.0" y2="88.0" stroke="#888" stroke-width="1"/><line x1="550.0" y1="88.0" x2="558.0" y2="88.0" stroke="#888" stroke-width="1"/><text x="36.0" y="91.0" text-anchor="end" font-family="Arial" font-size="9" fill="#666">11</text><text x="560.0" y="91.0" text-anchor="start" font-family="Arial" font-size="9" fill="#666">11</text><line x1="46.0" y1="67.0" x2="42.0" y2="67.0" stroke="#888" stroke-width="1"/><line x1="550.0" y1="67.0" x2="554.0" y2="67.0" stroke="#888" stroke-width="1"/><line x1="46.0" y1="46.0" x2="38.0" y2="46.0" stroke="#888" stroke-width="1"/><line x1="550.0" y1="46.0" x2="558.0" y2="46.0" stroke="#888" stroke-width="1"/><text x="36.0" y="49.0" text-anchor="end" font-family="Arial" font-size="9" fill="#666">12</text><text x="560.0" y="49.0" text-anchor="start" font-family="Arial" font-size="9" fill="#666">12</text><rect x="130.0" y="130.0" width="336.0" height="336.0" fill="none" stroke="#9aa" stroke-width="1" stroke-dasharray="3 3"/><rect x="299.3" y="467.3" width="165.5" height="60.5" fill="#f2f2f2" stroke="#333" stroke-width="1.5" stroke-dasharray="6 4"/><text x="382.0" y="494.9" text-anchor="middle" font-family="Arial" font-size="12" font-weight="bold" fill="#222">PORCH</text><text x="382.0" y="510.7" text-anchor="middle" font-family="Arial" font-size="10" fill="#555">4.0×1.5 m</text><rect x="130.0" y="321.1" width="168.0" height="144.9" fill="#d9ead3" stroke="#333" stroke-width="1.5"/><text x="214.0" y="390.9" text-anchor="middle" font-family="Arial" font-size="12" font-weight="bold" fill="#222">MASTER BR</text><text x="214.0" y="406.7" text-anchor="middle" font-family="Arial" font-size="10" fill="#555">4.0×3.5 m · 13.8 sqm</text><rect x="130.0" y="256.0" width="84.0" height="65.1" fill="#ead1dc" stroke="#333" stroke-width="1.5"/><text x="172.0" y="280.1" text-anchor="middle" font-family="Arial" font-size="12" font-weight="bold" fill="#222">ENSUITE</text><text x="172.0" y="295.9" text-anchor="middle" font-family="Arial" font-size="10" fill="#555">2.0×1.6 m</text><text x="172.0" y="307.4" text-anchor="middle" font-family="Arial" font-size="10" fill="#555">3.1 sqm</text><rect x="130.0" y="130.0" width="168.0" height="126.0" fill="#d9ead3" stroke="#333" stroke-width="1.5"/><text x="214.0" y="190.3" text-anchor="middle" font-family="Arial" font-size="12" font-weight="bold" fill="#222">BEDROOM</text><text x="214.0" y="206.2" text-anchor="middle" font-family="Arial" font-size="10" fill="#555">4.0×3.0 m · 12.0 sqm</text><rect x="214.0" y="256.0" width="84.0" height="65.1" fill="#ead1dc" stroke="#333" stroke-width="1.5"/><text x="256.0" y="280.1" text-anchor="middle" font-family="Arial" font-size="12" font-weight="bold" fill="#222">T&amp;B</text><text x="256.0" y="295.9" text-anchor="middle" font-family="Arial" font-size="10" fill="#555">2.0×1.6 m</text><text x="256.0" y="307.4" text-anchor="middle" font-family="Arial" font-size="10" fill="#555">3.1 sqm</text><rect x="298.0" y="205.6" width="168.0" height="260.4" fill="#cfe2f3" stroke="#333" stroke-width="1.5"/><text x="382.0" y="333.2" text-anchor="middle" font-family="Arial" font-size="12" font-weight="bold" fill="#222">GREAT ROOM</text><text x="382.0" y="349.0" text-anchor="middle" font-family="Arial" font-size="10" fill="#555">4.0×6.2 m · 24.8 sqm</text><rect x="298.0" y="130.0" width="168.0" height="75.6" fill="#cfe2f3" stroke="#333" stroke-width="1.5"/><text x="382.0" y="165.2" text-anchor="middle" font-family="Arial" font-size="12" font-weight="bold" fill="#222">KITCHEN</text><text x="382.0" y="181.0" text-anchor="middle" font-family="Arial" font-size="10" fill="#555">4.0×1.8 m · 7.2 sqm</text><text x="298.0" y="584.0" text-anchor="middle" font-family="Arial" font-size="12" font-weight="bold" fill="#888">FRONT (street)</text><rect x="130.00" y="319.00" width="84.00" height="4.20" fill="#555" stroke="none"/><rect x="214.00" y="319.00" width="84.00" height="4.20" fill="#555" stroke="none"/><rect x="295.90" y="321.10" width="4.20" height="144.90" fill="#555" stroke="none"/><rect x="130.00" y="253.90" width="84.00" height="4.20" fill="#555" stroke="none"/><rect x="211.90" y="256.00" width="4.20" height="65.10" fill="#555" stroke="none"/><rect x="214.00" y="253.90" width="84.00" height="4.20" fill="#555" stroke="none"/><rect x="295.90" y="205.60" width="4.20" height="50.40" fill="#555" stroke="none"/><rect x="295.90" y="130.00" width="4.20" height="75.60" fill="#555" stroke="none"/><rect x="295.90" y="256.00" width="4.20" height="65.10" fill="#555" stroke="none"/><rect x="130.00" y="461.80" width="168.00" height="8.40" fill="#555" stroke="none"/><rect x="125.80" y="321.10" width="8.40" height="144.90" fill="#555" stroke="none"/><rect x="125.80" y="256.00" width="8.40" height="65.10" fill="#555" stroke="none"/><rect x="130.00" y="125.80" width="168.00" height="8.40" fill="#555" stroke="none"/><rect x="125.80" y="130.00" width="8.40" height="126.00" fill="#555" stroke="none"/><rect x="298.00" y="461.80" width="168.00" height="8.40" fill="#555" stroke="none"/><rect x="461.80" y="205.60" width="8.40" height="260.40" fill="#555" stroke="none"/><rect x="298.00" y="125.80" width="168.00" height="8.40" fill="#555" stroke="none"/><rect x="461.80" y="130.00" width="8.40" height="75.60" fill="#555" stroke="none"/><rect x="125.80" y="316.90" width="8.40" height="8.40" fill="#555" stroke="none"/><rect x="211.90" y="319.00" width="4.20" height="4.20" fill="#555" stroke="none"/><rect x="211.90" y="319.00" width="4.20" height="4.20" fill="#555" stroke="none"/><rect x="295.90" y="319.00" width="4.20" height="4.20" fill="#555" stroke="none"/><rect x="293.80" y="461.80" width="8.40" height="8.40" fill="#555" stroke="none"/><rect x="295.90" y="319.00" width="4.20" height="4.20" fill="#555" stroke="none"/><rect x="125.80" y="251.80" width="8.40" height="8.40" fill="#555" stroke="none"/><rect x="211.90" y="253.90" width="4.20" height="4.20" fill="#555" stroke="none"/><rect x="211.90" y="319.00" width="4.20" height="4.20" fill="#555" stroke="none"/><rect x="211.90" y="253.90" width="4.20" height="4.20" fill="#555" stroke="none"/><rect x="211.90" y="253.90" width="4.20" height="4.20" fill="#555" stroke="none"/><rect x="295.90" y="253.90" width="4.20" height="4.20" fill="#555" stroke="none"/><rect x="295.90" y="253.90" width="4.20" height="4.20" fill="#555" stroke="none"/><rect x="293.80" y="125.80" width="8.40" height="8.40" fill="#555" stroke="none"/><rect x="295.90" y="319.00" width="4.20" height="4.20" fill="#555" stroke="none"/><rect x="295.90" y="253.90" width="4.20" height="4.20" fill="#555" stroke="none"/><rect x="125.80" y="461.80" width="8.40" height="8.40" fill="#555" stroke="none"/><rect x="293.80" y="461.80" width="8.40" height="8.40" fill="#555" stroke="none"/><rect x="125.80" y="461.80" width="8.40" height="8.40" fill="#555" stroke="none"/><rect x="125.80" y="316.90" width="8.40" height="8.40" fill="#555" stroke="none"/><rect x="125.80" y="316.90" width="8.40" height="8.40" fill="#555" stroke="none"/><rect x="125.80" y="251.80" width="8.40" height="8.40" fill="#555" stroke="none"/><rect x="125.80" y="125.80" width="8.40" height="8.40" fill="#555" stroke="none"/><rect x="293.80" y="125.80" width="8.40" height="8.40" fill="#555" stroke="none"/><rect x="125.80" y="251.80" width="8.40" height="8.40" fill="#555" stroke="none"/><rect x="125.80" y="125.80" width="8.40" height="8.40" fill="#555" stroke="none"/><rect x="293.80" y="461.80" width="8.40" height="8.40" fill="#555" stroke="none"/><rect x="461.80" y="461.80" width="8.40" height="8.40" fill="#555" stroke="none"/><rect x="461.80" y="461.80" width="8.40" height="8.40" fill="#555" stroke="none"/><rect x="293.80" y="125.80" width="8.40" height="8.40" fill="#555" stroke="none"/><rect x="461.80" y="125.80" width="8.40" height="8.40" fill="#555" stroke="none"/><rect x="461.80" y="125.80" width="8.40" height="8.40" fill="#555" stroke="none"/><rect x="300.1" y="205.6" width="163.8" height="5.0" fill="#cfe2f3" stroke="none"/><rect x="300.1" y="200.6" width="163.8" height="5.0" fill="#cfe2f3" stroke="none"/><rect x="136.3" y="321.1" width="29.4" height="5.0" fill="#d9ead3" stroke="none"/><rect x="136.3" y="316.1" width="29.4" height="5.0" fill="#ead1dc" stroke="none"/><line x1="136.3" y1="321.1" x2="136.3" y2="291.7" stroke="#444" stroke-width="1.4"/><path d="M 136.3 291.7 A 29.4 29.4 0 0 1 165.7 321.1" fill="none" stroke="#999" stroke-width="0.7" stroke-dasharray="2 2"/><rect x="293.0" y="327.4" width="5.0" height="33.6" fill="#d9ead3" stroke="none"/><rect x="298.0" y="327.4" width="5.0" height="33.6" fill="#cfe2f3" stroke="none"/><line x1="298.0" y1="327.4" x2="264.4" y2="327.4" stroke="#444" stroke-width="1.4"/><path d="M 264.4 327.4 A 33.6 33.6 0 0 0 298.0 361.0" fill="none" stroke="#999" stroke-width="0.7" stroke-dasharray="2 2"/><rect x="293.0" y="216.1" width="5.0" height="33.6" fill="#d9ead3" stroke="none"/><rect x="298.0" y="216.1" width="5.0" height="33.6" fill="#cfe2f3" stroke="none"/><line x1="298.0" y1="249.7" x2="264.4" y2="249.7" stroke="#444" stroke-width="1.4"/><path d="M 264.4 249.7 A 33.6 33.6 0 0 1 298.0 216.1" fill="none" stroke="#999" stroke-width="0.7" stroke-dasharray="2 2"/><rect x="293.0" y="285.4" width="5.0" height="29.4" fill="#ead1dc" stroke="none"/><rect x="298.0" y="285.4" width="5.0" height="29.4" fill="#cfe2f3" stroke="none"/><line x1="298.0" y1="314.8" x2="268.6" y2="314.8" stroke="#444" stroke-width="1.4"/><path d="M 268.6 314.8 A 29.4 29.4 0 0 1 298.0 285.4" fill="none" stroke="#999" stroke-width="0.7" stroke-dasharray="2 2"/><rect x="421.9" y="461.0" width="37.8" height="5.0" fill="#cfe2f3" stroke="none"/><rect x="421.9" y="466.0" width="37.8" height="5.0" fill="#fbfbf7" stroke="none"/><line x1="459.7" y1="466.0" x2="459.7" y2="428.2" stroke="#444" stroke-width="1.4"/><path d="M 459.7 428.2 A 37.8 37.8 0 0 0 421.9 466.0" fill="none" stroke="#999" stroke-width="0.7" stroke-dasharray="2 2"/><rect x="304.3" y="130.0" width="33.6" height="5.0" fill="#cfe2f3" stroke="none"/><rect x="304.3" y="125.0" width="33.6" height="5.0" fill="#fbfbf7" stroke="none"/><line x1="304.3" y1="130.0" x2="304.3" y2="163.6" stroke="#444" stroke-width="1.4"/><path d="M 304.3 163.6 A 33.6 33.6 0 0 0 337.9 130.0" fill="none" stroke="#999" stroke-width="0.7" stroke-dasharray="2 2"/><rect x="167.8" y="461.0" width="92.4" height="5.0" fill="#d9ead3" stroke="none"/><rect x="167.8" y="466.0" width="92.4" height="5.0" fill="#fbfbf7" stroke="none"/><line x1="167.8" y1="463.0" x2="260.2" y2="463.0" stroke="#222" stroke-width="1.0"/><line x1="167.8" y1="466.0" x2="260.2" y2="466.0" stroke="#222" stroke-width="1.0"/><line x1="167.8" y1="469.0" x2="260.2" y2="469.0" stroke="#222" stroke-width="1.0"/><rect x="130.0" y="353.7" width="5.0" height="79.7" fill="#d9ead3" stroke="none"/><rect x="125.0" y="353.7" width="5.0" height="79.7" fill="#fbfbf7" stroke="none"/><line x1="127.0" y1="433.4" x2="127.0" y2="353.7" stroke="#222" stroke-width="1.0"/><line x1="130.0" y1="433.4" x2="130.0" y2="353.7" stroke="#222" stroke-width="1.0"/><line x1="133.0" y1="433.4" x2="133.0" y2="353.7" stroke="#222" stroke-width="1.0"/><rect x="130.0" y="272.3" width="5.0" height="32.6" fill="#ead1dc" stroke="none"/><rect x="125.0" y="272.3" width="5.0" height="32.6" fill="#fbfbf7" stroke="none"/><line x1="127.0" y1="304.8" x2="127.0" y2="272.3" stroke="#222" stroke-width="1.0"/><line x1="130.0" y1="304.8" x2="130.0" y2="272.3" stroke="#222" stroke-width="1.0"/><line x1="133.0" y1="304.8" x2="133.0" y2="272.3" stroke="#222" stroke-width="1.0"/><rect x="167.8" y="130.0" width="92.4" height="5.0" fill="#d9ead3" stroke="none"/><rect x="167.8" y="125.0" width="92.4" height="5.0" fill="#fbfbf7" stroke="none"/><line x1="167.8" y1="127.0" x2="260.2" y2="127.0" stroke="#222" stroke-width="1.0"/><line x1="167.8" y1="130.0" x2="260.2" y2="130.0" stroke="#222" stroke-width="1.0"/><line x1="167.8" y1="133.0" x2="260.2" y2="133.0" stroke="#222" stroke-width="1.0"/><rect x="130.0" y="158.4" width="5.0" height="69.3" fill="#d9ead3" stroke="none"/><rect x="125.0" y="158.4" width="5.0" height="69.3" fill="#fbfbf7" stroke="none"/><line x1="127.0" y1="227.7" x2="127.0" y2="158.4" stroke="#222" stroke-width="1.0"/><line x1="130.0" y1="227.7" x2="130.0" y2="158.4" stroke="#222" stroke-width="1.0"/><line x1="133.0" y1="227.7" x2="133.0" y2="158.4" stroke="#222" stroke-width="1.0"/><rect x="461.0" y="285.4" width="5.0" height="100.8" fill="#cfe2f3" stroke="none"/><rect x="466.0" y="285.4" width="5.0" height="100.8" fill="#fbfbf7" stroke="none"/><line x1="463.0" y1="386.2" x2="463.0" y2="285.4" stroke="#222" stroke-width="1.0"/><line x1="466.0" y1="386.2" x2="466.0" y2="285.4" stroke="#222" stroke-width="1.0"/><line x1="469.0" y1="386.2" x2="469.0" y2="285.4" stroke="#222" stroke-width="1.0"/><rect x="323.0" y="461.0" width="61.2" height="5.0" fill="#cfe2f3" stroke="none"/><rect x="323.0" y="466.0" width="61.2" height="5.0" fill="#fbfbf7" stroke="none"/><line x1="323.0" y1="463.0" x2="384.3" y2="463.0" stroke="#222" stroke-width="1.0"/><line x1="323.0" y1="466.0" x2="384.3" y2="466.0" stroke="#222" stroke-width="1.0"/><line x1="323.0" y1="469.0" x2="384.3" y2="469.0" stroke="#222" stroke-width="1.0"/><rect x="376.5" y="130.0" width="63.5" height="5.0" fill="#cfe2f3" stroke="none"/><rect x="376.5" y="125.0" width="63.5" height="5.0" fill="#fbfbf7" stroke="none"/><line x1="376.5" y1="127.0" x2="440.0" y2="127.0" stroke="#222" stroke-width="1.0"/><line x1="376.5" y1="130.0" x2="440.0" y2="130.0" stroke="#222" stroke-width="1.0"/><line x1="376.5" y1="133.0" x2="440.0" y2="133.0" stroke="#222" stroke-width="1.0"/><rect x="461.0" y="147.0" width="5.0" height="41.6" fill="#cfe2f3" stroke="none"/><rect x="466.0" y="147.0" width="5.0" height="41.6" fill="#fbfbf7" stroke="none"/><line x1="463.0" y1="188.6" x2="463.0" y2="147.0" stroke="#222" stroke-width="1.0"/><line x1="466.0" y1="188.6" x2="466.0" y2="147.0" stroke="#222" stroke-width="1.0"/><line x1="469.0" y1="188.6" x2="469.0" y2="147.0" stroke="#222" stroke-width="1.0"/></svg>