<svg xmlns="http://www.w3.org/2000/svg" width="680" height="512" viewBox="0 0 680 512"><rect x="0" y="0" width="680" height="512" fill="white"/><rect x="46.0" y="46.0" width="588.0" height="420.0" fill="#fbfbf7" stroke="#333" stroke-width="1.5"/><line x1="46.0" y1="46.0" x2="46.0" y2="38.0" stroke="#888" stroke-width="1"/><line x1="46.0" y1="466.0" x2="46.0" y2="474.0" stroke="#888" stroke-width="1"/><text x="46.0" y="36.0" text-anchor="middle" font-family="Arial" font-size="9" fill="#666">0</text><text x="46.0" y="482.0" text-anchor="middle" font-family="Arial" font-size="9" fill="#666">0</text><line x1="67.0" y1="46.0" x2="67.0" y2="42.0" stroke="#888" stroke-width="1"/><line x1="67.0" y1="466.0" x2="67.0" y2="470.0" stroke="#888" stroke-width="1"/><line x1="88.0" y1="46.0" x2="88.0" y2="38.0" stroke="#888" stroke-width="1"/><line x1="88.0" y1="466.0" x2="88.0" y2="474.0" stroke="#888" stroke-width="1"/><text x="88.0" y="36.0" text-anchor="middle" font-family="Arial" font-size="9" fill="#666">1</text><text x="88.0" y="482.0" text-anchor="middle" font-family="Arial" font-size="9" fill="#666">1</text><line x1="109.0" y1="46.0" x2="109.0" y2="42.0" stroke="#888" stroke-width="1"/><line x1="109.0" y1="466.0" x2="109.0" y2="470.0" stroke="#888" stroke-width="1"/><line x1="130.0" y1="46.0" x2="130.0" y2="38.0" stroke="#888" stroke-width="1"/><line x1="130.0" y1="466.0" x2="130.0" y2="474.0" stroke="#888" stroke-width="1"/><text x="130.0" y="36.0" text-anchor="middle" font-family="Arial" font-size="9" fill="#666">2</text><text x="130.0" y="482.0" text-anchor="middle" font-family="Arial" font-size="9" fill="#666">2</text><line x1="151.0" y1="46.0" x2="151.0" y2="42.0" stroke="#888" stroke-width="1"/><line x1="151.0" y1="466.0" x2="151.0" y2="470.0" stroke="#888" stroke-width="1"/><line x1="172.0" y1="46.0" x2="172.0" y2="38.0" stroke="#888" stroke-width="1"/><line x1="172.0" y1="466.0" x2="172.0" y2="474.0" stroke="#888" stroke-width="1"/><text x="172.0" y="36.0" text-anchor="middle" font-family="Arial" font-size="9" fill="#666">3</text><text x="172.0" y="482.0" text-anchor="middle" font-family="Arial" font-size="9" fill="#666">3</text><line x1="193.0" y1="46.0" x2="193.0" y2="42.0" stroke="#888" stroke-width="1"/><line x1="193.0" y1="466.0" x2="193.0" y2="470.0" stroke="#888" stroke-width="1"/><line x1="214.0" y1="46.0" x2="214.0" y2="38.0" stroke="#888" stroke-width="1"/><line x1="214.0" y1="466.0" x2="214.0" y2="474.0" stroke="#888" stroke-width="1"/><text x="214.0" y="36.0" text-anchor="middle" font-family="Arial" font-size="9" fill="#666">4</text><text x="214.0" y="482.0" text-anchor="middle" font-family="Arial" font-size="9" fill="#666">4</text><line x1="235.0" y1="46.0" x2="235.0" y2="42.0" stroke="#888" stroke-width="1"/><line x1="235.0" y1="466.0" x2="235.0" y2="470.0" stroke="#888" stroke-width="1"/><line x1="256.0" y1="46.0" x2="256.0" y2="38.0" stroke="#888" stroke-width="1"/><line x1="256.0" y1="466.0" x2="256.0" y2="474.0" stroke="#888" stroke-width="1"/><text x="256.0" y="36.0" text-anchor="middle" font-family="Arial" font-size="9" fill="#666">5</text><text x="256.0" y="482.0" text-anchor="middle" font-family="Arial" font-size="9" fill="#666">5</text><line x1="277.0" y1="46.0" x2="277.0" y2="42.0" stroke="#888" stroke-width="1"/><line x1="277.0" y1="466.0" x2="277.0" y2="470.0" stroke="#888" stroke-width="1"/><line x1="298.0" y1="46.0" x2="298.0" y2="38.0" stroke="#888" stroke-width="1"/><line x1="298.0" y1="466.0" x2="298.0" y2="474.0" stroke="#888" stroke-width="1"/><text x="298.0" y="36.0" text-anchor="middle" font-family="Arial" font-size="9" fill="#666">6</text><text x="298.0" y="482.0" text-anchor="middle" font-family="Arial" font-size="9" fill="#666">6</text><line x1="319.0" y1="46.0" x2="319.0" y2="42.0" stroke="#888" stroke-width="1"/><line x1="319.0" y1="466.0" x2="319.0" y2="470.0" stroke="#888" stroke-width="1"/><line x1="340.0" y1="46.0" x2="340.0" y2="38.0" stroke="#888" stroke-width="1"/><line x1="340.0" y1="466.0" x2="340.0" y2="474.0" stroke="#888" stroke-width="1"/><text x="340.0" y="36.0" text-anchor="middle" font-family="Arial" font-size="9" fill="#666">7</text><text x="340.0" y="482.0" text-anchor="middle" font-family="Arial" font-size="9" fill="#666">7</text><line x1="361.0" y1="46.0" x2="361.0" y2="42.0" stroke="#888" stroke-width="1"/><line x1="361.0" y1="466.0" x2="361.0" y2="470.0" stroke="#888" stroke-width="1"/><line x1="382.0" y1="46.0" x2="382.0" y2="38.0" stroke="#888" stroke-width="1"/><line x1="382.0" y1="466.0" x2="382.0" y2="474.0" stroke="#888" stroke-width="1"/><text x="382.0" y="36.0" text-anchor="middle" font-family="Arial" font-size="9" fill="#666">8</text><text x="382.0" y="482.0" text-anchor="middle" font-family="Arial" font-size="9" fill="#666">8</text><line x1="403.0" y1="46.0" x2="403.0" y2="42.0" stroke="#888" stroke-width="1"/><line x1="403.0" y1="466.0" x2="403.0" y2="470.0" stroke="#888" stroke-width="1"/><line x1="424.0" y1="46.0" x2="424.0" y2="38.0" stroke="#888" stroke-width="1"/><line x1="424.0" y1="466.0" x2="424.0" y2="474.0" stroke="#888" stroke-width="1"/><text x="424.0" y="36.0" text-anchor="middle" font-family="Arial" font-size="9" fill="#666">9</text><text x="424.0" y="482.0" text-anchor="middle" font-family="Arial" font-size="9" fill="#666">9</text><line x1="445.0" y1="46.0" x2="445.0" y2="42.0" stroke="#888" stroke-width="1"/><line x1="445.0" y1="466.0" x2="445.0" y2="470.0" stroke="#888" stroke-width="1"/><line x1="466.0" y1="46.0" x2="466.0" y2="38.0" stroke="#888" stroke-width="1"/><line x1="466.0" y1="466.0" x2="466.0" y2="474.0" stroke="#888" stroke-width="1"/><text x="466.0" y="36.0" text-anchor="middle" font-family="Arial" font-size="9" fill="#666">10</text><text x="466.0" y="482.0" text-anchor="middle" font-family="Arial" font-size="9" fill="#666">10</text><line x1="487.0" y1="46.0" x2="487.0" y2="42.0" stroke="#888" stroke-width="1"/><line x1="487.0" y1="466.0" x2="487.0" y2="470.0" stroke="#888" stroke-width="1"/><line x1="508.0" y1="46.0" x2="508.0" y2="38.0" stroke="#888" stroke-width="1"/><line x1="508.0" y1="466.0" x2="508.0" y2="474.0" stroke="#888" stroke-width="1"/><text x="508.0" y="36.0" text-anchor="middle" font-family="Arial" font-size="9" fill="#666">11</text><text x="508.0" y="482.0" text-anchor="middle" font-family="Arial" font-size="9" fill="#666">11</text><line x1="529.0" y1="46.0" x2="529.0" y2="42.0" stroke="#888" stroke-width="1"/><line x1="529.0" y1="466.0" x2="529.0" y2="470.0" stroke="#888" stroke-width="1"/><line x1="550.0" y1="46.0" x2="550.0" y2="38.0" stroke="#888" stroke-width="1"/><line x1="550.0" y1="466.0" x2="550.0" y2="474.0" stroke="#888" stroke-width="1"/><text x="550.0" y="36.0" text-anchor="middle" font-family="Arial" font-size="9" fill="#666">12</text><text x="550.0" y="482.0" text-anchor="middle" font-family="Arial" font-size="9" fill="#666">12</text><line x1="571.0" y1="46.0" x2="571.0" y2="42.0" stroke="#888" stroke-width="1"/><line x1="571.0" y1="466.0" x2="571.0" y2="470.0" stroke="#888" stroke-width="1"/><line x1="592.0" y1="46.0" x2="592.0" y2="38.0" stroke="#888" stroke-width="1"/><line x1="592.0" y1="466.0" x2="592.0" y2="474.0" stroke="#888" stroke-width="1"/><text x="592.0" y="36.0" text-anchor="middle" font-family="Arial" font-size="9" fill="#666">13</text><text x="592.0" y="482.0" text-anchor="middle" font-family="Arial" font-size="9" fill="#666">13</text><line x1="613.0" y1="46.0" x2="613.0" y2="42.0" stroke="#888" stroke-width="1"/><line x1="613.0" y1="466.0" x2="613.0" y2="470.0" stroke="#888" stroke-width="1"/><line x1="634.0" y1="46.0" x2="634.0" y2="38.0" stroke="#888" stroke-width="1"/><line x1="634.0" y1="466.0" x2="634.0" y2="474.0" stroke="#888" stroke-width="1"/><text x="634.0" y="36.0" text-anchor="middle" font-family="Arial" font-size="9" fill="#666">14</text><text x="634.0" y="482.0" text-anchor="middle" font-family="Arial" font-size="9" fill="#666">14</text><line x1="46.0" y1="466.0" x2="38.0" y2="466.0" stroke="#888" stroke-width="1"/><line x1="634.0" y1="466.0" x2="642.0" y2="466.0" stroke="#888" stroke-width="1"/><text x="36.0" y="469.0" text-anchor="end" font-family="Arial" font-size="9" fill="#666">0</text><text x="644.0" y="469.0" text-anchor="start" font-family="Arial" font-size="9" fill="#666">0</text><line x1="46.0" y1="445.0" x2="42.0" y2="445.0" stroke="#888" stroke-width="1"/><line x1="634.0" y1="445.0" x2="638.0" y2="445.0" stroke="#888" stroke-width="1"/><line x1="46.0" y1="424.0" x2="38.0" y2="424.0" stroke="#888" stroke-width="1"/><line x1="634.0" y1="424.0" x2="642.0" y2="424.0" stroke="#888" stroke-width="1"/><text x="36.0" y="427.0" text-anchor="end" font-family="Arial" font-size="9" fill="#666">1</text><text x="644.0" y="427.0" text-anchor="start" font-family="Arial" font-size="9" fill="#666">1</text><line x1="46.0" y1="403.0" x2="42.0" y2="403.0" stroke="#888" stroke-width="1"/><line x1="634.0" y1="403.0" x2="638.0" y2="403.0" stroke="#888" stroke-width="1"/><line x1="46.0" y1="382.0" x2="38.0" y2="382.0" stroke="#888" stroke-width="1"/><line x1="634.0" y1="382.0" x2="642.0" y2="382.0" stroke="#888" stroke-width="1"/><text x="36.0" y="385.0" text-anchor="end" font-family="Arial" font-size="9" fill="#666">2</text><text x="644.0" y="385.0" text-anchor="start" font-family="Arial" font-size="9" fill="#666">2</text><line x1="46.0" y1="361.0" x2="42.0" y2="361.0" stroke="#888" stroke-width="1"/><line x1="634.0" y1="361.0" x2="638.0" y2="361.0" stroke="#888" stroke-width="1"/><line x1="46.0" y1="340.0" x2="38.0" y2="340.0" stroke="#888" stroke-width="1"/><line x1="634.0" y1="340.0" x2="642.0" y2="340.0" stroke="#888" stroke-width="1"/><text x="36.0" y="343.0" text-anchor="end" font-family="Arial" font-size="9" fill="#666">3</text><text x="644.0" y="343.0" text-anchor="start" font-family="Arial" font-size="9" fill="#666">3</text><line x1="46.0" y1="319.0" x2="42.0" y2="319.0" stroke="#888" stroke-width="1"/><line x1="634.0" y1="319.0" x2="638.0" y2="319.0" stroke="#888" stroke-width="1"/><line x1="46.0" y1="298.0" x2="38.0" y2="298.0" stroke="#888" stroke-width="1"/><line x1="634.0" y1="298.0" x2="642.0" y2="298.0" stroke="#888" stroke-width="1"/><text x="36.0" y="301.0" text-anchor="end" font-family="Arial" font-size="9" fill="#666">4</text><text x="644.0" y="301.0" text-anchor="start" font-family="Arial" font-size="9" fill="#666">4</text><line x1="46.0" y1="277.0" x2="42.0" y2="277.0" stroke="#888" stroke-width="1"/><line x1="634.0" y1="277.0" x2="638.0" y2="277.0" stroke="#888" stroke-width="1"/><line x1="46.0" y1="256.0" x2="38.0" y2="256.0" stroke="#888" stroke-width="1"/><line x1="634.0" y1="256.0" x2="642.0" y2="256.0" stroke="#888" stroke-width="1"/><text x="36.0" y="259.0" text-anchor="end" font-family="Arial" font-size="9" fill="#666">5</text><text x="644.0" y="259.0" text-anchor="start" font-family="Arial" font-size="9" fill="#666">5</text><line x1="46.0" y1="235.0" x2="42.0" y2="235.0" stroke="#888" stroke-width="1"/><line x1="634.0" y1="235.0" x2="638.0" y2="235.0" stroke="#888" stroke-width="1"/><line x1="46.0" y1="214.0" x2="38.0" y2="214.0" stroke="#888" stroke-width="1"/><line x1="634.0" y1="214.0" x2="642.0" y2="214.0" stroke="#888" stroke-width="1"/><text x="36.0" y="217.0" text-anchor="end" font-family="Arial" font-size="9" fill="#666">6</text><text x="644.0" y="217.0" text-anchor="start" font-family="Arial" font-size="9" fill="#666">6</text><line x1="46.0" y1="193.0" x2="42.0" y2="193.0" stroke="#888" stroke-width="1"/><line x1="634.0" y1="193.0" x2="638.0" y2="193.0" stroke="#888" stroke-width="1"/><line x1="46.0" y1="172.0" x2="38.0" y2="172.0" stroke="#888" stroke-width="1"/><line x1="634.0" y1="172.0" x2="642.0" y2="172.0" stroke="#888" stroke-width="1"/><text x="36.0" y="175.0" text-anchor="end" font-family="Arial" font-size="9" fill="#666">7</text><text x="644.0" y="175.0" text-anchor="start" font-family="Arial" font-size="9" fill="#666">7</text><line x1="46.0" y1="151.0" x2="42.0" y2="151.0" stroke="#888" stroke-width="1"/><line x1="634.0" y1="151.0" x2="638.0" y2="151.0" stroke="#888" stroke-width="1"/><line x1="46.0" y1="130.0" x2="38.0" y2="130.0" stroke="#888" stroke-width="1"/><line x1="634.0" y1="130.0" x2="642.0" y2="130.0" stroke="#888" stroke-width="1"/><text x="36.0" y="133.0" text-anchor="end" font-family="Arial" font-size="9" fill="#666">8</text><text x="644.0" y="133.0" text-anchor="start" font-family="Arial" font-size="9" fill="#666">8</text><line x1="46.0" y1="109.0" x2="42.0" y2="109.0" stroke="#888" stroke-width="1"/><line x1="634.0" y1="109.0" x2="638.0" y2="109.0" stroke="#888" stroke-width="1"/><line x1="46.0" y1="88.0" x2="38.0" y2="88.0" stroke="#888" stroke-width="1"/><line x1="634.0" y1="88.0" x2="642.0" y2="88.0" stroke="#888" stroke-width="1"/><text x="36.0" y="91.0" text-anchor="end" font-family="Arial" font-size="9" fill="#666">9</text><text x="644.0" y="91.0" text-anchor="start" font-family="Arial" font-size="9" fill="#666">9</text><line x1="46.0" y1="67.0" x2="42.0" y2="67.0" stroke="#888" stroke-width="1"/><line x1="634.0" y1="67.0" x2="638.0" y2="67.0" stroke="#888" stroke-width="1"/><line x1="46.0" y1="46.0" x2="38.0" y2="46.0" stroke="#888" stroke-width="1"/><line x1="634.0" y1="46.0" x2="642.0" y2="46.0" stroke="#888" stroke-width="1"/><text x="36.0" y="49.0" text-anchor="end" font-family="Arial" font-size="9" fill="#666">10</text><text x="644.0" y="49.0" text-anchor="start" font-family="Arial" font-size="9" fill="#666">10</text><rect x="130.0" y="130.0" width="420.0" height="252.0" fill="none" stroke="#9aa" stroke-width="1" stroke-dasharray="3 3"/><rect x="324.5" y="383.3" width="224.3" height="60.5" fill="#f2f2f2" stroke="#333" stroke-width="1.5" stroke-dasharray="6 4"/><text x="436.6" y="410.9" text-anchor="middle" font-family="Arial" font-size="12" font-weight="bold" fill="#222">PORCH</text><text x="436.6" y="426.7" text-anchor="middle" font-family="Arial" font-size="10" fill="#555">5.4×1.5 m</text><rect x="130.0" y="256.0" width="193.2" height="126.0" fill="#d9ead3" stroke="#333" stroke-width="1.5"/><text x="226.6" y="316.4" text-anchor="middle" font-family="Arial" font-size="12" font-weight="bold" fill="#222">MASTER BR</text><text x="226.6" y="332.2" text-anchor="middle" font-family="Arial" font-size="10" fill="#555">4.6×3.0 m · 13.8 sqm</text><rect x="130.0" y="130.0" width="126.0" height="126.0" fill="#d9ead3" stroke="#333" stroke-width="1.5"/><text x="193.0" y="190.3" text-anchor="middle" font-family="Arial" font-size="12" font-weight="bold" fill="#222">BEDROOM</text><text x="193.0" y="206.2" text-anchor="middle" font-family="Arial" font-size="10" fill="#555">3.0×3.0 m · 9.0 sqm</text><rect x="256.0" y="130.0" width="94.5" height="84.0" fill="#ead1dc" stroke="#333" stroke-width="1.5"/><text x="303.2" y="163.6" text-anchor="middle" font-family="Arial" font-size="12" font-weight="bold" fill="#222">T&amp;B</text><text x="303.2" y="179.4" text-anchor="middle" font-family="Arial" font-size="10" fill="#555">2.2×2.0 m</text><text x="303.2" y="190.9" text-anchor="middle" font-family="Arial" font-size="10" fill="#555">4.5 sqm</text><rect x="256.0" y="214.0" width="67.2" height="42.0" fill="#efefef" stroke="#333" stroke-width="1.5"/><text x="289.6" y="226.6" text-anchor="middle" font-family="Arial" font-size="12" font-weight="bold" fill="#222">HALL</text><text x="289.6" y="242.4" text-anchor="middle" font-family="Arial" font-size="10" fill="#555">1.6×1.0 m</text><text x="289.6" y="253.9" text-anchor="middle" font-family="Arial" font-size="10" fill="#555">1.6 sqm</text><rect x="323.2" y="214.0" width="226.8" height="168.0" fill="#cfe2f3" stroke="#333" stroke-width="1.5"/><text x="436.6" y="295.4" text-anchor="middle" font-family="Arial" font-size="12" font-weight="bold" fill="#222">GREAT ROOM</text><text x="436.6" y="311.2" text-anchor="middle" font-family="Arial" font-size="10" fill="#555">5.4×4.0 m · 21.6 sqm</text><rect x="350.5" y="130.0" width="199.5" height="84.0" fill="#cfe2f3" stroke="#333" stroke-width="1.5"/><text x="450.2" y="169.3" text-anchor="middle" font-family="Arial" font-size="12" font-weight="bold" fill="#222">KITCHEN</text><text x="450.2" y="185.2" text-anchor="middle" font-family="Arial" font-size="10" fill="#555">4.8×2.0 m · 9.5 sqm</text><text x="340.0" y="500.0" text-anchor="middle" font-family="Arial" font-size="12" font-weight="bold" fill="#888">FRONT (street)</text><rect x="130.00" y="253.90" width="126.00" height="4.20" fill="#555" stroke="none"/><rect x="256.00" y="253.90" width="67.20" height="4.20" fill="#555" stroke="none"/><rect x="321.10" y="256.00" width="4.20" height="126.00" fill="#555" stroke="none"/><rect x="253.90" y="130.00" width="4.20" height="84.00" fill="#555" stroke="none"/><rect x="253.90" y="214.00" width="4.20" height="42.00" fill="#555" stroke="none"/><rect x="256.00" y="211.90" width="67.20" height="4.20" fill="#555" stroke="none"/><rect x="323.20" y="211.90" width="27.30" height="4.20" fill="#555" stroke="none"/><rect x="348.40" y="130.00" width="4.20" height="84.00" fill="#555" stroke="none"/><rect x="130.00" y="377.80" width="193.20" height="8.40" fill="#555" stroke="none"/><rect x="125.80" y="256.00" width="8.40" height="126.00" fill="#555" stroke="none"/><rect x="130.00" y="125.80" width="126.00" height="8.40" fill="#555" stroke="none"/><rect x="125.80" y="130.00" width="8.40" height="126.00" fill="#555" stroke="none"/><rect x="256.00" y="125.80" width="94.50" height="8.40" fill="#555" stroke="none"/><rect x="323.20" y="377.80" width="226.80" height="8.40" fill="#555" stroke="none"/><rect x="545.80" y="214.00" width="8.40" height="168.00" fill="#555" stroke="none"/><rect x="350.50" y="125.80" width="199.50" height="8.40" fill="#555" stroke="none"/><rect x="545.80" y="130.00" width="8.40" height="84.00" fill="#555" stroke="none"/><rect x="125.80" y="251.80" width="8.40" height="8.40" fill="#555" stroke="none"/><rect x="253.90" y="253.90" width="4.20" height="4.20" fill="#555" stroke="none"/><rect x="253.90" y="253.90" width="4.20" height="4.20" fill="#555" stroke="none"/><rect x="319.00" y="377.80" width="8.40" height="8.40" fill="#555" stroke="none"/><rect x="253.90" y="211.90" width="4.20" height="4.20" fill="#555" stroke="none"/><rect x="251.80" y="125.80" width="8.40" height="8.40" fill="#555" stroke="none"/><rect x="253.90" y="253.90" width="4.20" height="4.20" fill="#555" stroke="none"/><rect x="253.90" y="211.90" width="4.20" height="4.20" fill="#555" stroke="none"/><rect x="253.90" y="211.90" width="4.20" height="4.20" fill="#555" stroke="none"/><rect x="346.30" y="125.80" width="8.40" height="8.40" fill="#555" stroke="none"/><rect x="125.80" y="377.80" width="8.40" height="8.40" fill="#555" stroke="none"/><rect x="319.00" y="377.80" width="8.40" height="8.40" fill="#555" stroke="none"/><rect x="125.80" y="377.80" width="8.40" height="8.40" fill="#555" stroke="none"/><rect x="125.80" y="251.80" width="8.40" height="8.40" fill="#555" stroke="none"/><rect x="125.80" y="125.80" width="8.40" height="8.40" fill="#555" stroke="none"/><rect x="251.80" y="125.80" width="8.40" height="8.40" fill="#555" stroke="none"/><rect x="125.80" y="251.80" width="8.40" height="8.40" fill="#555" stroke="none"/><rect x="125.80" y="125.80" width="8.40" height="8.40" fill="#555" stroke="none"/><rect x="251.80" y="125.80" width="8.40" height="8.40" fill="#555" stroke="none"/><rect x="346.30" y="125.80" width="8.40" height="8.40" fill="#555" stroke="none"/><rect x="319.00" y="377.80" width="8.40" height="8.40" fill="#555" stroke="none"/><rect x="545.80" y="377.80" width="8.40" height="8.40" fill="#555" stroke="none"/><rect x="545.80" y="377.80" width="8.40" height="8.40" fill="#555" stroke="none"/><rect x="346.30" y="125.80" width="8.40" height="8.40" fill="#555" stroke="none"/><rect x="545.80" y="125.80" width="8.40" height="8.40" fill="#555" stroke="none"/><rect x="545.80" y="125.80" width="8.40" height="8.40" fill="#555" stroke="none"/><rect x="318.2" y="216.1" width="5.0" height="37.8" fill="#efefef" stroke="none"/><rect x="323.2" y="216.1" width="5.0" height="37.8" fill="#cfe2f3" stroke="none"/><rect x="352.6" y="214.0" width="195.3" height="5.0" fill="#cfe2f3" stroke="none"/><rect x="352.6" y="209.0" width="195.3" height="5.0" fill="#cfe2f3" stroke="none"/><rect x="262.3" y="209.0" width="29.4" height="5.0" fill="#ead1dc" stroke="none"/><rect x="262.3" y="214.0" width="29.4" height="5.0" fill="#efefef" stroke="none"/><line x1="262.3" y1="214.0" x2="262.3" y2="184.6" stroke="#444" stroke-width="1.4"/><path d="M 262.3 184.6 A 29.4 29.4 0 0 1 291.7 214.0" fill="none" stroke="#999" stroke-width="0.7" stroke-dasharray="2 2"/><rect x="283.3" y="256.0" width="33.6" height="5.0" fill="#d9ead3" stroke="none"/><rect x="283.3" y="251.0" width="33.6" height="5.0" fill="#efefef" stroke="none"/><line x1="316.9" y1="256.0" x2="316.9" y2="289.6" stroke="#444" stroke-width="1.4"/><path d="M 316.9 289.6 A 33.6 33.6 0 0 1 283.3 256.0" fill="none" stroke="#999" stroke-width="0.7" stroke-dasharray="2 2"/><rect x="251.0" y="216.1" width="5.0" height="33.6" fill="#d9ead3" stroke="none"/><rect x="256.0" y="216.1" width="5.0" height="33.6" fill="#efefef" stroke="none"/><line x1="256.0" y1="249.7" x2="222.4" y2="249.7" stroke="#444" stroke-width="1.4"/><path d="M 222.4 249.7 A 33.6 33.6 0 0 1 256.0 216.1" fill="none" stroke="#999" stroke-width="0.7" stroke-dasharray="2 2"/><rect x="329.5" y="377.0" width="37.8" height="5.0" fill="#cfe2f3" stroke="none"/><rect x="329.5" y="382.0" width="37.8" height="5.0" fill="#fbfbf7" stroke="none"/><line x1="329.5" y1="382.0" x2="329.5" y2="344.2" stroke="#444" stroke-width="1.4"/><path d="M 329.5 344.2 A 37.8 37.8 0 0 1 367.3 382.0" fill="none" stroke="#999" stroke-width="0.7" stroke-dasharray="2 2"/><rect x="356.8" y="130.0" width="33.6" height="5.0" fill="#cfe2f3" stroke="none"/><rect x="356.8" y="125.0" width="33.6" height="5.0" fill="#fbfbf7" stroke="none"/><line x1="356.8" y1="130.0" x2="356.8" y2="163.6" stroke="#444" stroke-width="1.4"/><path d="M 356.8 163.6 A 33.6 33.6 0 0 0 390.4 130.0" fill="none" stroke="#999" stroke-width="0.7" stroke-dasharray="2 2"/><rect x="176.2" y="377.0" width="100.8" height="5.0" fill="#d9ead3" stroke="none"/><rect x="176.2" y="382.0" width="100.8" height="5.0" fill="#fbfbf7" stroke="none"/><line x1="176.2" y1="379.0" x2="277.0" y2="379.0" stroke="#222" stroke-width="1.0"/><line x1="176.2" y1="382.0" x2="277.0" y2="382.0" stroke="#222" stroke-width="1.0"/><line x1="176.2" y1="385.0" x2="277.0" y2="385.0" stroke="#222" stroke-width="1.0"/><rect x="130.0" y="284.4" width="5.0" height="69.3" fill="#d9ead3" stroke="none"/><rect x="125.0" y="284.4" width="5.0" height="69.3" fill="#fbfbf7" stroke="none"/><line x1="127.0" y1="353.7" x2="127.0" y2="284.4" stroke="#222" stroke-width="1.0"/><line x1="130.0" y1="353.7" x2="130.0" y2="284.4" stroke="#222" stroke-width="1.0"/><line x1="133.0" y1="353.7" x2="133.0" y2="284.4" stroke="#222" stroke-width="1.0"/><rect x="130.0" y="158.4" width="5.0" height="69.3" fill="#d9ead3" stroke="none"/><rect x="125.0" y="158.4" width="5.0" height="69.3" fill="#fbfbf7" stroke="none"/><line x1="127.0" y1="227.7" x2="127.0" y2="158.4" stroke="#222" stroke-width="1.0"/><line x1="130.0" y1="227.7" x2="130.0" y2="158.4" stroke="#222" stroke-width="1.0"/><line x1="133.0" y1="227.7" x2="133.0" y2="158.4" stroke="#222" stroke-width="1.0"/><rect x="158.3" y="130.0" width="69.3" height="5.0" fill="#d9ead3" stroke="none"/><rect x="158.3" y="125.0" width="69.3" height="5.0" fill="#fbfbf7" stroke="none"/><line x1="158.3" y1="127.0" x2="227.6" y2="127.0" stroke="#222" stroke-width="1.0"/><line x1="158.3" y1="130.0" x2="227.6" y2="130.0" stroke="#222" stroke-width="1.0"/><line x1="158.3" y1="133.0" x2="227.6" y2="133.0" stroke="#222" stroke-width="1.0"/><rect x="284.4" y="130.0" width="37.8" height="5.0" fill="#ead1dc" stroke="none"/><rect x="284.4" y="125.0" width="37.8" height="5.0" fill="#fbfbf7" stroke="none"/><line x1="284.4" y1="127.0" x2="322.2" y2="127.0" stroke="#222" stroke-width="1.0"/><line x1="284.4" y1="130.0" x2="322.2" y2="130.0" stroke="#222" stroke-width="1.0"/><line x1="284.4" y1="133.0" x2="322.2" y2="133.0" stroke="#222" stroke-width="1.0"/><rect x="418.2" y="377.0" width="93.6" height="5.0" fill="#cfe2f3" stroke="none"/><rect x="418.2" y="382.0" width="93.6" height="5.0" fill="#fbfbf7" stroke="none"/><line x1="418.2" y1="379.0" x2="511.7" y2="379.0" stroke="#222" stroke-width="1.0"/><line x1="418.2" y1="382.0" x2="511.7" y2="382.0" stroke="#222" stroke-width="1.0"/><line x1="418.2" y1="385.0" x2="511.7" y2="385.0" stroke="#222" stroke-width="1.0"/><rect x="545.0" y="251.8" width="5.0" height="92.4" fill="#cfe2f3" stroke="none"/><rect x="550.0" y="251.8" width="5.0" height="92.4" fill="#fbfbf7" stroke="none"/><line x1="547.0" y1="344.2" x2="547.0" y2="251.8" stroke="#222" stroke-width="1.0"/><line x1="550.0" y1="344.2" x2="550.0" y2="251.8" stroke="#222" stroke-width="1.0"/><line x1="553.0" y1="344.2" x2="553.0" y2="251.8" stroke="#222" stroke-width="1.0"/><rect x="436.1" y="130.0" width="80.9" height="5.0" fill="#cfe2f3" stroke="none"/><rect x="436.1" y="125.0" width="80.9" height="5.0" fill="#fbfbf7" stroke="none"/><line x1="436.1" y1="127.0" x2="516.9" y2="127.0" stroke="#222" stroke-width="1.0"/><line x1="436.1" y1="130.0" x2="516.9" y2="130.0" stroke="#222" stroke-width="1.0"/><line x1="436.1" y1="133.0" x2="516.9" y2="133.0" stroke="#222" stroke-width="1.0"/><rect x="545.0" y="148.9" width="5.0" height="46.2" fill="#cfe2f3" stroke="none"/><rect x="550.0" y="148.9" width="5.0" height="46.2" fill="#fbfbf7" stroke="none"/><line x1="547.0" y1="195.1" x2="547.0" y2="148.9" stroke="#222" stroke-width="1.0"/><line x1="550.0" y1="195.1" x2="550.0" y2="148.9" stroke="#222" stroke-width="1.0"/><line x1="553.0" y1="195.1" x2="553.0" y2="148.9" stroke="#222" stroke-width="1.0"/></svg>