<svg xmlns="http://www.w3.org/2000/svg" width="638" height="659" viewBox="0 0 638 659"><rect x="0" y="0" width="638" height="659" fill="white"/><rect x="46.0" y="46.0" width="546.0" height="567.0" fill="#fbfbf7" stroke="#333" stroke-width="1.5"/><line x1="46.0" y1="46.0" x2="46.0" y2="38.0" stroke="#888" stroke-width="1"/><line x1="46.0" y1="613.0" x2="46.0" y2="621.0" stroke="#888" stroke-width="1"/><text x="46.0" y="36.0" text-anchor="middle" font-family="Arial" font-size="9" fill="#666">0</text><text x="46.0" y="629.0" text-anchor="middle" font-family="Arial" font-size="9" fill="#666">0</text><line x1="67.0" y1="46.0" x2="67.0" y2="42.0" stroke="#888" stroke-width="1"/><line x1="67.0" y1="613.0" x2="67.0" y2="617.0" stroke="#888" stroke-width="1"/><line x1="88.0" y1="46.0" x2="88.0" y2="38.0" stroke="#888" stroke-width="1"/><line x1="88.0" y1="613.0" x2="88.0" y2="621.0" stroke="#888" stroke-width="1"/><text x="88.0" y="36.0" text-anchor="middle" font-family="Arial" font-size="9" fill="#666">1</text><text x="88.0" y="629.0" text-anchor="middle" font-family="Arial" font-size="9" fill="#666">1</text><line x1="109.0" y1="46.0" x2="109.0" y2="42.0" stroke="#888" stroke-width="1"/><line x1="109.0" y1="613.0" x2="109.0" y2="617.0" stroke="#888" stroke-width="1"/><line x1="130.0" y1="46.0" x2="130.0" y2="38.0" stroke="#888" stroke-width="1"/><line x1="130.0" y1="613.0" x2="130.0" y2="621.0" stroke="#888" stroke-width="1"/><text x="130.0" y="36.0" text-anchor="middle" font-family="Arial" font-size="9" fill="#666">2</text><text x="130.0" y="629.0" text-anchor="middle" font-family="Arial" font-size="9" fill="#666">2</text><line x1="151.0" y1="46.0" x2="151.0" y2="42.0" stroke="#888" stroke-width="1"/><line x1="151.0" y1="613.0" x2="151.0" y2="617.0" stroke="#888" stroke-width="1"/><line x1="172.0" y1="46.0" x2="172.0" y2="38.0" stroke="#888" stroke-width="1"/><line x1="172.0" y1="613.0" x2="172.0" y2="621.0" stroke="#888" stroke-width="1"/><text x="172.0" y="36.0" text-anchor="middle" font-family="Arial" font-size="9" fill="#666">3</text><text x="172.0" y="629.0" text-anchor="middle" font-family="Arial" font-size="9" fill="#666">3</text><line x1="193.0" y1="46.0" x2="193.0" y2="42.0" stroke="#888" stroke-width="1"/><line x1="193.0" y1="613.0" x2="193.0" y2="617.0" stroke="#888" stroke-width="1"/><line x1="214.0" y1="46.0" x2="214.0" y2="38.0" stroke="#888" stroke-width="1"/><line x1="214.0" y1="613.0" x2="214.0" y2="621.0" stroke="#888" stroke-width="1"/><text x="214.0" y="36.0" text-anchor="middle" font-family="Arial" font-size="9" fill="#666">4</text><text x="214.0" y="629.0" text-anchor="middle" font-family="Arial" font-size="9" fill="#666">4</text><line x1="235.0" y1="46.0" x2="235.0" y2="42.0" stroke="#888" stroke-width="1"/><line x1="235.0" y1="613.0" x2="235.0" y2="617.0" stroke="#888" stroke-width="1"/><line x1="256.0" y1="46.0" x2="256.0" y2="38.0" stroke="#888" stroke-width="1"/><line x1="256.0" y1="613.0" x2="256.0" y2="621.0" stroke="#888" stroke-width="1"/><text x="256.0" y="36.0" text-anchor="middle" font-family="Arial" font-size="9" fill="#666">5</text><text x="256.0" y="629.0" text-anchor="middle" font-family="Arial" font-size="9" fill="#666">5</text><line x1="277.0" y1="46.0" x2="277.0" y2="42.0" stroke="#888" stroke-width="1"/><line x1="277.0" y1="613.0" x2="277.0" y2="617.0" stroke="#888" stroke-width="1"/><line x1="298.0" y1="46.0" x2="298.0" y2="38.0" stroke="#888" stroke-width="1"/><line x1="298.0" y1="613.0" x2="298.0" y2="621.0" stroke="#888" stroke-width="1"/><text x="298.0" y="36.0" text-anchor="middle" font-family="Arial" font-size="9" fill="#666">6</text><text x="298.0" y="629.0" text-anchor="middle" font-family="Arial" font-size="9" fill="#666">6</text><line x1="319.0" y1="46.0" x2="319.0" y2="42.0" stroke="#888" stroke-width="1"/><line x1="319.0" y1="613.0" x2="319.0" y2="617.0" stroke="#888" stroke-width="1"/><line x1="340.0" y1="46.0" x2="340.0" y2="38.0" stroke="#888" stroke-width="1"/><line x1="340.0" y1="613.0" x2="340.0" y2="621.0" stroke="#888" stroke-width="1"/><text x="340.0" y="36.0" text-anchor="middle" font-family="Arial" font-size="9" fill="#666">7</text><text x="340.0" y="629.0" text-anchor="middle" font-family="Arial" font-size="9" fill="#666">7</text><line x1="361.0" y1="46.0" x2="361.0" y2="42.0" stroke="#888" stroke-width="1"/><line x1="361.0" y1="613.0" x2="361.0" y2="617.0" stroke="#888" stroke-width="1"/><line x1="382.0" y1="46.0" x2="382.0" y2="38.0" stroke="#888" stroke-width="1"/><line x1="382.0" y1="613.0" x2="382.0" y2="621.0" stroke="#888" stroke-width="1"/><text x="382.0" y="36.0" text-anchor="middle" font-family="Arial" font-size="9" fill="#666">8</text><text x="382.0" y="629.0" text-anchor="middle" font-family="Arial" font-size="9" fill="#666">8</text><line x1="403.0" y1="46.0" x2="403.0" y2="42.0" stroke="#888" stroke-width="1"/><line x1="403.0" y1="613.0" x2="403.0" y2="617.0" stroke="#888" stroke-width="1"/><line x1="424.0" y1="46.0" x2="424.0" y2="38.0" stroke="#888" stroke-width="1"/><line x1="424.0" y1="613.0" x2="424.0" y2="621.0" stroke="#888" stroke-width="1"/><text x="424.0" y="36.0" text-anchor="middle" font-family="Arial" font-size="9" fill="#666">9</text><text x="424.0" y="629.0" text-anchor="middle" font-family="Arial" font-size="9" fill="#666">9</text><line x1="445.0" y1="46.0" x2="445.0" y2="42.0" stroke="#888" stroke-width="1"/><line x1="445.0" y1="613.0" x2="445.0" y2="617.0" stroke="#888" stroke-width="1"/><line x1="466.0" y1="46.0" x2="466.0" y2="38.0" stroke="#888" stroke-width="1"/><line x1="466.0" y1="613.0" x2="466.0" y2="621.0" stroke="#888" stroke-width="1"/><text x="466.0" y="36.0" text-anchor="middle" font-family="Arial" font-size="9" fill="#666">10</text><text x="466.0" y="629.0" text-anchor="middle" font-family="Arial" font-size="9" fill="#666">10</text><line x1="487.0" y1="46.0" x2="487.0" y2="42.0" stroke="#888" stroke-width="1"/><line x1="487.0" y1="613.0" x2="487.0" y2="617.0" stroke="#888" stroke-width="1"/><line x1="508.0" y1="46.0" x2="508.0" y2="38.0" stroke="#888" stroke-width="1"/><line x1="508.0" y1="613.0" x2="508.0" y2="621.0" stroke="#888" stroke-width="1"/><text x="508.0" y="36.0" text-anchor="middle" font-family="Arial" font-size="9" fill="#666">11</text><text x="508.0" y="629.0" text-anchor="middle" font-family="Arial" font-size="9" fill="#666">11</text><line x1="529.0" y1="46.0" x2="529.0" y2="42.0" stroke="#888" stroke-width="1"/><line x1="529.0" y1="613.0" x2="529.0" y2="617.0" stroke="#888" stroke-width="1"/><line x1="550.0" y1="46.0" x2="550.0" y2="38.0" stroke="#888" stroke-width="1"/><line x1="550.0" y1="613.0" x2="550.0" y2="621.0" stroke="#888" stroke-width="1"/><text x="550.0" y="36.0" text-anchor="middle" font-family="Arial" font-size="9" fill="#666">12</text><text x="550.0" y="629.0" text-anchor="middle" font-family="Arial" font-size="9" fill="#666">12</text><line x1="571.0" y1="46.0" x2="571.0" y2="42.0" stroke="#888" stroke-width="1"/><line x1="571.0" y1="613.0" x2="571.0" y2="617.0" stroke="#888" stroke-width="1"/><line x1="592.0" y1="46.0" x2="592.0" y2="38.0" stroke="#888" stroke-width="1"/><line x1="592.0" y1="613.0" x2="592.0" y2="621.0" stroke="#888" stroke-width="1"/><text x="592.0" y="36.0" text-anchor="middle" font-family="Arial" font-size="9" fill="#666">13</text><text x="592.0" y="629.0" text-anchor="middle" font-family="Arial" font-size="9" fill="#666">13</text><line x1="46.0" y1="613.0" x2="38.0" y2="613.0" stroke="#888" stroke-width="1"/><line x1="592.0" y1="613.0" x2="600.0" y2="613.0" stroke="#888" stroke-width="1"/><text x="36.0" y="616.0" text-anchor="end" font-family="Arial" font-size="9" fill="#666">0</text><text x="602.0" y="616.0" text-anchor="start" font-family="Arial" font-size="9" fill="#666">0</text><line x1="46.0" y1="592.0" x2="42.0" y2="592.0" stroke="#888" stroke-width="1"/><line x1="592.0" y1="592.0" x2="596.0" y2="592.0" stroke="#888" stroke-width="1"/><line x1="46.0" y1="571.0" x2="38.0" y2="571.0" stroke="#888" stroke-width="1"/><line x1="592.0" y1="571.0" x2="600.0" y2="571.0" stroke="#888" stroke-width="1"/><text x="36.0" y="574.0" text-anchor="end" font-family="Arial" font-size="9" fill="#666">1</text><text x="602.0" y="574.0" text-anchor="start" font-family="Arial" font-size="9" fill="#666">1</text><line x1="46.0" y1="550.0" x2="42.0" y2="550.0" stroke="#888" stroke-width="1"/><line x1="592.0" y1="550.0" x2="596.0" y2="550.0" stroke="#888" stroke-width="1"/><line x1="46.0" y1="529.0" x2="38.0" y2="529.0" stroke="#888" stroke-width="1"/><line x1="592.0" y1="529.0" x2="600.0" y2="529.0" stroke="#888" stroke-width="1"/><text x="36.0" y="532.0" text-anchor="end" font-family="Arial" font-size="9" fill="#666">2</text><text x="602.0" y="532.0" text-anchor="start" font-family="Arial" font-size="9" fill="#666">2</text><line x1="46.0" y1="508.0" x2="42.0" y2="508.0" stroke="#888" stroke-width="1"/><line x1="592.0" y1="508.0" x2="596.0" y2="508.0" stroke="#888" stroke-width="1"/><line x1="46.0" y1="487.0" x2="38.0" y2="487.0" stroke="#888" stroke-width="1"/><line x1="592.0" y1="487.0" x2="600.0" y2="487.0" stroke="#888" stroke-width="1"/><text x="36.0" y="490.0" text-anchor="end" font-family="Arial" font-size="9" fill="#666">3</text><text x="602.0" y="490.0" text-anchor="start" font-family="Arial" font-size="9" fill="#666">3</text><line x1="46.0" y1="466.0" x2="42.0" y2="466.0" stroke="#888" stroke-width="1"/><line x1="592.0" y1="466.0" x2="596.0" y2="466.0" stroke="#888" stroke-width="1"/><line x1="46.0" y1="445.0" x2="38.0" y2="445.0" stroke="#888" stroke-width="1"/><line x1="592.0" y1="445.0" x2="600.0" y2="445.0" stroke="#888" stroke-width="1"/><text x="36.0" y="448.0" text-anchor="end" font-family="Arial" font-size="9" fill="#666">4</text><text x="602.0" y="448.0" text-anchor="start" font-family="Arial" font-size="9" fill="#666">4</text><line x1="46.0" y1="424.0" x2="42.0" y2="424.0" stroke="#888" stroke-width="1"/><line x1="592.0" y1="424.0" x2="596.0" y2="424.0" stroke="#888" stroke-width="1"/><line x1="46.0" y1="403.0" x2="38.0" y2="403.0" stroke="#888" stroke-width="1"/><line x1="592.0" y1="403.0" x2="600.0" y2="403.0" stroke="#888" stroke-width="1"/><text x="36.0" y="406.0" text-anchor="end" font-family="Arial" font-size="9" fill="#666">5</text><text x="602.0" y="406.0" text-anchor="start" font-family="Arial" font-size="9" fill="#666">5</text><line x1="46.0" y1="382.0" x2="42.0" y2="382.0" stroke="#888" stroke-width="1"/><line x1="592.0" y1="382.0" x2="596.0" y2="382.0" stroke="#888" stroke-width="1"/><line x1="46.0" y1="361.0" x2="38.0" y2="361.0" stroke="#888" stroke-width="1"/><line x1="592.0" y1="361.0" x2="600.0" y2="361.0" stroke="#888" stroke-width="1"/><text x="36.0" y="364.0" text-anchor="end" font-family="Arial" font-size="9" fill="#666">6</text><text x="602.0" y="364.0" text-anchor="start" font-family="Arial" font-size="9" fill="#666">6</text><line x1="46.0" y1="340.0" x2="42.0" y2="340.0" stroke="#888" stroke-width="1"/><line x1="592.0" y1="340.0" x2="596.0" y2="340.0" stroke="#888" stroke-width="1"/><line x1="46.0" y1="319.0" x2="38.0" y2="319.0" stroke="#888" stroke-width="1"/><line x1="592.0" y1="319.0" x2="600.0" y2="319.0" stroke="#888" stroke-width="1"/><text x="36.0" y="322.0" text-anchor="end" font-family="Arial" font-size="9" fill="#666">7</text><text x="602.0" y="322.0" text-anchor="start" font-family="Arial" font-size="9" fill="#666">7</text><line x1="46.0" y1="298.0" x2="42.0" y2="298.0" stroke="#888" stroke-width="1"/><line x1="592.0" y1="298.0" x2="596.0" y2="298.0" stroke="#888" stroke-width="1"/><line x1="46.0" y1="277.0" x2="38.0" y2="277.0" stroke="#888" stroke-width="1"/><line x1="592.0" y1="277.0" x2="600.0" y2="277.0" stroke="#888" stroke-width="1"/><text x="36.0" y="280.0" text-anchor="end" font-family="Arial" font-size="9" fill="#666">8</text><text x="602.0" y="280.0" text-anchor="start" font-family="Arial" font-size="9" fill="#666">8</text><line x1="46.0" y1="256.0" x2="42.0" y2="256.0" stroke="#888" stroke-width="1"/><line x1="592.0" y1="256.0" x2="596.0" y2="256.0" stroke="#888" stroke-width="1"/><line x1="46.0" y1="235.0" x2="38.0" y2="235.0" stroke="#888" stroke-width="1"/><line x1="592.0" y1="235.0" x2="600.0" y2="235.0" stroke="#888" stroke-width="1"/><text x="36.0" y="238.0" text-anchor="end" font-family="Arial" font-size="9" fill="#666">9</text><text x="602.0" y="238.0" text-anchor="start" font-family="Arial" font-size="9" fill="#666">9</text><line x1="46.0" y1="214.0" x2="42.0" y2="214.0" stroke="#888" stroke-width="1"/><line x1="592.0" y1="214.0" x2="596.0" y2="214.0" stroke="#888" stroke-width="1"/><line x1="46.0" y1="193.0" x2="38.0" y2="193.0" stroke="#888" stroke-width="1"/><line x1="592.0" y1="193.0" x2="600.0" y2="193.0" stroke="#888" stroke-width="1"/><text x="36.0" y="196.0" text-anchor="end" font-family="Arial" font-size="9" fill="#666">10</text><text x="602.0" y="196.0" text-anchor="start" font-family="Arial" font-size="9" fill="#666">10</text><line x1="46.0" y1="172.0" x2="42.0" y2="172.0" stroke="#888" stroke-width="1"/><line x1="592.0" y1="172.0" x2="596.0" y2="172.0" stroke="#888" stroke-width="1"/><line x1="46.0" y1="151.0" x2="38.0" y2="151.0" stroke="#888" stroke-width="1"/><line x1="592.0" y1="151.0" x2="600.0" y2="151.0" stroke="#888" stroke-width="1"/><text x="36.0" y="154.0" text-anchor="end" font-family="Arial" font-size="9" fill="#666">11</text><text x="602.0" y="154.0" text-anchor="start" font-family="Arial" font-size="9" fill="#666">11</text><line x1="46.0" y1="130.0" x2="42.0" y2="130.0" stroke="#888" stroke-width="1"/><line x1="592.0" y1="130.0" x2="596.0" y2="130.0" stroke="#888" stroke-width="1"/><line x1="46.0" y1="109.0" x2="38.0" y2="109.0" stroke="#888" stroke-width="1"/><line x1="592.0" y1="109.0" x2="600.0" y2="109.0" stroke="#888" stroke-width="1"/><text x="36.0" y="112.0" text-anchor="end" font-family="Arial" font-size="9" fill="#666">12</text><text x="602.0" y="112.0" text-anchor="start" font-family="Arial" font-size="9" fill="#666">12</text><line x1="46.0" y1="88.0" x2="42.0" y2="88.0" stroke="#888" stroke-width="1"/><line x1="592.0" y1="88.0" x2="596.0" y2="88.0" stroke="#888" stroke-width="1"/><line x1="46.0" y1="67.0" x2="38.0" y2="67.0" stroke="#888" stroke-width="1"/><line x1="592.0" y1="67.0" x2="600.0" y2="67.0" stroke="#888" stroke-width="1"/><text x="36.0" y="70.0" text-anchor="end" font-family="Arial" font-size="9" fill="#666">13</text><text x="602.0" y="70.0" text-anchor="start" font-family="Arial" font-size="9" fill="#666">13</text><line x1="46.0" y1="46.0" x2="42.0" y2="46.0" stroke="#888" stroke-width="1"/><line x1="592.0" y1="46.0" x2="596.0" y2="46.0" stroke="#888" stroke-width="1"/><rect x="130.0" y="130.0" width="378.0" height="357.0" fill="none" stroke="#9aa" stroke-width="1" stroke-dasharray="3 3"/><rect x="131.3" y="488.3" width="220.1" height="60.5" fill="#f2f2f2" stroke="#333" stroke-width="1.5" stroke-dasharray="6 4"/><text x="241.3" y="515.9" text-anchor="middle" font-family="Arial" font-size="12" font-weight="bold" fill="#222">PORCH</text><text x="241.3" y="531.6" text-anchor="middle" font-family="Arial" font-size="10" fill="#555">5.3×1.5 m</text><rect x="197.2" y="130.0" width="155.4" height="117.6" fill="#d9ead3" stroke="#333" stroke-width="1.5"/><text x="274.9" y="186.2" text-anchor="middle" font-family="Arial" font-size="12" font-weight="bold" fill="#222">MASTER BR</text><text x="274.9" y="202.0" text-anchor="middle" font-family="Arial" font-size="10" fill="#555">3.7×2.8 m · 10.4 sqm</text><rect x="130.0" y="130.0" width="67.2" height="117.6" fill="#ead1dc" stroke="#333" stroke-width="1.5"/><text x="163.6" y="180.4" text-anchor="middle" font-family="Arial" font-size="12" font-weight="bold" fill="#222">ENSUITE</text><text x="163.6" y="196.2" text-anchor="middle" font-family="Arial" font-size="10" fill="#555">1.6×2.8 m</text><text x="163.6" y="207.7" text-anchor="middle" font-family="Arial" font-size="10" fill="#555">4.5 sqm</text><rect x="352.6" y="335.8" width="155.4" height="111.9" fill="#d9ead3" stroke="none"/><rect x="352.6" y="447.7" width="155.4" height="39.3" fill="#d9ead3" stroke="none"/><text x="430.3" y="389.1" text-anchor="middle" font-family="Arial" font-size="12" font-weight="bold" fill="#222">BEDROOM</text><text x="430.3" y="404.9" text-anchor="middle" font-family="Arial" font-size="10" fill="#555">13.3 sqm (L-shaped)</text><rect x="360.1" y="130.0" width="147.9" height="117.6" fill="#d9ead3" stroke="#333" stroke-width="1.5"/><text x="434.1" y="186.2" text-anchor="middle" font-family="Arial" font-size="12" font-weight="bold" fill="#222">BEDROOM</text><text x="434.1" y="202.0" text-anchor="middle" font-family="Arial" font-size="10" fill="#555">3.5×2.8 m · 9.9 sqm</text><rect x="411.4" y="247.6" width="96.6" height="88.2" fill="#ead1dc" stroke="#333" stroke-width="1.5"/><text x="459.7" y="283.3" text-anchor="middle" font-family="Arial" font-size="12" font-weight="bold" fill="#222">T&amp;B</text><text x="459.7" y="299.1" text-anchor="middle" font-family="Arial" font-size="10" fill="#555">2.3×2.1 m</text><text x="459.7" y="310.6" text-anchor="middle" font-family="Arial" font-size="10" fill="#555">4.8 sqm</text><rect x="293.8" y="247.6" width="117.6" height="88.2" fill="#efefef" stroke="#333" stroke-width="1.5"/><text x="352.6" y="283.3" text-anchor="middle" font-family="Arial" font-size="12" font-weight="bold" fill="#222">HALL</text><text x="352.6" y="299.1" text-anchor="middle" font-family="Arial" font-size="10" fill="#555">2.8×2.1 m</text><text x="352.6" y="310.6" text-anchor="middle" font-family="Arial" font-size="10" fill="#555">5.9 sqm</text><rect x="130.0" y="335.8" width="222.6" height="151.2" fill="#cfe2f3" stroke="#333" stroke-width="1.5"/><text x="241.3" y="408.8" text-anchor="middle" font-family="Arial" font-size="12" font-weight="bold" fill="#222">GREAT ROOM</text><text x="241.3" y="424.6" text-anchor="middle" font-family="Arial" font-size="10" fill="#555">5.3×3.6 m · 19.1 sqm</text><rect x="130.0" y="247.6" width="163.8" height="88.2" fill="#cfe2f3" stroke="#333" stroke-width="1.5"/><text x="211.9" y="289.1" text-anchor="middle" font-family="Arial" font-size="12" font-weight="bold" fill="#222">KITCHEN</text><text x="211.9" y="304.9" text-anchor="middle" font-family="Arial" font-size="10" fill="#555">3.9×2.1 m · 8.2 sqm</text><text x="319.0" y="647.0" text-anchor="middle" font-family="Arial" font-size="12" font-weight="bold" fill="#888">FRONT (street)</text><rect x="195.10" y="130.00" width="4.20" height="117.60" fill="#555" stroke="none"/><rect x="293.80" y="245.50" width="58.80" height="4.20" fill="#555" stroke="none"/><rect x="197.20" y="245.50" width="96.60" height="4.20" fill="#555" stroke="none"/><rect x="130.00" y="245.50" width="67.20" height="4.20" fill="#555" stroke="none"/><rect x="411.40" y="333.70" width="96.60" height="4.20" fill="#555" stroke="none"/><rect x="352.60" y="333.70" width="58.80" height="4.20" fill="#555" stroke="none"/><rect x="350.50" y="335.80" width="4.20" height="111.93" fill="#555" stroke="none"/><rect x="350.50" y="447.73" width="4.20" height="39.27" fill="#555" stroke="none"/><rect x="411.40" y="245.50" width="96.60" height="4.20" fill="#555" stroke="none"/><rect x="360.10" y="245.50" width="51.30" height="4.20" fill="#555" stroke="none"/><rect x="409.30" y="247.60" width="4.20" height="88.20" fill="#555" stroke="none"/><rect x="291.70" y="247.60" width="4.20" height="88.20" fill="#555" stroke="none"/><rect x="197.20" y="125.80" width="155.40" height="8.40" fill="#555" stroke="none"/><rect x="348.40" y="130.00" width="8.40" height="117.60" fill="#555" stroke="none"/><rect x="130.00" y="125.80" width="67.20" height="8.40" fill="#555" stroke="none"/><rect x="125.80" y="130.00" width="8.40" height="117.60" fill="#555" stroke="none"/><rect x="503.80" y="335.80" width="8.40" height="111.93" fill="#555" stroke="none"/><rect x="352.60" y="482.80" width="155.40" height="8.40" fill="#555" stroke="none"/><rect x="503.80" y="447.73" width="8.40" height="39.27" fill="#555" stroke="none"/><rect x="360.10" y="125.80" width="147.90" height="8.40" fill="#555" stroke="none"/><rect x="503.80" y="130.00" width="8.40" height="117.60" fill="#555" stroke="none"/><rect x="355.90" y="130.00" width="8.40" height="117.60" fill="#555" stroke="none"/><rect x="503.80" y="247.60" width="8.40" height="88.20" fill="#555" stroke="none"/><rect x="352.60" y="243.40" width="7.50" height="8.40" fill="#555" stroke="none"/><rect x="130.00" y="482.80" width="222.60" height="8.40" fill="#555" stroke="none"/><rect x="125.80" y="335.80" width="8.40" height="151.20" fill="#555" stroke="none"/><rect x="125.80" y="247.60" width="8.40" height="88.20" fill="#555" stroke="none"/><rect x="195.10" y="245.50" width="4.20" height="4.20" fill="#555" stroke="none"/><rect x="193.00" y="125.80" width="8.40" height="8.40" fill="#555" stroke="none"/><rect x="291.70" y="245.50" width="4.20" height="4.20" fill="#555" stroke="none"/><rect x="348.40" y="243.40" width="8.40" height="8.40" fill="#555" stroke="none"/><rect x="195.10" y="245.50" width="4.20" height="4.20" fill="#555" stroke="none"/><rect x="291.70" y="245.50" width="4.20" height="4.20" fill="#555" stroke="none"/><rect x="125.80" y="243.40" width="8.40" height="8.40" fill="#555" stroke="none"/><rect x="195.10" y="245.50" width="4.20" height="4.20" fill="#555" stroke="none"/><rect x="409.30" y="333.70" width="4.20" height="4.20" fill="#555" stroke="none"/><rect x="503.80" y="331.60" width="8.40" height="8.40" fill="#555" stroke="none"/><rect x="409.30" y="333.70" width="4.20" height="4.20" fill="#555" stroke="none"/><rect x="348.40" y="482.80" width="8.40" height="8.40" fill="#555" stroke="none"/><rect x="409.30" y="245.50" width="4.20" height="4.20" fill="#555" stroke="none"/><rect x="503.80" y="243.40" width="8.40" height="8.40" fill="#555" stroke="none"/><rect x="355.90" y="243.40" width="8.40" height="8.40" fill="#555" stroke="none"/><rect x="409.30" y="245.50" width="4.20" height="4.20" fill="#555" stroke="none"/><rect x="409.30" y="333.70" width="4.20" height="4.20" fill="#555" stroke="none"/><rect x="409.30" y="245.50" width="4.20" height="4.20" fill="#555" stroke="none"/><rect x="291.70" y="245.50" width="4.20" height="4.20" fill="#555" stroke="none"/><rect x="193.00" y="125.80" width="8.40" height="8.40" fill="#555" stroke="none"/><rect x="348.40" y="125.80" width="8.40" height="8.40" fill="#555" stroke="none"/><rect x="348.40" y="243.40" width="8.40" height="8.40" fill="#555" stroke="none"/><rect x="348.40" y="125.80" width="8.40" height="8.40" fill="#555" stroke="none"/><rect x="125.80" y="125.80" width="8.40" height="8.40" fill="#555" stroke="none"/><rect x="193.00" y="125.80" width="8.40" height="8.40" fill="#555" stroke="none"/><rect x="125.80" y="243.40" width="8.40" height="8.40" fill="#555" stroke="none"/><rect x="125.80" y="125.80" width="8.40" height="8.40" fill="#555" stroke="none"/><rect x="503.80" y="331.60" width="8.40" height="8.40" fill="#555" stroke="none"/><rect x="348.40" y="482.80" width="8.40" height="8.40" fill="#555" stroke="none"/><rect x="503.80" y="482.80" width="8.40" height="8.40" fill="#555" stroke="none"/><rect x="503.80" y="482.80" width="8.40" height="8.40" fill="#555" stroke="none"/><rect x="355.90" y="125.80" width="8.40" height="8.40" fill="#555" stroke="none"/><rect x="503.80" y="125.80" width="8.40" height="8.40" fill="#555" stroke="none"/><rect x="503.80" y="243.40" width="8.40" height="8.40" fill="#555" stroke="none"/><rect x="503.80" y="125.80" width="8.40" height="8.40" fill="#555" stroke="none"/><rect x="355.90" y="243.40" width="8.40" height="8.40" fill="#555" stroke="none"/><rect x="355.90" y="125.80" width="8.40" height="8.40" fill="#555" stroke="none"/><rect x="503.80" y="331.60" width="8.40" height="8.40" fill="#555" stroke="none"/><rect x="503.80" y="243.40" width="8.40" height="8.40" fill="#555" stroke="none"/><rect x="125.80" y="482.80" width="8.40" height="8.40" fill="#555" stroke="none"/><rect x="348.40" y="482.80" width="8.40" height="8.40" fill="#555" stroke="none"/><rect x="125.80" y="482.80" width="8.40" height="8.40" fill="#555" stroke="none"/><rect x="125.80" y="243.40" width="8.40" height="8.40" fill="#555" stroke="none"/><rect x="293.8" y="330.8" width="56.7" height="5.0" fill="#efefef" stroke="none"/><rect x="293.8" y="335.8" width="56.7" height="5.0" fill="#cfe2f3" stroke="none"/><rect x="132.1" y="335.8" width="161.7" height="5.0" fill="#cfe2f3" stroke="none"/><rect x="132.1" y="330.8" width="161.7" height="5.0" fill="#cfe2f3" stroke="none"/><rect x="197.2" y="211.9" width="5.0" height="29.4" fill="#d9ead3" stroke="none"/><rect x="192.2" y="211.9" width="5.0" height="29.4" fill="#ead1dc" stroke="none"/><line x1="197.2" y1="241.3" x2="167.8" y2="241.3" stroke="#444" stroke-width="1.4"/><path d="M 167.8 241.3 A 29.4 29.4 0 0 1 197.2 211.9" fill="none" stroke="#999" stroke-width="0.7" stroke-dasharray="2 2"/><rect x="312.7" y="242.6" width="33.6" height="5.0" fill="#d9ead3" stroke="none"/><rect x="312.7" y="247.6" width="33.6" height="5.0" fill="#efefef" stroke="none"/><line x1="346.3" y1="247.6" x2="346.3" y2="214.0" stroke="#444" stroke-width="1.4"/><path d="M 346.3 214.0 A 33.6 33.6 0 0 0 312.7 247.6" fill="none" stroke="#999" stroke-width="0.7" stroke-dasharray="2 2"/><rect x="366.4" y="242.6" width="33.6" height="5.0" fill="#d9ead3" stroke="none"/><rect x="366.4" y="247.6" width="33.6" height="5.0" fill="#efefef" stroke="none"/><line x1="366.4" y1="247.6" x2="366.4" y2="214.0" stroke="#444" stroke-width="1.4"/><path d="M 366.4 214.0 A 33.6 33.6 0 0 1 400.0 247.6" fill="none" stroke="#999" stroke-width="0.7" stroke-dasharray="2 2"/><rect x="411.4" y="300.1" width="5.0" height="29.4" fill="#ead1dc" stroke="none"/><rect x="406.4" y="300.1" width="5.0" height="29.4" fill="#efefef" stroke="none"/><line x1="411.4" y1="329.5" x2="440.8" y2="329.5" stroke="#444" stroke-width="1.4"/><path d="M 440.8 329.5 A 29.4 29.4 0 0 0 411.4 300.1" fill="none" stroke="#999" stroke-width="0.7" stroke-dasharray="2 2"/><rect x="352.6" y="342.1" width="5.0" height="33.6" fill="#d9ead3" stroke="none"/><rect x="347.6" y="342.1" width="5.0" height="33.6" fill="#cfe2f3" stroke="none"/><line x1="352.6" y1="342.1" x2="386.2" y2="342.1" stroke="#444" stroke-width="1.4"/><path d="M 386.2 342.1 A 33.6 33.6 0 0 1 352.6 375.7" fill="none" stroke="#999" stroke-width="0.7" stroke-dasharray="2 2"/><rect x="136.3" y="482.0" width="37.8" height="5.0" fill="#cfe2f3" stroke="none"/><rect x="136.3" y="487.0" width="37.8" height="5.0" fill="#fbfbf7" stroke="none"/><line x1="136.3" y1="487.0" x2="136.3" y2="449.2" stroke="#444" stroke-width="1.4"/><path d="M 136.3 449.2 A 37.8 37.8 0 0 1 174.1 487.0" fill="none" stroke="#999" stroke-width="0.7" stroke-dasharray="2 2"/><rect x="130.0" y="253.9" width="5.0" height="33.6" fill="#cfe2f3" stroke="none"/><rect x="125.0" y="253.9" width="5.0" height="33.6" fill="#fbfbf7" stroke="none"/><line x1="130.0" y1="253.9" x2="163.6" y2="253.9" stroke="#444" stroke-width="1.4"/><path d="M 163.6 253.9 A 33.6 33.6 0 0 1 130.0 287.5" fill="none" stroke="#999" stroke-width="0.7" stroke-dasharray="2 2"/><rect x="232.1" y="130.0" width="85.5" height="5.0" fill="#d9ead3" stroke="none"/><rect x="232.1" y="125.0" width="85.5" height="5.0" fill="#fbfbf7" stroke="none"/><line x1="232.1" y1="127.0" x2="317.6" y2="127.0" stroke="#222" stroke-width="1.0"/><line x1="232.1" y1="130.0" x2="317.6" y2="130.0" stroke="#222" stroke-width="1.0"/><line x1="232.1" y1="133.0" x2="317.6" y2="133.0" stroke="#222" stroke-width="1.0"/><rect x="347.6" y="156.5" width="5.0" height="64.7" fill="#d9ead3" stroke="none"/><rect x="352.6" y="156.5" width="5.0" height="64.7" fill="#fbfbf7" stroke="none"/><line x1="349.6" y1="221.1" x2="349.6" y2="156.5" stroke="#222" stroke-width="1.0"/><line x1="352.6" y1="221.1" x2="352.6" y2="156.5" stroke="#222" stroke-width="1.0"/><line x1="355.6" y1="221.1" x2="355.6" y2="156.5" stroke="#222" stroke-width="1.0"/><rect x="130.0" y="169.9" width="5.0" height="37.8" fill="#ead1dc" stroke="none"/><rect x="125.0" y="169.9" width="5.0" height="37.8" fill="#fbfbf7" stroke="none"/><line x1="127.0" y1="207.7" x2="127.0" y2="169.9" stroke="#222" stroke-width="1.0"/><line x1="130.0" y1="207.7" x2="130.0" y2="169.9" stroke="#222" stroke-width="1.0"/><line x1="133.0" y1="207.7" x2="133.0" y2="169.9" stroke="#222" stroke-width="1.0"/><rect x="146.8" y="130.0" width="33.6" height="5.0" fill="#ead1dc" stroke="none"/><rect x="146.8" y="125.0" width="33.6" height="5.0" fill="#fbfbf7" stroke="none"/><line x1="146.8" y1="127.0" x2="180.4" y2="127.0" stroke="#222" stroke-width="1.0"/><line x1="146.8" y1="130.0" x2="180.4" y2="130.0" stroke="#222" stroke-width="1.0"/><line x1="146.8" y1="133.0" x2="180.4" y2="133.0" stroke="#222" stroke-width="1.0"/><rect x="503.0" y="361.0" width="5.0" height="61.6" fill="#d9ead3" stroke="none"/><rect x="508.0" y="361.0" width="5.0" height="61.6" fill="#fbfbf7" stroke="none"/><line x1="505.0" y1="422.5" x2="505.0" y2="361.0" stroke="#222" stroke-width="1.0"/><line x1="508.0" y1="422.5" x2="508.0" y2="361.0" stroke="#222" stroke-width="1.0"/><line x1="511.0" y1="422.5" x2="511.0" y2="361.0" stroke="#222" stroke-width="1.0"/><rect x="387.6" y="482.0" width="85.5" height="5.0" fill="#d9ead3" stroke="none"/><rect x="387.6" y="487.0" width="85.5" height="5.0" fill="#fbfbf7" stroke="none"/><line x1="387.6" y1="484.0" x2="473.1" y2="484.0" stroke="#222" stroke-width="1.0"/><line x1="387.6" y1="487.0" x2="473.1" y2="487.0" stroke="#222" stroke-width="1.0"/><line x1="387.6" y1="490.0" x2="473.1" y2="490.0" stroke="#222" stroke-width="1.0"/><rect x="393.4" y="130.0" width="81.4" height="5.0" fill="#d9ead3" stroke="none"/><rect x="393.4" y="125.0" width="81.4" height="5.0" fill="#fbfbf7" stroke="none"/><line x1="393.4" y1="127.0" x2="474.7" y2="127.0" stroke="#222" stroke-width="1.0"/><line x1="393.4" y1="130.0" x2="474.7" y2="130.0" stroke="#222" stroke-width="1.0"/><line x1="393.4" y1="133.0" x2="474.7" y2="133.0" stroke="#222" stroke-width="1.0"/><rect x="503.0" y="156.5" width="5.0" height="64.7" fill="#d9ead3" stroke="none"/><rect x="508.0" y="156.5" width="5.0" height="64.7" fill="#fbfbf7" stroke="none"/><line x1="505.0" y1="221.1" x2="505.0" y2="156.5" stroke="#222" stroke-width="1.0"/><line x1="508.0" y1="221.1" x2="508.0" y2="156.5" stroke="#222" stroke-width="1.0"/><line x1="511.0" y1="221.1" x2="511.0" y2="156.5" stroke="#222" stroke-width="1.0"/><rect x="360.1" y="156.5" width="5.0" height="64.7" fill="#d9ead3" stroke="none"/><rect x="355.1" y="156.5" width="5.0" height="64.7" fill="#fbfbf7" stroke="none"/><line x1="357.1" y1="221.1" x2="357.1" y2="156.5" stroke="#222" stroke-width="1.0"/><line x1="360.1" y1="221.1" x2="360.1" y2="156.5" stroke="#222" stroke-width="1.0"/><line x1="363.1" y1="221.1" x2="363.1" y2="156.5" stroke="#222" stroke-width="1.0"/><rect x="503.0" y="272.8" width="5.0" height="37.8" fill="#ead1dc" stroke="none"/><rect x="508.0" y="272.8" width="5.0" height="37.8" fill="#fbfbf7" stroke="none"/><line x1="505.0" y1="310.6" x2="505.0" y2="272.8" stroke="#222" stroke-width="1.0"/><line x1="508.0" y1="310.6" x2="508.0" y2="272.8" stroke="#222" stroke-width="1.0"/><line x1="511.0" y1="310.6" x2="511.0" y2="272.8" stroke="#222" stroke-width="1.0"/><rect x="224.0" y="482.0" width="91.2" height="5.0" fill="#cfe2f3" stroke="none"/><rect x="224.0" y="487.0" width="91.2" height="5.0" fill="#fbfbf7" stroke="none"/><line x1="224.0" y1="484.0" x2="315.3" y2="484.0" stroke="#222" stroke-width="1.0"/><line x1="224.0" y1="487.0" x2="315.3" y2="487.0" stroke="#222" stroke-width="1.0"/><line x1="224.0" y1="490.0" x2="315.3" y2="490.0" stroke="#222" stroke-width="1.0"/><rect x="130.0" y="369.8" width="5.0" height="83.2" fill="#cfe2f3" stroke="none"/><rect x="125.0" y="369.8" width="5.0" height="83.2" fill="#fbfbf7" stroke="none"/><line x1="127.0" y1="453.0" x2="127.0" y2="369.8" stroke="#222" stroke-width="1.0"/><line x1="130.0" y1="453.0" x2="130.0" y2="369.8" stroke="#222" stroke-width="1.0"/><line x1="133.0" y1="453.0" x2="133.0" y2="369.8" stroke="#222" stroke-width="1.0"/></svg>