<svg xmlns="http://www.w3.org/2000/svg" width="880" height="546" viewBox="0 0 880 546"><rect x="0" y="0" width="880" height="546" fill="white"/><text x="214" y="22" text-anchor="middle" font-family="Helvetica, Arial, sans-serif" font-size="15" font-weight="bold" letter-spacing="2">GROUND FLOOR</text><svg x="0" y="34" xmlns="http://www.w3.org/2000/svg" width="428" height="512" viewBox="0 0 428 512"><rect x="0" y="0" width="428" height="512" fill="white"/><rect x="46.0" y="46.0" width="336.0" height="420.0" fill="#fbfbf7" stroke="#333" stroke-width="1.5"/><line x1="46.0" y1="46.0" x2="46.0" y2="38.0" stroke="#888" stroke-width="1"/><line x1="46.0" y1="466.0" x2="46.0" y2="474.0" stroke="#888" stroke-width="1"/><text x="46.0" y="36.0" text-anchor="middle" font-family="Arial" font-size="9" fill="#666">0</text><text x="46.0" y="482.0" text-anchor="middle" font-family="Arial" font-size="9" fill="#666">0</text><line x1="67.0" y1="46.0" x2="67.0" y2="42.0" stroke="#888" stroke-width="1"/><line x1="67.0" y1="466.0" x2="67.0" y2="470.0" stroke="#888" stroke-width="1"/><line x1="88.0" y1="46.0" x2="88.0" y2="38.0" stroke="#888" stroke-width="1"/><line x1="88.0" y1="466.0" x2="88.0" y2="474.0" stroke="#888" stroke-width="1"/><text x="88.0" y="36.0" text-anchor="middle" font-family="Arial" font-size="9" fill="#666">1</text><text x="88.0" y="482.0" text-anchor="middle" font-family="Arial" font-size="9" fill="#666">1</text><line x1="109.0" y1="46.0" x2="109.0" y2="42.0" stroke="#888" stroke-width="1"/><line x1="109.0" y1="466.0" x2="109.0" y2="470.0" stroke="#888" stroke-width="1"/><line x1="130.0" y1="46.0" x2="130.0" y2="38.0" stroke="#888" stroke-width="1"/><line x1="130.0" y1="466.0" x2="130.0" y2="474.0" stroke="#888" stroke-width="1"/><text x="130.0" y="36.0" text-anchor="middle" font-family="Arial" font-size="9" fill="#666">2</text><text x="130.0" y="482.0" text-anchor="middle" font-family="Arial" font-size="9" fill="#666">2</text><line x1="151.0" y1="46.0" x2="151.0" y2="42.0" stroke="#888" stroke-width="1"/><line x1="151.0" y1="466.0" x2="151.0" y2="470.0" stroke="#888" stroke-width="1"/><line x1="172.0" y1="46.0" x2="172.0" y2="38.0" stroke="#888" stroke-width="1"/><line x1="172.0" y1="466.0" x2="172.0" y2="474.0" stroke="#888" stroke-width="1"/><text x="172.0" y="36.0" text-anchor="middle" font-family="Arial" font-size="9" fill="#666">3</text><text x="172.0" y="482.0" text-anchor="middle" font-family="Arial" font-size="9" fill="#666">3</text><line x1="193.0" y1="46.0" x2="193.0" y2="42.0" stroke="#888" stroke-width="1"/><line x1="193.0" y1="466.0" x2="193.0" y2="470.0" stroke="#888" stroke-width="1"/><line x1="214.0" y1="46.0" x2="214.0" y2="38.0" stroke="#888" stroke-width="1"/><line x1="214.0" y1="466.0" x2="214.0" y2="474.0" stroke="#888" stroke-width="1"/><text x="214.0" y="36.0" text-anchor="middle" font-family="Arial" font-size="9" fill="#666">4</text><text x="214.0" y="482.0" text-anchor="middle" font-family="Arial" font-size="9" fill="#666">4</text><line x1="235.0" y1="46.0" x2="235.0" y2="42.0" stroke="#888" stroke-width="1"/><line x1="235.0" y1="466.0" x2="235.0" y2="470.0" stroke="#888" stroke-width="1"/><line x1="256.0" y1="46.0" x2="256.0" y2="38.0" stroke="#888" stroke-width="1"/><line x1="256.0" y1="466.0" x2="256.0" y2="474.0" stroke="#888" stroke-width="1"/><text x="256.0" y="36.0" text-anchor="middle" font-family="Arial" font-size="9" fill="#666">5</text><text x="256.0" y="482.0" text-anchor="middle" font-family="Arial" font-size="9" fill="#666">5</text><line x1="277.0" y1="46.0" x2="277.0" y2="42.0" stroke="#888" stroke-width="1"/><line x1="277.0" y1="466.0" x2="277.0" y2="470.0" stroke="#888" stroke-width="1"/><line x1="298.0" y1="46.0" x2="298.0" y2="38.0" stroke="#888" stroke-width="1"/><line x1="298.0" y1="466.0" x2="298.0" y2="474.0" stroke="#888" stroke-width="1"/><text x="298.0" y="36.0" text-anchor="middle" font-family="Arial" font-size="9" fill="#666">6</text><text x="298.0" y="482.0" text-anchor="middle" font-family="Arial" font-size="9" fill="#666">6</text><line x1="319.0" y1="46.0" x2="319.0" y2="42.0" stroke="#888" stroke-width="1"/><line x1="319.0" y1="466.0" x2="319.0" y2="470.0" stroke="#888" stroke-width="1"/><line x1="340.0" y1="46.0" x2="340.0" y2="38.0" stroke="#888" stroke-width="1"/><line x1="340.0" y1="466.0" x2="340.0" y2="474.0" stroke="#888" stroke-width="1"/><text x="340.0" y="36.0" text-anchor="middle" font-family="Arial" font-size="9" fill="#666">7</text><text x="340.0" y="482.0" text-anchor="middle" font-family="Arial" font-size="9" fill="#666">7</text><line x1="361.0" y1="46.0" x2="361.0" y2="42.0" stroke="#888" stroke-width="1"/><line x1="361.0" y1="466.0" x2="361.0" y2="470.0" stroke="#888" stroke-width="1"/><line x1="382.0" y1="46.0" x2="382.0" y2="38.0" stroke="#888" stroke-width="1"/><line x1="382.0" y1="466.0" x2="382.0" y2="474.0" stroke="#888" stroke-width="1"/><text x="382.0" y="36.0" text-anchor="middle" font-family="Arial" font-size="9" fill="#666">8</text><text x="382.0" y="482.0" text-anchor="middle" font-family="Arial" font-size="9" fill="#666">8</text><line x1="46.0" y1="466.0" x2="38.0" y2="466.0" stroke="#888" stroke-width="1"/><line x1="382.0" y1="466.0" x2="390.0" y2="466.0" stroke="#888" stroke-width="1"/><text x="36.0" y="469.0" text-anchor="end" font-family="Arial" font-size="9" fill="#666">0</text><text x="392.0" y="469.0" text-anchor="start" font-family="Arial" font-size="9" fill="#666">0</text><line x1="46.0" y1="445.0" x2="42.0" y2="445.0" stroke="#888" stroke-width="1"/><line x1="382.0" y1="445.0" x2="386.0" y2="445.0" stroke="#888" stroke-width="1"/><line x1="46.0" y1="424.0" x2="38.0" y2="424.0" stroke="#888" stroke-width="1"/><line x1="382.0" y1="424.0" x2="390.0" y2="424.0" stroke="#888" stroke-width="1"/><text x="36.0" y="427.0" text-anchor="end" font-family="Arial" font-size="9" fill="#666">1</text><text x="392.0" y="427.0" text-anchor="start" font-family="Arial" font-size="9" fill="#666">1</text><line x1="46.0" y1="403.0" x2="42.0" y2="403.0" stroke="#888" stroke-width="1"/><line x1="382.0" y1="403.0" x2="386.0" y2="403.0" stroke="#888" stroke-width="1"/><line x1="46.0" y1="382.0" x2="38.0" y2="382.0" stroke="#888" stroke-width="1"/><line x1="382.0" y1="382.0" x2="390.0" y2="382.0" stroke="#888" stroke-width="1"/><text x="36.0" y="385.0" text-anchor="end" font-family="Arial" font-size="9" fill="#666">2</text><text x="392.0" y="385.0" text-anchor="start" font-family="Arial" font-size="9" fill="#666">2</text><line x1="46.0" y1="361.0" x2="42.0" y2="361.0" stroke="#888" stroke-width="1"/><line x1="382.0" y1="361.0" x2="386.0" y2="361.0" stroke="#888" stroke-width="1"/><line x1="46.0" y1="340.0" x2="38.0" y2="340.0" stroke="#888" stroke-width="1"/><line x1="382.0" y1="340.0" x2="390.0" y2="340.0" stroke="#888" stroke-width="1"/><text x="36.0" y="343.0" text-anchor="end" font-family="Arial" font-size="9" fill="#666">3</text><text x="392.0" y="343.0" text-anchor="start" font-family="Arial" font-size="9" fill="#666">3</text><line x1="46.0" y1="319.0" x2="42.0" y2="319.0" stroke="#888" stroke-width="1"/><line x1="382.0" y1="319.0" x2="386.0" y2="319.0" stroke="#888" stroke-width="1"/><line x1="46.0" y1="298.0" x2="38.0" y2="298.0" stroke="#888" stroke-width="1"/><line x1="382.0" y1="298.0" x2="390.0" y2="298.0" stroke="#888" stroke-width="1"/><text x="36.0" y="301.0" text-anchor="end" font-family="Arial" font-size="9" fill="#666">4</text><text x="392.0" y="301.0" text-anchor="start" font-family="Arial" font-size="9" fill="#666">4</text><line x1="46.0" y1="277.0" x2="42.0" y2="277.0" stroke="#888" stroke-width="1"/><line x1="382.0" y1="277.0" x2="386.0" y2="277.0" stroke="#888" stroke-width="1"/><line x1="46.0" y1="256.0" x2="38.0" y2="256.0" stroke="#888" stroke-width="1"/><line x1="382.0" y1="256.0" x2="390.0" y2="256.0" stroke="#888" stroke-width="1"/><text x="36.0" y="259.0" text-anchor="end" font-family="Arial" font-size="9" fill="#666">5</text><text x="392.0" y="259.0" text-anchor="start" font-family="Arial" font-size="9" fill="#666">5</text><line x1="46.0" y1="235.0" x2="42.0" y2="235.0" stroke="#888" stroke-width="1"/><line x1="382.0" y1="235.0" x2="386.0" y2="235.0" stroke="#888" stroke-width="1"/><line x1="46.0" y1="214.0" x2="38.0" y2="214.0" stroke="#888" stroke-width="1"/><line x1="382.0" y1="214.0" x2="390.0" y2="214.0" stroke="#888" stroke-width="1"/><text x="36.0" y="217.0" text-anchor="end" font-family="Arial" font-size="9" fill="#666">6</text><text x="392.0" y="217.0" text-anchor="start" font-family="Arial" font-size="9" fill="#666">6</text><line x1="46.0" y1="193.0" x2="42.0" y2="193.0" stroke="#888" stroke-width="1"/><line x1="382.0" y1="193.0" x2="386.0" y2="193.0" stroke="#888" stroke-width="1"/><line x1="46.0" y1="172.0" x2="38.0" y2="172.0" stroke="#888" stroke-width="1"/><line x1="382.0" y1="172.0" x2="390.0" y2="172.0" stroke="#888" stroke-width="1"/><text x="36.0" y="175.0" text-anchor="end" font-family="Arial" font-size="9" fill="#666">7</text><text x="392.0" y="175.0" text-anchor="start" font-family="Arial" font-size="9" fill="#666">7</text><line x1="46.0" y1="151.0" x2="42.0" y2="151.0" stroke="#888" stroke-width="1"/><line x1="382.0" y1="151.0" x2="386.0" y2="151.0" stroke="#888" stroke-width="1"/><line x1="46.0" y1="130.0" x2="38.0" y2="130.0" stroke="#888" stroke-width="1"/><line x1="382.0" y1="130.0" x2="390.0" y2="130.0" stroke="#888" stroke-width="1"/><text x="36.0" y="133.0" text-anchor="end" font-family="Arial" font-size="9" fill="#666">8</text><text x="392.0" y="133.0" text-anchor="start" font-family="Arial" font-size="9" fill="#666">8</text><line x1="46.0" y1="109.0" x2="42.0" y2="109.0" stroke="#888" stroke-width="1"/><line x1="382.0" y1="109.0" x2="386.0" y2="109.0" stroke="#888" stroke-width="1"/><line x1="46.0" y1="88.0" x2="38.0" y2="88.0" stroke="#888" stroke-width="1"/><line x1="382.0" y1="88.0" x2="390.0" y2="88.0" stroke="#888" stroke-width="1"/><text x="36.0" y="91.0" text-anchor="end" font-family="Arial" font-size="9" fill="#666">9</text><text x="392.0" y="91.0" text-anchor="start" font-family="Arial" font-size="9" fill="#666">9</text><line x1="46.0" y1="67.0" x2="42.0" y2="67.0" stroke="#888" stroke-width="1"/><line x1="382.0" y1="67.0" x2="386.0" y2="67.0" stroke="#888" stroke-width="1"/><line x1="46.0" y1="46.0" x2="38.0" y2="46.0" stroke="#888" stroke-width="1"/><line x1="382.0" y1="46.0" x2="390.0" y2="46.0" stroke="#888" stroke-width="1"/><text x="36.0" y="49.0" text-anchor="end" font-family="Arial" font-size="9" fill="#666">10</text><text x="392.0" y="49.0" text-anchor="start" font-family="Arial" font-size="9" fill="#666">10</text><rect x="130.0" y="130.0" width="168.0" height="252.0" fill="none" stroke="#9aa" stroke-width="1" stroke-dasharray="3 3"/><rect x="131.3" y="383.3" width="165.5" height="60.5" fill="#f2f2f2" stroke="#333" stroke-width="1.5" stroke-dasharray="6 4"/><text x="214.0" y="410.9" text-anchor="middle" font-family="Arial" font-size="12" font-weight="bold" fill="#222">PORCH</text><text x="214.0" y="426.7" text-anchor="middle" font-family="Arial" font-size="10" fill="#555">4.0×1.5 m</text><rect x="130.0" y="277.0" width="168.0" height="105.0" fill="#cfe2f3" stroke="#333" stroke-width="1.5"/><text x="214.0" y="326.9" text-anchor="middle" font-family="Arial" font-size="12" font-weight="bold" fill="#222">GREAT ROOM</text><text x="214.0" y="342.7" text-anchor="middle" font-family="Arial" font-size="10" fill="#555">4.0×2.5 m · 10.0 sqm</text><rect x="209.8" y="130.0" width="88.2" height="147.0" fill="#cfe2f3" stroke="none"/><rect x="167.8" y="130.0" width="42.0" height="42.0" fill="#cfe2f3" stroke="none"/><text x="253.9" y="200.8" text-anchor="middle" font-family="Arial" font-size="12" font-weight="bold" fill="#222">KITCHEN</text><text x="253.9" y="216.7" text-anchor="middle" font-family="Arial" font-size="10" fill="#555">8.3 sqm L</text><rect x="167.8" y="172.0" width="42.0" height="105.0" fill="#ead1dc" stroke="#333" stroke-width="1.5"/><text x="188.8" y="221.8" text-anchor="middle" font-family="Arial" font-size="12" font-weight="bold" fill="#222">T&amp;B</text><text x="188.8" y="237.7" text-anchor="middle" font-family="Arial" font-size="10" fill="#555">2.5 sqm</text><rect x="130.0" y="130.0" width="37.8" height="147.0" fill="#efefef" stroke="#333" stroke-width="1.5"/><line x1="130.0" y1="264.8" x2="167.8" y2="264.8" stroke="#9a9a9a" stroke-width="0.6"/><line x1="130.0" y1="252.5" x2="167.8" y2="252.5" stroke="#9a9a9a" stroke-width="0.6"/><line x1="130.0" y1="240.2" x2="167.8" y2="240.2" stroke="#9a9a9a" stroke-width="0.6"/><line x1="130.0" y1="228.0" x2="167.8" y2="228.0" stroke="#9a9a9a" stroke-width="0.6"/><line x1="130.0" y1="215.8" x2="167.8" y2="215.8" stroke="#9a9a9a" stroke-width="0.6"/><line x1="130.0" y1="203.5" x2="167.8" y2="203.5" stroke="#9a9a9a" stroke-width="0.6"/><line x1="130.0" y1="191.3" x2="167.8" y2="191.3" stroke="#9a9a9a" stroke-width="0.6"/><line x1="130.0" y1="179.0" x2="167.8" y2="179.0" stroke="#9a9a9a" stroke-width="0.6"/><line x1="130.0" y1="166.8" x2="167.8" y2="166.8" stroke="#9a9a9a" stroke-width="0.6"/><line x1="130.0" y1="154.5" x2="167.8" y2="154.5" stroke="#9a9a9a" stroke-width="0.6"/><line x1="130.0" y1="142.2" x2="167.8" y2="142.2" stroke="#9a9a9a" stroke-width="0.6"/><line x1="148.9" y1="258.1" x2="148.9" y2="148.9" stroke="#333" stroke-width="2" stroke-linecap="round"/><line x1="148.9" y1="148.9" x2="152.6" y2="154.8" stroke="#333" stroke-width="2" stroke-linecap="round"/><line x1="148.9" y1="148.9" x2="145.2" y2="154.8" stroke="#333" stroke-width="2" stroke-linecap="round"/><text x="148.9" y="267.1" text-anchor="middle" dominant-baseline="middle" font-family="Arial" font-size="9" font-weight="bold" fill="#333" stroke="white" stroke-width="2.5" paint-order="stroke">UP</text><text x="214.0" y="500.0" text-anchor="middle" font-family="Arial" font-size="12" font-weight="bold" fill="#888">FRONT (street)</text><rect x="167.80" y="274.90" width="42.00" height="4.20" fill="#555" stroke="none"/><rect x="207.70" y="172.00" width="4.20" height="105.00" fill="#555" stroke="none"/><rect x="167.80" y="169.90" width="42.00" height="4.20" fill="#555" stroke="none"/><rect x="165.70" y="130.00" width="4.20" height="42.00" fill="#555" stroke="none"/><rect x="165.70" y="172.00" width="4.20" height="105.00" fill="#555" stroke="none"/><rect x="130.00" y="377.80" width="168.00" height="8.40" fill="#555" stroke="none"/><rect x="293.80" y="277.00" width="8.40" height="105.00" fill="#555" stroke="none"/><rect x="125.80" y="277.00" width="8.40" height="105.00" fill="#555" stroke="none"/><rect x="209.80" y="125.80" width="88.20" height="8.40" fill="#555" stroke="none"/><rect x="293.80" y="130.00" width="8.40" height="147.00" fill="#555" stroke="none"/><rect x="167.80" y="125.80" width="42.00" height="8.40" fill="#555" stroke="none"/><rect x="130.00" y="125.80" width="37.80" height="8.40" fill="#555" stroke="none"/><rect x="125.80" y="130.00" width="8.40" height="147.00" fill="#555" stroke="none"/><rect x="207.70" y="169.90" width="4.20" height="4.20" fill="#555" stroke="none"/><rect x="165.70" y="169.90" width="4.20" height="4.20" fill="#555" stroke="none"/><rect x="207.70" y="169.90" width="4.20" height="4.20" fill="#555" stroke="none"/><rect x="165.70" y="169.90" width="4.20" height="4.20" fill="#555" stroke="none"/><rect x="163.60" y="125.80" width="8.40" height="8.40" fill="#555" stroke="none"/><rect x="165.70" y="169.90" width="4.20" height="4.20" fill="#555" stroke="none"/><rect x="125.80" y="377.80" width="8.40" height="8.40" fill="#555" stroke="none"/><rect x="293.80" y="377.80" width="8.40" height="8.40" fill="#555" stroke="none"/><rect x="293.80" y="377.80" width="8.40" height="8.40" fill="#555" stroke="none"/><rect x="125.80" y="377.80" width="8.40" height="8.40" fill="#555" stroke="none"/><rect x="293.80" y="125.80" width="8.40" height="8.40" fill="#555" stroke="none"/><rect x="293.80" y="125.80" width="8.40" height="8.40" fill="#555" stroke="none"/><rect x="163.60" y="125.80" width="8.40" height="8.40" fill="#555" stroke="none"/><rect x="125.80" y="125.80" width="8.40" height="8.40" fill="#555" stroke="none"/><rect x="163.60" y="125.80" width="8.40" height="8.40" fill="#555" stroke="none"/><rect x="125.80" y="125.80" width="8.40" height="8.40" fill="#555" stroke="none"/><rect x="211.9" y="277.0" width="84.0" height="5.0" fill="#cfe2f3" stroke="none"/><rect x="211.9" y="272.0" width="84.0" height="5.0" fill="#cfe2f3" stroke="none"/><rect x="132.1" y="277.0" width="33.6" height="5.0" fill="#cfe2f3" stroke="none"/><rect x="132.1" y="272.0" width="33.6" height="5.0" fill="#efefef" stroke="none"/><rect x="167.8" y="277.0" width="29.4" height="5.0" fill="#cfe2f3" stroke="none"/><rect x="167.8" y="272.0" width="29.4" height="5.0" fill="#ead1dc" stroke="none"/><line x1="167.8" y1="277.0" x2="167.8" y2="247.6" stroke="#444" stroke-width="1.4"/><path d="M 167.8 247.6 A 29.4 29.4 0 0 1 197.2 277.0" fill="none" stroke="#999" stroke-width="0.7" stroke-dasharray="2 2"/><rect x="136.3" y="377.0" width="37.8" height="5.0" fill="#cfe2f3" stroke="none"/><rect x="136.3" y="382.0" width="37.8" height="5.0" fill="#fbfbf7" stroke="none"/><line x1="136.3" y1="382.0" x2="136.3" y2="344.2" stroke="#444" stroke-width="1.4"/><path d="M 136.3 344.2 A 37.8 37.8 0 0 1 174.1 382.0" fill="none" stroke="#999" stroke-width="0.7" stroke-dasharray="2 2"/><rect x="258.1" y="130.0" width="33.6" height="5.0" fill="#cfe2f3" stroke="none"/><rect x="258.1" y="125.0" width="33.6" height="5.0" fill="#fbfbf7" stroke="none"/><line x1="291.7" y1="130.0" x2="291.7" y2="163.6" stroke="#444" stroke-width="1.4"/><path d="M 291.7 163.6 A 33.6 33.6 0 0 1 258.1 130.0" fill="none" stroke="#999" stroke-width="0.7" stroke-dasharray="2 2"/><rect x="211.7" y="377.0" width="61.2" height="5.0" fill="#cfe2f3" stroke="none"/><rect x="211.7" y="382.0" width="61.2" height="5.0" fill="#fbfbf7" stroke="none"/><line x1="211.7" y1="379.0" x2="273.0" y2="379.0" stroke="#222" stroke-width="1.0"/><line x1="211.7" y1="382.0" x2="273.0" y2="382.0" stroke="#222" stroke-width="1.0"/><line x1="211.7" y1="385.0" x2="273.0" y2="385.0" stroke="#222" stroke-width="1.0"/><rect x="130.0" y="300.6" width="5.0" height="57.8" fill="#cfe2f3" stroke="none"/><rect x="125.0" y="300.6" width="5.0" height="57.8" fill="#fbfbf7" stroke="none"/><line x1="127.0" y1="358.4" x2="127.0" y2="300.6" stroke="#222" stroke-width="1.0"/><line x1="130.0" y1="358.4" x2="130.0" y2="300.6" stroke="#222" stroke-width="1.0"/><line x1="133.0" y1="358.4" x2="133.0" y2="300.6" stroke="#222" stroke-width="1.0"/><rect x="293.0" y="300.6" width="5.0" height="57.8" fill="#cfe2f3" stroke="none"/><rect x="298.0" y="300.6" width="5.0" height="57.8" fill="#fbfbf7" stroke="none"/><line x1="295.0" y1="358.4" x2="295.0" y2="300.6" stroke="#222" stroke-width="1.0"/><line x1="298.0" y1="358.4" x2="298.0" y2="300.6" stroke="#222" stroke-width="1.0"/><line x1="301.0" y1="358.4" x2="301.0" y2="300.6" stroke="#222" stroke-width="1.0"/><rect x="293.0" y="163.1" width="5.0" height="80.8" fill="#cfe2f3" stroke="none"/><rect x="298.0" y="163.1" width="5.0" height="80.8" fill="#fbfbf7" stroke="none"/><line x1="295.0" y1="243.9" x2="295.0" y2="163.1" stroke="#222" stroke-width="1.0"/><line x1="298.0" y1="243.9" x2="298.0" y2="163.1" stroke="#222" stroke-width="1.0"/><line x1="301.0" y1="243.9" x2="301.0" y2="163.1" stroke="#222" stroke-width="1.0"/></svg><text x="666" y="22" text-anchor="middle" font-family="Helvetica, Arial, sans-serif" font-size="15" font-weight="bold" letter-spacing="2">SECOND FLOOR</text><svg x="452" y="34" xmlns="http://www.w3.org/2000/svg" width="428" height="512" viewBox="0 0 428 512"><rect x="0" y="0" width="428" height="512" fill="white"/><rect x="46.0" y="46.0" width="336.0" height="420.0" fill="#fbfbf7" stroke="#333" stroke-width="1.5"/><line x1="46.0" y1="46.0" x2="46.0" y2="38.0" stroke="#888" stroke-width="1"/><line x1="46.0" y1="466.0" x2="46.0" y2="474.0" stroke="#888" stroke-width="1"/><text x="46.0" y="36.0" text-anchor="middle" font-family="Arial" font-size="9" fill="#666">0</text><text x="46.0" y="482.0" text-anchor="middle" font-family="Arial" font-size="9" fill="#666">0</text><line x1="67.0" y1="46.0" x2="67.0" y2="42.0" stroke="#888" stroke-width="1"/><line x1="67.0" y1="466.0" x2="67.0" y2="470.0" stroke="#888" stroke-width="1"/><line x1="88.0" y1="46.0" x2="88.0" y2="38.0" stroke="#888" stroke-width="1"/><line x1="88.0" y1="466.0" x2="88.0" y2="474.0" stroke="#888" stroke-width="1"/><text x="88.0" y="36.0" text-anchor="middle" font-family="Arial" font-size="9" fill="#666">1</text><text x="88.0" y="482.0" text-anchor="middle" font-family="Arial" font-size="9" fill="#666">1</text><line x1="109.0" y1="46.0" x2="109.0" y2="42.0" stroke="#888" stroke-width="1"/><line x1="109.0" y1="466.0" x2="109.0" y2="470.0" stroke="#888" stroke-width="1"/><line x1="130.0" y1="46.0" x2="130.0" y2="38.0" stroke="#888" stroke-width="1"/><line x1="130.0" y1="466.0" x2="130.0" y2="474.0" stroke="#888" stroke-width="1"/><text x="130.0" y="36.0" text-anchor="middle" font-family="Arial" font-size="9" fill="#666">2</text><text x="130.0" y="482.0" text-anchor="middle" font-family="Arial" font-size="9" fill="#666">2</text><line x1="151.0" y1="46.0" x2="151.0" y2="42.0" stroke="#888" stroke-width="1"/><line x1="151.0" y1="466.0" x2="151.0" y2="470.0" stroke="#888" stroke-width="1"/><line x1="172.0" y1="46.0" x2="172.0" y2="38.0" stroke="#888" stroke-width="1"/><line x1="172.0" y1="466.0" x2="172.0" y2="474.0" stroke="#888" stroke-width="1"/><text x="172.0" y="36.0" text-anchor="middle" font-family="Arial" font-size="9" fill="#666">3</text><text x="172.0" y="482.0" text-anchor="middle" font-family="Arial" font-size="9" fill="#666">3</text><line x1="193.0" y1="46.0" x2="193.0" y2="42.0" stroke="#888" stroke-width="1"/><line x1="193.0" y1="466.0" x2="193.0" y2="470.0" stroke="#888" stroke-width="1"/><line x1="214.0" y1="46.0" x2="214.0" y2="38.0" stroke="#888" stroke-width="1"/><line x1="214.0" y1="466.0" x2="214.0" y2="474.0" stroke="#888" stroke-width="1"/><text x="214.0" y="36.0" text-anchor="middle" font-family="Arial" font-size="9" fill="#666">4</text><text x="214.0" y="482.0" text-anchor="middle" font-family="Arial" font-size="9" fill="#666">4</text><line x1="235.0" y1="46.0" x2="235.0" y2="42.0" stroke="#888" stroke-width="1"/><line x1="235.0" y1="466.0" x2="235.0" y2="470.0" stroke="#888" stroke-width="1"/><line x1="256.0" y1="46.0" x2="256.0" y2="38.0" stroke="#888" stroke-width="1"/><line x1="256.0" y1="466.0" x2="256.0" y2="474.0" stroke="#888" stroke-width="1"/><text x="256.0" y="36.0" text-anchor="middle" font-family="Arial" font-size="9" fill="#666">5</text><text x="256.0" y="482.0" text-anchor="middle" font-family="Arial" font-size="9" fill="#666">5</text><line x1="277.0" y1="46.0" x2="277.0" y2="42.0" stroke="#888" stroke-width="1"/><line x1="277.0" y1="466.0" x2="277.0" y2="470.0" stroke="#888" stroke-width="1"/><line x1="298.0" y1="46.0" x2="298.0" y2="38.0" stroke="#888" stroke-width="1"/><line x1="298.0" y1="466.0" x2="298.0" y2="474.0" stroke="#888" stroke-width="1"/><text x="298.0" y="36.0" text-anchor="middle" font-family="Arial" font-size="9" fill="#666">6</text><text x="298.0" y="482.0" text-anchor="middle" font-family="Arial" font-size="9" fill="#666">6</text><line x1="319.0" y1="46.0" x2="319.0" y2="42.0" stroke="#888" stroke-width="1"/><line x1="319.0" y1="466.0" x2="319.0" y2="470.0" stroke="#888" stroke-width="1"/><line x1="340.0" y1="46.0" x2="340.0" y2="38.0" stroke="#888" stroke-width="1"/><line x1="340.0" y1="466.0" x2="340.0" y2="474.0" stroke="#888" stroke-width="1"/><text x="340.0" y="36.0" text-anchor="middle" font-family="Arial" font-size="9" fill="#666">7</text><text x="340.0" y="482.0" text-anchor="middle" font-family="Arial" font-size="9" fill="#666">7</text><line x1="361.0" y1="46.0" x2="361.0" y2="42.0" stroke="#888" stroke-width="1"/><line x1="361.0" y1="466.0" x2="361.0" y2="470.0" stroke="#888" stroke-width="1"/><line x1="382.0" y1="46.0" x2="382.0" y2="38.0" stroke="#888" stroke-width="1"/><line x1="382.0" y1="466.0" x2="382.0" y2="474.0" stroke="#888" stroke-width="1"/><text x="382.0" y="36.0" text-anchor="middle" font-family="Arial" font-size="9" fill="#666">8</text><text x="382.0" y="482.0" text-anchor="middle" font-family="Arial" font-size="9" fill="#666">8</text><line x1="46.0" y1="466.0" x2="38.0" y2="466.0" stroke="#888" stroke-width="1"/><line x1="382.0" y1="466.0" x2="390.0" y2="466.0" stroke="#888" stroke-width="1"/><text x="36.0" y="469.0" text-anchor="end" font-family="Arial" font-size="9" fill="#666">0</text><text x="392.0" y="469.0" text-anchor="start" font-family="Arial" font-size="9" fill="#666">0</text><line x1="46.0" y1="445.0" x2="42.0" y2="445.0" stroke="#888" stroke-width="1"/><line x1="382.0" y1="445.0" x2="386.0" y2="445.0" stroke="#888" stroke-width="1"/><line x1="46.0" y1="424.0" x2="38.0" y2="424.0" stroke="#888" stroke-width="1"/><line x1="382.0" y1="424.0" x2="390.0" y2="424.0" stroke="#888" stroke-width="1"/><text x="36.0" y="427.0" text-anchor="end" font-family="Arial" font-size="9" fill="#666">1</text><text x="392.0" y="427.0" text-anchor="start" font-family="Arial" font-size="9" fill="#666">1</text><line x1="46.0" y1="403.0" x2="42.0" y2="403.0" stroke="#888" stroke-width="1"/><line x1="382.0" y1="403.0" x2="386.0" y2="403.0" stroke="#888" stroke-width="1"/><line x1="46.0" y1="382.0" x2="38.0" y2="382.0" stroke="#888" stroke-width="1"/><line x1="382.0" y1="382.0" x2="390.0" y2="382.0" stroke="#888" stroke-width="1"/><text x="36.0" y="385.0" text-anchor="end" font-family="Arial" font-size="9" fill="#666">2</text><text x="392.0" y="385.0" text-anchor="start" font-family="Arial" font-size="9" fill="#666">2</text><line x1="46.0" y1="361.0" x2="42.0" y2="361.0" stroke="#888" stroke-width="1"/><line x1="382.0" y1="361.0" x2="386.0" y2="361.0" stroke="#888" stroke-width="1"/><line x1="46.0" y1="340.0" x2="38.0" y2="340.0" stroke="#888" stroke-width="1"/><line x1="382.0" y1="340.0" x2="390.0" y2="340.0" stroke="#888" stroke-width="1"/><text x="36.0" y="343.0" text-anchor="end" font-family="Arial" font-size="9" fill="#666">3</text><text x="392.0" y="343.0" text-anchor="start" font-family="Arial" font-size="9" fill="#666">3</text><line x1="46.0" y1="319.0" x2="42.0" y2="319.0" stroke="#888" stroke-width="1"/><line x1="382.0" y1="319.0" x2="386.0" y2="319.0" stroke="#888" stroke-width="1"/><line x1="46.0" y1="298.0" x2="38.0" y2="298.0" stroke="#888" stroke-width="1"/><line x1="382.0" y1="298.0" x2="390.0" y2="298.0" stroke="#888" stroke-width="1"/><text x="36.0" y="301.0" text-anchor="end" font-family="Arial" font-size="9" fill="#666">4</text><text x="392.0" y="301.0" text-anchor="start" font-family="Arial" font-size="9" fill="#666">4</text><line x1="46.0" y1="277.0" x2="42.0" y2="277.0" stroke="#888" stroke-width="1"/><line x1="382.0" y1="277.0" x2="386.0" y2="277.0" stroke="#888" stroke-width="1"/><line x1="46.0" y1="256.0" x2="38.0" y2="256.0" stroke="#888" stroke-width="1"/><line x1="382.0" y1="256.0" x2="390.0" y2="256.0" stroke="#888" stroke-width="1"/><text x="36.0" y="259.0" text-anchor="end" font-family="Arial" font-size="9" fill="#666">5</text><text x="392.0" y="259.0" text-anchor="start" font-family="Arial" font-size="9" fill="#666">5</text><line x1="46.0" y1="235.0" x2="42.0" y2="235.0" stroke="#888" stroke-width="1"/><line x1="382.0" y1="235.0" x2="386.0" y2="235.0" stroke="#888" stroke-width="1"/><line x1="46.0" y1="214.0" x2="38.0" y2="214.0" stroke="#888" stroke-width="1"/><line x1="382.0" y1="214.0" x2="390.0" y2="214.0" stroke="#888" stroke-width="1"/><text x="36.0" y="217.0" text-anchor="end" font-family="Arial" font-size="9" fill="#666">6</text><text x="392.0" y="217.0" text-anchor="start" font-family="Arial" font-size="9" fill="#666">6</text><line x1="46.0" y1="193.0" x2="42.0" y2="193.0" stroke="#888" stroke-width="1"/><line x1="382.0" y1="193.0" x2="386.0" y2="193.0" stroke="#888" stroke-width="1"/><line x1="46.0" y1="172.0" x2="38.0" y2="172.0" stroke="#888" stroke-width="1"/><line x1="382.0" y1="172.0" x2="390.0" y2="172.0" stroke="#888" stroke-width="1"/><text x="36.0" y="175.0" text-anchor="end" font-family="Arial" font-size="9" fill="#666">7</text><text x="392.0" y="175.0" text-anchor="start" font-family="Arial" font-size="9" fill="#666">7</text><line x1="46.0" y1="151.0" x2="42.0" y2="151.0" stroke="#888" stroke-width="1"/><line x1="382.0" y1="151.0" x2="386.0" y2="151.0" stroke="#888" stroke-width="1"/><line x1="46.0" y1="130.0" x2="38.0" y2="130.0" stroke="#888" stroke-width="1"/><line x1="382.0" y1="130.0" x2="390.0" y2="130.0" stroke="#888" stroke-width="1"/><text x="36.0" y="133.0" text-anchor="end" font-family="Arial" font-size="9" fill="#666">8</text><text x="392.0" y="133.0" text-anchor="start" font-family="Arial" font-size="9" fill="#666">8</text><line x1="46.0" y1="109.0" x2="42.0" y2="109.0" stroke="#888" stroke-width="1"/><line x1="382.0" y1="109.0" x2="386.0" y2="109.0" stroke="#888" stroke-width="1"/><line x1="46.0" y1="88.0" x2="38.0" y2="88.0" stroke="#888" stroke-width="1"/><line x1="382.0" y1="88.0" x2="390.0" y2="88.0" stroke="#888" stroke-width="1"/><text x="36.0" y="91.0" text-anchor="end" font-family="Arial" font-size="9" fill="#666">9</text><text x="392.0" y="91.0" text-anchor="start" font-family="Arial" font-size="9" fill="#666">9</text><line x1="46.0" y1="67.0" x2="42.0" y2="67.0" stroke="#888" stroke-width="1"/><line x1="382.0" y1="67.0" x2="386.0" y2="67.0" stroke="#888" stroke-width="1"/><line x1="46.0" y1="46.0" x2="38.0" y2="46.0" stroke="#888" stroke-width="1"/><line x1="382.0" y1="46.0" x2="390.0" y2="46.0" stroke="#888" stroke-width="1"/><text x="36.0" y="49.0" text-anchor="end" font-family="Arial" font-size="9" fill="#666">10</text><text x="392.0" y="49.0" text-anchor="start" font-family="Arial" font-size="9" fill="#666">10</text><rect x="130.0" y="130.0" width="168.0" height="252.0" fill="none" stroke="#9aa" stroke-width="1" stroke-dasharray="3 3"/><rect x="130.0" y="293.8" width="168.0" height="88.2" fill="#d9ead3" stroke="#333" stroke-width="1.5"/><text x="214.0" y="335.3" text-anchor="middle" font-family="Arial" font-size="12" font-weight="bold" fill="#222">MASTER BR</text><text x="214.0" y="351.1" text-anchor="middle" font-family="Arial" font-size="10" fill="#555">4.0×2.1 m · 8.4 sqm</text><rect x="209.8" y="130.0" width="88.2" height="121.8" fill="#d9ead3" stroke="#333" stroke-width="1.5"/><text x="253.9" y="182.5" text-anchor="middle" font-family="Arial" font-size="12" font-weight="bold" fill="#222">BEDROOM</text><text x="253.9" y="198.3" text-anchor="middle" font-family="Arial" font-size="10" fill="#555">2.1×2.9 m</text><text x="253.9" y="209.8" text-anchor="middle" font-family="Arial" font-size="10" fill="#555">6.1 sqm</text><rect x="209.8" y="251.8" width="88.2" height="42.0" fill="#ead1dc" stroke="#333" stroke-width="1.5"/><text x="253.9" y="264.4" text-anchor="middle" font-family="Arial" font-size="12" font-weight="bold" fill="#222">T&amp;B</text><text x="253.9" y="280.2" text-anchor="middle" font-family="Arial" font-size="10" fill="#555">2.1×1.0 m</text><text x="253.9" y="291.7" text-anchor="middle" font-family="Arial" font-size="10" fill="#555">2.1 sqm</text><rect x="167.8" y="130.0" width="42.0" height="163.8" fill="#efefef" stroke="none"/><rect x="130.0" y="277.0" width="37.8" height="16.8" fill="#efefef" stroke="none"/><text x="188.8" y="209.2" text-anchor="middle" font-family="Arial" font-size="12" font-weight="bold" fill="#222">HALL</text><text x="188.8" y="225.1" text-anchor="middle" font-family="Arial" font-size="10" fill="#555">4.3 sqm</text><rect x="130.0" y="130.0" width="37.8" height="147.0" fill="#efefef" stroke="#333" stroke-width="1.5"/><line x1="130.0" y1="264.8" x2="167.8" y2="264.8" stroke="#9a9a9a" stroke-width="0.6"/><line x1="130.0" y1="252.5" x2="167.8" y2="252.5" stroke="#9a9a9a" stroke-width="0.6"/><line x1="130.0" y1="240.2" x2="167.8" y2="240.2" stroke="#9a9a9a" stroke-width="0.6"/><line x1="130.0" y1="228.0" x2="167.8" y2="228.0" stroke="#9a9a9a" stroke-width="0.6"/><line x1="130.0" y1="215.8" x2="167.8" y2="215.8" stroke="#9a9a9a" stroke-width="0.6"/><line x1="130.0" y1="203.5" x2="167.8" y2="203.5" stroke="#9a9a9a" stroke-width="0.6"/><line x1="130.0" y1="191.3" x2="167.8" y2="191.3" stroke="#9a9a9a" stroke-width="0.6"/><line x1="130.0" y1="179.0" x2="167.8" y2="179.0" stroke="#9a9a9a" stroke-width="0.6"/><line x1="130.0" y1="166.8" x2="167.8" y2="166.8" stroke="#9a9a9a" stroke-width="0.6"/><line x1="130.0" y1="154.5" x2="167.8" y2="154.5" stroke="#9a9a9a" stroke-width="0.6"/><line x1="130.0" y1="142.2" x2="167.8" y2="142.2" stroke="#9a9a9a" stroke-width="0.6"/><line x1="148.9" y1="148.9" x2="148.9" y2="258.1" stroke="#333" stroke-width="2" stroke-linecap="round"/><line x1="148.9" y1="258.1" x2="145.2" y2="252.2" stroke="#333" stroke-width="2" stroke-linecap="round"/><line x1="148.9" y1="258.1" x2="152.6" y2="252.2" stroke="#333" stroke-width="2" stroke-linecap="round"/><text x="148.9" y="139.9" text-anchor="middle" dominant-baseline="middle" font-family="Arial" font-size="9" font-weight="bold" fill="#333" stroke="white" stroke-width="2.5" paint-order="stroke">DN</text><text x="214.0" y="500.0" text-anchor="middle" font-family="Arial" font-size="12" font-weight="bold" fill="#888">FRONT (street)</text><rect x="209.80" y="291.70" width="88.20" height="4.20" fill="#555" stroke="none"/><rect x="167.80" y="291.70" width="42.00" height="4.20" fill="#555" stroke="none"/><rect x="130.00" y="291.70" width="37.80" height="4.20" fill="#555" stroke="none"/><rect x="209.80" y="249.70" width="88.20" height="4.20" fill="#555" stroke="none"/><rect x="207.70" y="130.00" width="4.20" height="121.80" fill="#555" stroke="none"/><rect x="207.70" y="251.80" width="4.20" height="42.00" fill="#555" stroke="none"/><rect x="130.00" y="377.80" width="168.00" height="8.40" fill="#555" stroke="none"/><rect x="293.80" y="293.80" width="8.40" height="88.20" fill="#555" stroke="none"/><rect x="125.80" y="293.80" width="8.40" height="88.20" fill="#555" stroke="none"/><rect x="209.80" y="125.80" width="88.20" height="8.40" fill="#555" stroke="none"/><rect x="293.80" y="130.00" width="8.40" height="121.80" fill="#555" stroke="none"/><rect x="293.80" y="251.80" width="8.40" height="42.00" fill="#555" stroke="none"/><rect x="167.80" y="125.80" width="42.00" height="8.40" fill="#555" stroke="none"/><rect x="125.80" y="277.00" width="8.40" height="16.80" fill="#555" stroke="none"/><rect x="130.00" y="125.80" width="37.80" height="8.40" fill="#555" stroke="none"/><rect x="125.80" y="130.00" width="8.40" height="147.00" fill="#555" stroke="none"/><rect x="207.70" y="291.70" width="4.20" height="4.20" fill="#555" stroke="none"/><rect x="293.80" y="289.60" width="8.40" height="8.40" fill="#555" stroke="none"/><rect x="207.70" y="291.70" width="4.20" height="4.20" fill="#555" stroke="none"/><rect x="125.80" y="289.60" width="8.40" height="8.40" fill="#555" stroke="none"/><rect x="207.70" y="249.70" width="4.20" height="4.20" fill="#555" stroke="none"/><rect x="293.80" y="247.60" width="8.40" height="8.40" fill="#555" stroke="none"/><rect x="207.70" y="249.70" width="4.20" height="4.20" fill="#555" stroke="none"/><rect x="205.60" y="125.80" width="8.40" height="8.40" fill="#555" stroke="none"/><rect x="207.70" y="291.70" width="4.20" height="4.20" fill="#555" stroke="none"/><rect x="207.70" y="249.70" width="4.20" height="4.20" fill="#555" stroke="none"/><rect x="125.80" y="377.80" width="8.40" height="8.40" fill="#555" stroke="none"/><rect x="293.80" y="377.80" width="8.40" height="8.40" fill="#555" stroke="none"/><rect x="293.80" y="377.80" width="8.40" height="8.40" fill="#555" stroke="none"/><rect x="293.80" y="289.60" width="8.40" height="8.40" fill="#555" stroke="none"/><rect x="125.80" y="377.80" width="8.40" height="8.40" fill="#555" stroke="none"/><rect x="125.80" y="289.60" width="8.40" height="8.40" fill="#555" stroke="none"/><rect x="205.60" y="125.80" width="8.40" height="8.40" fill="#555" stroke="none"/><rect x="293.80" y="125.80" width="8.40" height="8.40" fill="#555" stroke="none"/><rect x="293.80" y="247.60" width="8.40" height="8.40" fill="#555" stroke="none"/><rect x="293.80" y="125.80" width="8.40" height="8.40" fill="#555" stroke="none"/><rect x="293.80" y="289.60" width="8.40" height="8.40" fill="#555" stroke="none"/><rect x="293.80" y="247.60" width="8.40" height="8.40" fill="#555" stroke="none"/><rect x="205.60" y="125.80" width="8.40" height="8.40" fill="#555" stroke="none"/><rect x="125.80" y="289.60" width="8.40" height="8.40" fill="#555" stroke="none"/><rect x="125.80" y="125.80" width="8.40" height="8.40" fill="#555" stroke="none"/><rect x="125.80" y="125.80" width="8.40" height="8.40" fill="#555" stroke="none"/><rect x="162.8" y="132.1" width="5.0" height="144.9" fill="#efefef" stroke="none"/><rect x="167.8" y="132.1" width="5.0" height="144.9" fill="#efefef" stroke="none"/><rect x="132.1" y="272.0" width="35.7" height="5.0" fill="#efefef" stroke="none"/><rect x="132.1" y="277.0" width="35.7" height="5.0" fill="#efefef" stroke="none"/><rect x="167.8" y="288.8" width="33.6" height="5.0" fill="#efefef" stroke="none"/><rect x="167.8" y="293.8" width="33.6" height="5.0" fill="#d9ead3" stroke="none"/><line x1="167.8" y1="293.8" x2="167.8" y2="327.4" stroke="#444" stroke-width="1.4"/><path d="M 167.8 327.4 A 33.6 33.6 0 0 0 201.4 293.8" fill="none" stroke="#999" stroke-width="0.7" stroke-dasharray="2 2"/><rect x="204.8" y="218.2" width="5.0" height="33.6" fill="#efefef" stroke="none"/><rect x="209.8" y="218.2" width="5.0" height="33.6" fill="#d9ead3" stroke="none"/><line x1="209.8" y1="251.8" x2="243.4" y2="251.8" stroke="#444" stroke-width="1.4"/><path d="M 243.4 251.8 A 33.6 33.6 0 0 0 209.8 218.2" fill="none" stroke="#999" stroke-width="0.7" stroke-dasharray="2 2"/><rect x="204.8" y="258.1" width="5.0" height="29.4" fill="#efefef" stroke="none"/><rect x="209.8" y="258.1" width="5.0" height="29.4" fill="#ead1dc" stroke="none"/><line x1="209.8" y1="287.5" x2="239.2" y2="287.5" stroke="#444" stroke-width="1.4"/><path d="M 239.2 287.5 A 29.4 29.4 0 0 0 209.8 258.1" fill="none" stroke="#999" stroke-width="0.7" stroke-dasharray="2 2"/><rect x="130.0" y="313.7" width="5.0" height="48.5" fill="#d9ead3" stroke="none"/><rect x="125.0" y="313.7" width="5.0" height="48.5" fill="#fbfbf7" stroke="none"/><line x1="127.0" y1="362.2" x2="127.0" y2="313.7" stroke="#222" stroke-width="1.0"/><line x1="130.0" y1="362.2" x2="130.0" y2="313.7" stroke="#222" stroke-width="1.0"/><line x1="133.0" y1="362.2" x2="133.0" y2="313.7" stroke="#222" stroke-width="1.0"/><rect x="293.0" y="313.7" width="5.0" height="48.5" fill="#d9ead3" stroke="none"/><rect x="298.0" y="313.7" width="5.0" height="48.5" fill="#fbfbf7" stroke="none"/><line x1="295.0" y1="362.2" x2="295.0" y2="313.7" stroke="#222" stroke-width="1.0"/><line x1="298.0" y1="362.2" x2="298.0" y2="313.7" stroke="#222" stroke-width="1.0"/><line x1="301.0" y1="362.2" x2="301.0" y2="313.7" stroke="#222" stroke-width="1.0"/><rect x="167.8" y="377.0" width="92.4" height="5.0" fill="#d9ead3" stroke="none"/><rect x="167.8" y="382.0" width="92.4" height="5.0" fill="#fbfbf7" stroke="none"/><line x1="167.8" y1="379.0" x2="260.2" y2="379.0" stroke="#222" stroke-width="1.0"/><line x1="167.8" y1="382.0" x2="260.2" y2="382.0" stroke="#222" stroke-width="1.0"/><line x1="167.8" y1="385.0" x2="260.2" y2="385.0" stroke="#222" stroke-width="1.0"/><rect x="293.0" y="157.4" width="5.0" height="67.0" fill="#d9ead3" stroke="none"/><rect x="298.0" y="157.4" width="5.0" height="67.0" fill="#fbfbf7" stroke="none"/><line x1="295.0" y1="224.4" x2="295.0" y2="157.4" stroke="#222" stroke-width="1.0"/><line x1="298.0" y1="224.4" x2="298.0" y2="157.4" stroke="#222" stroke-width="1.0"/><line x1="301.0" y1="224.4" x2="301.0" y2="157.4" stroke="#222" stroke-width="1.0"/><rect x="229.6" y="130.0" width="48.5" height="5.0" fill="#d9ead3" stroke="none"/><rect x="229.6" y="125.0" width="48.5" height="5.0" fill="#fbfbf7" stroke="none"/><line x1="229.6" y1="127.0" x2="278.1" y2="127.0" stroke="#222" stroke-width="1.0"/><line x1="229.6" y1="130.0" x2="278.1" y2="130.0" stroke="#222" stroke-width="1.0"/><line x1="229.6" y1="133.0" x2="278.1" y2="133.0" stroke="#222" stroke-width="1.0"/><rect x="293.0" y="260.2" width="5.0" height="25.2" fill="#ead1dc" stroke="none"/><rect x="298.0" y="260.2" width="5.0" height="25.2" fill="#fbfbf7" stroke="none"/><line x1="295.0" y1="285.4" x2="295.0" y2="260.2" stroke="#222" stroke-width="1.0"/><line x1="298.0" y1="285.4" x2="298.0" y2="260.2" stroke="#222" stroke-width="1.0"/><line x1="301.0" y1="285.4" x2="301.0" y2="260.2" stroke="#222" stroke-width="1.0"/></svg></svg>