<svg xmlns="http://www.w3.org/2000/svg" width="880" height="630" viewBox="0 0 880 630"><rect x="0" y="0" width="880" height="630" fill="white"/><text x="214" y="22" text-anchor="middle" font-family="Helvetica, Arial, sans-serif" font-size="15" font-weight="bold" letter-spacing="2">GROUND FLOOR</text><svg x="0" y="34" xmlns="http://www.w3.org/2000/svg" width="428" height="596" viewBox="0 0 428 596"><rect x="0" y="0" width="428" height="596" fill="white"/><rect x="46.0" y="46.0" width="336.0" height="504.0" fill="#fbfbf7" stroke="#333" stroke-width="1.5"/><line x1="46.0" y1="46.0" x2="46.0" y2="38.0" stroke="#888" stroke-width="1"/><line x1="46.0" y1="550.0" x2="46.0" y2="558.0" stroke="#888" stroke-width="1"/><text x="46.0" y="36.0" text-anchor="middle" font-family="Arial" font-size="9" fill="#666">0</text><text x="46.0" y="566.0" text-anchor="middle" font-family="Arial" font-size="9" fill="#666">0</text><line x1="67.0" y1="46.0" x2="67.0" y2="42.0" stroke="#888" stroke-width="1"/><line x1="67.0" y1="550.0" x2="67.0" y2="554.0" stroke="#888" stroke-width="1"/><line x1="88.0" y1="46.0" x2="88.0" y2="38.0" stroke="#888" stroke-width="1"/><line x1="88.0" y1="550.0" x2="88.0" y2="558.0" stroke="#888" stroke-width="1"/><text x="88.0" y="36.0" text-anchor="middle" font-family="Arial" font-size="9" fill="#666">1</text><text x="88.0" y="566.0" text-anchor="middle" font-family="Arial" font-size="9" fill="#666">1</text><line x1="109.0" y1="46.0" x2="109.0" y2="42.0" stroke="#888" stroke-width="1"/><line x1="109.0" y1="550.0" x2="109.0" y2="554.0" stroke="#888" stroke-width="1"/><line x1="130.0" y1="46.0" x2="130.0" y2="38.0" stroke="#888" stroke-width="1"/><line x1="130.0" y1="550.0" x2="130.0" y2="558.0" stroke="#888" stroke-width="1"/><text x="130.0" y="36.0" text-anchor="middle" font-family="Arial" font-size="9" fill="#666">2</text><text x="130.0" y="566.0" text-anchor="middle" font-family="Arial" font-size="9" fill="#666">2</text><line x1="151.0" y1="46.0" x2="151.0" y2="42.0" stroke="#888" stroke-width="1"/><line x1="151.0" y1="550.0" x2="151.0" y2="554.0" stroke="#888" stroke-width="1"/><line x1="172.0" y1="46.0" x2="172.0" y2="38.0" stroke="#888" stroke-width="1"/><line x1="172.0" y1="550.0" x2="172.0" y2="558.0" stroke="#888" stroke-width="1"/><text x="172.0" y="36.0" text-anchor="middle" font-family="Arial" font-size="9" fill="#666">3</text><text x="172.0" y="566.0" text-anchor="middle" font-family="Arial" font-size="9" fill="#666">3</text><line x1="193.0" y1="46.0" x2="193.0" y2="42.0" stroke="#888" stroke-width="1"/><line x1="193.0" y1="550.0" x2="193.0" y2="554.0" stroke="#888" stroke-width="1"/><line x1="214.0" y1="46.0" x2="214.0" y2="38.0" stroke="#888" stroke-width="1"/><line x1="214.0" y1="550.0" x2="214.0" y2="558.0" stroke="#888" stroke-width="1"/><text x="214.0" y="36.0" text-anchor="middle" font-family="Arial" font-size="9" fill="#666">4</text><text x="214.0" y="566.0" text-anchor="middle" font-family="Arial" font-size="9" fill="#666">4</text><line x1="235.0" y1="46.0" x2="235.0" y2="42.0" stroke="#888" stroke-width="1"/><line x1="235.0" y1="550.0" x2="235.0" y2="554.0" stroke="#888" stroke-width="1"/><line x1="256.0" y1="46.0" x2="256.0" y2="38.0" stroke="#888" stroke-width="1"/><line x1="256.0" y1="550.0" x2="256.0" y2="558.0" stroke="#888" stroke-width="1"/><text x="256.0" y="36.0" text-anchor="middle" font-family="Arial" font-size="9" fill="#666">5</text><text x="256.0" y="566.0" text-anchor="middle" font-family="Arial" font-size="9" fill="#666">5</text><line x1="277.0" y1="46.0" x2="277.0" y2="42.0" stroke="#888" stroke-width="1"/><line x1="277.0" y1="550.0" x2="277.0" y2="554.0" stroke="#888" stroke-width="1"/><line x1="298.0" y1="46.0" x2="298.0" y2="38.0" stroke="#888" stroke-width="1"/><line x1="298.0" y1="550.0" x2="298.0" y2="558.0" stroke="#888" stroke-width="1"/><text x="298.0" y="36.0" text-anchor="middle" font-family="Arial" font-size="9" fill="#666">6</text><text x="298.0" y="566.0" text-anchor="middle" font-family="Arial" font-size="9" fill="#666">6</text><line x1="319.0" y1="46.0" x2="319.0" y2="42.0" stroke="#888" stroke-width="1"/><line x1="319.0" y1="550.0" x2="319.0" y2="554.0" stroke="#888" stroke-width="1"/><line x1="340.0" y1="46.0" x2="340.0" y2="38.0" stroke="#888" stroke-width="1"/><line x1="340.0" y1="550.0" x2="340.0" y2="558.0" stroke="#888" stroke-width="1"/><text x="340.0" y="36.0" text-anchor="middle" font-family="Arial" font-size="9" fill="#666">7</text><text x="340.0" y="566.0" text-anchor="middle" font-family="Arial" font-size="9" fill="#666">7</text><line x1="361.0" y1="46.0" x2="361.0" y2="42.0" stroke="#888" stroke-width="1"/><line x1="361.0" y1="550.0" x2="361.0" y2="554.0" stroke="#888" stroke-width="1"/><line x1="382.0" y1="46.0" x2="382.0" y2="38.0" stroke="#888" stroke-width="1"/><line x1="382.0" y1="550.0" x2="382.0" y2="558.0" stroke="#888" stroke-width="1"/><text x="382.0" y="36.0" text-anchor="middle" font-family="Arial" font-size="9" fill="#666">8</text><text x="382.0" y="566.0" text-anchor="middle" font-family="Arial" font-size="9" fill="#666">8</text><line x1="46.0" y1="550.0" x2="38.0" y2="550.0" stroke="#888" stroke-width="1"/><line x1="382.0" y1="550.0" x2="390.0" y2="550.0" stroke="#888" stroke-width="1"/><text x="36.0" y="553.0" text-anchor="end" font-family="Arial" font-size="9" fill="#666">0</text><text x="392.0" y="553.0" text-anchor="start" font-family="Arial" font-size="9" fill="#666">0</text><line x1="46.0" y1="529.0" x2="42.0" y2="529.0" stroke="#888" stroke-width="1"/><line x1="382.0" y1="529.0" x2="386.0" y2="529.0" stroke="#888" stroke-width="1"/><line x1="46.0" y1="508.0" x2="38.0" y2="508.0" stroke="#888" stroke-width="1"/><line x1="382.0" y1="508.0" x2="390.0" y2="508.0" stroke="#888" stroke-width="1"/><text x="36.0" y="511.0" text-anchor="end" font-family="Arial" font-size="9" fill="#666">1</text><text x="392.0" y="511.0" text-anchor="start" font-family="Arial" font-size="9" fill="#666">1</text><line x1="46.0" y1="487.0" x2="42.0" y2="487.0" stroke="#888" stroke-width="1"/><line x1="382.0" y1="487.0" x2="386.0" y2="487.0" stroke="#888" stroke-width="1"/><line x1="46.0" y1="466.0" x2="38.0" y2="466.0" stroke="#888" stroke-width="1"/><line x1="382.0" y1="466.0" x2="390.0" y2="466.0" stroke="#888" stroke-width="1"/><text x="36.0" y="469.0" text-anchor="end" font-family="Arial" font-size="9" fill="#666">2</text><text x="392.0" y="469.0" text-anchor="start" font-family="Arial" font-size="9" fill="#666">2</text><line x1="46.0" y1="445.0" x2="42.0" y2="445.0" stroke="#888" stroke-width="1"/><line x1="382.0" y1="445.0" x2="386.0" y2="445.0" stroke="#888" stroke-width="1"/><line x1="46.0" y1="424.0" x2="38.0" y2="424.0" stroke="#888" stroke-width="1"/><line x1="382.0" y1="424.0" x2="390.0" y2="424.0" stroke="#888" stroke-width="1"/><text x="36.0" y="427.0" text-anchor="end" font-family="Arial" font-size="9" fill="#666">3</text><text x="392.0" y="427.0" text-anchor="start" font-family="Arial" font-size="9" fill="#666">3</text><line x1="46.0" y1="403.0" x2="42.0" y2="403.0" stroke="#888" stroke-width="1"/><line x1="382.0" y1="403.0" x2="386.0" y2="403.0" stroke="#888" stroke-width="1"/><line x1="46.0" y1="382.0" x2="38.0" y2="382.0" stroke="#888" stroke-width="1"/><line x1="382.0" y1="382.0" x2="390.0" y2="382.0" stroke="#888" stroke-width="1"/><text x="36.0" y="385.0" text-anchor="end" font-family="Arial" font-size="9" fill="#666">4</text><text x="392.0" y="385.0" text-anchor="start" font-family="Arial" font-size="9" fill="#666">4</text><line x1="46.0" y1="361.0" x2="42.0" y2="361.0" stroke="#888" stroke-width="1"/><line x1="382.0" y1="361.0" x2="386.0" y2="361.0" stroke="#888" stroke-width="1"/><line x1="46.0" y1="340.0" x2="38.0" y2="340.0" stroke="#888" stroke-width="1"/><line x1="382.0" y1="340.0" x2="390.0" y2="340.0" stroke="#888" stroke-width="1"/><text x="36.0" y="343.0" text-anchor="end" font-family="Arial" font-size="9" fill="#666">5</text><text x="392.0" y="343.0" text-anchor="start" font-family="Arial" font-size="9" fill="#666">5</text><line x1="46.0" y1="319.0" x2="42.0" y2="319.0" stroke="#888" stroke-width="1"/><line x1="382.0" y1="319.0" x2="386.0" y2="319.0" stroke="#888" stroke-width="1"/><line x1="46.0" y1="298.0" x2="38.0" y2="298.0" stroke="#888" stroke-width="1"/><line x1="382.0" y1="298.0" x2="390.0" y2="298.0" stroke="#888" stroke-width="1"/><text x="36.0" y="301.0" text-anchor="end" font-family="Arial" font-size="9" fill="#666">6</text><text x="392.0" y="301.0" text-anchor="start" font-family="Arial" font-size="9" fill="#666">6</text><line x1="46.0" y1="277.0" x2="42.0" y2="277.0" stroke="#888" stroke-width="1"/><line x1="382.0" y1="277.0" x2="386.0" y2="277.0" stroke="#888" stroke-width="1"/><line x1="46.0" y1="256.0" x2="38.0" y2="256.0" stroke="#888" stroke-width="1"/><line x1="382.0" y1="256.0" x2="390.0" y2="256.0" stroke="#888" stroke-width="1"/><text x="36.0" y="259.0" text-anchor="end" font-family="Arial" font-size="9" fill="#666">7</text><text x="392.0" y="259.0" text-anchor="start" font-family="Arial" font-size="9" fill="#666">7</text><line x1="46.0" y1="235.0" x2="42.0" y2="235.0" stroke="#888" stroke-width="1"/><line x1="382.0" y1="235.0" x2="386.0" y2="235.0" stroke="#888" stroke-width="1"/><line x1="46.0" y1="214.0" x2="38.0" y2="214.0" stroke="#888" stroke-width="1"/><line x1="382.0" y1="214.0" x2="390.0" y2="214.0" stroke="#888" stroke-width="1"/><text x="36.0" y="217.0" text-anchor="end" font-family="Arial" font-size="9" fill="#666">8</text><text x="392.0" y="217.0" text-anchor="start" font-family="Arial" font-size="9" fill="#666">8</text><line x1="46.0" y1="193.0" x2="42.0" y2="193.0" stroke="#888" stroke-width="1"/><line x1="382.0" y1="193.0" x2="386.0" y2="193.0" stroke="#888" stroke-width="1"/><line x1="46.0" y1="172.0" x2="38.0" y2="172.0" stroke="#888" stroke-width="1"/><line x1="382.0" y1="172.0" x2="390.0" y2="172.0" stroke="#888" stroke-width="1"/><text x="36.0" y="175.0" text-anchor="end" font-family="Arial" font-size="9" fill="#666">9</text><text x="392.0" y="175.0" text-anchor="start" font-family="Arial" font-size="9" fill="#666">9</text><line x1="46.0" y1="151.0" x2="42.0" y2="151.0" stroke="#888" stroke-width="1"/><line x1="382.0" y1="151.0" x2="386.0" y2="151.0" stroke="#888" stroke-width="1"/><line x1="46.0" y1="130.0" x2="38.0" y2="130.0" stroke="#888" stroke-width="1"/><line x1="382.0" y1="130.0" x2="390.0" y2="130.0" stroke="#888" stroke-width="1"/><text x="36.0" y="133.0" text-anchor="end" font-family="Arial" font-size="9" fill="#666">10</text><text x="392.0" y="133.0" text-anchor="start" font-family="Arial" font-size="9" fill="#666">10</text><line x1="46.0" y1="109.0" x2="42.0" y2="109.0" stroke="#888" stroke-width="1"/><line x1="382.0" y1="109.0" x2="386.0" y2="109.0" stroke="#888" stroke-width="1"/><line x1="46.0" y1="88.0" x2="38.0" y2="88.0" stroke="#888" stroke-width="1"/><line x1="382.0" y1="88.0" x2="390.0" y2="88.0" stroke="#888" stroke-width="1"/><text x="36.0" y="91.0" text-anchor="end" font-family="Arial" font-size="9" fill="#666">11</text><text x="392.0" y="91.0" text-anchor="start" font-family="Arial" font-size="9" fill="#666">11</text><line x1="46.0" y1="67.0" x2="42.0" y2="67.0" stroke="#888" stroke-width="1"/><line x1="382.0" y1="67.0" x2="386.0" y2="67.0" stroke="#888" stroke-width="1"/><line x1="46.0" y1="46.0" x2="38.0" y2="46.0" stroke="#888" stroke-width="1"/><line x1="382.0" y1="46.0" x2="390.0" y2="46.0" stroke="#888" stroke-width="1"/><text x="36.0" y="49.0" text-anchor="end" font-family="Arial" font-size="9" fill="#666">12</text><text x="392.0" y="49.0" text-anchor="start" font-family="Arial" font-size="9" fill="#666">12</text><rect x="130.0" y="130.0" width="168.0" height="336.0" fill="none" stroke="#9aa" stroke-width="1" stroke-dasharray="3 3"/><rect x="131.3" y="467.3" width="165.5" height="60.5" fill="#f2f2f2" stroke="#333" stroke-width="1.5" stroke-dasharray="6 4"/><text x="214.0" y="494.9" text-anchor="middle" font-family="Arial" font-size="12" font-weight="bold" fill="#222">PORCH</text><text x="214.0" y="510.7" text-anchor="middle" font-family="Arial" font-size="10" fill="#555">4.0×1.5 m</text><rect x="130.0" y="333.7" width="168.0" height="132.3" fill="#cfe2f3" stroke="none"/><rect x="130.0" y="277.0" width="37.8" height="56.7" fill="#cfe2f3" stroke="none"/><text x="214.0" y="397.2" text-anchor="middle" font-family="Arial" font-size="12" font-weight="bold" fill="#222">GREAT ROOM</text><text x="214.0" y="413.0" text-anchor="middle" font-family="Arial" font-size="10" fill="#555">13.8 sqm (L-shaped)</text><rect x="214.0" y="130.0" width="84.0" height="132.3" fill="#cfe2f3" stroke="#333" stroke-width="1.5"/><text x="256.0" y="187.8" text-anchor="middle" font-family="Arial" font-size="12" font-weight="bold" fill="#222">KITCHEN</text><text x="256.0" y="203.6" text-anchor="middle" font-family="Arial" font-size="10" fill="#555">2.0×3.1 m</text><text x="256.0" y="215.1" text-anchor="middle" font-family="Arial" font-size="10" fill="#555">6.3 sqm</text><rect x="214.0" y="262.3" width="84.0" height="71.4" fill="#ead1dc" stroke="#333" stroke-width="1.5"/><text x="256.0" y="289.6" text-anchor="middle" font-family="Arial" font-size="12" font-weight="bold" fill="#222">T&amp;B</text><text x="256.0" y="305.4" text-anchor="middle" font-family="Arial" font-size="10" fill="#555">2.0×1.7 m</text><text x="256.0" y="316.9" text-anchor="middle" font-family="Arial" font-size="10" fill="#555">3.4 sqm</text><rect x="167.8" y="130.0" width="46.2" height="203.7" fill="#efefef" stroke="#333" stroke-width="1.5"/><text x="190.9" y="229.2" text-anchor="middle" font-family="Arial" font-size="12" font-weight="bold" fill="#222">HALL</text><text x="190.9" y="245.0" text-anchor="middle" font-family="Arial" font-size="10" fill="#555">5.3 sqm</text><rect x="130.0" y="130.0" width="37.8" height="147.0" fill="#efefef" stroke="#333" stroke-width="1.5"/><line x1="130.0" y1="264.8" x2="167.8" y2="264.8" stroke="#9a9a9a" stroke-width="0.6"/><line x1="130.0" y1="252.5" x2="167.8" y2="252.5" stroke="#9a9a9a" stroke-width="0.6"/><line x1="130.0" y1="240.2" x2="167.8" y2="240.2" stroke="#9a9a9a" stroke-width="0.6"/><line x1="130.0" y1="228.0" x2="167.8" y2="228.0" stroke="#9a9a9a" stroke-width="0.6"/><line x1="130.0" y1="215.8" x2="167.8" y2="215.8" stroke="#9a9a9a" stroke-width="0.6"/><line x1="130.0" y1="203.5" x2="167.8" y2="203.5" stroke="#9a9a9a" stroke-width="0.6"/><line x1="130.0" y1="191.3" x2="167.8" y2="191.3" stroke="#9a9a9a" stroke-width="0.6"/><line x1="130.0" y1="179.0" x2="167.8" y2="179.0" stroke="#9a9a9a" stroke-width="0.6"/><line x1="130.0" y1="166.8" x2="167.8" y2="166.8" stroke="#9a9a9a" stroke-width="0.6"/><line x1="130.0" y1="154.5" x2="167.8" y2="154.5" stroke="#9a9a9a" stroke-width="0.6"/><line x1="130.0" y1="142.2" x2="167.8" y2="142.2" stroke="#9a9a9a" stroke-width="0.6"/><line x1="148.9" y1="148.9" x2="148.9" y2="258.1" stroke="#333" stroke-width="2" stroke-linecap="round"/><line x1="148.9" y1="258.1" x2="145.2" y2="252.2" stroke="#333" stroke-width="2" stroke-linecap="round"/><line x1="148.9" y1="258.1" x2="152.6" y2="252.2" stroke="#333" stroke-width="2" stroke-linecap="round"/><text x="148.9" y="139.9" text-anchor="middle" dominant-baseline="middle" font-family="Arial" font-size="9" font-weight="bold" fill="#333" stroke="white" stroke-width="2.5" paint-order="stroke">UP</text><text x="214.0" y="584.0" text-anchor="middle" font-family="Arial" font-size="12" font-weight="bold" fill="#888">FRONT (street)</text><rect x="214.00" y="331.60" width="84.00" height="4.20" fill="#555" stroke="none"/><rect x="130.00" y="274.90" width="37.80" height="4.20" fill="#555" stroke="none"/><rect x="214.00" y="260.20" width="84.00" height="4.20" fill="#555" stroke="none"/><rect x="211.90" y="262.30" width="4.20" height="71.40" fill="#555" stroke="none"/><rect x="130.00" y="461.80" width="168.00" height="8.40" fill="#555" stroke="none"/><rect x="293.80" y="333.70" width="8.40" height="132.30" fill="#555" stroke="none"/><rect x="125.80" y="333.70" width="8.40" height="132.30" fill="#555" stroke="none"/><rect x="125.80" y="277.00" width="8.40" height="56.70" fill="#555" stroke="none"/><rect x="214.00" y="125.80" width="84.00" height="8.40" fill="#555" stroke="none"/><rect x="293.80" y="130.00" width="8.40" height="132.30" fill="#555" stroke="none"/><rect x="293.80" y="262.30" width="8.40" height="71.40" fill="#555" stroke="none"/><rect x="167.80" y="125.80" width="46.20" height="8.40" fill="#555" stroke="none"/><rect x="130.00" y="125.80" width="37.80" height="8.40" fill="#555" stroke="none"/><rect x="125.80" y="130.00" width="8.40" height="147.00" fill="#555" stroke="none"/><rect x="293.80" y="329.50" width="8.40" height="8.40" fill="#555" stroke="none"/><rect x="125.80" y="272.80" width="8.40" height="8.40" fill="#555" stroke="none"/><rect x="293.80" y="258.10" width="8.40" height="8.40" fill="#555" stroke="none"/><rect x="125.80" y="461.80" width="8.40" height="8.40" fill="#555" stroke="none"/><rect x="293.80" y="461.80" width="8.40" height="8.40" fill="#555" stroke="none"/><rect x="293.80" y="461.80" width="8.40" height="8.40" fill="#555" stroke="none"/><rect x="293.80" y="329.50" width="8.40" height="8.40" fill="#555" stroke="none"/><rect x="125.80" y="461.80" width="8.40" height="8.40" fill="#555" stroke="none"/><rect x="125.80" y="272.80" width="8.40" height="8.40" fill="#555" stroke="none"/><rect x="293.80" y="125.80" width="8.40" height="8.40" fill="#555" stroke="none"/><rect x="293.80" y="258.10" width="8.40" height="8.40" fill="#555" stroke="none"/><rect x="293.80" y="125.80" width="8.40" height="8.40" fill="#555" stroke="none"/><rect x="293.80" y="329.50" width="8.40" height="8.40" fill="#555" stroke="none"/><rect x="293.80" y="258.10" width="8.40" height="8.40" fill="#555" stroke="none"/><rect x="125.80" y="125.80" width="8.40" height="8.40" fill="#555" stroke="none"/><rect x="125.80" y="272.80" width="8.40" height="8.40" fill="#555" stroke="none"/><rect x="125.80" y="125.80" width="8.40" height="8.40" fill="#555" stroke="none"/><rect x="167.8" y="333.7" width="44.1" height="5.0" fill="#cfe2f3" stroke="none"/><rect x="167.8" y="328.7" width="44.1" height="5.0" fill="#efefef" stroke="none"/><rect x="162.8" y="277.0" width="5.0" height="56.7" fill="#cfe2f3" stroke="none"/><rect x="167.8" y="277.0" width="5.0" height="56.7" fill="#efefef" stroke="none"/><rect x="167.8" y="132.1" width="5.0" height="144.9" fill="#efefef" stroke="none"/><rect x="162.8" y="132.1" width="5.0" height="144.9" fill="#efefef" stroke="none"/><rect x="209.0" y="132.1" width="5.0" height="128.1" fill="#efefef" stroke="none"/><rect x="214.0" y="132.1" width="5.0" height="128.1" fill="#cfe2f3" stroke="none"/><rect x="209.0" y="298.0" width="5.0" height="29.4" fill="#efefef" stroke="none"/><rect x="214.0" y="298.0" width="5.0" height="29.4" fill="#ead1dc" stroke="none"/><line x1="214.0" y1="327.4" x2="243.4" y2="327.4" stroke="#444" stroke-width="1.4"/><path d="M 243.4 327.4 A 29.4 29.4 0 0 0 214.0 298.0" fill="none" stroke="#999" stroke-width="0.7" stroke-dasharray="2 2"/><rect x="136.3" y="461.0" width="37.8" height="5.0" fill="#cfe2f3" stroke="none"/><rect x="136.3" y="466.0" width="37.8" height="5.0" fill="#fbfbf7" stroke="none"/><line x1="136.3" y1="466.0" x2="136.3" y2="428.2" stroke="#444" stroke-width="1.4"/><path d="M 136.3 428.2 A 37.8 37.8 0 0 1 174.1 466.0" fill="none" stroke="#999" stroke-width="0.7" stroke-dasharray="2 2"/><rect x="258.1" y="130.0" width="33.6" height="5.0" fill="#cfe2f3" stroke="none"/><rect x="258.1" y="125.0" width="33.6" height="5.0" fill="#fbfbf7" stroke="none"/><line x1="291.7" y1="130.0" x2="291.7" y2="163.6" stroke="#444" stroke-width="1.4"/><path d="M 291.7 163.6 A 33.6 33.6 0 0 1 258.1 130.0" fill="none" stroke="#999" stroke-width="0.7" stroke-dasharray="2 2"/><rect x="211.7" y="461.0" width="61.2" height="5.0" fill="#cfe2f3" stroke="none"/><rect x="211.7" y="466.0" width="61.2" height="5.0" fill="#fbfbf7" stroke="none"/><line x1="211.7" y1="463.0" x2="273.0" y2="463.0" stroke="#222" stroke-width="1.0"/><line x1="211.7" y1="466.0" x2="273.0" y2="466.0" stroke="#222" stroke-width="1.0"/><line x1="211.7" y1="469.0" x2="273.0" y2="469.0" stroke="#222" stroke-width="1.0"/><rect x="130.0" y="363.4" width="5.0" height="72.8" fill="#cfe2f3" stroke="none"/><rect x="125.0" y="363.4" width="5.0" height="72.8" fill="#fbfbf7" stroke="none"/><line x1="127.0" y1="436.2" x2="127.0" y2="363.4" stroke="#222" stroke-width="1.0"/><line x1="130.0" y1="436.2" x2="130.0" y2="363.4" stroke="#222" stroke-width="1.0"/><line x1="133.0" y1="436.2" x2="133.0" y2="363.4" stroke="#222" stroke-width="1.0"/><rect x="293.0" y="363.4" width="5.0" height="72.8" fill="#cfe2f3" stroke="none"/><rect x="298.0" y="363.4" width="5.0" height="72.8" fill="#fbfbf7" stroke="none"/><line x1="295.0" y1="436.2" x2="295.0" y2="363.4" stroke="#222" stroke-width="1.0"/><line x1="298.0" y1="436.2" x2="298.0" y2="363.4" stroke="#222" stroke-width="1.0"/><line x1="301.0" y1="436.2" x2="301.0" y2="363.4" stroke="#222" stroke-width="1.0"/><rect x="293.0" y="159.7" width="5.0" height="72.8" fill="#cfe2f3" stroke="none"/><rect x="298.0" y="159.7" width="5.0" height="72.8" fill="#fbfbf7" stroke="none"/><line x1="295.0" y1="232.5" x2="295.0" y2="159.7" stroke="#222" stroke-width="1.0"/><line x1="298.0" y1="232.5" x2="298.0" y2="159.7" stroke="#222" stroke-width="1.0"/><line x1="301.0" y1="232.5" x2="301.0" y2="159.7" stroke="#222" stroke-width="1.0"/><rect x="293.0" y="280.1" width="5.0" height="35.7" fill="#ead1dc" stroke="none"/><rect x="298.0" y="280.1" width="5.0" height="35.7" fill="#fbfbf7" stroke="none"/><line x1="295.0" y1="315.8" x2="295.0" y2="280.1" stroke="#222" stroke-width="1.0"/><line x1="298.0" y1="315.8" x2="298.0" y2="280.1" stroke="#222" stroke-width="1.0"/><line x1="301.0" y1="315.8" x2="301.0" y2="280.1" stroke="#222" stroke-width="1.0"/></svg><text x="666" y="22" text-anchor="middle" font-family="Helvetica, Arial, sans-serif" font-size="15" font-weight="bold" letter-spacing="2">SECOND FLOOR</text><svg x="452" y="34" xmlns="http://www.w3.org/2000/svg" width="428" height="596" viewBox="0 0 428 596"><rect x="0" y="0" width="428" height="596" fill="white"/><rect x="46.0" y="46.0" width="336.0" height="504.0" fill="#fbfbf7" stroke="#333" stroke-width="1.5"/><line x1="46.0" y1="46.0" x2="46.0" y2="38.0" stroke="#888" stroke-width="1"/><line x1="46.0" y1="550.0" x2="46.0" y2="558.0" stroke="#888" stroke-width="1"/><text x="46.0" y="36.0" text-anchor="middle" font-family="Arial" font-size="9" fill="#666">0</text><text x="46.0" y="566.0" text-anchor="middle" font-family="Arial" font-size="9" fill="#666">0</text><line x1="67.0" y1="46.0" x2="67.0" y2="42.0" stroke="#888" stroke-width="1"/><line x1="67.0" y1="550.0" x2="67.0" y2="554.0" stroke="#888" stroke-width="1"/><line x1="88.0" y1="46.0" x2="88.0" y2="38.0" stroke="#888" stroke-width="1"/><line x1="88.0" y1="550.0" x2="88.0" y2="558.0" stroke="#888" stroke-width="1"/><text x="88.0" y="36.0" text-anchor="middle" font-family="Arial" font-size="9" fill="#666">1</text><text x="88.0" y="566.0" text-anchor="middle" font-family="Arial" font-size="9" fill="#666">1</text><line x1="109.0" y1="46.0" x2="109.0" y2="42.0" stroke="#888" stroke-width="1"/><line x1="109.0" y1="550.0" x2="109.0" y2="554.0" stroke="#888" stroke-width="1"/><line x1="130.0" y1="46.0" x2="130.0" y2="38.0" stroke="#888" stroke-width="1"/><line x1="130.0" y1="550.0" x2="130.0" y2="558.0" stroke="#888" stroke-width="1"/><text x="130.0" y="36.0" text-anchor="middle" font-family="Arial" font-size="9" fill="#666">2</text><text x="130.0" y="566.0" text-anchor="middle" font-family="Arial" font-size="9" fill="#666">2</text><line x1="151.0" y1="46.0" x2="151.0" y2="42.0" stroke="#888" stroke-width="1"/><line x1="151.0" y1="550.0" x2="151.0" y2="554.0" stroke="#888" stroke-width="1"/><line x1="172.0" y1="46.0" x2="172.0" y2="38.0" stroke="#888" stroke-width="1"/><line x1="172.0" y1="550.0" x2="172.0" y2="558.0" stroke="#888" stroke-width="1"/><text x="172.0" y="36.0" text-anchor="middle" font-family="Arial" font-size="9" fill="#666">3</text><text x="172.0" y="566.0" text-anchor="middle" font-family="Arial" font-size="9" fill="#666">3</text><line x1="193.0" y1="46.0" x2="193.0" y2="42.0" stroke="#888" stroke-width="1"/><line x1="193.0" y1="550.0" x2="193.0" y2="554.0" stroke="#888" stroke-width="1"/><line x1="214.0" y1="46.0" x2="214.0" y2="38.0" stroke="#888" stroke-width="1"/><line x1="214.0" y1="550.0" x2="214.0" y2="558.0" stroke="#888" stroke-width="1"/><text x="214.0" y="36.0" text-anchor="middle" font-family="Arial" font-size="9" fill="#666">4</text><text x="214.0" y="566.0" text-anchor="middle" font-family="Arial" font-size="9" fill="#666">4</text><line x1="235.0" y1="46.0" x2="235.0" y2="42.0" stroke="#888" stroke-width="1"/><line x1="235.0" y1="550.0" x2="235.0" y2="554.0" stroke="#888" stroke-width="1"/><line x1="256.0" y1="46.0" x2="256.0" y2="38.0" stroke="#888" stroke-width="1"/><line x1="256.0" y1="550.0" x2="256.0" y2="558.0" stroke="#888" stroke-width="1"/><text x="256.0" y="36.0" text-anchor="middle" font-family="Arial" font-size="9" fill="#666">5</text><text x="256.0" y="566.0" text-anchor="middle" font-family="Arial" font-size="9" fill="#666">5</text><line x1="277.0" y1="46.0" x2="277.0" y2="42.0" stroke="#888" stroke-width="1"/><line x1="277.0" y1="550.0" x2="277.0" y2="554.0" stroke="#888" stroke-width="1"/><line x1="298.0" y1="46.0" x2="298.0" y2="38.0" stroke="#888" stroke-width="1"/><line x1="298.0" y1="550.0" x2="298.0" y2="558.0" stroke="#888" stroke-width="1"/><text x="298.0" y="36.0" text-anchor="middle" font-family="Arial" font-size="9" fill="#666">6</text><text x="298.0" y="566.0" text-anchor="middle" font-family="Arial" font-size="9" fill="#666">6</text><line x1="319.0" y1="46.0" x2="319.0" y2="42.0" stroke="#888" stroke-width="1"/><line x1="319.0" y1="550.0" x2="319.0" y2="554.0" stroke="#888" stroke-width="1"/><line x1="340.0" y1="46.0" x2="340.0" y2="38.0" stroke="#888" stroke-width="1"/><line x1="340.0" y1="550.0" x2="340.0" y2="558.0" stroke="#888" stroke-width="1"/><text x="340.0" y="36.0" text-anchor="middle" font-family="Arial" font-size="9" fill="#666">7</text><text x="340.0" y="566.0" text-anchor="middle" font-family="Arial" font-size="9" fill="#666">7</text><line x1="361.0" y1="46.0" x2="361.0" y2="42.0" stroke="#888" stroke-width="1"/><line x1="361.0" y1="550.0" x2="361.0" y2="554.0" stroke="#888" stroke-width="1"/><line x1="382.0" y1="46.0" x2="382.0" y2="38.0" stroke="#888" stroke-width="1"/><line x1="382.0" y1="550.0" x2="382.0" y2="558.0" stroke="#888" stroke-width="1"/><text x="382.0" y="36.0" text-anchor="middle" font-family="Arial" font-size="9" fill="#666">8</text><text x="382.0" y="566.0" text-anchor="middle" font-family="Arial" font-size="9" fill="#666">8</text><line x1="46.0" y1="550.0" x2="38.0" y2="550.0" stroke="#888" stroke-width="1"/><line x1="382.0" y1="550.0" x2="390.0" y2="550.0" stroke="#888" stroke-width="1"/><text x="36.0" y="553.0" text-anchor="end" font-family="Arial" font-size="9" fill="#666">0</text><text x="392.0" y="553.0" text-anchor="start" font-family="Arial" font-size="9" fill="#666">0</text><line x1="46.0" y1="529.0" x2="42.0" y2="529.0" stroke="#888" stroke-width="1"/><line x1="382.0" y1="529.0" x2="386.0" y2="529.0" stroke="#888" stroke-width="1"/><line x1="46.0" y1="508.0" x2="38.0" y2="508.0" stroke="#888" stroke-width="1"/><line x1="382.0" y1="508.0" x2="390.0" y2="508.0" stroke="#888" stroke-width="1"/><text x="36.0" y="511.0" text-anchor="end" font-family="Arial" font-size="9" fill="#666">1</text><text x="392.0" y="511.0" text-anchor="start" font-family="Arial" font-size="9" fill="#666">1</text><line x1="46.0" y1="487.0" x2="42.0" y2="487.0" stroke="#888" stroke-width="1"/><line x1="382.0" y1="487.0" x2="386.0" y2="487.0" stroke="#888" stroke-width="1"/><line x1="46.0" y1="466.0" x2="38.0" y2="466.0" stroke="#888" stroke-width="1"/><line x1="382.0" y1="466.0" x2="390.0" y2="466.0" stroke="#888" stroke-width="1"/><text x="36.0" y="469.0" text-anchor="end" font-family="Arial" font-size="9" fill="#666">2</text><text x="392.0" y="469.0" text-anchor="start" font-family="Arial" font-size="9" fill="#666">2</text><line x1="46.0" y1="445.0" x2="42.0" y2="445.0" stroke="#888" stroke-width="1"/><line x1="382.0" y1="445.0" x2="386.0" y2="445.0" stroke="#888" stroke-width="1"/><line x1="46.0" y1="424.0" x2="38.0" y2="424.0" stroke="#888" stroke-width="1"/><line x1="382.0" y1="424.0" x2="390.0" y2="424.0" stroke="#888" stroke-width="1"/><text x="36.0" y="427.0" text-anchor="end" font-family="Arial" font-size="9" fill="#666">3</text><text x="392.0" y="427.0" text-anchor="start" font-family="Arial" font-size="9" fill="#666">3</text><line x1="46.0" y1="403.0" x2="42.0" y2="403.0" stroke="#888" stroke-width="1"/><line x1="382.0" y1="403.0" x2="386.0" y2="403.0" stroke="#888" stroke-width="1"/><line x1="46.0" y1="382.0" x2="38.0" y2="382.0" stroke="#888" stroke-width="1"/><line x1="382.0" y1="382.0" x2="390.0" y2="382.0" stroke="#888" stroke-width="1"/><text x="36.0" y="385.0" text-anchor="end" font-family="Arial" font-size="9" fill="#666">4</text><text x="392.0" y="385.0" text-anchor="start" font-family="Arial" font-size="9" fill="#666">4</text><line x1="46.0" y1="361.0" x2="42.0" y2="361.0" stroke="#888" stroke-width="1"/><line x1="382.0" y1="361.0" x2="386.0" y2="361.0" stroke="#888" stroke-width="1"/><line x1="46.0" y1="340.0" x2="38.0" y2="340.0" stroke="#888" stroke-width="1"/><line x1="382.0" y1="340.0" x2="390.0" y2="340.0" stroke="#888" stroke-width="1"/><text x="36.0" y="343.0" text-anchor="end" font-family="Arial" font-size="9" fill="#666">5</text><text x="392.0" y="343.0" text-anchor="start" font-family="Arial" font-size="9" fill="#666">5</text><line x1="46.0" y1="319.0" x2="42.0" y2="319.0" stroke="#888" stroke-width="1"/><line x1="382.0" y1="319.0" x2="386.0" y2="319.0" stroke="#888" stroke-width="1"/><line x1="46.0" y1="298.0" x2="38.0" y2="298.0" stroke="#888" stroke-width="1"/><line x1="382.0" y1="298.0" x2="390.0" y2="298.0" stroke="#888" stroke-width="1"/><text x="36.0" y="301.0" text-anchor="end" font-family="Arial" font-size="9" fill="#666">6</text><text x="392.0" y="301.0" text-anchor="start" font-family="Arial" font-size="9" fill="#666">6</text><line x1="46.0" y1="277.0" x2="42.0" y2="277.0" stroke="#888" stroke-width="1"/><line x1="382.0" y1="277.0" x2="386.0" y2="277.0" stroke="#888" stroke-width="1"/><line x1="46.0" y1="256.0" x2="38.0" y2="256.0" stroke="#888" stroke-width="1"/><line x1="382.0" y1="256.0" x2="390.0" y2="256.0" stroke="#888" stroke-width="1"/><text x="36.0" y="259.0" text-anchor="end" font-family="Arial" font-size="9" fill="#666">7</text><text x="392.0" y="259.0" text-anchor="start" font-family="Arial" font-size="9" fill="#666">7</text><line x1="46.0" y1="235.0" x2="42.0" y2="235.0" stroke="#888" stroke-width="1"/><line x1="382.0" y1="235.0" x2="386.0" y2="235.0" stroke="#888" stroke-width="1"/><line x1="46.0" y1="214.0" x2="38.0" y2="214.0" stroke="#888" stroke-width="1"/><line x1="382.0" y1="214.0" x2="390.0" y2="214.0" stroke="#888" stroke-width="1"/><text x="36.0" y="217.0" text-anchor="end" font-family="Arial" font-size="9" fill="#666">8</text><text x="392.0" y="217.0" text-anchor="start" font-family="Arial" font-size="9" fill="#666">8</text><line x1="46.0" y1="193.0" x2="42.0" y2="193.0" stroke="#888" stroke-width="1"/><line x1="382.0" y1="193.0" x2="386.0" y2="193.0" stroke="#888" stroke-width="1"/><line x1="46.0" y1="172.0" x2="38.0" y2="172.0" stroke="#888" stroke-width="1"/><line x1="382.0" y1="172.0" x2="390.0" y2="172.0" stroke="#888" stroke-width="1"/><text x="36.0" y="175.0" text-anchor="end" font-family="Arial" font-size="9" fill="#666">9</text><text x="392.0" y="175.0" text-anchor="start" font-family="Arial" font-size="9" fill="#666">9</text><line x1="46.0" y1="151.0" x2="42.0" y2="151.0" stroke="#888" stroke-width="1"/><line x1="382.0" y1="151.0" x2="386.0" y2="151.0" stroke="#888" stroke-width="1"/><line x1="46.0" y1="130.0" x2="38.0" y2="130.0" stroke="#888" stroke-width="1"/><line x1="382.0" y1="130.0" x2="390.0" y2="130.0" stroke="#888" stroke-width="1"/><text x="36.0" y="133.0" text-anchor="end" font-family="Arial" font-size="9" fill="#666">10</text><text x="392.0" y="133.0" text-anchor="start" font-family="Arial" font-size="9" fill="#666">10</text><line x1="46.0" y1="109.0" x2="42.0" y2="109.0" stroke="#888" stroke-width="1"/><line x1="382.0" y1="109.0" x2="386.0" y2="109.0" stroke="#888" stroke-width="1"/><line x1="46.0" y1="88.0" x2="38.0" y2="88.0" stroke="#888" stroke-width="1"/><line x1="382.0" y1="88.0" x2="390.0" y2="88.0" stroke="#888" stroke-width="1"/><text x="36.0" y="91.0" text-anchor="end" font-family="Arial" font-size="9" fill="#666">11</text><text x="392.0" y="91.0" text-anchor="start" font-family="Arial" font-size="9" fill="#666">11</text><line x1="46.0" y1="67.0" x2="42.0" y2="67.0" stroke="#888" stroke-width="1"/><line x1="382.0" y1="67.0" x2="386.0" y2="67.0" stroke="#888" stroke-width="1"/><line x1="46.0" y1="46.0" x2="38.0" y2="46.0" stroke="#888" stroke-width="1"/><line x1="382.0" y1="46.0" x2="390.0" y2="46.0" stroke="#888" stroke-width="1"/><text x="36.0" y="49.0" text-anchor="end" font-family="Arial" font-size="9" fill="#666">12</text><text x="392.0" y="49.0" text-anchor="start" font-family="Arial" font-size="9" fill="#666">12</text><rect x="130.0" y="130.0" width="168.0" height="336.0" fill="none" stroke="#9aa" stroke-width="1" stroke-dasharray="3 3"/><rect x="130.0" y="340.0" width="168.0" height="126.0" fill="#d9ead3" stroke="#333" stroke-width="1.5"/><text x="214.0" y="400.4" text-anchor="middle" font-family="Arial" font-size="12" font-weight="bold" fill="#222">MASTER BR</text><text x="214.0" y="416.2" text-anchor="middle" font-family="Arial" font-size="10" fill="#555">4.0×3.0 m · 12.0 sqm</text><rect x="167.8" y="130.0" width="130.2" height="147.0" fill="#d9ead3" stroke="#333" stroke-width="1.5"/><text x="232.9" y="195.1" text-anchor="middle" font-family="Arial" font-size="12" font-weight="bold" fill="#222">BEDROOM</text><text x="232.9" y="210.9" text-anchor="middle" font-family="Arial" font-size="10" fill="#555">3.1×3.5 m</text><text x="232.9" y="222.4" text-anchor="middle" font-family="Arial" font-size="10" fill="#555">10.8 sqm</text><rect x="211.9" y="277.0" width="86.1" height="63.0" fill="#ead1dc" stroke="#333" stroke-width="1.5"/><text x="254.9" y="300.1" text-anchor="middle" font-family="Arial" font-size="12" font-weight="bold" fill="#222">T&amp;B</text><text x="254.9" y="315.9" text-anchor="middle" font-family="Arial" font-size="10" fill="#555">2.0×1.5 m</text><text x="254.9" y="327.4" text-anchor="middle" font-family="Arial" font-size="10" fill="#555">3.1 sqm</text><rect x="130.0" y="277.0" width="81.9" height="63.0" fill="#efefef" stroke="#333" stroke-width="1.5"/><text x="170.9" y="300.1" text-anchor="middle" font-family="Arial" font-size="12" font-weight="bold" fill="#222">HALL</text><text x="170.9" y="315.9" text-anchor="middle" font-family="Arial" font-size="10" fill="#555">1.9×1.5 m</text><text x="170.9" y="327.4" text-anchor="middle" font-family="Arial" font-size="10" fill="#555">2.9 sqm</text><rect x="130.0" y="130.0" width="37.8" height="147.0" fill="#efefef" stroke="#333" stroke-width="1.5"/><line x1="130.0" y1="264.8" x2="167.8" y2="264.8" stroke="#9a9a9a" stroke-width="0.6"/><line x1="130.0" y1="252.5" x2="167.8" y2="252.5" stroke="#9a9a9a" stroke-width="0.6"/><line x1="130.0" y1="240.2" x2="167.8" y2="240.2" stroke="#9a9a9a" stroke-width="0.6"/><line x1="130.0" y1="228.0" x2="167.8" y2="228.0" stroke="#9a9a9a" stroke-width="0.6"/><line x1="130.0" y1="215.8" x2="167.8" y2="215.8" stroke="#9a9a9a" stroke-width="0.6"/><line x1="130.0" y1="203.5" x2="167.8" y2="203.5" stroke="#9a9a9a" stroke-width="0.6"/><line x1="130.0" y1="191.3" x2="167.8" y2="191.3" stroke="#9a9a9a" stroke-width="0.6"/><line x1="130.0" y1="179.0" x2="167.8" y2="179.0" stroke="#9a9a9a" stroke-width="0.6"/><line x1="130.0" y1="166.8" x2="167.8" y2="166.8" stroke="#9a9a9a" stroke-width="0.6"/><line x1="130.0" y1="154.5" x2="167.8" y2="154.5" stroke="#9a9a9a" stroke-width="0.6"/><line x1="130.0" y1="142.2" x2="167.8" y2="142.2" stroke="#9a9a9a" stroke-width="0.6"/><line x1="148.9" y1="258.1" x2="148.9" y2="148.9" stroke="#333" stroke-width="2" stroke-linecap="round"/><line x1="148.9" y1="148.9" x2="152.6" y2="154.8" stroke="#333" stroke-width="2" stroke-linecap="round"/><line x1="148.9" y1="148.9" x2="145.2" y2="154.8" stroke="#333" stroke-width="2" stroke-linecap="round"/><text x="148.9" y="267.1" text-anchor="middle" dominant-baseline="middle" font-family="Arial" font-size="9" font-weight="bold" fill="#333" stroke="white" stroke-width="2.5" paint-order="stroke">DN</text><text x="214.0" y="584.0" text-anchor="middle" font-family="Arial" font-size="12" font-weight="bold" fill="#888">FRONT (street)</text><rect x="211.90" y="337.90" width="86.10" height="4.20" fill="#555" stroke="none"/><rect x="130.00" y="337.90" width="81.90" height="4.20" fill="#555" stroke="none"/><rect x="211.90" y="274.90" width="86.10" height="4.20" fill="#555" stroke="none"/><rect x="167.80" y="274.90" width="44.10" height="4.20" fill="#555" stroke="none"/><rect x="165.70" y="130.00" width="4.20" height="147.00" fill="#555" stroke="none"/><rect x="209.80" y="277.00" width="4.20" height="63.00" fill="#555" stroke="none"/><rect x="130.00" y="461.80" width="168.00" height="8.40" fill="#555" stroke="none"/><rect x="293.80" y="340.00" width="8.40" height="126.00" fill="#555" stroke="none"/><rect x="125.80" y="340.00" width="8.40" height="126.00" fill="#555" stroke="none"/><rect x="167.80" y="125.80" width="130.20" height="8.40" fill="#555" stroke="none"/><rect x="293.80" y="130.00" width="8.40" height="147.00" fill="#555" stroke="none"/><rect x="293.80" y="277.00" width="8.40" height="63.00" fill="#555" stroke="none"/><rect x="125.80" y="277.00" width="8.40" height="63.00" fill="#555" stroke="none"/><rect x="130.00" y="125.80" width="37.80" height="8.40" fill="#555" stroke="none"/><rect x="125.80" y="130.00" width="8.40" height="147.00" fill="#555" stroke="none"/><rect x="209.80" y="337.90" width="4.20" height="4.20" fill="#555" stroke="none"/><rect x="293.80" y="335.80" width="8.40" height="8.40" fill="#555" stroke="none"/><rect x="125.80" y="335.80" width="8.40" height="8.40" fill="#555" stroke="none"/><rect x="209.80" y="337.90" width="4.20" height="4.20" fill="#555" stroke="none"/><rect x="209.80" y="274.90" width="4.20" height="4.20" fill="#555" stroke="none"/><rect x="293.80" y="272.80" width="8.40" height="8.40" fill="#555" stroke="none"/><rect x="209.80" y="274.90" width="4.20" height="4.20" fill="#555" stroke="none"/><rect x="163.60" y="125.80" width="8.40" height="8.40" fill="#555" stroke="none"/><rect x="209.80" y="337.90" width="4.20" height="4.20" fill="#555" stroke="none"/><rect x="209.80" y="274.90" width="4.20" height="4.20" fill="#555" stroke="none"/><rect x="125.80" y="461.80" width="8.40" height="8.40" fill="#555" stroke="none"/><rect x="293.80" y="461.80" width="8.40" height="8.40" fill="#555" stroke="none"/><rect x="293.80" y="461.80" width="8.40" height="8.40" fill="#555" stroke="none"/><rect x="293.80" y="335.80" width="8.40" height="8.40" fill="#555" stroke="none"/><rect x="125.80" y="461.80" width="8.40" height="8.40" fill="#555" stroke="none"/><rect x="125.80" y="335.80" width="8.40" height="8.40" fill="#555" stroke="none"/><rect x="163.60" y="125.80" width="8.40" height="8.40" fill="#555" stroke="none"/><rect x="293.80" y="125.80" width="8.40" height="8.40" fill="#555" stroke="none"/><rect x="293.80" y="272.80" width="8.40" height="8.40" fill="#555" stroke="none"/><rect x="293.80" y="125.80" width="8.40" height="8.40" fill="#555" stroke="none"/><rect x="293.80" y="335.80" width="8.40" height="8.40" fill="#555" stroke="none"/><rect x="293.80" y="272.80" width="8.40" height="8.40" fill="#555" stroke="none"/><rect x="125.80" y="335.80" width="8.40" height="8.40" fill="#555" stroke="none"/><rect x="125.80" y="125.80" width="8.40" height="8.40" fill="#555" stroke="none"/><rect x="163.60" y="125.80" width="8.40" height="8.40" fill="#555" stroke="none"/><rect x="125.80" y="125.80" width="8.40" height="8.40" fill="#555" stroke="none"/><rect x="132.1" y="272.0" width="33.6" height="5.0" fill="#efefef" stroke="none"/><rect x="132.1" y="277.0" width="33.6" height="5.0" fill="#efefef" stroke="none"/><rect x="136.3" y="335.0" width="33.6" height="5.0" fill="#efefef" stroke="none"/><rect x="136.3" y="340.0" width="33.6" height="5.0" fill="#d9ead3" stroke="none"/><line x1="136.3" y1="340.0" x2="136.3" y2="373.6" stroke="#444" stroke-width="1.4"/><path d="M 136.3 373.6 A 33.6 33.6 0 0 0 169.9 340.0" fill="none" stroke="#999" stroke-width="0.7" stroke-dasharray="2 2"/><rect x="167.8" y="277.0" width="33.6" height="5.0" fill="#efefef" stroke="none"/><rect x="167.8" y="272.0" width="33.6" height="5.0" fill="#d9ead3" stroke="none"/><line x1="167.8" y1="277.0" x2="167.8" y2="243.4" stroke="#444" stroke-width="1.4"/><path d="M 167.8 243.4 A 33.6 33.6 0 0 1 201.4 277.0" fill="none" stroke="#999" stroke-width="0.7" stroke-dasharray="2 2"/><rect x="206.9" y="304.3" width="5.0" height="29.4" fill="#efefef" stroke="none"/><rect x="211.9" y="304.3" width="5.0" height="29.4" fill="#ead1dc" stroke="none"/><line x1="211.9" y1="333.7" x2="241.3" y2="333.7" stroke="#444" stroke-width="1.4"/><path d="M 241.3 333.7 A 29.4 29.4 0 0 0 211.9 304.3" fill="none" stroke="#999" stroke-width="0.7" stroke-dasharray="2 2"/><rect x="130.0" y="368.4" width="5.0" height="69.3" fill="#d9ead3" stroke="none"/><rect x="125.0" y="368.4" width="5.0" height="69.3" fill="#fbfbf7" stroke="none"/><line x1="127.0" y1="437.6" x2="127.0" y2="368.4" stroke="#222" stroke-width="1.0"/><line x1="130.0" y1="437.6" x2="130.0" y2="368.4" stroke="#222" stroke-width="1.0"/><line x1="133.0" y1="437.6" x2="133.0" y2="368.4" stroke="#222" stroke-width="1.0"/><rect x="293.0" y="368.4" width="5.0" height="69.3" fill="#d9ead3" stroke="none"/><rect x="298.0" y="368.4" width="5.0" height="69.3" fill="#fbfbf7" stroke="none"/><line x1="295.0" y1="437.6" x2="295.0" y2="368.4" stroke="#222" stroke-width="1.0"/><line x1="298.0" y1="437.6" x2="298.0" y2="368.4" stroke="#222" stroke-width="1.0"/><line x1="301.0" y1="437.6" x2="301.0" y2="368.4" stroke="#222" stroke-width="1.0"/><rect x="167.8" y="461.0" width="92.4" height="5.0" fill="#d9ead3" stroke="none"/><rect x="167.8" y="466.0" width="92.4" height="5.0" fill="#fbfbf7" stroke="none"/><line x1="167.8" y1="463.0" x2="260.2" y2="463.0" stroke="#222" stroke-width="1.0"/><line x1="167.8" y1="466.0" x2="260.2" y2="466.0" stroke="#222" stroke-width="1.0"/><line x1="167.8" y1="469.0" x2="260.2" y2="469.0" stroke="#222" stroke-width="1.0"/><rect x="293.0" y="163.1" width="5.0" height="80.8" fill="#d9ead3" stroke="none"/><rect x="298.0" y="163.1" width="5.0" height="80.8" fill="#fbfbf7" stroke="none"/><line x1="295.0" y1="243.9" x2="295.0" y2="163.1" stroke="#222" stroke-width="1.0"/><line x1="298.0" y1="243.9" x2="298.0" y2="163.1" stroke="#222" stroke-width="1.0"/><line x1="301.0" y1="243.9" x2="301.0" y2="163.1" stroke="#222" stroke-width="1.0"/><rect x="197.1" y="130.0" width="71.6" height="5.0" fill="#d9ead3" stroke="none"/><rect x="197.1" y="125.0" width="71.6" height="5.0" fill="#fbfbf7" stroke="none"/><line x1="197.1" y1="127.0" x2="268.7" y2="127.0" stroke="#222" stroke-width="1.0"/><line x1="197.1" y1="130.0" x2="268.7" y2="130.0" stroke="#222" stroke-width="1.0"/><line x1="197.1" y1="133.0" x2="268.7" y2="133.0" stroke="#222" stroke-width="1.0"/><rect x="293.0" y="292.8" width="5.0" height="31.5" fill="#ead1dc" stroke="none"/><rect x="298.0" y="292.8" width="5.0" height="31.5" fill="#fbfbf7" stroke="none"/><line x1="295.0" y1="324.2" x2="295.0" y2="292.8" stroke="#222" stroke-width="1.0"/><line x1="298.0" y1="324.2" x2="298.0" y2="292.8" stroke="#222" stroke-width="1.0"/><line x1="301.0" y1="324.2" x2="301.0" y2="292.8" stroke="#222" stroke-width="1.0"/></svg></svg>