<svg xmlns="http://www.w3.org/2000/svg" width="1132" height="504" viewBox="0 0 1132 504"><rect x="0" y="0" width="1132" height="504" fill="white"/><text x="277" y="22" text-anchor="middle" font-family="Helvetica, Arial, sans-serif" font-size="15" font-weight="bold" letter-spacing="2">GROUND FLOOR</text><svg x="0" y="34" xmlns="http://www.w3.org/2000/svg" width="554" height="470" viewBox="0 0 554 470"><rect x="0" y="0" width="554" height="470" fill="white"/><rect x="46.0" y="46.0" width="462.0" height="378.0" fill="#fbfbf7" stroke="#333" stroke-width="1.5"/><line x1="46.0" y1="46.0" x2="46.0" y2="38.0" stroke="#888" stroke-width="1"/><line x1="46.0" y1="424.0" x2="46.0" y2="432.0" stroke="#888" stroke-width="1"/><text x="46.0" y="36.0" text-anchor="middle" font-family="Arial" font-size="9" fill="#666">0</text><text x="46.0" y="440.0" text-anchor="middle" font-family="Arial" font-size="9" fill="#666">0</text><line x1="67.0" y1="46.0" x2="67.0" y2="42.0" stroke="#888" stroke-width="1"/><line x1="67.0" y1="424.0" x2="67.0" y2="428.0" stroke="#888" stroke-width="1"/><line x1="88.0" y1="46.0" x2="88.0" y2="38.0" stroke="#888" stroke-width="1"/><line x1="88.0" y1="424.0" x2="88.0" y2="432.0" stroke="#888" stroke-width="1"/><text x="88.0" y="36.0" text-anchor="middle" font-family="Arial" font-size="9" fill="#666">1</text><text x="88.0" y="440.0" text-anchor="middle" font-family="Arial" font-size="9" fill="#666">1</text><line x1="109.0" y1="46.0" x2="109.0" y2="42.0" stroke="#888" stroke-width="1"/><line x1="109.0" y1="424.0" x2="109.0" y2="428.0" stroke="#888" stroke-width="1"/><line x1="130.0" y1="46.0" x2="130.0" y2="38.0" stroke="#888" stroke-width="1"/><line x1="130.0" y1="424.0" x2="130.0" y2="432.0" stroke="#888" stroke-width="1"/><text x="130.0" y="36.0" text-anchor="middle" font-family="Arial" font-size="9" fill="#666">2</text><text x="130.0" y="440.0" text-anchor="middle" font-family="Arial" font-size="9" fill="#666">2</text><line x1="151.0" y1="46.0" x2="151.0" y2="42.0" stroke="#888" stroke-width="1"/><line x1="151.0" y1="424.0" x2="151.0" y2="428.0" stroke="#888" stroke-width="1"/><line x1="172.0" y1="46.0" x2="172.0" y2="38.0" stroke="#888" stroke-width="1"/><line x1="172.0" y1="424.0" x2="172.0" y2="432.0" stroke="#888" stroke-width="1"/><text x="172.0" y="36.0" text-anchor="middle" font-family="Arial" font-size="9" fill="#666">3</text><text x="172.0" y="440.0" text-anchor="middle" font-family="Arial" font-size="9" fill="#666">3</text><line x1="193.0" y1="46.0" x2="193.0" y2="42.0" stroke="#888" stroke-width="1"/><line x1="193.0" y1="424.0" x2="193.0" y2="428.0" stroke="#888" stroke-width="1"/><line x1="214.0" y1="46.0" x2="214.0" y2="38.0" stroke="#888" stroke-width="1"/><line x1="214.0" y1="424.0" x2="214.0" y2="432.0" stroke="#888" stroke-width="1"/><text x="214.0" y="36.0" text-anchor="middle" font-family="Arial" font-size="9" fill="#666">4</text><text x="214.0" y="440.0" text-anchor="middle" font-family="Arial" font-size="9" fill="#666">4</text><line x1="235.0" y1="46.0" x2="235.0" y2="42.0" stroke="#888" stroke-width="1"/><line x1="235.0" y1="424.0" x2="235.0" y2="428.0" stroke="#888" stroke-width="1"/><line x1="256.0" y1="46.0" x2="256.0" y2="38.0" stroke="#888" stroke-width="1"/><line x1="256.0" y1="424.0" x2="256.0" y2="432.0" stroke="#888" stroke-width="1"/><text x="256.0" y="36.0" text-anchor="middle" font-family="Arial" font-size="9" fill="#666">5</text><text x="256.0" y="440.0" text-anchor="middle" font-family="Arial" font-size="9" fill="#666">5</text><line x1="277.0" y1="46.0" x2="277.0" y2="42.0" stroke="#888" stroke-width="1"/><line x1="277.0" y1="424.0" x2="277.0" y2="428.0" stroke="#888" stroke-width="1"/><line x1="298.0" y1="46.0" x2="298.0" y2="38.0" stroke="#888" stroke-width="1"/><line x1="298.0" y1="424.0" x2="298.0" y2="432.0" stroke="#888" stroke-width="1"/><text x="298.0" y="36.0" text-anchor="middle" font-family="Arial" font-size="9" fill="#666">6</text><text x="298.0" y="440.0" text-anchor="middle" font-family="Arial" font-size="9" fill="#666">6</text><line x1="319.0" y1="46.0" x2="319.0" y2="42.0" stroke="#888" stroke-width="1"/><line x1="319.0" y1="424.0" x2="319.0" y2="428.0" stroke="#888" stroke-width="1"/><line x1="340.0" y1="46.0" x2="340.0" y2="38.0" stroke="#888" stroke-width="1"/><line x1="340.0" y1="424.0" x2="340.0" y2="432.0" stroke="#888" stroke-width="1"/><text x="340.0" y="36.0" text-anchor="middle" font-family="Arial" font-size="9" fill="#666">7</text><text x="340.0" y="440.0" text-anchor="middle" font-family="Arial" font-size="9" fill="#666">7</text><line x1="361.0" y1="46.0" x2="361.0" y2="42.0" stroke="#888" stroke-width="1"/><line x1="361.0" y1="424.0" x2="361.0" y2="428.0" stroke="#888" stroke-width="1"/><line x1="382.0" y1="46.0" x2="382.0" y2="38.0" stroke="#888" stroke-width="1"/><line x1="382.0" y1="424.0" x2="382.0" y2="432.0" stroke="#888" stroke-width="1"/><text x="382.0" y="36.0" text-anchor="middle" font-family="Arial" font-size="9" fill="#666">8</text><text x="382.0" y="440.0" text-anchor="middle" font-family="Arial" font-size="9" fill="#666">8</text><line x1="403.0" y1="46.0" x2="403.0" y2="42.0" stroke="#888" stroke-width="1"/><line x1="403.0" y1="424.0" x2="403.0" y2="428.0" stroke="#888" stroke-width="1"/><line x1="424.0" y1="46.0" x2="424.0" y2="38.0" stroke="#888" stroke-width="1"/><line x1="424.0" y1="424.0" x2="424.0" y2="432.0" stroke="#888" stroke-width="1"/><text x="424.0" y="36.0" text-anchor="middle" font-family="Arial" font-size="9" fill="#666">9</text><text x="424.0" y="440.0" text-anchor="middle" font-family="Arial" font-size="9" fill="#666">9</text><line x1="445.0" y1="46.0" x2="445.0" y2="42.0" stroke="#888" stroke-width="1"/><line x1="445.0" y1="424.0" x2="445.0" y2="428.0" stroke="#888" stroke-width="1"/><line x1="466.0" y1="46.0" x2="466.0" y2="38.0" stroke="#888" stroke-width="1"/><line x1="466.0" y1="424.0" x2="466.0" y2="432.0" stroke="#888" stroke-width="1"/><text x="466.0" y="36.0" text-anchor="middle" font-family="Arial" font-size="9" fill="#666">10</text><text x="466.0" y="440.0" text-anchor="middle" font-family="Arial" font-size="9" fill="#666">10</text><line x1="487.0" y1="46.0" x2="487.0" y2="42.0" stroke="#888" stroke-width="1"/><line x1="487.0" y1="424.0" x2="487.0" y2="428.0" stroke="#888" stroke-width="1"/><line x1="508.0" y1="46.0" x2="508.0" y2="38.0" stroke="#888" stroke-width="1"/><line x1="508.0" y1="424.0" x2="508.0" y2="432.0" stroke="#888" stroke-width="1"/><text x="508.0" y="36.0" text-anchor="middle" font-family="Arial" font-size="9" fill="#666">11</text><text x="508.0" y="440.0" text-anchor="middle" font-family="Arial" font-size="9" fill="#666">11</text><line x1="46.0" y1="424.0" x2="38.0" y2="424.0" stroke="#888" stroke-width="1"/><line x1="508.0" y1="424.0" x2="516.0" y2="424.0" stroke="#888" stroke-width="1"/><text x="36.0" y="427.0" text-anchor="end" font-family="Arial" font-size="9" fill="#666">0</text><text x="518.0" y="427.0" text-anchor="start" font-family="Arial" font-size="9" fill="#666">0</text><line x1="46.0" y1="403.0" x2="42.0" y2="403.0" stroke="#888" stroke-width="1"/><line x1="508.0" y1="403.0" x2="512.0" y2="403.0" stroke="#888" stroke-width="1"/><line x1="46.0" y1="382.0" x2="38.0" y2="382.0" stroke="#888" stroke-width="1"/><line x1="508.0" y1="382.0" x2="516.0" y2="382.0" stroke="#888" stroke-width="1"/><text x="36.0" y="385.0" text-anchor="end" font-family="Arial" font-size="9" fill="#666">1</text><text x="518.0" y="385.0" text-anchor="start" font-family="Arial" font-size="9" fill="#666">1</text><line x1="46.0" y1="361.0" x2="42.0" y2="361.0" stroke="#888" stroke-width="1"/><line x1="508.0" y1="361.0" x2="512.0" y2="361.0" stroke="#888" stroke-width="1"/><line x1="46.0" y1="340.0" x2="38.0" y2="340.0" stroke="#888" stroke-width="1"/><line x1="508.0" y1="340.0" x2="516.0" y2="340.0" stroke="#888" stroke-width="1"/><text x="36.0" y="343.0" text-anchor="end" font-family="Arial" font-size="9" fill="#666">2</text><text x="518.0" y="343.0" text-anchor="start" font-family="Arial" font-size="9" fill="#666">2</text><line x1="46.0" y1="319.0" x2="42.0" y2="319.0" stroke="#888" stroke-width="1"/><line x1="508.0" y1="319.0" x2="512.0" y2="319.0" stroke="#888" stroke-width="1"/><line x1="46.0" y1="298.0" x2="38.0" y2="298.0" stroke="#888" stroke-width="1"/><line x1="508.0" y1="298.0" x2="516.0" y2="298.0" stroke="#888" stroke-width="1"/><text x="36.0" y="301.0" text-anchor="end" font-family="Arial" font-size="9" fill="#666">3</text><text x="518.0" y="301.0" text-anchor="start" font-family="Arial" font-size="9" fill="#666">3</text><line x1="46.0" y1="277.0" x2="42.0" y2="277.0" stroke="#888" stroke-width="1"/><line x1="508.0" y1="277.0" x2="512.0" y2="277.0" stroke="#888" stroke-width="1"/><line x1="46.0" y1="256.0" x2="38.0" y2="256.0" stroke="#888" stroke-width="1"/><line x1="508.0" y1="256.0" x2="516.0" y2="256.0" stroke="#888" stroke-width="1"/><text x="36.0" y="259.0" text-anchor="end" font-family="Arial" font-size="9" fill="#666">4</text><text x="518.0" y="259.0" text-anchor="start" font-family="Arial" font-size="9" fill="#666">4</text><line x1="46.0" y1="235.0" x2="42.0" y2="235.0" stroke="#888" stroke-width="1"/><line x1="508.0" y1="235.0" x2="512.0" y2="235.0" stroke="#888" stroke-width="1"/><line x1="46.0" y1="214.0" x2="38.0" y2="214.0" stroke="#888" stroke-width="1"/><line x1="508.0" y1="214.0" x2="516.0" y2="214.0" stroke="#888" stroke-width="1"/><text x="36.0" y="217.0" text-anchor="end" font-family="Arial" font-size="9" fill="#666">5</text><text x="518.0" y="217.0" text-anchor="start" font-family="Arial" font-size="9" fill="#666">5</text><line x1="46.0" y1="193.0" x2="42.0" y2="193.0" stroke="#888" stroke-width="1"/><line x1="508.0" y1="193.0" x2="512.0" y2="193.0" stroke="#888" stroke-width="1"/><line x1="46.0" y1="172.0" x2="38.0" y2="172.0" stroke="#888" stroke-width="1"/><line x1="508.0" y1="172.0" x2="516.0" y2="172.0" stroke="#888" stroke-width="1"/><text x="36.0" y="175.0" text-anchor="end" font-family="Arial" font-size="9" fill="#666">6</text><text x="518.0" y="175.0" text-anchor="start" font-family="Arial" font-size="9" fill="#666">6</text><line x1="46.0" y1="151.0" x2="42.0" y2="151.0" stroke="#888" stroke-width="1"/><line x1="508.0" y1="151.0" x2="512.0" y2="151.0" stroke="#888" stroke-width="1"/><line x1="46.0" y1="130.0" x2="38.0" y2="130.0" stroke="#888" stroke-width="1"/><line x1="508.0" y1="130.0" x2="516.0" y2="130.0" stroke="#888" stroke-width="1"/><text x="36.0" y="133.0" text-anchor="end" font-family="Arial" font-size="9" fill="#666">7</text><text x="518.0" y="133.0" text-anchor="start" font-family="Arial" font-size="9" fill="#666">7</text><line x1="46.0" y1="109.0" x2="42.0" y2="109.0" stroke="#888" stroke-width="1"/><line x1="508.0" y1="109.0" x2="512.0" y2="109.0" stroke="#888" stroke-width="1"/><line x1="46.0" y1="88.0" x2="38.0" y2="88.0" stroke="#888" stroke-width="1"/><line x1="508.0" y1="88.0" x2="516.0" y2="88.0" stroke="#888" stroke-width="1"/><text x="36.0" y="91.0" text-anchor="end" font-family="Arial" font-size="9" fill="#666">8</text><text x="518.0" y="91.0" text-anchor="start" font-family="Arial" font-size="9" fill="#666">8</text><line x1="46.0" y1="67.0" x2="42.0" y2="67.0" stroke="#888" stroke-width="1"/><line x1="508.0" y1="67.0" x2="512.0" y2="67.0" stroke="#888" stroke-width="1"/><line x1="46.0" y1="46.0" x2="38.0" y2="46.0" stroke="#888" stroke-width="1"/><line x1="508.0" y1="46.0" x2="516.0" y2="46.0" stroke="#888" stroke-width="1"/><text x="36.0" y="49.0" text-anchor="end" font-family="Arial" font-size="9" fill="#666">9</text><text x="518.0" y="49.0" text-anchor="start" font-family="Arial" font-size="9" fill="#666">9</text><rect x="130.0" y="130.0" width="294.0" height="210.0" fill="none" stroke="#9aa" stroke-width="1" stroke-dasharray="3 3"/><rect x="131.3" y="341.3" width="291.5" height="60.5" fill="#f2f2f2" stroke="#333" stroke-width="1.5" stroke-dasharray="6 4"/><text x="277.0" y="368.9" text-anchor="middle" font-family="Arial" font-size="12" font-weight="bold" fill="#222">PORCH</text><text x="277.0" y="384.7" text-anchor="middle" font-family="Arial" font-size="10" fill="#555">7.0×1.5 m</text><rect x="130.0" y="193.0" width="294.0" height="147.0" fill="#cfe2f3" stroke="#333" stroke-width="1.5"/><text x="277.0" y="263.9" text-anchor="middle" font-family="Arial" font-size="12" font-weight="bold" fill="#222">GREAT ROOM</text><text x="277.0" y="279.6" text-anchor="middle" font-family="Arial" font-size="10" fill="#555">7.0×3.5 m · 24.5 sqm</text><rect x="277.0" y="130.0" width="88.2" height="63.0" fill="#cfe2f3" stroke="none"/><rect x="130.0" y="130.0" width="147.0" height="12.6" fill="#cfe2f3" stroke="none"/><text x="321.1" y="158.8" text-anchor="middle" font-family="Arial" font-size="12" font-weight="bold" fill="#222">KITCHEN</text><text x="321.1" y="174.7" text-anchor="middle" font-family="Arial" font-size="10" fill="#555">4.2 sqm L</text><rect x="365.2" y="130.0" width="58.8" height="63.0" fill="#ead1dc" stroke="#333" stroke-width="1.5"/><text x="394.6" y="158.8" text-anchor="middle" font-family="Arial" font-size="12" font-weight="bold" fill="#222">T&amp;B</text><text x="394.6" y="174.7" text-anchor="middle" font-family="Arial" font-size="10" fill="#555">2.1 sqm</text><rect x="130.0" y="142.6" width="147.0" height="50.4" fill="#efefef" stroke="#333" stroke-width="1.5"/><line x1="142.2" y1="193.0" x2="142.2" y2="142.6" stroke="#9a9a9a" stroke-width="0.6"/><line x1="154.5" y1="193.0" x2="154.5" y2="142.6" stroke="#9a9a9a" stroke-width="0.6"/><line x1="166.8" y1="193.0" x2="166.8" y2="142.6" stroke="#9a9a9a" stroke-width="0.6"/><line x1="179.0" y1="193.0" x2="179.0" y2="142.6" stroke="#9a9a9a" stroke-width="0.6"/><line x1="191.2" y1="193.0" x2="191.2" y2="142.6" stroke="#9a9a9a" stroke-width="0.6"/><line x1="203.5" y1="193.0" x2="203.5" y2="142.6" stroke="#9a9a9a" stroke-width="0.6"/><line x1="215.7" y1="193.0" x2="215.7" y2="142.6" stroke="#9a9a9a" stroke-width="0.6"/><line x1="228.0" y1="193.0" x2="228.0" y2="142.6" stroke="#9a9a9a" stroke-width="0.6"/><line x1="240.2" y1="193.0" x2="240.2" y2="142.6" stroke="#9a9a9a" stroke-width="0.6"/><line x1="252.5" y1="193.0" x2="252.5" y2="142.6" stroke="#9a9a9a" stroke-width="0.6"/><line x1="264.8" y1="193.0" x2="264.8" y2="142.6" stroke="#9a9a9a" stroke-width="0.6"/><line x1="148.9" y1="167.8" x2="258.1" y2="167.8" stroke="#333" stroke-width="2" stroke-linecap="round"/><line x1="258.1" y1="167.8" x2="252.2" y2="171.5" stroke="#333" stroke-width="2" stroke-linecap="round"/><line x1="258.1" y1="167.8" x2="252.2" y2="164.1" stroke="#333" stroke-width="2" stroke-linecap="round"/><text x="139.9" y="167.8" text-anchor="middle" dominant-baseline="middle" font-family="Arial" font-size="9" font-weight="bold" fill="#333" stroke="white" stroke-width="2.5" paint-order="stroke">UP</text><text x="277.0" y="458.0" text-anchor="middle" font-family="Arial" font-size="12" font-weight="bold" fill="#888">FRONT (street)</text><rect x="365.20" y="190.90" width="58.80" height="4.20" fill="#555" stroke="none"/><rect x="363.10" y="130.00" width="4.20" height="63.00" fill="#555" stroke="none"/><rect x="274.90" y="142.60" width="4.20" height="50.40" fill="#555" stroke="none"/><rect x="130.00" y="140.50" width="147.00" height="4.20" fill="#555" stroke="none"/><rect x="130.00" y="335.80" width="294.00" height="8.40" fill="#555" stroke="none"/><rect x="419.80" y="193.00" width="8.40" height="147.00" fill="#555" stroke="none"/><rect x="125.80" y="193.00" width="8.40" height="147.00" fill="#555" stroke="none"/><rect x="277.00" y="125.80" width="88.20" height="8.40" fill="#555" stroke="none"/><rect x="130.00" y="125.80" width="147.00" height="8.40" fill="#555" stroke="none"/><rect x="125.80" y="130.00" width="8.40" height="12.60" fill="#555" stroke="none"/><rect x="365.20" y="125.80" width="58.80" height="8.40" fill="#555" stroke="none"/><rect x="419.80" y="130.00" width="8.40" height="63.00" fill="#555" stroke="none"/><rect x="125.80" y="142.60" width="8.40" height="50.40" fill="#555" stroke="none"/><rect x="419.80" y="188.80" width="8.40" height="8.40" fill="#555" stroke="none"/><rect x="361.00" y="125.80" width="8.40" height="8.40" fill="#555" stroke="none"/><rect x="274.90" y="140.50" width="4.20" height="4.20" fill="#555" stroke="none"/><rect x="125.80" y="138.40" width="8.40" height="8.40" fill="#555" stroke="none"/><rect x="274.90" y="140.50" width="4.20" height="4.20" fill="#555" stroke="none"/><rect x="125.80" y="335.80" width="8.40" height="8.40" fill="#555" stroke="none"/><rect x="419.80" y="335.80" width="8.40" height="8.40" fill="#555" stroke="none"/><rect x="419.80" y="335.80" width="8.40" height="8.40" fill="#555" stroke="none"/><rect x="419.80" y="188.80" width="8.40" height="8.40" fill="#555" stroke="none"/><rect x="125.80" y="335.80" width="8.40" height="8.40" fill="#555" stroke="none"/><rect x="361.00" y="125.80" width="8.40" height="8.40" fill="#555" stroke="none"/><rect x="125.80" y="125.80" width="8.40" height="8.40" fill="#555" stroke="none"/><rect x="125.80" y="138.40" width="8.40" height="8.40" fill="#555" stroke="none"/><rect x="125.80" y="125.80" width="8.40" height="8.40" fill="#555" stroke="none"/><rect x="361.00" y="125.80" width="8.40" height="8.40" fill="#555" stroke="none"/><rect x="419.80" y="125.80" width="8.40" height="8.40" fill="#555" stroke="none"/><rect x="419.80" y="188.80" width="8.40" height="8.40" fill="#555" stroke="none"/><rect x="419.80" y="125.80" width="8.40" height="8.40" fill="#555" stroke="none"/><rect x="125.80" y="138.40" width="8.40" height="8.40" fill="#555" stroke="none"/><rect x="277.0" y="193.0" width="86.1" height="5.0" fill="#cfe2f3" stroke="none"/><rect x="277.0" y="188.0" width="86.1" height="5.0" fill="#cfe2f3" stroke="none"/><rect x="132.1" y="193.0" width="144.9" height="5.0" fill="#cfe2f3" stroke="none"/><rect x="132.1" y="188.0" width="144.9" height="5.0" fill="#efefef" stroke="none"/><rect x="365.2" y="193.0" width="29.4" height="5.0" fill="#cfe2f3" stroke="none"/><rect x="365.2" y="188.0" width="29.4" height="5.0" fill="#ead1dc" stroke="none"/><line x1="365.2" y1="193.0" x2="365.2" y2="163.6" stroke="#444" stroke-width="1.4"/><path d="M 365.2 163.6 A 29.4 29.4 0 0 1 394.6 193.0" fill="none" stroke="#999" stroke-width="0.7" stroke-dasharray="2 2"/><rect x="136.3" y="335.0" width="37.8" height="5.0" fill="#cfe2f3" stroke="none"/><rect x="136.3" y="340.0" width="37.8" height="5.0" fill="#fbfbf7" stroke="none"/><line x1="136.3" y1="340.0" x2="136.3" y2="302.2" stroke="#444" stroke-width="1.4"/><path d="M 136.3 302.2 A 37.8 37.8 0 0 1 174.1 340.0" fill="none" stroke="#999" stroke-width="0.7" stroke-dasharray="2 2"/><rect x="325.3" y="130.0" width="33.6" height="5.0" fill="#cfe2f3" stroke="none"/><rect x="325.3" y="125.0" width="33.6" height="5.0" fill="#fbfbf7" stroke="none"/><line x1="358.9" y1="130.0" x2="358.9" y2="163.6" stroke="#444" stroke-width="1.4"/><path d="M 358.9 163.6 A 33.6 33.6 0 0 1 325.3 130.0" fill="none" stroke="#999" stroke-width="0.7" stroke-dasharray="2 2"/><rect x="254.9" y="335.0" width="100.8" height="5.0" fill="#cfe2f3" stroke="none"/><rect x="254.9" y="340.0" width="100.8" height="5.0" fill="#fbfbf7" stroke="none"/><line x1="254.9" y1="337.0" x2="355.8" y2="337.0" stroke="#222" stroke-width="1.0"/><line x1="254.9" y1="340.0" x2="355.8" y2="340.0" stroke="#222" stroke-width="1.0"/><line x1="254.9" y1="343.0" x2="355.8" y2="343.0" stroke="#222" stroke-width="1.0"/><rect x="130.0" y="226.1" width="5.0" height="80.9" fill="#cfe2f3" stroke="none"/><rect x="125.0" y="226.1" width="5.0" height="80.9" fill="#fbfbf7" stroke="none"/><line x1="127.0" y1="306.9" x2="127.0" y2="226.1" stroke="#222" stroke-width="1.0"/><line x1="130.0" y1="306.9" x2="130.0" y2="226.1" stroke="#222" stroke-width="1.0"/><line x1="133.0" y1="306.9" x2="133.0" y2="226.1" stroke="#222" stroke-width="1.0"/><rect x="419.0" y="226.1" width="5.0" height="80.9" fill="#cfe2f3" stroke="none"/><rect x="424.0" y="226.1" width="5.0" height="80.9" fill="#fbfbf7" stroke="none"/><line x1="421.0" y1="306.9" x2="421.0" y2="226.1" stroke="#222" stroke-width="1.0"/><line x1="424.0" y1="306.9" x2="424.0" y2="226.1" stroke="#222" stroke-width="1.0"/><line x1="427.0" y1="306.9" x2="427.0" y2="226.1" stroke="#222" stroke-width="1.0"/><rect x="419.0" y="145.8" width="5.0" height="31.5" fill="#ead1dc" stroke="none"/><rect x="424.0" y="145.8" width="5.0" height="31.5" fill="#fbfbf7" stroke="none"/><line x1="421.0" y1="177.2" x2="421.0" y2="145.8" stroke="#222" stroke-width="1.0"/><line x1="424.0" y1="177.2" x2="424.0" y2="145.8" stroke="#222" stroke-width="1.0"/><line x1="427.0" y1="177.2" x2="427.0" y2="145.8" stroke="#222" stroke-width="1.0"/><rect x="379.9" y="130.0" width="29.4" height="5.0" fill="#ead1dc" stroke="none"/><rect x="379.9" y="125.0" width="29.4" height="5.0" fill="#fbfbf7" stroke="none"/><line x1="379.9" y1="127.0" x2="409.3" y2="127.0" stroke="#222" stroke-width="1.0"/><line x1="379.9" y1="130.0" x2="409.3" y2="130.0" stroke="#222" stroke-width="1.0"/><line x1="379.9" y1="133.0" x2="409.3" y2="133.0" stroke="#222" stroke-width="1.0"/></svg><text x="855" y="22" text-anchor="middle" font-family="Helvetica, Arial, sans-serif" font-size="15" font-weight="bold" letter-spacing="2">SECOND FLOOR</text><svg x="578" y="34" xmlns="http://www.w3.org/2000/svg" width="554" height="470" viewBox="0 0 554 470"><rect x="0" y="0" width="554" height="470" fill="white"/><rect x="46.0" y="46.0" width="462.0" height="378.0" fill="#fbfbf7" stroke="#333" stroke-width="1.5"/><line x1="46.0" y1="46.0" x2="46.0" y2="38.0" stroke="#888" stroke-width="1"/><line x1="46.0" y1="424.0" x2="46.0" y2="432.0" stroke="#888" stroke-width="1"/><text x="46.0" y="36.0" text-anchor="middle" font-family="Arial" font-size="9" fill="#666">0</text><text x="46.0" y="440.0" text-anchor="middle" font-family="Arial" font-size="9" fill="#666">0</text><line x1="67.0" y1="46.0" x2="67.0" y2="42.0" stroke="#888" stroke-width="1"/><line x1="67.0" y1="424.0" x2="67.0" y2="428.0" stroke="#888" stroke-width="1"/><line x1="88.0" y1="46.0" x2="88.0" y2="38.0" stroke="#888" stroke-width="1"/><line x1="88.0" y1="424.0" x2="88.0" y2="432.0" stroke="#888" stroke-width="1"/><text x="88.0" y="36.0" text-anchor="middle" font-family="Arial" font-size="9" fill="#666">1</text><text x="88.0" y="440.0" text-anchor="middle" font-family="Arial" font-size="9" fill="#666">1</text><line x1="109.0" y1="46.0" x2="109.0" y2="42.0" stroke="#888" stroke-width="1"/><line x1="109.0" y1="424.0" x2="109.0" y2="428.0" stroke="#888" stroke-width="1"/><line x1="130.0" y1="46.0" x2="130.0" y2="38.0" stroke="#888" stroke-width="1"/><line x1="130.0" y1="424.0" x2="130.0" y2="432.0" stroke="#888" stroke-width="1"/><text x="130.0" y="36.0" text-anchor="middle" font-family="Arial" font-size="9" fill="#666">2</text><text x="130.0" y="440.0" text-anchor="middle" font-family="Arial" font-size="9" fill="#666">2</text><line x1="151.0" y1="46.0" x2="151.0" y2="42.0" stroke="#888" stroke-width="1"/><line x1="151.0" y1="424.0" x2="151.0" y2="428.0" stroke="#888" stroke-width="1"/><line x1="172.0" y1="46.0" x2="172.0" y2="38.0" stroke="#888" stroke-width="1"/><line x1="172.0" y1="424.0" x2="172.0" y2="432.0" stroke="#888" stroke-width="1"/><text x="172.0" y="36.0" text-anchor="middle" font-family="Arial" font-size="9" fill="#666">3</text><text x="172.0" y="440.0" text-anchor="middle" font-family="Arial" font-size="9" fill="#666">3</text><line x1="193.0" y1="46.0" x2="193.0" y2="42.0" stroke="#888" stroke-width="1"/><line x1="193.0" y1="424.0" x2="193.0" y2="428.0" stroke="#888" stroke-width="1"/><line x1="214.0" y1="46.0" x2="214.0" y2="38.0" stroke="#888" stroke-width="1"/><line x1="214.0" y1="424.0" x2="214.0" y2="432.0" stroke="#888" stroke-width="1"/><text x="214.0" y="36.0" text-anchor="middle" font-family="Arial" font-size="9" fill="#666">4</text><text x="214.0" y="440.0" text-anchor="middle" font-family="Arial" font-size="9" fill="#666">4</text><line x1="235.0" y1="46.0" x2="235.0" y2="42.0" stroke="#888" stroke-width="1"/><line x1="235.0" y1="424.0" x2="235.0" y2="428.0" stroke="#888" stroke-width="1"/><line x1="256.0" y1="46.0" x2="256.0" y2="38.0" stroke="#888" stroke-width="1"/><line x1="256.0" y1="424.0" x2="256.0" y2="432.0" stroke="#888" stroke-width="1"/><text x="256.0" y="36.0" text-anchor="middle" font-family="Arial" font-size="9" fill="#666">5</text><text x="256.0" y="440.0" text-anchor="middle" font-family="Arial" font-size="9" fill="#666">5</text><line x1="277.0" y1="46.0" x2="277.0" y2="42.0" stroke="#888" stroke-width="1"/><line x1="277.0" y1="424.0" x2="277.0" y2="428.0" stroke="#888" stroke-width="1"/><line x1="298.0" y1="46.0" x2="298.0" y2="38.0" stroke="#888" stroke-width="1"/><line x1="298.0" y1="424.0" x2="298.0" y2="432.0" stroke="#888" stroke-width="1"/><text x="298.0" y="36.0" text-anchor="middle" font-family="Arial" font-size="9" fill="#666">6</text><text x="298.0" y="440.0" text-anchor="middle" font-family="Arial" font-size="9" fill="#666">6</text><line x1="319.0" y1="46.0" x2="319.0" y2="42.0" stroke="#888" stroke-width="1"/><line x1="319.0" y1="424.0" x2="319.0" y2="428.0" stroke="#888" stroke-width="1"/><line x1="340.0" y1="46.0" x2="340.0" y2="38.0" stroke="#888" stroke-width="1"/><line x1="340.0" y1="424.0" x2="340.0" y2="432.0" stroke="#888" stroke-width="1"/><text x="340.0" y="36.0" text-anchor="middle" font-family="Arial" font-size="9" fill="#666">7</text><text x="340.0" y="440.0" text-anchor="middle" font-family="Arial" font-size="9" fill="#666">7</text><line x1="361.0" y1="46.0" x2="361.0" y2="42.0" stroke="#888" stroke-width="1"/><line x1="361.0" y1="424.0" x2="361.0" y2="428.0" stroke="#888" stroke-width="1"/><line x1="382.0" y1="46.0" x2="382.0" y2="38.0" stroke="#888" stroke-width="1"/><line x1="382.0" y1="424.0" x2="382.0" y2="432.0" stroke="#888" stroke-width="1"/><text x="382.0" y="36.0" text-anchor="middle" font-family="Arial" font-size="9" fill="#666">8</text><text x="382.0" y="440.0" text-anchor="middle" font-family="Arial" font-size="9" fill="#666">8</text><line x1="403.0" y1="46.0" x2="403.0" y2="42.0" stroke="#888" stroke-width="1"/><line x1="403.0" y1="424.0" x2="403.0" y2="428.0" stroke="#888" stroke-width="1"/><line x1="424.0" y1="46.0" x2="424.0" y2="38.0" stroke="#888" stroke-width="1"/><line x1="424.0" y1="424.0" x2="424.0" y2="432.0" stroke="#888" stroke-width="1"/><text x="424.0" y="36.0" text-anchor="middle" font-family="Arial" font-size="9" fill="#666">9</text><text x="424.0" y="440.0" text-anchor="middle" font-family="Arial" font-size="9" fill="#666">9</text><line x1="445.0" y1="46.0" x2="445.0" y2="42.0" stroke="#888" stroke-width="1"/><line x1="445.0" y1="424.0" x2="445.0" y2="428.0" stroke="#888" stroke-width="1"/><line x1="466.0" y1="46.0" x2="466.0" y2="38.0" stroke="#888" stroke-width="1"/><line x1="466.0" y1="424.0" x2="466.0" y2="432.0" stroke="#888" stroke-width="1"/><text x="466.0" y="36.0" text-anchor="middle" font-family="Arial" font-size="9" fill="#666">10</text><text x="466.0" y="440.0" text-anchor="middle" font-family="Arial" font-size="9" fill="#666">10</text><line x1="487.0" y1="46.0" x2="487.0" y2="42.0" stroke="#888" stroke-width="1"/><line x1="487.0" y1="424.0" x2="487.0" y2="428.0" stroke="#888" stroke-width="1"/><line x1="508.0" y1="46.0" x2="508.0" y2="38.0" stroke="#888" stroke-width="1"/><line x1="508.0" y1="424.0" x2="508.0" y2="432.0" stroke="#888" stroke-width="1"/><text x="508.0" y="36.0" text-anchor="middle" font-family="Arial" font-size="9" fill="#666">11</text><text x="508.0" y="440.0" text-anchor="middle" font-family="Arial" font-size="9" fill="#666">11</text><line x1="46.0" y1="424.0" x2="38.0" y2="424.0" stroke="#888" stroke-width="1"/><line x1="508.0" y1="424.0" x2="516.0" y2="424.0" stroke="#888" stroke-width="1"/><text x="36.0" y="427.0" text-anchor="end" font-family="Arial" font-size="9" fill="#666">0</text><text x="518.0" y="427.0" text-anchor="start" font-family="Arial" font-size="9" fill="#666">0</text><line x1="46.0" y1="403.0" x2="42.0" y2="403.0" stroke="#888" stroke-width="1"/><line x1="508.0" y1="403.0" x2="512.0" y2="403.0" stroke="#888" stroke-width="1"/><line x1="46.0" y1="382.0" x2="38.0" y2="382.0" stroke="#888" stroke-width="1"/><line x1="508.0" y1="382.0" x2="516.0" y2="382.0" stroke="#888" stroke-width="1"/><text x="36.0" y="385.0" text-anchor="end" font-family="Arial" font-size="9" fill="#666">1</text><text x="518.0" y="385.0" text-anchor="start" font-family="Arial" font-size="9" fill="#666">1</text><line x1="46.0" y1="361.0" x2="42.0" y2="361.0" stroke="#888" stroke-width="1"/><line x1="508.0" y1="361.0" x2="512.0" y2="361.0" stroke="#888" stroke-width="1"/><line x1="46.0" y1="340.0" x2="38.0" y2="340.0" stroke="#888" stroke-width="1"/><line x1="508.0" y1="340.0" x2="516.0" y2="340.0" stroke="#888" stroke-width="1"/><text x="36.0" y="343.0" text-anchor="end" font-family="Arial" font-size="9" fill="#666">2</text><text x="518.0" y="343.0" text-anchor="start" font-family="Arial" font-size="9" fill="#666">2</text><line x1="46.0" y1="319.0" x2="42.0" y2="319.0" stroke="#888" stroke-width="1"/><line x1="508.0" y1="319.0" x2="512.0" y2="319.0" stroke="#888" stroke-width="1"/><line x1="46.0" y1="298.0" x2="38.0" y2="298.0" stroke="#888" stroke-width="1"/><line x1="508.0" y1="298.0" x2="516.0" y2="298.0" stroke="#888" stroke-width="1"/><text x="36.0" y="301.0" text-anchor="end" font-family="Arial" font-size="9" fill="#666">3</text><text x="518.0" y="301.0" text-anchor="start" font-family="Arial" font-size="9" fill="#666">3</text><line x1="46.0" y1="277.0" x2="42.0" y2="277.0" stroke="#888" stroke-width="1"/><line x1="508.0" y1="277.0" x2="512.0" y2="277.0" stroke="#888" stroke-width="1"/><line x1="46.0" y1="256.0" x2="38.0" y2="256.0" stroke="#888" stroke-width="1"/><line x1="508.0" y1="256.0" x2="516.0" y2="256.0" stroke="#888" stroke-width="1"/><text x="36.0" y="259.0" text-anchor="end" font-family="Arial" font-size="9" fill="#666">4</text><text x="518.0" y="259.0" text-anchor="start" font-family="Arial" font-size="9" fill="#666">4</text><line x1="46.0" y1="235.0" x2="42.0" y2="235.0" stroke="#888" stroke-width="1"/><line x1="508.0" y1="235.0" x2="512.0" y2="235.0" stroke="#888" stroke-width="1"/><line x1="46.0" y1="214.0" x2="38.0" y2="214.0" stroke="#888" stroke-width="1"/><line x1="508.0" y1="214.0" x2="516.0" y2="214.0" stroke="#888" stroke-width="1"/><text x="36.0" y="217.0" text-anchor="end" font-family="Arial" font-size="9" fill="#666">5</text><text x="518.0" y="217.0" text-anchor="start" font-family="Arial" font-size="9" fill="#666">5</text><line x1="46.0" y1="193.0" x2="42.0" y2="193.0" stroke="#888" stroke-width="1"/><line x1="508.0" y1="193.0" x2="512.0" y2="193.0" stroke="#888" stroke-width="1"/><line x1="46.0" y1="172.0" x2="38.0" y2="172.0" stroke="#888" stroke-width="1"/><line x1="508.0" y1="172.0" x2="516.0" y2="172.0" stroke="#888" stroke-width="1"/><text x="36.0" y="175.0" text-anchor="end" font-family="Arial" font-size="9" fill="#666">6</text><text x="518.0" y="175.0" text-anchor="start" font-family="Arial" font-size="9" fill="#666">6</text><line x1="46.0" y1="151.0" x2="42.0" y2="151.0" stroke="#888" stroke-width="1"/><line x1="508.0" y1="151.0" x2="512.0" y2="151.0" stroke="#888" stroke-width="1"/><line x1="46.0" y1="130.0" x2="38.0" y2="130.0" stroke="#888" stroke-width="1"/><line x1="508.0" y1="130.0" x2="516.0" y2="130.0" stroke="#888" stroke-width="1"/><text x="36.0" y="133.0" text-anchor="end" font-family="Arial" font-size="9" fill="#666">7</text><text x="518.0" y="133.0" text-anchor="start" font-family="Arial" font-size="9" fill="#666">7</text><line x1="46.0" y1="109.0" x2="42.0" y2="109.0" stroke="#888" stroke-width="1"/><line x1="508.0" y1="109.0" x2="512.0" y2="109.0" stroke="#888" stroke-width="1"/><line x1="46.0" y1="88.0" x2="38.0" y2="88.0" stroke="#888" stroke-width="1"/><line x1="508.0" y1="88.0" x2="516.0" y2="88.0" stroke="#888" stroke-width="1"/><text x="36.0" y="91.0" text-anchor="end" font-family="Arial" font-size="9" fill="#666">8</text><text x="518.0" y="91.0" text-anchor="start" font-family="Arial" font-size="9" fill="#666">8</text><line x1="46.0" y1="67.0" x2="42.0" y2="67.0" stroke="#888" stroke-width="1"/><line x1="508.0" y1="67.0" x2="512.0" y2="67.0" stroke="#888" stroke-width="1"/><line x1="46.0" y1="46.0" x2="38.0" y2="46.0" stroke="#888" stroke-width="1"/><line x1="508.0" y1="46.0" x2="516.0" y2="46.0" stroke="#888" stroke-width="1"/><text x="36.0" y="49.0" text-anchor="end" font-family="Arial" font-size="9" fill="#666">9</text><text x="518.0" y="49.0" text-anchor="start" font-family="Arial" font-size="9" fill="#666">9</text><rect x="130.0" y="130.0" width="294.0" height="210.0" fill="none" stroke="#9aa" stroke-width="1" stroke-dasharray="3 3"/><rect x="130.0" y="193.0" width="147.0" height="147.0" fill="#d9ead3" stroke="#333" stroke-width="1.5"/><text x="203.5" y="263.9" text-anchor="middle" font-family="Arial" font-size="12" font-weight="bold" fill="#222">MASTER BR</text><text x="203.5" y="279.6" text-anchor="middle" font-family="Arial" font-size="10" fill="#555">3.5×3.5 m · 12.2 sqm</text><rect x="314.8" y="193.0" width="109.2" height="147.0" fill="#d9ead3" stroke="#333" stroke-width="1.5"/><text x="369.4" y="258.1" text-anchor="middle" font-family="Arial" font-size="12" font-weight="bold" fill="#222">BEDROOM</text><text x="369.4" y="273.9" text-anchor="middle" font-family="Arial" font-size="10" fill="#555">2.6×3.5 m</text><text x="369.4" y="285.4" text-anchor="middle" font-family="Arial" font-size="10" fill="#555">9.1 sqm</text><rect x="314.8" y="130.0" width="109.2" height="63.0" fill="#ead1dc" stroke="#333" stroke-width="1.5"/><text x="369.4" y="153.1" text-anchor="middle" font-family="Arial" font-size="12" font-weight="bold" fill="#222">T&amp;B</text><text x="369.4" y="168.9" text-anchor="middle" font-family="Arial" font-size="10" fill="#555">2.6×1.5 m</text><text x="369.4" y="180.4" text-anchor="middle" font-family="Arial" font-size="10" fill="#555">3.9 sqm</text><rect x="277.0" y="130.0" width="37.8" height="210.0" fill="#efefef" stroke="none"/><rect x="130.0" y="130.0" width="147.0" height="12.6" fill="#efefef" stroke="none"/><text x="295.9" y="232.3" text-anchor="middle" font-family="Arial" font-size="12" font-weight="bold" fill="#222">HALL</text><text x="295.9" y="248.2" text-anchor="middle" font-family="Arial" font-size="10" fill="#555">5.5 sqm</text><rect x="130.0" y="142.6" width="147.0" height="50.4" fill="#efefef" stroke="#333" stroke-width="1.5"/><line x1="142.2" y1="193.0" x2="142.2" y2="142.6" stroke="#9a9a9a" stroke-width="0.6"/><line x1="154.5" y1="193.0" x2="154.5" y2="142.6" stroke="#9a9a9a" stroke-width="0.6"/><line x1="166.8" y1="193.0" x2="166.8" y2="142.6" stroke="#9a9a9a" stroke-width="0.6"/><line x1="179.0" y1="193.0" x2="179.0" y2="142.6" stroke="#9a9a9a" stroke-width="0.6"/><line x1="191.2" y1="193.0" x2="191.2" y2="142.6" stroke="#9a9a9a" stroke-width="0.6"/><line x1="203.5" y1="193.0" x2="203.5" y2="142.6" stroke="#9a9a9a" stroke-width="0.6"/><line x1="215.7" y1="193.0" x2="215.7" y2="142.6" stroke="#9a9a9a" stroke-width="0.6"/><line x1="228.0" y1="193.0" x2="228.0" y2="142.6" stroke="#9a9a9a" stroke-width="0.6"/><line x1="240.2" y1="193.0" x2="240.2" y2="142.6" stroke="#9a9a9a" stroke-width="0.6"/><line x1="252.5" y1="193.0" x2="252.5" y2="142.6" stroke="#9a9a9a" stroke-width="0.6"/><line x1="264.8" y1="193.0" x2="264.8" y2="142.6" stroke="#9a9a9a" stroke-width="0.6"/><line x1="258.1" y1="167.8" x2="148.9" y2="167.8" stroke="#333" stroke-width="2" stroke-linecap="round"/><line x1="148.9" y1="167.8" x2="154.8" y2="164.1" stroke="#333" stroke-width="2" stroke-linecap="round"/><line x1="148.9" y1="167.8" x2="154.8" y2="171.5" stroke="#333" stroke-width="2" stroke-linecap="round"/><text x="267.1" y="167.8" text-anchor="middle" dominant-baseline="middle" font-family="Arial" font-size="9" font-weight="bold" fill="#333" stroke="white" stroke-width="2.5" paint-order="stroke">DN</text><text x="277.0" y="458.0" text-anchor="middle" font-family="Arial" font-size="12" font-weight="bold" fill="#888">FRONT (street)</text><rect x="274.90" y="193.00" width="4.20" height="147.00" fill="#555" stroke="none"/><rect x="130.00" y="190.90" width="147.00" height="4.20" fill="#555" stroke="none"/><rect x="314.80" y="190.90" width="109.20" height="4.20" fill="#555" stroke="none"/><rect x="312.70" y="193.00" width="4.20" height="147.00" fill="#555" stroke="none"/><rect x="312.70" y="130.00" width="4.20" height="63.00" fill="#555" stroke="none"/><rect x="130.00" y="335.80" width="147.00" height="8.40" fill="#555" stroke="none"/><rect x="125.80" y="193.00" width="8.40" height="147.00" fill="#555" stroke="none"/><rect x="314.80" y="335.80" width="109.20" height="8.40" fill="#555" stroke="none"/><rect x="419.80" y="193.00" width="8.40" height="147.00" fill="#555" stroke="none"/><rect x="314.80" y="125.80" width="109.20" height="8.40" fill="#555" stroke="none"/><rect x="419.80" y="130.00" width="8.40" height="63.00" fill="#555" stroke="none"/><rect x="277.00" y="125.80" width="37.80" height="8.40" fill="#555" stroke="none"/><rect x="277.00" y="335.80" width="37.80" height="8.40" fill="#555" stroke="none"/><rect x="130.00" y="125.80" width="147.00" height="8.40" fill="#555" stroke="none"/><rect x="125.80" y="130.00" width="8.40" height="12.60" fill="#555" stroke="none"/><rect x="125.80" y="142.60" width="8.40" height="50.40" fill="#555" stroke="none"/><rect x="272.80" y="335.80" width="8.40" height="8.40" fill="#555" stroke="none"/><rect x="125.80" y="188.80" width="8.40" height="8.40" fill="#555" stroke="none"/><rect x="312.70" y="190.90" width="4.20" height="4.20" fill="#555" stroke="none"/><rect x="419.80" y="188.80" width="8.40" height="8.40" fill="#555" stroke="none"/><rect x="310.60" y="335.80" width="8.40" height="8.40" fill="#555" stroke="none"/><rect x="312.70" y="190.90" width="4.20" height="4.20" fill="#555" stroke="none"/><rect x="312.70" y="190.90" width="4.20" height="4.20" fill="#555" stroke="none"/><rect x="310.60" y="125.80" width="8.40" height="8.40" fill="#555" stroke="none"/><rect x="125.80" y="335.80" width="8.40" height="8.40" fill="#555" stroke="none"/><rect x="272.80" y="335.80" width="8.40" height="8.40" fill="#555" stroke="none"/><rect x="125.80" y="335.80" width="8.40" height="8.40" fill="#555" stroke="none"/><rect x="125.80" y="188.80" width="8.40" height="8.40" fill="#555" stroke="none"/><rect x="310.60" y="335.80" width="8.40" height="8.40" fill="#555" stroke="none"/><rect x="419.80" y="335.80" width="8.40" height="8.40" fill="#555" stroke="none"/><rect x="419.80" y="335.80" width="8.40" height="8.40" fill="#555" stroke="none"/><rect x="419.80" y="188.80" width="8.40" height="8.40" fill="#555" stroke="none"/><rect x="310.60" y="125.80" width="8.40" height="8.40" fill="#555" stroke="none"/><rect x="419.80" y="125.80" width="8.40" height="8.40" fill="#555" stroke="none"/><rect x="419.80" y="188.80" width="8.40" height="8.40" fill="#555" stroke="none"/><rect x="419.80" y="125.80" width="8.40" height="8.40" fill="#555" stroke="none"/><rect x="310.60" y="125.80" width="8.40" height="8.40" fill="#555" stroke="none"/><rect x="272.80" y="335.80" width="8.40" height="8.40" fill="#555" stroke="none"/><rect x="310.60" y="335.80" width="8.40" height="8.40" fill="#555" stroke="none"/><rect x="125.80" y="125.80" width="8.40" height="8.40" fill="#555" stroke="none"/><rect x="125.80" y="125.80" width="8.40" height="8.40" fill="#555" stroke="none"/><rect x="125.80" y="188.80" width="8.40" height="8.40" fill="#555" stroke="none"/><rect x="272.0" y="142.6" width="5.0" height="48.3" fill="#efefef" stroke="none"/><rect x="277.0" y="142.6" width="5.0" height="48.3" fill="#efefef" stroke="none"/><rect x="132.1" y="142.6" width="144.9" height="5.0" fill="#efefef" stroke="none"/><rect x="132.1" y="137.6" width="144.9" height="5.0" fill="#efefef" stroke="none"/><rect x="277.0" y="300.1" width="5.0" height="33.6" fill="#efefef" stroke="none"/><rect x="272.0" y="300.1" width="5.0" height="33.6" fill="#d9ead3" stroke="none"/><line x1="277.0" y1="333.7" x2="243.4" y2="333.7" stroke="#444" stroke-width="1.4"/><path d="M 243.4 333.7 A 33.6 33.6 0 0 1 277.0 300.1" fill="none" stroke="#999" stroke-width="0.7" stroke-dasharray="2 2"/><rect x="309.8" y="300.1" width="5.0" height="33.6" fill="#efefef" stroke="none"/><rect x="314.8" y="300.1" width="5.0" height="33.6" fill="#d9ead3" stroke="none"/><line x1="314.8" y1="333.7" x2="348.4" y2="333.7" stroke="#444" stroke-width="1.4"/><path d="M 348.4 333.7 A 33.6 33.6 0 0 0 314.8 300.1" fill="none" stroke="#999" stroke-width="0.7" stroke-dasharray="2 2"/><rect x="309.8" y="163.6" width="5.0" height="29.4" fill="#efefef" stroke="none"/><rect x="314.8" y="163.6" width="5.0" height="29.4" fill="#ead1dc" stroke="none"/><line x1="314.8" y1="193.0" x2="344.2" y2="193.0" stroke="#444" stroke-width="1.4"/><path d="M 344.2 193.0 A 29.4 29.4 0 0 0 314.8 163.6" fill="none" stroke="#999" stroke-width="0.7" stroke-dasharray="2 2"/><rect x="130.0" y="226.1" width="5.0" height="80.9" fill="#d9ead3" stroke="none"/><rect x="125.0" y="226.1" width="5.0" height="80.9" fill="#fbfbf7" stroke="none"/><line x1="127.0" y1="306.9" x2="127.0" y2="226.1" stroke="#222" stroke-width="1.0"/><line x1="130.0" y1="306.9" x2="130.0" y2="226.1" stroke="#222" stroke-width="1.0"/><line x1="133.0" y1="306.9" x2="133.0" y2="226.1" stroke="#222" stroke-width="1.0"/><rect x="163.1" y="335.0" width="80.8" height="5.0" fill="#d9ead3" stroke="none"/><rect x="163.1" y="340.0" width="80.8" height="5.0" fill="#fbfbf7" stroke="none"/><line x1="163.1" y1="337.0" x2="243.9" y2="337.0" stroke="#222" stroke-width="1.0"/><line x1="163.1" y1="340.0" x2="243.9" y2="340.0" stroke="#222" stroke-width="1.0"/><line x1="163.1" y1="343.0" x2="243.9" y2="343.0" stroke="#222" stroke-width="1.0"/><rect x="419.0" y="226.1" width="5.0" height="80.9" fill="#d9ead3" stroke="none"/><rect x="424.0" y="226.1" width="5.0" height="80.9" fill="#fbfbf7" stroke="none"/><line x1="421.0" y1="306.9" x2="421.0" y2="226.1" stroke="#222" stroke-width="1.0"/><line x1="424.0" y1="306.9" x2="424.0" y2="226.1" stroke="#222" stroke-width="1.0"/><line x1="427.0" y1="306.9" x2="427.0" y2="226.1" stroke="#222" stroke-width="1.0"/><rect x="339.4" y="335.0" width="60.1" height="5.0" fill="#d9ead3" stroke="none"/><rect x="339.4" y="340.0" width="60.1" height="5.0" fill="#fbfbf7" stroke="none"/><line x1="339.4" y1="337.0" x2="399.4" y2="337.0" stroke="#222" stroke-width="1.0"/><line x1="339.4" y1="340.0" x2="399.4" y2="340.0" stroke="#222" stroke-width="1.0"/><line x1="339.4" y1="343.0" x2="399.4" y2="343.0" stroke="#222" stroke-width="1.0"/><rect x="350.5" y="130.0" width="37.8" height="5.0" fill="#ead1dc" stroke="none"/><rect x="350.5" y="125.0" width="37.8" height="5.0" fill="#fbfbf7" stroke="none"/><line x1="350.5" y1="127.0" x2="388.3" y2="127.0" stroke="#222" stroke-width="1.0"/><line x1="350.5" y1="130.0" x2="388.3" y2="130.0" stroke="#222" stroke-width="1.0"/><line x1="350.5" y1="133.0" x2="388.3" y2="133.0" stroke="#222" stroke-width="1.0"/><rect x="419.0" y="145.8" width="5.0" height="31.5" fill="#ead1dc" stroke="none"/><rect x="424.0" y="145.8" width="5.0" height="31.5" fill="#fbfbf7" stroke="none"/><line x1="421.0" y1="177.2" x2="421.0" y2="145.8" stroke="#222" stroke-width="1.0"/><line x1="424.0" y1="177.2" x2="424.0" y2="145.8" stroke="#222" stroke-width="1.0"/><line x1="427.0" y1="177.2" x2="427.0" y2="145.8" stroke="#222" stroke-width="1.0"/></svg></svg>