<svg xmlns="http://www.w3.org/2000/svg" width="1216" height="546" viewBox="0 0 1216 546"><rect x="0" y="0" width="1216" height="546" fill="white"/><text x="298" y="22" text-anchor="middle" font-family="Helvetica, Arial, sans-serif" font-size="15" font-weight="bold" letter-spacing="2">GROUND FLOOR</text><svg x="0" y="34" xmlns="http://www.w3.org/2000/svg" width="596" height="512" viewBox="0 0 596 512"><rect x="0" y="0" width="596" height="512" fill="white"/><rect x="46.0" y="46.0" width="504.0" height="420.0" fill="#fbfbf7" stroke="#333" stroke-width="1.5"/><line x1="46.0" y1="46.0" x2="46.0" y2="38.0" stroke="#888" stroke-width="1"/><line x1="46.0" y1="466.0" x2="46.0" y2="474.0" stroke="#888" stroke-width="1"/><text x="46.0" y="36.0" text-anchor="middle" font-family="Arial" font-size="9" fill="#666">0</text><text x="46.0" y="482.0" text-anchor="middle" font-family="Arial" font-size="9" fill="#666">0</text><line x1="67.0" y1="46.0" x2="67.0" y2="42.0" stroke="#888" stroke-width="1"/><line x1="67.0" y1="466.0" x2="67.0" y2="470.0" stroke="#888" stroke-width="1"/><line x1="88.0" y1="46.0" x2="88.0" y2="38.0" stroke="#888" stroke-width="1"/><line x1="88.0" y1="466.0" x2="88.0" y2="474.0" stroke="#888" stroke-width="1"/><text x="88.0" y="36.0" text-anchor="middle" font-family="Arial" font-size="9" fill="#666">1</text><text x="88.0" y="482.0" text-anchor="middle" font-family="Arial" font-size="9" fill="#666">1</text><line x1="109.0" y1="46.0" x2="109.0" y2="42.0" stroke="#888" stroke-width="1"/><line x1="109.0" y1="466.0" x2="109.0" y2="470.0" stroke="#888" stroke-width="1"/><line x1="130.0" y1="46.0" x2="130.0" y2="38.0" stroke="#888" stroke-width="1"/><line x1="130.0" y1="466.0" x2="130.0" y2="474.0" stroke="#888" stroke-width="1"/><text x="130.0" y="36.0" text-anchor="middle" font-family="Arial" font-size="9" fill="#666">2</text><text x="130.0" y="482.0" text-anchor="middle" font-family="Arial" font-size="9" fill="#666">2</text><line x1="151.0" y1="46.0" x2="151.0" y2="42.0" stroke="#888" stroke-width="1"/><line x1="151.0" y1="466.0" x2="151.0" y2="470.0" stroke="#888" stroke-width="1"/><line x1="172.0" y1="46.0" x2="172.0" y2="38.0" stroke="#888" stroke-width="1"/><line x1="172.0" y1="466.0" x2="172.0" y2="474.0" stroke="#888" stroke-width="1"/><text x="172.0" y="36.0" text-anchor="middle" font-family="Arial" font-size="9" fill="#666">3</text><text x="172.0" y="482.0" text-anchor="middle" font-family="Arial" font-size="9" fill="#666">3</text><line x1="193.0" y1="46.0" x2="193.0" y2="42.0" stroke="#888" stroke-width="1"/><line x1="193.0" y1="466.0" x2="193.0" y2="470.0" stroke="#888" stroke-width="1"/><line x1="214.0" y1="46.0" x2="214.0" y2="38.0" stroke="#888" stroke-width="1"/><line x1="214.0" y1="466.0" x2="214.0" y2="474.0" stroke="#888" stroke-width="1"/><text x="214.0" y="36.0" text-anchor="middle" font-family="Arial" font-size="9" fill="#666">4</text><text x="214.0" y="482.0" text-anchor="middle" font-family="Arial" font-size="9" fill="#666">4</text><line x1="235.0" y1="46.0" x2="235.0" y2="42.0" stroke="#888" stroke-width="1"/><line x1="235.0" y1="466.0" x2="235.0" y2="470.0" stroke="#888" stroke-width="1"/><line x1="256.0" y1="46.0" x2="256.0" y2="38.0" stroke="#888" stroke-width="1"/><line x1="256.0" y1="466.0" x2="256.0" y2="474.0" stroke="#888" stroke-width="1"/><text x="256.0" y="36.0" text-anchor="middle" font-family="Arial" font-size="9" fill="#666">5</text><text x="256.0" y="482.0" text-anchor="middle" font-family="Arial" font-size="9" fill="#666">5</text><line x1="277.0" y1="46.0" x2="277.0" y2="42.0" stroke="#888" stroke-width="1"/><line x1="277.0" y1="466.0" x2="277.0" y2="470.0" stroke="#888" stroke-width="1"/><line x1="298.0" y1="46.0" x2="298.0" y2="38.0" stroke="#888" stroke-width="1"/><line x1="298.0" y1="466.0" x2="298.0" y2="474.0" stroke="#888" stroke-width="1"/><text x="298.0" y="36.0" text-anchor="middle" font-family="Arial" font-size="9" fill="#666">6</text><text x="298.0" y="482.0" text-anchor="middle" font-family="Arial" font-size="9" fill="#666">6</text><line x1="319.0" y1="46.0" x2="319.0" y2="42.0" stroke="#888" stroke-width="1"/><line x1="319.0" y1="466.0" x2="319.0" y2="470.0" stroke="#888" stroke-width="1"/><line x1="340.0" y1="46.0" x2="340.0" y2="38.0" stroke="#888" stroke-width="1"/><line x1="340.0" y1="466.0" x2="340.0" y2="474.0" stroke="#888" stroke-width="1"/><text x="340.0" y="36.0" text-anchor="middle" font-family="Arial" font-size="9" fill="#666">7</text><text x="340.0" y="482.0" text-anchor="middle" font-family="Arial" font-size="9" fill="#666">7</text><line x1="361.0" y1="46.0" x2="361.0" y2="42.0" stroke="#888" stroke-width="1"/><line x1="361.0" y1="466.0" x2="361.0" y2="470.0" stroke="#888" stroke-width="1"/><line x1="382.0" y1="46.0" x2="382.0" y2="38.0" stroke="#888" stroke-width="1"/><line x1="382.0" y1="466.0" x2="382.0" y2="474.0" stroke="#888" stroke-width="1"/><text x="382.0" y="36.0" text-anchor="middle" font-family="Arial" font-size="9" fill="#666">8</text><text x="382.0" y="482.0" text-anchor="middle" font-family="Arial" font-size="9" fill="#666">8</text><line x1="403.0" y1="46.0" x2="403.0" y2="42.0" stroke="#888" stroke-width="1"/><line x1="403.0" y1="466.0" x2="403.0" y2="470.0" stroke="#888" stroke-width="1"/><line x1="424.0" y1="46.0" x2="424.0" y2="38.0" stroke="#888" stroke-width="1"/><line x1="424.0" y1="466.0" x2="424.0" y2="474.0" stroke="#888" stroke-width="1"/><text x="424.0" y="36.0" text-anchor="middle" font-family="Arial" font-size="9" fill="#666">9</text><text x="424.0" y="482.0" text-anchor="middle" font-family="Arial" font-size="9" fill="#666">9</text><line x1="445.0" y1="46.0" x2="445.0" y2="42.0" stroke="#888" stroke-width="1"/><line x1="445.0" y1="466.0" x2="445.0" y2="470.0" stroke="#888" stroke-width="1"/><line x1="466.0" y1="46.0" x2="466.0" y2="38.0" stroke="#888" stroke-width="1"/><line x1="466.0" y1="466.0" x2="466.0" y2="474.0" stroke="#888" stroke-width="1"/><text x="466.0" y="36.0" text-anchor="middle" font-family="Arial" font-size="9" fill="#666">10</text><text x="466.0" y="482.0" text-anchor="middle" font-family="Arial" font-size="9" fill="#666">10</text><line x1="487.0" y1="46.0" x2="487.0" y2="42.0" stroke="#888" stroke-width="1"/><line x1="487.0" y1="466.0" x2="487.0" y2="470.0" stroke="#888" stroke-width="1"/><line x1="508.0" y1="46.0" x2="508.0" y2="38.0" stroke="#888" stroke-width="1"/><line x1="508.0" y1="466.0" x2="508.0" y2="474.0" stroke="#888" stroke-width="1"/><text x="508.0" y="36.0" text-anchor="middle" font-family="Arial" font-size="9" fill="#666">11</text><text x="508.0" y="482.0" text-anchor="middle" font-family="Arial" font-size="9" fill="#666">11</text><line x1="529.0" y1="46.0" x2="529.0" y2="42.0" stroke="#888" stroke-width="1"/><line x1="529.0" y1="466.0" x2="529.0" y2="470.0" stroke="#888" stroke-width="1"/><line x1="550.0" y1="46.0" x2="550.0" y2="38.0" stroke="#888" stroke-width="1"/><line x1="550.0" y1="466.0" x2="550.0" y2="474.0" stroke="#888" stroke-width="1"/><text x="550.0" y="36.0" text-anchor="middle" font-family="Arial" font-size="9" fill="#666">12</text><text x="550.0" y="482.0" text-anchor="middle" font-family="Arial" font-size="9" fill="#666">12</text><line x1="46.0" y1="466.0" x2="38.0" y2="466.0" stroke="#888" stroke-width="1"/><line x1="550.0" y1="466.0" x2="558.0" y2="466.0" stroke="#888" stroke-width="1"/><text x="36.0" y="469.0" text-anchor="end" font-family="Arial" font-size="9" fill="#666">0</text><text x="560.0" y="469.0" text-anchor="start" font-family="Arial" font-size="9" fill="#666">0</text><line x1="46.0" y1="445.0" x2="42.0" y2="445.0" stroke="#888" stroke-width="1"/><line x1="550.0" y1="445.0" x2="554.0" y2="445.0" stroke="#888" stroke-width="1"/><line x1="46.0" y1="424.0" x2="38.0" y2="424.0" stroke="#888" stroke-width="1"/><line x1="550.0" y1="424.0" x2="558.0" y2="424.0" stroke="#888" stroke-width="1"/><text x="36.0" y="427.0" text-anchor="end" font-family="Arial" font-size="9" fill="#666">1</text><text x="560.0" y="427.0" text-anchor="start" font-family="Arial" font-size="9" fill="#666">1</text><line x1="46.0" y1="403.0" x2="42.0" y2="403.0" stroke="#888" stroke-width="1"/><line x1="550.0" y1="403.0" x2="554.0" y2="403.0" stroke="#888" stroke-width="1"/><line x1="46.0" y1="382.0" x2="38.0" y2="382.0" stroke="#888" stroke-width="1"/><line x1="550.0" y1="382.0" x2="558.0" y2="382.0" stroke="#888" stroke-width="1"/><text x="36.0" y="385.0" text-anchor="end" font-family="Arial" font-size="9" fill="#666">2</text><text x="560.0" y="385.0" text-anchor="start" font-family="Arial" font-size="9" fill="#666">2</text><line x1="46.0" y1="361.0" x2="42.0" y2="361.0" stroke="#888" stroke-width="1"/><line x1="550.0" y1="361.0" x2="554.0" y2="361.0" stroke="#888" stroke-width="1"/><line x1="46.0" y1="340.0" x2="38.0" y2="340.0" stroke="#888" stroke-width="1"/><line x1="550.0" y1="340.0" x2="558.0" y2="340.0" stroke="#888" stroke-width="1"/><text x="36.0" y="343.0" text-anchor="end" font-family="Arial" font-size="9" fill="#666">3</text><text x="560.0" y="343.0" text-anchor="start" font-family="Arial" font-size="9" fill="#666">3</text><line x1="46.0" y1="319.0" x2="42.0" y2="319.0" stroke="#888" stroke-width="1"/><line x1="550.0" y1="319.0" x2="554.0" y2="319.0" stroke="#888" stroke-width="1"/><line x1="46.0" y1="298.0" x2="38.0" y2="298.0" stroke="#888" stroke-width="1"/><line x1="550.0" y1="298.0" x2="558.0" y2="298.0" stroke="#888" stroke-width="1"/><text x="36.0" y="301.0" text-anchor="end" font-family="Arial" font-size="9" fill="#666">4</text><text x="560.0" y="301.0" text-anchor="start" font-family="Arial" font-size="9" fill="#666">4</text><line x1="46.0" y1="277.0" x2="42.0" y2="277.0" stroke="#888" stroke-width="1"/><line x1="550.0" y1="277.0" x2="554.0" y2="277.0" stroke="#888" stroke-width="1"/><line x1="46.0" y1="256.0" x2="38.0" y2="256.0" stroke="#888" stroke-width="1"/><line x1="550.0" y1="256.0" x2="558.0" y2="256.0" stroke="#888" stroke-width="1"/><text x="36.0" y="259.0" text-anchor="end" font-family="Arial" font-size="9" fill="#666">5</text><text x="560.0" y="259.0" text-anchor="start" font-family="Arial" font-size="9" fill="#666">5</text><line x1="46.0" y1="235.0" x2="42.0" y2="235.0" stroke="#888" stroke-width="1"/><line x1="550.0" y1="235.0" x2="554.0" y2="235.0" stroke="#888" stroke-width="1"/><line x1="46.0" y1="214.0" x2="38.0" y2="214.0" stroke="#888" stroke-width="1"/><line x1="550.0" y1="214.0" x2="558.0" y2="214.0" stroke="#888" stroke-width="1"/><text x="36.0" y="217.0" text-anchor="end" font-family="Arial" font-size="9" fill="#666">6</text><text x="560.0" y="217.0" text-anchor="start" font-family="Arial" font-size="9" fill="#666">6</text><line x1="46.0" y1="193.0" x2="42.0" y2="193.0" stroke="#888" stroke-width="1"/><line x1="550.0" y1="193.0" x2="554.0" y2="193.0" stroke="#888" stroke-width="1"/><line x1="46.0" y1="172.0" x2="38.0" y2="172.0" stroke="#888" stroke-width="1"/><line x1="550.0" y1="172.0" x2="558.0" y2="172.0" stroke="#888" stroke-width="1"/><text x="36.0" y="175.0" text-anchor="end" font-family="Arial" font-size="9" fill="#666">7</text><text x="560.0" y="175.0" text-anchor="start" font-family="Arial" font-size="9" fill="#666">7</text><line x1="46.0" y1="151.0" x2="42.0" y2="151.0" stroke="#888" stroke-width="1"/><line x1="550.0" y1="151.0" x2="554.0" y2="151.0" stroke="#888" stroke-width="1"/><line x1="46.0" y1="130.0" x2="38.0" y2="130.0" stroke="#888" stroke-width="1"/><line x1="550.0" y1="130.0" x2="558.0" y2="130.0" stroke="#888" stroke-width="1"/><text x="36.0" y="133.0" text-anchor="end" font-family="Arial" font-size="9" fill="#666">8</text><text x="560.0" y="133.0" text-anchor="start" font-family="Arial" font-size="9" fill="#666">8</text><line x1="46.0" y1="109.0" x2="42.0" y2="109.0" stroke="#888" stroke-width="1"/><line x1="550.0" y1="109.0" x2="554.0" y2="109.0" stroke="#888" stroke-width="1"/><line x1="46.0" y1="88.0" x2="38.0" y2="88.0" stroke="#888" stroke-width="1"/><line x1="550.0" y1="88.0" x2="558.0" y2="88.0" stroke="#888" stroke-width="1"/><text x="36.0" y="91.0" text-anchor="end" font-family="Arial" font-size="9" fill="#666">9</text><text x="560.0" y="91.0" text-anchor="start" font-family="Arial" font-size="9" fill="#666">9</text><line x1="46.0" y1="67.0" x2="42.0" y2="67.0" stroke="#888" stroke-width="1"/><line x1="550.0" y1="67.0" x2="554.0" y2="67.0" stroke="#888" stroke-width="1"/><line x1="46.0" y1="46.0" x2="38.0" y2="46.0" stroke="#888" stroke-width="1"/><line x1="550.0" y1="46.0" x2="558.0" y2="46.0" stroke="#888" stroke-width="1"/><text x="36.0" y="49.0" text-anchor="end" font-family="Arial" font-size="9" fill="#666">10</text><text x="560.0" y="49.0" text-anchor="start" font-family="Arial" font-size="9" fill="#666">10</text><rect x="130.0" y="130.0" width="336.0" height="210.0" fill="none" stroke="#9aa" stroke-width="1" stroke-dasharray="3 3"/><rect x="131.3" y="341.3" width="333.5" height="60.5" fill="#f2f2f2" stroke="#333" stroke-width="1.5" stroke-dasharray="6 4"/><text x="298.0" y="368.9" text-anchor="middle" font-family="Arial" font-size="12" font-weight="bold" fill="#222">PORCH</text><text x="298.0" y="384.7" text-anchor="middle" font-family="Arial" font-size="10" fill="#555">8.0×1.5 m</text><rect x="130.0" y="214.0" width="336.0" height="126.0" fill="#cfe2f3" stroke="#333" stroke-width="1.5"/><text x="298.0" y="274.4" text-anchor="middle" font-family="Arial" font-size="12" font-weight="bold" fill="#222">GREAT ROOM</text><text x="298.0" y="290.2" text-anchor="middle" font-family="Arial" font-size="10" fill="#555">8.0×3.0 m · 24.0 sqm</text><rect x="340.0" y="130.0" width="126.0" height="84.0" fill="#cfe2f3" stroke="#333" stroke-width="1.5"/><text x="403.0" y="169.3" text-anchor="middle" font-family="Arial" font-size="12" font-weight="bold" fill="#222">KITCHEN</text><text x="403.0" y="185.2" text-anchor="middle" font-family="Arial" font-size="10" fill="#555">3.0×2.0 m · 6.0 sqm</text><rect x="277.0" y="130.0" width="63.0" height="84.0" fill="#ead1dc" stroke="#333" stroke-width="1.5"/><text x="308.5" y="163.6" text-anchor="middle" font-family="Arial" font-size="12" font-weight="bold" fill="#222">T&amp;B</text><text x="308.5" y="179.4" text-anchor="middle" font-family="Arial" font-size="10" fill="#555">1.5×2.0 m</text><text x="308.5" y="190.9" text-anchor="middle" font-family="Arial" font-size="10" fill="#555">3.0 sqm</text><rect x="130.0" y="176.2" width="147.0" height="37.8" fill="#efefef" stroke="#333" stroke-width="1.5"/><line x1="142.2" y1="214.0" x2="142.2" y2="176.2" stroke="#9a9a9a" stroke-width="0.6"/><line x1="154.5" y1="214.0" x2="154.5" y2="176.2" stroke="#9a9a9a" stroke-width="0.6"/><line x1="166.8" y1="214.0" x2="166.8" y2="176.2" stroke="#9a9a9a" stroke-width="0.6"/><line x1="179.0" y1="214.0" x2="179.0" y2="176.2" stroke="#9a9a9a" stroke-width="0.6"/><line x1="191.2" y1="214.0" x2="191.2" y2="176.2" stroke="#9a9a9a" stroke-width="0.6"/><line x1="203.5" y1="214.0" x2="203.5" y2="176.2" stroke="#9a9a9a" stroke-width="0.6"/><line x1="215.7" y1="214.0" x2="215.7" y2="176.2" stroke="#9a9a9a" stroke-width="0.6"/><line x1="228.0" y1="214.0" x2="228.0" y2="176.2" stroke="#9a9a9a" stroke-width="0.6"/><line x1="240.2" y1="214.0" x2="240.2" y2="176.2" stroke="#9a9a9a" stroke-width="0.6"/><line x1="252.5" y1="214.0" x2="252.5" y2="176.2" stroke="#9a9a9a" stroke-width="0.6"/><line x1="264.8" y1="214.0" x2="264.8" y2="176.2" stroke="#9a9a9a" stroke-width="0.6"/><line x1="148.9" y1="195.1" x2="258.1" y2="195.1" stroke="#333" stroke-width="2" stroke-linecap="round"/><line x1="258.1" y1="195.1" x2="252.2" y2="198.8" stroke="#333" stroke-width="2" stroke-linecap="round"/><line x1="258.1" y1="195.1" x2="252.2" y2="191.4" stroke="#333" stroke-width="2" stroke-linecap="round"/><text x="139.9" y="195.1" text-anchor="middle" dominant-baseline="middle" font-family="Arial" font-size="9" font-weight="bold" fill="#333" stroke="white" stroke-width="2.5" paint-order="stroke">UP</text><text x="298.0" y="500.0" text-anchor="middle" font-family="Arial" font-size="12" font-weight="bold" fill="#888">FRONT (street)</text><rect x="277.00" y="211.90" width="63.00" height="4.20" fill="#555" stroke="none"/><rect x="337.90" y="130.00" width="4.20" height="84.00" fill="#555" stroke="none"/><rect x="274.90" y="176.20" width="4.20" height="37.80" fill="#555" stroke="none"/><rect x="130.00" y="335.80" width="336.00" height="8.40" fill="#555" stroke="none"/><rect x="461.80" y="214.00" width="8.40" height="126.00" fill="#555" stroke="none"/><rect x="125.80" y="214.00" width="8.40" height="126.00" fill="#555" stroke="none"/><rect x="340.00" y="125.80" width="126.00" height="8.40" fill="#555" stroke="none"/><rect x="461.80" y="130.00" width="8.40" height="84.00" fill="#555" stroke="none"/><rect x="277.00" y="125.80" width="63.00" height="8.40" fill="#555" stroke="none"/><rect x="274.90" y="130.00" width="4.20" height="46.20" fill="#555" stroke="none"/><rect x="130.00" y="174.10" width="147.00" height="4.20" fill="#555" stroke="none"/><rect x="125.80" y="176.20" width="8.40" height="37.80" fill="#555" stroke="none"/><rect x="335.80" y="125.80" width="8.40" height="8.40" fill="#555" stroke="none"/><rect x="274.90" y="174.10" width="4.20" height="4.20" fill="#555" stroke="none"/><rect x="125.80" y="335.80" width="8.40" height="8.40" fill="#555" stroke="none"/><rect x="461.80" y="335.80" width="8.40" height="8.40" fill="#555" stroke="none"/><rect x="461.80" y="335.80" width="8.40" height="8.40" fill="#555" stroke="none"/><rect x="125.80" y="335.80" width="8.40" height="8.40" fill="#555" stroke="none"/><rect x="335.80" y="125.80" width="8.40" height="8.40" fill="#555" stroke="none"/><rect x="461.80" y="125.80" width="8.40" height="8.40" fill="#555" stroke="none"/><rect x="461.80" y="125.80" width="8.40" height="8.40" fill="#555" stroke="none"/><rect x="272.80" y="125.80" width="8.40" height="8.40" fill="#555" stroke="none"/><rect x="335.80" y="125.80" width="8.40" height="8.40" fill="#555" stroke="none"/><rect x="274.90" y="174.10" width="4.20" height="4.20" fill="#555" stroke="none"/><rect x="272.80" y="125.80" width="8.40" height="8.40" fill="#555" stroke="none"/><rect x="125.80" y="172.00" width="8.40" height="8.40" fill="#555" stroke="none"/><rect x="274.90" y="174.10" width="4.20" height="4.20" fill="#555" stroke="none"/><rect x="125.80" y="172.00" width="8.40" height="8.40" fill="#555" stroke="none"/><rect x="342.1" y="214.0" width="121.8" height="5.0" fill="#cfe2f3" stroke="none"/><rect x="342.1" y="209.0" width="121.8" height="5.0" fill="#cfe2f3" stroke="none"/><rect x="132.1" y="214.0" width="142.8" height="5.0" fill="#cfe2f3" stroke="none"/><rect x="132.1" y="209.0" width="142.8" height="5.0" fill="#efefef" stroke="none"/><line x1="167.8" y1="214.0" x2="274.9" y2="214.0" stroke="#555" stroke-width="2" stroke-linecap="butt"/><rect x="277.0" y="214.0" width="29.4" height="5.0" fill="#cfe2f3" stroke="none"/><rect x="277.0" y="209.0" width="29.4" height="5.0" fill="#ead1dc" stroke="none"/><line x1="277.0" y1="214.0" x2="277.0" y2="184.6" stroke="#444" stroke-width="1.4"/><path d="M 277.0 184.6 A 29.4 29.4 0 0 1 306.4 214.0" fill="none" stroke="#999" stroke-width="0.7" stroke-dasharray="2 2"/><rect x="136.3" y="335.0" width="37.8" height="5.0" fill="#cfe2f3" stroke="none"/><rect x="136.3" y="340.0" width="37.8" height="5.0" fill="#fbfbf7" stroke="none"/><line x1="136.3" y1="340.0" x2="136.3" y2="302.2" stroke="#444" stroke-width="1.4"/><path d="M 136.3 302.2 A 37.8 37.8 0 0 1 174.1 340.0" fill="none" stroke="#999" stroke-width="0.7" stroke-dasharray="2 2"/><rect x="346.3" y="130.0" width="33.6" height="5.0" fill="#cfe2f3" stroke="none"/><rect x="346.3" y="125.0" width="33.6" height="5.0" fill="#fbfbf7" stroke="none"/><line x1="346.3" y1="130.0" x2="346.3" y2="163.6" stroke="#444" stroke-width="1.4"/><path d="M 346.3 163.6 A 33.6 33.6 0 0 0 379.9 130.0" fill="none" stroke="#999" stroke-width="0.7" stroke-dasharray="2 2"/><rect x="275.9" y="335.0" width="100.8" height="5.0" fill="#cfe2f3" stroke="none"/><rect x="275.9" y="340.0" width="100.8" height="5.0" fill="#fbfbf7" stroke="none"/><line x1="275.9" y1="337.0" x2="376.8" y2="337.0" stroke="#222" stroke-width="1.0"/><line x1="275.9" y1="340.0" x2="376.8" y2="340.0" stroke="#222" stroke-width="1.0"/><line x1="275.9" y1="343.0" x2="376.8" y2="343.0" stroke="#222" stroke-width="1.0"/><rect x="130.0" y="242.4" width="5.0" height="69.3" fill="#cfe2f3" stroke="none"/><rect x="125.0" y="242.4" width="5.0" height="69.3" fill="#fbfbf7" stroke="none"/><line x1="127.0" y1="311.7" x2="127.0" y2="242.4" stroke="#222" stroke-width="1.0"/><line x1="130.0" y1="311.7" x2="130.0" y2="242.4" stroke="#222" stroke-width="1.0"/><line x1="133.0" y1="311.7" x2="133.0" y2="242.4" stroke="#222" stroke-width="1.0"/><rect x="461.0" y="242.4" width="5.0" height="69.3" fill="#cfe2f3" stroke="none"/><rect x="466.0" y="242.4" width="5.0" height="69.3" fill="#fbfbf7" stroke="none"/><line x1="463.0" y1="311.7" x2="463.0" y2="242.4" stroke="#222" stroke-width="1.0"/><line x1="466.0" y1="311.7" x2="466.0" y2="242.4" stroke="#222" stroke-width="1.0"/><line x1="469.0" y1="311.7" x2="469.0" y2="242.4" stroke="#222" stroke-width="1.0"/><rect x="461.0" y="148.9" width="5.0" height="46.2" fill="#cfe2f3" stroke="none"/><rect x="466.0" y="148.9" width="5.0" height="46.2" fill="#fbfbf7" stroke="none"/><line x1="463.0" y1="195.1" x2="463.0" y2="148.9" stroke="#222" stroke-width="1.0"/><line x1="466.0" y1="195.1" x2="466.0" y2="148.9" stroke="#222" stroke-width="1.0"/><line x1="469.0" y1="195.1" x2="469.0" y2="148.9" stroke="#222" stroke-width="1.0"/><rect x="409.0" y="130.0" width="40.4" height="5.0" fill="#cfe2f3" stroke="none"/><rect x="409.0" y="125.0" width="40.4" height="5.0" fill="#fbfbf7" stroke="none"/><line x1="409.0" y1="127.0" x2="449.5" y2="127.0" stroke="#222" stroke-width="1.0"/><line x1="409.0" y1="130.0" x2="449.5" y2="130.0" stroke="#222" stroke-width="1.0"/><line x1="409.0" y1="133.0" x2="449.5" y2="133.0" stroke="#222" stroke-width="1.0"/><rect x="292.8" y="130.0" width="31.5" height="5.0" fill="#ead1dc" stroke="none"/><rect x="292.8" y="125.0" width="31.5" height="5.0" fill="#fbfbf7" stroke="none"/><line x1="292.8" y1="127.0" x2="324.2" y2="127.0" stroke="#222" stroke-width="1.0"/><line x1="292.8" y1="130.0" x2="324.2" y2="130.0" stroke="#222" stroke-width="1.0"/><line x1="292.8" y1="133.0" x2="324.2" y2="133.0" stroke="#222" stroke-width="1.0"/></svg><text x="918" y="22" text-anchor="middle" font-family="Helvetica, Arial, sans-serif" font-size="15" font-weight="bold" letter-spacing="2">SECOND FLOOR</text><svg x="620" y="34" xmlns="http://www.w3.org/2000/svg" width="596" height="512" viewBox="0 0 596 512"><rect x="0" y="0" width="596" height="512" fill="white"/><rect x="46.0" y="46.0" width="504.0" height="420.0" fill="#fbfbf7" stroke="#333" stroke-width="1.5"/><line x1="46.0" y1="46.0" x2="46.0" y2="38.0" stroke="#888" stroke-width="1"/><line x1="46.0" y1="466.0" x2="46.0" y2="474.0" stroke="#888" stroke-width="1"/><text x="46.0" y="36.0" text-anchor="middle" font-family="Arial" font-size="9" fill="#666">0</text><text x="46.0" y="482.0" text-anchor="middle" font-family="Arial" font-size="9" fill="#666">0</text><line x1="67.0" y1="46.0" x2="67.0" y2="42.0" stroke="#888" stroke-width="1"/><line x1="67.0" y1="466.0" x2="67.0" y2="470.0" stroke="#888" stroke-width="1"/><line x1="88.0" y1="46.0" x2="88.0" y2="38.0" stroke="#888" stroke-width="1"/><line x1="88.0" y1="466.0" x2="88.0" y2="474.0" stroke="#888" stroke-width="1"/><text x="88.0" y="36.0" text-anchor="middle" font-family="Arial" font-size="9" fill="#666">1</text><text x="88.0" y="482.0" text-anchor="middle" font-family="Arial" font-size="9" fill="#666">1</text><line x1="109.0" y1="46.0" x2="109.0" y2="42.0" stroke="#888" stroke-width="1"/><line x1="109.0" y1="466.0" x2="109.0" y2="470.0" stroke="#888" stroke-width="1"/><line x1="130.0" y1="46.0" x2="130.0" y2="38.0" stroke="#888" stroke-width="1"/><line x1="130.0" y1="466.0" x2="130.0" y2="474.0" stroke="#888" stroke-width="1"/><text x="130.0" y="36.0" text-anchor="middle" font-family="Arial" font-size="9" fill="#666">2</text><text x="130.0" y="482.0" text-anchor="middle" font-family="Arial" font-size="9" fill="#666">2</text><line x1="151.0" y1="46.0" x2="151.0" y2="42.0" stroke="#888" stroke-width="1"/><line x1="151.0" y1="466.0" x2="151.0" y2="470.0" stroke="#888" stroke-width="1"/><line x1="172.0" y1="46.0" x2="172.0" y2="38.0" stroke="#888" stroke-width="1"/><line x1="172.0" y1="466.0" x2="172.0" y2="474.0" stroke="#888" stroke-width="1"/><text x="172.0" y="36.0" text-anchor="middle" font-family="Arial" font-size="9" fill="#666">3</text><text x="172.0" y="482.0" text-anchor="middle" font-family="Arial" font-size="9" fill="#666">3</text><line x1="193.0" y1="46.0" x2="193.0" y2="42.0" stroke="#888" stroke-width="1"/><line x1="193.0" y1="466.0" x2="193.0" y2="470.0" stroke="#888" stroke-width="1"/><line x1="214.0" y1="46.0" x2="214.0" y2="38.0" stroke="#888" stroke-width="1"/><line x1="214.0" y1="466.0" x2="214.0" y2="474.0" stroke="#888" stroke-width="1"/><text x="214.0" y="36.0" text-anchor="middle" font-family="Arial" font-size="9" fill="#666">4</text><text x="214.0" y="482.0" text-anchor="middle" font-family="Arial" font-size="9" fill="#666">4</text><line x1="235.0" y1="46.0" x2="235.0" y2="42.0" stroke="#888" stroke-width="1"/><line x1="235.0" y1="466.0" x2="235.0" y2="470.0" stroke="#888" stroke-width="1"/><line x1="256.0" y1="46.0" x2="256.0" y2="38.0" stroke="#888" stroke-width="1"/><line x1="256.0" y1="466.0" x2="256.0" y2="474.0" stroke="#888" stroke-width="1"/><text x="256.0" y="36.0" text-anchor="middle" font-family="Arial" font-size="9" fill="#666">5</text><text x="256.0" y="482.0" text-anchor="middle" font-family="Arial" font-size="9" fill="#666">5</text><line x1="277.0" y1="46.0" x2="277.0" y2="42.0" stroke="#888" stroke-width="1"/><line x1="277.0" y1="466.0" x2="277.0" y2="470.0" stroke="#888" stroke-width="1"/><line x1="298.0" y1="46.0" x2="298.0" y2="38.0" stroke="#888" stroke-width="1"/><line x1="298.0" y1="466.0" x2="298.0" y2="474.0" stroke="#888" stroke-width="1"/><text x="298.0" y="36.0" text-anchor="middle" font-family="Arial" font-size="9" fill="#666">6</text><text x="298.0" y="482.0" text-anchor="middle" font-family="Arial" font-size="9" fill="#666">6</text><line x1="319.0" y1="46.0" x2="319.0" y2="42.0" stroke="#888" stroke-width="1"/><line x1="319.0" y1="466.0" x2="319.0" y2="470.0" stroke="#888" stroke-width="1"/><line x1="340.0" y1="46.0" x2="340.0" y2="38.0" stroke="#888" stroke-width="1"/><line x1="340.0" y1="466.0" x2="340.0" y2="474.0" stroke="#888" stroke-width="1"/><text x="340.0" y="36.0" text-anchor="middle" font-family="Arial" font-size="9" fill="#666">7</text><text x="340.0" y="482.0" text-anchor="middle" font-family="Arial" font-size="9" fill="#666">7</text><line x1="361.0" y1="46.0" x2="361.0" y2="42.0" stroke="#888" stroke-width="1"/><line x1="361.0" y1="466.0" x2="361.0" y2="470.0" stroke="#888" stroke-width="1"/><line x1="382.0" y1="46.0" x2="382.0" y2="38.0" stroke="#888" stroke-width="1"/><line x1="382.0" y1="466.0" x2="382.0" y2="474.0" stroke="#888" stroke-width="1"/><text x="382.0" y="36.0" text-anchor="middle" font-family="Arial" font-size="9" fill="#666">8</text><text x="382.0" y="482.0" text-anchor="middle" font-family="Arial" font-size="9" fill="#666">8</text><line x1="403.0" y1="46.0" x2="403.0" y2="42.0" stroke="#888" stroke-width="1"/><line x1="403.0" y1="466.0" x2="403.0" y2="470.0" stroke="#888" stroke-width="1"/><line x1="424.0" y1="46.0" x2="424.0" y2="38.0" stroke="#888" stroke-width="1"/><line x1="424.0" y1="466.0" x2="424.0" y2="474.0" stroke="#888" stroke-width="1"/><text x="424.0" y="36.0" text-anchor="middle" font-family="Arial" font-size="9" fill="#666">9</text><text x="424.0" y="482.0" text-anchor="middle" font-family="Arial" font-size="9" fill="#666">9</text><line x1="445.0" y1="46.0" x2="445.0" y2="42.0" stroke="#888" stroke-width="1"/><line x1="445.0" y1="466.0" x2="445.0" y2="470.0" stroke="#888" stroke-width="1"/><line x1="466.0" y1="46.0" x2="466.0" y2="38.0" stroke="#888" stroke-width="1"/><line x1="466.0" y1="466.0" x2="466.0" y2="474.0" stroke="#888" stroke-width="1"/><text x="466.0" y="36.0" text-anchor="middle" font-family="Arial" font-size="9" fill="#666">10</text><text x="466.0" y="482.0" text-anchor="middle" font-family="Arial" font-size="9" fill="#666">10</text><line x1="487.0" y1="46.0" x2="487.0" y2="42.0" stroke="#888" stroke-width="1"/><line x1="487.0" y1="466.0" x2="487.0" y2="470.0" stroke="#888" stroke-width="1"/><line x1="508.0" y1="46.0" x2="508.0" y2="38.0" stroke="#888" stroke-width="1"/><line x1="508.0" y1="466.0" x2="508.0" y2="474.0" stroke="#888" stroke-width="1"/><text x="508.0" y="36.0" text-anchor="middle" font-family="Arial" font-size="9" fill="#666">11</text><text x="508.0" y="482.0" text-anchor="middle" font-family="Arial" font-size="9" fill="#666">11</text><line x1="529.0" y1="46.0" x2="529.0" y2="42.0" stroke="#888" stroke-width="1"/><line x1="529.0" y1="466.0" x2="529.0" y2="470.0" stroke="#888" stroke-width="1"/><line x1="550.0" y1="46.0" x2="550.0" y2="38.0" stroke="#888" stroke-width="1"/><line x1="550.0" y1="466.0" x2="550.0" y2="474.0" stroke="#888" stroke-width="1"/><text x="550.0" y="36.0" text-anchor="middle" font-family="Arial" font-size="9" fill="#666">12</text><text x="550.0" y="482.0" text-anchor="middle" font-family="Arial" font-size="9" fill="#666">12</text><line x1="46.0" y1="466.0" x2="38.0" y2="466.0" stroke="#888" stroke-width="1"/><line x1="550.0" y1="466.0" x2="558.0" y2="466.0" stroke="#888" stroke-width="1"/><text x="36.0" y="469.0" text-anchor="end" font-family="Arial" font-size="9" fill="#666">0</text><text x="560.0" y="469.0" text-anchor="start" font-family="Arial" font-size="9" fill="#666">0</text><line x1="46.0" y1="445.0" x2="42.0" y2="445.0" stroke="#888" stroke-width="1"/><line x1="550.0" y1="445.0" x2="554.0" y2="445.0" stroke="#888" stroke-width="1"/><line x1="46.0" y1="424.0" x2="38.0" y2="424.0" stroke="#888" stroke-width="1"/><line x1="550.0" y1="424.0" x2="558.0" y2="424.0" stroke="#888" stroke-width="1"/><text x="36.0" y="427.0" text-anchor="end" font-family="Arial" font-size="9" fill="#666">1</text><text x="560.0" y="427.0" text-anchor="start" font-family="Arial" font-size="9" fill="#666">1</text><line x1="46.0" y1="403.0" x2="42.0" y2="403.0" stroke="#888" stroke-width="1"/><line x1="550.0" y1="403.0" x2="554.0" y2="403.0" stroke="#888" stroke-width="1"/><line x1="46.0" y1="382.0" x2="38.0" y2="382.0" stroke="#888" stroke-width="1"/><line x1="550.0" y1="382.0" x2="558.0" y2="382.0" stroke="#888" stroke-width="1"/><text x="36.0" y="385.0" text-anchor="end" font-family="Arial" font-size="9" fill="#666">2</text><text x="560.0" y="385.0" text-anchor="start" font-family="Arial" font-size="9" fill="#666">2</text><line x1="46.0" y1="361.0" x2="42.0" y2="361.0" stroke="#888" stroke-width="1"/><line x1="550.0" y1="361.0" x2="554.0" y2="361.0" stroke="#888" stroke-width="1"/><line x1="46.0" y1="340.0" x2="38.0" y2="340.0" stroke="#888" stroke-width="1"/><line x1="550.0" y1="340.0" x2="558.0" y2="340.0" stroke="#888" stroke-width="1"/><text x="36.0" y="343.0" text-anchor="end" font-family="Arial" font-size="9" fill="#666">3</text><text x="560.0" y="343.0" text-anchor="start" font-family="Arial" font-size="9" fill="#666">3</text><line x1="46.0" y1="319.0" x2="42.0" y2="319.0" stroke="#888" stroke-width="1"/><line x1="550.0" y1="319.0" x2="554.0" y2="319.0" stroke="#888" stroke-width="1"/><line x1="46.0" y1="298.0" x2="38.0" y2="298.0" stroke="#888" stroke-width="1"/><line x1="550.0" y1="298.0" x2="558.0" y2="298.0" stroke="#888" stroke-width="1"/><text x="36.0" y="301.0" text-anchor="end" font-family="Arial" font-size="9" fill="#666">4</text><text x="560.0" y="301.0" text-anchor="start" font-family="Arial" font-size="9" fill="#666">4</text><line x1="46.0" y1="277.0" x2="42.0" y2="277.0" stroke="#888" stroke-width="1"/><line x1="550.0" y1="277.0" x2="554.0" y2="277.0" stroke="#888" stroke-width="1"/><line x1="46.0" y1="256.0" x2="38.0" y2="256.0" stroke="#888" stroke-width="1"/><line x1="550.0" y1="256.0" x2="558.0" y2="256.0" stroke="#888" stroke-width="1"/><text x="36.0" y="259.0" text-anchor="end" font-family="Arial" font-size="9" fill="#666">5</text><text x="560.0" y="259.0" text-anchor="start" font-family="Arial" font-size="9" fill="#666">5</text><line x1="46.0" y1="235.0" x2="42.0" y2="235.0" stroke="#888" stroke-width="1"/><line x1="550.0" y1="235.0" x2="554.0" y2="235.0" stroke="#888" stroke-width="1"/><line x1="46.0" y1="214.0" x2="38.0" y2="214.0" stroke="#888" stroke-width="1"/><line x1="550.0" y1="214.0" x2="558.0" y2="214.0" stroke="#888" stroke-width="1"/><text x="36.0" y="217.0" text-anchor="end" font-family="Arial" font-size="9" fill="#666">6</text><text x="560.0" y="217.0" text-anchor="start" font-family="Arial" font-size="9" fill="#666">6</text><line x1="46.0" y1="193.0" x2="42.0" y2="193.0" stroke="#888" stroke-width="1"/><line x1="550.0" y1="193.0" x2="554.0" y2="193.0" stroke="#888" stroke-width="1"/><line x1="46.0" y1="172.0" x2="38.0" y2="172.0" stroke="#888" stroke-width="1"/><line x1="550.0" y1="172.0" x2="558.0" y2="172.0" stroke="#888" stroke-width="1"/><text x="36.0" y="175.0" text-anchor="end" font-family="Arial" font-size="9" fill="#666">7</text><text x="560.0" y="175.0" text-anchor="start" font-family="Arial" font-size="9" fill="#666">7</text><line x1="46.0" y1="151.0" x2="42.0" y2="151.0" stroke="#888" stroke-width="1"/><line x1="550.0" y1="151.0" x2="554.0" y2="151.0" stroke="#888" stroke-width="1"/><line x1="46.0" y1="130.0" x2="38.0" y2="130.0" stroke="#888" stroke-width="1"/><line x1="550.0" y1="130.0" x2="558.0" y2="130.0" stroke="#888" stroke-width="1"/><text x="36.0" y="133.0" text-anchor="end" font-family="Arial" font-size="9" fill="#666">8</text><text x="560.0" y="133.0" text-anchor="start" font-family="Arial" font-size="9" fill="#666">8</text><line x1="46.0" y1="109.0" x2="42.0" y2="109.0" stroke="#888" stroke-width="1"/><line x1="550.0" y1="109.0" x2="554.0" y2="109.0" stroke="#888" stroke-width="1"/><line x1="46.0" y1="88.0" x2="38.0" y2="88.0" stroke="#888" stroke-width="1"/><line x1="550.0" y1="88.0" x2="558.0" y2="88.0" stroke="#888" stroke-width="1"/><text x="36.0" y="91.0" text-anchor="end" font-family="Arial" font-size="9" fill="#666">9</text><text x="560.0" y="91.0" text-anchor="start" font-family="Arial" font-size="9" fill="#666">9</text><line x1="46.0" y1="67.0" x2="42.0" y2="67.0" stroke="#888" stroke-width="1"/><line x1="550.0" y1="67.0" x2="554.0" y2="67.0" stroke="#888" stroke-width="1"/><line x1="46.0" y1="46.0" x2="38.0" y2="46.0" stroke="#888" stroke-width="1"/><line x1="550.0" y1="46.0" x2="558.0" y2="46.0" stroke="#888" stroke-width="1"/><text x="36.0" y="49.0" text-anchor="end" font-family="Arial" font-size="9" fill="#666">10</text><text x="560.0" y="49.0" text-anchor="start" font-family="Arial" font-size="9" fill="#666">10</text><rect x="130.0" y="130.0" width="336.0" height="210.0" fill="none" stroke="#9aa" stroke-width="1" stroke-dasharray="3 3"/><rect x="130.0" y="235.0" width="189.0" height="105.0" fill="#d9ead3" stroke="#333" stroke-width="1.5"/><text x="224.5" y="284.9" text-anchor="middle" font-family="Arial" font-size="12" font-weight="bold" fill="#222">MASTER BR</text><text x="224.5" y="300.7" text-anchor="middle" font-family="Arial" font-size="10" fill="#555">4.5×2.5 m · 11.2 sqm</text><rect x="319.0" y="235.0" width="147.0" height="105.0" fill="#d9ead3" stroke="#333" stroke-width="1.5"/><text x="392.5" y="284.9" text-anchor="middle" font-family="Arial" font-size="12" font-weight="bold" fill="#222">BEDROOM</text><text x="392.5" y="300.7" text-anchor="middle" font-family="Arial" font-size="10" fill="#555">3.5×2.5 m · 8.8 sqm</text><rect x="361.0" y="130.0" width="105.0" height="105.0" fill="#d9ead3" stroke="#333" stroke-width="1.5"/><text x="413.5" y="174.1" text-anchor="middle" font-family="Arial" font-size="12" font-weight="bold" fill="#222">BEDROOM</text><text x="413.5" y="189.9" text-anchor="middle" font-family="Arial" font-size="10" fill="#555">2.5×2.5 m</text><text x="413.5" y="201.4" text-anchor="middle" font-family="Arial" font-size="10" fill="#555">6.2 sqm</text><rect x="130.0" y="130.0" width="147.0" height="46.2" fill="#ead1dc" stroke="#333" stroke-width="1.5"/><text x="203.5" y="150.4" text-anchor="middle" font-family="Arial" font-size="12" font-weight="bold" fill="#222">T&amp;B</text><text x="203.5" y="166.2" text-anchor="middle" font-family="Arial" font-size="10" fill="#555">3.5×1.1 m · 3.9 sqm</text><rect x="277.0" y="130.0" width="84.0" height="105.0" fill="#efefef" stroke="none"/><rect x="130.0" y="214.0" width="147.0" height="21.0" fill="#efefef" stroke="none"/><text x="319.0" y="179.8" text-anchor="middle" font-family="Arial" font-size="12" font-weight="bold" fill="#222">HALL</text><text x="319.0" y="195.7" text-anchor="middle" font-family="Arial" font-size="10" fill="#555">6.8 sqm L</text><rect x="130.0" y="176.2" width="147.0" height="37.8" fill="#efefef" stroke="#333" stroke-width="1.5"/><line x1="142.2" y1="214.0" x2="142.2" y2="176.2" stroke="#9a9a9a" stroke-width="0.6"/><line x1="154.5" y1="214.0" x2="154.5" y2="176.2" stroke="#9a9a9a" stroke-width="0.6"/><line x1="166.8" y1="214.0" x2="166.8" y2="176.2" stroke="#9a9a9a" stroke-width="0.6"/><line x1="179.0" y1="214.0" x2="179.0" y2="176.2" stroke="#9a9a9a" stroke-width="0.6"/><line x1="191.2" y1="214.0" x2="191.2" y2="176.2" stroke="#9a9a9a" stroke-width="0.6"/><line x1="203.5" y1="214.0" x2="203.5" y2="176.2" stroke="#9a9a9a" stroke-width="0.6"/><line x1="215.7" y1="214.0" x2="215.7" y2="176.2" stroke="#9a9a9a" stroke-width="0.6"/><line x1="228.0" y1="214.0" x2="228.0" y2="176.2" stroke="#9a9a9a" stroke-width="0.6"/><line x1="240.2" y1="214.0" x2="240.2" y2="176.2" stroke="#9a9a9a" stroke-width="0.6"/><line x1="252.5" y1="214.0" x2="252.5" y2="176.2" stroke="#9a9a9a" stroke-width="0.6"/><line x1="264.8" y1="214.0" x2="264.8" y2="176.2" stroke="#9a9a9a" stroke-width="0.6"/><line x1="258.1" y1="195.1" x2="148.9" y2="195.1" stroke="#333" stroke-width="2" stroke-linecap="round"/><line x1="148.9" y1="195.1" x2="154.8" y2="191.4" stroke="#333" stroke-width="2" stroke-linecap="round"/><line x1="148.9" y1="195.1" x2="154.8" y2="198.8" stroke="#333" stroke-width="2" stroke-linecap="round"/><text x="267.1" y="195.1" text-anchor="middle" dominant-baseline="middle" font-family="Arial" font-size="9" font-weight="bold" fill="#333" stroke="white" stroke-width="2.5" paint-order="stroke">DN</text><text x="298.0" y="500.0" text-anchor="middle" font-family="Arial" font-size="12" font-weight="bold" fill="#888">FRONT (street)</text><rect x="316.90" y="235.00" width="4.20" height="105.00" fill="#555" stroke="none"/><rect x="277.00" y="232.90" width="42.00" height="4.20" fill="#555" stroke="none"/><rect x="130.00" y="232.90" width="147.00" height="4.20" fill="#555" stroke="none"/><rect x="361.00" y="232.90" width="105.00" height="4.20" fill="#555" stroke="none"/><rect x="319.00" y="232.90" width="42.00" height="4.20" fill="#555" stroke="none"/><rect x="358.90" y="130.00" width="4.20" height="105.00" fill="#555" stroke="none"/><rect x="274.90" y="130.00" width="4.20" height="46.20" fill="#555" stroke="none"/><rect x="130.00" y="174.10" width="147.00" height="4.20" fill="#555" stroke="none"/><rect x="130.00" y="335.80" width="189.00" height="8.40" fill="#555" stroke="none"/><rect x="125.80" y="235.00" width="8.40" height="105.00" fill="#555" stroke="none"/><rect x="319.00" y="335.80" width="147.00" height="8.40" fill="#555" stroke="none"/><rect x="461.80" y="235.00" width="8.40" height="105.00" fill="#555" stroke="none"/><rect x="361.00" y="125.80" width="105.00" height="8.40" fill="#555" stroke="none"/><rect x="461.80" y="130.00" width="8.40" height="105.00" fill="#555" stroke="none"/><rect x="130.00" y="125.80" width="147.00" height="8.40" fill="#555" stroke="none"/><rect x="125.80" y="130.00" width="8.40" height="46.20" fill="#555" stroke="none"/><rect x="277.00" y="125.80" width="84.00" height="8.40" fill="#555" stroke="none"/><rect x="125.80" y="214.00" width="8.40" height="21.00" fill="#555" stroke="none"/><rect x="125.80" y="176.20" width="8.40" height="37.80" fill="#555" stroke="none"/><rect x="314.80" y="335.80" width="8.40" height="8.40" fill="#555" stroke="none"/><rect x="316.90" y="232.90" width="4.20" height="4.20" fill="#555" stroke="none"/><rect x="316.90" y="232.90" width="4.20" height="4.20" fill="#555" stroke="none"/><rect x="125.80" y="230.80" width="8.40" height="8.40" fill="#555" stroke="none"/><rect x="358.90" y="232.90" width="4.20" height="4.20" fill="#555" stroke="none"/><rect x="461.80" y="230.80" width="8.40" height="8.40" fill="#555" stroke="none"/><rect x="316.90" y="232.90" width="4.20" height="4.20" fill="#555" stroke="none"/><rect x="358.90" y="232.90" width="4.20" height="4.20" fill="#555" stroke="none"/><rect x="358.90" y="232.90" width="4.20" height="4.20" fill="#555" stroke="none"/><rect x="356.80" y="125.80" width="8.40" height="8.40" fill="#555" stroke="none"/><rect x="272.80" y="125.80" width="8.40" height="8.40" fill="#555" stroke="none"/><rect x="125.80" y="172.00" width="8.40" height="8.40" fill="#555" stroke="none"/><rect x="125.80" y="335.80" width="8.40" height="8.40" fill="#555" stroke="none"/><rect x="314.80" y="335.80" width="8.40" height="8.40" fill="#555" stroke="none"/><rect x="125.80" y="335.80" width="8.40" height="8.40" fill="#555" stroke="none"/><rect x="125.80" y="230.80" width="8.40" height="8.40" fill="#555" stroke="none"/><rect x="314.80" y="335.80" width="8.40" height="8.40" fill="#555" stroke="none"/><rect x="461.80" y="335.80" width="8.40" height="8.40" fill="#555" stroke="none"/><rect x="461.80" y="335.80" width="8.40" height="8.40" fill="#555" stroke="none"/><rect x="461.80" y="230.80" width="8.40" height="8.40" fill="#555" stroke="none"/><rect x="356.80" y="125.80" width="8.40" height="8.40" fill="#555" stroke="none"/><rect x="461.80" y="125.80" width="8.40" height="8.40" fill="#555" stroke="none"/><rect x="461.80" y="230.80" width="8.40" height="8.40" fill="#555" stroke="none"/><rect x="461.80" y="125.80" width="8.40" height="8.40" fill="#555" stroke="none"/><rect x="125.80" y="125.80" width="8.40" height="8.40" fill="#555" stroke="none"/><rect x="272.80" y="125.80" width="8.40" height="8.40" fill="#555" stroke="none"/><rect x="125.80" y="172.00" width="8.40" height="8.40" fill="#555" stroke="none"/><rect x="125.80" y="125.80" width="8.40" height="8.40" fill="#555" stroke="none"/><rect x="272.80" y="125.80" width="8.40" height="8.40" fill="#555" stroke="none"/><rect x="356.80" y="125.80" width="8.40" height="8.40" fill="#555" stroke="none"/><rect x="125.80" y="230.80" width="8.40" height="8.40" fill="#555" stroke="none"/><rect x="125.80" y="172.00" width="8.40" height="8.40" fill="#555" stroke="none"/><rect x="272.0" y="178.3" width="5.0" height="35.7" fill="#efefef" stroke="none"/><rect x="277.0" y="178.3" width="5.0" height="35.7" fill="#efefef" stroke="none"/><rect x="132.1" y="209.0" width="144.9" height="5.0" fill="#efefef" stroke="none"/><rect x="132.1" y="214.0" width="144.9" height="5.0" fill="#efefef" stroke="none"/><line x1="132.1" y1="214.0" x2="239.2" y2="214.0" stroke="#555" stroke-width="2" stroke-linecap="butt"/><rect x="136.3" y="230.0" width="33.6" height="5.0" fill="#efefef" stroke="none"/><rect x="136.3" y="235.0" width="33.6" height="5.0" fill="#d9ead3" stroke="none"/><line x1="136.3" y1="235.0" x2="136.3" y2="268.6" stroke="#444" stroke-width="1.4"/><path d="M 136.3 268.6 A 33.6 33.6 0 0 0 169.9 235.0" fill="none" stroke="#999" stroke-width="0.7" stroke-dasharray="2 2"/><rect x="319.0" y="230.0" width="33.6" height="5.0" fill="#efefef" stroke="none"/><rect x="319.0" y="235.0" width="33.6" height="5.0" fill="#d9ead3" stroke="none"/><line x1="319.0" y1="235.0" x2="319.0" y2="268.6" stroke="#444" stroke-width="1.4"/><path d="M 319.0 268.6 A 33.6 33.6 0 0 0 352.6 235.0" fill="none" stroke="#999" stroke-width="0.7" stroke-dasharray="2 2"/><rect x="356.0" y="195.1" width="5.0" height="33.6" fill="#efefef" stroke="none"/><rect x="361.0" y="195.1" width="5.0" height="33.6" fill="#d9ead3" stroke="none"/><line x1="361.0" y1="228.7" x2="394.6" y2="228.7" stroke="#444" stroke-width="1.4"/><path d="M 394.6 228.7 A 33.6 33.6 0 0 0 361.0 195.1" fill="none" stroke="#999" stroke-width="0.7" stroke-dasharray="2 2"/><rect x="277.0" y="146.8" width="5.0" height="29.4" fill="#efefef" stroke="none"/><rect x="272.0" y="146.8" width="5.0" height="29.4" fill="#ead1dc" stroke="none"/><line x1="277.0" y1="176.2" x2="247.6" y2="176.2" stroke="#444" stroke-width="1.4"/><path d="M 247.6 176.2 A 29.4 29.4 0 0 1 277.0 146.8" fill="none" stroke="#999" stroke-width="0.7" stroke-dasharray="2 2"/><rect x="174.1" y="335.0" width="100.8" height="5.0" fill="#d9ead3" stroke="none"/><rect x="174.1" y="340.0" width="100.8" height="5.0" fill="#fbfbf7" stroke="none"/><line x1="174.1" y1="337.0" x2="274.9" y2="337.0" stroke="#222" stroke-width="1.0"/><line x1="174.1" y1="340.0" x2="274.9" y2="340.0" stroke="#222" stroke-width="1.0"/><line x1="174.1" y1="343.0" x2="274.9" y2="343.0" stroke="#222" stroke-width="1.0"/><rect x="130.0" y="258.6" width="5.0" height="57.8" fill="#d9ead3" stroke="none"/><rect x="125.0" y="258.6" width="5.0" height="57.8" fill="#fbfbf7" stroke="none"/><line x1="127.0" y1="316.4" x2="127.0" y2="258.6" stroke="#222" stroke-width="1.0"/><line x1="130.0" y1="316.4" x2="130.0" y2="258.6" stroke="#222" stroke-width="1.0"/><line x1="133.0" y1="316.4" x2="133.0" y2="258.6" stroke="#222" stroke-width="1.0"/><rect x="352.1" y="335.0" width="80.9" height="5.0" fill="#d9ead3" stroke="none"/><rect x="352.1" y="340.0" width="80.9" height="5.0" fill="#fbfbf7" stroke="none"/><line x1="352.1" y1="337.0" x2="432.9" y2="337.0" stroke="#222" stroke-width="1.0"/><line x1="352.1" y1="340.0" x2="432.9" y2="340.0" stroke="#222" stroke-width="1.0"/><line x1="352.1" y1="343.0" x2="432.9" y2="343.0" stroke="#222" stroke-width="1.0"/><rect x="461.0" y="258.6" width="5.0" height="57.8" fill="#d9ead3" stroke="none"/><rect x="466.0" y="258.6" width="5.0" height="57.8" fill="#fbfbf7" stroke="none"/><line x1="463.0" y1="316.4" x2="463.0" y2="258.6" stroke="#222" stroke-width="1.0"/><line x1="466.0" y1="316.4" x2="466.0" y2="258.6" stroke="#222" stroke-width="1.0"/><line x1="469.0" y1="316.4" x2="469.0" y2="258.6" stroke="#222" stroke-width="1.0"/><rect x="384.6" y="130.0" width="57.8" height="5.0" fill="#d9ead3" stroke="none"/><rect x="384.6" y="125.0" width="57.8" height="5.0" fill="#fbfbf7" stroke="none"/><line x1="384.6" y1="127.0" x2="442.4" y2="127.0" stroke="#222" stroke-width="1.0"/><line x1="384.6" y1="130.0" x2="442.4" y2="130.0" stroke="#222" stroke-width="1.0"/><line x1="384.6" y1="133.0" x2="442.4" y2="133.0" stroke="#222" stroke-width="1.0"/><rect x="461.0" y="153.6" width="5.0" height="57.8" fill="#d9ead3" stroke="none"/><rect x="466.0" y="153.6" width="5.0" height="57.8" fill="#fbfbf7" stroke="none"/><line x1="463.0" y1="211.4" x2="463.0" y2="153.6" stroke="#222" stroke-width="1.0"/><line x1="466.0" y1="211.4" x2="466.0" y2="153.6" stroke="#222" stroke-width="1.0"/><line x1="469.0" y1="211.4" x2="469.0" y2="153.6" stroke="#222" stroke-width="1.0"/><rect x="184.6" y="130.0" width="37.8" height="5.0" fill="#ead1dc" stroke="none"/><rect x="184.6" y="125.0" width="37.8" height="5.0" fill="#fbfbf7" stroke="none"/><line x1="184.6" y1="127.0" x2="222.4" y2="127.0" stroke="#222" stroke-width="1.0"/><line x1="184.6" y1="130.0" x2="222.4" y2="130.0" stroke="#222" stroke-width="1.0"/><line x1="184.6" y1="133.0" x2="222.4" y2="133.0" stroke="#222" stroke-width="1.0"/><rect x="130.0" y="140.5" width="5.0" height="25.2" fill="#ead1dc" stroke="none"/><rect x="125.0" y="140.5" width="5.0" height="25.2" fill="#fbfbf7" stroke="none"/><line x1="127.0" y1="165.7" x2="127.0" y2="140.5" stroke="#222" stroke-width="1.0"/><line x1="130.0" y1="165.7" x2="130.0" y2="140.5" stroke="#222" stroke-width="1.0"/><line x1="133.0" y1="165.7" x2="133.0" y2="140.5" stroke="#222" stroke-width="1.0"/></svg></svg>