<svg xmlns="http://www.w3.org/2000/svg" width="1090" height="567" viewBox="0 0 1090 567"><rect x="0" y="0" width="1090" height="567" fill="white"/><text x="266" y="22" text-anchor="middle" font-family="Helvetica, Arial, sans-serif" font-size="15" font-weight="bold" letter-spacing="2">GROUND FLOOR</text><svg x="0" y="34" xmlns="http://www.w3.org/2000/svg" width="533" height="533" viewBox="0 0 533 533"><rect x="0" y="0" width="533" height="533" fill="white"/><rect x="46.0" y="46.0" width="441.0" height="441.0" fill="#fbfbf7" stroke="#333" stroke-width="1.5"/><line x1="46.0" y1="46.0" x2="46.0" y2="38.0" stroke="#888" stroke-width="1"/><line x1="46.0" y1="487.0" x2="46.0" y2="495.0" stroke="#888" stroke-width="1"/><text x="46.0" y="36.0" text-anchor="middle" font-family="Arial" font-size="9" fill="#666">0</text><text x="46.0" y="503.0" text-anchor="middle" font-family="Arial" font-size="9" fill="#666">0</text><line x1="67.0" y1="46.0" x2="67.0" y2="42.0" stroke="#888" stroke-width="1"/><line x1="67.0" y1="487.0" x2="67.0" y2="491.0" stroke="#888" stroke-width="1"/><line x1="88.0" y1="46.0" x2="88.0" y2="38.0" stroke="#888" stroke-width="1"/><line x1="88.0" y1="487.0" x2="88.0" y2="495.0" stroke="#888" stroke-width="1"/><text x="88.0" y="36.0" text-anchor="middle" font-family="Arial" font-size="9" fill="#666">1</text><text x="88.0" y="503.0" text-anchor="middle" font-family="Arial" font-size="9" fill="#666">1</text><line x1="109.0" y1="46.0" x2="109.0" y2="42.0" stroke="#888" stroke-width="1"/><line x1="109.0" y1="487.0" x2="109.0" y2="491.0" stroke="#888" stroke-width="1"/><line x1="130.0" y1="46.0" x2="130.0" y2="38.0" stroke="#888" stroke-width="1"/><line x1="130.0" y1="487.0" x2="130.0" y2="495.0" stroke="#888" stroke-width="1"/><text x="130.0" y="36.0" text-anchor="middle" font-family="Arial" font-size="9" fill="#666">2</text><text x="130.0" y="503.0" text-anchor="middle" font-family="Arial" font-size="9" fill="#666">2</text><line x1="151.0" y1="46.0" x2="151.0" y2="42.0" stroke="#888" stroke-width="1"/><line x1="151.0" y1="487.0" x2="151.0" y2="491.0" stroke="#888" stroke-width="1"/><line x1="172.0" y1="46.0" x2="172.0" y2="38.0" stroke="#888" stroke-width="1"/><line x1="172.0" y1="487.0" x2="172.0" y2="495.0" stroke="#888" stroke-width="1"/><text x="172.0" y="36.0" text-anchor="middle" font-family="Arial" font-size="9" fill="#666">3</text><text x="172.0" y="503.0" text-anchor="middle" font-family="Arial" font-size="9" fill="#666">3</text><line x1="193.0" y1="46.0" x2="193.0" y2="42.0" stroke="#888" stroke-width="1"/><line x1="193.0" y1="487.0" x2="193.0" y2="491.0" stroke="#888" stroke-width="1"/><line x1="214.0" y1="46.0" x2="214.0" y2="38.0" stroke="#888" stroke-width="1"/><line x1="214.0" y1="487.0" x2="214.0" y2="495.0" stroke="#888" stroke-width="1"/><text x="214.0" y="36.0" text-anchor="middle" font-family="Arial" font-size="9" fill="#666">4</text><text x="214.0" y="503.0" text-anchor="middle" font-family="Arial" font-size="9" fill="#666">4</text><line x1="235.0" y1="46.0" x2="235.0" y2="42.0" stroke="#888" stroke-width="1"/><line x1="235.0" y1="487.0" x2="235.0" y2="491.0" stroke="#888" stroke-width="1"/><line x1="256.0" y1="46.0" x2="256.0" y2="38.0" stroke="#888" stroke-width="1"/><line x1="256.0" y1="487.0" x2="256.0" y2="495.0" stroke="#888" stroke-width="1"/><text x="256.0" y="36.0" text-anchor="middle" font-family="Arial" font-size="9" fill="#666">5</text><text x="256.0" y="503.0" text-anchor="middle" font-family="Arial" font-size="9" fill="#666">5</text><line x1="277.0" y1="46.0" x2="277.0" y2="42.0" stroke="#888" stroke-width="1"/><line x1="277.0" y1="487.0" x2="277.0" y2="491.0" stroke="#888" stroke-width="1"/><line x1="298.0" y1="46.0" x2="298.0" y2="38.0" stroke="#888" stroke-width="1"/><line x1="298.0" y1="487.0" x2="298.0" y2="495.0" stroke="#888" stroke-width="1"/><text x="298.0" y="36.0" text-anchor="middle" font-family="Arial" font-size="9" fill="#666">6</text><text x="298.0" y="503.0" text-anchor="middle" font-family="Arial" font-size="9" fill="#666">6</text><line x1="319.0" y1="46.0" x2="319.0" y2="42.0" stroke="#888" stroke-width="1"/><line x1="319.0" y1="487.0" x2="319.0" y2="491.0" stroke="#888" stroke-width="1"/><line x1="340.0" y1="46.0" x2="340.0" y2="38.0" stroke="#888" stroke-width="1"/><line x1="340.0" y1="487.0" x2="340.0" y2="495.0" stroke="#888" stroke-width="1"/><text x="340.0" y="36.0" text-anchor="middle" font-family="Arial" font-size="9" fill="#666">7</text><text x="340.0" y="503.0" text-anchor="middle" font-family="Arial" font-size="9" fill="#666">7</text><line x1="361.0" y1="46.0" x2="361.0" y2="42.0" stroke="#888" stroke-width="1"/><line x1="361.0" y1="487.0" x2="361.0" y2="491.0" stroke="#888" stroke-width="1"/><line x1="382.0" y1="46.0" x2="382.0" y2="38.0" stroke="#888" stroke-width="1"/><line x1="382.0" y1="487.0" x2="382.0" y2="495.0" stroke="#888" stroke-width="1"/><text x="382.0" y="36.0" text-anchor="middle" font-family="Arial" font-size="9" fill="#666">8</text><text x="382.0" y="503.0" text-anchor="middle" font-family="Arial" font-size="9" fill="#666">8</text><line x1="403.0" y1="46.0" x2="403.0" y2="42.0" stroke="#888" stroke-width="1"/><line x1="403.0" y1="487.0" x2="403.0" y2="491.0" stroke="#888" stroke-width="1"/><line x1="424.0" y1="46.0" x2="424.0" y2="38.0" stroke="#888" stroke-width="1"/><line x1="424.0" y1="487.0" x2="424.0" y2="495.0" stroke="#888" stroke-width="1"/><text x="424.0" y="36.0" text-anchor="middle" font-family="Arial" font-size="9" fill="#666">9</text><text x="424.0" y="503.0" text-anchor="middle" font-family="Arial" font-size="9" fill="#666">9</text><line x1="445.0" y1="46.0" x2="445.0" y2="42.0" stroke="#888" stroke-width="1"/><line x1="445.0" y1="487.0" x2="445.0" y2="491.0" stroke="#888" stroke-width="1"/><line x1="466.0" y1="46.0" x2="466.0" y2="38.0" stroke="#888" stroke-width="1"/><line x1="466.0" y1="487.0" x2="466.0" y2="495.0" stroke="#888" stroke-width="1"/><text x="466.0" y="36.0" text-anchor="middle" font-family="Arial" font-size="9" fill="#666">10</text><text x="466.0" y="503.0" text-anchor="middle" font-family="Arial" font-size="9" fill="#666">10</text><line x1="487.0" y1="46.0" x2="487.0" y2="42.0" stroke="#888" stroke-width="1"/><line x1="487.0" y1="487.0" x2="487.0" y2="491.0" stroke="#888" stroke-width="1"/><line x1="46.0" y1="487.0" x2="38.0" y2="487.0" stroke="#888" stroke-width="1"/><line x1="487.0" y1="487.0" x2="495.0" y2="487.0" stroke="#888" stroke-width="1"/><text x="36.0" y="490.0" text-anchor="end" font-family="Arial" font-size="9" fill="#666">0</text><text x="497.0" y="490.0" text-anchor="start" font-family="Arial" font-size="9" fill="#666">0</text><line x1="46.0" y1="466.0" x2="42.0" y2="466.0" stroke="#888" stroke-width="1"/><line x1="487.0" y1="466.0" x2="491.0" y2="466.0" stroke="#888" stroke-width="1"/><line x1="46.0" y1="445.0" x2="38.0" y2="445.0" stroke="#888" stroke-width="1"/><line x1="487.0" y1="445.0" x2="495.0" y2="445.0" stroke="#888" stroke-width="1"/><text x="36.0" y="448.0" text-anchor="end" font-family="Arial" font-size="9" fill="#666">1</text><text x="497.0" y="448.0" text-anchor="start" font-family="Arial" font-size="9" fill="#666">1</text><line x1="46.0" y1="424.0" x2="42.0" y2="424.0" stroke="#888" stroke-width="1"/><line x1="487.0" y1="424.0" x2="491.0" y2="424.0" stroke="#888" stroke-width="1"/><line x1="46.0" y1="403.0" x2="38.0" y2="403.0" stroke="#888" stroke-width="1"/><line x1="487.0" y1="403.0" x2="495.0" y2="403.0" stroke="#888" stroke-width="1"/><text x="36.0" y="406.0" text-anchor="end" font-family="Arial" font-size="9" fill="#666">2</text><text x="497.0" y="406.0" text-anchor="start" font-family="Arial" font-size="9" fill="#666">2</text><line x1="46.0" y1="382.0" x2="42.0" y2="382.0" stroke="#888" stroke-width="1"/><line x1="487.0" y1="382.0" x2="491.0" y2="382.0" stroke="#888" stroke-width="1"/><line x1="46.0" y1="361.0" x2="38.0" y2="361.0" stroke="#888" stroke-width="1"/><line x1="487.0" y1="361.0" x2="495.0" y2="361.0" stroke="#888" stroke-width="1"/><text x="36.0" y="364.0" text-anchor="end" font-family="Arial" font-size="9" fill="#666">3</text><text x="497.0" y="364.0" text-anchor="start" font-family="Arial" font-size="9" fill="#666">3</text><line x1="46.0" y1="340.0" x2="42.0" y2="340.0" stroke="#888" stroke-width="1"/><line x1="487.0" y1="340.0" x2="491.0" y2="340.0" stroke="#888" stroke-width="1"/><line x1="46.0" y1="319.0" x2="38.0" y2="319.0" stroke="#888" stroke-width="1"/><line x1="487.0" y1="319.0" x2="495.0" y2="319.0" stroke="#888" stroke-width="1"/><text x="36.0" y="322.0" text-anchor="end" font-family="Arial" font-size="9" fill="#666">4</text><text x="497.0" y="322.0" text-anchor="start" font-family="Arial" font-size="9" fill="#666">4</text><line x1="46.0" y1="298.0" x2="42.0" y2="298.0" stroke="#888" stroke-width="1"/><line x1="487.0" y1="298.0" x2="491.0" y2="298.0" stroke="#888" stroke-width="1"/><line x1="46.0" y1="277.0" x2="38.0" y2="277.0" stroke="#888" stroke-width="1"/><line x1="487.0" y1="277.0" x2="495.0" y2="277.0" stroke="#888" stroke-width="1"/><text x="36.0" y="280.0" text-anchor="end" font-family="Arial" font-size="9" fill="#666">5</text><text x="497.0" y="280.0" text-anchor="start" font-family="Arial" font-size="9" fill="#666">5</text><line x1="46.0" y1="256.0" x2="42.0" y2="256.0" stroke="#888" stroke-width="1"/><line x1="487.0" y1="256.0" x2="491.0" y2="256.0" stroke="#888" stroke-width="1"/><line x1="46.0" y1="235.0" x2="38.0" y2="235.0" stroke="#888" stroke-width="1"/><line x1="487.0" y1="235.0" x2="495.0" y2="235.0" stroke="#888" stroke-width="1"/><text x="36.0" y="238.0" text-anchor="end" font-family="Arial" font-size="9" fill="#666">6</text><text x="497.0" y="238.0" text-anchor="start" font-family="Arial" font-size="9" fill="#666">6</text><line x1="46.0" y1="214.0" x2="42.0" y2="214.0" stroke="#888" stroke-width="1"/><line x1="487.0" y1="214.0" x2="491.0" y2="214.0" stroke="#888" stroke-width="1"/><line x1="46.0" y1="193.0" x2="38.0" y2="193.0" stroke="#888" stroke-width="1"/><line x1="487.0" y1="193.0" x2="495.0" y2="193.0" stroke="#888" stroke-width="1"/><text x="36.0" y="196.0" text-anchor="end" font-family="Arial" font-size="9" fill="#666">7</text><text x="497.0" y="196.0" text-anchor="start" font-family="Arial" font-size="9" fill="#666">7</text><line x1="46.0" y1="172.0" x2="42.0" y2="172.0" stroke="#888" stroke-width="1"/><line x1="487.0" y1="172.0" x2="491.0" y2="172.0" stroke="#888" stroke-width="1"/><line x1="46.0" y1="151.0" x2="38.0" y2="151.0" stroke="#888" stroke-width="1"/><line x1="487.0" y1="151.0" x2="495.0" y2="151.0" stroke="#888" stroke-width="1"/><text x="36.0" y="154.0" text-anchor="end" font-family="Arial" font-size="9" fill="#666">8</text><text x="497.0" y="154.0" text-anchor="start" font-family="Arial" font-size="9" fill="#666">8</text><line x1="46.0" y1="130.0" x2="42.0" y2="130.0" stroke="#888" stroke-width="1"/><line x1="487.0" y1="130.0" x2="491.0" y2="130.0" stroke="#888" stroke-width="1"/><line x1="46.0" y1="109.0" x2="38.0" y2="109.0" stroke="#888" stroke-width="1"/><line x1="487.0" y1="109.0" x2="495.0" y2="109.0" stroke="#888" stroke-width="1"/><text x="36.0" y="112.0" text-anchor="end" font-family="Arial" font-size="9" fill="#666">9</text><text x="497.0" y="112.0" text-anchor="start" font-family="Arial" font-size="9" fill="#666">9</text><line x1="46.0" y1="88.0" x2="42.0" y2="88.0" stroke="#888" stroke-width="1"/><line x1="487.0" y1="88.0" x2="491.0" y2="88.0" stroke="#888" stroke-width="1"/><line x1="46.0" y1="67.0" x2="38.0" y2="67.0" stroke="#888" stroke-width="1"/><line x1="487.0" y1="67.0" x2="495.0" y2="67.0" stroke="#888" stroke-width="1"/><text x="36.0" y="70.0" text-anchor="end" font-family="Arial" font-size="9" fill="#666">10</text><text x="497.0" y="70.0" text-anchor="start" font-family="Arial" font-size="9" fill="#666">10</text><line x1="46.0" y1="46.0" x2="42.0" y2="46.0" stroke="#888" stroke-width="1"/><line x1="487.0" y1="46.0" x2="491.0" y2="46.0" stroke="#888" stroke-width="1"/><rect x="130.0" y="130.0" width="273.0" height="273.0" fill="none" stroke="#9aa" stroke-width="1" stroke-dasharray="3 3"/><rect x="131.3" y="404.3" width="270.5" height="60.5" fill="#f2f2f2" stroke="#333" stroke-width="1.5" stroke-dasharray="6 4"/><text x="266.5" y="431.9" text-anchor="middle" font-family="Arial" font-size="12" font-weight="bold" fill="#222">PORCH</text><text x="266.5" y="447.7" text-anchor="middle" font-family="Arial" font-size="10" fill="#555">6.5×1.5 m</text><rect x="130.0" y="277.0" width="273.0" height="126.0" fill="#cfe2f3" stroke="#333" stroke-width="1.5"/><text x="266.5" y="337.4" text-anchor="middle" font-family="Arial" font-size="12" font-weight="bold" fill="#222">GREAT ROOM</text><text x="266.5" y="353.2" text-anchor="middle" font-family="Arial" font-size="10" fill="#555">6.5×3.0 m · 19.5 sqm</text><rect x="176.2" y="130.0" width="163.8" height="147.0" fill="#cfe2f3" stroke="none"/><rect x="340.0" y="130.0" width="63.0" height="37.8" fill="#cfe2f3" stroke="none"/><text x="258.1" y="200.8" text-anchor="middle" font-family="Arial" font-size="12" font-weight="bold" fill="#222">KITCHEN</text><text x="258.1" y="216.7" text-anchor="middle" font-family="Arial" font-size="10" fill="#555">15.0 sqm (L-shaped)</text><rect x="340.0" y="167.8" width="63.0" height="109.2" fill="#ead1dc" stroke="#333" stroke-width="1.5"/><text x="371.5" y="214.0" text-anchor="middle" font-family="Arial" font-size="12" font-weight="bold" fill="#222">T&amp;B</text><text x="371.5" y="229.8" text-anchor="middle" font-family="Arial" font-size="10" fill="#555">1.5×2.6 m</text><text x="371.5" y="241.3" text-anchor="middle" font-family="Arial" font-size="10" fill="#555">3.9 sqm</text><rect x="130.0" y="130.0" width="46.2" height="147.0" fill="#efefef" stroke="#333" stroke-width="1.5"/><line x1="130.0" y1="264.8" x2="176.2" y2="264.8" stroke="#9a9a9a" stroke-width="0.6"/><line x1="130.0" y1="252.5" x2="176.2" y2="252.5" stroke="#9a9a9a" stroke-width="0.6"/><line x1="130.0" y1="240.2" x2="176.2" y2="240.2" stroke="#9a9a9a" stroke-width="0.6"/><line x1="130.0" y1="228.0" x2="176.2" y2="228.0" stroke="#9a9a9a" stroke-width="0.6"/><line x1="130.0" y1="215.8" x2="176.2" y2="215.8" stroke="#9a9a9a" stroke-width="0.6"/><line x1="130.0" y1="203.5" x2="176.2" y2="203.5" stroke="#9a9a9a" stroke-width="0.6"/><line x1="130.0" y1="191.3" x2="176.2" y2="191.3" stroke="#9a9a9a" stroke-width="0.6"/><line x1="130.0" y1="179.0" x2="176.2" y2="179.0" stroke="#9a9a9a" stroke-width="0.6"/><line x1="130.0" y1="166.8" x2="176.2" y2="166.8" stroke="#9a9a9a" stroke-width="0.6"/><line x1="130.0" y1="154.5" x2="176.2" y2="154.5" stroke="#9a9a9a" stroke-width="0.6"/><line x1="130.0" y1="142.2" x2="176.2" y2="142.2" stroke="#9a9a9a" stroke-width="0.6"/><line x1="153.1" y1="258.1" x2="153.1" y2="148.9" stroke="#333" stroke-width="2" stroke-linecap="round"/><line x1="153.1" y1="148.9" x2="156.8" y2="154.8" stroke="#333" stroke-width="2" stroke-linecap="round"/><line x1="153.1" y1="148.9" x2="149.4" y2="154.8" stroke="#333" stroke-width="2" stroke-linecap="round"/><text x="153.1" y="267.1" text-anchor="middle" dominant-baseline="middle" font-family="Arial" font-size="9" font-weight="bold" fill="#333" stroke="white" stroke-width="2.5" paint-order="stroke">UP</text><text x="266.5" y="521.0" text-anchor="middle" font-family="Arial" font-size="12" font-weight="bold" fill="#888">FRONT (street)</text><rect x="340.00" y="274.90" width="63.00" height="4.20" fill="#555" stroke="none"/><rect x="337.90" y="167.80" width="4.20" height="109.20" fill="#555" stroke="none"/><rect x="174.10" y="130.00" width="4.20" height="147.00" fill="#555" stroke="none"/><rect x="340.00" y="165.70" width="63.00" height="4.20" fill="#555" stroke="none"/><rect x="130.00" y="398.80" width="273.00" height="8.40" fill="#555" stroke="none"/><rect x="398.80" y="277.00" width="8.40" height="126.00" fill="#555" stroke="none"/><rect x="125.80" y="277.00" width="8.40" height="126.00" fill="#555" stroke="none"/><rect x="176.20" y="125.80" width="163.80" height="8.40" fill="#555" stroke="none"/><rect x="340.00" y="125.80" width="63.00" height="8.40" fill="#555" stroke="none"/><rect x="398.80" y="130.00" width="8.40" height="37.80" fill="#555" stroke="none"/><rect x="398.80" y="167.80" width="8.40" height="109.20" fill="#555" stroke="none"/><rect x="130.00" y="125.80" width="46.20" height="8.40" fill="#555" stroke="none"/><rect x="125.80" y="130.00" width="8.40" height="147.00" fill="#555" stroke="none"/><rect x="398.80" y="272.80" width="8.40" height="8.40" fill="#555" stroke="none"/><rect x="337.90" y="165.70" width="4.20" height="4.20" fill="#555" stroke="none"/><rect x="172.00" y="125.80" width="8.40" height="8.40" fill="#555" stroke="none"/><rect x="337.90" y="165.70" width="4.20" height="4.20" fill="#555" stroke="none"/><rect x="398.80" y="163.60" width="8.40" height="8.40" fill="#555" stroke="none"/><rect x="125.80" y="398.80" width="8.40" height="8.40" fill="#555" stroke="none"/><rect x="398.80" y="398.80" width="8.40" height="8.40" fill="#555" stroke="none"/><rect x="398.80" y="398.80" width="8.40" height="8.40" fill="#555" stroke="none"/><rect x="398.80" y="272.80" width="8.40" height="8.40" fill="#555" stroke="none"/><rect x="125.80" y="398.80" width="8.40" height="8.40" fill="#555" stroke="none"/><rect x="172.00" y="125.80" width="8.40" height="8.40" fill="#555" stroke="none"/><rect x="398.80" y="125.80" width="8.40" height="8.40" fill="#555" stroke="none"/><rect x="398.80" y="163.60" width="8.40" height="8.40" fill="#555" stroke="none"/><rect x="398.80" y="125.80" width="8.40" height="8.40" fill="#555" stroke="none"/><rect x="398.80" y="272.80" width="8.40" height="8.40" fill="#555" stroke="none"/><rect x="398.80" y="163.60" width="8.40" height="8.40" fill="#555" stroke="none"/><rect x="125.80" y="125.80" width="8.40" height="8.40" fill="#555" stroke="none"/><rect x="172.00" y="125.80" width="8.40" height="8.40" fill="#555" stroke="none"/><rect x="125.80" y="125.80" width="8.40" height="8.40" fill="#555" stroke="none"/><rect x="176.2" y="277.0" width="161.7" height="5.0" fill="#cfe2f3" stroke="none"/><rect x="176.2" y="272.0" width="161.7" height="5.0" fill="#cfe2f3" stroke="none"/><rect x="132.1" y="277.0" width="44.1" height="5.0" fill="#cfe2f3" stroke="none"/><rect x="132.1" y="272.0" width="44.1" height="5.0" fill="#efefef" stroke="none"/><rect x="340.0" y="277.0" width="29.4" height="5.0" fill="#cfe2f3" stroke="none"/><rect x="340.0" y="272.0" width="29.4" height="5.0" fill="#ead1dc" stroke="none"/><line x1="340.0" y1="277.0" x2="340.0" y2="247.6" stroke="#444" stroke-width="1.4"/><path d="M 340.0 247.6 A 29.4 29.4 0 0 1 369.4 277.0" fill="none" stroke="#999" stroke-width="0.7" stroke-dasharray="2 2"/><rect x="136.3" y="398.0" width="37.8" height="5.0" fill="#cfe2f3" stroke="none"/><rect x="136.3" y="403.0" width="37.8" height="5.0" fill="#fbfbf7" stroke="none"/><line x1="136.3" y1="403.0" x2="136.3" y2="365.2" stroke="#444" stroke-width="1.4"/><path d="M 136.3 365.2 A 37.8 37.8 0 0 1 174.1 403.0" fill="none" stroke="#999" stroke-width="0.7" stroke-dasharray="2 2"/><rect x="182.5" y="130.0" width="33.6" height="5.0" fill="#cfe2f3" stroke="none"/><rect x="182.5" y="125.0" width="33.6" height="5.0" fill="#fbfbf7" stroke="none"/><line x1="182.5" y1="130.0" x2="182.5" y2="163.6" stroke="#444" stroke-width="1.4"/><path d="M 182.5 163.6 A 33.6 33.6 0 0 0 216.1 130.0" fill="none" stroke="#999" stroke-width="0.7" stroke-dasharray="2 2"/><rect x="244.4" y="398.0" width="100.8" height="5.0" fill="#cfe2f3" stroke="none"/><rect x="244.4" y="403.0" width="100.8" height="5.0" fill="#fbfbf7" stroke="none"/><line x1="244.4" y1="400.0" x2="345.2" y2="400.0" stroke="#222" stroke-width="1.0"/><line x1="244.4" y1="403.0" x2="345.2" y2="403.0" stroke="#222" stroke-width="1.0"/><line x1="244.4" y1="406.0" x2="345.2" y2="406.0" stroke="#222" stroke-width="1.0"/><rect x="130.0" y="305.4" width="5.0" height="69.3" fill="#cfe2f3" stroke="none"/><rect x="125.0" y="305.4" width="5.0" height="69.3" fill="#fbfbf7" stroke="none"/><line x1="127.0" y1="374.7" x2="127.0" y2="305.4" stroke="#222" stroke-width="1.0"/><line x1="130.0" y1="374.7" x2="130.0" y2="305.4" stroke="#222" stroke-width="1.0"/><line x1="133.0" y1="374.7" x2="133.0" y2="305.4" stroke="#222" stroke-width="1.0"/><rect x="398.0" y="305.4" width="5.0" height="69.3" fill="#cfe2f3" stroke="none"/><rect x="403.0" y="305.4" width="5.0" height="69.3" fill="#fbfbf7" stroke="none"/><line x1="400.0" y1="374.7" x2="400.0" y2="305.4" stroke="#222" stroke-width="1.0"/><line x1="403.0" y1="374.7" x2="403.0" y2="305.4" stroke="#222" stroke-width="1.0"/><line x1="406.0" y1="374.7" x2="406.0" y2="305.4" stroke="#222" stroke-width="1.0"/><rect x="253.7" y="130.0" width="61.2" height="5.0" fill="#cfe2f3" stroke="none"/><rect x="253.7" y="125.0" width="61.2" height="5.0" fill="#fbfbf7" stroke="none"/><line x1="253.7" y1="127.0" x2="315.0" y2="127.0" stroke="#222" stroke-width="1.0"/><line x1="253.7" y1="130.0" x2="315.0" y2="130.0" stroke="#222" stroke-width="1.0"/><line x1="253.7" y1="133.0" x2="315.0" y2="133.0" stroke="#222" stroke-width="1.0"/><rect x="398.0" y="203.5" width="5.0" height="37.8" fill="#ead1dc" stroke="none"/><rect x="403.0" y="203.5" width="5.0" height="37.8" fill="#fbfbf7" stroke="none"/><line x1="400.0" y1="241.3" x2="400.0" y2="203.5" stroke="#222" stroke-width="1.0"/><line x1="403.0" y1="241.3" x2="403.0" y2="203.5" stroke="#222" stroke-width="1.0"/><line x1="406.0" y1="241.3" x2="406.0" y2="203.5" stroke="#222" stroke-width="1.0"/></svg><text x="824" y="22" text-anchor="middle" font-family="Helvetica, Arial, sans-serif" font-size="15" font-weight="bold" letter-spacing="2">SECOND FLOOR</text><svg x="557" y="34" xmlns="http://www.w3.org/2000/svg" width="533" height="533" viewBox="0 0 533 533"><rect x="0" y="0" width="533" height="533" fill="white"/><rect x="46.0" y="46.0" width="441.0" height="441.0" fill="#fbfbf7" stroke="#333" stroke-width="1.5"/><line x1="46.0" y1="46.0" x2="46.0" y2="38.0" stroke="#888" stroke-width="1"/><line x1="46.0" y1="487.0" x2="46.0" y2="495.0" stroke="#888" stroke-width="1"/><text x="46.0" y="36.0" text-anchor="middle" font-family="Arial" font-size="9" fill="#666">0</text><text x="46.0" y="503.0" text-anchor="middle" font-family="Arial" font-size="9" fill="#666">0</text><line x1="67.0" y1="46.0" x2="67.0" y2="42.0" stroke="#888" stroke-width="1"/><line x1="67.0" y1="487.0" x2="67.0" y2="491.0" stroke="#888" stroke-width="1"/><line x1="88.0" y1="46.0" x2="88.0" y2="38.0" stroke="#888" stroke-width="1"/><line x1="88.0" y1="487.0" x2="88.0" y2="495.0" stroke="#888" stroke-width="1"/><text x="88.0" y="36.0" text-anchor="middle" font-family="Arial" font-size="9" fill="#666">1</text><text x="88.0" y="503.0" text-anchor="middle" font-family="Arial" font-size="9" fill="#666">1</text><line x1="109.0" y1="46.0" x2="109.0" y2="42.0" stroke="#888" stroke-width="1"/><line x1="109.0" y1="487.0" x2="109.0" y2="491.0" stroke="#888" stroke-width="1"/><line x1="130.0" y1="46.0" x2="130.0" y2="38.0" stroke="#888" stroke-width="1"/><line x1="130.0" y1="487.0" x2="130.0" y2="495.0" stroke="#888" stroke-width="1"/><text x="130.0" y="36.0" text-anchor="middle" font-family="Arial" font-size="9" fill="#666">2</text><text x="130.0" y="503.0" text-anchor="middle" font-family="Arial" font-size="9" fill="#666">2</text><line x1="151.0" y1="46.0" x2="151.0" y2="42.0" stroke="#888" stroke-width="1"/><line x1="151.0" y1="487.0" x2="151.0" y2="491.0" stroke="#888" stroke-width="1"/><line x1="172.0" y1="46.0" x2="172.0" y2="38.0" stroke="#888" stroke-width="1"/><line x1="172.0" y1="487.0" x2="172.0" y2="495.0" stroke="#888" stroke-width="1"/><text x="172.0" y="36.0" text-anchor="middle" font-family="Arial" font-size="9" fill="#666">3</text><text x="172.0" y="503.0" text-anchor="middle" font-family="Arial" font-size="9" fill="#666">3</text><line x1="193.0" y1="46.0" x2="193.0" y2="42.0" stroke="#888" stroke-width="1"/><line x1="193.0" y1="487.0" x2="193.0" y2="491.0" stroke="#888" stroke-width="1"/><line x1="214.0" y1="46.0" x2="214.0" y2="38.0" stroke="#888" stroke-width="1"/><line x1="214.0" y1="487.0" x2="214.0" y2="495.0" stroke="#888" stroke-width="1"/><text x="214.0" y="36.0" text-anchor="middle" font-family="Arial" font-size="9" fill="#666">4</text><text x="214.0" y="503.0" text-anchor="middle" font-family="Arial" font-size="9" fill="#666">4</text><line x1="235.0" y1="46.0" x2="235.0" y2="42.0" stroke="#888" stroke-width="1"/><line x1="235.0" y1="487.0" x2="235.0" y2="491.0" stroke="#888" stroke-width="1"/><line x1="256.0" y1="46.0" x2="256.0" y2="38.0" stroke="#888" stroke-width="1"/><line x1="256.0" y1="487.0" x2="256.0" y2="495.0" stroke="#888" stroke-width="1"/><text x="256.0" y="36.0" text-anchor="middle" font-family="Arial" font-size="9" fill="#666">5</text><text x="256.0" y="503.0" text-anchor="middle" font-family="Arial" font-size="9" fill="#666">5</text><line x1="277.0" y1="46.0" x2="277.0" y2="42.0" stroke="#888" stroke-width="1"/><line x1="277.0" y1="487.0" x2="277.0" y2="491.0" stroke="#888" stroke-width="1"/><line x1="298.0" y1="46.0" x2="298.0" y2="38.0" stroke="#888" stroke-width="1"/><line x1="298.0" y1="487.0" x2="298.0" y2="495.0" stroke="#888" stroke-width="1"/><text x="298.0" y="36.0" text-anchor="middle" font-family="Arial" font-size="9" fill="#666">6</text><text x="298.0" y="503.0" text-anchor="middle" font-family="Arial" font-size="9" fill="#666">6</text><line x1="319.0" y1="46.0" x2="319.0" y2="42.0" stroke="#888" stroke-width="1"/><line x1="319.0" y1="487.0" x2="319.0" y2="491.0" stroke="#888" stroke-width="1"/><line x1="340.0" y1="46.0" x2="340.0" y2="38.0" stroke="#888" stroke-width="1"/><line x1="340.0" y1="487.0" x2="340.0" y2="495.0" stroke="#888" stroke-width="1"/><text x="340.0" y="36.0" text-anchor="middle" font-family="Arial" font-size="9" fill="#666">7</text><text x="340.0" y="503.0" text-anchor="middle" font-family="Arial" font-size="9" fill="#666">7</text><line x1="361.0" y1="46.0" x2="361.0" y2="42.0" stroke="#888" stroke-width="1"/><line x1="361.0" y1="487.0" x2="361.0" y2="491.0" stroke="#888" stroke-width="1"/><line x1="382.0" y1="46.0" x2="382.0" y2="38.0" stroke="#888" stroke-width="1"/><line x1="382.0" y1="487.0" x2="382.0" y2="495.0" stroke="#888" stroke-width="1"/><text x="382.0" y="36.0" text-anchor="middle" font-family="Arial" font-size="9" fill="#666">8</text><text x="382.0" y="503.0" text-anchor="middle" font-family="Arial" font-size="9" fill="#666">8</text><line x1="403.0" y1="46.0" x2="403.0" y2="42.0" stroke="#888" stroke-width="1"/><line x1="403.0" y1="487.0" x2="403.0" y2="491.0" stroke="#888" stroke-width="1"/><line x1="424.0" y1="46.0" x2="424.0" y2="38.0" stroke="#888" stroke-width="1"/><line x1="424.0" y1="487.0" x2="424.0" y2="495.0" stroke="#888" stroke-width="1"/><text x="424.0" y="36.0" text-anchor="middle" font-family="Arial" font-size="9" fill="#666">9</text><text x="424.0" y="503.0" text-anchor="middle" font-family="Arial" font-size="9" fill="#666">9</text><line x1="445.0" y1="46.0" x2="445.0" y2="42.0" stroke="#888" stroke-width="1"/><line x1="445.0" y1="487.0" x2="445.0" y2="491.0" stroke="#888" stroke-width="1"/><line x1="466.0" y1="46.0" x2="466.0" y2="38.0" stroke="#888" stroke-width="1"/><line x1="466.0" y1="487.0" x2="466.0" y2="495.0" stroke="#888" stroke-width="1"/><text x="466.0" y="36.0" text-anchor="middle" font-family="Arial" font-size="9" fill="#666">10</text><text x="466.0" y="503.0" text-anchor="middle" font-family="Arial" font-size="9" fill="#666">10</text><line x1="487.0" y1="46.0" x2="487.0" y2="42.0" stroke="#888" stroke-width="1"/><line x1="487.0" y1="487.0" x2="487.0" y2="491.0" stroke="#888" stroke-width="1"/><line x1="46.0" y1="487.0" x2="38.0" y2="487.0" stroke="#888" stroke-width="1"/><line x1="487.0" y1="487.0" x2="495.0" y2="487.0" stroke="#888" stroke-width="1"/><text x="36.0" y="490.0" text-anchor="end" font-family="Arial" font-size="9" fill="#666">0</text><text x="497.0" y="490.0" text-anchor="start" font-family="Arial" font-size="9" fill="#666">0</text><line x1="46.0" y1="466.0" x2="42.0" y2="466.0" stroke="#888" stroke-width="1"/><line x1="487.0" y1="466.0" x2="491.0" y2="466.0" stroke="#888" stroke-width="1"/><line x1="46.0" y1="445.0" x2="38.0" y2="445.0" stroke="#888" stroke-width="1"/><line x1="487.0" y1="445.0" x2="495.0" y2="445.0" stroke="#888" stroke-width="1"/><text x="36.0" y="448.0" text-anchor="end" font-family="Arial" font-size="9" fill="#666">1</text><text x="497.0" y="448.0" text-anchor="start" font-family="Arial" font-size="9" fill="#666">1</text><line x1="46.0" y1="424.0" x2="42.0" y2="424.0" stroke="#888" stroke-width="1"/><line x1="487.0" y1="424.0" x2="491.0" y2="424.0" stroke="#888" stroke-width="1"/><line x1="46.0" y1="403.0" x2="38.0" y2="403.0" stroke="#888" stroke-width="1"/><line x1="487.0" y1="403.0" x2="495.0" y2="403.0" stroke="#888" stroke-width="1"/><text x="36.0" y="406.0" text-anchor="end" font-family="Arial" font-size="9" fill="#666">2</text><text x="497.0" y="406.0" text-anchor="start" font-family="Arial" font-size="9" fill="#666">2</text><line x1="46.0" y1="382.0" x2="42.0" y2="382.0" stroke="#888" stroke-width="1"/><line x1="487.0" y1="382.0" x2="491.0" y2="382.0" stroke="#888" stroke-width="1"/><line x1="46.0" y1="361.0" x2="38.0" y2="361.0" stroke="#888" stroke-width="1"/><line x1="487.0" y1="361.0" x2="495.0" y2="361.0" stroke="#888" stroke-width="1"/><text x="36.0" y="364.0" text-anchor="end" font-family="Arial" font-size="9" fill="#666">3</text><text x="497.0" y="364.0" text-anchor="start" font-family="Arial" font-size="9" fill="#666">3</text><line x1="46.0" y1="340.0" x2="42.0" y2="340.0" stroke="#888" stroke-width="1"/><line x1="487.0" y1="340.0" x2="491.0" y2="340.0" stroke="#888" stroke-width="1"/><line x1="46.0" y1="319.0" x2="38.0" y2="319.0" stroke="#888" stroke-width="1"/><line x1="487.0" y1="319.0" x2="495.0" y2="319.0" stroke="#888" stroke-width="1"/><text x="36.0" y="322.0" text-anchor="end" font-family="Arial" font-size="9" fill="#666">4</text><text x="497.0" y="322.0" text-anchor="start" font-family="Arial" font-size="9" fill="#666">4</text><line x1="46.0" y1="298.0" x2="42.0" y2="298.0" stroke="#888" stroke-width="1"/><line x1="487.0" y1="298.0" x2="491.0" y2="298.0" stroke="#888" stroke-width="1"/><line x1="46.0" y1="277.0" x2="38.0" y2="277.0" stroke="#888" stroke-width="1"/><line x1="487.0" y1="277.0" x2="495.0" y2="277.0" stroke="#888" stroke-width="1"/><text x="36.0" y="280.0" text-anchor="end" font-family="Arial" font-size="9" fill="#666">5</text><text x="497.0" y="280.0" text-anchor="start" font-family="Arial" font-size="9" fill="#666">5</text><line x1="46.0" y1="256.0" x2="42.0" y2="256.0" stroke="#888" stroke-width="1"/><line x1="487.0" y1="256.0" x2="491.0" y2="256.0" stroke="#888" stroke-width="1"/><line x1="46.0" y1="235.0" x2="38.0" y2="235.0" stroke="#888" stroke-width="1"/><line x1="487.0" y1="235.0" x2="495.0" y2="235.0" stroke="#888" stroke-width="1"/><text x="36.0" y="238.0" text-anchor="end" font-family="Arial" font-size="9" fill="#666">6</text><text x="497.0" y="238.0" text-anchor="start" font-family="Arial" font-size="9" fill="#666">6</text><line x1="46.0" y1="214.0" x2="42.0" y2="214.0" stroke="#888" stroke-width="1"/><line x1="487.0" y1="214.0" x2="491.0" y2="214.0" stroke="#888" stroke-width="1"/><line x1="46.0" y1="193.0" x2="38.0" y2="193.0" stroke="#888" stroke-width="1"/><line x1="487.0" y1="193.0" x2="495.0" y2="193.0" stroke="#888" stroke-width="1"/><text x="36.0" y="196.0" text-anchor="end" font-family="Arial" font-size="9" fill="#666">7</text><text x="497.0" y="196.0" text-anchor="start" font-family="Arial" font-size="9" fill="#666">7</text><line x1="46.0" y1="172.0" x2="42.0" y2="172.0" stroke="#888" stroke-width="1"/><line x1="487.0" y1="172.0" x2="491.0" y2="172.0" stroke="#888" stroke-width="1"/><line x1="46.0" y1="151.0" x2="38.0" y2="151.0" stroke="#888" stroke-width="1"/><line x1="487.0" y1="151.0" x2="495.0" y2="151.0" stroke="#888" stroke-width="1"/><text x="36.0" y="154.0" text-anchor="end" font-family="Arial" font-size="9" fill="#666">8</text><text x="497.0" y="154.0" text-anchor="start" font-family="Arial" font-size="9" fill="#666">8</text><line x1="46.0" y1="130.0" x2="42.0" y2="130.0" stroke="#888" stroke-width="1"/><line x1="487.0" y1="130.0" x2="491.0" y2="130.0" stroke="#888" stroke-width="1"/><line x1="46.0" y1="109.0" x2="38.0" y2="109.0" stroke="#888" stroke-width="1"/><line x1="487.0" y1="109.0" x2="495.0" y2="109.0" stroke="#888" stroke-width="1"/><text x="36.0" y="112.0" text-anchor="end" font-family="Arial" font-size="9" fill="#666">9</text><text x="497.0" y="112.0" text-anchor="start" font-family="Arial" font-size="9" fill="#666">9</text><line x1="46.0" y1="88.0" x2="42.0" y2="88.0" stroke="#888" stroke-width="1"/><line x1="487.0" y1="88.0" x2="491.0" y2="88.0" stroke="#888" stroke-width="1"/><line x1="46.0" y1="67.0" x2="38.0" y2="67.0" stroke="#888" stroke-width="1"/><line x1="487.0" y1="67.0" x2="495.0" y2="67.0" stroke="#888" stroke-width="1"/><text x="36.0" y="70.0" text-anchor="end" font-family="Arial" font-size="9" fill="#666">10</text><text x="497.0" y="70.0" text-anchor="start" font-family="Arial" font-size="9" fill="#666">10</text><line x1="46.0" y1="46.0" x2="42.0" y2="46.0" stroke="#888" stroke-width="1"/><line x1="487.0" y1="46.0" x2="491.0" y2="46.0" stroke="#888" stroke-width="1"/><rect x="130.0" y="130.0" width="273.0" height="273.0" fill="none" stroke="#9aa" stroke-width="1" stroke-dasharray="3 3"/><rect x="235.0" y="277.0" width="168.0" height="126.0" fill="#d9ead3" stroke="#333" stroke-width="1.5"/><text x="319.0" y="337.4" text-anchor="middle" font-family="Arial" font-size="12" font-weight="bold" fill="#222">MASTER BR</text><text x="319.0" y="353.2" text-anchor="middle" font-family="Arial" font-size="10" fill="#555">4.0×3.0 m · 12.0 sqm</text><rect x="130.0" y="277.0" width="105.0" height="126.0" fill="#d9ead3" stroke="#333" stroke-width="1.5"/><text x="182.5" y="331.6" text-anchor="middle" font-family="Arial" font-size="12" font-weight="bold" fill="#222">BEDROOM</text><text x="182.5" y="347.4" text-anchor="middle" font-family="Arial" font-size="10" fill="#555">2.5×3.0 m</text><text x="182.5" y="358.9" text-anchor="middle" font-family="Arial" font-size="10" fill="#555">7.5 sqm</text><rect x="277.0" y="130.0" width="126.0" height="147.0" fill="#d9ead3" stroke="#333" stroke-width="1.5"/><text x="340.0" y="195.1" text-anchor="middle" font-family="Arial" font-size="12" font-weight="bold" fill="#222">BEDROOM</text><text x="340.0" y="210.9" text-anchor="middle" font-family="Arial" font-size="10" fill="#555">3.0×3.5 m</text><text x="340.0" y="222.4" text-anchor="middle" font-family="Arial" font-size="10" fill="#555">10.5 sqm</text><rect x="176.2" y="130.0" width="100.8" height="42.0" fill="#ead1dc" stroke="#333" stroke-width="1.5"/><text x="226.6" y="142.6" text-anchor="middle" font-family="Arial" font-size="12" font-weight="bold" fill="#222">T&amp;B</text><text x="226.6" y="158.4" text-anchor="middle" font-family="Arial" font-size="10" fill="#555">2.4×1.0 m</text><text x="226.6" y="169.9" text-anchor="middle" font-family="Arial" font-size="10" fill="#555">2.4 sqm</text><rect x="176.2" y="172.0" width="100.8" height="105.0" fill="#efefef" stroke="#333" stroke-width="1.5"/><text x="226.6" y="216.1" text-anchor="middle" font-family="Arial" font-size="12" font-weight="bold" fill="#222">HALL</text><text x="226.6" y="231.9" text-anchor="middle" font-family="Arial" font-size="10" fill="#555">2.4×2.5 m</text><text x="226.6" y="243.4" text-anchor="middle" font-family="Arial" font-size="10" fill="#555">6.0 sqm</text><rect x="130.0" y="130.0" width="46.2" height="147.0" fill="#efefef" stroke="#333" stroke-width="1.5"/><line x1="130.0" y1="264.8" x2="176.2" y2="264.8" stroke="#9a9a9a" stroke-width="0.6"/><line x1="130.0" y1="252.5" x2="176.2" y2="252.5" stroke="#9a9a9a" stroke-width="0.6"/><line x1="130.0" y1="240.2" x2="176.2" y2="240.2" stroke="#9a9a9a" stroke-width="0.6"/><line x1="130.0" y1="228.0" x2="176.2" y2="228.0" stroke="#9a9a9a" stroke-width="0.6"/><line x1="130.0" y1="215.8" x2="176.2" y2="215.8" stroke="#9a9a9a" stroke-width="0.6"/><line x1="130.0" y1="203.5" x2="176.2" y2="203.5" stroke="#9a9a9a" stroke-width="0.6"/><line x1="130.0" y1="191.3" x2="176.2" y2="191.3" stroke="#9a9a9a" stroke-width="0.6"/><line x1="130.0" y1="179.0" x2="176.2" y2="179.0" stroke="#9a9a9a" stroke-width="0.6"/><line x1="130.0" y1="166.8" x2="176.2" y2="166.8" stroke="#9a9a9a" stroke-width="0.6"/><line x1="130.0" y1="154.5" x2="176.2" y2="154.5" stroke="#9a9a9a" stroke-width="0.6"/><line x1="130.0" y1="142.2" x2="176.2" y2="142.2" stroke="#9a9a9a" stroke-width="0.6"/><line x1="153.1" y1="148.9" x2="153.1" y2="258.1" stroke="#333" stroke-width="2" stroke-linecap="round"/><line x1="153.1" y1="258.1" x2="149.4" y2="252.2" stroke="#333" stroke-width="2" stroke-linecap="round"/><line x1="153.1" y1="258.1" x2="156.8" y2="252.2" stroke="#333" stroke-width="2" stroke-linecap="round"/><text x="153.1" y="139.9" text-anchor="middle" dominant-baseline="middle" font-family="Arial" font-size="9" font-weight="bold" fill="#333" stroke="white" stroke-width="2.5" paint-order="stroke">DN</text><text x="266.5" y="521.0" text-anchor="middle" font-family="Arial" font-size="12" font-weight="bold" fill="#888">FRONT (street)</text><rect x="232.90" y="277.00" width="4.20" height="126.00" fill="#555" stroke="none"/><rect x="277.00" y="274.90" width="126.00" height="4.20" fill="#555" stroke="none"/><rect x="235.00" y="274.90" width="42.00" height="4.20" fill="#555" stroke="none"/><rect x="176.20" y="274.90" width="58.80" height="4.20" fill="#555" stroke="none"/><rect x="130.00" y="274.90" width="46.20" height="4.20" fill="#555" stroke="none"/><rect x="274.90" y="130.00" width="4.20" height="42.00" fill="#555" stroke="none"/><rect x="274.90" y="172.00" width="4.20" height="105.00" fill="#555" stroke="none"/><rect x="176.20" y="169.90" width="100.80" height="4.20" fill="#555" stroke="none"/><rect x="174.10" y="130.00" width="4.20" height="42.00" fill="#555" stroke="none"/><rect x="235.00" y="398.80" width="168.00" height="8.40" fill="#555" stroke="none"/><rect x="398.80" y="277.00" width="8.40" height="126.00" fill="#555" stroke="none"/><rect x="130.00" y="398.80" width="105.00" height="8.40" fill="#555" stroke="none"/><rect x="125.80" y="277.00" width="8.40" height="126.00" fill="#555" stroke="none"/><rect x="277.00" y="125.80" width="126.00" height="8.40" fill="#555" stroke="none"/><rect x="398.80" y="130.00" width="8.40" height="147.00" fill="#555" stroke="none"/><rect x="176.20" y="125.80" width="100.80" height="8.40" fill="#555" stroke="none"/><rect x="130.00" y="125.80" width="46.20" height="8.40" fill="#555" stroke="none"/><rect x="125.80" y="130.00" width="8.40" height="147.00" fill="#555" stroke="none"/><rect x="230.80" y="398.80" width="8.40" height="8.40" fill="#555" stroke="none"/><rect x="232.90" y="274.90" width="4.20" height="4.20" fill="#555" stroke="none"/><rect x="274.90" y="274.90" width="4.20" height="4.20" fill="#555" stroke="none"/><rect x="398.80" y="272.80" width="8.40" height="8.40" fill="#555" stroke="none"/><rect x="232.90" y="274.90" width="4.20" height="4.20" fill="#555" stroke="none"/><rect x="274.90" y="274.90" width="4.20" height="4.20" fill="#555" stroke="none"/><rect x="232.90" y="274.90" width="4.20" height="4.20" fill="#555" stroke="none"/><rect x="125.80" y="272.80" width="8.40" height="8.40" fill="#555" stroke="none"/><rect x="274.90" y="169.90" width="4.20" height="4.20" fill="#555" stroke="none"/><rect x="272.80" y="125.80" width="8.40" height="8.40" fill="#555" stroke="none"/><rect x="274.90" y="274.90" width="4.20" height="4.20" fill="#555" stroke="none"/><rect x="274.90" y="169.90" width="4.20" height="4.20" fill="#555" stroke="none"/><rect x="274.90" y="169.90" width="4.20" height="4.20" fill="#555" stroke="none"/><rect x="172.00" y="125.80" width="8.40" height="8.40" fill="#555" stroke="none"/><rect x="230.80" y="398.80" width="8.40" height="8.40" fill="#555" stroke="none"/><rect x="398.80" y="398.80" width="8.40" height="8.40" fill="#555" stroke="none"/><rect x="398.80" y="398.80" width="8.40" height="8.40" fill="#555" stroke="none"/><rect x="398.80" y="272.80" width="8.40" height="8.40" fill="#555" stroke="none"/><rect x="125.80" y="398.80" width="8.40" height="8.40" fill="#555" stroke="none"/><rect x="230.80" y="398.80" width="8.40" height="8.40" fill="#555" stroke="none"/><rect x="125.80" y="398.80" width="8.40" height="8.40" fill="#555" stroke="none"/><rect x="125.80" y="272.80" width="8.40" height="8.40" fill="#555" stroke="none"/><rect x="272.80" y="125.80" width="8.40" height="8.40" fill="#555" stroke="none"/><rect x="398.80" y="125.80" width="8.40" height="8.40" fill="#555" stroke="none"/><rect x="398.80" y="272.80" width="8.40" height="8.40" fill="#555" stroke="none"/><rect x="398.80" y="125.80" width="8.40" height="8.40" fill="#555" stroke="none"/><rect x="172.00" y="125.80" width="8.40" height="8.40" fill="#555" stroke="none"/><rect x="272.80" y="125.80" width="8.40" height="8.40" fill="#555" stroke="none"/><rect x="125.80" y="125.80" width="8.40" height="8.40" fill="#555" stroke="none"/><rect x="172.00" y="125.80" width="8.40" height="8.40" fill="#555" stroke="none"/><rect x="125.80" y="272.80" width="8.40" height="8.40" fill="#555" stroke="none"/><rect x="125.80" y="125.80" width="8.40" height="8.40" fill="#555" stroke="none"/><rect x="171.2" y="174.1" width="5.0" height="100.8" fill="#efefef" stroke="none"/><rect x="176.2" y="174.1" width="5.0" height="100.8" fill="#efefef" stroke="none"/><rect x="235.0" y="272.0" width="33.6" height="5.0" fill="#efefef" stroke="none"/><rect x="235.0" y="277.0" width="33.6" height="5.0" fill="#d9ead3" stroke="none"/><line x1="235.0" y1="277.0" x2="235.0" y2="310.6" stroke="#444" stroke-width="1.4"/><path d="M 235.0 310.6 A 33.6 33.6 0 0 0 268.6 277.0" fill="none" stroke="#999" stroke-width="0.7" stroke-dasharray="2 2"/><rect x="195.1" y="272.0" width="33.6" height="5.0" fill="#efefef" stroke="none"/><rect x="195.1" y="277.0" width="33.6" height="5.0" fill="#d9ead3" stroke="none"/><line x1="228.7" y1="277.0" x2="228.7" y2="310.6" stroke="#444" stroke-width="1.4"/><path d="M 228.7 310.6 A 33.6 33.6 0 0 1 195.1 277.0" fill="none" stroke="#999" stroke-width="0.7" stroke-dasharray="2 2"/><rect x="272.0" y="237.1" width="5.0" height="33.6" fill="#efefef" stroke="none"/><rect x="277.0" y="237.1" width="5.0" height="33.6" fill="#d9ead3" stroke="none"/><line x1="277.0" y1="270.7" x2="310.6" y2="270.7" stroke="#444" stroke-width="1.4"/><path d="M 310.6 270.7 A 33.6 33.6 0 0 0 277.0 237.1" fill="none" stroke="#999" stroke-width="0.7" stroke-dasharray="2 2"/><rect x="182.5" y="172.0" width="29.4" height="5.0" fill="#efefef" stroke="none"/><rect x="182.5" y="167.0" width="29.4" height="5.0" fill="#ead1dc" stroke="none"/><line x1="182.5" y1="172.0" x2="182.5" y2="142.6" stroke="#444" stroke-width="1.4"/><path d="M 182.5 142.6 A 29.4 29.4 0 0 1 211.9 172.0" fill="none" stroke="#999" stroke-width="0.7" stroke-dasharray="2 2"/><rect x="272.8" y="398.0" width="92.4" height="5.0" fill="#d9ead3" stroke="none"/><rect x="272.8" y="403.0" width="92.4" height="5.0" fill="#fbfbf7" stroke="none"/><line x1="272.8" y1="400.0" x2="365.2" y2="400.0" stroke="#222" stroke-width="1.0"/><line x1="272.8" y1="403.0" x2="365.2" y2="403.0" stroke="#222" stroke-width="1.0"/><line x1="272.8" y1="406.0" x2="365.2" y2="406.0" stroke="#222" stroke-width="1.0"/><rect x="398.0" y="305.4" width="5.0" height="69.3" fill="#d9ead3" stroke="none"/><rect x="403.0" y="305.4" width="5.0" height="69.3" fill="#fbfbf7" stroke="none"/><line x1="400.0" y1="374.7" x2="400.0" y2="305.4" stroke="#222" stroke-width="1.0"/><line x1="403.0" y1="374.7" x2="403.0" y2="305.4" stroke="#222" stroke-width="1.0"/><line x1="406.0" y1="374.7" x2="406.0" y2="305.4" stroke="#222" stroke-width="1.0"/><rect x="130.0" y="305.4" width="5.0" height="69.3" fill="#d9ead3" stroke="none"/><rect x="125.0" y="305.4" width="5.0" height="69.3" fill="#fbfbf7" stroke="none"/><line x1="127.0" y1="374.7" x2="127.0" y2="305.4" stroke="#222" stroke-width="1.0"/><line x1="130.0" y1="374.7" x2="130.0" y2="305.4" stroke="#222" stroke-width="1.0"/><line x1="133.0" y1="374.7" x2="133.0" y2="305.4" stroke="#222" stroke-width="1.0"/><rect x="153.6" y="398.0" width="57.8" height="5.0" fill="#d9ead3" stroke="none"/><rect x="153.6" y="403.0" width="57.8" height="5.0" fill="#fbfbf7" stroke="none"/><line x1="153.6" y1="400.0" x2="211.4" y2="400.0" stroke="#222" stroke-width="1.0"/><line x1="153.6" y1="403.0" x2="211.4" y2="403.0" stroke="#222" stroke-width="1.0"/><line x1="153.6" y1="406.0" x2="211.4" y2="406.0" stroke="#222" stroke-width="1.0"/><rect x="398.0" y="163.1" width="5.0" height="80.8" fill="#d9ead3" stroke="none"/><rect x="403.0" y="163.1" width="5.0" height="80.8" fill="#fbfbf7" stroke="none"/><line x1="400.0" y1="243.9" x2="400.0" y2="163.1" stroke="#222" stroke-width="1.0"/><line x1="403.0" y1="243.9" x2="403.0" y2="163.1" stroke="#222" stroke-width="1.0"/><line x1="406.0" y1="243.9" x2="406.0" y2="163.1" stroke="#222" stroke-width="1.0"/><rect x="305.3" y="130.0" width="69.3" height="5.0" fill="#d9ead3" stroke="none"/><rect x="305.3" y="125.0" width="69.3" height="5.0" fill="#fbfbf7" stroke="none"/><line x1="305.3" y1="127.0" x2="374.6" y2="127.0" stroke="#222" stroke-width="1.0"/><line x1="305.3" y1="130.0" x2="374.6" y2="130.0" stroke="#222" stroke-width="1.0"/><line x1="305.3" y1="133.0" x2="374.6" y2="133.0" stroke="#222" stroke-width="1.0"/><rect x="207.7" y="130.0" width="37.8" height="5.0" fill="#ead1dc" stroke="none"/><rect x="207.7" y="125.0" width="37.8" height="5.0" fill="#fbfbf7" stroke="none"/><line x1="207.7" y1="127.0" x2="245.5" y2="127.0" stroke="#222" stroke-width="1.0"/><line x1="207.7" y1="130.0" x2="245.5" y2="130.0" stroke="#222" stroke-width="1.0"/><line x1="207.7" y1="133.0" x2="245.5" y2="133.0" stroke="#222" stroke-width="1.0"/></svg></svg>