<svg xmlns="http://www.w3.org/2000/svg" width="554" height="428" viewBox="0 0 554 428"><rect x="0" y="0" width="554" height="428" fill="white"/><rect x="46.0" y="46.0" width="462.0" height="336.0" fill="#fbfbf7" stroke="#333" stroke-width="1.5"/><line x1="46.0" y1="46.0" x2="46.0" y2="38.0" stroke="#888" stroke-width="1"/><line x1="46.0" y1="382.0" x2="46.0" y2="390.0" stroke="#888" stroke-width="1"/><text x="46.0" y="36.0" text-anchor="middle" font-family="Arial" font-size="9" fill="#666">0</text><text x="46.0" y="398.0" text-anchor="middle" font-family="Arial" font-size="9" fill="#666">0</text><line x1="67.0" y1="46.0" x2="67.0" y2="42.0" stroke="#888" stroke-width="1"/><line x1="67.0" y1="382.0" x2="67.0" y2="386.0" stroke="#888" stroke-width="1"/><line x1="88.0" y1="46.0" x2="88.0" y2="38.0" stroke="#888" stroke-width="1"/><line x1="88.0" y1="382.0" x2="88.0" y2="390.0" stroke="#888" stroke-width="1"/><text x="88.0" y="36.0" text-anchor="middle" font-family="Arial" font-size="9" fill="#666">1</text><text x="88.0" y="398.0" text-anchor="middle" font-family="Arial" font-size="9" fill="#666">1</text><line x1="109.0" y1="46.0" x2="109.0" y2="42.0" stroke="#888" stroke-width="1"/><line x1="109.0" y1="382.0" x2="109.0" y2="386.0" stroke="#888" stroke-width="1"/><line x1="130.0" y1="46.0" x2="130.0" y2="38.0" stroke="#888" stroke-width="1"/><line x1="130.0" y1="382.0" x2="130.0" y2="390.0" stroke="#888" stroke-width="1"/><text x="130.0" y="36.0" text-anchor="middle" font-family="Arial" font-size="9" fill="#666">2</text><text x="130.0" y="398.0" text-anchor="middle" font-family="Arial" font-size="9" fill="#666">2</text><line x1="151.0" y1="46.0" x2="151.0" y2="42.0" stroke="#888" stroke-width="1"/><line x1="151.0" y1="382.0" x2="151.0" y2="386.0" stroke="#888" stroke-width="1"/><line x1="172.0" y1="46.0" x2="172.0" y2="38.0" stroke="#888" stroke-width="1"/><line x1="172.0" y1="382.0" x2="172.0" y2="390.0" stroke="#888" stroke-width="1"/><text x="172.0" y="36.0" text-anchor="middle" font-family="Arial" font-size="9" fill="#666">3</text><text x="172.0" y="398.0" text-anchor="middle" font-family="Arial" font-size="9" fill="#666">3</text><line x1="193.0" y1="46.0" x2="193.0" y2="42.0" stroke="#888" stroke-width="1"/><line x1="193.0" y1="382.0" x2="193.0" y2="386.0" stroke="#888" stroke-width="1"/><line x1="214.0" y1="46.0" x2="214.0" y2="38.0" stroke="#888" stroke-width="1"/><line x1="214.0" y1="382.0" x2="214.0" y2="390.0" stroke="#888" stroke-width="1"/><text x="214.0" y="36.0" text-anchor="middle" font-family="Arial" font-size="9" fill="#666">4</text><text x="214.0" y="398.0" text-anchor="middle" font-family="Arial" font-size="9" fill="#666">4</text><line x1="235.0" y1="46.0" x2="235.0" y2="42.0" stroke="#888" stroke-width="1"/><line x1="235.0" y1="382.0" x2="235.0" y2="386.0" stroke="#888" stroke-width="1"/><line x1="256.0" y1="46.0" x2="256.0" y2="38.0" stroke="#888" stroke-width="1"/><line x1="256.0" y1="382.0" x2="256.0" y2="390.0" stroke="#888" stroke-width="1"/><text x="256.0" y="36.0" text-anchor="middle" font-family="Arial" font-size="9" fill="#666">5</text><text x="256.0" y="398.0" text-anchor="middle" font-family="Arial" font-size="9" fill="#666">5</text><line x1="277.0" y1="46.0" x2="277.0" y2="42.0" stroke="#888" stroke-width="1"/><line x1="277.0" y1="382.0" x2="277.0" y2="386.0" stroke="#888" stroke-width="1"/><line x1="298.0" y1="46.0" x2="298.0" y2="38.0" stroke="#888" stroke-width="1"/><line x1="298.0" y1="382.0" x2="298.0" y2="390.0" stroke="#888" stroke-width="1"/><text x="298.0" y="36.0" text-anchor="middle" font-family="Arial" font-size="9" fill="#666">6</text><text x="298.0" y="398.0" text-anchor="middle" font-family="Arial" font-size="9" fill="#666">6</text><line x1="319.0" y1="46.0" x2="319.0" y2="42.0" stroke="#888" stroke-width="1"/><line x1="319.0" y1="382.0" x2="319.0" y2="386.0" stroke="#888" stroke-width="1"/><line x1="340.0" y1="46.0" x2="340.0" y2="38.0" stroke="#888" stroke-width="1"/><line x1="340.0" y1="382.0" x2="340.0" y2="390.0" stroke="#888" stroke-width="1"/><text x="340.0" y="36.0" text-anchor="middle" font-family="Arial" font-size="9" fill="#666">7</text><text x="340.0" y="398.0" text-anchor="middle" font-family="Arial" font-size="9" fill="#666">7</text><line x1="361.0" y1="46.0" x2="361.0" y2="42.0" stroke="#888" stroke-width="1"/><line x1="361.0" y1="382.0" x2="361.0" y2="386.0" stroke="#888" stroke-width="1"/><line x1="382.0" y1="46.0" x2="382.0" y2="38.0" stroke="#888" stroke-width="1"/><line x1="382.0" y1="382.0" x2="382.0" y2="390.0" stroke="#888" stroke-width="1"/><text x="382.0" y="36.0" text-anchor="middle" font-family="Arial" font-size="9" fill="#666">8</text><text x="382.0" y="398.0" text-anchor="middle" font-family="Arial" font-size="9" fill="#666">8</text><line x1="403.0" y1="46.0" x2="403.0" y2="42.0" stroke="#888" stroke-width="1"/><line x1="403.0" y1="382.0" x2="403.0" y2="386.0" stroke="#888" stroke-width="1"/><line x1="424.0" y1="46.0" x2="424.0" y2="38.0" stroke="#888" stroke-width="1"/><line x1="424.0" y1="382.0" x2="424.0" y2="390.0" stroke="#888" stroke-width="1"/><text x="424.0" y="36.0" text-anchor="middle" font-family="Arial" font-size="9" fill="#666">9</text><text x="424.0" y="398.0" text-anchor="middle" font-family="Arial" font-size="9" fill="#666">9</text><line x1="445.0" y1="46.0" x2="445.0" y2="42.0" stroke="#888" stroke-width="1"/><line x1="445.0" y1="382.0" x2="445.0" y2="386.0" stroke="#888" stroke-width="1"/><line x1="466.0" y1="46.0" x2="466.0" y2="38.0" stroke="#888" stroke-width="1"/><line x1="466.0" y1="382.0" x2="466.0" y2="390.0" stroke="#888" stroke-width="1"/><text x="466.0" y="36.0" text-anchor="middle" font-family="Arial" font-size="9" fill="#666">10</text><text x="466.0" y="398.0" text-anchor="middle" font-family="Arial" font-size="9" fill="#666">10</text><line x1="487.0" y1="46.0" x2="487.0" y2="42.0" stroke="#888" stroke-width="1"/><line x1="487.0" y1="382.0" x2="487.0" y2="386.0" stroke="#888" stroke-width="1"/><line x1="508.0" y1="46.0" x2="508.0" y2="38.0" stroke="#888" stroke-width="1"/><line x1="508.0" y1="382.0" x2="508.0" y2="390.0" stroke="#888" stroke-width="1"/><text x="508.0" y="36.0" text-anchor="middle" font-family="Arial" font-size="9" fill="#666">11</text><text x="508.0" y="398.0" text-anchor="middle" font-family="Arial" font-size="9" fill="#666">11</text><line x1="46.0" y1="382.0" x2="38.0" y2="382.0" stroke="#888" stroke-width="1"/><line x1="508.0" y1="382.0" x2="516.0" y2="382.0" stroke="#888" stroke-width="1"/><text x="36.0" y="385.0" text-anchor="end" font-family="Arial" font-size="9" fill="#666">0</text><text x="518.0" y="385.0" text-anchor="start" font-family="Arial" font-size="9" fill="#666">0</text><line x1="46.0" y1="361.0" x2="42.0" y2="361.0" stroke="#888" stroke-width="1"/><line x1="508.0" y1="361.0" x2="512.0" y2="361.0" stroke="#888" stroke-width="1"/><line x1="46.0" y1="340.0" x2="38.0" y2="340.0" stroke="#888" stroke-width="1"/><line x1="508.0" y1="340.0" x2="516.0" y2="340.0" stroke="#888" stroke-width="1"/><text x="36.0" y="343.0" text-anchor="end" font-family="Arial" font-size="9" fill="#666">1</text><text x="518.0" y="343.0" text-anchor="start" font-family="Arial" font-size="9" fill="#666">1</text><line x1="46.0" y1="319.0" x2="42.0" y2="319.0" stroke="#888" stroke-width="1"/><line x1="508.0" y1="319.0" x2="512.0" y2="319.0" stroke="#888" stroke-width="1"/><line x1="46.0" y1="298.0" x2="38.0" y2="298.0" stroke="#888" stroke-width="1"/><line x1="508.0" y1="298.0" x2="516.0" y2="298.0" stroke="#888" stroke-width="1"/><text x="36.0" y="301.0" text-anchor="end" font-family="Arial" font-size="9" fill="#666">2</text><text x="518.0" y="301.0" text-anchor="start" font-family="Arial" font-size="9" fill="#666">2</text><line x1="46.0" y1="277.0" x2="42.0" y2="277.0" stroke="#888" stroke-width="1"/><line x1="508.0" y1="277.0" x2="512.0" y2="277.0" stroke="#888" stroke-width="1"/><line x1="46.0" y1="256.0" x2="38.0" y2="256.0" stroke="#888" stroke-width="1"/><line x1="508.0" y1="256.0" x2="516.0" y2="256.0" stroke="#888" stroke-width="1"/><text x="36.0" y="259.0" text-anchor="end" font-family="Arial" font-size="9" fill="#666">3</text><text x="518.0" y="259.0" text-anchor="start" font-family="Arial" font-size="9" fill="#666">3</text><line x1="46.0" y1="235.0" x2="42.0" y2="235.0" stroke="#888" stroke-width="1"/><line x1="508.0" y1="235.0" x2="512.0" y2="235.0" stroke="#888" stroke-width="1"/><line x1="46.0" y1="214.0" x2="38.0" y2="214.0" stroke="#888" stroke-width="1"/><line x1="508.0" y1="214.0" x2="516.0" y2="214.0" stroke="#888" stroke-width="1"/><text x="36.0" y="217.0" text-anchor="end" font-family="Arial" font-size="9" fill="#666">4</text><text x="518.0" y="217.0" text-anchor="start" font-family="Arial" font-size="9" fill="#666">4</text><line x1="46.0" y1="193.0" x2="42.0" y2="193.0" stroke="#888" stroke-width="1"/><line x1="508.0" y1="193.0" x2="512.0" y2="193.0" stroke="#888" stroke-width="1"/><line x1="46.0" y1="172.0" x2="38.0" y2="172.0" stroke="#888" stroke-width="1"/><line x1="508.0" y1="172.0" x2="516.0" y2="172.0" stroke="#888" stroke-width="1"/><text x="36.0" y="175.0" text-anchor="end" font-family="Arial" font-size="9" fill="#666">5</text><text x="518.0" y="175.0" text-anchor="start" font-family="Arial" font-size="9" fill="#666">5</text><line x1="46.0" y1="151.0" x2="42.0" y2="151.0" stroke="#888" stroke-width="1"/><line x1="508.0" y1="151.0" x2="512.0" y2="151.0" stroke="#888" stroke-width="1"/><line x1="46.0" y1="130.0" x2="38.0" y2="130.0" stroke="#888" stroke-width="1"/><line x1="508.0" y1="130.0" x2="516.0" y2="130.0" stroke="#888" stroke-width="1"/><text x="36.0" y="133.0" text-anchor="end" font-family="Arial" font-size="9" fill="#666">6</text><text x="518.0" y="133.0" text-anchor="start" font-family="Arial" font-size="9" fill="#666">6</text><line x1="46.0" y1="109.0" x2="42.0" y2="109.0" stroke="#888" stroke-width="1"/><line x1="508.0" y1="109.0" x2="512.0" y2="109.0" stroke="#888" stroke-width="1"/><line x1="46.0" y1="88.0" x2="38.0" y2="88.0" stroke="#888" stroke-width="1"/><line x1="508.0" y1="88.0" x2="516.0" y2="88.0" stroke="#888" stroke-width="1"/><text x="36.0" y="91.0" text-anchor="end" font-family="Arial" font-size="9" fill="#666">7</text><text x="518.0" y="91.0" text-anchor="start" font-family="Arial" font-size="9" fill="#666">7</text><line x1="46.0" y1="67.0" x2="42.0" y2="67.0" stroke="#888" stroke-width="1"/><line x1="508.0" y1="67.0" x2="512.0" y2="67.0" stroke="#888" stroke-width="1"/><line x1="46.0" y1="46.0" x2="38.0" y2="46.0" stroke="#888" stroke-width="1"/><line x1="508.0" y1="46.0" x2="516.0" y2="46.0" stroke="#888" stroke-width="1"/><text x="36.0" y="49.0" text-anchor="end" font-family="Arial" font-size="9" fill="#666">8</text><text x="518.0" y="49.0" text-anchor="start" font-family="Arial" font-size="9" fill="#666">8</text><rect x="130.0" y="130.0" width="294.0" height="168.0" fill="none" stroke="#9aa" stroke-width="1" stroke-dasharray="3 3"/><rect x="194.3" y="299.3" width="123.5" height="60.5" fill="#f2f2f2" stroke="#333" stroke-width="1.5" stroke-dasharray="6 4"/><text x="256.0" y="326.9" text-anchor="middle" font-family="Arial" font-size="12" font-weight="bold" fill="#222">PORCH</text><text x="256.0" y="342.7" text-anchor="middle" font-family="Arial" font-size="10" fill="#555">3.0×1.5 m</text><rect x="319.0" y="130.0" width="105.0" height="168.0" fill="#d9ead3" stroke="#333" stroke-width="1.5"/><text x="371.5" y="205.6" text-anchor="middle" font-family="Arial" font-size="12" font-weight="bold" fill="#222">BEDROOM</text><text x="371.5" y="221.4" text-anchor="middle" font-family="Arial" font-size="10" fill="#555">2.5×4.0 m</text><text x="371.5" y="232.9" text-anchor="middle" font-family="Arial" font-size="10" fill="#555">10.0 sqm</text><rect x="130.0" y="214.0" width="63.0" height="84.0" fill="#ead1dc" stroke="#333" stroke-width="1.5"/><text x="161.5" y="247.6" text-anchor="middle" font-family="Arial" font-size="12" font-weight="bold" fill="#222">T&amp;B</text><text x="161.5" y="263.4" text-anchor="middle" font-family="Arial" font-size="10" fill="#555">1.5×2.0 m</text><text x="161.5" y="274.9" text-anchor="middle" font-family="Arial" font-size="10" fill="#555">3.0 sqm</text><rect x="193.0" y="214.0" width="126.0" height="84.0" fill="#cfe2f3" stroke="#333" stroke-width="1.5"/><text x="256.0" y="253.3" text-anchor="middle" font-family="Arial" font-size="12" font-weight="bold" fill="#222">LIVING</text><text x="256.0" y="269.1" text-anchor="middle" font-family="Arial" font-size="10" fill="#555">3.0×2.0 m · 6.0 sqm</text><rect x="193.0" y="130.0" width="126.0" height="84.0" fill="#cfe2f3" stroke="#333" stroke-width="1.5"/><text x="256.0" y="169.3" text-anchor="middle" font-family="Arial" font-size="12" font-weight="bold" fill="#222">DINING</text><text x="256.0" y="185.2" text-anchor="middle" font-family="Arial" font-size="10" fill="#555">3.0×2.0 m · 6.0 sqm</text><rect x="130.0" y="130.0" width="63.0" height="84.0" fill="#cfe2f3" stroke="#333" stroke-width="1.5"/><text x="161.5" y="163.6" text-anchor="middle" font-family="Arial" font-size="12" font-weight="bold" fill="#222">KITCHEN</text><text x="161.5" y="179.4" text-anchor="middle" font-family="Arial" font-size="10" fill="#555">1.5×2.0 m</text><text x="161.5" y="190.9" text-anchor="middle" font-family="Arial" font-size="10" fill="#555">3.0 sqm</text><text x="277.0" y="416.0" text-anchor="middle" font-family="Arial" font-size="12" font-weight="bold" fill="#888">FRONT (street)</text><rect x="316.90" y="214.00" width="4.20" height="84.00" fill="#555" stroke="none"/><rect x="316.90" y="130.00" width="4.20" height="84.00" fill="#555" stroke="none"/><rect x="190.90" y="214.00" width="4.20" height="84.00" fill="#555" stroke="none"/><rect x="130.00" y="211.90" width="63.00" height="4.20" fill="#555" stroke="none"/><rect x="319.00" y="125.80" width="105.00" height="8.40" fill="#555" stroke="none"/><rect x="319.00" y="293.80" width="105.00" height="8.40" fill="#555" stroke="none"/><rect x="419.80" y="130.00" width="8.40" height="168.00" fill="#555" stroke="none"/><rect x="130.00" y="293.80" width="63.00" height="8.40" fill="#555" stroke="none"/><rect x="125.80" y="214.00" width="8.40" height="84.00" fill="#555" stroke="none"/><rect x="193.00" y="293.80" width="126.00" height="8.40" fill="#555" stroke="none"/><rect x="193.00" y="125.80" width="126.00" height="8.40" fill="#555" stroke="none"/><rect x="130.00" y="125.80" width="63.00" height="8.40" fill="#555" stroke="none"/><rect x="125.80" y="130.00" width="8.40" height="84.00" fill="#555" stroke="none"/><rect x="314.80" y="293.80" width="8.40" height="8.40" fill="#555" stroke="none"/><rect x="314.80" y="125.80" width="8.40" height="8.40" fill="#555" stroke="none"/><rect x="188.80" y="293.80" width="8.40" height="8.40" fill="#555" stroke="none"/><rect x="125.80" y="209.80" width="8.40" height="8.40" fill="#555" stroke="none"/><rect x="314.80" y="125.80" width="8.40" height="8.40" fill="#555" stroke="none"/><rect x="419.80" y="125.80" width="8.40" height="8.40" fill="#555" stroke="none"/><rect x="314.80" y="293.80" width="8.40" height="8.40" fill="#555" stroke="none"/><rect x="419.80" y="293.80" width="8.40" height="8.40" fill="#555" stroke="none"/><rect x="419.80" y="293.80" width="8.40" height="8.40" fill="#555" stroke="none"/><rect x="419.80" y="125.80" width="8.40" height="8.40" fill="#555" stroke="none"/><rect x="125.80" y="293.80" width="8.40" height="8.40" fill="#555" stroke="none"/><rect x="188.80" y="293.80" width="8.40" height="8.40" fill="#555" stroke="none"/><rect x="125.80" y="293.80" width="8.40" height="8.40" fill="#555" stroke="none"/><rect x="125.80" y="209.80" width="8.40" height="8.40" fill="#555" stroke="none"/><rect x="188.80" y="293.80" width="8.40" height="8.40" fill="#555" stroke="none"/><rect x="314.80" y="293.80" width="8.40" height="8.40" fill="#555" stroke="none"/><rect x="314.80" y="125.80" width="8.40" height="8.40" fill="#555" stroke="none"/><rect x="125.80" y="125.80" width="8.40" height="8.40" fill="#555" stroke="none"/><rect x="125.80" y="209.80" width="8.40" height="8.40" fill="#555" stroke="none"/><rect x="125.80" y="125.80" width="8.40" height="8.40" fill="#555" stroke="none"/><rect x="193.0" y="214.0" width="123.9" height="5.0" fill="#cfe2f3" stroke="none"/><rect x="193.0" y="209.0" width="123.9" height="5.0" fill="#cfe2f3" stroke="none"/><rect x="193.0" y="132.1" width="5.0" height="81.9" fill="#cfe2f3" stroke="none"/><rect x="188.0" y="132.1" width="5.0" height="81.9" fill="#cfe2f3" stroke="none"/><rect x="188.0" y="262.3" width="5.0" height="29.4" fill="#ead1dc" stroke="none"/><rect x="193.0" y="262.3" width="5.0" height="29.4" fill="#cfe2f3" stroke="none"/><line x1="193.0" y1="291.7" x2="163.6" y2="291.7" stroke="#444" stroke-width="1.4"/><path d="M 163.6 291.7 A 29.4 29.4 0 0 1 193.0 262.3" fill="none" stroke="#999" stroke-width="0.7" stroke-dasharray="2 2"/><rect x="319.0" y="214.0" width="5.0" height="33.6" fill="#d9ead3" stroke="none"/><rect x="314.0" y="214.0" width="5.0" height="33.6" fill="#cfe2f3" stroke="none"/><line x1="319.0" y1="214.0" x2="352.6" y2="214.0" stroke="#444" stroke-width="1.4"/><path d="M 352.6 214.0 A 33.6 33.6 0 0 1 319.0 247.6" fill="none" stroke="#999" stroke-width="0.7" stroke-dasharray="2 2"/><rect x="274.9" y="293.0" width="37.8" height="5.0" fill="#cfe2f3" stroke="none"/><rect x="274.9" y="298.0" width="37.8" height="5.0" fill="#fbfbf7" stroke="none"/><line x1="312.7" y1="298.0" x2="312.7" y2="260.2" stroke="#444" stroke-width="1.4"/><path d="M 312.7 260.2 A 37.8 37.8 0 0 0 274.9 298.0" fill="none" stroke="#999" stroke-width="0.7" stroke-dasharray="2 2"/><rect x="136.3" y="130.0" width="33.6" height="5.0" fill="#cfe2f3" stroke="none"/><rect x="136.3" y="125.0" width="33.6" height="5.0" fill="#fbfbf7" stroke="none"/><line x1="136.3" y1="130.0" x2="136.3" y2="163.6" stroke="#444" stroke-width="1.4"/><path d="M 136.3 163.6 A 33.6 33.6 0 0 0 169.9 130.0" fill="none" stroke="#999" stroke-width="0.7" stroke-dasharray="2 2"/><rect x="342.6" y="293.0" width="57.8" height="5.0" fill="#d9ead3" stroke="none"/><rect x="342.6" y="298.0" width="57.8" height="5.0" fill="#fbfbf7" stroke="none"/><line x1="342.6" y1="295.0" x2="400.4" y2="295.0" stroke="#222" stroke-width="1.0"/><line x1="342.6" y1="298.0" x2="400.4" y2="298.0" stroke="#222" stroke-width="1.0"/><line x1="342.6" y1="301.0" x2="400.4" y2="301.0" stroke="#222" stroke-width="1.0"/><rect x="342.6" y="130.0" width="57.8" height="5.0" fill="#d9ead3" stroke="none"/><rect x="342.6" y="125.0" width="57.8" height="5.0" fill="#fbfbf7" stroke="none"/><line x1="342.6" y1="127.0" x2="400.4" y2="127.0" stroke="#222" stroke-width="1.0"/><line x1="342.6" y1="130.0" x2="400.4" y2="130.0" stroke="#222" stroke-width="1.0"/><line x1="342.6" y1="133.0" x2="400.4" y2="133.0" stroke="#222" stroke-width="1.0"/><rect x="419.0" y="167.8" width="5.0" height="92.4" fill="#d9ead3" stroke="none"/><rect x="424.0" y="167.8" width="5.0" height="92.4" fill="#fbfbf7" stroke="none"/><line x1="421.0" y1="260.2" x2="421.0" y2="167.8" stroke="#222" stroke-width="1.0"/><line x1="424.0" y1="260.2" x2="424.0" y2="167.8" stroke="#222" stroke-width="1.0"/><line x1="427.0" y1="260.2" x2="427.0" y2="167.8" stroke="#222" stroke-width="1.0"/><rect x="130.0" y="237.1" width="5.0" height="37.8" fill="#ead1dc" stroke="none"/><rect x="125.0" y="237.1" width="5.0" height="37.8" fill="#fbfbf7" stroke="none"/><line x1="127.0" y1="274.9" x2="127.0" y2="237.1" stroke="#222" stroke-width="1.0"/><line x1="130.0" y1="274.9" x2="130.0" y2="237.1" stroke="#222" stroke-width="1.0"/><line x1="133.0" y1="274.9" x2="133.0" y2="237.1" stroke="#222" stroke-width="1.0"/><rect x="145.8" y="293.0" width="31.5" height="5.0" fill="#ead1dc" stroke="none"/><rect x="145.8" y="298.0" width="31.5" height="5.0" fill="#fbfbf7" stroke="none"/><line x1="145.8" y1="295.0" x2="177.2" y2="295.0" stroke="#222" stroke-width="1.0"/><line x1="145.8" y1="298.0" x2="177.2" y2="298.0" stroke="#222" stroke-width="1.0"/><line x1="145.8" y1="301.0" x2="177.2" y2="301.0" stroke="#222" stroke-width="1.0"/><rect x="208.6" y="293.0" width="38.1" height="5.0" fill="#cfe2f3" stroke="none"/><rect x="208.6" y="298.0" width="38.1" height="5.0" fill="#fbfbf7" stroke="none"/><line x1="208.6" y1="295.0" x2="246.7" y2="295.0" stroke="#222" stroke-width="1.0"/><line x1="208.6" y1="298.0" x2="246.7" y2="298.0" stroke="#222" stroke-width="1.0"/><line x1="208.6" y1="301.0" x2="246.7" y2="301.0" stroke="#222" stroke-width="1.0"/><rect x="221.3" y="130.0" width="69.3" height="5.0" fill="#cfe2f3" stroke="none"/><rect x="221.3" y="125.0" width="69.3" height="5.0" fill="#fbfbf7" stroke="none"/><line x1="221.3" y1="127.0" x2="290.6" y2="127.0" stroke="#222" stroke-width="1.0"/><line x1="221.3" y1="130.0" x2="290.6" y2="130.0" stroke="#222" stroke-width="1.0"/><line x1="221.3" y1="133.0" x2="290.6" y2="133.0" stroke="#222" stroke-width="1.0"/><rect x="130.0" y="148.9" width="5.0" height="46.2" fill="#cfe2f3" stroke="none"/><rect x="125.0" y="148.9" width="5.0" height="46.2" fill="#fbfbf7" stroke="none"/><line x1="127.0" y1="195.1" x2="127.0" y2="148.9" stroke="#222" stroke-width="1.0"/><line x1="130.0" y1="195.1" x2="130.0" y2="148.9" stroke="#222" stroke-width="1.0"/><line x1="133.0" y1="195.1" x2="133.0" y2="148.9" stroke="#222" stroke-width="1.0"/></svg>