<svg xmlns="http://www.w3.org/2000/svg" width="470" height="470" viewBox="0 0 470 470"><rect x="0" y="0" width="470" height="470" fill="white"/><rect x="46.0" y="46.0" width="378.0" height="378.0" fill="#fbfbf7" stroke="#333" stroke-width="1.5"/><line x1="46.0" y1="46.0" x2="46.0" y2="38.0" stroke="#888" stroke-width="1"/><line x1="46.0" y1="424.0" x2="46.0" y2="432.0" stroke="#888" stroke-width="1"/><text x="46.0" y="36.0" text-anchor="middle" font-family="Arial" font-size="9" fill="#666">0</text><text x="46.0" y="440.0" text-anchor="middle" font-family="Arial" font-size="9" fill="#666">0</text><line x1="67.0" y1="46.0" x2="67.0" y2="42.0" stroke="#888" stroke-width="1"/><line x1="67.0" y1="424.0" x2="67.0" y2="428.0" stroke="#888" stroke-width="1"/><line x1="88.0" y1="46.0" x2="88.0" y2="38.0" stroke="#888" stroke-width="1"/><line x1="88.0" y1="424.0" x2="88.0" y2="432.0" stroke="#888" stroke-width="1"/><text x="88.0" y="36.0" text-anchor="middle" font-family="Arial" font-size="9" fill="#666">1</text><text x="88.0" y="440.0" text-anchor="middle" font-family="Arial" font-size="9" fill="#666">1</text><line x1="109.0" y1="46.0" x2="109.0" y2="42.0" stroke="#888" stroke-width="1"/><line x1="109.0" y1="424.0" x2="109.0" y2="428.0" stroke="#888" stroke-width="1"/><line x1="130.0" y1="46.0" x2="130.0" y2="38.0" stroke="#888" stroke-width="1"/><line x1="130.0" y1="424.0" x2="130.0" y2="432.0" stroke="#888" stroke-width="1"/><text x="130.0" y="36.0" text-anchor="middle" font-family="Arial" font-size="9" fill="#666">2</text><text x="130.0" y="440.0" text-anchor="middle" font-family="Arial" font-size="9" fill="#666">2</text><line x1="151.0" y1="46.0" x2="151.0" y2="42.0" stroke="#888" stroke-width="1"/><line x1="151.0" y1="424.0" x2="151.0" y2="428.0" stroke="#888" stroke-width="1"/><line x1="172.0" y1="46.0" x2="172.0" y2="38.0" stroke="#888" stroke-width="1"/><line x1="172.0" y1="424.0" x2="172.0" y2="432.0" stroke="#888" stroke-width="1"/><text x="172.0" y="36.0" text-anchor="middle" font-family="Arial" font-size="9" fill="#666">3</text><text x="172.0" y="440.0" text-anchor="middle" font-family="Arial" font-size="9" fill="#666">3</text><line x1="193.0" y1="46.0" x2="193.0" y2="42.0" stroke="#888" stroke-width="1"/><line x1="193.0" y1="424.0" x2="193.0" y2="428.0" stroke="#888" stroke-width="1"/><line x1="214.0" y1="46.0" x2="214.0" y2="38.0" stroke="#888" stroke-width="1"/><line x1="214.0" y1="424.0" x2="214.0" y2="432.0" stroke="#888" stroke-width="1"/><text x="214.0" y="36.0" text-anchor="middle" font-family="Arial" font-size="9" fill="#666">4</text><text x="214.0" y="440.0" text-anchor="middle" font-family="Arial" font-size="9" fill="#666">4</text><line x1="235.0" y1="46.0" x2="235.0" y2="42.0" stroke="#888" stroke-width="1"/><line x1="235.0" y1="424.0" x2="235.0" y2="428.0" stroke="#888" stroke-width="1"/><line x1="256.0" y1="46.0" x2="256.0" y2="38.0" stroke="#888" stroke-width="1"/><line x1="256.0" y1="424.0" x2="256.0" y2="432.0" stroke="#888" stroke-width="1"/><text x="256.0" y="36.0" text-anchor="middle" font-family="Arial" font-size="9" fill="#666">5</text><text x="256.0" y="440.0" text-anchor="middle" font-family="Arial" font-size="9" fill="#666">5</text><line x1="277.0" y1="46.0" x2="277.0" y2="42.0" stroke="#888" stroke-width="1"/><line x1="277.0" y1="424.0" x2="277.0" y2="428.0" stroke="#888" stroke-width="1"/><line x1="298.0" y1="46.0" x2="298.0" y2="38.0" stroke="#888" stroke-width="1"/><line x1="298.0" y1="424.0" x2="298.0" y2="432.0" stroke="#888" stroke-width="1"/><text x="298.0" y="36.0" text-anchor="middle" font-family="Arial" font-size="9" fill="#666">6</text><text x="298.0" y="440.0" text-anchor="middle" font-family="Arial" font-size="9" fill="#666">6</text><line x1="319.0" y1="46.0" x2="319.0" y2="42.0" stroke="#888" stroke-width="1"/><line x1="319.0" y1="424.0" x2="319.0" y2="428.0" stroke="#888" stroke-width="1"/><line x1="340.0" y1="46.0" x2="340.0" y2="38.0" stroke="#888" stroke-width="1"/><line x1="340.0" y1="424.0" x2="340.0" y2="432.0" stroke="#888" stroke-width="1"/><text x="340.0" y="36.0" text-anchor="middle" font-family="Arial" font-size="9" fill="#666">7</text><text x="340.0" y="440.0" text-anchor="middle" font-family="Arial" font-size="9" fill="#666">7</text><line x1="361.0" y1="46.0" x2="361.0" y2="42.0" stroke="#888" stroke-width="1"/><line x1="361.0" y1="424.0" x2="361.0" y2="428.0" stroke="#888" stroke-width="1"/><line x1="382.0" y1="46.0" x2="382.0" y2="38.0" stroke="#888" stroke-width="1"/><line x1="382.0" y1="424.0" x2="382.0" y2="432.0" stroke="#888" stroke-width="1"/><text x="382.0" y="36.0" text-anchor="middle" font-family="Arial" font-size="9" fill="#666">8</text><text x="382.0" y="440.0" text-anchor="middle" font-family="Arial" font-size="9" fill="#666">8</text><line x1="403.0" y1="46.0" x2="403.0" y2="42.0" stroke="#888" stroke-width="1"/><line x1="403.0" y1="424.0" x2="403.0" y2="428.0" stroke="#888" stroke-width="1"/><line x1="424.0" y1="46.0" x2="424.0" y2="38.0" stroke="#888" stroke-width="1"/><line x1="424.0" y1="424.0" x2="424.0" y2="432.0" stroke="#888" stroke-width="1"/><text x="424.0" y="36.0" text-anchor="middle" font-family="Arial" font-size="9" fill="#666">9</text><text x="424.0" y="440.0" text-anchor="middle" font-family="Arial" font-size="9" fill="#666">9</text><line x1="46.0" y1="424.0" x2="38.0" y2="424.0" stroke="#888" stroke-width="1"/><line x1="424.0" y1="424.0" x2="432.0" y2="424.0" stroke="#888" stroke-width="1"/><text x="36.0" y="427.0" text-anchor="end" font-family="Arial" font-size="9" fill="#666">0</text><text x="434.0" y="427.0" text-anchor="start" font-family="Arial" font-size="9" fill="#666">0</text><line x1="46.0" y1="403.0" x2="42.0" y2="403.0" stroke="#888" stroke-width="1"/><line x1="424.0" y1="403.0" x2="428.0" y2="403.0" stroke="#888" stroke-width="1"/><line x1="46.0" y1="382.0" x2="38.0" y2="382.0" stroke="#888" stroke-width="1"/><line x1="424.0" y1="382.0" x2="432.0" y2="382.0" stroke="#888" stroke-width="1"/><text x="36.0" y="385.0" text-anchor="end" font-family="Arial" font-size="9" fill="#666">1</text><text x="434.0" y="385.0" text-anchor="start" font-family="Arial" font-size="9" fill="#666">1</text><line x1="46.0" y1="361.0" x2="42.0" y2="361.0" stroke="#888" stroke-width="1"/><line x1="424.0" y1="361.0" x2="428.0" y2="361.0" stroke="#888" stroke-width="1"/><line x1="46.0" y1="340.0" x2="38.0" y2="340.0" stroke="#888" stroke-width="1"/><line x1="424.0" y1="340.0" x2="432.0" y2="340.0" stroke="#888" stroke-width="1"/><text x="36.0" y="343.0" text-anchor="end" font-family="Arial" font-size="9" fill="#666">2</text><text x="434.0" y="343.0" text-anchor="start" font-family="Arial" font-size="9" fill="#666">2</text><line x1="46.0" y1="319.0" x2="42.0" y2="319.0" stroke="#888" stroke-width="1"/><line x1="424.0" y1="319.0" x2="428.0" y2="319.0" stroke="#888" stroke-width="1"/><line x1="46.0" y1="298.0" x2="38.0" y2="298.0" stroke="#888" stroke-width="1"/><line x1="424.0" y1="298.0" x2="432.0" y2="298.0" stroke="#888" stroke-width="1"/><text x="36.0" y="301.0" text-anchor="end" font-family="Arial" font-size="9" fill="#666">3</text><text x="434.0" y="301.0" text-anchor="start" font-family="Arial" font-size="9" fill="#666">3</text><line x1="46.0" y1="277.0" x2="42.0" y2="277.0" stroke="#888" stroke-width="1"/><line x1="424.0" y1="277.0" x2="428.0" y2="277.0" stroke="#888" stroke-width="1"/><line x1="46.0" y1="256.0" x2="38.0" y2="256.0" stroke="#888" stroke-width="1"/><line x1="424.0" y1="256.0" x2="432.0" y2="256.0" stroke="#888" stroke-width="1"/><text x="36.0" y="259.0" text-anchor="end" font-family="Arial" font-size="9" fill="#666">4</text><text x="434.0" y="259.0" text-anchor="start" font-family="Arial" font-size="9" fill="#666">4</text><line x1="46.0" y1="235.0" x2="42.0" y2="235.0" stroke="#888" stroke-width="1"/><line x1="424.0" y1="235.0" x2="428.0" y2="235.0" stroke="#888" stroke-width="1"/><line x1="46.0" y1="214.0" x2="38.0" y2="214.0" stroke="#888" stroke-width="1"/><line x1="424.0" y1="214.0" x2="432.0" y2="214.0" stroke="#888" stroke-width="1"/><text x="36.0" y="217.0" text-anchor="end" font-family="Arial" font-size="9" fill="#666">5</text><text x="434.0" y="217.0" text-anchor="start" font-family="Arial" font-size="9" fill="#666">5</text><line x1="46.0" y1="193.0" x2="42.0" y2="193.0" stroke="#888" stroke-width="1"/><line x1="424.0" y1="193.0" x2="428.0" y2="193.0" stroke="#888" stroke-width="1"/><line x1="46.0" y1="172.0" x2="38.0" y2="172.0" stroke="#888" stroke-width="1"/><line x1="424.0" y1="172.0" x2="432.0" y2="172.0" stroke="#888" stroke-width="1"/><text x="36.0" y="175.0" text-anchor="end" font-family="Arial" font-size="9" fill="#666">6</text><text x="434.0" y="175.0" text-anchor="start" font-family="Arial" font-size="9" fill="#666">6</text><line x1="46.0" y1="151.0" x2="42.0" y2="151.0" stroke="#888" stroke-width="1"/><line x1="424.0" y1="151.0" x2="428.0" y2="151.0" stroke="#888" stroke-width="1"/><line x1="46.0" y1="130.0" x2="38.0" y2="130.0" stroke="#888" stroke-width="1"/><line x1="424.0" y1="130.0" x2="432.0" y2="130.0" stroke="#888" stroke-width="1"/><text x="36.0" y="133.0" text-anchor="end" font-family="Arial" font-size="9" fill="#666">7</text><text x="434.0" y="133.0" text-anchor="start" font-family="Arial" font-size="9" fill="#666">7</text><line x1="46.0" y1="109.0" x2="42.0" y2="109.0" stroke="#888" stroke-width="1"/><line x1="424.0" y1="109.0" x2="428.0" y2="109.0" stroke="#888" stroke-width="1"/><line x1="46.0" y1="88.0" x2="38.0" y2="88.0" stroke="#888" stroke-width="1"/><line x1="424.0" y1="88.0" x2="432.0" y2="88.0" stroke="#888" stroke-width="1"/><text x="36.0" y="91.0" text-anchor="end" font-family="Arial" font-size="9" fill="#666">8</text><text x="434.0" y="91.0" text-anchor="start" font-family="Arial" font-size="9" fill="#666">8</text><line x1="46.0" y1="67.0" x2="42.0" y2="67.0" stroke="#888" stroke-width="1"/><line x1="424.0" y1="67.0" x2="428.0" y2="67.0" stroke="#888" stroke-width="1"/><line x1="46.0" y1="46.0" x2="38.0" y2="46.0" stroke="#888" stroke-width="1"/><line x1="424.0" y1="46.0" x2="432.0" y2="46.0" stroke="#888" stroke-width="1"/><text x="36.0" y="49.0" text-anchor="end" font-family="Arial" font-size="9" fill="#666">9</text><text x="434.0" y="49.0" text-anchor="start" font-family="Arial" font-size="9" fill="#666">9</text><rect x="130.0" y="130.0" width="210.0" height="210.0" fill="none" stroke="#9aa" stroke-width="1" stroke-dasharray="3 3"/><rect x="240.5" y="341.3" width="98.3" height="60.5" fill="#f2f2f2" stroke="#333" stroke-width="1.5" stroke-dasharray="6 4"/><text x="289.6" y="368.9" text-anchor="middle" font-family="Arial" font-size="12" font-weight="bold" fill="#222">PORCH</text><text x="289.6" y="384.7" text-anchor="middle" font-family="Arial" font-size="10" fill="#555">2.4×1.5 m</text><rect x="130.0" y="193.0" width="109.2" height="147.0" fill="#d9ead3" stroke="#333" stroke-width="1.5"/><text x="184.6" y="258.1" text-anchor="middle" font-family="Arial" font-size="12" font-weight="bold" fill="#222">BEDROOM</text><text x="184.6" y="273.9" text-anchor="middle" font-family="Arial" font-size="10" fill="#555">2.6×3.5 m</text><text x="184.6" y="285.4" text-anchor="middle" font-family="Arial" font-size="10" fill="#555">9.1 sqm</text><rect x="130.0" y="130.0" width="109.2" height="63.0" fill="#ead1dc" stroke="#333" stroke-width="1.5"/><text x="184.6" y="153.1" text-anchor="middle" font-family="Arial" font-size="12" font-weight="bold" fill="#222">T&amp;B</text><text x="184.6" y="168.9" text-anchor="middle" font-family="Arial" font-size="10" fill="#555">2.6×1.5 m</text><text x="184.6" y="180.4" text-anchor="middle" font-family="Arial" font-size="10" fill="#555">3.9 sqm</text><rect x="239.2" y="235.0" width="100.8" height="105.0" fill="#cfe2f3" stroke="#333" stroke-width="1.5"/><text x="289.6" y="279.1" text-anchor="middle" font-family="Arial" font-size="12" font-weight="bold" fill="#222">GREAT ROOM</text><text x="289.6" y="294.9" text-anchor="middle" font-family="Arial" font-size="10" fill="#555">2.4×2.5 m</text><text x="289.6" y="306.4" text-anchor="middle" font-family="Arial" font-size="10" fill="#555">6.0 sqm</text><rect x="239.2" y="130.0" width="100.8" height="105.0" fill="#cfe2f3" stroke="#333" stroke-width="1.5"/><text x="289.6" y="174.1" text-anchor="middle" font-family="Arial" font-size="12" font-weight="bold" fill="#222">KITCHEN</text><text x="289.6" y="189.9" text-anchor="middle" font-family="Arial" font-size="10" fill="#555">2.4×2.5 m</text><text x="289.6" y="201.4" text-anchor="middle" font-family="Arial" font-size="10" fill="#555">6.0 sqm</text><text x="235.0" y="458.0" text-anchor="middle" font-family="Arial" font-size="12" font-weight="bold" fill="#888">FRONT (street)</text><rect x="130.00" y="190.90" width="109.20" height="4.20" fill="#555" stroke="none"/><rect x="237.10" y="235.00" width="4.20" height="105.00" fill="#555" stroke="none"/><rect x="237.10" y="193.00" width="4.20" height="42.00" fill="#555" stroke="none"/><rect x="237.10" y="130.00" width="4.20" height="63.00" fill="#555" stroke="none"/><rect x="130.00" y="335.80" width="109.20" height="8.40" fill="#555" stroke="none"/><rect x="125.80" y="193.00" width="8.40" height="147.00" fill="#555" stroke="none"/><rect x="130.00" y="125.80" width="109.20" height="8.40" fill="#555" stroke="none"/><rect x="125.80" y="130.00" width="8.40" height="63.00" fill="#555" stroke="none"/><rect x="239.20" y="335.80" width="100.80" height="8.40" fill="#555" stroke="none"/><rect x="335.80" y="235.00" width="8.40" height="105.00" fill="#555" stroke="none"/><rect x="239.20" y="125.80" width="100.80" height="8.40" fill="#555" stroke="none"/><rect x="335.80" y="130.00" width="8.40" height="105.00" fill="#555" stroke="none"/><rect x="125.80" y="188.80" width="8.40" height="8.40" fill="#555" stroke="none"/><rect x="237.10" y="190.90" width="4.20" height="4.20" fill="#555" stroke="none"/><rect x="235.00" y="335.80" width="8.40" height="8.40" fill="#555" stroke="none"/><rect x="237.10" y="190.90" width="4.20" height="4.20" fill="#555" stroke="none"/><rect x="237.10" y="190.90" width="4.20" height="4.20" fill="#555" stroke="none"/><rect x="235.00" y="125.80" width="8.40" height="8.40" fill="#555" stroke="none"/><rect x="125.80" y="335.80" width="8.40" height="8.40" fill="#555" stroke="none"/><rect x="235.00" y="335.80" width="8.40" height="8.40" fill="#555" stroke="none"/><rect x="125.80" y="335.80" width="8.40" height="8.40" fill="#555" stroke="none"/><rect x="125.80" y="188.80" width="8.40" height="8.40" fill="#555" stroke="none"/><rect x="125.80" y="125.80" width="8.40" height="8.40" fill="#555" stroke="none"/><rect x="235.00" y="125.80" width="8.40" height="8.40" fill="#555" stroke="none"/><rect x="125.80" y="188.80" width="8.40" height="8.40" fill="#555" stroke="none"/><rect x="125.80" y="125.80" width="8.40" height="8.40" fill="#555" stroke="none"/><rect x="235.00" y="335.80" width="8.40" height="8.40" fill="#555" stroke="none"/><rect x="335.80" y="335.80" width="8.40" height="8.40" fill="#555" stroke="none"/><rect x="335.80" y="335.80" width="8.40" height="8.40" fill="#555" stroke="none"/><rect x="235.00" y="125.80" width="8.40" height="8.40" fill="#555" stroke="none"/><rect x="335.80" y="125.80" width="8.40" height="8.40" fill="#555" stroke="none"/><rect x="335.80" y="125.80" width="8.40" height="8.40" fill="#555" stroke="none"/><rect x="241.3" y="230.0" width="96.6" height="5.0" fill="#cfe2f3" stroke="none"/><rect x="241.3" y="235.0" width="96.6" height="5.0" fill="#cfe2f3" stroke="none"/><rect x="234.2" y="300.1" width="5.0" height="33.6" fill="#d9ead3" stroke="none"/><rect x="239.2" y="300.1" width="5.0" height="33.6" fill="#cfe2f3" stroke="none"/><line x1="239.2" y1="333.7" x2="205.6" y2="333.7" stroke="#444" stroke-width="1.4"/><path d="M 205.6 333.7 A 33.6 33.6 0 0 1 239.2 300.1" fill="none" stroke="#999" stroke-width="0.7" stroke-dasharray="2 2"/><rect x="234.2" y="157.3" width="5.0" height="29.4" fill="#ead1dc" stroke="none"/><rect x="239.2" y="157.3" width="5.0" height="29.4" fill="#cfe2f3" stroke="none"/><line x1="239.2" y1="186.7" x2="209.8" y2="186.7" stroke="#444" stroke-width="1.4"/><path d="M 209.8 186.7 A 29.4 29.4 0 0 1 239.2 157.3" fill="none" stroke="#999" stroke-width="0.7" stroke-dasharray="2 2"/><rect x="295.9" y="335.0" width="37.8" height="5.0" fill="#cfe2f3" stroke="none"/><rect x="295.9" y="340.0" width="37.8" height="5.0" fill="#fbfbf7" stroke="none"/><line x1="333.7" y1="340.0" x2="333.7" y2="302.2" stroke="#444" stroke-width="1.4"/><path d="M 333.7 302.2 A 37.8 37.8 0 0 0 295.9 340.0" fill="none" stroke="#999" stroke-width="0.7" stroke-dasharray="2 2"/><rect x="245.5" y="130.0" width="33.6" height="5.0" fill="#cfe2f3" stroke="none"/><rect x="245.5" y="125.0" width="33.6" height="5.0" fill="#fbfbf7" stroke="none"/><line x1="245.5" y1="130.0" x2="245.5" y2="163.6" stroke="#444" stroke-width="1.4"/><path d="M 245.5 163.6 A 33.6 33.6 0 0 0 279.1 130.0" fill="none" stroke="#999" stroke-width="0.7" stroke-dasharray="2 2"/><rect x="130.0" y="226.1" width="5.0" height="80.9" fill="#d9ead3" stroke="none"/><rect x="125.0" y="226.1" width="5.0" height="80.9" fill="#fbfbf7" stroke="none"/><line x1="127.0" y1="306.9" x2="127.0" y2="226.1" stroke="#222" stroke-width="1.0"/><line x1="130.0" y1="306.9" x2="130.0" y2="226.1" stroke="#222" stroke-width="1.0"/><line x1="133.0" y1="306.9" x2="133.0" y2="226.1" stroke="#222" stroke-width="1.0"/><rect x="154.6" y="335.0" width="60.1" height="5.0" fill="#d9ead3" stroke="none"/><rect x="154.6" y="340.0" width="60.1" height="5.0" fill="#fbfbf7" stroke="none"/><line x1="154.6" y1="337.0" x2="214.6" y2="337.0" stroke="#222" stroke-width="1.0"/><line x1="154.6" y1="340.0" x2="214.6" y2="340.0" stroke="#222" stroke-width="1.0"/><line x1="154.6" y1="343.0" x2="214.6" y2="343.0" stroke="#222" stroke-width="1.0"/><rect x="165.7" y="130.0" width="37.8" height="5.0" fill="#ead1dc" stroke="none"/><rect x="165.7" y="125.0" width="37.8" height="5.0" fill="#fbfbf7" stroke="none"/><line x1="165.7" y1="127.0" x2="203.5" y2="127.0" stroke="#222" stroke-width="1.0"/><line x1="165.7" y1="130.0" x2="203.5" y2="130.0" stroke="#222" stroke-width="1.0"/><line x1="165.7" y1="133.0" x2="203.5" y2="133.0" stroke="#222" stroke-width="1.0"/><rect x="130.0" y="145.8" width="5.0" height="31.5" fill="#ead1dc" stroke="none"/><rect x="125.0" y="145.8" width="5.0" height="31.5" fill="#fbfbf7" stroke="none"/><line x1="127.0" y1="177.2" x2="127.0" y2="145.8" stroke="#222" stroke-width="1.0"/><line x1="130.0" y1="177.2" x2="130.0" y2="145.8" stroke="#222" stroke-width="1.0"/><line x1="133.0" y1="177.2" x2="133.0" y2="145.8" stroke="#222" stroke-width="1.0"/><rect x="335.0" y="258.6" width="5.0" height="57.8" fill="#cfe2f3" stroke="none"/><rect x="340.0" y="258.6" width="5.0" height="57.8" fill="#fbfbf7" stroke="none"/><line x1="337.0" y1="316.4" x2="337.0" y2="258.6" stroke="#222" stroke-width="1.0"/><line x1="340.0" y1="316.4" x2="340.0" y2="258.6" stroke="#222" stroke-width="1.0"/><line x1="343.0" y1="316.4" x2="343.0" y2="258.6" stroke="#222" stroke-width="1.0"/><rect x="242.3" y="335.0" width="37.8" height="5.0" fill="#cfe2f3" stroke="none"/><rect x="242.3" y="340.0" width="37.8" height="5.0" fill="#fbfbf7" stroke="none"/><line x1="242.3" y1="337.0" x2="280.1" y2="337.0" stroke="#222" stroke-width="1.0"/><line x1="242.3" y1="340.0" x2="280.1" y2="340.0" stroke="#222" stroke-width="1.0"/><line x1="242.3" y1="343.0" x2="280.1" y2="343.0" stroke="#222" stroke-width="1.0"/><rect x="335.0" y="153.6" width="5.0" height="57.8" fill="#cfe2f3" stroke="none"/><rect x="340.0" y="153.6" width="5.0" height="57.8" fill="#fbfbf7" stroke="none"/><line x1="337.0" y1="211.4" x2="337.0" y2="153.6" stroke="#222" stroke-width="1.0"/><line x1="340.0" y1="211.4" x2="340.0" y2="153.6" stroke="#222" stroke-width="1.0"/><line x1="343.0" y1="211.4" x2="343.0" y2="153.6" stroke="#222" stroke-width="1.0"/><rect x="296.9" y="130.0" width="37.8" height="5.0" fill="#cfe2f3" stroke="none"/><rect x="296.9" y="125.0" width="37.8" height="5.0" fill="#fbfbf7" stroke="none"/><line x1="296.9" y1="127.0" x2="334.8" y2="127.0" stroke="#222" stroke-width="1.0"/><line x1="296.9" y1="130.0" x2="334.8" y2="130.0" stroke="#222" stroke-width="1.0"/><line x1="296.9" y1="133.0" x2="334.8" y2="133.0" stroke="#222" stroke-width="1.0"/><rect x="239.2" y="209.8" width="63.0" height="25.2" fill="#e9e2d4" stroke="#7a6a52" stroke-width="1"/><circle cx="256.0" cy="245.5" r="7.3" fill="#ffffff" stroke="#7a6a52" stroke-width="1"/><circle cx="285.4" cy="245.5" r="7.3" fill="#ffffff" stroke="#7a6a52" stroke-width="1"/></svg>