<svg xmlns="http://www.w3.org/2000/svg" width="596" height="596" viewBox="0 0 596 596"><rect x="0" y="0" width="596" height="596" fill="white"/><rect x="46.0" y="46.0" width="504.0" height="504.0" fill="#fbfbf7" stroke="#333" stroke-width="1.5"/><line x1="46.0" y1="46.0" x2="46.0" y2="38.0" stroke="#888" stroke-width="1"/><line x1="46.0" y1="550.0" x2="46.0" y2="558.0" stroke="#888" stroke-width="1"/><text x="46.0" y="36.0" text-anchor="middle" font-family="Arial" font-size="9" fill="#666">0</text><text x="46.0" y="566.0" text-anchor="middle" font-family="Arial" font-size="9" fill="#666">0</text><line x1="67.0" y1="46.0" x2="67.0" y2="42.0" stroke="#888" stroke-width="1"/><line x1="67.0" y1="550.0" x2="67.0" y2="554.0" stroke="#888" stroke-width="1"/><line x1="88.0" y1="46.0" x2="88.0" y2="38.0" stroke="#888" stroke-width="1"/><line x1="88.0" y1="550.0" x2="88.0" y2="558.0" stroke="#888" stroke-width="1"/><text x="88.0" y="36.0" text-anchor="middle" font-family="Arial" font-size="9" fill="#666">1</text><text x="88.0" y="566.0" text-anchor="middle" font-family="Arial" font-size="9" fill="#666">1</text><line x1="109.0" y1="46.0" x2="109.0" y2="42.0" stroke="#888" stroke-width="1"/><line x1="109.0" y1="550.0" x2="109.0" y2="554.0" stroke="#888" stroke-width="1"/><line x1="130.0" y1="46.0" x2="130.0" y2="38.0" stroke="#888" stroke-width="1"/><line x1="130.0" y1="550.0" x2="130.0" y2="558.0" stroke="#888" stroke-width="1"/><text x="130.0" y="36.0" text-anchor="middle" font-family="Arial" font-size="9" fill="#666">2</text><text x="130.0" y="566.0" text-anchor="middle" font-family="Arial" font-size="9" fill="#666">2</text><line x1="151.0" y1="46.0" x2="151.0" y2="42.0" stroke="#888" stroke-width="1"/><line x1="151.0" y1="550.0" x2="151.0" y2="554.0" stroke="#888" stroke-width="1"/><line x1="172.0" y1="46.0" x2="172.0" y2="38.0" stroke="#888" stroke-width="1"/><line x1="172.0" y1="550.0" x2="172.0" y2="558.0" stroke="#888" stroke-width="1"/><text x="172.0" y="36.0" text-anchor="middle" font-family="Arial" font-size="9" fill="#666">3</text><text x="172.0" y="566.0" text-anchor="middle" font-family="Arial" font-size="9" fill="#666">3</text><line x1="193.0" y1="46.0" x2="193.0" y2="42.0" stroke="#888" stroke-width="1"/><line x1="193.0" y1="550.0" x2="193.0" y2="554.0" stroke="#888" stroke-width="1"/><line x1="214.0" y1="46.0" x2="214.0" y2="38.0" stroke="#888" stroke-width="1"/><line x1="214.0" y1="550.0" x2="214.0" y2="558.0" stroke="#888" stroke-width="1"/><text x="214.0" y="36.0" text-anchor="middle" font-family="Arial" font-size="9" fill="#666">4</text><text x="214.0" y="566.0" text-anchor="middle" font-family="Arial" font-size="9" fill="#666">4</text><line x1="235.0" y1="46.0" x2="235.0" y2="42.0" stroke="#888" stroke-width="1"/><line x1="235.0" y1="550.0" x2="235.0" y2="554.0" stroke="#888" stroke-width="1"/><line x1="256.0" y1="46.0" x2="256.0" y2="38.0" stroke="#888" stroke-width="1"/><line x1="256.0" y1="550.0" x2="256.0" y2="558.0" stroke="#888" stroke-width="1"/><text x="256.0" y="36.0" text-anchor="middle" font-family="Arial" font-size="9" fill="#666">5</text><text x="256.0" y="566.0" text-anchor="middle" font-family="Arial" font-size="9" fill="#666">5</text><line x1="277.0" y1="46.0" x2="277.0" y2="42.0" stroke="#888" stroke-width="1"/><line x1="277.0" y1="550.0" x2="277.0" y2="554.0" stroke="#888" stroke-width="1"/><line x1="298.0" y1="46.0" x2="298.0" y2="38.0" stroke="#888" stroke-width="1"/><line x1="298.0" y1="550.0" x2="298.0" y2="558.0" stroke="#888" stroke-width="1"/><text x="298.0" y="36.0" text-anchor="middle" font-family="Arial" font-size="9" fill="#666">6</text><text x="298.0" y="566.0" text-anchor="middle" font-family="Arial" font-size="9" fill="#666">6</text><line x1="319.0" y1="46.0" x2="319.0" y2="42.0" stroke="#888" stroke-width="1"/><line x1="319.0" y1="550.0" x2="319.0" y2="554.0" stroke="#888" stroke-width="1"/><line x1="340.0" y1="46.0" x2="340.0" y2="38.0" stroke="#888" stroke-width="1"/><line x1="340.0" y1="550.0" x2="340.0" y2="558.0" stroke="#888" stroke-width="1"/><text x="340.0" y="36.0" text-anchor="middle" font-family="Arial" font-size="9" fill="#666">7</text><text x="340.0" y="566.0" text-anchor="middle" font-family="Arial" font-size="9" fill="#666">7</text><line x1="361.0" y1="46.0" x2="361.0" y2="42.0" stroke="#888" stroke-width="1"/><line x1="361.0" y1="550.0" x2="361.0" y2="554.0" stroke="#888" stroke-width="1"/><line x1="382.0" y1="46.0" x2="382.0" y2="38.0" stroke="#888" stroke-width="1"/><line x1="382.0" y1="550.0" x2="382.0" y2="558.0" stroke="#888" stroke-width="1"/><text x="382.0" y="36.0" text-anchor="middle" font-family="Arial" font-size="9" fill="#666">8</text><text x="382.0" y="566.0" text-anchor="middle" font-family="Arial" font-size="9" fill="#666">8</text><line x1="403.0" y1="46.0" x2="403.0" y2="42.0" stroke="#888" stroke-width="1"/><line x1="403.0" y1="550.0" x2="403.0" y2="554.0" stroke="#888" stroke-width="1"/><line x1="424.0" y1="46.0" x2="424.0" y2="38.0" stroke="#888" stroke-width="1"/><line x1="424.0" y1="550.0" x2="424.0" y2="558.0" stroke="#888" stroke-width="1"/><text x="424.0" y="36.0" text-anchor="middle" font-family="Arial" font-size="9" fill="#666">9</text><text x="424.0" y="566.0" text-anchor="middle" font-family="Arial" font-size="9" fill="#666">9</text><line x1="445.0" y1="46.0" x2="445.0" y2="42.0" stroke="#888" stroke-width="1"/><line x1="445.0" y1="550.0" x2="445.0" y2="554.0" stroke="#888" stroke-width="1"/><line x1="466.0" y1="46.0" x2="466.0" y2="38.0" stroke="#888" stroke-width="1"/><line x1="466.0" y1="550.0" x2="466.0" y2="558.0" stroke="#888" stroke-width="1"/><text x="466.0" y="36.0" text-anchor="middle" font-family="Arial" font-size="9" fill="#666">10</text><text x="466.0" y="566.0" text-anchor="middle" font-family="Arial" font-size="9" fill="#666">10</text><line x1="487.0" y1="46.0" x2="487.0" y2="42.0" stroke="#888" stroke-width="1"/><line x1="487.0" y1="550.0" x2="487.0" y2="554.0" stroke="#888" stroke-width="1"/><line x1="508.0" y1="46.0" x2="508.0" y2="38.0" stroke="#888" stroke-width="1"/><line x1="508.0" y1="550.0" x2="508.0" y2="558.0" stroke="#888" stroke-width="1"/><text x="508.0" y="36.0" text-anchor="middle" font-family="Arial" font-size="9" fill="#666">11</text><text x="508.0" y="566.0" text-anchor="middle" font-family="Arial" font-size="9" fill="#666">11</text><line x1="529.0" y1="46.0" x2="529.0" y2="42.0" stroke="#888" stroke-width="1"/><line x1="529.0" y1="550.0" x2="529.0" y2="554.0" stroke="#888" stroke-width="1"/><line x1="550.0" y1="46.0" x2="550.0" y2="38.0" stroke="#888" stroke-width="1"/><line x1="550.0" y1="550.0" x2="550.0" y2="558.0" stroke="#888" stroke-width="1"/><text x="550.0" y="36.0" text-anchor="middle" font-family="Arial" font-size="9" fill="#666">12</text><text x="550.0" y="566.0" text-anchor="middle" font-family="Arial" font-size="9" fill="#666">12</text><line x1="46.0" y1="550.0" x2="38.0" y2="550.0" stroke="#888" stroke-width="1"/><line x1="550.0" y1="550.0" x2="558.0" y2="550.0" stroke="#888" stroke-width="1"/><text x="36.0" y="553.0" text-anchor="end" font-family="Arial" font-size="9" fill="#666">0</text><text x="560.0" y="553.0" text-anchor="start" font-family="Arial" font-size="9" fill="#666">0</text><line x1="46.0" y1="529.0" x2="42.0" y2="529.0" stroke="#888" stroke-width="1"/><line x1="550.0" y1="529.0" x2="554.0" y2="529.0" stroke="#888" stroke-width="1"/><line x1="46.0" y1="508.0" x2="38.0" y2="508.0" stroke="#888" stroke-width="1"/><line x1="550.0" y1="508.0" x2="558.0" y2="508.0" stroke="#888" stroke-width="1"/><text x="36.0" y="511.0" text-anchor="end" font-family="Arial" font-size="9" fill="#666">1</text><text x="560.0" y="511.0" text-anchor="start" font-family="Arial" font-size="9" fill="#666">1</text><line x1="46.0" y1="487.0" x2="42.0" y2="487.0" stroke="#888" stroke-width="1"/><line x1="550.0" y1="487.0" x2="554.0" y2="487.0" stroke="#888" stroke-width="1"/><line x1="46.0" y1="466.0" x2="38.0" y2="466.0" stroke="#888" stroke-width="1"/><line x1="550.0" y1="466.0" x2="558.0" y2="466.0" stroke="#888" stroke-width="1"/><text x="36.0" y="469.0" text-anchor="end" font-family="Arial" font-size="9" fill="#666">2</text><text x="560.0" y="469.0" text-anchor="start" font-family="Arial" font-size="9" fill="#666">2</text><line x1="46.0" y1="445.0" x2="42.0" y2="445.0" stroke="#888" stroke-width="1"/><line x1="550.0" y1="445.0" x2="554.0" y2="445.0" stroke="#888" stroke-width="1"/><line x1="46.0" y1="424.0" x2="38.0" y2="424.0" stroke="#888" stroke-width="1"/><line x1="550.0" y1="424.0" x2="558.0" y2="424.0" stroke="#888" stroke-width="1"/><text x="36.0" y="427.0" text-anchor="end" font-family="Arial" font-size="9" fill="#666">3</text><text x="560.0" y="427.0" text-anchor="start" font-family="Arial" font-size="9" fill="#666">3</text><line x1="46.0" y1="403.0" x2="42.0" y2="403.0" stroke="#888" stroke-width="1"/><line x1="550.0" y1="403.0" x2="554.0" y2="403.0" stroke="#888" stroke-width="1"/><line x1="46.0" y1="382.0" x2="38.0" y2="382.0" stroke="#888" stroke-width="1"/><line x1="550.0" y1="382.0" x2="558.0" y2="382.0" stroke="#888" stroke-width="1"/><text x="36.0" y="385.0" text-anchor="end" font-family="Arial" font-size="9" fill="#666">4</text><text x="560.0" y="385.0" text-anchor="start" font-family="Arial" font-size="9" fill="#666">4</text><line x1="46.0" y1="361.0" x2="42.0" y2="361.0" stroke="#888" stroke-width="1"/><line x1="550.0" y1="361.0" x2="554.0" y2="361.0" stroke="#888" stroke-width="1"/><line x1="46.0" y1="340.0" x2="38.0" y2="340.0" stroke="#888" stroke-width="1"/><line x1="550.0" y1="340.0" x2="558.0" y2="340.0" stroke="#888" stroke-width="1"/><text x="36.0" y="343.0" text-anchor="end" font-family="Arial" font-size="9" fill="#666">5</text><text x="560.0" y="343.0" text-anchor="start" font-family="Arial" font-size="9" fill="#666">5</text><line x1="46.0" y1="319.0" x2="42.0" y2="319.0" stroke="#888" stroke-width="1"/><line x1="550.0" y1="319.0" x2="554.0" y2="319.0" stroke="#888" stroke-width="1"/><line x1="46.0" y1="298.0" x2="38.0" y2="298.0" stroke="#888" stroke-width="1"/><line x1="550.0" y1="298.0" x2="558.0" y2="298.0" stroke="#888" stroke-width="1"/><text x="36.0" y="301.0" text-anchor="end" font-family="Arial" font-size="9" fill="#666">6</text><text x="560.0" y="301.0" text-anchor="start" font-family="Arial" font-size="9" fill="#666">6</text><line x1="46.0" y1="277.0" x2="42.0" y2="277.0" stroke="#888" stroke-width="1"/><line x1="550.0" y1="277.0" x2="554.0" y2="277.0" stroke="#888" stroke-width="1"/><line x1="46.0" y1="256.0" x2="38.0" y2="256.0" stroke="#888" stroke-width="1"/><line x1="550.0" y1="256.0" x2="558.0" y2="256.0" stroke="#888" stroke-width="1"/><text x="36.0" y="259.0" text-anchor="end" font-family="Arial" font-size="9" fill="#666">7</text><text x="560.0" y="259.0" text-anchor="start" font-family="Arial" font-size="9" fill="#666">7</text><line x1="46.0" y1="235.0" x2="42.0" y2="235.0" stroke="#888" stroke-width="1"/><line x1="550.0" y1="235.0" x2="554.0" y2="235.0" stroke="#888" stroke-width="1"/><line x1="46.0" y1="214.0" x2="38.0" y2="214.0" stroke="#888" stroke-width="1"/><line x1="550.0" y1="214.0" x2="558.0" y2="214.0" stroke="#888" stroke-width="1"/><text x="36.0" y="217.0" text-anchor="end" font-family="Arial" font-size="9" fill="#666">8</text><text x="560.0" y="217.0" text-anchor="start" font-family="Arial" font-size="9" fill="#666">8</text><line x1="46.0" y1="193.0" x2="42.0" y2="193.0" stroke="#888" stroke-width="1"/><line x1="550.0" y1="193.0" x2="554.0" y2="193.0" stroke="#888" stroke-width="1"/><line x1="46.0" y1="172.0" x2="38.0" y2="172.0" stroke="#888" stroke-width="1"/><line x1="550.0" y1="172.0" x2="558.0" y2="172.0" stroke="#888" stroke-width="1"/><text x="36.0" y="175.0" text-anchor="end" font-family="Arial" font-size="9" fill="#666">9</text><text x="560.0" y="175.0" text-anchor="start" font-family="Arial" font-size="9" fill="#666">9</text><line x1="46.0" y1="151.0" x2="42.0" y2="151.0" stroke="#888" stroke-width="1"/><line x1="550.0" y1="151.0" x2="554.0" y2="151.0" stroke="#888" stroke-width="1"/><line x1="46.0" y1="130.0" x2="38.0" y2="130.0" stroke="#888" stroke-width="1"/><line x1="550.0" y1="130.0" x2="558.0" y2="130.0" stroke="#888" stroke-width="1"/><text x="36.0" y="133.0" text-anchor="end" font-family="Arial" font-size="9" fill="#666">10</text><text x="560.0" y="133.0" text-anchor="start" font-family="Arial" font-size="9" fill="#666">10</text><line x1="46.0" y1="109.0" x2="42.0" y2="109.0" stroke="#888" stroke-width="1"/><line x1="550.0" y1="109.0" x2="554.0" y2="109.0" stroke="#888" stroke-width="1"/><line x1="46.0" y1="88.0" x2="38.0" y2="88.0" stroke="#888" stroke-width="1"/><line x1="550.0" y1="88.0" x2="558.0" y2="88.0" stroke="#888" stroke-width="1"/><text x="36.0" y="91.0" text-anchor="end" font-family="Arial" font-size="9" fill="#666">11</text><text x="560.0" y="91.0" text-anchor="start" font-family="Arial" font-size="9" fill="#666">11</text><line x1="46.0" y1="67.0" x2="42.0" y2="67.0" stroke="#888" stroke-width="1"/><line x1="550.0" y1="67.0" x2="554.0" y2="67.0" stroke="#888" stroke-width="1"/><line x1="46.0" y1="46.0" x2="38.0" y2="46.0" stroke="#888" stroke-width="1"/><line x1="550.0" y1="46.0" x2="558.0" y2="46.0" stroke="#888" stroke-width="1"/><text x="36.0" y="49.0" text-anchor="end" font-family="Arial" font-size="9" fill="#666">12</text><text x="560.0" y="49.0" text-anchor="start" font-family="Arial" font-size="9" fill="#666">12</text><rect x="130.0" y="130.0" width="336.0" height="336.0" fill="none" stroke="#9aa" stroke-width="1" stroke-dasharray="3 3"/><rect x="425.3" y="299.3" width="123.5" height="249.5" fill="#f2f2f2" stroke="#333" stroke-width="1.5" stroke-dasharray="6 4"/><text x="487.0" y="421.4" text-anchor="middle" font-family="Arial" font-size="12" font-weight="bold" fill="#222">CARPORT</text><text x="487.0" y="437.2" text-anchor="middle" font-family="Arial" font-size="10" fill="#555">3.0×6.0 m</text><rect x="356.0" y="59.9" width="108.8" height="64.7" fill="#f2f2f2" stroke="#333" stroke-width="1.5" stroke-dasharray="6 4"/><text x="410.3" y="89.1" text-anchor="middle" font-family="Arial" font-size="11" font-weight="bold" fill="#222">DIRTY KITCHEN</text><text x="410.3" y="104.8" text-anchor="middle" font-family="Arial" font-size="10" fill="#555">2.6×1.6 m</text><rect x="131.3" y="59.9" width="222.2" height="64.7" fill="#f2f2f2" stroke="#333" stroke-width="1.5" stroke-dasharray="6 4"/><text x="242.3" y="89.6" text-anchor="middle" font-family="Arial" font-size="12" font-weight="bold" fill="#222">SERVICE</text><text x="242.3" y="105.4" text-anchor="middle" font-family="Arial" font-size="10" fill="#555">5.3×1.6 m</text><rect x="130.0" y="260.2" width="161.7" height="205.8" fill="#d9ead3" stroke="#333" stroke-width="1.5"/><text x="210.8" y="360.4" text-anchor="middle" font-family="Arial" font-size="12" font-weight="bold" fill="#222">MASTER BR</text><text x="210.8" y="376.2" text-anchor="middle" font-family="Arial" font-size="10" fill="#555">3.9×4.9 m · 18.9 sqm</text><rect x="130.0" y="130.0" width="161.7" height="130.2" fill="#d9ead3" stroke="#333" stroke-width="1.5"/><text x="210.8" y="192.4" text-anchor="middle" font-family="Arial" font-size="12" font-weight="bold" fill="#222">BEDROOM</text><text x="210.8" y="208.2" text-anchor="middle" font-family="Arial" font-size="10" fill="#555">3.9×3.1 m · 11.9 sqm</text><rect x="291.7" y="130.0" width="63.0" height="96.6" fill="#ead1dc" stroke="#333" stroke-width="1.5"/><text x="323.2" y="169.9" text-anchor="middle" font-family="Arial" font-size="12" font-weight="bold" fill="#222">T&amp;B</text><text x="323.2" y="185.7" text-anchor="middle" font-family="Arial" font-size="10" fill="#555">1.5×2.3 m</text><text x="323.2" y="197.2" text-anchor="middle" font-family="Arial" font-size="10" fill="#555">3.5 sqm</text><rect x="291.7" y="226.6" width="132.3" height="239.4" fill="#cfe2f3" stroke="none"/><rect x="424.0" y="226.6" width="42.0" height="71.4" fill="#cfe2f3" stroke="none"/><text x="357.8" y="343.7" text-anchor="middle" font-family="Arial" font-size="12" font-weight="bold" fill="#222">GREAT ROOM</text><text x="357.8" y="359.5" text-anchor="middle" font-family="Arial" font-size="10" fill="#555">19.7 sqm (L-shaped)</text><rect x="354.7" y="130.0" width="111.3" height="96.6" fill="#fce5cd" stroke="#333" stroke-width="1.5"/><text x="410.3" y="169.9" text-anchor="middle" font-family="Arial" font-size="12" font-weight="bold" fill="#222">KITCHEN</text><text x="410.3" y="185.7" text-anchor="middle" font-family="Arial" font-size="10" fill="#555">2.6×2.3 m</text><text x="410.3" y="197.2" text-anchor="middle" font-family="Arial" font-size="10" fill="#555">6.1 sqm</text><text x="298.0" y="584.0" text-anchor="middle" font-family="Arial" font-size="12" font-weight="bold" fill="#888">FRONT (street)</text><rect x="130.00" y="258.10" width="161.70" height="4.20" fill="#555" stroke="none"/><rect x="289.60" y="260.20" width="4.20" height="205.80" fill="#555" stroke="none"/><rect x="289.60" y="130.00" width="4.20" height="96.60" fill="#555" stroke="none"/><rect x="289.60" y="226.60" width="4.20" height="33.60" fill="#555" stroke="none"/><rect x="291.70" y="224.50" width="63.00" height="4.20" fill="#555" stroke="none"/><rect x="352.60" y="130.00" width="4.20" height="96.60" fill="#555" stroke="none"/><rect x="419.80" y="298.00" width="8.40" height="168.00" fill="#555" stroke="none"/><rect x="424.00" y="293.80" width="42.00" height="8.40" fill="#555" stroke="none"/><rect x="130.00" y="461.80" width="161.70" height="8.40" fill="#555" stroke="none"/><rect x="125.80" y="260.20" width="8.40" height="205.80" fill="#555" stroke="none"/><rect x="130.00" y="125.80" width="161.70" height="8.40" fill="#555" stroke="none"/><rect x="125.80" y="130.00" width="8.40" height="130.20" fill="#555" stroke="none"/><rect x="291.70" y="125.80" width="63.00" height="8.40" fill="#555" stroke="none"/><rect x="291.70" y="461.80" width="132.30" height="8.40" fill="#555" stroke="none"/><rect x="461.80" y="226.60" width="8.40" height="71.40" fill="#555" stroke="none"/><rect x="354.70" y="125.80" width="111.30" height="8.40" fill="#555" stroke="none"/><rect x="461.80" y="130.00" width="8.40" height="96.60" fill="#555" stroke="none"/><rect x="125.80" y="256.00" width="8.40" height="8.40" fill="#555" stroke="none"/><rect x="287.50" y="461.80" width="8.40" height="8.40" fill="#555" stroke="none"/><rect x="287.50" y="125.80" width="8.40" height="8.40" fill="#555" stroke="none"/><rect x="350.50" y="125.80" width="8.40" height="8.40" fill="#555" stroke="none"/><rect x="419.80" y="461.80" width="8.40" height="8.40" fill="#555" stroke="none"/><rect x="419.80" y="293.80" width="8.40" height="8.40" fill="#555" stroke="none"/><rect x="419.80" y="293.80" width="8.40" height="8.40" fill="#555" stroke="none"/><rect x="461.80" y="293.80" width="8.40" height="8.40" fill="#555" stroke="none"/><rect x="125.80" y="461.80" width="8.40" height="8.40" fill="#555" stroke="none"/><rect x="287.50" y="461.80" width="8.40" height="8.40" fill="#555" stroke="none"/><rect x="125.80" y="461.80" width="8.40" height="8.40" fill="#555" stroke="none"/><rect x="125.80" y="256.00" width="8.40" height="8.40" fill="#555" stroke="none"/><rect x="125.80" y="125.80" width="8.40" height="8.40" fill="#555" stroke="none"/><rect x="287.50" y="125.80" width="8.40" height="8.40" fill="#555" stroke="none"/><rect x="125.80" y="256.00" width="8.40" height="8.40" fill="#555" stroke="none"/><rect x="125.80" y="125.80" width="8.40" height="8.40" fill="#555" stroke="none"/><rect x="287.50" y="125.80" width="8.40" height="8.40" fill="#555" stroke="none"/><rect x="350.50" y="125.80" width="8.40" height="8.40" fill="#555" stroke="none"/><rect x="287.50" y="461.80" width="8.40" height="8.40" fill="#555" stroke="none"/><rect x="419.80" y="461.80" width="8.40" height="8.40" fill="#555" stroke="none"/><rect x="461.80" y="293.80" width="8.40" height="8.40" fill="#555" stroke="none"/><rect x="350.50" y="125.80" width="8.40" height="8.40" fill="#555" stroke="none"/><rect x="461.80" y="125.80" width="8.40" height="8.40" fill="#555" stroke="none"/><rect x="461.80" y="125.80" width="8.40" height="8.40" fill="#555" stroke="none"/><rect x="358.9" y="221.6" width="102.9" height="5.0" fill="#fce5cd" stroke="none"/><rect x="358.9" y="226.6" width="102.9" height="5.0" fill="#cfe2f3" stroke="none"/><rect x="286.7" y="426.1" width="5.0" height="33.6" fill="#d9ead3" stroke="none"/><rect x="291.7" y="426.1" width="5.0" height="33.6" fill="#cfe2f3" stroke="none"/><line x1="291.7" y1="459.7" x2="258.1" y2="459.7" stroke="#444" stroke-width="1.4"/><path d="M 258.1 459.7 A 33.6 33.6 0 0 1 291.7 426.1" fill="none" stroke="#999" stroke-width="0.7" stroke-dasharray="2 2"/><rect x="286.7" y="226.6" width="5.0" height="29.4" fill="#d9ead3" stroke="none"/><rect x="291.7" y="226.6" width="5.0" height="29.4" fill="#cfe2f3" stroke="none"/><line x1="291.7" y1="256.0" x2="262.3" y2="256.0" stroke="#444" stroke-width="1.4"/><path d="M 262.3 256.0 A 29.4 29.4 0 0 1 291.7 226.6" fill="none" stroke="#999" stroke-width="0.7" stroke-dasharray="2 2"/><rect x="298.0" y="221.6" width="29.4" height="5.0" fill="#ead1dc" stroke="none"/><rect x="298.0" y="226.6" width="29.4" height="5.0" fill="#cfe2f3" stroke="none"/><line x1="298.0" y1="226.6" x2="298.0" y2="197.2" stroke="#444" stroke-width="1.4"/><path d="M 298.0 197.2 A 29.4 29.4 0 0 1 327.4 226.6" fill="none" stroke="#999" stroke-width="0.7" stroke-dasharray="2 2"/><rect x="379.9" y="461.0" width="37.8" height="5.0" fill="#cfe2f3" stroke="none"/><rect x="379.9" y="466.0" width="37.8" height="5.0" fill="#fbfbf7" stroke="none"/><line x1="417.7" y1="466.0" x2="417.7" y2="428.2" stroke="#444" stroke-width="1.4"/><path d="M 417.7 428.2 A 37.8 37.8 0 0 0 379.9 466.0" fill="none" stroke="#999" stroke-width="0.7" stroke-dasharray="2 2"/><rect x="361.0" y="130.0" width="33.6" height="5.0" fill="#fce5cd" stroke="none"/><rect x="361.0" y="125.0" width="33.6" height="5.0" fill="#fbfbf7" stroke="none"/><line x1="361.0" y1="130.0" x2="361.0" y2="163.6" stroke="#444" stroke-width="1.4"/><path d="M 361.0 163.6 A 33.6 33.6 0 0 0 394.6 130.0" fill="none" stroke="#999" stroke-width="0.7" stroke-dasharray="2 2"/><rect x="130.0" y="312.7" width="5.0" height="100.8" fill="#d9ead3" stroke="none"/><rect x="125.0" y="312.7" width="5.0" height="100.8" fill="#fbfbf7" stroke="none"/><line x1="127.0" y1="413.5" x2="127.0" y2="312.7" stroke="#222" stroke-width="1.0"/><line x1="130.0" y1="413.5" x2="130.0" y2="312.7" stroke="#222" stroke-width="1.0"/><line x1="133.0" y1="413.5" x2="133.0" y2="312.7" stroke="#222" stroke-width="1.0"/><rect x="166.4" y="461.0" width="89.0" height="5.0" fill="#d9ead3" stroke="none"/><rect x="166.4" y="466.0" width="89.0" height="5.0" fill="#fbfbf7" stroke="none"/><line x1="166.4" y1="463.0" x2="255.3" y2="463.0" stroke="#222" stroke-width="1.0"/><line x1="166.4" y1="466.0" x2="255.3" y2="466.0" stroke="#222" stroke-width="1.0"/><line x1="166.4" y1="469.0" x2="255.3" y2="469.0" stroke="#222" stroke-width="1.0"/><rect x="166.4" y="130.0" width="89.0" height="5.0" fill="#d9ead3" stroke="none"/><rect x="166.4" y="125.0" width="89.0" height="5.0" fill="#fbfbf7" stroke="none"/><line x1="166.4" y1="127.0" x2="255.3" y2="127.0" stroke="#222" stroke-width="1.0"/><line x1="166.4" y1="130.0" x2="255.3" y2="130.0" stroke="#222" stroke-width="1.0"/><line x1="166.4" y1="133.0" x2="255.3" y2="133.0" stroke="#222" stroke-width="1.0"/><rect x="130.0" y="159.3" width="5.0" height="71.6" fill="#d9ead3" stroke="none"/><rect x="125.0" y="159.3" width="5.0" height="71.6" fill="#fbfbf7" stroke="none"/><line x1="127.0" y1="230.9" x2="127.0" y2="159.3" stroke="#222" stroke-width="1.0"/><line x1="130.0" y1="230.9" x2="130.0" y2="159.3" stroke="#222" stroke-width="1.0"/><line x1="133.0" y1="230.9" x2="133.0" y2="159.3" stroke="#222" stroke-width="1.0"/><rect x="307.4" y="130.0" width="31.5" height="5.0" fill="#ead1dc" stroke="none"/><rect x="307.4" y="125.0" width="31.5" height="5.0" fill="#fbfbf7" stroke="none"/><line x1="307.4" y1="127.0" x2="338.9" y2="127.0" stroke="#222" stroke-width="1.0"/><line x1="307.4" y1="130.0" x2="338.9" y2="130.0" stroke="#222" stroke-width="1.0"/><line x1="307.4" y1="133.0" x2="338.9" y2="133.0" stroke="#222" stroke-width="1.0"/><rect x="308.7" y="461.0" width="41.6" height="5.0" fill="#cfe2f3" stroke="none"/><rect x="308.7" y="466.0" width="41.6" height="5.0" fill="#fbfbf7" stroke="none"/><line x1="308.7" y1="463.0" x2="350.3" y2="463.0" stroke="#222" stroke-width="1.0"/><line x1="308.7" y1="466.0" x2="350.3" y2="466.0" stroke="#222" stroke-width="1.0"/><line x1="308.7" y1="469.0" x2="350.3" y2="469.0" stroke="#222" stroke-width="1.0"/><rect x="461.0" y="151.8" width="5.0" height="53.1" fill="#fce5cd" stroke="none"/><rect x="466.0" y="151.8" width="5.0" height="53.1" fill="#fbfbf7" stroke="none"/><line x1="463.0" y1="204.9" x2="463.0" y2="151.8" stroke="#222" stroke-width="1.0"/><line x1="466.0" y1="204.9" x2="466.0" y2="151.8" stroke="#222" stroke-width="1.0"/><line x1="469.0" y1="204.9" x2="469.0" y2="151.8" stroke="#222" stroke-width="1.0"/><rect x="417.7" y="130.0" width="37.8" height="5.0" fill="#fce5cd" stroke="none"/><rect x="417.7" y="125.0" width="37.8" height="5.0" fill="#fbfbf7" stroke="none"/><line x1="417.7" y1="127.0" x2="455.5" y2="127.0" stroke="#222" stroke-width="1.0"/><line x1="417.7" y1="130.0" x2="455.5" y2="130.0" stroke="#222" stroke-width="1.0"/><line x1="417.7" y1="133.0" x2="455.5" y2="133.0" stroke="#222" stroke-width="1.0"/></svg>