<svg xmlns="http://www.w3.org/2000/svg" width="596" height="596" viewBox="0 0 596 596"><rect x="0" y="0" width="596" height="596" fill="white"/><rect x="46.0" y="46.0" width="504.0" height="504.0" fill="#fbfbf7" stroke="#333" stroke-width="1.5"/><line x1="46.0" y1="46.0" x2="46.0" y2="38.0" stroke="#888" stroke-width="1"/><line x1="46.0" y1="550.0" x2="46.0" y2="558.0" stroke="#888" stroke-width="1"/><text x="46.0" y="36.0" text-anchor="middle" font-family="Arial" font-size="9" fill="#666">0</text><text x="46.0" y="566.0" text-anchor="middle" font-family="Arial" font-size="9" fill="#666">0</text><line x1="67.0" y1="46.0" x2="67.0" y2="42.0" stroke="#888" stroke-width="1"/><line x1="67.0" y1="550.0" x2="67.0" y2="554.0" stroke="#888" stroke-width="1"/><line x1="88.0" y1="46.0" x2="88.0" y2="38.0" stroke="#888" stroke-width="1"/><line x1="88.0" y1="550.0" x2="88.0" y2="558.0" stroke="#888" stroke-width="1"/><text x="88.0" y="36.0" text-anchor="middle" font-family="Arial" font-size="9" fill="#666">1</text><text x="88.0" y="566.0" text-anchor="middle" font-family="Arial" font-size="9" fill="#666">1</text><line x1="109.0" y1="46.0" x2="109.0" y2="42.0" stroke="#888" stroke-width="1"/><line x1="109.0" y1="550.0" x2="109.0" y2="554.0" stroke="#888" stroke-width="1"/><line x1="130.0" y1="46.0" x2="130.0" y2="38.0" stroke="#888" stroke-width="1"/><line x1="130.0" y1="550.0" x2="130.0" y2="558.0" stroke="#888" stroke-width="1"/><text x="130.0" y="36.0" text-anchor="middle" font-family="Arial" font-size="9" fill="#666">2</text><text x="130.0" y="566.0" text-anchor="middle" font-family="Arial" font-size="9" fill="#666">2</text><line x1="151.0" y1="46.0" x2="151.0" y2="42.0" stroke="#888" stroke-width="1"/><line x1="151.0" y1="550.0" x2="151.0" y2="554.0" stroke="#888" stroke-width="1"/><line x1="172.0" y1="46.0" x2="172.0" y2="38.0" stroke="#888" stroke-width="1"/><line x1="172.0" y1="550.0" x2="172.0" y2="558.0" stroke="#888" stroke-width="1"/><text x="172.0" y="36.0" text-anchor="middle" font-family="Arial" font-size="9" fill="#666">3</text><text x="172.0" y="566.0" text-anchor="middle" font-family="Arial" font-size="9" fill="#666">3</text><line x1="193.0" y1="46.0" x2="193.0" y2="42.0" stroke="#888" stroke-width="1"/><line x1="193.0" y1="550.0" x2="193.0" y2="554.0" stroke="#888" stroke-width="1"/><line x1="214.0" y1="46.0" x2="214.0" y2="38.0" stroke="#888" stroke-width="1"/><line x1="214.0" y1="550.0" x2="214.0" y2="558.0" stroke="#888" stroke-width="1"/><text x="214.0" y="36.0" text-anchor="middle" font-family="Arial" font-size="9" fill="#666">4</text><text x="214.0" y="566.0" text-anchor="middle" font-family="Arial" font-size="9" fill="#666">4</text><line x1="235.0" y1="46.0" x2="235.0" y2="42.0" stroke="#888" stroke-width="1"/><line x1="235.0" y1="550.0" x2="235.0" y2="554.0" stroke="#888" stroke-width="1"/><line x1="256.0" y1="46.0" x2="256.0" y2="38.0" stroke="#888" stroke-width="1"/><line x1="256.0" y1="550.0" x2="256.0" y2="558.0" stroke="#888" stroke-width="1"/><text x="256.0" y="36.0" text-anchor="middle" font-family="Arial" font-size="9" fill="#666">5</text><text x="256.0" y="566.0" text-anchor="middle" font-family="Arial" font-size="9" fill="#666">5</text><line x1="277.0" y1="46.0" x2="277.0" y2="42.0" stroke="#888" stroke-width="1"/><line x1="277.0" y1="550.0" x2="277.0" y2="554.0" stroke="#888" stroke-width="1"/><line x1="298.0" y1="46.0" x2="298.0" y2="38.0" stroke="#888" stroke-width="1"/><line x1="298.0" y1="550.0" x2="298.0" y2="558.0" stroke="#888" stroke-width="1"/><text x="298.0" y="36.0" text-anchor="middle" font-family="Arial" font-size="9" fill="#666">6</text><text x="298.0" y="566.0" text-anchor="middle" font-family="Arial" font-size="9" fill="#666">6</text><line x1="319.0" y1="46.0" x2="319.0" y2="42.0" stroke="#888" stroke-width="1"/><line x1="319.0" y1="550.0" x2="319.0" y2="554.0" stroke="#888" stroke-width="1"/><line x1="340.0" y1="46.0" x2="340.0" y2="38.0" stroke="#888" stroke-width="1"/><line x1="340.0" y1="550.0" x2="340.0" y2="558.0" stroke="#888" stroke-width="1"/><text x="340.0" y="36.0" text-anchor="middle" font-family="Arial" font-size="9" fill="#666">7</text><text x="340.0" y="566.0" text-anchor="middle" font-family="Arial" font-size="9" fill="#666">7</text><line x1="361.0" y1="46.0" x2="361.0" y2="42.0" stroke="#888" stroke-width="1"/><line x1="361.0" y1="550.0" x2="361.0" y2="554.0" stroke="#888" stroke-width="1"/><line x1="382.0" y1="46.0" x2="382.0" y2="38.0" stroke="#888" stroke-width="1"/><line x1="382.0" y1="550.0" x2="382.0" y2="558.0" stroke="#888" stroke-width="1"/><text x="382.0" y="36.0" text-anchor="middle" font-family="Arial" font-size="9" fill="#666">8</text><text x="382.0" y="566.0" text-anchor="middle" font-family="Arial" font-size="9" fill="#666">8</text><line x1="403.0" y1="46.0" x2="403.0" y2="42.0" stroke="#888" stroke-width="1"/><line x1="403.0" y1="550.0" x2="403.0" y2="554.0" stroke="#888" stroke-width="1"/><line x1="424.0" y1="46.0" x2="424.0" y2="38.0" stroke="#888" stroke-width="1"/><line x1="424.0" y1="550.0" x2="424.0" y2="558.0" stroke="#888" stroke-width="1"/><text x="424.0" y="36.0" text-anchor="middle" font-family="Arial" font-size="9" fill="#666">9</text><text x="424.0" y="566.0" text-anchor="middle" font-family="Arial" font-size="9" fill="#666">9</text><line x1="445.0" y1="46.0" x2="445.0" y2="42.0" stroke="#888" stroke-width="1"/><line x1="445.0" y1="550.0" x2="445.0" y2="554.0" stroke="#888" stroke-width="1"/><line x1="466.0" y1="46.0" x2="466.0" y2="38.0" stroke="#888" stroke-width="1"/><line x1="466.0" y1="550.0" x2="466.0" y2="558.0" stroke="#888" stroke-width="1"/><text x="466.0" y="36.0" text-anchor="middle" font-family="Arial" font-size="9" fill="#666">10</text><text x="466.0" y="566.0" text-anchor="middle" font-family="Arial" font-size="9" fill="#666">10</text><line x1="487.0" y1="46.0" x2="487.0" y2="42.0" stroke="#888" stroke-width="1"/><line x1="487.0" y1="550.0" x2="487.0" y2="554.0" stroke="#888" stroke-width="1"/><line x1="508.0" y1="46.0" x2="508.0" y2="38.0" stroke="#888" stroke-width="1"/><line x1="508.0" y1="550.0" x2="508.0" y2="558.0" stroke="#888" stroke-width="1"/><text x="508.0" y="36.0" text-anchor="middle" font-family="Arial" font-size="9" fill="#666">11</text><text x="508.0" y="566.0" text-anchor="middle" font-family="Arial" font-size="9" fill="#666">11</text><line x1="529.0" y1="46.0" x2="529.0" y2="42.0" stroke="#888" stroke-width="1"/><line x1="529.0" y1="550.0" x2="529.0" y2="554.0" stroke="#888" stroke-width="1"/><line x1="550.0" y1="46.0" x2="550.0" y2="38.0" stroke="#888" stroke-width="1"/><line x1="550.0" y1="550.0" x2="550.0" y2="558.0" stroke="#888" stroke-width="1"/><text x="550.0" y="36.0" text-anchor="middle" font-family="Arial" font-size="9" fill="#666">12</text><text x="550.0" y="566.0" text-anchor="middle" font-family="Arial" font-size="9" fill="#666">12</text><line x1="46.0" y1="550.0" x2="38.0" y2="550.0" stroke="#888" stroke-width="1"/><line x1="550.0" y1="550.0" x2="558.0" y2="550.0" stroke="#888" stroke-width="1"/><text x="36.0" y="553.0" text-anchor="end" font-family="Arial" font-size="9" fill="#666">0</text><text x="560.0" y="553.0" text-anchor="start" font-family="Arial" font-size="9" fill="#666">0</text><line x1="46.0" y1="529.0" x2="42.0" y2="529.0" stroke="#888" stroke-width="1"/><line x1="550.0" y1="529.0" x2="554.0" y2="529.0" stroke="#888" stroke-width="1"/><line x1="46.0" y1="508.0" x2="38.0" y2="508.0" stroke="#888" stroke-width="1"/><line x1="550.0" y1="508.0" x2="558.0" y2="508.0" stroke="#888" stroke-width="1"/><text x="36.0" y="511.0" text-anchor="end" font-family="Arial" font-size="9" fill="#666">1</text><text x="560.0" y="511.0" text-anchor="start" font-family="Arial" font-size="9" fill="#666">1</text><line x1="46.0" y1="487.0" x2="42.0" y2="487.0" stroke="#888" stroke-width="1"/><line x1="550.0" y1="487.0" x2="554.0" y2="487.0" stroke="#888" stroke-width="1"/><line x1="46.0" y1="466.0" x2="38.0" y2="466.0" stroke="#888" stroke-width="1"/><line x1="550.0" y1="466.0" x2="558.0" y2="466.0" stroke="#888" stroke-width="1"/><text x="36.0" y="469.0" text-anchor="end" font-family="Arial" font-size="9" fill="#666">2</text><text x="560.0" y="469.0" text-anchor="start" font-family="Arial" font-size="9" fill="#666">2</text><line x1="46.0" y1="445.0" x2="42.0" y2="445.0" stroke="#888" stroke-width="1"/><line x1="550.0" y1="445.0" x2="554.0" y2="445.0" stroke="#888" stroke-width="1"/><line x1="46.0" y1="424.0" x2="38.0" y2="424.0" stroke="#888" stroke-width="1"/><line x1="550.0" y1="424.0" x2="558.0" y2="424.0" stroke="#888" stroke-width="1"/><text x="36.0" y="427.0" text-anchor="end" font-family="Arial" font-size="9" fill="#666">3</text><text x="560.0" y="427.0" text-anchor="start" font-family="Arial" font-size="9" fill="#666">3</text><line x1="46.0" y1="403.0" x2="42.0" y2="403.0" stroke="#888" stroke-width="1"/><line x1="550.0" y1="403.0" x2="554.0" y2="403.0" stroke="#888" stroke-width="1"/><line x1="46.0" y1="382.0" x2="38.0" y2="382.0" stroke="#888" stroke-width="1"/><line x1="550.0" y1="382.0" x2="558.0" y2="382.0" stroke="#888" stroke-width="1"/><text x="36.0" y="385.0" text-anchor="end" font-family="Arial" font-size="9" fill="#666">4</text><text x="560.0" y="385.0" text-anchor="start" font-family="Arial" font-size="9" fill="#666">4</text><line x1="46.0" y1="361.0" x2="42.0" y2="361.0" stroke="#888" stroke-width="1"/><line x1="550.0" y1="361.0" x2="554.0" y2="361.0" stroke="#888" stroke-width="1"/><line x1="46.0" y1="340.0" x2="38.0" y2="340.0" stroke="#888" stroke-width="1"/><line x1="550.0" y1="340.0" x2="558.0" y2="340.0" stroke="#888" stroke-width="1"/><text x="36.0" y="343.0" text-anchor="end" font-family="Arial" font-size="9" fill="#666">5</text><text x="560.0" y="343.0" text-anchor="start" font-family="Arial" font-size="9" fill="#666">5</text><line x1="46.0" y1="319.0" x2="42.0" y2="319.0" stroke="#888" stroke-width="1"/><line x1="550.0" y1="319.0" x2="554.0" y2="319.0" stroke="#888" stroke-width="1"/><line x1="46.0" y1="298.0" x2="38.0" y2="298.0" stroke="#888" stroke-width="1"/><line x1="550.0" y1="298.0" x2="558.0" y2="298.0" stroke="#888" stroke-width="1"/><text x="36.0" y="301.0" text-anchor="end" font-family="Arial" font-size="9" fill="#666">6</text><text x="560.0" y="301.0" text-anchor="start" font-family="Arial" font-size="9" fill="#666">6</text><line x1="46.0" y1="277.0" x2="42.0" y2="277.0" stroke="#888" stroke-width="1"/><line x1="550.0" y1="277.0" x2="554.0" y2="277.0" stroke="#888" stroke-width="1"/><line x1="46.0" y1="256.0" x2="38.0" y2="256.0" stroke="#888" stroke-width="1"/><line x1="550.0" y1="256.0" x2="558.0" y2="256.0" stroke="#888" stroke-width="1"/><text x="36.0" y="259.0" text-anchor="end" font-family="Arial" font-size="9" fill="#666">7</text><text x="560.0" y="259.0" text-anchor="start" font-family="Arial" font-size="9" fill="#666">7</text><line x1="46.0" y1="235.0" x2="42.0" y2="235.0" stroke="#888" stroke-width="1"/><line x1="550.0" y1="235.0" x2="554.0" y2="235.0" stroke="#888" stroke-width="1"/><line x1="46.0" y1="214.0" x2="38.0" y2="214.0" stroke="#888" stroke-width="1"/><line x1="550.0" y1="214.0" x2="558.0" y2="214.0" stroke="#888" stroke-width="1"/><text x="36.0" y="217.0" text-anchor="end" font-family="Arial" font-size="9" fill="#666">8</text><text x="560.0" y="217.0" text-anchor="start" font-family="Arial" font-size="9" fill="#666">8</text><line x1="46.0" y1="193.0" x2="42.0" y2="193.0" stroke="#888" stroke-width="1"/><line x1="550.0" y1="193.0" x2="554.0" y2="193.0" stroke="#888" stroke-width="1"/><line x1="46.0" y1="172.0" x2="38.0" y2="172.0" stroke="#888" stroke-width="1"/><line x1="550.0" y1="172.0" x2="558.0" y2="172.0" stroke="#888" stroke-width="1"/><text x="36.0" y="175.0" text-anchor="end" font-family="Arial" font-size="9" fill="#666">9</text><text x="560.0" y="175.0" text-anchor="start" font-family="Arial" font-size="9" fill="#666">9</text><line x1="46.0" y1="151.0" x2="42.0" y2="151.0" stroke="#888" stroke-width="1"/><line x1="550.0" y1="151.0" x2="554.0" y2="151.0" stroke="#888" stroke-width="1"/><line x1="46.0" y1="130.0" x2="38.0" y2="130.0" stroke="#888" stroke-width="1"/><line x1="550.0" y1="130.0" x2="558.0" y2="130.0" stroke="#888" stroke-width="1"/><text x="36.0" y="133.0" text-anchor="end" font-family="Arial" font-size="9" fill="#666">10</text><text x="560.0" y="133.0" text-anchor="start" font-family="Arial" font-size="9" fill="#666">10</text><line x1="46.0" y1="109.0" x2="42.0" y2="109.0" stroke="#888" stroke-width="1"/><line x1="550.0" y1="109.0" x2="554.0" y2="109.0" stroke="#888" stroke-width="1"/><line x1="46.0" y1="88.0" x2="38.0" y2="88.0" stroke="#888" stroke-width="1"/><line x1="550.0" y1="88.0" x2="558.0" y2="88.0" stroke="#888" stroke-width="1"/><text x="36.0" y="91.0" text-anchor="end" font-family="Arial" font-size="9" fill="#666">11</text><text x="560.0" y="91.0" text-anchor="start" font-family="Arial" font-size="9" fill="#666">11</text><line x1="46.0" y1="67.0" x2="42.0" y2="67.0" stroke="#888" stroke-width="1"/><line x1="550.0" y1="67.0" x2="554.0" y2="67.0" stroke="#888" stroke-width="1"/><line x1="46.0" y1="46.0" x2="38.0" y2="46.0" stroke="#888" stroke-width="1"/><line x1="550.0" y1="46.0" x2="558.0" y2="46.0" stroke="#888" stroke-width="1"/><text x="36.0" y="49.0" text-anchor="end" font-family="Arial" font-size="9" fill="#666">12</text><text x="560.0" y="49.0" text-anchor="start" font-family="Arial" font-size="9" fill="#666">12</text><rect x="130.0" y="130.0" width="336.0" height="294.0" fill="none" stroke="#9aa" stroke-width="1" stroke-dasharray="3 3"/><rect x="194.3" y="442.1" width="207.5" height="106.7" fill="#f2f2f2" stroke="#333" stroke-width="1.5" stroke-dasharray="6 4"/><text x="298.0" y="492.8" text-anchor="middle" font-family="Arial" font-size="12" font-weight="bold" fill="#222">CARPORT</text><text x="298.0" y="508.6" text-anchor="middle" font-family="Arial" font-size="10" fill="#555">5.0×2.6 m</text><rect x="130.0" y="298.0" width="176.4" height="126.0" fill="#d9ead3" stroke="none"/><rect x="232.9" y="245.5" width="73.5" height="52.5" fill="#d9ead3" stroke="none"/><text x="218.2" y="358.4" text-anchor="middle" font-family="Arial" font-size="12" font-weight="bold" fill="#222">MASTER BR</text><text x="218.2" y="374.2" text-anchor="middle" font-family="Arial" font-size="10" fill="#555">14.8 sqm (L-shaped)</text><rect x="130.0" y="245.5" width="102.9" height="52.5" fill="#ead1dc" stroke="#333" stroke-width="1.5"/><text x="181.5" y="263.4" text-anchor="middle" font-family="Arial" font-size="12" font-weight="bold" fill="#222">ENSUITE</text><text x="181.5" y="279.1" text-anchor="middle" font-family="Arial" font-size="10" fill="#555">2.5×1.2 m</text><text x="181.5" y="290.6" text-anchor="middle" font-family="Arial" font-size="10" fill="#555">3.1 sqm</text><rect x="130.0" y="130.0" width="176.4" height="115.5" fill="#d9ead3" stroke="#333" stroke-width="1.5"/><text x="218.2" y="185.1" text-anchor="middle" font-family="Arial" font-size="12" font-weight="bold" fill="#222">BEDROOM</text><text x="218.2" y="200.9" text-anchor="middle" font-family="Arial" font-size="10" fill="#555">4.2×2.8 m · 11.6 sqm</text><rect x="306.4" y="130.0" width="79.8" height="69.3" fill="#ead1dc" stroke="#333" stroke-width="1.5"/><text x="346.3" y="156.3" text-anchor="middle" font-family="Arial" font-size="12" font-weight="bold" fill="#222">T&amp;B</text><text x="346.3" y="172.1" text-anchor="middle" font-family="Arial" font-size="10" fill="#555">1.9×1.6 m</text><text x="346.3" y="183.6" text-anchor="middle" font-family="Arial" font-size="10" fill="#555">3.1 sqm</text><rect x="306.4" y="340.0" width="159.6" height="84.0" fill="#cfe2f3" stroke="#333" stroke-width="1.5"/><text x="386.2" y="379.4" text-anchor="middle" font-family="Arial" font-size="12" font-weight="bold" fill="#222">LIVING</text><text x="386.2" y="395.2" text-anchor="middle" font-family="Arial" font-size="10" fill="#555">3.8×2.0 m · 7.6 sqm</text><rect x="306.4" y="199.3" width="159.6" height="140.7" fill="#cfe2f3" stroke="#333" stroke-width="1.5"/><text x="386.2" y="267.0" text-anchor="middle" font-family="Arial" font-size="12" font-weight="bold" fill="#222">DINING</text><text x="386.2" y="282.8" text-anchor="middle" font-family="Arial" font-size="10" fill="#555">3.8×3.4 m · 12.7 sqm</text><rect x="386.2" y="130.0" width="79.8" height="69.3" fill="#cfe2f3" stroke="#333" stroke-width="1.5"/><text x="426.1" y="156.3" text-anchor="middle" font-family="Arial" font-size="12" font-weight="bold" fill="#222">KITCHEN</text><text x="426.1" y="172.1" text-anchor="middle" font-family="Arial" font-size="10" fill="#555">1.9×1.6 m</text><text x="426.1" y="183.6" text-anchor="middle" font-family="Arial" font-size="10" fill="#555">3.1 sqm</text><text x="298.0" y="584.0" text-anchor="middle" font-family="Arial" font-size="12" font-weight="bold" fill="#888">FRONT (street)</text><rect x="130.00" y="295.90" width="102.90" height="4.20" fill="#555" stroke="none"/><rect x="304.30" y="340.00" width="4.20" height="84.00" fill="#555" stroke="none"/><rect x="304.30" y="298.00" width="4.20" height="42.00" fill="#555" stroke="none"/><rect x="230.80" y="245.50" width="4.20" height="52.50" fill="#555" stroke="none"/><rect x="232.90" y="243.40" width="73.50" height="4.20" fill="#555" stroke="none"/><rect x="304.30" y="245.50" width="4.20" height="52.50" fill="#555" stroke="none"/><rect x="130.00" y="243.40" width="102.90" height="4.20" fill="#555" stroke="none"/><rect x="304.30" y="130.00" width="4.20" height="69.30" fill="#555" stroke="none"/><rect x="304.30" y="199.30" width="4.20" height="46.20" fill="#555" stroke="none"/><rect x="306.40" y="197.20" width="79.80" height="4.20" fill="#555" stroke="none"/><rect x="384.10" y="130.00" width="4.20" height="69.30" fill="#555" stroke="none"/><rect x="130.00" y="419.80" width="176.40" height="8.40" fill="#555" stroke="none"/><rect x="125.80" y="298.00" width="8.40" height="126.00" fill="#555" stroke="none"/><rect x="125.80" y="245.50" width="8.40" height="52.50" fill="#555" stroke="none"/><rect x="130.00" y="125.80" width="176.40" height="8.40" fill="#555" stroke="none"/><rect x="125.80" y="130.00" width="8.40" height="115.50" fill="#555" stroke="none"/><rect x="306.40" y="125.80" width="79.80" height="8.40" fill="#555" stroke="none"/><rect x="306.40" y="419.80" width="159.60" height="8.40" fill="#555" stroke="none"/><rect x="461.80" y="340.00" width="8.40" height="84.00" fill="#555" stroke="none"/><rect x="461.80" y="199.30" width="8.40" height="140.70" fill="#555" stroke="none"/><rect x="386.20" y="125.80" width="79.80" height="8.40" fill="#555" stroke="none"/><rect x="461.80" y="130.00" width="8.40" height="69.30" fill="#555" stroke="none"/><rect x="125.80" y="293.80" width="8.40" height="8.40" fill="#555" stroke="none"/><rect x="230.80" y="295.90" width="4.20" height="4.20" fill="#555" stroke="none"/><rect x="302.20" y="419.80" width="8.40" height="8.40" fill="#555" stroke="none"/><rect x="230.80" y="295.90" width="4.20" height="4.20" fill="#555" stroke="none"/><rect x="230.80" y="243.40" width="4.20" height="4.20" fill="#555" stroke="none"/><rect x="230.80" y="243.40" width="4.20" height="4.20" fill="#555" stroke="none"/><rect x="304.30" y="243.40" width="4.20" height="4.20" fill="#555" stroke="none"/><rect x="304.30" y="243.40" width="4.20" height="4.20" fill="#555" stroke="none"/><rect x="125.80" y="241.30" width="8.40" height="8.40" fill="#555" stroke="none"/><rect x="230.80" y="243.40" width="4.20" height="4.20" fill="#555" stroke="none"/><rect x="304.30" y="197.20" width="4.20" height="4.20" fill="#555" stroke="none"/><rect x="302.20" y="125.80" width="8.40" height="8.40" fill="#555" stroke="none"/><rect x="304.30" y="243.40" width="4.20" height="4.20" fill="#555" stroke="none"/><rect x="304.30" y="197.20" width="4.20" height="4.20" fill="#555" stroke="none"/><rect x="304.30" y="197.20" width="4.20" height="4.20" fill="#555" stroke="none"/><rect x="382.00" y="125.80" width="8.40" height="8.40" fill="#555" stroke="none"/><rect x="125.80" y="419.80" width="8.40" height="8.40" fill="#555" stroke="none"/><rect x="302.20" y="419.80" width="8.40" height="8.40" fill="#555" stroke="none"/><rect x="125.80" y="419.80" width="8.40" height="8.40" fill="#555" stroke="none"/><rect x="125.80" y="293.80" width="8.40" height="8.40" fill="#555" stroke="none"/><rect x="125.80" y="293.80" width="8.40" height="8.40" fill="#555" stroke="none"/><rect x="125.80" y="241.30" width="8.40" height="8.40" fill="#555" stroke="none"/><rect x="125.80" y="125.80" width="8.40" height="8.40" fill="#555" stroke="none"/><rect x="302.20" y="125.80" width="8.40" height="8.40" fill="#555" stroke="none"/><rect x="125.80" y="241.30" width="8.40" height="8.40" fill="#555" stroke="none"/><rect x="125.80" y="125.80" width="8.40" height="8.40" fill="#555" stroke="none"/><rect x="302.20" y="125.80" width="8.40" height="8.40" fill="#555" stroke="none"/><rect x="382.00" y="125.80" width="8.40" height="8.40" fill="#555" stroke="none"/><rect x="302.20" y="419.80" width="8.40" height="8.40" fill="#555" stroke="none"/><rect x="461.80" y="419.80" width="8.40" height="8.40" fill="#555" stroke="none"/><rect x="461.80" y="419.80" width="8.40" height="8.40" fill="#555" stroke="none"/><rect x="382.00" y="125.80" width="8.40" height="8.40" fill="#555" stroke="none"/><rect x="461.80" y="125.80" width="8.40" height="8.40" fill="#555" stroke="none"/><rect x="461.80" y="125.80" width="8.40" height="8.40" fill="#555" stroke="none"/><rect x="308.5" y="340.0" width="155.4" height="5.0" fill="#cfe2f3" stroke="none"/><rect x="308.5" y="335.0" width="155.4" height="5.0" fill="#cfe2f3" stroke="none"/><rect x="388.3" y="199.3" width="75.6" height="5.0" fill="#cfe2f3" stroke="none"/><rect x="388.3" y="194.3" width="75.6" height="5.0" fill="#cfe2f3" stroke="none"/><rect x="381.2" y="163.6" width="5.0" height="29.4" fill="#ead1dc" stroke="none"/><rect x="386.2" y="163.6" width="5.0" height="29.4" fill="#cfe2f3" stroke="none"/><line x1="386.2" y1="193.0" x2="356.8" y2="193.0" stroke="#444" stroke-width="1.4"/><path d="M 356.8 193.0 A 29.4 29.4 0 0 1 386.2 163.6" fill="none" stroke="#999" stroke-width="0.7" stroke-dasharray="2 2"/><rect x="136.3" y="298.0" width="29.4" height="5.0" fill="#d9ead3" stroke="none"/><rect x="136.3" y="293.0" width="29.4" height="5.0" fill="#ead1dc" stroke="none"/><line x1="136.3" y1="298.0" x2="136.3" y2="268.6" stroke="#444" stroke-width="1.4"/><path d="M 136.3 268.6 A 29.4 29.4 0 0 1 165.7 298.0" fill="none" stroke="#999" stroke-width="0.7" stroke-dasharray="2 2"/><rect x="301.4" y="251.8" width="5.0" height="33.6" fill="#d9ead3" stroke="none"/><rect x="306.4" y="251.8" width="5.0" height="33.6" fill="#cfe2f3" stroke="none"/><line x1="306.4" y1="251.8" x2="272.8" y2="251.8" stroke="#444" stroke-width="1.4"/><path d="M 272.8 251.8 A 33.6 33.6 0 0 0 306.4 285.4" fill="none" stroke="#999" stroke-width="0.7" stroke-dasharray="2 2"/><rect x="301.4" y="205.6" width="5.0" height="33.6" fill="#d9ead3" stroke="none"/><rect x="306.4" y="205.6" width="5.0" height="33.6" fill="#cfe2f3" stroke="none"/><line x1="306.4" y1="239.2" x2="272.8" y2="239.2" stroke="#444" stroke-width="1.4"/><path d="M 272.8 239.2 A 33.6 33.6 0 0 1 306.4 205.6" fill="none" stroke="#999" stroke-width="0.7" stroke-dasharray="2 2"/><rect x="312.7" y="419.0" width="37.8" height="5.0" fill="#cfe2f3" stroke="none"/><rect x="312.7" y="424.0" width="37.8" height="5.0" fill="#fbfbf7" stroke="none"/><line x1="312.7" y1="424.0" x2="312.7" y2="386.2" stroke="#444" stroke-width="1.4"/><path d="M 312.7 386.2 A 37.8 37.8 0 0 1 350.5 424.0" fill="none" stroke="#999" stroke-width="0.7" stroke-dasharray="2 2"/><rect x="392.5" y="130.0" width="33.6" height="5.0" fill="#cfe2f3" stroke="none"/><rect x="392.5" y="125.0" width="33.6" height="5.0" fill="#fbfbf7" stroke="none"/><line x1="392.5" y1="130.0" x2="392.5" y2="163.6" stroke="#444" stroke-width="1.4"/><path d="M 392.5 163.6 A 33.6 33.6 0 0 0 426.1 130.0" fill="none" stroke="#999" stroke-width="0.7" stroke-dasharray="2 2"/><rect x="169.7" y="419.0" width="97.0" height="5.0" fill="#d9ead3" stroke="none"/><rect x="169.7" y="424.0" width="97.0" height="5.0" fill="#fbfbf7" stroke="none"/><line x1="169.7" y1="421.0" x2="266.7" y2="421.0" stroke="#222" stroke-width="1.0"/><line x1="169.7" y1="424.0" x2="266.7" y2="424.0" stroke="#222" stroke-width="1.0"/><line x1="169.7" y1="427.0" x2="266.7" y2="427.0" stroke="#222" stroke-width="1.0"/><rect x="130.0" y="326.4" width="5.0" height="69.3" fill="#d9ead3" stroke="none"/><rect x="125.0" y="326.4" width="5.0" height="69.3" fill="#fbfbf7" stroke="none"/><line x1="127.0" y1="395.6" x2="127.0" y2="326.4" stroke="#222" stroke-width="1.0"/><line x1="130.0" y1="395.6" x2="130.0" y2="326.4" stroke="#222" stroke-width="1.0"/><line x1="133.0" y1="395.6" x2="133.0" y2="326.4" stroke="#222" stroke-width="1.0"/><rect x="130.0" y="258.6" width="5.0" height="26.2" fill="#ead1dc" stroke="none"/><rect x="125.0" y="258.6" width="5.0" height="26.2" fill="#fbfbf7" stroke="none"/><line x1="127.0" y1="284.9" x2="127.0" y2="258.6" stroke="#222" stroke-width="1.0"/><line x1="130.0" y1="284.9" x2="130.0" y2="258.6" stroke="#222" stroke-width="1.0"/><line x1="133.0" y1="284.9" x2="133.0" y2="258.6" stroke="#222" stroke-width="1.0"/><rect x="169.7" y="130.0" width="97.0" height="5.0" fill="#d9ead3" stroke="none"/><rect x="169.7" y="125.0" width="97.0" height="5.0" fill="#fbfbf7" stroke="none"/><line x1="169.7" y1="127.0" x2="266.7" y2="127.0" stroke="#222" stroke-width="1.0"/><line x1="169.7" y1="130.0" x2="266.7" y2="130.0" stroke="#222" stroke-width="1.0"/><line x1="169.7" y1="133.0" x2="266.7" y2="133.0" stroke="#222" stroke-width="1.0"/><rect x="130.0" y="156.0" width="5.0" height="63.5" fill="#d9ead3" stroke="none"/><rect x="125.0" y="156.0" width="5.0" height="63.5" fill="#fbfbf7" stroke="none"/><line x1="127.0" y1="219.5" x2="127.0" y2="156.0" stroke="#222" stroke-width="1.0"/><line x1="130.0" y1="219.5" x2="130.0" y2="156.0" stroke="#222" stroke-width="1.0"/><line x1="133.0" y1="219.5" x2="133.0" y2="156.0" stroke="#222" stroke-width="1.0"/><rect x="327.4" y="130.0" width="37.8" height="5.0" fill="#ead1dc" stroke="none"/><rect x="327.4" y="125.0" width="37.8" height="5.0" fill="#fbfbf7" stroke="none"/><line x1="327.4" y1="127.0" x2="365.2" y2="127.0" stroke="#222" stroke-width="1.0"/><line x1="327.4" y1="130.0" x2="365.2" y2="130.0" stroke="#222" stroke-width="1.0"/><line x1="327.4" y1="133.0" x2="365.2" y2="133.0" stroke="#222" stroke-width="1.0"/><rect x="386.2" y="419.0" width="56.6" height="5.0" fill="#cfe2f3" stroke="none"/><rect x="386.2" y="424.0" width="56.6" height="5.0" fill="#fbfbf7" stroke="none"/><line x1="386.2" y1="421.0" x2="442.8" y2="421.0" stroke="#222" stroke-width="1.0"/><line x1="386.2" y1="424.0" x2="442.8" y2="424.0" stroke="#222" stroke-width="1.0"/><line x1="386.2" y1="427.0" x2="442.8" y2="427.0" stroke="#222" stroke-width="1.0"/><rect x="461.0" y="358.9" width="5.0" height="46.2" fill="#cfe2f3" stroke="none"/><rect x="466.0" y="358.9" width="5.0" height="46.2" fill="#fbfbf7" stroke="none"/><line x1="463.0" y1="405.1" x2="463.0" y2="358.9" stroke="#222" stroke-width="1.0"/><line x1="466.0" y1="405.1" x2="466.0" y2="358.9" stroke="#222" stroke-width="1.0"/><line x1="469.0" y1="405.1" x2="469.0" y2="358.9" stroke="#222" stroke-width="1.0"/><rect x="461.0" y="230.9" width="5.0" height="77.4" fill="#cfe2f3" stroke="none"/><rect x="466.0" y="230.9" width="5.0" height="77.4" fill="#fbfbf7" stroke="none"/><line x1="463.0" y1="308.3" x2="463.0" y2="230.9" stroke="#222" stroke-width="1.0"/><line x1="466.0" y1="308.3" x2="466.0" y2="230.9" stroke="#222" stroke-width="1.0"/><line x1="469.0" y1="308.3" x2="469.0" y2="230.9" stroke="#222" stroke-width="1.0"/><rect x="461.0" y="145.6" width="5.0" height="38.1" fill="#cfe2f3" stroke="none"/><rect x="466.0" y="145.6" width="5.0" height="38.1" fill="#fbfbf7" stroke="none"/><line x1="463.0" y1="183.7" x2="463.0" y2="145.6" stroke="#222" stroke-width="1.0"/><line x1="466.0" y1="183.7" x2="466.0" y2="145.6" stroke="#222" stroke-width="1.0"/><line x1="469.0" y1="183.7" x2="469.0" y2="145.6" stroke="#222" stroke-width="1.0"/></svg>