<svg xmlns="http://www.w3.org/2000/svg" width="638" height="596" viewBox="0 0 638 596"><rect x="0" y="0" width="638" height="596" fill="white"/><rect x="46.0" y="46.0" width="546.0" height="504.0" fill="#fbfbf7" stroke="#333" stroke-width="1.5"/><line x1="46.0" y1="46.0" x2="46.0" y2="38.0" stroke="#888" stroke-width="1"/><line x1="46.0" y1="550.0" x2="46.0" y2="558.0" stroke="#888" stroke-width="1"/><text x="46.0" y="36.0" text-anchor="middle" font-family="Arial" font-size="9" fill="#666">0</text><text x="46.0" y="566.0" text-anchor="middle" font-family="Arial" font-size="9" fill="#666">0</text><line x1="67.0" y1="46.0" x2="67.0" y2="42.0" stroke="#888" stroke-width="1"/><line x1="67.0" y1="550.0" x2="67.0" y2="554.0" stroke="#888" stroke-width="1"/><line x1="88.0" y1="46.0" x2="88.0" y2="38.0" stroke="#888" stroke-width="1"/><line x1="88.0" y1="550.0" x2="88.0" y2="558.0" stroke="#888" stroke-width="1"/><text x="88.0" y="36.0" text-anchor="middle" font-family="Arial" font-size="9" fill="#666">1</text><text x="88.0" y="566.0" text-anchor="middle" font-family="Arial" font-size="9" fill="#666">1</text><line x1="109.0" y1="46.0" x2="109.0" y2="42.0" stroke="#888" stroke-width="1"/><line x1="109.0" y1="550.0" x2="109.0" y2="554.0" stroke="#888" stroke-width="1"/><line x1="130.0" y1="46.0" x2="130.0" y2="38.0" stroke="#888" stroke-width="1"/><line x1="130.0" y1="550.0" x2="130.0" y2="558.0" stroke="#888" stroke-width="1"/><text x="130.0" y="36.0" text-anchor="middle" font-family="Arial" font-size="9" fill="#666">2</text><text x="130.0" y="566.0" text-anchor="middle" font-family="Arial" font-size="9" fill="#666">2</text><line x1="151.0" y1="46.0" x2="151.0" y2="42.0" stroke="#888" stroke-width="1"/><line x1="151.0" y1="550.0" x2="151.0" y2="554.0" stroke="#888" stroke-width="1"/><line x1="172.0" y1="46.0" x2="172.0" y2="38.0" stroke="#888" stroke-width="1"/><line x1="172.0" y1="550.0" x2="172.0" y2="558.0" stroke="#888" stroke-width="1"/><text x="172.0" y="36.0" text-anchor="middle" font-family="Arial" font-size="9" fill="#666">3</text><text x="172.0" y="566.0" text-anchor="middle" font-family="Arial" font-size="9" fill="#666">3</text><line x1="193.0" y1="46.0" x2="193.0" y2="42.0" stroke="#888" stroke-width="1"/><line x1="193.0" y1="550.0" x2="193.0" y2="554.0" stroke="#888" stroke-width="1"/><line x1="214.0" y1="46.0" x2="214.0" y2="38.0" stroke="#888" stroke-width="1"/><line x1="214.0" y1="550.0" x2="214.0" y2="558.0" stroke="#888" stroke-width="1"/><text x="214.0" y="36.0" text-anchor="middle" font-family="Arial" font-size="9" fill="#666">4</text><text x="214.0" y="566.0" text-anchor="middle" font-family="Arial" font-size="9" fill="#666">4</text><line x1="235.0" y1="46.0" x2="235.0" y2="42.0" stroke="#888" stroke-width="1"/><line x1="235.0" y1="550.0" x2="235.0" y2="554.0" stroke="#888" stroke-width="1"/><line x1="256.0" y1="46.0" x2="256.0" y2="38.0" stroke="#888" stroke-width="1"/><line x1="256.0" y1="550.0" x2="256.0" y2="558.0" stroke="#888" stroke-width="1"/><text x="256.0" y="36.0" text-anchor="middle" font-family="Arial" font-size="9" fill="#666">5</text><text x="256.0" y="566.0" text-anchor="middle" font-family="Arial" font-size="9" fill="#666">5</text><line x1="277.0" y1="46.0" x2="277.0" y2="42.0" stroke="#888" stroke-width="1"/><line x1="277.0" y1="550.0" x2="277.0" y2="554.0" stroke="#888" stroke-width="1"/><line x1="298.0" y1="46.0" x2="298.0" y2="38.0" stroke="#888" stroke-width="1"/><line x1="298.0" y1="550.0" x2="298.0" y2="558.0" stroke="#888" stroke-width="1"/><text x="298.0" y="36.0" text-anchor="middle" font-family="Arial" font-size="9" fill="#666">6</text><text x="298.0" y="566.0" text-anchor="middle" font-family="Arial" font-size="9" fill="#666">6</text><line x1="319.0" y1="46.0" x2="319.0" y2="42.0" stroke="#888" stroke-width="1"/><line x1="319.0" y1="550.0" x2="319.0" y2="554.0" stroke="#888" stroke-width="1"/><line x1="340.0" y1="46.0" x2="340.0" y2="38.0" stroke="#888" stroke-width="1"/><line x1="340.0" y1="550.0" x2="340.0" y2="558.0" stroke="#888" stroke-width="1"/><text x="340.0" y="36.0" text-anchor="middle" font-family="Arial" font-size="9" fill="#666">7</text><text x="340.0" y="566.0" text-anchor="middle" font-family="Arial" font-size="9" fill="#666">7</text><line x1="361.0" y1="46.0" x2="361.0" y2="42.0" stroke="#888" stroke-width="1"/><line x1="361.0" y1="550.0" x2="361.0" y2="554.0" stroke="#888" stroke-width="1"/><line x1="382.0" y1="46.0" x2="382.0" y2="38.0" stroke="#888" stroke-width="1"/><line x1="382.0" y1="550.0" x2="382.0" y2="558.0" stroke="#888" stroke-width="1"/><text x="382.0" y="36.0" text-anchor="middle" font-family="Arial" font-size="9" fill="#666">8</text><text x="382.0" y="566.0" text-anchor="middle" font-family="Arial" font-size="9" fill="#666">8</text><line x1="403.0" y1="46.0" x2="403.0" y2="42.0" stroke="#888" stroke-width="1"/><line x1="403.0" y1="550.0" x2="403.0" y2="554.0" stroke="#888" stroke-width="1"/><line x1="424.0" y1="46.0" x2="424.0" y2="38.0" stroke="#888" stroke-width="1"/><line x1="424.0" y1="550.0" x2="424.0" y2="558.0" stroke="#888" stroke-width="1"/><text x="424.0" y="36.0" text-anchor="middle" font-family="Arial" font-size="9" fill="#666">9</text><text x="424.0" y="566.0" text-anchor="middle" font-family="Arial" font-size="9" fill="#666">9</text><line x1="445.0" y1="46.0" x2="445.0" y2="42.0" stroke="#888" stroke-width="1"/><line x1="445.0" y1="550.0" x2="445.0" y2="554.0" stroke="#888" stroke-width="1"/><line x1="466.0" y1="46.0" x2="466.0" y2="38.0" stroke="#888" stroke-width="1"/><line x1="466.0" y1="550.0" x2="466.0" y2="558.0" stroke="#888" stroke-width="1"/><text x="466.0" y="36.0" text-anchor="middle" font-family="Arial" font-size="9" fill="#666">10</text><text x="466.0" y="566.0" text-anchor="middle" font-family="Arial" font-size="9" fill="#666">10</text><line x1="487.0" y1="46.0" x2="487.0" y2="42.0" stroke="#888" stroke-width="1"/><line x1="487.0" y1="550.0" x2="487.0" y2="554.0" stroke="#888" stroke-width="1"/><line x1="508.0" y1="46.0" x2="508.0" y2="38.0" stroke="#888" stroke-width="1"/><line x1="508.0" y1="550.0" x2="508.0" y2="558.0" stroke="#888" stroke-width="1"/><text x="508.0" y="36.0" text-anchor="middle" font-family="Arial" font-size="9" fill="#666">11</text><text x="508.0" y="566.0" text-anchor="middle" font-family="Arial" font-size="9" fill="#666">11</text><line x1="529.0" y1="46.0" x2="529.0" y2="42.0" stroke="#888" stroke-width="1"/><line x1="529.0" y1="550.0" x2="529.0" y2="554.0" stroke="#888" stroke-width="1"/><line x1="550.0" y1="46.0" x2="550.0" y2="38.0" stroke="#888" stroke-width="1"/><line x1="550.0" y1="550.0" x2="550.0" y2="558.0" stroke="#888" stroke-width="1"/><text x="550.0" y="36.0" text-anchor="middle" font-family="Arial" font-size="9" fill="#666">12</text><text x="550.0" y="566.0" text-anchor="middle" font-family="Arial" font-size="9" fill="#666">12</text><line x1="571.0" y1="46.0" x2="571.0" y2="42.0" stroke="#888" stroke-width="1"/><line x1="571.0" y1="550.0" x2="571.0" y2="554.0" stroke="#888" stroke-width="1"/><line x1="592.0" y1="46.0" x2="592.0" y2="38.0" stroke="#888" stroke-width="1"/><line x1="592.0" y1="550.0" x2="592.0" y2="558.0" stroke="#888" stroke-width="1"/><text x="592.0" y="36.0" text-anchor="middle" font-family="Arial" font-size="9" fill="#666">13</text><text x="592.0" y="566.0" text-anchor="middle" font-family="Arial" font-size="9" fill="#666">13</text><line x1="46.0" y1="550.0" x2="38.0" y2="550.0" stroke="#888" stroke-width="1"/><line x1="592.0" y1="550.0" x2="600.0" y2="550.0" stroke="#888" stroke-width="1"/><text x="36.0" y="553.0" text-anchor="end" font-family="Arial" font-size="9" fill="#666">0</text><text x="602.0" y="553.0" text-anchor="start" font-family="Arial" font-size="9" fill="#666">0</text><line x1="46.0" y1="529.0" x2="42.0" y2="529.0" stroke="#888" stroke-width="1"/><line x1="592.0" y1="529.0" x2="596.0" y2="529.0" stroke="#888" stroke-width="1"/><line x1="46.0" y1="508.0" x2="38.0" y2="508.0" stroke="#888" stroke-width="1"/><line x1="592.0" y1="508.0" x2="600.0" y2="508.0" stroke="#888" stroke-width="1"/><text x="36.0" y="511.0" text-anchor="end" font-family="Arial" font-size="9" fill="#666">1</text><text x="602.0" y="511.0" text-anchor="start" font-family="Arial" font-size="9" fill="#666">1</text><line x1="46.0" y1="487.0" x2="42.0" y2="487.0" stroke="#888" stroke-width="1"/><line x1="592.0" y1="487.0" x2="596.0" y2="487.0" stroke="#888" stroke-width="1"/><line x1="46.0" y1="466.0" x2="38.0" y2="466.0" stroke="#888" stroke-width="1"/><line x1="592.0" y1="466.0" x2="600.0" y2="466.0" stroke="#888" stroke-width="1"/><text x="36.0" y="469.0" text-anchor="end" font-family="Arial" font-size="9" fill="#666">2</text><text x="602.0" y="469.0" text-anchor="start" font-family="Arial" font-size="9" fill="#666">2</text><line x1="46.0" y1="445.0" x2="42.0" y2="445.0" stroke="#888" stroke-width="1"/><line x1="592.0" y1="445.0" x2="596.0" y2="445.0" stroke="#888" stroke-width="1"/><line x1="46.0" y1="424.0" x2="38.0" y2="424.0" stroke="#888" stroke-width="1"/><line x1="592.0" y1="424.0" x2="600.0" y2="424.0" stroke="#888" stroke-width="1"/><text x="36.0" y="427.0" text-anchor="end" font-family="Arial" font-size="9" fill="#666">3</text><text x="602.0" y="427.0" text-anchor="start" font-family="Arial" font-size="9" fill="#666">3</text><line x1="46.0" y1="403.0" x2="42.0" y2="403.0" stroke="#888" stroke-width="1"/><line x1="592.0" y1="403.0" x2="596.0" y2="403.0" stroke="#888" stroke-width="1"/><line x1="46.0" y1="382.0" x2="38.0" y2="382.0" stroke="#888" stroke-width="1"/><line x1="592.0" y1="382.0" x2="600.0" y2="382.0" stroke="#888" stroke-width="1"/><text x="36.0" y="385.0" text-anchor="end" font-family="Arial" font-size="9" fill="#666">4</text><text x="602.0" y="385.0" text-anchor="start" font-family="Arial" font-size="9" fill="#666">4</text><line x1="46.0" y1="361.0" x2="42.0" y2="361.0" stroke="#888" stroke-width="1"/><line x1="592.0" y1="361.0" x2="596.0" y2="361.0" stroke="#888" stroke-width="1"/><line x1="46.0" y1="340.0" x2="38.0" y2="340.0" stroke="#888" stroke-width="1"/><line x1="592.0" y1="340.0" x2="600.0" y2="340.0" stroke="#888" stroke-width="1"/><text x="36.0" y="343.0" text-anchor="end" font-family="Arial" font-size="9" fill="#666">5</text><text x="602.0" y="343.0" text-anchor="start" font-family="Arial" font-size="9" fill="#666">5</text><line x1="46.0" y1="319.0" x2="42.0" y2="319.0" stroke="#888" stroke-width="1"/><line x1="592.0" y1="319.0" x2="596.0" y2="319.0" stroke="#888" stroke-width="1"/><line x1="46.0" y1="298.0" x2="38.0" y2="298.0" stroke="#888" stroke-width="1"/><line x1="592.0" y1="298.0" x2="600.0" y2="298.0" stroke="#888" stroke-width="1"/><text x="36.0" y="301.0" text-anchor="end" font-family="Arial" font-size="9" fill="#666">6</text><text x="602.0" y="301.0" text-anchor="start" font-family="Arial" font-size="9" fill="#666">6</text><line x1="46.0" y1="277.0" x2="42.0" y2="277.0" stroke="#888" stroke-width="1"/><line x1="592.0" y1="277.0" x2="596.0" y2="277.0" stroke="#888" stroke-width="1"/><line x1="46.0" y1="256.0" x2="38.0" y2="256.0" stroke="#888" stroke-width="1"/><line x1="592.0" y1="256.0" x2="600.0" y2="256.0" stroke="#888" stroke-width="1"/><text x="36.0" y="259.0" text-anchor="end" font-family="Arial" font-size="9" fill="#666">7</text><text x="602.0" y="259.0" text-anchor="start" font-family="Arial" font-size="9" fill="#666">7</text><line x1="46.0" y1="235.0" x2="42.0" y2="235.0" stroke="#888" stroke-width="1"/><line x1="592.0" y1="235.0" x2="596.0" y2="235.0" stroke="#888" stroke-width="1"/><line x1="46.0" y1="214.0" x2="38.0" y2="214.0" stroke="#888" stroke-width="1"/><line x1="592.0" y1="214.0" x2="600.0" y2="214.0" stroke="#888" stroke-width="1"/><text x="36.0" y="217.0" text-anchor="end" font-family="Arial" font-size="9" fill="#666">8</text><text x="602.0" y="217.0" text-anchor="start" font-family="Arial" font-size="9" fill="#666">8</text><line x1="46.0" y1="193.0" x2="42.0" y2="193.0" stroke="#888" stroke-width="1"/><line x1="592.0" y1="193.0" x2="596.0" y2="193.0" stroke="#888" stroke-width="1"/><line x1="46.0" y1="172.0" x2="38.0" y2="172.0" stroke="#888" stroke-width="1"/><line x1="592.0" y1="172.0" x2="600.0" y2="172.0" stroke="#888" stroke-width="1"/><text x="36.0" y="175.0" text-anchor="end" font-family="Arial" font-size="9" fill="#666">9</text><text x="602.0" y="175.0" text-anchor="start" font-family="Arial" font-size="9" fill="#666">9</text><line x1="46.0" y1="151.0" x2="42.0" y2="151.0" stroke="#888" stroke-width="1"/><line x1="592.0" y1="151.0" x2="596.0" y2="151.0" stroke="#888" stroke-width="1"/><line x1="46.0" y1="130.0" x2="38.0" y2="130.0" stroke="#888" stroke-width="1"/><line x1="592.0" y1="130.0" x2="600.0" y2="130.0" stroke="#888" stroke-width="1"/><text x="36.0" y="133.0" text-anchor="end" font-family="Arial" font-size="9" fill="#666">10</text><text x="602.0" y="133.0" text-anchor="start" font-family="Arial" font-size="9" fill="#666">10</text><line x1="46.0" y1="109.0" x2="42.0" y2="109.0" stroke="#888" stroke-width="1"/><line x1="592.0" y1="109.0" x2="596.0" y2="109.0" stroke="#888" stroke-width="1"/><line x1="46.0" y1="88.0" x2="38.0" y2="88.0" stroke="#888" stroke-width="1"/><line x1="592.0" y1="88.0" x2="600.0" y2="88.0" stroke="#888" stroke-width="1"/><text x="36.0" y="91.0" text-anchor="end" font-family="Arial" font-size="9" fill="#666">11</text><text x="602.0" y="91.0" text-anchor="start" font-family="Arial" font-size="9" fill="#666">11</text><line x1="46.0" y1="67.0" x2="42.0" y2="67.0" stroke="#888" stroke-width="1"/><line x1="592.0" y1="67.0" x2="596.0" y2="67.0" stroke="#888" stroke-width="1"/><line x1="46.0" y1="46.0" x2="38.0" y2="46.0" stroke="#888" stroke-width="1"/><line x1="592.0" y1="46.0" x2="600.0" y2="46.0" stroke="#888" stroke-width="1"/><text x="36.0" y="49.0" text-anchor="end" font-family="Arial" font-size="9" fill="#666">12</text><text x="602.0" y="49.0" text-anchor="start" font-family="Arial" font-size="9" fill="#666">12</text><rect x="130.0" y="130.0" width="336.0" height="336.0" fill="none" stroke="#9aa" stroke-width="1" stroke-dasharray="3 3"/><rect x="466.0" y="327.4" width="109.2" height="210.0" fill="#f2f2f2" stroke="#333" stroke-width="1.5" stroke-dasharray="6 4"/><text x="520.6" y="429.8" text-anchor="middle" font-family="Arial" font-size="12" font-weight="bold" fill="#222">CARPORT</text><text x="520.6" y="445.6" text-anchor="middle" font-family="Arial" font-size="10" fill="#555">2.6×5.0 m</text><rect x="340.0" y="58.6" width="126.0" height="67.2" fill="#f2f2f2" stroke="#333" stroke-width="1.5" stroke-dasharray="6 4"/><text x="403.0" y="89.6" text-anchor="middle" font-family="Arial" font-size="12" font-weight="bold" fill="#222">DIRTY KITCHEN</text><text x="403.0" y="105.4" text-anchor="middle" font-family="Arial" font-size="10" fill="#555">3.0×1.6 m</text><rect x="130.0" y="58.6" width="210.0" height="67.2" fill="#f2f2f2" stroke="#333" stroke-width="1.5" stroke-dasharray="6 4"/><text x="235.0" y="89.6" text-anchor="middle" font-family="Arial" font-size="12" font-weight="bold" fill="#222">SERVICE</text><text x="235.0" y="105.4" text-anchor="middle" font-family="Arial" font-size="10" fill="#555">5.0×1.6 m</text><rect x="193.0" y="298.0" width="147.0" height="168.0" fill="#d9ead3" stroke="#333" stroke-width="1.5"/><text x="266.5" y="379.4" text-anchor="middle" font-family="Arial" font-size="12" font-weight="bold" fill="#222">MASTER BR</text><text x="266.5" y="395.2" text-anchor="middle" font-family="Arial" font-size="10" fill="#555">3.5×4.0 m · 14.0 sqm</text><rect x="130.0" y="382.0" width="63.0" height="84.0" fill="#ead1dc" stroke="#333" stroke-width="1.5"/><text x="161.5" y="415.6" text-anchor="middle" font-family="Arial" font-size="12" font-weight="bold" fill="#222">ENSUITE</text><text x="161.5" y="431.4" text-anchor="middle" font-family="Arial" font-size="10" fill="#555">1.5×2.0 m</text><text x="161.5" y="442.9" text-anchor="middle" font-family="Arial" font-size="10" fill="#555">3.0 sqm</text><rect x="130.0" y="130.0" width="105.0" height="168.0" fill="#d9ead3" stroke="#333" stroke-width="1.5"/><text x="182.5" y="205.6" text-anchor="middle" font-family="Arial" font-size="12" font-weight="bold" fill="#222">BEDROOM</text><text x="182.5" y="221.4" text-anchor="middle" font-family="Arial" font-size="10" fill="#555">2.5×4.0 m</text><text x="182.5" y="232.9" text-anchor="middle" font-family="Arial" font-size="10" fill="#555">10.0 sqm</text><rect x="130.0" y="298.0" width="63.0" height="84.0" fill="#ead1dc" stroke="#333" stroke-width="1.5"/><text x="161.5" y="331.6" text-anchor="middle" font-family="Arial" font-size="12" font-weight="bold" fill="#222">ENSUITE</text><text x="161.5" y="347.4" text-anchor="middle" font-family="Arial" font-size="10" fill="#555">1.5×2.0 m</text><text x="161.5" y="358.9" text-anchor="middle" font-family="Arial" font-size="10" fill="#555">3.0 sqm</text><rect x="340.0" y="214.0" width="126.0" height="252.0" fill="#cfe2f3" stroke="#333" stroke-width="1.5"/><text x="403.0" y="331.6" text-anchor="middle" font-family="Arial" font-size="12" font-weight="bold" fill="#222">LIVING</text><text x="403.0" y="347.4" text-anchor="middle" font-family="Arial" font-size="10" fill="#555">3.0×6.0 m</text><text x="403.0" y="358.9" text-anchor="middle" font-family="Arial" font-size="10" fill="#555">18.0 sqm</text><rect x="235.0" y="130.0" width="105.0" height="168.0" fill="#cfe2f3" stroke="#333" stroke-width="1.5"/><text x="287.5" y="205.6" text-anchor="middle" font-family="Arial" font-size="12" font-weight="bold" fill="#222">DINING</text><text x="287.5" y="221.4" text-anchor="middle" font-family="Arial" font-size="10" fill="#555">2.5×4.0 m</text><text x="287.5" y="232.9" text-anchor="middle" font-family="Arial" font-size="10" fill="#555">10.0 sqm</text><rect x="340.0" y="130.0" width="126.0" height="84.0" fill="#fce5cd" stroke="#333" stroke-width="1.5"/><text x="403.0" y="169.3" text-anchor="middle" font-family="Arial" font-size="12" font-weight="bold" fill="#222">KITCHEN</text><text x="403.0" y="185.2" text-anchor="middle" font-family="Arial" font-size="10" fill="#555">3.0×2.0 m · 6.0 sqm</text><text x="319.0" y="584.0" text-anchor="middle" font-family="Arial" font-size="12" font-weight="bold" fill="#888">FRONT (street)</text><rect x="190.90" y="382.00" width="4.20" height="84.00" fill="#555" stroke="none"/><rect x="193.00" y="295.90" width="42.00" height="4.20" fill="#555" stroke="none"/><rect x="190.90" y="298.00" width="4.20" height="84.00" fill="#555" stroke="none"/><rect x="337.90" y="298.00" width="4.20" height="168.00" fill="#555" stroke="none"/><rect x="235.00" y="295.90" width="105.00" height="4.20" fill="#555" stroke="none"/><rect x="130.00" y="379.90" width="63.00" height="4.20" fill="#555" stroke="none"/><rect x="130.00" y="295.90" width="63.00" height="4.20" fill="#555" stroke="none"/><rect x="232.90" y="130.00" width="4.20" height="168.00" fill="#555" stroke="none"/><rect x="340.00" y="211.90" width="126.00" height="4.20" fill="#555" stroke="none"/><rect x="193.00" y="461.80" width="147.00" height="8.40" fill="#555" stroke="none"/><rect x="130.00" y="461.80" width="63.00" height="8.40" fill="#555" stroke="none"/><rect x="125.80" y="382.00" width="8.40" height="84.00" fill="#555" stroke="none"/><rect x="130.00" y="125.80" width="105.00" height="8.40" fill="#555" stroke="none"/><rect x="125.80" y="130.00" width="8.40" height="168.00" fill="#555" stroke="none"/><rect x="125.80" y="298.00" width="8.40" height="84.00" fill="#555" stroke="none"/><rect x="340.00" y="461.80" width="126.00" height="8.40" fill="#555" stroke="none"/><rect x="461.80" y="214.00" width="8.40" height="252.00" fill="#555" stroke="none"/><rect x="235.00" y="125.80" width="105.00" height="8.40" fill="#555" stroke="none"/><rect x="340.00" y="125.80" width="126.00" height="8.40" fill="#555" stroke="none"/><rect x="461.80" y="130.00" width="8.40" height="84.00" fill="#555" stroke="none"/><rect x="188.80" y="461.80" width="8.40" height="8.40" fill="#555" stroke="none"/><rect x="188.80" y="377.80" width="8.40" height="8.40" fill="#555" stroke="none"/><rect x="188.80" y="293.80" width="8.40" height="8.40" fill="#555" stroke="none"/><rect x="230.80" y="293.80" width="8.40" height="8.40" fill="#555" stroke="none"/><rect x="188.80" y="377.80" width="8.40" height="8.40" fill="#555" stroke="none"/><rect x="188.80" y="293.80" width="8.40" height="8.40" fill="#555" stroke="none"/><rect x="335.80" y="461.80" width="8.40" height="8.40" fill="#555" stroke="none"/><rect x="335.80" y="293.80" width="8.40" height="8.40" fill="#555" stroke="none"/><rect x="230.80" y="293.80" width="8.40" height="8.40" fill="#555" stroke="none"/><rect x="335.80" y="293.80" width="8.40" height="8.40" fill="#555" stroke="none"/><rect x="125.80" y="377.80" width="8.40" height="8.40" fill="#555" stroke="none"/><rect x="188.80" y="377.80" width="8.40" height="8.40" fill="#555" stroke="none"/><rect x="125.80" y="293.80" width="8.40" height="8.40" fill="#555" stroke="none"/><rect x="188.80" y="293.80" width="8.40" height="8.40" fill="#555" stroke="none"/><rect x="230.80" y="293.80" width="8.40" height="8.40" fill="#555" stroke="none"/><rect x="230.80" y="125.80" width="8.40" height="8.40" fill="#555" stroke="none"/><rect x="335.80" y="209.80" width="8.40" height="8.40" fill="#555" stroke="none"/><rect x="461.80" y="209.80" width="8.40" height="8.40" fill="#555" stroke="none"/><rect x="188.80" y="461.80" width="8.40" height="8.40" fill="#555" stroke="none"/><rect x="335.80" y="461.80" width="8.40" height="8.40" fill="#555" stroke="none"/><rect x="125.80" y="461.80" width="8.40" height="8.40" fill="#555" stroke="none"/><rect x="188.80" y="461.80" width="8.40" height="8.40" fill="#555" stroke="none"/><rect x="125.80" y="461.80" width="8.40" height="8.40" fill="#555" stroke="none"/><rect x="125.80" y="377.80" width="8.40" height="8.40" fill="#555" stroke="none"/><rect x="125.80" y="125.80" width="8.40" height="8.40" fill="#555" stroke="none"/><rect x="230.80" y="125.80" width="8.40" height="8.40" fill="#555" stroke="none"/><rect x="125.80" y="293.80" width="8.40" height="8.40" fill="#555" stroke="none"/><rect x="125.80" y="125.80" width="8.40" height="8.40" fill="#555" stroke="none"/><rect x="125.80" y="377.80" width="8.40" height="8.40" fill="#555" stroke="none"/><rect x="125.80" y="293.80" width="8.40" height="8.40" fill="#555" stroke="none"/><rect x="335.80" y="461.80" width="8.40" height="8.40" fill="#555" stroke="none"/><rect x="461.80" y="461.80" width="8.40" height="8.40" fill="#555" stroke="none"/><rect x="461.80" y="461.80" width="8.40" height="8.40" fill="#555" stroke="none"/><rect x="461.80" y="209.80" width="8.40" height="8.40" fill="#555" stroke="none"/><rect x="230.80" y="125.80" width="8.40" height="8.40" fill="#555" stroke="none"/><rect x="335.80" y="125.80" width="8.40" height="8.40" fill="#555" stroke="none"/><rect x="335.80" y="125.80" width="8.40" height="8.40" fill="#555" stroke="none"/><rect x="461.80" y="125.80" width="8.40" height="8.40" fill="#555" stroke="none"/><rect x="461.80" y="209.80" width="8.40" height="8.40" fill="#555" stroke="none"/><rect x="461.80" y="125.80" width="8.40" height="8.40" fill="#555" stroke="none"/><rect x="340.0" y="218.2" width="5.0" height="75.6" fill="#cfe2f3" stroke="none"/><rect x="335.0" y="218.2" width="5.0" height="75.6" fill="#cfe2f3" stroke="none"/><rect x="335.0" y="134.2" width="5.0" height="75.6" fill="#cfe2f3" stroke="none"/><rect x="340.0" y="134.2" width="5.0" height="75.6" fill="#fce5cd" stroke="none"/><rect x="193.0" y="430.3" width="5.0" height="29.4" fill="#d9ead3" stroke="none"/><rect x="188.0" y="430.3" width="5.0" height="29.4" fill="#ead1dc" stroke="none"/><line x1="193.0" y1="459.7" x2="163.6" y2="459.7" stroke="#444" stroke-width="1.4"/><path d="M 163.6 459.7 A 29.4 29.4 0 0 1 193.0 430.3" fill="none" stroke="#999" stroke-width="0.7" stroke-dasharray="2 2"/><rect x="136.3" y="293.0" width="29.4" height="5.0" fill="#d9ead3" stroke="none"/><rect x="136.3" y="298.0" width="29.4" height="5.0" fill="#ead1dc" stroke="none"/><line x1="136.3" y1="298.0" x2="136.3" y2="327.4" stroke="#444" stroke-width="1.4"/><path d="M 136.3 327.4 A 29.4 29.4 0 0 0 165.7 298.0" fill="none" stroke="#999" stroke-width="0.7" stroke-dasharray="2 2"/><rect x="335.0" y="426.1" width="5.0" height="33.6" fill="#d9ead3" stroke="none"/><rect x="340.0" y="426.1" width="5.0" height="33.6" fill="#cfe2f3" stroke="none"/><line x1="340.0" y1="459.7" x2="306.4" y2="459.7" stroke="#444" stroke-width="1.4"/><path d="M 306.4 459.7 A 33.6 33.6 0 0 1 340.0 426.1" fill="none" stroke="#999" stroke-width="0.7" stroke-dasharray="2 2"/><rect x="230.0" y="258.1" width="5.0" height="33.6" fill="#d9ead3" stroke="none"/><rect x="235.0" y="258.1" width="5.0" height="33.6" fill="#cfe2f3" stroke="none"/><line x1="235.0" y1="291.7" x2="201.4" y2="291.7" stroke="#444" stroke-width="1.4"/><path d="M 201.4 291.7 A 33.6 33.6 0 0 1 235.0 258.1" fill="none" stroke="#999" stroke-width="0.7" stroke-dasharray="2 2"/><rect x="346.3" y="461.0" width="37.8" height="5.0" fill="#cfe2f3" stroke="none"/><rect x="346.3" y="466.0" width="37.8" height="5.0" fill="#fbfbf7" stroke="none"/><line x1="346.3" y1="466.0" x2="346.3" y2="428.2" stroke="#444" stroke-width="1.4"/><path d="M 346.3 428.2 A 37.8 37.8 0 0 1 384.1 466.0" fill="none" stroke="#999" stroke-width="0.7" stroke-dasharray="2 2"/><rect x="426.1" y="130.0" width="33.6" height="5.0" fill="#fce5cd" stroke="none"/><rect x="426.1" y="125.0" width="33.6" height="5.0" fill="#fbfbf7" stroke="none"/><line x1="459.7" y1="130.0" x2="459.7" y2="163.6" stroke="#444" stroke-width="1.4"/><path d="M 459.7 163.6 A 33.6 33.6 0 0 1 426.1 130.0" fill="none" stroke="#999" stroke-width="0.7" stroke-dasharray="2 2"/><rect x="226.1" y="461.0" width="80.8" height="5.0" fill="#d9ead3" stroke="none"/><rect x="226.1" y="466.0" width="80.8" height="5.0" fill="#fbfbf7" stroke="none"/><line x1="226.1" y1="463.0" x2="306.9" y2="463.0" stroke="#222" stroke-width="1.0"/><line x1="226.1" y1="466.0" x2="306.9" y2="466.0" stroke="#222" stroke-width="1.0"/><line x1="226.1" y1="469.0" x2="306.9" y2="469.0" stroke="#222" stroke-width="1.0"/><rect x="130.0" y="405.1" width="5.0" height="37.8" fill="#ead1dc" stroke="none"/><rect x="125.0" y="405.1" width="5.0" height="37.8" fill="#fbfbf7" stroke="none"/><line x1="127.0" y1="442.9" x2="127.0" y2="405.1" stroke="#222" stroke-width="1.0"/><line x1="130.0" y1="442.9" x2="130.0" y2="405.1" stroke="#222" stroke-width="1.0"/><line x1="133.0" y1="442.9" x2="133.0" y2="405.1" stroke="#222" stroke-width="1.0"/><rect x="145.8" y="461.0" width="31.5" height="5.0" fill="#ead1dc" stroke="none"/><rect x="145.8" y="466.0" width="31.5" height="5.0" fill="#fbfbf7" stroke="none"/><line x1="145.8" y1="463.0" x2="177.2" y2="463.0" stroke="#222" stroke-width="1.0"/><line x1="145.8" y1="466.0" x2="177.2" y2="466.0" stroke="#222" stroke-width="1.0"/><line x1="145.8" y1="469.0" x2="177.2" y2="469.0" stroke="#222" stroke-width="1.0"/><rect x="130.0" y="167.8" width="5.0" height="92.4" fill="#d9ead3" stroke="none"/><rect x="125.0" y="167.8" width="5.0" height="92.4" fill="#fbfbf7" stroke="none"/><line x1="127.0" y1="260.2" x2="127.0" y2="167.8" stroke="#222" stroke-width="1.0"/><line x1="130.0" y1="260.2" x2="130.0" y2="167.8" stroke="#222" stroke-width="1.0"/><line x1="133.0" y1="260.2" x2="133.0" y2="167.8" stroke="#222" stroke-width="1.0"/><rect x="153.6" y="130.0" width="57.8" height="5.0" fill="#d9ead3" stroke="none"/><rect x="153.6" y="125.0" width="57.8" height="5.0" fill="#fbfbf7" stroke="none"/><line x1="153.6" y1="127.0" x2="211.4" y2="127.0" stroke="#222" stroke-width="1.0"/><line x1="153.6" y1="130.0" x2="211.4" y2="130.0" stroke="#222" stroke-width="1.0"/><line x1="153.6" y1="133.0" x2="211.4" y2="133.0" stroke="#222" stroke-width="1.0"/><rect x="130.0" y="321.1" width="5.0" height="37.8" fill="#ead1dc" stroke="none"/><rect x="125.0" y="321.1" width="5.0" height="37.8" fill="#fbfbf7" stroke="none"/><line x1="127.0" y1="358.9" x2="127.0" y2="321.1" stroke="#222" stroke-width="1.0"/><line x1="130.0" y1="358.9" x2="130.0" y2="321.1" stroke="#222" stroke-width="1.0"/><line x1="133.0" y1="358.9" x2="133.0" y2="321.1" stroke="#222" stroke-width="1.0"/><rect x="461.0" y="289.6" width="5.0" height="100.8" fill="#cfe2f3" stroke="none"/><rect x="466.0" y="289.6" width="5.0" height="100.8" fill="#fbfbf7" stroke="none"/><line x1="463.0" y1="390.4" x2="463.0" y2="289.6" stroke="#222" stroke-width="1.0"/><line x1="466.0" y1="390.4" x2="466.0" y2="289.6" stroke="#222" stroke-width="1.0"/><line x1="469.0" y1="390.4" x2="469.0" y2="289.6" stroke="#222" stroke-width="1.0"/><rect x="412.3" y="461.0" width="38.1" height="5.0" fill="#cfe2f3" stroke="none"/><rect x="412.3" y="466.0" width="38.1" height="5.0" fill="#fbfbf7" stroke="none"/><line x1="412.3" y1="463.0" x2="450.4" y2="463.0" stroke="#222" stroke-width="1.0"/><line x1="412.3" y1="466.0" x2="450.4" y2="466.0" stroke="#222" stroke-width="1.0"/><line x1="412.3" y1="469.0" x2="450.4" y2="469.0" stroke="#222" stroke-width="1.0"/><rect x="258.6" y="130.0" width="57.7" height="5.0" fill="#cfe2f3" stroke="none"/><rect x="258.6" y="125.0" width="57.7" height="5.0" fill="#fbfbf7" stroke="none"/><line x1="258.6" y1="127.0" x2="316.4" y2="127.0" stroke="#222" stroke-width="1.0"/><line x1="258.6" y1="130.0" x2="316.4" y2="130.0" stroke="#222" stroke-width="1.0"/><line x1="258.6" y1="133.0" x2="316.4" y2="133.0" stroke="#222" stroke-width="1.0"/><rect x="461.0" y="148.9" width="5.0" height="46.2" fill="#fce5cd" stroke="none"/><rect x="466.0" y="148.9" width="5.0" height="46.2" fill="#fbfbf7" stroke="none"/><line x1="463.0" y1="195.1" x2="463.0" y2="148.9" stroke="#222" stroke-width="1.0"/><line x1="466.0" y1="195.1" x2="466.0" y2="148.9" stroke="#222" stroke-width="1.0"/><line x1="469.0" y1="195.1" x2="469.0" y2="148.9" stroke="#222" stroke-width="1.0"/><rect x="356.5" y="130.0" width="40.4" height="5.0" fill="#fce5cd" stroke="none"/><rect x="356.5" y="125.0" width="40.4" height="5.0" fill="#fbfbf7" stroke="none"/><line x1="356.5" y1="127.0" x2="397.0" y2="127.0" stroke="#222" stroke-width="1.0"/><line x1="356.5" y1="130.0" x2="397.0" y2="130.0" stroke="#222" stroke-width="1.0"/><line x1="356.5" y1="133.0" x2="397.0" y2="133.0" stroke="#222" stroke-width="1.0"/></svg>