<svg xmlns="http://www.w3.org/2000/svg" width="512" height="680" viewBox="0 0 512 680"><rect x="0" y="0" width="512" height="680" fill="white"/><rect x="46.0" y="46.0" width="420.0" height="588.0" fill="#fbfbf7" stroke="#333" stroke-width="1.5"/><line x1="46.0" y1="46.0" x2="46.0" y2="38.0" stroke="#888" stroke-width="1"/><line x1="46.0" y1="634.0" x2="46.0" y2="642.0" stroke="#888" stroke-width="1"/><text x="46.0" y="36.0" text-anchor="middle" font-family="Arial" font-size="9" fill="#666">0</text><text x="46.0" y="650.0" text-anchor="middle" font-family="Arial" font-size="9" fill="#666">0</text><line x1="67.0" y1="46.0" x2="67.0" y2="42.0" stroke="#888" stroke-width="1"/><line x1="67.0" y1="634.0" x2="67.0" y2="638.0" stroke="#888" stroke-width="1"/><line x1="88.0" y1="46.0" x2="88.0" y2="38.0" stroke="#888" stroke-width="1"/><line x1="88.0" y1="634.0" x2="88.0" y2="642.0" stroke="#888" stroke-width="1"/><text x="88.0" y="36.0" text-anchor="middle" font-family="Arial" font-size="9" fill="#666">1</text><text x="88.0" y="650.0" text-anchor="middle" font-family="Arial" font-size="9" fill="#666">1</text><line x1="109.0" y1="46.0" x2="109.0" y2="42.0" stroke="#888" stroke-width="1"/><line x1="109.0" y1="634.0" x2="109.0" y2="638.0" stroke="#888" stroke-width="1"/><line x1="130.0" y1="46.0" x2="130.0" y2="38.0" stroke="#888" stroke-width="1"/><line x1="130.0" y1="634.0" x2="130.0" y2="642.0" stroke="#888" stroke-width="1"/><text x="130.0" y="36.0" text-anchor="middle" font-family="Arial" font-size="9" fill="#666">2</text><text x="130.0" y="650.0" text-anchor="middle" font-family="Arial" font-size="9" fill="#666">2</text><line x1="151.0" y1="46.0" x2="151.0" y2="42.0" stroke="#888" stroke-width="1"/><line x1="151.0" y1="634.0" x2="151.0" y2="638.0" stroke="#888" stroke-width="1"/><line x1="172.0" y1="46.0" x2="172.0" y2="38.0" stroke="#888" stroke-width="1"/><line x1="172.0" y1="634.0" x2="172.0" y2="642.0" stroke="#888" stroke-width="1"/><text x="172.0" y="36.0" text-anchor="middle" font-family="Arial" font-size="9" fill="#666">3</text><text x="172.0" y="650.0" text-anchor="middle" font-family="Arial" font-size="9" fill="#666">3</text><line x1="193.0" y1="46.0" x2="193.0" y2="42.0" stroke="#888" stroke-width="1"/><line x1="193.0" y1="634.0" x2="193.0" y2="638.0" stroke="#888" stroke-width="1"/><line x1="214.0" y1="46.0" x2="214.0" y2="38.0" stroke="#888" stroke-width="1"/><line x1="214.0" y1="634.0" x2="214.0" y2="642.0" stroke="#888" stroke-width="1"/><text x="214.0" y="36.0" text-anchor="middle" font-family="Arial" font-size="9" fill="#666">4</text><text x="214.0" y="650.0" text-anchor="middle" font-family="Arial" font-size="9" fill="#666">4</text><line x1="235.0" y1="46.0" x2="235.0" y2="42.0" stroke="#888" stroke-width="1"/><line x1="235.0" y1="634.0" x2="235.0" y2="638.0" stroke="#888" stroke-width="1"/><line x1="256.0" y1="46.0" x2="256.0" y2="38.0" stroke="#888" stroke-width="1"/><line x1="256.0" y1="634.0" x2="256.0" y2="642.0" stroke="#888" stroke-width="1"/><text x="256.0" y="36.0" text-anchor="middle" font-family="Arial" font-size="9" fill="#666">5</text><text x="256.0" y="650.0" text-anchor="middle" font-family="Arial" font-size="9" fill="#666">5</text><line x1="277.0" y1="46.0" x2="277.0" y2="42.0" stroke="#888" stroke-width="1"/><line x1="277.0" y1="634.0" x2="277.0" y2="638.0" stroke="#888" stroke-width="1"/><line x1="298.0" y1="46.0" x2="298.0" y2="38.0" stroke="#888" stroke-width="1"/><line x1="298.0" y1="634.0" x2="298.0" y2="642.0" stroke="#888" stroke-width="1"/><text x="298.0" y="36.0" text-anchor="middle" font-family="Arial" font-size="9" fill="#666">6</text><text x="298.0" y="650.0" text-anchor="middle" font-family="Arial" font-size="9" fill="#666">6</text><line x1="319.0" y1="46.0" x2="319.0" y2="42.0" stroke="#888" stroke-width="1"/><line x1="319.0" y1="634.0" x2="319.0" y2="638.0" stroke="#888" stroke-width="1"/><line x1="340.0" y1="46.0" x2="340.0" y2="38.0" stroke="#888" stroke-width="1"/><line x1="340.0" y1="634.0" x2="340.0" y2="642.0" stroke="#888" stroke-width="1"/><text x="340.0" y="36.0" text-anchor="middle" font-family="Arial" font-size="9" fill="#666">7</text><text x="340.0" y="650.0" text-anchor="middle" font-family="Arial" font-size="9" fill="#666">7</text><line x1="361.0" y1="46.0" x2="361.0" y2="42.0" stroke="#888" stroke-width="1"/><line x1="361.0" y1="634.0" x2="361.0" y2="638.0" stroke="#888" stroke-width="1"/><line x1="382.0" y1="46.0" x2="382.0" y2="38.0" stroke="#888" stroke-width="1"/><line x1="382.0" y1="634.0" x2="382.0" y2="642.0" stroke="#888" stroke-width="1"/><text x="382.0" y="36.0" text-anchor="middle" font-family="Arial" font-size="9" fill="#666">8</text><text x="382.0" y="650.0" text-anchor="middle" font-family="Arial" font-size="9" fill="#666">8</text><line x1="403.0" y1="46.0" x2="403.0" y2="42.0" stroke="#888" stroke-width="1"/><line x1="403.0" y1="634.0" x2="403.0" y2="638.0" stroke="#888" stroke-width="1"/><line x1="424.0" y1="46.0" x2="424.0" y2="38.0" stroke="#888" stroke-width="1"/><line x1="424.0" y1="634.0" x2="424.0" y2="642.0" stroke="#888" stroke-width="1"/><text x="424.0" y="36.0" text-anchor="middle" font-family="Arial" font-size="9" fill="#666">9</text><text x="424.0" y="650.0" text-anchor="middle" font-family="Arial" font-size="9" fill="#666">9</text><line x1="445.0" y1="46.0" x2="445.0" y2="42.0" stroke="#888" stroke-width="1"/><line x1="445.0" y1="634.0" x2="445.0" y2="638.0" stroke="#888" stroke-width="1"/><line x1="466.0" y1="46.0" x2="466.0" y2="38.0" stroke="#888" stroke-width="1"/><line x1="466.0" y1="634.0" x2="466.0" y2="642.0" stroke="#888" stroke-width="1"/><text x="466.0" y="36.0" text-anchor="middle" font-family="Arial" font-size="9" fill="#666">10</text><text x="466.0" y="650.0" text-anchor="middle" font-family="Arial" font-size="9" fill="#666">10</text><line x1="46.0" y1="634.0" x2="38.0" y2="634.0" stroke="#888" stroke-width="1"/><line x1="466.0" y1="634.0" x2="474.0" y2="634.0" stroke="#888" stroke-width="1"/><text x="36.0" y="637.0" text-anchor="end" font-family="Arial" font-size="9" fill="#666">0</text><text x="476.0" y="637.0" text-anchor="start" font-family="Arial" font-size="9" fill="#666">0</text><line x1="46.0" y1="613.0" x2="42.0" y2="613.0" stroke="#888" stroke-width="1"/><line x1="466.0" y1="613.0" x2="470.0" y2="613.0" stroke="#888" stroke-width="1"/><line x1="46.0" y1="592.0" x2="38.0" y2="592.0" stroke="#888" stroke-width="1"/><line x1="466.0" y1="592.0" x2="474.0" y2="592.0" stroke="#888" stroke-width="1"/><text x="36.0" y="595.0" text-anchor="end" font-family="Arial" font-size="9" fill="#666">1</text><text x="476.0" y="595.0" text-anchor="start" font-family="Arial" font-size="9" fill="#666">1</text><line x1="46.0" y1="571.0" x2="42.0" y2="571.0" stroke="#888" stroke-width="1"/><line x1="466.0" y1="571.0" x2="470.0" y2="571.0" stroke="#888" stroke-width="1"/><line x1="46.0" y1="550.0" x2="38.0" y2="550.0" stroke="#888" stroke-width="1"/><line x1="466.0" y1="550.0" x2="474.0" y2="550.0" stroke="#888" stroke-width="1"/><text x="36.0" y="553.0" text-anchor="end" font-family="Arial" font-size="9" fill="#666">2</text><text x="476.0" y="553.0" text-anchor="start" font-family="Arial" font-size="9" fill="#666">2</text><line x1="46.0" y1="529.0" x2="42.0" y2="529.0" stroke="#888" stroke-width="1"/><line x1="466.0" y1="529.0" x2="470.0" y2="529.0" stroke="#888" stroke-width="1"/><line x1="46.0" y1="508.0" x2="38.0" y2="508.0" stroke="#888" stroke-width="1"/><line x1="466.0" y1="508.0" x2="474.0" y2="508.0" stroke="#888" stroke-width="1"/><text x="36.0" y="511.0" text-anchor="end" font-family="Arial" font-size="9" fill="#666">3</text><text x="476.0" y="511.0" text-anchor="start" font-family="Arial" font-size="9" fill="#666">3</text><line x1="46.0" y1="487.0" x2="42.0" y2="487.0" stroke="#888" stroke-width="1"/><line x1="466.0" y1="487.0" x2="470.0" y2="487.0" stroke="#888" stroke-width="1"/><line x1="46.0" y1="466.0" x2="38.0" y2="466.0" stroke="#888" stroke-width="1"/><line x1="466.0" y1="466.0" x2="474.0" y2="466.0" stroke="#888" stroke-width="1"/><text x="36.0" y="469.0" text-anchor="end" font-family="Arial" font-size="9" fill="#666">4</text><text x="476.0" y="469.0" text-anchor="start" font-family="Arial" font-size="9" fill="#666">4</text><line x1="46.0" y1="445.0" x2="42.0" y2="445.0" stroke="#888" stroke-width="1"/><line x1="466.0" y1="445.0" x2="470.0" y2="445.0" stroke="#888" stroke-width="1"/><line x1="46.0" y1="424.0" x2="38.0" y2="424.0" stroke="#888" stroke-width="1"/><line x1="466.0" y1="424.0" x2="474.0" y2="424.0" stroke="#888" stroke-width="1"/><text x="36.0" y="427.0" text-anchor="end" font-family="Arial" font-size="9" fill="#666">5</text><text x="476.0" y="427.0" text-anchor="start" font-family="Arial" font-size="9" fill="#666">5</text><line x1="46.0" y1="403.0" x2="42.0" y2="403.0" stroke="#888" stroke-width="1"/><line x1="466.0" y1="403.0" x2="470.0" y2="403.0" stroke="#888" stroke-width="1"/><line x1="46.0" y1="382.0" x2="38.0" y2="382.0" stroke="#888" stroke-width="1"/><line x1="466.0" y1="382.0" x2="474.0" y2="382.0" stroke="#888" stroke-width="1"/><text x="36.0" y="385.0" text-anchor="end" font-family="Arial" font-size="9" fill="#666">6</text><text x="476.0" y="385.0" text-anchor="start" font-family="Arial" font-size="9" fill="#666">6</text><line x1="46.0" y1="361.0" x2="42.0" y2="361.0" stroke="#888" stroke-width="1"/><line x1="466.0" y1="361.0" x2="470.0" y2="361.0" stroke="#888" stroke-width="1"/><line x1="46.0" y1="340.0" x2="38.0" y2="340.0" stroke="#888" stroke-width="1"/><line x1="466.0" y1="340.0" x2="474.0" y2="340.0" stroke="#888" stroke-width="1"/><text x="36.0" y="343.0" text-anchor="end" font-family="Arial" font-size="9" fill="#666">7</text><text x="476.0" y="343.0" text-anchor="start" font-family="Arial" font-size="9" fill="#666">7</text><line x1="46.0" y1="319.0" x2="42.0" y2="319.0" stroke="#888" stroke-width="1"/><line x1="466.0" y1="319.0" x2="470.0" y2="319.0" stroke="#888" stroke-width="1"/><line x1="46.0" y1="298.0" x2="38.0" y2="298.0" stroke="#888" stroke-width="1"/><line x1="466.0" y1="298.0" x2="474.0" y2="298.0" stroke="#888" stroke-width="1"/><text x="36.0" y="301.0" text-anchor="end" font-family="Arial" font-size="9" fill="#666">8</text><text x="476.0" y="301.0" text-anchor="start" font-family="Arial" font-size="9" fill="#666">8</text><line x1="46.0" y1="277.0" x2="42.0" y2="277.0" stroke="#888" stroke-width="1"/><line x1="466.0" y1="277.0" x2="470.0" y2="277.0" stroke="#888" stroke-width="1"/><line x1="46.0" y1="256.0" x2="38.0" y2="256.0" stroke="#888" stroke-width="1"/><line x1="466.0" y1="256.0" x2="474.0" y2="256.0" stroke="#888" stroke-width="1"/><text x="36.0" y="259.0" text-anchor="end" font-family="Arial" font-size="9" fill="#666">9</text><text x="476.0" y="259.0" text-anchor="start" font-family="Arial" font-size="9" fill="#666">9</text><line x1="46.0" y1="235.0" x2="42.0" y2="235.0" stroke="#888" stroke-width="1"/><line x1="466.0" y1="235.0" x2="470.0" y2="235.0" stroke="#888" stroke-width="1"/><line x1="46.0" y1="214.0" x2="38.0" y2="214.0" stroke="#888" stroke-width="1"/><line x1="466.0" y1="214.0" x2="474.0" y2="214.0" stroke="#888" stroke-width="1"/><text x="36.0" y="217.0" text-anchor="end" font-family="Arial" font-size="9" fill="#666">10</text><text x="476.0" y="217.0" text-anchor="start" font-family="Arial" font-size="9" fill="#666">10</text><line x1="46.0" y1="193.0" x2="42.0" y2="193.0" stroke="#888" stroke-width="1"/><line x1="466.0" y1="193.0" x2="470.0" y2="193.0" stroke="#888" stroke-width="1"/><line x1="46.0" y1="172.0" x2="38.0" y2="172.0" stroke="#888" stroke-width="1"/><line x1="466.0" y1="172.0" x2="474.0" y2="172.0" stroke="#888" stroke-width="1"/><text x="36.0" y="175.0" text-anchor="end" font-family="Arial" font-size="9" fill="#666">11</text><text x="476.0" y="175.0" text-anchor="start" font-family="Arial" font-size="9" fill="#666">11</text><line x1="46.0" y1="151.0" x2="42.0" y2="151.0" stroke="#888" stroke-width="1"/><line x1="466.0" y1="151.0" x2="470.0" y2="151.0" stroke="#888" stroke-width="1"/><line x1="46.0" y1="130.0" x2="38.0" y2="130.0" stroke="#888" stroke-width="1"/><line x1="466.0" y1="130.0" x2="474.0" y2="130.0" stroke="#888" stroke-width="1"/><text x="36.0" y="133.0" text-anchor="end" font-family="Arial" font-size="9" fill="#666">12</text><text x="476.0" y="133.0" text-anchor="start" font-family="Arial" font-size="9" fill="#666">12</text><line x1="46.0" y1="109.0" x2="42.0" y2="109.0" stroke="#888" stroke-width="1"/><line x1="466.0" y1="109.0" x2="470.0" y2="109.0" stroke="#888" stroke-width="1"/><line x1="46.0" y1="88.0" x2="38.0" y2="88.0" stroke="#888" stroke-width="1"/><line x1="466.0" y1="88.0" x2="474.0" y2="88.0" stroke="#888" stroke-width="1"/><text x="36.0" y="91.0" text-anchor="end" font-family="Arial" font-size="9" fill="#666">13</text><text x="476.0" y="91.0" text-anchor="start" font-family="Arial" font-size="9" fill="#666">13</text><line x1="46.0" y1="67.0" x2="42.0" y2="67.0" stroke="#888" stroke-width="1"/><line x1="466.0" y1="67.0" x2="470.0" y2="67.0" stroke="#888" stroke-width="1"/><line x1="46.0" y1="46.0" x2="38.0" y2="46.0" stroke="#888" stroke-width="1"/><line x1="466.0" y1="46.0" x2="474.0" y2="46.0" stroke="#888" stroke-width="1"/><text x="36.0" y="49.0" text-anchor="end" font-family="Arial" font-size="9" fill="#666">14</text><text x="476.0" y="49.0" text-anchor="start" font-family="Arial" font-size="9" fill="#666">14</text><rect x="130.0" y="130.0" width="252.0" height="420.0" fill="none" stroke="#9aa" stroke-width="1" stroke-dasharray="3 3"/><rect x="59.9" y="412.7" width="64.7" height="136.1" fill="#f2f2f2" stroke="#333" stroke-width="1.5" stroke-dasharray="6 4"/><text x="92.2" y="471.2" text-anchor="middle" font-family="Arial" font-size="12" font-weight="bold" fill="#222">DIRTY</text><text x="92.2" y="485.0" text-anchor="middle" font-family="Arial" font-size="12" font-weight="bold" fill="#222">KITCHEN</text><text x="92.2" y="500.8" text-anchor="middle" font-family="Arial" font-size="10" fill="#555">1.6×3.3 m</text><rect x="257.3" y="551.3" width="123.5" height="60.5" fill="#f2f2f2" stroke="#333" stroke-width="1.5" stroke-dasharray="6 4"/><text x="319.0" y="578.9" text-anchor="middle" font-family="Arial" font-size="12" font-weight="bold" fill="#222">PORCH</text><text x="319.0" y="594.6" text-anchor="middle" font-family="Arial" font-size="10" fill="#555">3.0×1.5 m</text><rect x="130.0" y="130.0" width="252.0" height="126.0" fill="#d9ead3" stroke="#333" stroke-width="1.5"/><text x="256.0" y="190.3" text-anchor="middle" font-family="Arial" font-size="12" font-weight="bold" fill="#222">MASTER BR</text><text x="256.0" y="206.2" text-anchor="middle" font-family="Arial" font-size="10" fill="#555">6.0×3.0 m · 18.0 sqm</text><rect x="130.0" y="256.0" width="84.0" height="52.5" fill="#ead1dc" stroke="#333" stroke-width="1.5"/><text x="172.0" y="273.9" text-anchor="middle" font-family="Arial" font-size="12" font-weight="bold" fill="#222">ENSUITE</text><text x="172.0" y="289.7" text-anchor="middle" font-family="Arial" font-size="10" fill="#555">2.0×1.2 m</text><text x="172.0" y="301.2" text-anchor="middle" font-family="Arial" font-size="10" fill="#555">2.5 sqm</text><rect x="130.0" y="308.5" width="184.8" height="102.9" fill="#d9ead3" stroke="#333" stroke-width="1.5"/><text x="222.4" y="357.3" text-anchor="middle" font-family="Arial" font-size="12" font-weight="bold" fill="#222">BEDROOM</text><text x="222.4" y="373.1" text-anchor="middle" font-family="Arial" font-size="10" fill="#555">4.4×2.5 m · 10.8 sqm</text><rect x="214.0" y="256.0" width="100.8" height="52.5" fill="#ead1dc" stroke="#333" stroke-width="1.5"/><text x="264.4" y="273.9" text-anchor="middle" font-family="Arial" font-size="12" font-weight="bold" fill="#222">T&amp;B</text><text x="264.4" y="289.7" text-anchor="middle" font-family="Arial" font-size="10" fill="#555">2.4×1.2 m</text><text x="264.4" y="301.2" text-anchor="middle" font-family="Arial" font-size="10" fill="#555">3.0 sqm</text><rect x="314.8" y="256.0" width="67.2" height="155.4" fill="#efefef" stroke="#333" stroke-width="1.5"/><text x="348.4" y="325.3" text-anchor="middle" font-family="Arial" font-size="12" font-weight="bold" fill="#222">HALL</text><text x="348.4" y="341.1" text-anchor="middle" font-family="Arial" font-size="10" fill="#555">1.6×3.7 m</text><text x="348.4" y="352.6" text-anchor="middle" font-family="Arial" font-size="10" fill="#555">5.9 sqm</text><rect x="130.0" y="411.4" width="126.0" height="138.6" fill="#cfe2f3" stroke="#333" stroke-width="1.5"/><text x="193.0" y="478.1" text-anchor="middle" font-family="Arial" font-size="12" font-weight="bold" fill="#222">KITCHEN</text><text x="193.0" y="493.9" text-anchor="middle" font-family="Arial" font-size="10" fill="#555">3.0×3.3 m · 9.9 sqm</text><rect x="256.0" y="411.4" width="126.0" height="138.6" fill="#cfe2f3" stroke="#333" stroke-width="1.5"/><text x="319.0" y="478.1" text-anchor="middle" font-family="Arial" font-size="12" font-weight="bold" fill="#222">GREAT ROOM</text><text x="319.0" y="493.9" text-anchor="middle" font-family="Arial" font-size="10" fill="#555">3.0×3.3 m · 9.9 sqm</text><text x="256.0" y="668.0" text-anchor="middle" font-family="Arial" font-size="12" font-weight="bold" fill="#888">FRONT (street)</text><rect x="130.00" y="253.90" width="84.00" height="4.20" fill="#555" stroke="none"/><rect x="214.00" y="253.90" width="100.80" height="4.20" fill="#555" stroke="none"/><rect x="314.80" y="253.90" width="67.20" height="4.20" fill="#555" stroke="none"/><rect x="130.00" y="306.40" width="84.00" height="4.20" fill="#555" stroke="none"/><rect x="211.90" y="256.00" width="4.20" height="52.50" fill="#555" stroke="none"/><rect x="214.00" y="306.40" width="100.80" height="4.20" fill="#555" stroke="none"/><rect x="312.70" y="308.50" width="4.20" height="102.90" fill="#555" stroke="none"/><rect x="130.00" y="409.30" width="126.00" height="4.20" fill="#555" stroke="none"/><rect x="256.00" y="409.30" width="58.80" height="4.20" fill="#555" stroke="none"/><rect x="312.70" y="256.00" width="4.20" height="52.50" fill="#555" stroke="none"/><rect x="130.00" y="125.80" width="252.00" height="8.40" fill="#555" stroke="none"/><rect x="377.80" y="130.00" width="8.40" height="126.00" fill="#555" stroke="none"/><rect x="125.80" y="130.00" width="8.40" height="126.00" fill="#555" stroke="none"/><rect x="125.80" y="256.00" width="8.40" height="52.50" fill="#555" stroke="none"/><rect x="125.80" y="308.50" width="8.40" height="102.90" fill="#555" stroke="none"/><rect x="377.80" y="256.00" width="8.40" height="155.40" fill="#555" stroke="none"/><rect x="130.00" y="545.80" width="126.00" height="8.40" fill="#555" stroke="none"/><rect x="125.80" y="411.40" width="8.40" height="138.60" fill="#555" stroke="none"/><rect x="256.00" y="545.80" width="126.00" height="8.40" fill="#555" stroke="none"/><rect x="377.80" y="411.40" width="8.40" height="138.60" fill="#555" stroke="none"/><rect x="125.80" y="251.80" width="8.40" height="8.40" fill="#555" stroke="none"/><rect x="211.90" y="253.90" width="4.20" height="4.20" fill="#555" stroke="none"/><rect x="211.90" y="253.90" width="4.20" height="4.20" fill="#555" stroke="none"/><rect x="312.70" y="253.90" width="4.20" height="4.20" fill="#555" stroke="none"/><rect x="312.70" y="253.90" width="4.20" height="4.20" fill="#555" stroke="none"/><rect x="377.80" y="251.80" width="8.40" height="8.40" fill="#555" stroke="none"/><rect x="125.80" y="304.30" width="8.40" height="8.40" fill="#555" stroke="none"/><rect x="211.90" y="306.40" width="4.20" height="4.20" fill="#555" stroke="none"/><rect x="211.90" y="306.40" width="4.20" height="4.20" fill="#555" stroke="none"/><rect x="211.90" y="253.90" width="4.20" height="4.20" fill="#555" stroke="none"/><rect x="211.90" y="306.40" width="4.20" height="4.20" fill="#555" stroke="none"/><rect x="312.70" y="306.40" width="4.20" height="4.20" fill="#555" stroke="none"/><rect x="312.70" y="306.40" width="4.20" height="4.20" fill="#555" stroke="none"/><rect x="125.80" y="407.20" width="8.40" height="8.40" fill="#555" stroke="none"/><rect x="312.70" y="306.40" width="4.20" height="4.20" fill="#555" stroke="none"/><rect x="312.70" y="253.90" width="4.20" height="4.20" fill="#555" stroke="none"/><rect x="125.80" y="125.80" width="8.40" height="8.40" fill="#555" stroke="none"/><rect x="377.80" y="125.80" width="8.40" height="8.40" fill="#555" stroke="none"/><rect x="377.80" y="251.80" width="8.40" height="8.40" fill="#555" stroke="none"/><rect x="377.80" y="125.80" width="8.40" height="8.40" fill="#555" stroke="none"/><rect x="125.80" y="251.80" width="8.40" height="8.40" fill="#555" stroke="none"/><rect x="125.80" y="125.80" width="8.40" height="8.40" fill="#555" stroke="none"/><rect x="125.80" y="304.30" width="8.40" height="8.40" fill="#555" stroke="none"/><rect x="125.80" y="251.80" width="8.40" height="8.40" fill="#555" stroke="none"/><rect x="125.80" y="407.20" width="8.40" height="8.40" fill="#555" stroke="none"/><rect x="125.80" y="304.30" width="8.40" height="8.40" fill="#555" stroke="none"/><rect x="377.80" y="251.80" width="8.40" height="8.40" fill="#555" stroke="none"/><rect x="125.80" y="545.80" width="8.40" height="8.40" fill="#555" stroke="none"/><rect x="125.80" y="545.80" width="8.40" height="8.40" fill="#555" stroke="none"/><rect x="125.80" y="407.20" width="8.40" height="8.40" fill="#555" stroke="none"/><rect x="377.80" y="545.80" width="8.40" height="8.40" fill="#555" stroke="none"/><rect x="377.80" y="545.80" width="8.40" height="8.40" fill="#555" stroke="none"/><rect x="316.9" y="406.4" width="63.0" height="5.0" fill="#efefef" stroke="none"/><rect x="316.9" y="411.4" width="63.0" height="5.0" fill="#cfe2f3" stroke="none"/><rect x="251.0" y="413.5" width="5.0" height="134.4" fill="#cfe2f3" stroke="none"/><rect x="256.0" y="413.5" width="5.0" height="134.4" fill="#cfe2f3" stroke="none"/><rect x="136.3" y="251.0" width="29.4" height="5.0" fill="#d9ead3" stroke="none"/><rect x="136.3" y="256.0" width="29.4" height="5.0" fill="#ead1dc" stroke="none"/><line x1="136.3" y1="256.0" x2="136.3" y2="285.4" stroke="#444" stroke-width="1.4"/><path d="M 136.3 285.4 A 29.4 29.4 0 0 0 165.7 256.0" fill="none" stroke="#999" stroke-width="0.7" stroke-dasharray="2 2"/><rect x="342.1" y="251.0" width="33.6" height="5.0" fill="#d9ead3" stroke="none"/><rect x="342.1" y="256.0" width="33.6" height="5.0" fill="#efefef" stroke="none"/><line x1="375.7" y1="256.0" x2="375.7" y2="222.4" stroke="#444" stroke-width="1.4"/><path d="M 375.7 222.4 A 33.6 33.6 0 0 0 342.1 256.0" fill="none" stroke="#999" stroke-width="0.7" stroke-dasharray="2 2"/><rect x="309.8" y="272.8" width="5.0" height="29.4" fill="#ead1dc" stroke="none"/><rect x="314.8" y="272.8" width="5.0" height="29.4" fill="#efefef" stroke="none"/><line x1="314.8" y1="302.2" x2="285.4" y2="302.2" stroke="#444" stroke-width="1.4"/><path d="M 285.4 302.2 A 29.4 29.4 0 0 1 314.8 272.8" fill="none" stroke="#999" stroke-width="0.7" stroke-dasharray="2 2"/><rect x="309.8" y="314.8" width="5.0" height="33.6" fill="#d9ead3" stroke="none"/><rect x="314.8" y="314.8" width="5.0" height="33.6" fill="#efefef" stroke="none"/><line x1="314.8" y1="314.8" x2="281.2" y2="314.8" stroke="#444" stroke-width="1.4"/><path d="M 281.2 314.8 A 33.6 33.6 0 0 0 314.8 348.4" fill="none" stroke="#999" stroke-width="0.7" stroke-dasharray="2 2"/><rect x="337.9" y="545.0" width="37.8" height="5.0" fill="#cfe2f3" stroke="none"/><rect x="337.9" y="550.0" width="37.8" height="5.0" fill="#fbfbf7" stroke="none"/><line x1="375.7" y1="550.0" x2="375.7" y2="512.2" stroke="#444" stroke-width="1.4"/><path d="M 375.7 512.2 A 37.8 37.8 0 0 0 337.9 550.0" fill="none" stroke="#999" stroke-width="0.7" stroke-dasharray="2 2"/><rect x="130.0" y="510.1" width="5.0" height="33.6" fill="#cfe2f3" stroke="none"/><rect x="125.0" y="510.1" width="5.0" height="33.6" fill="#fbfbf7" stroke="none"/><line x1="130.0" y1="543.7" x2="163.6" y2="543.7" stroke="#444" stroke-width="1.4"/><path d="M 163.6 543.7 A 33.6 33.6 0 0 0 130.0 510.1" fill="none" stroke="#999" stroke-width="0.7" stroke-dasharray="2 2"/><rect x="130.0" y="158.3" width="5.0" height="69.3" fill="#d9ead3" stroke="none"/><rect x="125.0" y="158.3" width="5.0" height="69.3" fill="#fbfbf7" stroke="none"/><line x1="127.0" y1="227.6" x2="127.0" y2="158.3" stroke="#222" stroke-width="1.0"/><line x1="130.0" y1="227.6" x2="130.0" y2="158.3" stroke="#222" stroke-width="1.0"/><line x1="133.0" y1="227.6" x2="133.0" y2="158.3" stroke="#222" stroke-width="1.0"/><rect x="377.0" y="158.3" width="5.0" height="69.3" fill="#d9ead3" stroke="none"/><rect x="382.0" y="158.3" width="5.0" height="69.3" fill="#fbfbf7" stroke="none"/><line x1="379.0" y1="227.6" x2="379.0" y2="158.3" stroke="#222" stroke-width="1.0"/><line x1="382.0" y1="227.6" x2="382.0" y2="158.3" stroke="#222" stroke-width="1.0"/><line x1="385.0" y1="227.6" x2="385.0" y2="158.3" stroke="#222" stroke-width="1.0"/><rect x="205.6" y="130.0" width="100.8" height="5.0" fill="#d9ead3" stroke="none"/><rect x="205.6" y="125.0" width="100.8" height="5.0" fill="#fbfbf7" stroke="none"/><line x1="205.6" y1="127.0" x2="306.4" y2="127.0" stroke="#222" stroke-width="1.0"/><line x1="205.6" y1="130.0" x2="306.4" y2="130.0" stroke="#222" stroke-width="1.0"/><line x1="205.6" y1="133.0" x2="306.4" y2="133.0" stroke="#222" stroke-width="1.0"/><rect x="130.0" y="269.1" width="5.0" height="26.2" fill="#ead1dc" stroke="none"/><rect x="125.0" y="269.1" width="5.0" height="26.2" fill="#fbfbf7" stroke="none"/><line x1="127.0" y1="295.4" x2="127.0" y2="269.1" stroke="#222" stroke-width="1.0"/><line x1="130.0" y1="295.4" x2="130.0" y2="269.1" stroke="#222" stroke-width="1.0"/><line x1="133.0" y1="295.4" x2="133.0" y2="269.1" stroke="#222" stroke-width="1.0"/><rect x="130.0" y="331.6" width="5.0" height="56.6" fill="#d9ead3" stroke="none"/><rect x="125.0" y="331.6" width="5.0" height="56.6" fill="#fbfbf7" stroke="none"/><line x1="127.0" y1="388.3" x2="127.0" y2="331.6" stroke="#222" stroke-width="1.0"/><line x1="130.0" y1="388.3" x2="130.0" y2="331.6" stroke="#222" stroke-width="1.0"/><line x1="133.0" y1="388.3" x2="133.0" y2="331.6" stroke="#222" stroke-width="1.0"/><rect x="158.3" y="545.0" width="69.3" height="5.0" fill="#cfe2f3" stroke="none"/><rect x="158.3" y="550.0" width="69.3" height="5.0" fill="#fbfbf7" stroke="none"/><line x1="158.3" y1="547.0" x2="227.6" y2="547.0" stroke="#222" stroke-width="1.0"/><line x1="158.3" y1="550.0" x2="227.6" y2="550.0" stroke="#222" stroke-width="1.0"/><line x1="158.3" y1="553.0" x2="227.6" y2="553.0" stroke="#222" stroke-width="1.0"/><rect x="130.0" y="430.8" width="5.0" height="47.3" fill="#cfe2f3" stroke="none"/><rect x="125.0" y="430.8" width="5.0" height="47.3" fill="#fbfbf7" stroke="none"/><line x1="127.0" y1="478.1" x2="127.0" y2="430.8" stroke="#222" stroke-width="1.0"/><line x1="130.0" y1="478.1" x2="130.0" y2="430.8" stroke="#222" stroke-width="1.0"/><line x1="133.0" y1="478.1" x2="133.0" y2="430.8" stroke="#222" stroke-width="1.0"/><rect x="377.0" y="442.6" width="5.0" height="76.2" fill="#cfe2f3" stroke="none"/><rect x="382.0" y="442.6" width="5.0" height="76.2" fill="#fbfbf7" stroke="none"/><line x1="379.0" y1="518.8" x2="379.0" y2="442.6" stroke="#222" stroke-width="1.0"/><line x1="382.0" y1="518.8" x2="382.0" y2="442.6" stroke="#222" stroke-width="1.0"/><line x1="385.0" y1="518.8" x2="385.0" y2="442.6" stroke="#222" stroke-width="1.0"/><rect x="271.6" y="545.0" width="38.1" height="5.0" fill="#cfe2f3" stroke="none"/><rect x="271.6" y="550.0" width="38.1" height="5.0" fill="#fbfbf7" stroke="none"/><line x1="271.6" y1="547.0" x2="309.7" y2="547.0" stroke="#222" stroke-width="1.0"/><line x1="271.6" y1="550.0" x2="309.7" y2="550.0" stroke="#222" stroke-width="1.0"/><line x1="271.6" y1="553.0" x2="309.7" y2="553.0" stroke="#222" stroke-width="1.0"/></svg>