<svg xmlns="http://www.w3.org/2000/svg" width="554" height="596" viewBox="0 0 554 596"><rect x="0" y="0" width="554" height="596" fill="white"/><rect x="46.0" y="46.0" width="462.0" height="504.0" fill="#fbfbf7" stroke="#333" stroke-width="1.5"/><line x1="46.0" y1="46.0" x2="46.0" y2="38.0" stroke="#888" stroke-width="1"/><line x1="46.0" y1="550.0" x2="46.0" y2="558.0" stroke="#888" stroke-width="1"/><text x="46.0" y="36.0" text-anchor="middle" font-family="Arial" font-size="9" fill="#666">0</text><text x="46.0" y="566.0" text-anchor="middle" font-family="Arial" font-size="9" fill="#666">0</text><line x1="67.0" y1="46.0" x2="67.0" y2="42.0" stroke="#888" stroke-width="1"/><line x1="67.0" y1="550.0" x2="67.0" y2="554.0" stroke="#888" stroke-width="1"/><line x1="88.0" y1="46.0" x2="88.0" y2="38.0" stroke="#888" stroke-width="1"/><line x1="88.0" y1="550.0" x2="88.0" y2="558.0" stroke="#888" stroke-width="1"/><text x="88.0" y="36.0" text-anchor="middle" font-family="Arial" font-size="9" fill="#666">1</text><text x="88.0" y="566.0" text-anchor="middle" font-family="Arial" font-size="9" fill="#666">1</text><line x1="109.0" y1="46.0" x2="109.0" y2="42.0" stroke="#888" stroke-width="1"/><line x1="109.0" y1="550.0" x2="109.0" y2="554.0" stroke="#888" stroke-width="1"/><line x1="130.0" y1="46.0" x2="130.0" y2="38.0" stroke="#888" stroke-width="1"/><line x1="130.0" y1="550.0" x2="130.0" y2="558.0" stroke="#888" stroke-width="1"/><text x="130.0" y="36.0" text-anchor="middle" font-family="Arial" font-size="9" fill="#666">2</text><text x="130.0" y="566.0" text-anchor="middle" font-family="Arial" font-size="9" fill="#666">2</text><line x1="151.0" y1="46.0" x2="151.0" y2="42.0" stroke="#888" stroke-width="1"/><line x1="151.0" y1="550.0" x2="151.0" y2="554.0" stroke="#888" stroke-width="1"/><line x1="172.0" y1="46.0" x2="172.0" y2="38.0" stroke="#888" stroke-width="1"/><line x1="172.0" y1="550.0" x2="172.0" y2="558.0" stroke="#888" stroke-width="1"/><text x="172.0" y="36.0" text-anchor="middle" font-family="Arial" font-size="9" fill="#666">3</text><text x="172.0" y="566.0" text-anchor="middle" font-family="Arial" font-size="9" fill="#666">3</text><line x1="193.0" y1="46.0" x2="193.0" y2="42.0" stroke="#888" stroke-width="1"/><line x1="193.0" y1="550.0" x2="193.0" y2="554.0" stroke="#888" stroke-width="1"/><line x1="214.0" y1="46.0" x2="214.0" y2="38.0" stroke="#888" stroke-width="1"/><line x1="214.0" y1="550.0" x2="214.0" y2="558.0" stroke="#888" stroke-width="1"/><text x="214.0" y="36.0" text-anchor="middle" font-family="Arial" font-size="9" fill="#666">4</text><text x="214.0" y="566.0" text-anchor="middle" font-family="Arial" font-size="9" fill="#666">4</text><line x1="235.0" y1="46.0" x2="235.0" y2="42.0" stroke="#888" stroke-width="1"/><line x1="235.0" y1="550.0" x2="235.0" y2="554.0" stroke="#888" stroke-width="1"/><line x1="256.0" y1="46.0" x2="256.0" y2="38.0" stroke="#888" stroke-width="1"/><line x1="256.0" y1="550.0" x2="256.0" y2="558.0" stroke="#888" stroke-width="1"/><text x="256.0" y="36.0" text-anchor="middle" font-family="Arial" font-size="9" fill="#666">5</text><text x="256.0" y="566.0" text-anchor="middle" font-family="Arial" font-size="9" fill="#666">5</text><line x1="277.0" y1="46.0" x2="277.0" y2="42.0" stroke="#888" stroke-width="1"/><line x1="277.0" y1="550.0" x2="277.0" y2="554.0" stroke="#888" stroke-width="1"/><line x1="298.0" y1="46.0" x2="298.0" y2="38.0" stroke="#888" stroke-width="1"/><line x1="298.0" y1="550.0" x2="298.0" y2="558.0" stroke="#888" stroke-width="1"/><text x="298.0" y="36.0" text-anchor="middle" font-family="Arial" font-size="9" fill="#666">6</text><text x="298.0" y="566.0" text-anchor="middle" font-family="Arial" font-size="9" fill="#666">6</text><line x1="319.0" y1="46.0" x2="319.0" y2="42.0" stroke="#888" stroke-width="1"/><line x1="319.0" y1="550.0" x2="319.0" y2="554.0" stroke="#888" stroke-width="1"/><line x1="340.0" y1="46.0" x2="340.0" y2="38.0" stroke="#888" stroke-width="1"/><line x1="340.0" y1="550.0" x2="340.0" y2="558.0" stroke="#888" stroke-width="1"/><text x="340.0" y="36.0" text-anchor="middle" font-family="Arial" font-size="9" fill="#666">7</text><text x="340.0" y="566.0" text-anchor="middle" font-family="Arial" font-size="9" fill="#666">7</text><line x1="361.0" y1="46.0" x2="361.0" y2="42.0" stroke="#888" stroke-width="1"/><line x1="361.0" y1="550.0" x2="361.0" y2="554.0" stroke="#888" stroke-width="1"/><line x1="382.0" y1="46.0" x2="382.0" y2="38.0" stroke="#888" stroke-width="1"/><line x1="382.0" y1="550.0" x2="382.0" y2="558.0" stroke="#888" stroke-width="1"/><text x="382.0" y="36.0" text-anchor="middle" font-family="Arial" font-size="9" fill="#666">8</text><text x="382.0" y="566.0" text-anchor="middle" font-family="Arial" font-size="9" fill="#666">8</text><line x1="403.0" y1="46.0" x2="403.0" y2="42.0" stroke="#888" stroke-width="1"/><line x1="403.0" y1="550.0" x2="403.0" y2="554.0" stroke="#888" stroke-width="1"/><line x1="424.0" y1="46.0" x2="424.0" y2="38.0" stroke="#888" stroke-width="1"/><line x1="424.0" y1="550.0" x2="424.0" y2="558.0" stroke="#888" stroke-width="1"/><text x="424.0" y="36.0" text-anchor="middle" font-family="Arial" font-size="9" fill="#666">9</text><text x="424.0" y="566.0" text-anchor="middle" font-family="Arial" font-size="9" fill="#666">9</text><line x1="445.0" y1="46.0" x2="445.0" y2="42.0" stroke="#888" stroke-width="1"/><line x1="445.0" y1="550.0" x2="445.0" y2="554.0" stroke="#888" stroke-width="1"/><line x1="466.0" y1="46.0" x2="466.0" y2="38.0" stroke="#888" stroke-width="1"/><line x1="466.0" y1="550.0" x2="466.0" y2="558.0" stroke="#888" stroke-width="1"/><text x="466.0" y="36.0" text-anchor="middle" font-family="Arial" font-size="9" fill="#666">10</text><text x="466.0" y="566.0" text-anchor="middle" font-family="Arial" font-size="9" fill="#666">10</text><line x1="487.0" y1="46.0" x2="487.0" y2="42.0" stroke="#888" stroke-width="1"/><line x1="487.0" y1="550.0" x2="487.0" y2="554.0" stroke="#888" stroke-width="1"/><line x1="508.0" y1="46.0" x2="508.0" y2="38.0" stroke="#888" stroke-width="1"/><line x1="508.0" y1="550.0" x2="508.0" y2="558.0" stroke="#888" stroke-width="1"/><text x="508.0" y="36.0" text-anchor="middle" font-family="Arial" font-size="9" fill="#666">11</text><text x="508.0" y="566.0" text-anchor="middle" font-family="Arial" font-size="9" fill="#666">11</text><line x1="46.0" y1="550.0" x2="38.0" y2="550.0" stroke="#888" stroke-width="1"/><line x1="508.0" y1="550.0" x2="516.0" y2="550.0" stroke="#888" stroke-width="1"/><text x="36.0" y="553.0" text-anchor="end" font-family="Arial" font-size="9" fill="#666">0</text><text x="518.0" y="553.0" text-anchor="start" font-family="Arial" font-size="9" fill="#666">0</text><line x1="46.0" y1="529.0" x2="42.0" y2="529.0" stroke="#888" stroke-width="1"/><line x1="508.0" y1="529.0" x2="512.0" y2="529.0" stroke="#888" stroke-width="1"/><line x1="46.0" y1="508.0" x2="38.0" y2="508.0" stroke="#888" stroke-width="1"/><line x1="508.0" y1="508.0" x2="516.0" y2="508.0" stroke="#888" stroke-width="1"/><text x="36.0" y="511.0" text-anchor="end" font-family="Arial" font-size="9" fill="#666">1</text><text x="518.0" y="511.0" text-anchor="start" font-family="Arial" font-size="9" fill="#666">1</text><line x1="46.0" y1="487.0" x2="42.0" y2="487.0" stroke="#888" stroke-width="1"/><line x1="508.0" y1="487.0" x2="512.0" y2="487.0" stroke="#888" stroke-width="1"/><line x1="46.0" y1="466.0" x2="38.0" y2="466.0" stroke="#888" stroke-width="1"/><line x1="508.0" y1="466.0" x2="516.0" y2="466.0" stroke="#888" stroke-width="1"/><text x="36.0" y="469.0" text-anchor="end" font-family="Arial" font-size="9" fill="#666">2</text><text x="518.0" y="469.0" text-anchor="start" font-family="Arial" font-size="9" fill="#666">2</text><line x1="46.0" y1="445.0" x2="42.0" y2="445.0" stroke="#888" stroke-width="1"/><line x1="508.0" y1="445.0" x2="512.0" y2="445.0" stroke="#888" stroke-width="1"/><line x1="46.0" y1="424.0" x2="38.0" y2="424.0" stroke="#888" stroke-width="1"/><line x1="508.0" y1="424.0" x2="516.0" y2="424.0" stroke="#888" stroke-width="1"/><text x="36.0" y="427.0" text-anchor="end" font-family="Arial" font-size="9" fill="#666">3</text><text x="518.0" y="427.0" text-anchor="start" font-family="Arial" font-size="9" fill="#666">3</text><line x1="46.0" y1="403.0" x2="42.0" y2="403.0" stroke="#888" stroke-width="1"/><line x1="508.0" y1="403.0" x2="512.0" y2="403.0" stroke="#888" stroke-width="1"/><line x1="46.0" y1="382.0" x2="38.0" y2="382.0" stroke="#888" stroke-width="1"/><line x1="508.0" y1="382.0" x2="516.0" y2="382.0" stroke="#888" stroke-width="1"/><text x="36.0" y="385.0" text-anchor="end" font-family="Arial" font-size="9" fill="#666">4</text><text x="518.0" y="385.0" text-anchor="start" font-family="Arial" font-size="9" fill="#666">4</text><line x1="46.0" y1="361.0" x2="42.0" y2="361.0" stroke="#888" stroke-width="1"/><line x1="508.0" y1="361.0" x2="512.0" y2="361.0" stroke="#888" stroke-width="1"/><line x1="46.0" y1="340.0" x2="38.0" y2="340.0" stroke="#888" stroke-width="1"/><line x1="508.0" y1="340.0" x2="516.0" y2="340.0" stroke="#888" stroke-width="1"/><text x="36.0" y="343.0" text-anchor="end" font-family="Arial" font-size="9" fill="#666">5</text><text x="518.0" y="343.0" text-anchor="start" font-family="Arial" font-size="9" fill="#666">5</text><line x1="46.0" y1="319.0" x2="42.0" y2="319.0" stroke="#888" stroke-width="1"/><line x1="508.0" y1="319.0" x2="512.0" y2="319.0" stroke="#888" stroke-width="1"/><line x1="46.0" y1="298.0" x2="38.0" y2="298.0" stroke="#888" stroke-width="1"/><line x1="508.0" y1="298.0" x2="516.0" y2="298.0" stroke="#888" stroke-width="1"/><text x="36.0" y="301.0" text-anchor="end" font-family="Arial" font-size="9" fill="#666">6</text><text x="518.0" y="301.0" text-anchor="start" font-family="Arial" font-size="9" fill="#666">6</text><line x1="46.0" y1="277.0" x2="42.0" y2="277.0" stroke="#888" stroke-width="1"/><line x1="508.0" y1="277.0" x2="512.0" y2="277.0" stroke="#888" stroke-width="1"/><line x1="46.0" y1="256.0" x2="38.0" y2="256.0" stroke="#888" stroke-width="1"/><line x1="508.0" y1="256.0" x2="516.0" y2="256.0" stroke="#888" stroke-width="1"/><text x="36.0" y="259.0" text-anchor="end" font-family="Arial" font-size="9" fill="#666">7</text><text x="518.0" y="259.0" text-anchor="start" font-family="Arial" font-size="9" fill="#666">7</text><line x1="46.0" y1="235.0" x2="42.0" y2="235.0" stroke="#888" stroke-width="1"/><line x1="508.0" y1="235.0" x2="512.0" y2="235.0" stroke="#888" stroke-width="1"/><line x1="46.0" y1="214.0" x2="38.0" y2="214.0" stroke="#888" stroke-width="1"/><line x1="508.0" y1="214.0" x2="516.0" y2="214.0" stroke="#888" stroke-width="1"/><text x="36.0" y="217.0" text-anchor="end" font-family="Arial" font-size="9" fill="#666">8</text><text x="518.0" y="217.0" text-anchor="start" font-family="Arial" font-size="9" fill="#666">8</text><line x1="46.0" y1="193.0" x2="42.0" y2="193.0" stroke="#888" stroke-width="1"/><line x1="508.0" y1="193.0" x2="512.0" y2="193.0" stroke="#888" stroke-width="1"/><line x1="46.0" y1="172.0" x2="38.0" y2="172.0" stroke="#888" stroke-width="1"/><line x1="508.0" y1="172.0" x2="516.0" y2="172.0" stroke="#888" stroke-width="1"/><text x="36.0" y="175.0" text-anchor="end" font-family="Arial" font-size="9" fill="#666">9</text><text x="518.0" y="175.0" text-anchor="start" font-family="Arial" font-size="9" fill="#666">9</text><line x1="46.0" y1="151.0" x2="42.0" y2="151.0" stroke="#888" stroke-width="1"/><line x1="508.0" y1="151.0" x2="512.0" y2="151.0" stroke="#888" stroke-width="1"/><line x1="46.0" y1="130.0" x2="38.0" y2="130.0" stroke="#888" stroke-width="1"/><line x1="508.0" y1="130.0" x2="516.0" y2="130.0" stroke="#888" stroke-width="1"/><text x="36.0" y="133.0" text-anchor="end" font-family="Arial" font-size="9" fill="#666">10</text><text x="518.0" y="133.0" text-anchor="start" font-family="Arial" font-size="9" fill="#666">10</text><line x1="46.0" y1="109.0" x2="42.0" y2="109.0" stroke="#888" stroke-width="1"/><line x1="508.0" y1="109.0" x2="512.0" y2="109.0" stroke="#888" stroke-width="1"/><line x1="46.0" y1="88.0" x2="38.0" y2="88.0" stroke="#888" stroke-width="1"/><line x1="508.0" y1="88.0" x2="516.0" y2="88.0" stroke="#888" stroke-width="1"/><text x="36.0" y="91.0" text-anchor="end" font-family="Arial" font-size="9" fill="#666">11</text><text x="518.0" y="91.0" text-anchor="start" font-family="Arial" font-size="9" fill="#666">11</text><line x1="46.0" y1="67.0" x2="42.0" y2="67.0" stroke="#888" stroke-width="1"/><line x1="508.0" y1="67.0" x2="512.0" y2="67.0" stroke="#888" stroke-width="1"/><line x1="46.0" y1="46.0" x2="38.0" y2="46.0" stroke="#888" stroke-width="1"/><line x1="508.0" y1="46.0" x2="516.0" y2="46.0" stroke="#888" stroke-width="1"/><text x="36.0" y="49.0" text-anchor="end" font-family="Arial" font-size="9" fill="#666">12</text><text x="518.0" y="49.0" text-anchor="start" font-family="Arial" font-size="9" fill="#666">12</text><rect x="130.0" y="130.0" width="294.0" height="294.0" fill="none" stroke="#9aa" stroke-width="1" stroke-dasharray="3 3"/><rect x="173.3" y="442.1" width="207.5" height="106.7" fill="#f2f2f2" stroke="#333" stroke-width="1.5" stroke-dasharray="6 4"/><text x="277.0" y="492.8" text-anchor="middle" font-family="Arial" font-size="12" font-weight="bold" fill="#222">CARPORT</text><text x="277.0" y="508.6" text-anchor="middle" font-family="Arial" font-size="10" fill="#555">5.0×2.6 m</text><rect x="347.6" y="59.9" width="75.2" height="64.7" fill="#f2f2f2" stroke="#333" stroke-width="1.5" stroke-dasharray="6 4"/><text x="385.1" y="82.7" text-anchor="middle" font-family="Arial" font-size="12" font-weight="bold" fill="#222">DIRTY</text><text x="385.1" y="96.5" text-anchor="middle" font-family="Arial" font-size="12" font-weight="bold" fill="#222">KITCHEN</text><text x="385.1" y="112.2" text-anchor="middle" font-family="Arial" font-size="10" fill="#555">1.9×1.6 m</text><rect x="131.3" y="59.9" width="213.8" height="64.7" fill="#f2f2f2" stroke="#333" stroke-width="1.5" stroke-dasharray="6 4"/><text x="238.1" y="89.6" text-anchor="middle" font-family="Arial" font-size="12" font-weight="bold" fill="#222">SERVICE</text><text x="238.1" y="105.4" text-anchor="middle" font-family="Arial" font-size="10" fill="#555">5.2×1.6 m</text><rect x="130.0" y="293.8" width="138.6" height="130.2" fill="#d9ead3" stroke="none"/><rect x="226.6" y="245.5" width="42.0" height="48.3" fill="#d9ead3" stroke="none"/><text x="199.3" y="356.3" text-anchor="middle" font-family="Arial" font-size="12" font-weight="bold" fill="#222">MASTER BR</text><text x="199.3" y="372.1" text-anchor="middle" font-family="Arial" font-size="10" fill="#555">11.4 sqm (L-shaped)</text><rect x="130.0" y="245.5" width="96.6" height="48.3" fill="#ead1dc" stroke="#333" stroke-width="1.5"/><text x="178.3" y="261.2" text-anchor="middle" font-family="Arial" font-size="12" font-weight="bold" fill="#222">ENSUITE</text><text x="178.3" y="277.0" text-anchor="middle" font-family="Arial" font-size="10" fill="#555">2.3×1.1 m</text><text x="178.3" y="288.5" text-anchor="middle" font-family="Arial" font-size="10" fill="#555">2.6 sqm</text><rect x="130.0" y="130.0" width="138.6" height="115.5" fill="#d9ead3" stroke="#333" stroke-width="1.5"/><text x="199.3" y="185.1" text-anchor="middle" font-family="Arial" font-size="12" font-weight="bold" fill="#222">BEDROOM</text><text x="199.3" y="200.9" text-anchor="middle" font-family="Arial" font-size="10" fill="#555">3.3×2.8 m · 9.1 sqm</text><rect x="268.6" y="130.0" width="77.7" height="69.3" fill="#ead1dc" stroke="#333" stroke-width="1.5"/><text x="307.4" y="156.3" text-anchor="middle" font-family="Arial" font-size="12" font-weight="bold" fill="#222">T&amp;B</text><text x="307.4" y="172.1" text-anchor="middle" font-family="Arial" font-size="10" fill="#555">1.9×1.6 m</text><text x="307.4" y="183.6" text-anchor="middle" font-family="Arial" font-size="10" fill="#555">3.1 sqm</text><rect x="268.6" y="335.8" width="155.4" height="88.2" fill="#cfe2f3" stroke="#333" stroke-width="1.5"/><text x="346.3" y="377.3" text-anchor="middle" font-family="Arial" font-size="12" font-weight="bold" fill="#222">LIVING</text><text x="346.3" y="393.1" text-anchor="middle" font-family="Arial" font-size="10" fill="#555">3.7×2.1 m · 7.8 sqm</text><rect x="268.6" y="199.3" width="155.4" height="136.5" fill="#cfe2f3" stroke="#333" stroke-width="1.5"/><text x="346.3" y="264.9" text-anchor="middle" font-family="Arial" font-size="12" font-weight="bold" fill="#222">DINING</text><text x="346.3" y="280.7" text-anchor="middle" font-family="Arial" font-size="10" fill="#555">3.7×3.2 m · 12.0 sqm</text><rect x="346.3" y="130.0" width="77.7" height="69.3" fill="#cfe2f3" stroke="#333" stroke-width="1.5"/><text x="385.2" y="156.3" text-anchor="middle" font-family="Arial" font-size="12" font-weight="bold" fill="#222">KITCHEN</text><text x="385.2" y="172.1" text-anchor="middle" font-family="Arial" font-size="10" fill="#555">1.9×1.6 m</text><text x="385.2" y="183.6" text-anchor="middle" font-family="Arial" font-size="10" fill="#555">3.1 sqm</text><text x="277.0" y="584.0" text-anchor="middle" font-family="Arial" font-size="12" font-weight="bold" fill="#888">FRONT (street)</text><rect x="130.00" y="291.70" width="96.60" height="4.20" fill="#555" stroke="none"/><rect x="266.50" y="335.80" width="4.20" height="88.20" fill="#555" stroke="none"/><rect x="266.50" y="293.80" width="4.20" height="42.00" fill="#555" stroke="none"/><rect x="224.50" y="245.50" width="4.20" height="48.30" fill="#555" stroke="none"/><rect x="226.60" y="243.40" width="42.00" height="4.20" fill="#555" stroke="none"/><rect x="266.50" y="245.50" width="4.20" height="48.30" fill="#555" stroke="none"/><rect x="130.00" y="243.40" width="96.60" height="4.20" fill="#555" stroke="none"/><rect x="266.50" y="130.00" width="4.20" height="69.30" fill="#555" stroke="none"/><rect x="266.50" y="199.30" width="4.20" height="46.20" fill="#555" stroke="none"/><rect x="268.60" y="197.20" width="77.70" height="4.20" fill="#555" stroke="none"/><rect x="344.20" y="130.00" width="4.20" height="69.30" fill="#555" stroke="none"/><rect x="130.00" y="419.80" width="138.60" height="8.40" fill="#555" stroke="none"/><rect x="125.80" y="293.80" width="8.40" height="130.20" fill="#555" stroke="none"/><rect x="125.80" y="245.50" width="8.40" height="48.30" fill="#555" stroke="none"/><rect x="130.00" y="125.80" width="138.60" height="8.40" fill="#555" stroke="none"/><rect x="125.80" y="130.00" width="8.40" height="115.50" fill="#555" stroke="none"/><rect x="268.60" y="125.80" width="77.70" height="8.40" fill="#555" stroke="none"/><rect x="268.60" y="419.80" width="155.40" height="8.40" fill="#555" stroke="none"/><rect x="419.80" y="335.80" width="8.40" height="88.20" fill="#555" stroke="none"/><rect x="419.80" y="199.30" width="8.40" height="136.50" fill="#555" stroke="none"/><rect x="346.30" y="125.80" width="77.70" height="8.40" fill="#555" stroke="none"/><rect x="419.80" y="130.00" width="8.40" height="69.30" fill="#555" stroke="none"/><rect x="125.80" y="289.60" width="8.40" height="8.40" fill="#555" stroke="none"/><rect x="224.50" y="291.70" width="4.20" height="4.20" fill="#555" stroke="none"/><rect x="264.40" y="419.80" width="8.40" height="8.40" fill="#555" stroke="none"/><rect x="224.50" y="291.70" width="4.20" height="4.20" fill="#555" stroke="none"/><rect x="224.50" y="243.40" width="4.20" height="4.20" fill="#555" stroke="none"/><rect x="224.50" y="243.40" width="4.20" height="4.20" fill="#555" stroke="none"/><rect x="266.50" y="243.40" width="4.20" height="4.20" fill="#555" stroke="none"/><rect x="266.50" y="243.40" width="4.20" height="4.20" fill="#555" stroke="none"/><rect x="125.80" y="241.30" width="8.40" height="8.40" fill="#555" stroke="none"/><rect x="224.50" y="243.40" width="4.20" height="4.20" fill="#555" stroke="none"/><rect x="266.50" y="197.20" width="4.20" height="4.20" fill="#555" stroke="none"/><rect x="264.40" y="125.80" width="8.40" height="8.40" fill="#555" stroke="none"/><rect x="266.50" y="243.40" width="4.20" height="4.20" fill="#555" stroke="none"/><rect x="266.50" y="197.20" width="4.20" height="4.20" fill="#555" stroke="none"/><rect x="266.50" y="197.20" width="4.20" height="4.20" fill="#555" stroke="none"/><rect x="344.20" y="197.20" width="4.20" height="4.20" fill="#555" stroke="none"/><rect x="344.20" y="197.20" width="4.20" height="4.20" fill="#555" stroke="none"/><rect x="342.10" y="125.80" width="8.40" height="8.40" fill="#555" stroke="none"/><rect x="125.80" y="419.80" width="8.40" height="8.40" fill="#555" stroke="none"/><rect x="264.40" y="419.80" width="8.40" height="8.40" fill="#555" stroke="none"/><rect x="125.80" y="419.80" width="8.40" height="8.40" fill="#555" stroke="none"/><rect x="125.80" y="289.60" width="8.40" height="8.40" fill="#555" stroke="none"/><rect x="125.80" y="289.60" width="8.40" height="8.40" fill="#555" stroke="none"/><rect x="125.80" y="241.30" width="8.40" height="8.40" fill="#555" stroke="none"/><rect x="125.80" y="125.80" width="8.40" height="8.40" fill="#555" stroke="none"/><rect x="264.40" y="125.80" width="8.40" height="8.40" fill="#555" stroke="none"/><rect x="125.80" y="241.30" width="8.40" height="8.40" fill="#555" stroke="none"/><rect x="125.80" y="125.80" width="8.40" height="8.40" fill="#555" stroke="none"/><rect x="264.40" y="125.80" width="8.40" height="8.40" fill="#555" stroke="none"/><rect x="342.10" y="125.80" width="8.40" height="8.40" fill="#555" stroke="none"/><rect x="264.40" y="419.80" width="8.40" height="8.40" fill="#555" stroke="none"/><rect x="419.80" y="419.80" width="8.40" height="8.40" fill="#555" stroke="none"/><rect x="419.80" y="419.80" width="8.40" height="8.40" fill="#555" stroke="none"/><rect x="342.10" y="125.80" width="8.40" height="8.40" fill="#555" stroke="none"/><rect x="419.80" y="125.80" width="8.40" height="8.40" fill="#555" stroke="none"/><rect x="419.80" y="125.80" width="8.40" height="8.40" fill="#555" stroke="none"/><rect x="272.8" y="335.8" width="147.0" height="5.0" fill="#cfe2f3" stroke="none"/><rect x="272.8" y="330.8" width="147.0" height="5.0" fill="#cfe2f3" stroke="none"/><rect x="350.5" y="199.3" width="69.3" height="5.0" fill="#cfe2f3" stroke="none"/><rect x="350.5" y="194.3" width="69.3" height="5.0" fill="#cfe2f3" stroke="none"/><rect x="136.3" y="293.8" width="29.4" height="5.0" fill="#d9ead3" stroke="none"/><rect x="136.3" y="288.8" width="29.4" height="5.0" fill="#ead1dc" stroke="none"/><line x1="136.3" y1="293.8" x2="136.3" y2="264.4" stroke="#444" stroke-width="1.4"/><path d="M 136.3 264.4 A 29.4 29.4 0 0 1 165.7 293.8" fill="none" stroke="#999" stroke-width="0.7" stroke-dasharray="2 2"/><rect x="274.9" y="194.3" width="29.4" height="5.0" fill="#ead1dc" stroke="none"/><rect x="274.9" y="199.3" width="29.4" height="5.0" fill="#cfe2f3" stroke="none"/><line x1="274.9" y1="199.3" x2="274.9" y2="169.9" stroke="#444" stroke-width="1.4"/><path d="M 274.9 169.9 A 29.4 29.4 0 0 1 304.3 199.3" fill="none" stroke="#999" stroke-width="0.7" stroke-dasharray="2 2"/><rect x="263.6" y="251.8" width="5.0" height="33.6" fill="#d9ead3" stroke="none"/><rect x="268.6" y="251.8" width="5.0" height="33.6" fill="#cfe2f3" stroke="none"/><line x1="268.6" y1="251.8" x2="235.0" y2="251.8" stroke="#444" stroke-width="1.4"/><path d="M 235.0 251.8 A 33.6 33.6 0 0 0 268.6 285.4" fill="none" stroke="#999" stroke-width="0.7" stroke-dasharray="2 2"/><rect x="263.6" y="205.6" width="5.0" height="33.6" fill="#d9ead3" stroke="none"/><rect x="268.6" y="205.6" width="5.0" height="33.6" fill="#cfe2f3" stroke="none"/><line x1="268.6" y1="239.2" x2="235.0" y2="239.2" stroke="#444" stroke-width="1.4"/><path d="M 235.0 239.2 A 33.6 33.6 0 0 1 268.6 205.6" fill="none" stroke="#999" stroke-width="0.7" stroke-dasharray="2 2"/><rect x="327.4" y="419.0" width="37.8" height="5.0" fill="#cfe2f3" stroke="none"/><rect x="327.4" y="424.0" width="37.8" height="5.0" fill="#fbfbf7" stroke="none"/><line x1="327.4" y1="424.0" x2="327.4" y2="386.2" stroke="#444" stroke-width="1.4"/><path d="M 327.4 386.2 A 37.8 37.8 0 0 1 365.2 424.0" fill="none" stroke="#999" stroke-width="0.7" stroke-dasharray="2 2"/><rect x="352.6" y="130.0" width="33.6" height="5.0" fill="#cfe2f3" stroke="none"/><rect x="352.6" y="125.0" width="33.6" height="5.0" fill="#fbfbf7" stroke="none"/><line x1="352.6" y1="130.0" x2="352.6" y2="163.6" stroke="#444" stroke-width="1.4"/><path d="M 352.6 163.6 A 33.6 33.6 0 0 0 386.2 130.0" fill="none" stroke="#999" stroke-width="0.7" stroke-dasharray="2 2"/><rect x="161.2" y="419.0" width="76.2" height="5.0" fill="#d9ead3" stroke="none"/><rect x="161.2" y="424.0" width="76.2" height="5.0" fill="#fbfbf7" stroke="none"/><line x1="161.2" y1="421.0" x2="237.4" y2="421.0" stroke="#222" stroke-width="1.0"/><line x1="161.2" y1="424.0" x2="237.4" y2="424.0" stroke="#222" stroke-width="1.0"/><line x1="161.2" y1="427.0" x2="237.4" y2="427.0" stroke="#222" stroke-width="1.0"/><rect x="130.0" y="323.1" width="5.0" height="71.6" fill="#d9ead3" stroke="none"/><rect x="125.0" y="323.1" width="5.0" height="71.6" fill="#fbfbf7" stroke="none"/><line x1="127.0" y1="394.7" x2="127.0" y2="323.1" stroke="#222" stroke-width="1.0"/><line x1="130.0" y1="394.7" x2="130.0" y2="323.1" stroke="#222" stroke-width="1.0"/><line x1="133.0" y1="394.7" x2="133.0" y2="323.1" stroke="#222" stroke-width="1.0"/><rect x="130.0" y="257.1" width="5.0" height="25.2" fill="#ead1dc" stroke="none"/><rect x="125.0" y="257.1" width="5.0" height="25.2" fill="#fbfbf7" stroke="none"/><line x1="127.0" y1="282.2" x2="127.0" y2="257.1" stroke="#222" stroke-width="1.0"/><line x1="130.0" y1="282.2" x2="130.0" y2="257.1" stroke="#222" stroke-width="1.0"/><line x1="133.0" y1="282.2" x2="133.0" y2="257.1" stroke="#222" stroke-width="1.0"/><rect x="161.2" y="130.0" width="76.2" height="5.0" fill="#d9ead3" stroke="none"/><rect x="161.2" y="125.0" width="76.2" height="5.0" fill="#fbfbf7" stroke="none"/><line x1="161.2" y1="127.0" x2="237.4" y2="127.0" stroke="#222" stroke-width="1.0"/><line x1="161.2" y1="130.0" x2="237.4" y2="130.0" stroke="#222" stroke-width="1.0"/><line x1="161.2" y1="133.0" x2="237.4" y2="133.0" stroke="#222" stroke-width="1.0"/><rect x="130.0" y="156.0" width="5.0" height="63.5" fill="#d9ead3" stroke="none"/><rect x="125.0" y="156.0" width="5.0" height="63.5" fill="#fbfbf7" stroke="none"/><line x1="127.0" y1="219.5" x2="127.0" y2="156.0" stroke="#222" stroke-width="1.0"/><line x1="130.0" y1="219.5" x2="130.0" y2="156.0" stroke="#222" stroke-width="1.0"/><line x1="133.0" y1="219.5" x2="133.0" y2="156.0" stroke="#222" stroke-width="1.0"/><rect x="288.5" y="130.0" width="37.8" height="5.0" fill="#ead1dc" stroke="none"/><rect x="288.5" y="125.0" width="37.8" height="5.0" fill="#fbfbf7" stroke="none"/><line x1="288.5" y1="127.0" x2="326.3" y2="127.0" stroke="#222" stroke-width="1.0"/><line x1="288.5" y1="130.0" x2="326.3" y2="130.0" stroke="#222" stroke-width="1.0"/><line x1="288.5" y1="133.0" x2="326.3" y2="133.0" stroke="#222" stroke-width="1.0"/><rect x="382.0" y="419.0" width="37.8" height="5.0" fill="#cfe2f3" stroke="none"/><rect x="382.0" y="424.0" width="37.8" height="5.0" fill="#fbfbf7" stroke="none"/><line x1="382.0" y1="421.0" x2="419.8" y2="421.0" stroke="#222" stroke-width="1.0"/><line x1="382.0" y1="424.0" x2="419.8" y2="424.0" stroke="#222" stroke-width="1.0"/><line x1="382.0" y1="427.0" x2="419.8" y2="427.0" stroke="#222" stroke-width="1.0"/><rect x="419.0" y="355.7" width="5.0" height="48.5" fill="#cfe2f3" stroke="none"/><rect x="424.0" y="355.7" width="5.0" height="48.5" fill="#fbfbf7" stroke="none"/><line x1="421.0" y1="404.2" x2="421.0" y2="355.7" stroke="#222" stroke-width="1.0"/><line x1="424.0" y1="404.2" x2="424.0" y2="355.7" stroke="#222" stroke-width="1.0"/><line x1="427.0" y1="404.2" x2="427.0" y2="355.7" stroke="#222" stroke-width="1.0"/><rect x="419.0" y="230.0" width="5.0" height="75.1" fill="#cfe2f3" stroke="none"/><rect x="424.0" y="230.0" width="5.0" height="75.1" fill="#fbfbf7" stroke="none"/><line x1="421.0" y1="305.1" x2="421.0" y2="230.0" stroke="#222" stroke-width="1.0"/><line x1="424.0" y1="305.1" x2="424.0" y2="230.0" stroke="#222" stroke-width="1.0"/><line x1="427.0" y1="305.1" x2="427.0" y2="230.0" stroke="#222" stroke-width="1.0"/><rect x="419.0" y="145.6" width="5.0" height="38.1" fill="#cfe2f3" stroke="none"/><rect x="424.0" y="145.6" width="5.0" height="38.1" fill="#fbfbf7" stroke="none"/><line x1="421.0" y1="183.7" x2="421.0" y2="145.6" stroke="#222" stroke-width="1.0"/><line x1="424.0" y1="183.7" x2="424.0" y2="145.6" stroke="#222" stroke-width="1.0"/><line x1="427.0" y1="183.7" x2="427.0" y2="145.6" stroke="#222" stroke-width="1.0"/></svg>