<svg xmlns="http://www.w3.org/2000/svg" width="512" height="512" viewBox="0 0 512 512"><rect x="0" y="0" width="512" height="512" fill="white"/><rect x="46.0" y="46.0" width="420.0" height="420.0" fill="#fbfbf7" stroke="#333" stroke-width="1.5"/><line x1="46.0" y1="46.0" x2="46.0" y2="38.0" stroke="#888" stroke-width="1"/><line x1="46.0" y1="466.0" x2="46.0" y2="474.0" stroke="#888" stroke-width="1"/><text x="46.0" y="36.0" text-anchor="middle" font-family="Arial" font-size="9" fill="#666">0</text><text x="46.0" y="482.0" text-anchor="middle" font-family="Arial" font-size="9" fill="#666">0</text><line x1="67.0" y1="46.0" x2="67.0" y2="42.0" stroke="#888" stroke-width="1"/><line x1="67.0" y1="466.0" x2="67.0" y2="470.0" stroke="#888" stroke-width="1"/><line x1="88.0" y1="46.0" x2="88.0" y2="38.0" stroke="#888" stroke-width="1"/><line x1="88.0" y1="466.0" x2="88.0" y2="474.0" stroke="#888" stroke-width="1"/><text x="88.0" y="36.0" text-anchor="middle" font-family="Arial" font-size="9" fill="#666">1</text><text x="88.0" y="482.0" text-anchor="middle" font-family="Arial" font-size="9" fill="#666">1</text><line x1="109.0" y1="46.0" x2="109.0" y2="42.0" stroke="#888" stroke-width="1"/><line x1="109.0" y1="466.0" x2="109.0" y2="470.0" stroke="#888" stroke-width="1"/><line x1="130.0" y1="46.0" x2="130.0" y2="38.0" stroke="#888" stroke-width="1"/><line x1="130.0" y1="466.0" x2="130.0" y2="474.0" stroke="#888" stroke-width="1"/><text x="130.0" y="36.0" text-anchor="middle" font-family="Arial" font-size="9" fill="#666">2</text><text x="130.0" y="482.0" text-anchor="middle" font-family="Arial" font-size="9" fill="#666">2</text><line x1="151.0" y1="46.0" x2="151.0" y2="42.0" stroke="#888" stroke-width="1"/><line x1="151.0" y1="466.0" x2="151.0" y2="470.0" stroke="#888" stroke-width="1"/><line x1="172.0" y1="46.0" x2="172.0" y2="38.0" stroke="#888" stroke-width="1"/><line x1="172.0" y1="466.0" x2="172.0" y2="474.0" stroke="#888" stroke-width="1"/><text x="172.0" y="36.0" text-anchor="middle" font-family="Arial" font-size="9" fill="#666">3</text><text x="172.0" y="482.0" text-anchor="middle" font-family="Arial" font-size="9" fill="#666">3</text><line x1="193.0" y1="46.0" x2="193.0" y2="42.0" stroke="#888" stroke-width="1"/><line x1="193.0" y1="466.0" x2="193.0" y2="470.0" stroke="#888" stroke-width="1"/><line x1="214.0" y1="46.0" x2="214.0" y2="38.0" stroke="#888" stroke-width="1"/><line x1="214.0" y1="466.0" x2="214.0" y2="474.0" stroke="#888" stroke-width="1"/><text x="214.0" y="36.0" text-anchor="middle" font-family="Arial" font-size="9" fill="#666">4</text><text x="214.0" y="482.0" text-anchor="middle" font-family="Arial" font-size="9" fill="#666">4</text><line x1="235.0" y1="46.0" x2="235.0" y2="42.0" stroke="#888" stroke-width="1"/><line x1="235.0" y1="466.0" x2="235.0" y2="470.0" stroke="#888" stroke-width="1"/><line x1="256.0" y1="46.0" x2="256.0" y2="38.0" stroke="#888" stroke-width="1"/><line x1="256.0" y1="466.0" x2="256.0" y2="474.0" stroke="#888" stroke-width="1"/><text x="256.0" y="36.0" text-anchor="middle" font-family="Arial" font-size="9" fill="#666">5</text><text x="256.0" y="482.0" text-anchor="middle" font-family="Arial" font-size="9" fill="#666">5</text><line x1="277.0" y1="46.0" x2="277.0" y2="42.0" stroke="#888" stroke-width="1"/><line x1="277.0" y1="466.0" x2="277.0" y2="470.0" stroke="#888" stroke-width="1"/><line x1="298.0" y1="46.0" x2="298.0" y2="38.0" stroke="#888" stroke-width="1"/><line x1="298.0" y1="466.0" x2="298.0" y2="474.0" stroke="#888" stroke-width="1"/><text x="298.0" y="36.0" text-anchor="middle" font-family="Arial" font-size="9" fill="#666">6</text><text x="298.0" y="482.0" text-anchor="middle" font-family="Arial" font-size="9" fill="#666">6</text><line x1="319.0" y1="46.0" x2="319.0" y2="42.0" stroke="#888" stroke-width="1"/><line x1="319.0" y1="466.0" x2="319.0" y2="470.0" stroke="#888" stroke-width="1"/><line x1="340.0" y1="46.0" x2="340.0" y2="38.0" stroke="#888" stroke-width="1"/><line x1="340.0" y1="466.0" x2="340.0" y2="474.0" stroke="#888" stroke-width="1"/><text x="340.0" y="36.0" text-anchor="middle" font-family="Arial" font-size="9" fill="#666">7</text><text x="340.0" y="482.0" text-anchor="middle" font-family="Arial" font-size="9" fill="#666">7</text><line x1="361.0" y1="46.0" x2="361.0" y2="42.0" stroke="#888" stroke-width="1"/><line x1="361.0" y1="466.0" x2="361.0" y2="470.0" stroke="#888" stroke-width="1"/><line x1="382.0" y1="46.0" x2="382.0" y2="38.0" stroke="#888" stroke-width="1"/><line x1="382.0" y1="466.0" x2="382.0" y2="474.0" stroke="#888" stroke-width="1"/><text x="382.0" y="36.0" text-anchor="middle" font-family="Arial" font-size="9" fill="#666">8</text><text x="382.0" y="482.0" text-anchor="middle" font-family="Arial" font-size="9" fill="#666">8</text><line x1="403.0" y1="46.0" x2="403.0" y2="42.0" stroke="#888" stroke-width="1"/><line x1="403.0" y1="466.0" x2="403.0" y2="470.0" stroke="#888" stroke-width="1"/><line x1="424.0" y1="46.0" x2="424.0" y2="38.0" stroke="#888" stroke-width="1"/><line x1="424.0" y1="466.0" x2="424.0" y2="474.0" stroke="#888" stroke-width="1"/><text x="424.0" y="36.0" text-anchor="middle" font-family="Arial" font-size="9" fill="#666">9</text><text x="424.0" y="482.0" text-anchor="middle" font-family="Arial" font-size="9" fill="#666">9</text><line x1="445.0" y1="46.0" x2="445.0" y2="42.0" stroke="#888" stroke-width="1"/><line x1="445.0" y1="466.0" x2="445.0" y2="470.0" stroke="#888" stroke-width="1"/><line x1="466.0" y1="46.0" x2="466.0" y2="38.0" stroke="#888" stroke-width="1"/><line x1="466.0" y1="466.0" x2="466.0" y2="474.0" stroke="#888" stroke-width="1"/><text x="466.0" y="36.0" text-anchor="middle" font-family="Arial" font-size="9" fill="#666">10</text><text x="466.0" y="482.0" text-anchor="middle" font-family="Arial" font-size="9" fill="#666">10</text><line x1="46.0" y1="466.0" x2="38.0" y2="466.0" stroke="#888" stroke-width="1"/><line x1="466.0" y1="466.0" x2="474.0" y2="466.0" stroke="#888" stroke-width="1"/><text x="36.0" y="469.0" text-anchor="end" font-family="Arial" font-size="9" fill="#666">0</text><text x="476.0" y="469.0" text-anchor="start" font-family="Arial" font-size="9" fill="#666">0</text><line x1="46.0" y1="445.0" x2="42.0" y2="445.0" stroke="#888" stroke-width="1"/><line x1="466.0" y1="445.0" x2="470.0" y2="445.0" stroke="#888" stroke-width="1"/><line x1="46.0" y1="424.0" x2="38.0" y2="424.0" stroke="#888" stroke-width="1"/><line x1="466.0" y1="424.0" x2="474.0" y2="424.0" stroke="#888" stroke-width="1"/><text x="36.0" y="427.0" text-anchor="end" font-family="Arial" font-size="9" fill="#666">1</text><text x="476.0" y="427.0" text-anchor="start" font-family="Arial" font-size="9" fill="#666">1</text><line x1="46.0" y1="403.0" x2="42.0" y2="403.0" stroke="#888" stroke-width="1"/><line x1="466.0" y1="403.0" x2="470.0" y2="403.0" stroke="#888" stroke-width="1"/><line x1="46.0" y1="382.0" x2="38.0" y2="382.0" stroke="#888" stroke-width="1"/><line x1="466.0" y1="382.0" x2="474.0" y2="382.0" stroke="#888" stroke-width="1"/><text x="36.0" y="385.0" text-anchor="end" font-family="Arial" font-size="9" fill="#666">2</text><text x="476.0" y="385.0" text-anchor="start" font-family="Arial" font-size="9" fill="#666">2</text><line x1="46.0" y1="361.0" x2="42.0" y2="361.0" stroke="#888" stroke-width="1"/><line x1="466.0" y1="361.0" x2="470.0" y2="361.0" stroke="#888" stroke-width="1"/><line x1="46.0" y1="340.0" x2="38.0" y2="340.0" stroke="#888" stroke-width="1"/><line x1="466.0" y1="340.0" x2="474.0" y2="340.0" stroke="#888" stroke-width="1"/><text x="36.0" y="343.0" text-anchor="end" font-family="Arial" font-size="9" fill="#666">3</text><text x="476.0" y="343.0" text-anchor="start" font-family="Arial" font-size="9" fill="#666">3</text><line x1="46.0" y1="319.0" x2="42.0" y2="319.0" stroke="#888" stroke-width="1"/><line x1="466.0" y1="319.0" x2="470.0" y2="319.0" stroke="#888" stroke-width="1"/><line x1="46.0" y1="298.0" x2="38.0" y2="298.0" stroke="#888" stroke-width="1"/><line x1="466.0" y1="298.0" x2="474.0" y2="298.0" stroke="#888" stroke-width="1"/><text x="36.0" y="301.0" text-anchor="end" font-family="Arial" font-size="9" fill="#666">4</text><text x="476.0" y="301.0" text-anchor="start" font-family="Arial" font-size="9" fill="#666">4</text><line x1="46.0" y1="277.0" x2="42.0" y2="277.0" stroke="#888" stroke-width="1"/><line x1="466.0" y1="277.0" x2="470.0" y2="277.0" stroke="#888" stroke-width="1"/><line x1="46.0" y1="256.0" x2="38.0" y2="256.0" stroke="#888" stroke-width="1"/><line x1="466.0" y1="256.0" x2="474.0" y2="256.0" stroke="#888" stroke-width="1"/><text x="36.0" y="259.0" text-anchor="end" font-family="Arial" font-size="9" fill="#666">5</text><text x="476.0" y="259.0" text-anchor="start" font-family="Arial" font-size="9" fill="#666">5</text><line x1="46.0" y1="235.0" x2="42.0" y2="235.0" stroke="#888" stroke-width="1"/><line x1="466.0" y1="235.0" x2="470.0" y2="235.0" stroke="#888" stroke-width="1"/><line x1="46.0" y1="214.0" x2="38.0" y2="214.0" stroke="#888" stroke-width="1"/><line x1="466.0" y1="214.0" x2="474.0" y2="214.0" stroke="#888" stroke-width="1"/><text x="36.0" y="217.0" text-anchor="end" font-family="Arial" font-size="9" fill="#666">6</text><text x="476.0" y="217.0" text-anchor="start" font-family="Arial" font-size="9" fill="#666">6</text><line x1="46.0" y1="193.0" x2="42.0" y2="193.0" stroke="#888" stroke-width="1"/><line x1="466.0" y1="193.0" x2="470.0" y2="193.0" stroke="#888" stroke-width="1"/><line x1="46.0" y1="172.0" x2="38.0" y2="172.0" stroke="#888" stroke-width="1"/><line x1="466.0" y1="172.0" x2="474.0" y2="172.0" stroke="#888" stroke-width="1"/><text x="36.0" y="175.0" text-anchor="end" font-family="Arial" font-size="9" fill="#666">7</text><text x="476.0" y="175.0" text-anchor="start" font-family="Arial" font-size="9" fill="#666">7</text><line x1="46.0" y1="151.0" x2="42.0" y2="151.0" stroke="#888" stroke-width="1"/><line x1="466.0" y1="151.0" x2="470.0" y2="151.0" stroke="#888" stroke-width="1"/><line x1="46.0" y1="130.0" x2="38.0" y2="130.0" stroke="#888" stroke-width="1"/><line x1="466.0" y1="130.0" x2="474.0" y2="130.0" stroke="#888" stroke-width="1"/><text x="36.0" y="133.0" text-anchor="end" font-family="Arial" font-size="9" fill="#666">8</text><text x="476.0" y="133.0" text-anchor="start" font-family="Arial" font-size="9" fill="#666">8</text><line x1="46.0" y1="109.0" x2="42.0" y2="109.0" stroke="#888" stroke-width="1"/><line x1="466.0" y1="109.0" x2="470.0" y2="109.0" stroke="#888" stroke-width="1"/><line x1="46.0" y1="88.0" x2="38.0" y2="88.0" stroke="#888" stroke-width="1"/><line x1="466.0" y1="88.0" x2="474.0" y2="88.0" stroke="#888" stroke-width="1"/><text x="36.0" y="91.0" text-anchor="end" font-family="Arial" font-size="9" fill="#666">9</text><text x="476.0" y="91.0" text-anchor="start" font-family="Arial" font-size="9" fill="#666">9</text><line x1="46.0" y1="67.0" x2="42.0" y2="67.0" stroke="#888" stroke-width="1"/><line x1="466.0" y1="67.0" x2="470.0" y2="67.0" stroke="#888" stroke-width="1"/><line x1="46.0" y1="46.0" x2="38.0" y2="46.0" stroke="#888" stroke-width="1"/><line x1="466.0" y1="46.0" x2="474.0" y2="46.0" stroke="#888" stroke-width="1"/><text x="36.0" y="49.0" text-anchor="end" font-family="Arial" font-size="9" fill="#666">10</text><text x="476.0" y="49.0" text-anchor="start" font-family="Arial" font-size="9" fill="#666">10</text><rect x="130.0" y="130.0" width="252.0" height="252.0" fill="none" stroke="#9aa" stroke-width="1" stroke-dasharray="3 3"/><rect x="261.5" y="383.3" width="119.3" height="60.5" fill="#f2f2f2" stroke="#333" stroke-width="1.5" stroke-dasharray="6 4"/><text x="321.1" y="410.9" text-anchor="middle" font-family="Arial" font-size="12" font-weight="bold" fill="#222">PORCH</text><text x="321.1" y="426.7" text-anchor="middle" font-family="Arial" font-size="10" fill="#555">2.9×1.5 m</text><rect x="130.0" y="277.0" width="130.2" height="105.0" fill="#d9ead3" stroke="#333" stroke-width="1.5"/><text x="195.1" y="326.9" text-anchor="middle" font-family="Arial" font-size="12" font-weight="bold" fill="#222">MASTER BR</text><text x="195.1" y="342.7" text-anchor="middle" font-family="Arial" font-size="10" fill="#555">3.1×2.5 m · 7.8 sqm</text><rect x="130.0" y="214.0" width="44.1" height="63.0" fill="#ead1dc" stroke="#333" stroke-width="1.5"/><text x="152.1" y="241.2" text-anchor="middle" font-family="Arial" font-size="8" font-weight="bold" fill="#222">ENSUITE</text><text x="152.1" y="256.4" text-anchor="middle" font-family="Arial" font-size="10" fill="#555">1.6 sqm</text><rect x="130.0" y="130.0" width="130.2" height="84.0" fill="#d9ead3" stroke="#333" stroke-width="1.5"/><text x="195.1" y="169.3" text-anchor="middle" font-family="Arial" font-size="12" font-weight="bold" fill="#222">BEDROOM</text><text x="195.1" y="185.2" text-anchor="middle" font-family="Arial" font-size="10" fill="#555">3.1×2.0 m · 6.2 sqm</text><rect x="174.1" y="214.0" width="44.1" height="63.0" fill="#ead1dc" stroke="#333" stroke-width="1.5"/><text x="196.1" y="242.8" text-anchor="middle" font-family="Arial" font-size="12" font-weight="bold" fill="#222">T&amp;B</text><text x="196.1" y="258.6" text-anchor="middle" font-family="Arial" font-size="10" fill="#555">1.6 sqm</text><rect x="218.2" y="214.0" width="42.0" height="63.0" fill="#efefef" stroke="#333" stroke-width="1.5"/><text x="239.2" y="242.8" text-anchor="middle" font-family="Arial" font-size="12" font-weight="bold" fill="#222">HALL</text><text x="239.2" y="258.6" text-anchor="middle" font-family="Arial" font-size="10" fill="#555">1.5 sqm</text><rect x="260.2" y="293.8" width="121.8" height="88.2" fill="#cfe2f3" stroke="#333" stroke-width="1.5"/><text x="321.1" y="329.5" text-anchor="middle" font-family="Arial" font-size="12" font-weight="bold" fill="#222">LIVING</text><text x="321.1" y="345.3" text-anchor="middle" font-family="Arial" font-size="10" fill="#555">2.9×2.1 m</text><text x="321.1" y="356.8" text-anchor="middle" font-family="Arial" font-size="10" fill="#555">6.1 sqm</text><rect x="260.2" y="205.6" width="121.8" height="88.2" fill="#cfe2f3" stroke="#333" stroke-width="1.5"/><text x="321.1" y="241.3" text-anchor="middle" font-family="Arial" font-size="12" font-weight="bold" fill="#222">DINING</text><text x="321.1" y="257.1" text-anchor="middle" font-family="Arial" font-size="10" fill="#555">2.9×2.1 m</text><text x="321.1" y="268.6" text-anchor="middle" font-family="Arial" font-size="10" fill="#555">6.1 sqm</text><rect x="260.2" y="130.0" width="121.8" height="75.6" fill="#cfe2f3" stroke="#333" stroke-width="1.5"/><text x="321.1" y="159.4" text-anchor="middle" font-family="Arial" font-size="12" font-weight="bold" fill="#222">KITCHEN</text><text x="321.1" y="175.2" text-anchor="middle" font-family="Arial" font-size="10" fill="#555">2.9×1.8 m</text><text x="321.1" y="186.7" text-anchor="middle" font-family="Arial" font-size="10" fill="#555">5.2 sqm</text><text x="256.0" y="500.0" text-anchor="middle" font-family="Arial" font-size="12" font-weight="bold" fill="#888">FRONT (street)</text><rect x="130.00" y="274.90" width="44.10" height="4.20" fill="#555" stroke="none"/><rect x="174.10" y="274.90" width="44.10" height="4.20" fill="#555" stroke="none"/><rect x="218.20" y="274.90" width="42.00" height="4.20" fill="#555" stroke="none"/><rect x="258.10" y="293.80" width="4.20" height="88.20" fill="#555" stroke="none"/><rect x="258.10" y="277.00" width="4.20" height="16.80" fill="#555" stroke="none"/><rect x="130.00" y="211.90" width="44.10" height="4.20" fill="#555" stroke="none"/><rect x="172.00" y="214.00" width="4.20" height="63.00" fill="#555" stroke="none"/><rect x="174.10" y="211.90" width="44.10" height="4.20" fill="#555" stroke="none"/><rect x="218.20" y="211.90" width="42.00" height="4.20" fill="#555" stroke="none"/><rect x="258.10" y="205.60" width="4.20" height="8.40" fill="#555" stroke="none"/><rect x="258.10" y="130.00" width="4.20" height="75.60" fill="#555" stroke="none"/><rect x="216.10" y="214.00" width="4.20" height="63.00" fill="#555" stroke="none"/><rect x="130.00" y="377.80" width="130.20" height="8.40" fill="#555" stroke="none"/><rect x="125.80" y="277.00" width="8.40" height="105.00" fill="#555" stroke="none"/><rect x="125.80" y="214.00" width="8.40" height="63.00" fill="#555" stroke="none"/><rect x="130.00" y="125.80" width="130.20" height="8.40" fill="#555" stroke="none"/><rect x="125.80" y="130.00" width="8.40" height="84.00" fill="#555" stroke="none"/><rect x="260.20" y="377.80" width="121.80" height="8.40" fill="#555" stroke="none"/><rect x="377.80" y="293.80" width="8.40" height="88.20" fill="#555" stroke="none"/><rect x="377.80" y="205.60" width="8.40" height="88.20" fill="#555" stroke="none"/><rect x="260.20" y="125.80" width="121.80" height="8.40" fill="#555" stroke="none"/><rect x="377.80" y="130.00" width="8.40" height="75.60" fill="#555" stroke="none"/><rect x="125.80" y="272.80" width="8.40" height="8.40" fill="#555" stroke="none"/><rect x="172.00" y="274.90" width="4.20" height="4.20" fill="#555" stroke="none"/><rect x="172.00" y="274.90" width="4.20" height="4.20" fill="#555" stroke="none"/><rect x="216.10" y="274.90" width="4.20" height="4.20" fill="#555" stroke="none"/><rect x="216.10" y="274.90" width="4.20" height="4.20" fill="#555" stroke="none"/><rect x="256.00" y="377.80" width="8.40" height="8.40" fill="#555" stroke="none"/><rect x="125.80" y="209.80" width="8.40" height="8.40" fill="#555" stroke="none"/><rect x="172.00" y="211.90" width="4.20" height="4.20" fill="#555" stroke="none"/><rect x="172.00" y="274.90" width="4.20" height="4.20" fill="#555" stroke="none"/><rect x="172.00" y="211.90" width="4.20" height="4.20" fill="#555" stroke="none"/><rect x="172.00" y="211.90" width="4.20" height="4.20" fill="#555" stroke="none"/><rect x="216.10" y="211.90" width="4.20" height="4.20" fill="#555" stroke="none"/><rect x="216.10" y="211.90" width="4.20" height="4.20" fill="#555" stroke="none"/><rect x="256.00" y="125.80" width="8.40" height="8.40" fill="#555" stroke="none"/><rect x="216.10" y="274.90" width="4.20" height="4.20" fill="#555" stroke="none"/><rect x="216.10" y="211.90" width="4.20" height="4.20" fill="#555" stroke="none"/><rect x="125.80" y="377.80" width="8.40" height="8.40" fill="#555" stroke="none"/><rect x="256.00" y="377.80" width="8.40" height="8.40" fill="#555" stroke="none"/><rect x="125.80" y="377.80" width="8.40" height="8.40" fill="#555" stroke="none"/><rect x="125.80" y="272.80" width="8.40" height="8.40" fill="#555" stroke="none"/><rect x="125.80" y="272.80" width="8.40" height="8.40" fill="#555" stroke="none"/><rect x="125.80" y="209.80" width="8.40" height="8.40" fill="#555" stroke="none"/><rect x="125.80" y="125.80" width="8.40" height="8.40" fill="#555" stroke="none"/><rect x="256.00" y="125.80" width="8.40" height="8.40" fill="#555" stroke="none"/><rect x="125.80" y="209.80" width="8.40" height="8.40" fill="#555" stroke="none"/><rect x="125.80" y="125.80" width="8.40" height="8.40" fill="#555" stroke="none"/><rect x="256.00" y="377.80" width="8.40" height="8.40" fill="#555" stroke="none"/><rect x="377.80" y="377.80" width="8.40" height="8.40" fill="#555" stroke="none"/><rect x="377.80" y="377.80" width="8.40" height="8.40" fill="#555" stroke="none"/><rect x="256.00" y="125.80" width="8.40" height="8.40" fill="#555" stroke="none"/><rect x="377.80" y="125.80" width="8.40" height="8.40" fill="#555" stroke="none"/><rect x="377.80" y="125.80" width="8.40" height="8.40" fill="#555" stroke="none"/><rect x="255.2" y="216.1" width="5.0" height="58.8" fill="#efefef" stroke="none"/><rect x="260.2" y="216.1" width="5.0" height="58.8" fill="#cfe2f3" stroke="none"/><rect x="262.3" y="293.8" width="117.6" height="5.0" fill="#cfe2f3" stroke="none"/><rect x="262.3" y="288.8" width="117.6" height="5.0" fill="#cfe2f3" stroke="none"/><rect x="262.3" y="205.6" width="117.6" height="5.0" fill="#cfe2f3" stroke="none"/><rect x="262.3" y="200.6" width="117.6" height="5.0" fill="#cfe2f3" stroke="none"/><rect x="136.3" y="277.0" width="29.4" height="5.0" fill="#d9ead3" stroke="none"/><rect x="136.3" y="272.0" width="29.4" height="5.0" fill="#ead1dc" stroke="none"/><line x1="136.3" y1="277.0" x2="136.3" y2="247.6" stroke="#444" stroke-width="1.4"/><path d="M 136.3 247.6 A 29.4 29.4 0 0 1 165.7 277.0" fill="none" stroke="#999" stroke-width="0.7" stroke-dasharray="2 2"/><rect x="220.3" y="277.0" width="33.6" height="5.0" fill="#d9ead3" stroke="none"/><rect x="220.3" y="272.0" width="33.6" height="5.0" fill="#efefef" stroke="none"/><line x1="253.9" y1="277.0" x2="253.9" y2="310.6" stroke="#444" stroke-width="1.4"/><path d="M 253.9 310.6 A 33.6 33.6 0 0 1 220.3 277.0" fill="none" stroke="#999" stroke-width="0.7" stroke-dasharray="2 2"/><rect x="213.2" y="241.3" width="5.0" height="29.4" fill="#ead1dc" stroke="none"/><rect x="218.2" y="241.3" width="5.0" height="29.4" fill="#efefef" stroke="none"/><line x1="218.2" y1="270.7" x2="188.8" y2="270.7" stroke="#444" stroke-width="1.4"/><path d="M 188.8 270.7 A 29.4 29.4 0 0 1 218.2 241.3" fill="none" stroke="#999" stroke-width="0.7" stroke-dasharray="2 2"/><rect x="220.3" y="209.0" width="33.6" height="5.0" fill="#d9ead3" stroke="none"/><rect x="220.3" y="214.0" width="33.6" height="5.0" fill="#efefef" stroke="none"/><line x1="253.9" y1="214.0" x2="253.9" y2="180.4" stroke="#444" stroke-width="1.4"/><path d="M 253.9 180.4 A 33.6 33.6 0 0 0 220.3 214.0" fill="none" stroke="#999" stroke-width="0.7" stroke-dasharray="2 2"/><rect x="266.5" y="377.0" width="37.8" height="5.0" fill="#cfe2f3" stroke="none"/><rect x="266.5" y="382.0" width="37.8" height="5.0" fill="#fbfbf7" stroke="none"/><line x1="266.5" y1="382.0" x2="266.5" y2="344.2" stroke="#444" stroke-width="1.4"/><path d="M 266.5 344.2 A 37.8 37.8 0 0 1 304.3 382.0" fill="none" stroke="#999" stroke-width="0.7" stroke-dasharray="2 2"/><rect x="266.5" y="130.0" width="33.6" height="5.0" fill="#cfe2f3" stroke="none"/><rect x="266.5" y="125.0" width="33.6" height="5.0" fill="#fbfbf7" stroke="none"/><line x1="266.5" y1="130.0" x2="266.5" y2="163.6" stroke="#444" stroke-width="1.4"/><path d="M 266.5 163.6 A 33.6 33.6 0 0 0 300.1 130.0" fill="none" stroke="#999" stroke-width="0.7" stroke-dasharray="2 2"/><rect x="159.3" y="377.0" width="71.6" height="5.0" fill="#d9ead3" stroke="none"/><rect x="159.3" y="382.0" width="71.6" height="5.0" fill="#fbfbf7" stroke="none"/><line x1="159.3" y1="379.0" x2="230.9" y2="379.0" stroke="#222" stroke-width="1.0"/><line x1="159.3" y1="382.0" x2="230.9" y2="382.0" stroke="#222" stroke-width="1.0"/><line x1="159.3" y1="385.0" x2="230.9" y2="385.0" stroke="#222" stroke-width="1.0"/><rect x="130.0" y="300.6" width="5.0" height="57.8" fill="#d9ead3" stroke="none"/><rect x="125.0" y="300.6" width="5.0" height="57.8" fill="#fbfbf7" stroke="none"/><line x1="127.0" y1="358.4" x2="127.0" y2="300.6" stroke="#222" stroke-width="1.0"/><line x1="130.0" y1="358.4" x2="130.0" y2="300.6" stroke="#222" stroke-width="1.0"/><line x1="133.0" y1="358.4" x2="133.0" y2="300.6" stroke="#222" stroke-width="1.0"/><rect x="130.0" y="229.8" width="5.0" height="31.5" fill="#ead1dc" stroke="none"/><rect x="125.0" y="229.8" width="5.0" height="31.5" fill="#fbfbf7" stroke="none"/><line x1="127.0" y1="261.2" x2="127.0" y2="229.8" stroke="#222" stroke-width="1.0"/><line x1="130.0" y1="261.2" x2="130.0" y2="229.8" stroke="#222" stroke-width="1.0"/><line x1="133.0" y1="261.2" x2="133.0" y2="229.8" stroke="#222" stroke-width="1.0"/><rect x="159.3" y="130.0" width="71.6" height="5.0" fill="#d9ead3" stroke="none"/><rect x="159.3" y="125.0" width="71.6" height="5.0" fill="#fbfbf7" stroke="none"/><line x1="159.3" y1="127.0" x2="230.9" y2="127.0" stroke="#222" stroke-width="1.0"/><line x1="159.3" y1="130.0" x2="230.9" y2="130.0" stroke="#222" stroke-width="1.0"/><line x1="159.3" y1="133.0" x2="230.9" y2="133.0" stroke="#222" stroke-width="1.0"/><rect x="130.0" y="148.9" width="5.0" height="46.2" fill="#d9ead3" stroke="none"/><rect x="125.0" y="148.9" width="5.0" height="46.2" fill="#fbfbf7" stroke="none"/><line x1="127.0" y1="195.1" x2="127.0" y2="148.9" stroke="#222" stroke-width="1.0"/><line x1="130.0" y1="195.1" x2="130.0" y2="148.9" stroke="#222" stroke-width="1.0"/><line x1="133.0" y1="195.1" x2="133.0" y2="148.9" stroke="#222" stroke-width="1.0"/><rect x="330.5" y="377.0" width="37.8" height="5.0" fill="#cfe2f3" stroke="none"/><rect x="330.5" y="382.0" width="37.8" height="5.0" fill="#fbfbf7" stroke="none"/><line x1="330.5" y1="379.0" x2="368.3" y2="379.0" stroke="#222" stroke-width="1.0"/><line x1="330.5" y1="382.0" x2="368.3" y2="382.0" stroke="#222" stroke-width="1.0"/><line x1="330.5" y1="385.0" x2="368.3" y2="385.0" stroke="#222" stroke-width="1.0"/><rect x="377.0" y="313.7" width="5.0" height="48.5" fill="#cfe2f3" stroke="none"/><rect x="382.0" y="313.7" width="5.0" height="48.5" fill="#fbfbf7" stroke="none"/><line x1="379.0" y1="362.2" x2="379.0" y2="313.7" stroke="#222" stroke-width="1.0"/><line x1="382.0" y1="362.2" x2="382.0" y2="313.7" stroke="#222" stroke-width="1.0"/><line x1="385.0" y1="362.2" x2="385.0" y2="313.7" stroke="#222" stroke-width="1.0"/><rect x="377.0" y="225.4" width="5.0" height="48.5" fill="#cfe2f3" stroke="none"/><rect x="382.0" y="225.4" width="5.0" height="48.5" fill="#fbfbf7" stroke="none"/><line x1="379.0" y1="273.9" x2="379.0" y2="225.4" stroke="#222" stroke-width="1.0"/><line x1="382.0" y1="273.9" x2="382.0" y2="225.4" stroke="#222" stroke-width="1.0"/><line x1="385.0" y1="273.9" x2="385.0" y2="225.4" stroke="#222" stroke-width="1.0"/><rect x="377.0" y="147.0" width="5.0" height="41.6" fill="#cfe2f3" stroke="none"/><rect x="382.0" y="147.0" width="5.0" height="41.6" fill="#fbfbf7" stroke="none"/><line x1="379.0" y1="188.6" x2="379.0" y2="147.0" stroke="#222" stroke-width="1.0"/><line x1="382.0" y1="188.6" x2="382.0" y2="147.0" stroke="#222" stroke-width="1.0"/><line x1="385.0" y1="188.6" x2="385.0" y2="147.0" stroke="#222" stroke-width="1.0"/><rect x="328.3" y="130.0" width="38.1" height="5.0" fill="#cfe2f3" stroke="none"/><rect x="328.3" y="125.0" width="38.1" height="5.0" fill="#fbfbf7" stroke="none"/><line x1="328.3" y1="127.0" x2="366.4" y2="127.0" stroke="#222" stroke-width="1.0"/><line x1="328.3" y1="130.0" x2="366.4" y2="130.0" stroke="#222" stroke-width="1.0"/><line x1="328.3" y1="133.0" x2="366.4" y2="133.0" stroke="#222" stroke-width="1.0"/></svg>