<svg xmlns="http://www.w3.org/2000/svg" width="596" height="596" viewBox="0 0 596 596"><rect x="0" y="0" width="596" height="596" fill="white"/><rect x="46.0" y="46.0" width="504.0" height="504.0" fill="#fbfbf7" stroke="#333" stroke-width="1.5"/><line x1="46.0" y1="46.0" x2="46.0" y2="38.0" stroke="#888" stroke-width="1"/><line x1="46.0" y1="550.0" x2="46.0" y2="558.0" stroke="#888" stroke-width="1"/><text x="46.0" y="36.0" text-anchor="middle" font-family="Arial" font-size="9" fill="#666">0</text><text x="46.0" y="566.0" text-anchor="middle" font-family="Arial" font-size="9" fill="#666">0</text><line x1="67.0" y1="46.0" x2="67.0" y2="42.0" stroke="#888" stroke-width="1"/><line x1="67.0" y1="550.0" x2="67.0" y2="554.0" stroke="#888" stroke-width="1"/><line x1="88.0" y1="46.0" x2="88.0" y2="38.0" stroke="#888" stroke-width="1"/><line x1="88.0" y1="550.0" x2="88.0" y2="558.0" stroke="#888" stroke-width="1"/><text x="88.0" y="36.0" text-anchor="middle" font-family="Arial" font-size="9" fill="#666">1</text><text x="88.0" y="566.0" text-anchor="middle" font-family="Arial" font-size="9" fill="#666">1</text><line x1="109.0" y1="46.0" x2="109.0" y2="42.0" stroke="#888" stroke-width="1"/><line x1="109.0" y1="550.0" x2="109.0" y2="554.0" stroke="#888" stroke-width="1"/><line x1="130.0" y1="46.0" x2="130.0" y2="38.0" stroke="#888" stroke-width="1"/><line x1="130.0" y1="550.0" x2="130.0" y2="558.0" stroke="#888" stroke-width="1"/><text x="130.0" y="36.0" text-anchor="middle" font-family="Arial" font-size="9" fill="#666">2</text><text x="130.0" y="566.0" text-anchor="middle" font-family="Arial" font-size="9" fill="#666">2</text><line x1="151.0" y1="46.0" x2="151.0" y2="42.0" stroke="#888" stroke-width="1"/><line x1="151.0" y1="550.0" x2="151.0" y2="554.0" stroke="#888" stroke-width="1"/><line x1="172.0" y1="46.0" x2="172.0" y2="38.0" stroke="#888" stroke-width="1"/><line x1="172.0" y1="550.0" x2="172.0" y2="558.0" stroke="#888" stroke-width="1"/><text x="172.0" y="36.0" text-anchor="middle" font-family="Arial" font-size="9" fill="#666">3</text><text x="172.0" y="566.0" text-anchor="middle" font-family="Arial" font-size="9" fill="#666">3</text><line x1="193.0" y1="46.0" x2="193.0" y2="42.0" stroke="#888" stroke-width="1"/><line x1="193.0" y1="550.0" x2="193.0" y2="554.0" stroke="#888" stroke-width="1"/><line x1="214.0" y1="46.0" x2="214.0" y2="38.0" stroke="#888" stroke-width="1"/><line x1="214.0" y1="550.0" x2="214.0" y2="558.0" stroke="#888" stroke-width="1"/><text x="214.0" y="36.0" text-anchor="middle" font-family="Arial" font-size="9" fill="#666">4</text><text x="214.0" y="566.0" text-anchor="middle" font-family="Arial" font-size="9" fill="#666">4</text><line x1="235.0" y1="46.0" x2="235.0" y2="42.0" stroke="#888" stroke-width="1"/><line x1="235.0" y1="550.0" x2="235.0" y2="554.0" stroke="#888" stroke-width="1"/><line x1="256.0" y1="46.0" x2="256.0" y2="38.0" stroke="#888" stroke-width="1"/><line x1="256.0" y1="550.0" x2="256.0" y2="558.0" stroke="#888" stroke-width="1"/><text x="256.0" y="36.0" text-anchor="middle" font-family="Arial" font-size="9" fill="#666">5</text><text x="256.0" y="566.0" text-anchor="middle" font-family="Arial" font-size="9" fill="#666">5</text><line x1="277.0" y1="46.0" x2="277.0" y2="42.0" stroke="#888" stroke-width="1"/><line x1="277.0" y1="550.0" x2="277.0" y2="554.0" stroke="#888" stroke-width="1"/><line x1="298.0" y1="46.0" x2="298.0" y2="38.0" stroke="#888" stroke-width="1"/><line x1="298.0" y1="550.0" x2="298.0" y2="558.0" stroke="#888" stroke-width="1"/><text x="298.0" y="36.0" text-anchor="middle" font-family="Arial" font-size="9" fill="#666">6</text><text x="298.0" y="566.0" text-anchor="middle" font-family="Arial" font-size="9" fill="#666">6</text><line x1="319.0" y1="46.0" x2="319.0" y2="42.0" stroke="#888" stroke-width="1"/><line x1="319.0" y1="550.0" x2="319.0" y2="554.0" stroke="#888" stroke-width="1"/><line x1="340.0" y1="46.0" x2="340.0" y2="38.0" stroke="#888" stroke-width="1"/><line x1="340.0" y1="550.0" x2="340.0" y2="558.0" stroke="#888" stroke-width="1"/><text x="340.0" y="36.0" text-anchor="middle" font-family="Arial" font-size="9" fill="#666">7</text><text x="340.0" y="566.0" text-anchor="middle" font-family="Arial" font-size="9" fill="#666">7</text><line x1="361.0" y1="46.0" x2="361.0" y2="42.0" stroke="#888" stroke-width="1"/><line x1="361.0" y1="550.0" x2="361.0" y2="554.0" stroke="#888" stroke-width="1"/><line x1="382.0" y1="46.0" x2="382.0" y2="38.0" stroke="#888" stroke-width="1"/><line x1="382.0" y1="550.0" x2="382.0" y2="558.0" stroke="#888" stroke-width="1"/><text x="382.0" y="36.0" text-anchor="middle" font-family="Arial" font-size="9" fill="#666">8</text><text x="382.0" y="566.0" text-anchor="middle" font-family="Arial" font-size="9" fill="#666">8</text><line x1="403.0" y1="46.0" x2="403.0" y2="42.0" stroke="#888" stroke-width="1"/><line x1="403.0" y1="550.0" x2="403.0" y2="554.0" stroke="#888" stroke-width="1"/><line x1="424.0" y1="46.0" x2="424.0" y2="38.0" stroke="#888" stroke-width="1"/><line x1="424.0" y1="550.0" x2="424.0" y2="558.0" stroke="#888" stroke-width="1"/><text x="424.0" y="36.0" text-anchor="middle" font-family="Arial" font-size="9" fill="#666">9</text><text x="424.0" y="566.0" text-anchor="middle" font-family="Arial" font-size="9" fill="#666">9</text><line x1="445.0" y1="46.0" x2="445.0" y2="42.0" stroke="#888" stroke-width="1"/><line x1="445.0" y1="550.0" x2="445.0" y2="554.0" stroke="#888" stroke-width="1"/><line x1="466.0" y1="46.0" x2="466.0" y2="38.0" stroke="#888" stroke-width="1"/><line x1="466.0" y1="550.0" x2="466.0" y2="558.0" stroke="#888" stroke-width="1"/><text x="466.0" y="36.0" text-anchor="middle" font-family="Arial" font-size="9" fill="#666">10</text><text x="466.0" y="566.0" text-anchor="middle" font-family="Arial" font-size="9" fill="#666">10</text><line x1="487.0" y1="46.0" x2="487.0" y2="42.0" stroke="#888" stroke-width="1"/><line x1="487.0" y1="550.0" x2="487.0" y2="554.0" stroke="#888" stroke-width="1"/><line x1="508.0" y1="46.0" x2="508.0" y2="38.0" stroke="#888" stroke-width="1"/><line x1="508.0" y1="550.0" x2="508.0" y2="558.0" stroke="#888" stroke-width="1"/><text x="508.0" y="36.0" text-anchor="middle" font-family="Arial" font-size="9" fill="#666">11</text><text x="508.0" y="566.0" text-anchor="middle" font-family="Arial" font-size="9" fill="#666">11</text><line x1="529.0" y1="46.0" x2="529.0" y2="42.0" stroke="#888" stroke-width="1"/><line x1="529.0" y1="550.0" x2="529.0" y2="554.0" stroke="#888" stroke-width="1"/><line x1="550.0" y1="46.0" x2="550.0" y2="38.0" stroke="#888" stroke-width="1"/><line x1="550.0" y1="550.0" x2="550.0" y2="558.0" stroke="#888" stroke-width="1"/><text x="550.0" y="36.0" text-anchor="middle" font-family="Arial" font-size="9" fill="#666">12</text><text x="550.0" y="566.0" text-anchor="middle" font-family="Arial" font-size="9" fill="#666">12</text><line x1="46.0" y1="550.0" x2="38.0" y2="550.0" stroke="#888" stroke-width="1"/><line x1="550.0" y1="550.0" x2="558.0" y2="550.0" stroke="#888" stroke-width="1"/><text x="36.0" y="553.0" text-anchor="end" font-family="Arial" font-size="9" fill="#666">0</text><text x="560.0" y="553.0" text-anchor="start" font-family="Arial" font-size="9" fill="#666">0</text><line x1="46.0" y1="529.0" x2="42.0" y2="529.0" stroke="#888" stroke-width="1"/><line x1="550.0" y1="529.0" x2="554.0" y2="529.0" stroke="#888" stroke-width="1"/><line x1="46.0" y1="508.0" x2="38.0" y2="508.0" stroke="#888" stroke-width="1"/><line x1="550.0" y1="508.0" x2="558.0" y2="508.0" stroke="#888" stroke-width="1"/><text x="36.0" y="511.0" text-anchor="end" font-family="Arial" font-size="9" fill="#666">1</text><text x="560.0" y="511.0" text-anchor="start" font-family="Arial" font-size="9" fill="#666">1</text><line x1="46.0" y1="487.0" x2="42.0" y2="487.0" stroke="#888" stroke-width="1"/><line x1="550.0" y1="487.0" x2="554.0" y2="487.0" stroke="#888" stroke-width="1"/><line x1="46.0" y1="466.0" x2="38.0" y2="466.0" stroke="#888" stroke-width="1"/><line x1="550.0" y1="466.0" x2="558.0" y2="466.0" stroke="#888" stroke-width="1"/><text x="36.0" y="469.0" text-anchor="end" font-family="Arial" font-size="9" fill="#666">2</text><text x="560.0" y="469.0" text-anchor="start" font-family="Arial" font-size="9" fill="#666">2</text><line x1="46.0" y1="445.0" x2="42.0" y2="445.0" stroke="#888" stroke-width="1"/><line x1="550.0" y1="445.0" x2="554.0" y2="445.0" stroke="#888" stroke-width="1"/><line x1="46.0" y1="424.0" x2="38.0" y2="424.0" stroke="#888" stroke-width="1"/><line x1="550.0" y1="424.0" x2="558.0" y2="424.0" stroke="#888" stroke-width="1"/><text x="36.0" y="427.0" text-anchor="end" font-family="Arial" font-size="9" fill="#666">3</text><text x="560.0" y="427.0" text-anchor="start" font-family="Arial" font-size="9" fill="#666">3</text><line x1="46.0" y1="403.0" x2="42.0" y2="403.0" stroke="#888" stroke-width="1"/><line x1="550.0" y1="403.0" x2="554.0" y2="403.0" stroke="#888" stroke-width="1"/><line x1="46.0" y1="382.0" x2="38.0" y2="382.0" stroke="#888" stroke-width="1"/><line x1="550.0" y1="382.0" x2="558.0" y2="382.0" stroke="#888" stroke-width="1"/><text x="36.0" y="385.0" text-anchor="end" font-family="Arial" font-size="9" fill="#666">4</text><text x="560.0" y="385.0" text-anchor="start" font-family="Arial" font-size="9" fill="#666">4</text><line x1="46.0" y1="361.0" x2="42.0" y2="361.0" stroke="#888" stroke-width="1"/><line x1="550.0" y1="361.0" x2="554.0" y2="361.0" stroke="#888" stroke-width="1"/><line x1="46.0" y1="340.0" x2="38.0" y2="340.0" stroke="#888" stroke-width="1"/><line x1="550.0" y1="340.0" x2="558.0" y2="340.0" stroke="#888" stroke-width="1"/><text x="36.0" y="343.0" text-anchor="end" font-family="Arial" font-size="9" fill="#666">5</text><text x="560.0" y="343.0" text-anchor="start" font-family="Arial" font-size="9" fill="#666">5</text><line x1="46.0" y1="319.0" x2="42.0" y2="319.0" stroke="#888" stroke-width="1"/><line x1="550.0" y1="319.0" x2="554.0" y2="319.0" stroke="#888" stroke-width="1"/><line x1="46.0" y1="298.0" x2="38.0" y2="298.0" stroke="#888" stroke-width="1"/><line x1="550.0" y1="298.0" x2="558.0" y2="298.0" stroke="#888" stroke-width="1"/><text x="36.0" y="301.0" text-anchor="end" font-family="Arial" font-size="9" fill="#666">6</text><text x="560.0" y="301.0" text-anchor="start" font-family="Arial" font-size="9" fill="#666">6</text><line x1="46.0" y1="277.0" x2="42.0" y2="277.0" stroke="#888" stroke-width="1"/><line x1="550.0" y1="277.0" x2="554.0" y2="277.0" stroke="#888" stroke-width="1"/><line x1="46.0" y1="256.0" x2="38.0" y2="256.0" stroke="#888" stroke-width="1"/><line x1="550.0" y1="256.0" x2="558.0" y2="256.0" stroke="#888" stroke-width="1"/><text x="36.0" y="259.0" text-anchor="end" font-family="Arial" font-size="9" fill="#666">7</text><text x="560.0" y="259.0" text-anchor="start" font-family="Arial" font-size="9" fill="#666">7</text><line x1="46.0" y1="235.0" x2="42.0" y2="235.0" stroke="#888" stroke-width="1"/><line x1="550.0" y1="235.0" x2="554.0" y2="235.0" stroke="#888" stroke-width="1"/><line x1="46.0" y1="214.0" x2="38.0" y2="214.0" stroke="#888" stroke-width="1"/><line x1="550.0" y1="214.0" x2="558.0" y2="214.0" stroke="#888" stroke-width="1"/><text x="36.0" y="217.0" text-anchor="end" font-family="Arial" font-size="9" fill="#666">8</text><text x="560.0" y="217.0" text-anchor="start" font-family="Arial" font-size="9" fill="#666">8</text><line x1="46.0" y1="193.0" x2="42.0" y2="193.0" stroke="#888" stroke-width="1"/><line x1="550.0" y1="193.0" x2="554.0" y2="193.0" stroke="#888" stroke-width="1"/><line x1="46.0" y1="172.0" x2="38.0" y2="172.0" stroke="#888" stroke-width="1"/><line x1="550.0" y1="172.0" x2="558.0" y2="172.0" stroke="#888" stroke-width="1"/><text x="36.0" y="175.0" text-anchor="end" font-family="Arial" font-size="9" fill="#666">9</text><text x="560.0" y="175.0" text-anchor="start" font-family="Arial" font-size="9" fill="#666">9</text><line x1="46.0" y1="151.0" x2="42.0" y2="151.0" stroke="#888" stroke-width="1"/><line x1="550.0" y1="151.0" x2="554.0" y2="151.0" stroke="#888" stroke-width="1"/><line x1="46.0" y1="130.0" x2="38.0" y2="130.0" stroke="#888" stroke-width="1"/><line x1="550.0" y1="130.0" x2="558.0" y2="130.0" stroke="#888" stroke-width="1"/><text x="36.0" y="133.0" text-anchor="end" font-family="Arial" font-size="9" fill="#666">10</text><text x="560.0" y="133.0" text-anchor="start" font-family="Arial" font-size="9" fill="#666">10</text><line x1="46.0" y1="109.0" x2="42.0" y2="109.0" stroke="#888" stroke-width="1"/><line x1="550.0" y1="109.0" x2="554.0" y2="109.0" stroke="#888" stroke-width="1"/><line x1="46.0" y1="88.0" x2="38.0" y2="88.0" stroke="#888" stroke-width="1"/><line x1="550.0" y1="88.0" x2="558.0" y2="88.0" stroke="#888" stroke-width="1"/><text x="36.0" y="91.0" text-anchor="end" font-family="Arial" font-size="9" fill="#666">11</text><text x="560.0" y="91.0" text-anchor="start" font-family="Arial" font-size="9" fill="#666">11</text><line x1="46.0" y1="67.0" x2="42.0" y2="67.0" stroke="#888" stroke-width="1"/><line x1="550.0" y1="67.0" x2="554.0" y2="67.0" stroke="#888" stroke-width="1"/><line x1="46.0" y1="46.0" x2="38.0" y2="46.0" stroke="#888" stroke-width="1"/><line x1="550.0" y1="46.0" x2="558.0" y2="46.0" stroke="#888" stroke-width="1"/><text x="36.0" y="49.0" text-anchor="end" font-family="Arial" font-size="9" fill="#666">12</text><text x="560.0" y="49.0" text-anchor="start" font-family="Arial" font-size="9" fill="#666">12</text><rect x="130.0" y="130.0" width="336.0" height="336.0" fill="none" stroke="#9aa" stroke-width="1" stroke-dasharray="3 3"/><rect x="341.3" y="59.9" width="123.5" height="64.7" fill="#f2f2f2" stroke="#333" stroke-width="1.5" stroke-dasharray="6 4"/><text x="403.0" y="89.6" text-anchor="middle" font-family="Arial" font-size="12" font-weight="bold" fill="#222">DIRTY KITCHEN</text><text x="403.0" y="105.4" text-anchor="middle" font-family="Arial" font-size="10" fill="#555">3.0×1.6 m</text><rect x="131.3" y="59.9" width="207.5" height="64.7" fill="#f2f2f2" stroke="#333" stroke-width="1.5" stroke-dasharray="6 4"/><text x="235.0" y="89.6" text-anchor="middle" font-family="Arial" font-size="12" font-weight="bold" fill="#222">SERVICE</text><text x="235.0" y="105.4" text-anchor="middle" font-family="Arial" font-size="10" fill="#555">5.0×1.6 m</text><rect x="130.0" y="268.6" width="147.0" height="197.4" fill="#d9ead3" stroke="#333" stroke-width="1.5"/><text x="203.5" y="364.7" text-anchor="middle" font-family="Arial" font-size="12" font-weight="bold" fill="#222">MASTER BR</text><text x="203.5" y="380.5" text-anchor="middle" font-family="Arial" font-size="10" fill="#555">3.5×4.7 m · 16.4 sqm</text><rect x="130.0" y="130.0" width="147.0" height="138.6" fill="#d9ead3" stroke="#333" stroke-width="1.5"/><text x="203.5" y="196.7" text-anchor="middle" font-family="Arial" font-size="12" font-weight="bold" fill="#222">BEDROOM</text><text x="203.5" y="212.5" text-anchor="middle" font-family="Arial" font-size="10" fill="#555">3.5×3.3 m · 11.6 sqm</text><rect x="277.0" y="130.0" width="63.0" height="88.2" fill="#ead1dc" stroke="#333" stroke-width="1.5"/><text x="308.5" y="165.7" text-anchor="middle" font-family="Arial" font-size="12" font-weight="bold" fill="#222">T&amp;B</text><text x="308.5" y="181.5" text-anchor="middle" font-family="Arial" font-size="10" fill="#555">1.5×2.1 m</text><text x="308.5" y="193.0" text-anchor="middle" font-family="Arial" font-size="10" fill="#555">3.1 sqm</text><rect x="277.0" y="218.2" width="189.0" height="247.8" fill="#cfe2f3" stroke="#333" stroke-width="1.5"/><text x="371.5" y="339.4" text-anchor="middle" font-family="Arial" font-size="12" font-weight="bold" fill="#222">GREAT ROOM</text><text x="371.5" y="355.2" text-anchor="middle" font-family="Arial" font-size="10" fill="#555">4.5×5.9 m · 26.6 sqm</text><rect x="340.0" y="130.0" width="126.0" height="88.2" fill="#cfe2f3" stroke="#333" stroke-width="1.5"/><text x="403.0" y="171.4" text-anchor="middle" font-family="Arial" font-size="12" font-weight="bold" fill="#222">KITCHEN</text><text x="403.0" y="187.2" text-anchor="middle" font-family="Arial" font-size="10" fill="#555">3.0×2.1 m · 6.3 sqm</text><text x="298.0" y="584.0" text-anchor="middle" font-family="Arial" font-size="12" font-weight="bold" fill="#888">FRONT (street)</text><rect x="130.00" y="266.50" width="147.00" height="4.20" fill="#555" stroke="none"/><rect x="274.90" y="268.60" width="4.20" height="197.40" fill="#555" stroke="none"/><rect x="274.90" y="130.00" width="4.20" height="88.20" fill="#555" stroke="none"/><rect x="274.90" y="218.20" width="4.20" height="50.40" fill="#555" stroke="none"/><rect x="277.00" y="216.10" width="63.00" height="4.20" fill="#555" stroke="none"/><rect x="337.90" y="130.00" width="4.20" height="88.20" fill="#555" stroke="none"/><rect x="130.00" y="461.80" width="147.00" height="8.40" fill="#555" stroke="none"/><rect x="125.80" y="268.60" width="8.40" height="197.40" fill="#555" stroke="none"/><rect x="130.00" y="125.80" width="147.00" height="8.40" fill="#555" stroke="none"/><rect x="125.80" y="130.00" width="8.40" height="138.60" fill="#555" stroke="none"/><rect x="277.00" y="125.80" width="63.00" height="8.40" fill="#555" stroke="none"/><rect x="277.00" y="461.80" width="189.00" height="8.40" fill="#555" stroke="none"/><rect x="461.80" y="218.20" width="8.40" height="247.80" fill="#555" stroke="none"/><rect x="340.00" y="125.80" width="126.00" height="8.40" fill="#555" stroke="none"/><rect x="461.80" y="130.00" width="8.40" height="88.20" fill="#555" stroke="none"/><rect x="125.80" y="264.40" width="8.40" height="8.40" fill="#555" stroke="none"/><rect x="274.90" y="266.50" width="4.20" height="4.20" fill="#555" stroke="none"/><rect x="272.80" y="461.80" width="8.40" height="8.40" fill="#555" stroke="none"/><rect x="274.90" y="266.50" width="4.20" height="4.20" fill="#555" stroke="none"/><rect x="274.90" y="216.10" width="4.20" height="4.20" fill="#555" stroke="none"/><rect x="272.80" y="125.80" width="8.40" height="8.40" fill="#555" stroke="none"/><rect x="274.90" y="266.50" width="4.20" height="4.20" fill="#555" stroke="none"/><rect x="274.90" y="216.10" width="4.20" height="4.20" fill="#555" stroke="none"/><rect x="274.90" y="216.10" width="4.20" height="4.20" fill="#555" stroke="none"/><rect x="337.90" y="216.10" width="4.20" height="4.20" fill="#555" stroke="none"/><rect x="337.90" y="216.10" width="4.20" height="4.20" fill="#555" stroke="none"/><rect x="335.80" y="125.80" width="8.40" height="8.40" fill="#555" stroke="none"/><rect x="125.80" y="461.80" width="8.40" height="8.40" fill="#555" stroke="none"/><rect x="272.80" y="461.80" width="8.40" height="8.40" fill="#555" stroke="none"/><rect x="125.80" y="461.80" width="8.40" height="8.40" fill="#555" stroke="none"/><rect x="125.80" y="264.40" width="8.40" height="8.40" fill="#555" stroke="none"/><rect x="125.80" y="125.80" width="8.40" height="8.40" fill="#555" stroke="none"/><rect x="272.80" y="125.80" width="8.40" height="8.40" fill="#555" stroke="none"/><rect x="125.80" y="264.40" width="8.40" height="8.40" fill="#555" stroke="none"/><rect x="125.80" y="125.80" width="8.40" height="8.40" fill="#555" stroke="none"/><rect x="272.80" y="125.80" width="8.40" height="8.40" fill="#555" stroke="none"/><rect x="335.80" y="125.80" width="8.40" height="8.40" fill="#555" stroke="none"/><rect x="272.80" y="461.80" width="8.40" height="8.40" fill="#555" stroke="none"/><rect x="461.80" y="461.80" width="8.40" height="8.40" fill="#555" stroke="none"/><rect x="461.80" y="461.80" width="8.40" height="8.40" fill="#555" stroke="none"/><rect x="335.80" y="125.80" width="8.40" height="8.40" fill="#555" stroke="none"/><rect x="461.80" y="125.80" width="8.40" height="8.40" fill="#555" stroke="none"/><rect x="461.80" y="125.80" width="8.40" height="8.40" fill="#555" stroke="none"/><rect x="344.2" y="213.2" width="117.6" height="5.0" fill="#cfe2f3" stroke="none"/><rect x="344.2" y="218.2" width="117.6" height="5.0" fill="#cfe2f3" stroke="none"/><rect x="272.0" y="274.9" width="5.0" height="33.6" fill="#d9ead3" stroke="none"/><rect x="277.0" y="274.9" width="5.0" height="33.6" fill="#cfe2f3" stroke="none"/><line x1="277.0" y1="274.9" x2="243.4" y2="274.9" stroke="#444" stroke-width="1.4"/><path d="M 243.4 274.9 A 33.6 33.6 0 0 0 277.0 308.5" fill="none" stroke="#999" stroke-width="0.7" stroke-dasharray="2 2"/><rect x="272.0" y="228.7" width="5.0" height="33.6" fill="#d9ead3" stroke="none"/><rect x="277.0" y="228.7" width="5.0" height="33.6" fill="#cfe2f3" stroke="none"/><line x1="277.0" y1="262.3" x2="243.4" y2="262.3" stroke="#444" stroke-width="1.4"/><path d="M 243.4 262.3 A 33.6 33.6 0 0 1 277.0 228.7" fill="none" stroke="#999" stroke-width="0.7" stroke-dasharray="2 2"/><rect x="283.3" y="213.2" width="29.4" height="5.0" fill="#ead1dc" stroke="none"/><rect x="283.3" y="218.2" width="29.4" height="5.0" fill="#cfe2f3" stroke="none"/><line x1="283.3" y1="218.2" x2="283.3" y2="188.8" stroke="#444" stroke-width="1.4"/><path d="M 283.3 188.8 A 29.4 29.4 0 0 1 312.7 218.2" fill="none" stroke="#999" stroke-width="0.7" stroke-dasharray="2 2"/><rect x="421.9" y="461.0" width="37.8" height="5.0" fill="#cfe2f3" stroke="none"/><rect x="421.9" y="466.0" width="37.8" height="5.0" fill="#fbfbf7" stroke="none"/><line x1="459.7" y1="466.0" x2="459.7" y2="428.2" stroke="#444" stroke-width="1.4"/><path d="M 459.7 428.2 A 37.8 37.8 0 0 0 421.9 466.0" fill="none" stroke="#999" stroke-width="0.7" stroke-dasharray="2 2"/><rect x="346.3" y="130.0" width="33.6" height="5.0" fill="#cfe2f3" stroke="none"/><rect x="346.3" y="125.0" width="33.6" height="5.0" fill="#fbfbf7" stroke="none"/><line x1="346.3" y1="130.0" x2="346.3" y2="163.6" stroke="#444" stroke-width="1.4"/><path d="M 346.3 163.6 A 33.6 33.6 0 0 0 379.9 130.0" fill="none" stroke="#999" stroke-width="0.7" stroke-dasharray="2 2"/><rect x="130.0" y="316.9" width="5.0" height="100.8" fill="#d9ead3" stroke="none"/><rect x="125.0" y="316.9" width="5.0" height="100.8" fill="#fbfbf7" stroke="none"/><line x1="127.0" y1="417.7" x2="127.0" y2="316.9" stroke="#222" stroke-width="1.0"/><line x1="130.0" y1="417.7" x2="130.0" y2="316.9" stroke="#222" stroke-width="1.0"/><line x1="133.0" y1="417.7" x2="133.0" y2="316.9" stroke="#222" stroke-width="1.0"/><rect x="163.1" y="461.0" width="80.8" height="5.0" fill="#d9ead3" stroke="none"/><rect x="163.1" y="466.0" width="80.8" height="5.0" fill="#fbfbf7" stroke="none"/><line x1="163.1" y1="463.0" x2="243.9" y2="463.0" stroke="#222" stroke-width="1.0"/><line x1="163.1" y1="466.0" x2="243.9" y2="466.0" stroke="#222" stroke-width="1.0"/><line x1="163.1" y1="469.0" x2="243.9" y2="469.0" stroke="#222" stroke-width="1.0"/><rect x="163.1" y="130.0" width="80.8" height="5.0" fill="#d9ead3" stroke="none"/><rect x="163.1" y="125.0" width="80.8" height="5.0" fill="#fbfbf7" stroke="none"/><line x1="163.1" y1="127.0" x2="243.9" y2="127.0" stroke="#222" stroke-width="1.0"/><line x1="163.1" y1="130.0" x2="243.9" y2="130.0" stroke="#222" stroke-width="1.0"/><line x1="163.1" y1="133.0" x2="243.9" y2="133.0" stroke="#222" stroke-width="1.0"/><rect x="130.0" y="161.2" width="5.0" height="76.2" fill="#d9ead3" stroke="none"/><rect x="125.0" y="161.2" width="5.0" height="76.2" fill="#fbfbf7" stroke="none"/><line x1="127.0" y1="237.4" x2="127.0" y2="161.2" stroke="#222" stroke-width="1.0"/><line x1="130.0" y1="237.4" x2="130.0" y2="161.2" stroke="#222" stroke-width="1.0"/><line x1="133.0" y1="237.4" x2="133.0" y2="161.2" stroke="#222" stroke-width="1.0"/><rect x="292.8" y="130.0" width="31.5" height="5.0" fill="#ead1dc" stroke="none"/><rect x="292.8" y="125.0" width="31.5" height="5.0" fill="#fbfbf7" stroke="none"/><line x1="292.8" y1="127.0" x2="324.2" y2="127.0" stroke="#222" stroke-width="1.0"/><line x1="292.8" y1="130.0" x2="324.2" y2="130.0" stroke="#222" stroke-width="1.0"/><line x1="292.8" y1="133.0" x2="324.2" y2="133.0" stroke="#222" stroke-width="1.0"/><rect x="461.0" y="291.7" width="5.0" height="100.8" fill="#cfe2f3" stroke="none"/><rect x="466.0" y="291.7" width="5.0" height="100.8" fill="#fbfbf7" stroke="none"/><line x1="463.0" y1="392.5" x2="463.0" y2="291.7" stroke="#222" stroke-width="1.0"/><line x1="466.0" y1="392.5" x2="466.0" y2="291.7" stroke="#222" stroke-width="1.0"/><line x1="469.0" y1="392.5" x2="469.0" y2="291.7" stroke="#222" stroke-width="1.0"/><rect x="306.8" y="461.0" width="72.8" height="5.0" fill="#cfe2f3" stroke="none"/><rect x="306.8" y="466.0" width="72.8" height="5.0" fill="#fbfbf7" stroke="none"/><line x1="306.8" y1="463.0" x2="379.6" y2="463.0" stroke="#222" stroke-width="1.0"/><line x1="306.8" y1="466.0" x2="379.6" y2="466.0" stroke="#222" stroke-width="1.0"/><line x1="306.8" y1="469.0" x2="379.6" y2="469.0" stroke="#222" stroke-width="1.0"/><rect x="461.0" y="149.9" width="5.0" height="48.5" fill="#cfe2f3" stroke="none"/><rect x="466.0" y="149.9" width="5.0" height="48.5" fill="#fbfbf7" stroke="none"/><line x1="463.0" y1="198.4" x2="463.0" y2="149.9" stroke="#222" stroke-width="1.0"/><line x1="466.0" y1="198.4" x2="466.0" y2="149.9" stroke="#222" stroke-width="1.0"/><line x1="469.0" y1="198.4" x2="469.0" y2="149.9" stroke="#222" stroke-width="1.0"/><rect x="409.0" y="130.0" width="40.4" height="5.0" fill="#cfe2f3" stroke="none"/><rect x="409.0" y="125.0" width="40.4" height="5.0" fill="#fbfbf7" stroke="none"/><line x1="409.0" y1="127.0" x2="449.5" y2="127.0" stroke="#222" stroke-width="1.0"/><line x1="409.0" y1="130.0" x2="449.5" y2="130.0" stroke="#222" stroke-width="1.0"/><line x1="409.0" y1="133.0" x2="449.5" y2="133.0" stroke="#222" stroke-width="1.0"/></svg>