<svg xmlns="http://www.w3.org/2000/svg" width="596" height="554" viewBox="0 0 596 554"><rect x="0" y="0" width="596" height="554" fill="white"/><rect x="46.0" y="46.0" width="504.0" height="462.0" fill="#fbfbf7" stroke="#333" stroke-width="1.5"/><line x1="46.0" y1="46.0" x2="46.0" y2="38.0" stroke="#888" stroke-width="1"/><line x1="46.0" y1="508.0" x2="46.0" y2="516.0" stroke="#888" stroke-width="1"/><text x="46.0" y="36.0" text-anchor="middle" font-family="Arial" font-size="9" fill="#666">0</text><text x="46.0" y="524.0" text-anchor="middle" font-family="Arial" font-size="9" fill="#666">0</text><line x1="67.0" y1="46.0" x2="67.0" y2="42.0" stroke="#888" stroke-width="1"/><line x1="67.0" y1="508.0" x2="67.0" y2="512.0" stroke="#888" stroke-width="1"/><line x1="88.0" y1="46.0" x2="88.0" y2="38.0" stroke="#888" stroke-width="1"/><line x1="88.0" y1="508.0" x2="88.0" y2="516.0" stroke="#888" stroke-width="1"/><text x="88.0" y="36.0" text-anchor="middle" font-family="Arial" font-size="9" fill="#666">1</text><text x="88.0" y="524.0" text-anchor="middle" font-family="Arial" font-size="9" fill="#666">1</text><line x1="109.0" y1="46.0" x2="109.0" y2="42.0" stroke="#888" stroke-width="1"/><line x1="109.0" y1="508.0" x2="109.0" y2="512.0" stroke="#888" stroke-width="1"/><line x1="130.0" y1="46.0" x2="130.0" y2="38.0" stroke="#888" stroke-width="1"/><line x1="130.0" y1="508.0" x2="130.0" y2="516.0" stroke="#888" stroke-width="1"/><text x="130.0" y="36.0" text-anchor="middle" font-family="Arial" font-size="9" fill="#666">2</text><text x="130.0" y="524.0" text-anchor="middle" font-family="Arial" font-size="9" fill="#666">2</text><line x1="151.0" y1="46.0" x2="151.0" y2="42.0" stroke="#888" stroke-width="1"/><line x1="151.0" y1="508.0" x2="151.0" y2="512.0" stroke="#888" stroke-width="1"/><line x1="172.0" y1="46.0" x2="172.0" y2="38.0" stroke="#888" stroke-width="1"/><line x1="172.0" y1="508.0" x2="172.0" y2="516.0" stroke="#888" stroke-width="1"/><text x="172.0" y="36.0" text-anchor="middle" font-family="Arial" font-size="9" fill="#666">3</text><text x="172.0" y="524.0" text-anchor="middle" font-family="Arial" font-size="9" fill="#666">3</text><line x1="193.0" y1="46.0" x2="193.0" y2="42.0" stroke="#888" stroke-width="1"/><line x1="193.0" y1="508.0" x2="193.0" y2="512.0" stroke="#888" stroke-width="1"/><line x1="214.0" y1="46.0" x2="214.0" y2="38.0" stroke="#888" stroke-width="1"/><line x1="214.0" y1="508.0" x2="214.0" y2="516.0" stroke="#888" stroke-width="1"/><text x="214.0" y="36.0" text-anchor="middle" font-family="Arial" font-size="9" fill="#666">4</text><text x="214.0" y="524.0" text-anchor="middle" font-family="Arial" font-size="9" fill="#666">4</text><line x1="235.0" y1="46.0" x2="235.0" y2="42.0" stroke="#888" stroke-width="1"/><line x1="235.0" y1="508.0" x2="235.0" y2="512.0" stroke="#888" stroke-width="1"/><line x1="256.0" y1="46.0" x2="256.0" y2="38.0" stroke="#888" stroke-width="1"/><line x1="256.0" y1="508.0" x2="256.0" y2="516.0" stroke="#888" stroke-width="1"/><text x="256.0" y="36.0" text-anchor="middle" font-family="Arial" font-size="9" fill="#666">5</text><text x="256.0" y="524.0" text-anchor="middle" font-family="Arial" font-size="9" fill="#666">5</text><line x1="277.0" y1="46.0" x2="277.0" y2="42.0" stroke="#888" stroke-width="1"/><line x1="277.0" y1="508.0" x2="277.0" y2="512.0" stroke="#888" stroke-width="1"/><line x1="298.0" y1="46.0" x2="298.0" y2="38.0" stroke="#888" stroke-width="1"/><line x1="298.0" y1="508.0" x2="298.0" y2="516.0" stroke="#888" stroke-width="1"/><text x="298.0" y="36.0" text-anchor="middle" font-family="Arial" font-size="9" fill="#666">6</text><text x="298.0" y="524.0" text-anchor="middle" font-family="Arial" font-size="9" fill="#666">6</text><line x1="319.0" y1="46.0" x2="319.0" y2="42.0" stroke="#888" stroke-width="1"/><line x1="319.0" y1="508.0" x2="319.0" y2="512.0" stroke="#888" stroke-width="1"/><line x1="340.0" y1="46.0" x2="340.0" y2="38.0" stroke="#888" stroke-width="1"/><line x1="340.0" y1="508.0" x2="340.0" y2="516.0" stroke="#888" stroke-width="1"/><text x="340.0" y="36.0" text-anchor="middle" font-family="Arial" font-size="9" fill="#666">7</text><text x="340.0" y="524.0" text-anchor="middle" font-family="Arial" font-size="9" fill="#666">7</text><line x1="361.0" y1="46.0" x2="361.0" y2="42.0" stroke="#888" stroke-width="1"/><line x1="361.0" y1="508.0" x2="361.0" y2="512.0" stroke="#888" stroke-width="1"/><line x1="382.0" y1="46.0" x2="382.0" y2="38.0" stroke="#888" stroke-width="1"/><line x1="382.0" y1="508.0" x2="382.0" y2="516.0" stroke="#888" stroke-width="1"/><text x="382.0" y="36.0" text-anchor="middle" font-family="Arial" font-size="9" fill="#666">8</text><text x="382.0" y="524.0" text-anchor="middle" font-family="Arial" font-size="9" fill="#666">8</text><line x1="403.0" y1="46.0" x2="403.0" y2="42.0" stroke="#888" stroke-width="1"/><line x1="403.0" y1="508.0" x2="403.0" y2="512.0" stroke="#888" stroke-width="1"/><line x1="424.0" y1="46.0" x2="424.0" y2="38.0" stroke="#888" stroke-width="1"/><line x1="424.0" y1="508.0" x2="424.0" y2="516.0" stroke="#888" stroke-width="1"/><text x="424.0" y="36.0" text-anchor="middle" font-family="Arial" font-size="9" fill="#666">9</text><text x="424.0" y="524.0" text-anchor="middle" font-family="Arial" font-size="9" fill="#666">9</text><line x1="445.0" y1="46.0" x2="445.0" y2="42.0" stroke="#888" stroke-width="1"/><line x1="445.0" y1="508.0" x2="445.0" y2="512.0" stroke="#888" stroke-width="1"/><line x1="466.0" y1="46.0" x2="466.0" y2="38.0" stroke="#888" stroke-width="1"/><line x1="466.0" y1="508.0" x2="466.0" y2="516.0" stroke="#888" stroke-width="1"/><text x="466.0" y="36.0" text-anchor="middle" font-family="Arial" font-size="9" fill="#666">10</text><text x="466.0" y="524.0" text-anchor="middle" font-family="Arial" font-size="9" fill="#666">10</text><line x1="487.0" y1="46.0" x2="487.0" y2="42.0" stroke="#888" stroke-width="1"/><line x1="487.0" y1="508.0" x2="487.0" y2="512.0" stroke="#888" stroke-width="1"/><line x1="508.0" y1="46.0" x2="508.0" y2="38.0" stroke="#888" stroke-width="1"/><line x1="508.0" y1="508.0" x2="508.0" y2="516.0" stroke="#888" stroke-width="1"/><text x="508.0" y="36.0" text-anchor="middle" font-family="Arial" font-size="9" fill="#666">11</text><text x="508.0" y="524.0" text-anchor="middle" font-family="Arial" font-size="9" fill="#666">11</text><line x1="529.0" y1="46.0" x2="529.0" y2="42.0" stroke="#888" stroke-width="1"/><line x1="529.0" y1="508.0" x2="529.0" y2="512.0" stroke="#888" stroke-width="1"/><line x1="550.0" y1="46.0" x2="550.0" y2="38.0" stroke="#888" stroke-width="1"/><line x1="550.0" y1="508.0" x2="550.0" y2="516.0" stroke="#888" stroke-width="1"/><text x="550.0" y="36.0" text-anchor="middle" font-family="Arial" font-size="9" fill="#666">12</text><text x="550.0" y="524.0" text-anchor="middle" font-family="Arial" font-size="9" fill="#666">12</text><line x1="46.0" y1="508.0" x2="38.0" y2="508.0" stroke="#888" stroke-width="1"/><line x1="550.0" y1="508.0" x2="558.0" y2="508.0" stroke="#888" stroke-width="1"/><text x="36.0" y="511.0" text-anchor="end" font-family="Arial" font-size="9" fill="#666">0</text><text x="560.0" y="511.0" text-anchor="start" font-family="Arial" font-size="9" fill="#666">0</text><line x1="46.0" y1="487.0" x2="42.0" y2="487.0" stroke="#888" stroke-width="1"/><line x1="550.0" y1="487.0" x2="554.0" y2="487.0" stroke="#888" stroke-width="1"/><line x1="46.0" y1="466.0" x2="38.0" y2="466.0" stroke="#888" stroke-width="1"/><line x1="550.0" y1="466.0" x2="558.0" y2="466.0" stroke="#888" stroke-width="1"/><text x="36.0" y="469.0" text-anchor="end" font-family="Arial" font-size="9" fill="#666">1</text><text x="560.0" y="469.0" text-anchor="start" font-family="Arial" font-size="9" fill="#666">1</text><line x1="46.0" y1="445.0" x2="42.0" y2="445.0" stroke="#888" stroke-width="1"/><line x1="550.0" y1="445.0" x2="554.0" y2="445.0" stroke="#888" stroke-width="1"/><line x1="46.0" y1="424.0" x2="38.0" y2="424.0" stroke="#888" stroke-width="1"/><line x1="550.0" y1="424.0" x2="558.0" y2="424.0" stroke="#888" stroke-width="1"/><text x="36.0" y="427.0" text-anchor="end" font-family="Arial" font-size="9" fill="#666">2</text><text x="560.0" y="427.0" text-anchor="start" font-family="Arial" font-size="9" fill="#666">2</text><line x1="46.0" y1="403.0" x2="42.0" y2="403.0" stroke="#888" stroke-width="1"/><line x1="550.0" y1="403.0" x2="554.0" y2="403.0" stroke="#888" stroke-width="1"/><line x1="46.0" y1="382.0" x2="38.0" y2="382.0" stroke="#888" stroke-width="1"/><line x1="550.0" y1="382.0" x2="558.0" y2="382.0" stroke="#888" stroke-width="1"/><text x="36.0" y="385.0" text-anchor="end" font-family="Arial" font-size="9" fill="#666">3</text><text x="560.0" y="385.0" text-anchor="start" font-family="Arial" font-size="9" fill="#666">3</text><line x1="46.0" y1="361.0" x2="42.0" y2="361.0" stroke="#888" stroke-width="1"/><line x1="550.0" y1="361.0" x2="554.0" y2="361.0" stroke="#888" stroke-width="1"/><line x1="46.0" y1="340.0" x2="38.0" y2="340.0" stroke="#888" stroke-width="1"/><line x1="550.0" y1="340.0" x2="558.0" y2="340.0" stroke="#888" stroke-width="1"/><text x="36.0" y="343.0" text-anchor="end" font-family="Arial" font-size="9" fill="#666">4</text><text x="560.0" y="343.0" text-anchor="start" font-family="Arial" font-size="9" fill="#666">4</text><line x1="46.0" y1="319.0" x2="42.0" y2="319.0" stroke="#888" stroke-width="1"/><line x1="550.0" y1="319.0" x2="554.0" y2="319.0" stroke="#888" stroke-width="1"/><line x1="46.0" y1="298.0" x2="38.0" y2="298.0" stroke="#888" stroke-width="1"/><line x1="550.0" y1="298.0" x2="558.0" y2="298.0" stroke="#888" stroke-width="1"/><text x="36.0" y="301.0" text-anchor="end" font-family="Arial" font-size="9" fill="#666">5</text><text x="560.0" y="301.0" text-anchor="start" font-family="Arial" font-size="9" fill="#666">5</text><line x1="46.0" y1="277.0" x2="42.0" y2="277.0" stroke="#888" stroke-width="1"/><line x1="550.0" y1="277.0" x2="554.0" y2="277.0" stroke="#888" stroke-width="1"/><line x1="46.0" y1="256.0" x2="38.0" y2="256.0" stroke="#888" stroke-width="1"/><line x1="550.0" y1="256.0" x2="558.0" y2="256.0" stroke="#888" stroke-width="1"/><text x="36.0" y="259.0" text-anchor="end" font-family="Arial" font-size="9" fill="#666">6</text><text x="560.0" y="259.0" text-anchor="start" font-family="Arial" font-size="9" fill="#666">6</text><line x1="46.0" y1="235.0" x2="42.0" y2="235.0" stroke="#888" stroke-width="1"/><line x1="550.0" y1="235.0" x2="554.0" y2="235.0" stroke="#888" stroke-width="1"/><line x1="46.0" y1="214.0" x2="38.0" y2="214.0" stroke="#888" stroke-width="1"/><line x1="550.0" y1="214.0" x2="558.0" y2="214.0" stroke="#888" stroke-width="1"/><text x="36.0" y="217.0" text-anchor="end" font-family="Arial" font-size="9" fill="#666">7</text><text x="560.0" y="217.0" text-anchor="start" font-family="Arial" font-size="9" fill="#666">7</text><line x1="46.0" y1="193.0" x2="42.0" y2="193.0" stroke="#888" stroke-width="1"/><line x1="550.0" y1="193.0" x2="554.0" y2="193.0" stroke="#888" stroke-width="1"/><line x1="46.0" y1="172.0" x2="38.0" y2="172.0" stroke="#888" stroke-width="1"/><line x1="550.0" y1="172.0" x2="558.0" y2="172.0" stroke="#888" stroke-width="1"/><text x="36.0" y="175.0" text-anchor="end" font-family="Arial" font-size="9" fill="#666">8</text><text x="560.0" y="175.0" text-anchor="start" font-family="Arial" font-size="9" fill="#666">8</text><line x1="46.0" y1="151.0" x2="42.0" y2="151.0" stroke="#888" stroke-width="1"/><line x1="550.0" y1="151.0" x2="554.0" y2="151.0" stroke="#888" stroke-width="1"/><line x1="46.0" y1="130.0" x2="38.0" y2="130.0" stroke="#888" stroke-width="1"/><line x1="550.0" y1="130.0" x2="558.0" y2="130.0" stroke="#888" stroke-width="1"/><text x="36.0" y="133.0" text-anchor="end" font-family="Arial" font-size="9" fill="#666">9</text><text x="560.0" y="133.0" text-anchor="start" font-family="Arial" font-size="9" fill="#666">9</text><line x1="46.0" y1="109.0" x2="42.0" y2="109.0" stroke="#888" stroke-width="1"/><line x1="550.0" y1="109.0" x2="554.0" y2="109.0" stroke="#888" stroke-width="1"/><line x1="46.0" y1="88.0" x2="38.0" y2="88.0" stroke="#888" stroke-width="1"/><line x1="550.0" y1="88.0" x2="558.0" y2="88.0" stroke="#888" stroke-width="1"/><text x="36.0" y="91.0" text-anchor="end" font-family="Arial" font-size="9" fill="#666">10</text><text x="560.0" y="91.0" text-anchor="start" font-family="Arial" font-size="9" fill="#666">10</text><line x1="46.0" y1="67.0" x2="42.0" y2="67.0" stroke="#888" stroke-width="1"/><line x1="550.0" y1="67.0" x2="554.0" y2="67.0" stroke="#888" stroke-width="1"/><line x1="46.0" y1="46.0" x2="38.0" y2="46.0" stroke="#888" stroke-width="1"/><line x1="550.0" y1="46.0" x2="558.0" y2="46.0" stroke="#888" stroke-width="1"/><text x="36.0" y="49.0" text-anchor="end" font-family="Arial" font-size="9" fill="#666">11</text><text x="560.0" y="49.0" text-anchor="start" font-family="Arial" font-size="9" fill="#666">11</text><rect x="130.0" y="130.0" width="336.0" height="294.0" fill="none" stroke="#9aa" stroke-width="1" stroke-dasharray="3 3"/><rect x="424.0" y="277.0" width="109.2" height="218.4" fill="#f2f2f2" stroke="#333" stroke-width="1.5" stroke-dasharray="6 4"/><text x="478.6" y="383.6" text-anchor="middle" font-family="Arial" font-size="12" font-weight="bold" fill="#222">CARPORT</text><text x="478.6" y="399.4" text-anchor="middle" font-family="Arial" font-size="10" fill="#555">2.6×5.2 m</text><rect x="331.6" y="58.6" width="134.4" height="67.2" fill="#f2f2f2" stroke="#333" stroke-width="1.5" stroke-dasharray="6 4"/><text x="398.8" y="89.6" text-anchor="middle" font-family="Arial" font-size="12" font-weight="bold" fill="#222">DIRTY KITCHEN</text><text x="398.8" y="105.4" text-anchor="middle" font-family="Arial" font-size="10" fill="#555">3.2×1.6 m</text><rect x="130.0" y="58.6" width="201.6" height="67.2" fill="#f2f2f2" stroke="#333" stroke-width="1.5" stroke-dasharray="6 4"/><text x="230.8" y="89.6" text-anchor="middle" font-family="Arial" font-size="12" font-weight="bold" fill="#222">SERVICE</text><text x="230.8" y="105.4" text-anchor="middle" font-family="Arial" font-size="10" fill="#555">4.8×1.6 m</text><rect x="130.0" y="298.0" width="168.0" height="126.0" fill="#d9ead3" stroke="#333" stroke-width="1.5"/><text x="214.0" y="358.4" text-anchor="middle" font-family="Arial" font-size="12" font-weight="bold" fill="#222">MASTER BR</text><text x="214.0" y="374.2" text-anchor="middle" font-family="Arial" font-size="10" fill="#555">4.0×3.0 m · 12.0 sqm</text><rect x="130.0" y="235.0" width="84.0" height="63.0" fill="#ead1dc" stroke="#333" stroke-width="1.5"/><text x="172.0" y="258.1" text-anchor="middle" font-family="Arial" font-size="12" font-weight="bold" fill="#222">ENSUITE</text><text x="172.0" y="273.9" text-anchor="middle" font-family="Arial" font-size="10" fill="#555">2.0×1.5 m</text><text x="172.0" y="285.4" text-anchor="middle" font-family="Arial" font-size="10" fill="#555">3.0 sqm</text><rect x="130.0" y="130.0" width="201.6" height="105.0" fill="#d9ead3" stroke="#333" stroke-width="1.5"/><text x="230.8" y="179.8" text-anchor="middle" font-family="Arial" font-size="12" font-weight="bold" fill="#222">BEDROOM</text><text x="230.8" y="195.7" text-anchor="middle" font-family="Arial" font-size="10" fill="#555">4.8×2.5 m · 12.0 sqm</text><rect x="214.0" y="235.0" width="84.0" height="63.0" fill="#ead1dc" stroke="#333" stroke-width="1.5"/><text x="256.0" y="258.1" text-anchor="middle" font-family="Arial" font-size="12" font-weight="bold" fill="#222">T&amp;B</text><text x="256.0" y="273.9" text-anchor="middle" font-family="Arial" font-size="10" fill="#555">2.0×1.5 m</text><text x="256.0" y="285.4" text-anchor="middle" font-family="Arial" font-size="10" fill="#555">3.0 sqm</text><rect x="298.0" y="235.0" width="126.0" height="189.0" fill="#cfe2f3" stroke="#333" stroke-width="1.5"/><text x="361.0" y="321.1" text-anchor="middle" font-family="Arial" font-size="12" font-weight="bold" fill="#222">GREAT ROOM</text><text x="361.0" y="336.9" text-anchor="middle" font-family="Arial" font-size="10" fill="#555">3.0×4.5 m</text><text x="361.0" y="348.4" text-anchor="middle" font-family="Arial" font-size="10" fill="#555">13.5 sqm</text><rect x="331.6" y="130.0" width="134.4" height="105.0" fill="#fce5cd" stroke="#333" stroke-width="1.5"/><text x="398.8" y="179.8" text-anchor="middle" font-family="Arial" font-size="12" font-weight="bold" fill="#222">KITCHEN</text><text x="398.8" y="195.7" text-anchor="middle" font-family="Arial" font-size="10" fill="#555">3.2×2.5 m · 8.0 sqm</text><text x="298.0" y="542.0" text-anchor="middle" font-family="Arial" font-size="12" font-weight="bold" fill="#888">FRONT (street)</text><rect x="130.00" y="295.90" width="84.00" height="4.20" fill="#555" stroke="none"/><rect x="214.00" y="295.90" width="84.00" height="4.20" fill="#555" stroke="none"/><rect x="295.90" y="298.00" width="4.20" height="126.00" fill="#555" stroke="none"/><rect x="130.00" y="232.90" width="84.00" height="4.20" fill="#555" stroke="none"/><rect x="211.90" y="235.00" width="4.20" height="63.00" fill="#555" stroke="none"/><rect x="214.00" y="232.90" width="84.00" height="4.20" fill="#555" stroke="none"/><rect x="298.00" y="232.90" width="33.60" height="4.20" fill="#555" stroke="none"/><rect x="329.50" y="130.00" width="4.20" height="105.00" fill="#555" stroke="none"/><rect x="295.90" y="235.00" width="4.20" height="63.00" fill="#555" stroke="none"/><rect x="419.80" y="277.00" width="8.40" height="147.00" fill="#555" stroke="none"/><rect x="130.00" y="419.80" width="168.00" height="8.40" fill="#555" stroke="none"/><rect x="125.80" y="298.00" width="8.40" height="126.00" fill="#555" stroke="none"/><rect x="125.80" y="235.00" width="8.40" height="63.00" fill="#555" stroke="none"/><rect x="130.00" y="125.80" width="201.60" height="8.40" fill="#555" stroke="none"/><rect x="125.80" y="130.00" width="8.40" height="105.00" fill="#555" stroke="none"/><rect x="298.00" y="419.80" width="126.00" height="8.40" fill="#555" stroke="none"/><rect x="419.80" y="235.00" width="8.40" height="42.00" fill="#555" stroke="none"/><rect x="331.60" y="125.80" width="134.40" height="8.40" fill="#555" stroke="none"/><rect x="424.00" y="230.80" width="42.00" height="8.40" fill="#555" stroke="none"/><rect x="461.80" y="130.00" width="8.40" height="105.00" fill="#555" stroke="none"/><rect x="125.80" y="293.80" width="8.40" height="8.40" fill="#555" stroke="none"/><rect x="209.80" y="293.80" width="8.40" height="8.40" fill="#555" stroke="none"/><rect x="209.80" y="293.80" width="8.40" height="8.40" fill="#555" stroke="none"/><rect x="293.80" y="293.80" width="8.40" height="8.40" fill="#555" stroke="none"/><rect x="293.80" y="419.80" width="8.40" height="8.40" fill="#555" stroke="none"/><rect x="293.80" y="293.80" width="8.40" height="8.40" fill="#555" stroke="none"/><rect x="125.80" y="230.80" width="8.40" height="8.40" fill="#555" stroke="none"/><rect x="209.80" y="230.80" width="8.40" height="8.40" fill="#555" stroke="none"/><rect x="209.80" y="293.80" width="8.40" height="8.40" fill="#555" stroke="none"/><rect x="209.80" y="230.80" width="8.40" height="8.40" fill="#555" stroke="none"/><rect x="209.80" y="230.80" width="8.40" height="8.40" fill="#555" stroke="none"/><rect x="293.80" y="230.80" width="8.40" height="8.40" fill="#555" stroke="none"/><rect x="293.80" y="230.80" width="8.40" height="8.40" fill="#555" stroke="none"/><rect x="327.40" y="230.80" width="8.40" height="8.40" fill="#555" stroke="none"/><rect x="327.40" y="230.80" width="8.40" height="8.40" fill="#555" stroke="none"/><rect x="327.40" y="125.80" width="8.40" height="8.40" fill="#555" stroke="none"/><rect x="293.80" y="293.80" width="8.40" height="8.40" fill="#555" stroke="none"/><rect x="293.80" y="230.80" width="8.40" height="8.40" fill="#555" stroke="none"/><rect x="419.80" y="419.80" width="8.40" height="8.40" fill="#555" stroke="none"/><rect x="419.80" y="272.80" width="8.40" height="8.40" fill="#555" stroke="none"/><rect x="125.80" y="419.80" width="8.40" height="8.40" fill="#555" stroke="none"/><rect x="293.80" y="419.80" width="8.40" height="8.40" fill="#555" stroke="none"/><rect x="125.80" y="419.80" width="8.40" height="8.40" fill="#555" stroke="none"/><rect x="125.80" y="293.80" width="8.40" height="8.40" fill="#555" stroke="none"/><rect x="125.80" y="293.80" width="8.40" height="8.40" fill="#555" stroke="none"/><rect x="125.80" y="230.80" width="8.40" height="8.40" fill="#555" stroke="none"/><rect x="125.80" y="125.80" width="8.40" height="8.40" fill="#555" stroke="none"/><rect x="327.40" y="125.80" width="8.40" height="8.40" fill="#555" stroke="none"/><rect x="125.80" y="230.80" width="8.40" height="8.40" fill="#555" stroke="none"/><rect x="125.80" y="125.80" width="8.40" height="8.40" fill="#555" stroke="none"/><rect x="293.80" y="419.80" width="8.40" height="8.40" fill="#555" stroke="none"/><rect x="419.80" y="419.80" width="8.40" height="8.40" fill="#555" stroke="none"/><rect x="419.80" y="272.80" width="8.40" height="8.40" fill="#555" stroke="none"/><rect x="419.80" y="230.80" width="8.40" height="8.40" fill="#555" stroke="none"/><rect x="327.40" y="125.80" width="8.40" height="8.40" fill="#555" stroke="none"/><rect x="461.80" y="125.80" width="8.40" height="8.40" fill="#555" stroke="none"/><rect x="419.80" y="230.80" width="8.40" height="8.40" fill="#555" stroke="none"/><rect x="461.80" y="230.80" width="8.40" height="8.40" fill="#555" stroke="none"/><rect x="461.80" y="230.80" width="8.40" height="8.40" fill="#555" stroke="none"/><rect x="461.80" y="125.80" width="8.40" height="8.40" fill="#555" stroke="none"/><rect x="335.8" y="235.0" width="84.0" height="5.0" fill="#cfe2f3" stroke="none"/><rect x="335.8" y="230.0" width="84.0" height="5.0" fill="#fce5cd" stroke="none"/><rect x="136.3" y="298.0" width="29.4" height="5.0" fill="#d9ead3" stroke="none"/><rect x="136.3" y="293.0" width="29.4" height="5.0" fill="#ead1dc" stroke="none"/><line x1="136.3" y1="298.0" x2="136.3" y2="268.6" stroke="#444" stroke-width="1.4"/><path d="M 136.3 268.6 A 29.4 29.4 0 0 1 165.7 298.0" fill="none" stroke="#999" stroke-width="0.7" stroke-dasharray="2 2"/><rect x="293.0" y="384.1" width="5.0" height="33.6" fill="#d9ead3" stroke="none"/><rect x="298.0" y="384.1" width="5.0" height="33.6" fill="#cfe2f3" stroke="none"/><line x1="298.0" y1="417.7" x2="264.4" y2="417.7" stroke="#444" stroke-width="1.4"/><path d="M 264.4 417.7 A 33.6 33.6 0 0 1 298.0 384.1" fill="none" stroke="#999" stroke-width="0.7" stroke-dasharray="2 2"/><rect x="298.0" y="230.0" width="29.4" height="5.0" fill="#d9ead3" stroke="none"/><rect x="298.0" y="235.0" width="29.4" height="5.0" fill="#cfe2f3" stroke="none"/><line x1="327.4" y1="235.0" x2="327.4" y2="205.6" stroke="#444" stroke-width="1.4"/><path d="M 327.4 205.6 A 29.4 29.4 0 0 0 298.0 235.0" fill="none" stroke="#999" stroke-width="0.7" stroke-dasharray="2 2"/><rect x="293.0" y="262.3" width="5.0" height="29.4" fill="#ead1dc" stroke="none"/><rect x="298.0" y="262.3" width="5.0" height="29.4" fill="#cfe2f3" stroke="none"/><line x1="298.0" y1="291.7" x2="268.6" y2="291.7" stroke="#444" stroke-width="1.4"/><path d="M 268.6 291.7 A 29.4 29.4 0 0 1 298.0 262.3" fill="none" stroke="#999" stroke-width="0.7" stroke-dasharray="2 2"/><rect x="304.3" y="419.0" width="37.8" height="5.0" fill="#cfe2f3" stroke="none"/><rect x="304.3" y="424.0" width="37.8" height="5.0" fill="#fbfbf7" stroke="none"/><line x1="304.3" y1="424.0" x2="304.3" y2="386.2" stroke="#444" stroke-width="1.4"/><path d="M 304.3 386.2 A 37.8 37.8 0 0 1 342.1 424.0" fill="none" stroke="#999" stroke-width="0.7" stroke-dasharray="2 2"/><rect x="337.9" y="130.0" width="33.6" height="5.0" fill="#fce5cd" stroke="none"/><rect x="337.9" y="125.0" width="33.6" height="5.0" fill="#fbfbf7" stroke="none"/><line x1="337.9" y1="130.0" x2="337.9" y2="163.6" stroke="#444" stroke-width="1.4"/><path d="M 337.9 163.6 A 33.6 33.6 0 0 0 371.5 130.0" fill="none" stroke="#999" stroke-width="0.7" stroke-dasharray="2 2"/><rect x="130.0" y="326.4" width="5.0" height="69.3" fill="#d9ead3" stroke="none"/><rect x="125.0" y="326.4" width="5.0" height="69.3" fill="#fbfbf7" stroke="none"/><line x1="127.0" y1="395.6" x2="127.0" y2="326.4" stroke="#222" stroke-width="1.0"/><line x1="130.0" y1="395.6" x2="130.0" y2="326.4" stroke="#222" stroke-width="1.0"/><line x1="133.0" y1="395.6" x2="133.0" y2="326.4" stroke="#222" stroke-width="1.0"/><rect x="167.8" y="419.0" width="92.4" height="5.0" fill="#d9ead3" stroke="none"/><rect x="167.8" y="424.0" width="92.4" height="5.0" fill="#fbfbf7" stroke="none"/><line x1="167.8" y1="421.0" x2="260.2" y2="421.0" stroke="#222" stroke-width="1.0"/><line x1="167.8" y1="424.0" x2="260.2" y2="424.0" stroke="#222" stroke-width="1.0"/><line x1="167.8" y1="427.0" x2="260.2" y2="427.0" stroke="#222" stroke-width="1.0"/><rect x="130.0" y="250.8" width="5.0" height="31.5" fill="#ead1dc" stroke="none"/><rect x="125.0" y="250.8" width="5.0" height="31.5" fill="#fbfbf7" stroke="none"/><line x1="127.0" y1="282.2" x2="127.0" y2="250.8" stroke="#222" stroke-width="1.0"/><line x1="130.0" y1="282.2" x2="130.0" y2="250.8" stroke="#222" stroke-width="1.0"/><line x1="133.0" y1="282.2" x2="133.0" y2="250.8" stroke="#222" stroke-width="1.0"/><rect x="180.4" y="130.0" width="100.8" height="5.0" fill="#d9ead3" stroke="none"/><rect x="180.4" y="125.0" width="100.8" height="5.0" fill="#fbfbf7" stroke="none"/><line x1="180.4" y1="127.0" x2="281.2" y2="127.0" stroke="#222" stroke-width="1.0"/><line x1="180.4" y1="130.0" x2="281.2" y2="130.0" stroke="#222" stroke-width="1.0"/><line x1="180.4" y1="133.0" x2="281.2" y2="133.0" stroke="#222" stroke-width="1.0"/><rect x="130.0" y="153.6" width="5.0" height="57.8" fill="#d9ead3" stroke="none"/><rect x="125.0" y="153.6" width="5.0" height="57.8" fill="#fbfbf7" stroke="none"/><line x1="127.0" y1="211.4" x2="127.0" y2="153.6" stroke="#222" stroke-width="1.0"/><line x1="130.0" y1="211.4" x2="130.0" y2="153.6" stroke="#222" stroke-width="1.0"/><line x1="133.0" y1="211.4" x2="133.0" y2="153.6" stroke="#222" stroke-width="1.0"/><rect x="370.3" y="419.0" width="38.1" height="5.0" fill="#cfe2f3" stroke="none"/><rect x="370.3" y="424.0" width="38.1" height="5.0" fill="#fbfbf7" stroke="none"/><line x1="370.3" y1="421.0" x2="408.4" y2="421.0" stroke="#222" stroke-width="1.0"/><line x1="370.3" y1="424.0" x2="408.4" y2="424.0" stroke="#222" stroke-width="1.0"/><line x1="370.3" y1="427.0" x2="408.4" y2="427.0" stroke="#222" stroke-width="1.0"/><rect x="461.0" y="153.6" width="5.0" height="57.8" fill="#fce5cd" stroke="none"/><rect x="466.0" y="153.6" width="5.0" height="57.8" fill="#fbfbf7" stroke="none"/><line x1="463.0" y1="211.4" x2="463.0" y2="153.6" stroke="#222" stroke-width="1.0"/><line x1="466.0" y1="211.4" x2="466.0" y2="153.6" stroke="#222" stroke-width="1.0"/><line x1="469.0" y1="211.4" x2="469.0" y2="153.6" stroke="#222" stroke-width="1.0"/><rect x="402.5" y="130.0" width="45.1" height="5.0" fill="#fce5cd" stroke="none"/><rect x="402.5" y="125.0" width="45.1" height="5.0" fill="#fbfbf7" stroke="none"/><line x1="402.5" y1="127.0" x2="447.6" y2="127.0" stroke="#222" stroke-width="1.0"/><line x1="402.5" y1="130.0" x2="447.6" y2="130.0" stroke="#222" stroke-width="1.0"/><line x1="402.5" y1="133.0" x2="447.6" y2="133.0" stroke="#222" stroke-width="1.0"/></svg>