<svg xmlns="http://www.w3.org/2000/svg" width="512" height="512" viewBox="0 0 512 512"><rect x="0" y="0" width="512" height="512" fill="white"/><rect x="46.0" y="46.0" width="420.0" height="420.0" fill="#fbfbf7" stroke="#333" stroke-width="1.5"/><line x1="46.0" y1="46.0" x2="46.0" y2="38.0" stroke="#888" stroke-width="1"/><line x1="46.0" y1="466.0" x2="46.0" y2="474.0" stroke="#888" stroke-width="1"/><text x="46.0" y="36.0" text-anchor="middle" font-family="Arial" font-size="9" fill="#666">0</text><text x="46.0" y="482.0" text-anchor="middle" font-family="Arial" font-size="9" fill="#666">0</text><line x1="67.0" y1="46.0" x2="67.0" y2="42.0" stroke="#888" stroke-width="1"/><line x1="67.0" y1="466.0" x2="67.0" y2="470.0" stroke="#888" stroke-width="1"/><line x1="88.0" y1="46.0" x2="88.0" y2="38.0" stroke="#888" stroke-width="1"/><line x1="88.0" y1="466.0" x2="88.0" y2="474.0" stroke="#888" stroke-width="1"/><text x="88.0" y="36.0" text-anchor="middle" font-family="Arial" font-size="9" fill="#666">1</text><text x="88.0" y="482.0" text-anchor="middle" font-family="Arial" font-size="9" fill="#666">1</text><line x1="109.0" y1="46.0" x2="109.0" y2="42.0" stroke="#888" stroke-width="1"/><line x1="109.0" y1="466.0" x2="109.0" y2="470.0" stroke="#888" stroke-width="1"/><line x1="130.0" y1="46.0" x2="130.0" y2="38.0" stroke="#888" stroke-width="1"/><line x1="130.0" y1="466.0" x2="130.0" y2="474.0" stroke="#888" stroke-width="1"/><text x="130.0" y="36.0" text-anchor="middle" font-family="Arial" font-size="9" fill="#666">2</text><text x="130.0" y="482.0" text-anchor="middle" font-family="Arial" font-size="9" fill="#666">2</text><line x1="151.0" y1="46.0" x2="151.0" y2="42.0" stroke="#888" stroke-width="1"/><line x1="151.0" y1="466.0" x2="151.0" y2="470.0" stroke="#888" stroke-width="1"/><line x1="172.0" y1="46.0" x2="172.0" y2="38.0" stroke="#888" stroke-width="1"/><line x1="172.0" y1="466.0" x2="172.0" y2="474.0" stroke="#888" stroke-width="1"/><text x="172.0" y="36.0" text-anchor="middle" font-family="Arial" font-size="9" fill="#666">3</text><text x="172.0" y="482.0" text-anchor="middle" font-family="Arial" font-size="9" fill="#666">3</text><line x1="193.0" y1="46.0" x2="193.0" y2="42.0" stroke="#888" stroke-width="1"/><line x1="193.0" y1="466.0" x2="193.0" y2="470.0" stroke="#888" stroke-width="1"/><line x1="214.0" y1="46.0" x2="214.0" y2="38.0" stroke="#888" stroke-width="1"/><line x1="214.0" y1="466.0" x2="214.0" y2="474.0" stroke="#888" stroke-width="1"/><text x="214.0" y="36.0" text-anchor="middle" font-family="Arial" font-size="9" fill="#666">4</text><text x="214.0" y="482.0" text-anchor="middle" font-family="Arial" font-size="9" fill="#666">4</text><line x1="235.0" y1="46.0" x2="235.0" y2="42.0" stroke="#888" stroke-width="1"/><line x1="235.0" y1="466.0" x2="235.0" y2="470.0" stroke="#888" stroke-width="1"/><line x1="256.0" y1="46.0" x2="256.0" y2="38.0" stroke="#888" stroke-width="1"/><line x1="256.0" y1="466.0" x2="256.0" y2="474.0" stroke="#888" stroke-width="1"/><text x="256.0" y="36.0" text-anchor="middle" font-family="Arial" font-size="9" fill="#666">5</text><text x="256.0" y="482.0" text-anchor="middle" font-family="Arial" font-size="9" fill="#666">5</text><line x1="277.0" y1="46.0" x2="277.0" y2="42.0" stroke="#888" stroke-width="1"/><line x1="277.0" y1="466.0" x2="277.0" y2="470.0" stroke="#888" stroke-width="1"/><line x1="298.0" y1="46.0" x2="298.0" y2="38.0" stroke="#888" stroke-width="1"/><line x1="298.0" y1="466.0" x2="298.0" y2="474.0" stroke="#888" stroke-width="1"/><text x="298.0" y="36.0" text-anchor="middle" font-family="Arial" font-size="9" fill="#666">6</text><text x="298.0" y="482.0" text-anchor="middle" font-family="Arial" font-size="9" fill="#666">6</text><line x1="319.0" y1="46.0" x2="319.0" y2="42.0" stroke="#888" stroke-width="1"/><line x1="319.0" y1="466.0" x2="319.0" y2="470.0" stroke="#888" stroke-width="1"/><line x1="340.0" y1="46.0" x2="340.0" y2="38.0" stroke="#888" stroke-width="1"/><line x1="340.0" y1="466.0" x2="340.0" y2="474.0" stroke="#888" stroke-width="1"/><text x="340.0" y="36.0" text-anchor="middle" font-family="Arial" font-size="9" fill="#666">7</text><text x="340.0" y="482.0" text-anchor="middle" font-family="Arial" font-size="9" fill="#666">7</text><line x1="361.0" y1="46.0" x2="361.0" y2="42.0" stroke="#888" stroke-width="1"/><line x1="361.0" y1="466.0" x2="361.0" y2="470.0" stroke="#888" stroke-width="1"/><line x1="382.0" y1="46.0" x2="382.0" y2="38.0" stroke="#888" stroke-width="1"/><line x1="382.0" y1="466.0" x2="382.0" y2="474.0" stroke="#888" stroke-width="1"/><text x="382.0" y="36.0" text-anchor="middle" font-family="Arial" font-size="9" fill="#666">8</text><text x="382.0" y="482.0" text-anchor="middle" font-family="Arial" font-size="9" fill="#666">8</text><line x1="403.0" y1="46.0" x2="403.0" y2="42.0" stroke="#888" stroke-width="1"/><line x1="403.0" y1="466.0" x2="403.0" y2="470.0" stroke="#888" stroke-width="1"/><line x1="424.0" y1="46.0" x2="424.0" y2="38.0" stroke="#888" stroke-width="1"/><line x1="424.0" y1="466.0" x2="424.0" y2="474.0" stroke="#888" stroke-width="1"/><text x="424.0" y="36.0" text-anchor="middle" font-family="Arial" font-size="9" fill="#666">9</text><text x="424.0" y="482.0" text-anchor="middle" font-family="Arial" font-size="9" fill="#666">9</text><line x1="445.0" y1="46.0" x2="445.0" y2="42.0" stroke="#888" stroke-width="1"/><line x1="445.0" y1="466.0" x2="445.0" y2="470.0" stroke="#888" stroke-width="1"/><line x1="466.0" y1="46.0" x2="466.0" y2="38.0" stroke="#888" stroke-width="1"/><line x1="466.0" y1="466.0" x2="466.0" y2="474.0" stroke="#888" stroke-width="1"/><text x="466.0" y="36.0" text-anchor="middle" font-family="Arial" font-size="9" fill="#666">10</text><text x="466.0" y="482.0" text-anchor="middle" font-family="Arial" font-size="9" fill="#666">10</text><line x1="46.0" y1="466.0" x2="38.0" y2="466.0" stroke="#888" stroke-width="1"/><line x1="466.0" y1="466.0" x2="474.0" y2="466.0" stroke="#888" stroke-width="1"/><text x="36.0" y="469.0" text-anchor="end" font-family="Arial" font-size="9" fill="#666">0</text><text x="476.0" y="469.0" text-anchor="start" font-family="Arial" font-size="9" fill="#666">0</text><line x1="46.0" y1="445.0" x2="42.0" y2="445.0" stroke="#888" stroke-width="1"/><line x1="466.0" y1="445.0" x2="470.0" y2="445.0" stroke="#888" stroke-width="1"/><line x1="46.0" y1="424.0" x2="38.0" y2="424.0" stroke="#888" stroke-width="1"/><line x1="466.0" y1="424.0" x2="474.0" y2="424.0" stroke="#888" stroke-width="1"/><text x="36.0" y="427.0" text-anchor="end" font-family="Arial" font-size="9" fill="#666">1</text><text x="476.0" y="427.0" text-anchor="start" font-family="Arial" font-size="9" fill="#666">1</text><line x1="46.0" y1="403.0" x2="42.0" y2="403.0" stroke="#888" stroke-width="1"/><line x1="466.0" y1="403.0" x2="470.0" y2="403.0" stroke="#888" stroke-width="1"/><line x1="46.0" y1="382.0" x2="38.0" y2="382.0" stroke="#888" stroke-width="1"/><line x1="466.0" y1="382.0" x2="474.0" y2="382.0" stroke="#888" stroke-width="1"/><text x="36.0" y="385.0" text-anchor="end" font-family="Arial" font-size="9" fill="#666">2</text><text x="476.0" y="385.0" text-anchor="start" font-family="Arial" font-size="9" fill="#666">2</text><line x1="46.0" y1="361.0" x2="42.0" y2="361.0" stroke="#888" stroke-width="1"/><line x1="466.0" y1="361.0" x2="470.0" y2="361.0" stroke="#888" stroke-width="1"/><line x1="46.0" y1="340.0" x2="38.0" y2="340.0" stroke="#888" stroke-width="1"/><line x1="466.0" y1="340.0" x2="474.0" y2="340.0" stroke="#888" stroke-width="1"/><text x="36.0" y="343.0" text-anchor="end" font-family="Arial" font-size="9" fill="#666">3</text><text x="476.0" y="343.0" text-anchor="start" font-family="Arial" font-size="9" fill="#666">3</text><line x1="46.0" y1="319.0" x2="42.0" y2="319.0" stroke="#888" stroke-width="1"/><line x1="466.0" y1="319.0" x2="470.0" y2="319.0" stroke="#888" stroke-width="1"/><line x1="46.0" y1="298.0" x2="38.0" y2="298.0" stroke="#888" stroke-width="1"/><line x1="466.0" y1="298.0" x2="474.0" y2="298.0" stroke="#888" stroke-width="1"/><text x="36.0" y="301.0" text-anchor="end" font-family="Arial" font-size="9" fill="#666">4</text><text x="476.0" y="301.0" text-anchor="start" font-family="Arial" font-size="9" fill="#666">4</text><line x1="46.0" y1="277.0" x2="42.0" y2="277.0" stroke="#888" stroke-width="1"/><line x1="466.0" y1="277.0" x2="470.0" y2="277.0" stroke="#888" stroke-width="1"/><line x1="46.0" y1="256.0" x2="38.0" y2="256.0" stroke="#888" stroke-width="1"/><line x1="466.0" y1="256.0" x2="474.0" y2="256.0" stroke="#888" stroke-width="1"/><text x="36.0" y="259.0" text-anchor="end" font-family="Arial" font-size="9" fill="#666">5</text><text x="476.0" y="259.0" text-anchor="start" font-family="Arial" font-size="9" fill="#666">5</text><line x1="46.0" y1="235.0" x2="42.0" y2="235.0" stroke="#888" stroke-width="1"/><line x1="466.0" y1="235.0" x2="470.0" y2="235.0" stroke="#888" stroke-width="1"/><line x1="46.0" y1="214.0" x2="38.0" y2="214.0" stroke="#888" stroke-width="1"/><line x1="466.0" y1="214.0" x2="474.0" y2="214.0" stroke="#888" stroke-width="1"/><text x="36.0" y="217.0" text-anchor="end" font-family="Arial" font-size="9" fill="#666">6</text><text x="476.0" y="217.0" text-anchor="start" font-family="Arial" font-size="9" fill="#666">6</text><line x1="46.0" y1="193.0" x2="42.0" y2="193.0" stroke="#888" stroke-width="1"/><line x1="466.0" y1="193.0" x2="470.0" y2="193.0" stroke="#888" stroke-width="1"/><line x1="46.0" y1="172.0" x2="38.0" y2="172.0" stroke="#888" stroke-width="1"/><line x1="466.0" y1="172.0" x2="474.0" y2="172.0" stroke="#888" stroke-width="1"/><text x="36.0" y="175.0" text-anchor="end" font-family="Arial" font-size="9" fill="#666">7</text><text x="476.0" y="175.0" text-anchor="start" font-family="Arial" font-size="9" fill="#666">7</text><line x1="46.0" y1="151.0" x2="42.0" y2="151.0" stroke="#888" stroke-width="1"/><line x1="466.0" y1="151.0" x2="470.0" y2="151.0" stroke="#888" stroke-width="1"/><line x1="46.0" y1="130.0" x2="38.0" y2="130.0" stroke="#888" stroke-width="1"/><line x1="466.0" y1="130.0" x2="474.0" y2="130.0" stroke="#888" stroke-width="1"/><text x="36.0" y="133.0" text-anchor="end" font-family="Arial" font-size="9" fill="#666">8</text><text x="476.0" y="133.0" text-anchor="start" font-family="Arial" font-size="9" fill="#666">8</text><line x1="46.0" y1="109.0" x2="42.0" y2="109.0" stroke="#888" stroke-width="1"/><line x1="466.0" y1="109.0" x2="470.0" y2="109.0" stroke="#888" stroke-width="1"/><line x1="46.0" y1="88.0" x2="38.0" y2="88.0" stroke="#888" stroke-width="1"/><line x1="466.0" y1="88.0" x2="474.0" y2="88.0" stroke="#888" stroke-width="1"/><text x="36.0" y="91.0" text-anchor="end" font-family="Arial" font-size="9" fill="#666">9</text><text x="476.0" y="91.0" text-anchor="start" font-family="Arial" font-size="9" fill="#666">9</text><line x1="46.0" y1="67.0" x2="42.0" y2="67.0" stroke="#888" stroke-width="1"/><line x1="466.0" y1="67.0" x2="470.0" y2="67.0" stroke="#888" stroke-width="1"/><line x1="46.0" y1="46.0" x2="38.0" y2="46.0" stroke="#888" stroke-width="1"/><line x1="466.0" y1="46.0" x2="474.0" y2="46.0" stroke="#888" stroke-width="1"/><text x="36.0" y="49.0" text-anchor="end" font-family="Arial" font-size="9" fill="#666">10</text><text x="476.0" y="49.0" text-anchor="start" font-family="Arial" font-size="9" fill="#666">10</text><rect x="130.0" y="130.0" width="252.0" height="252.0" fill="none" stroke="#9aa" stroke-width="1" stroke-dasharray="3 3"/><rect x="244.7" y="383.3" width="136.1" height="60.5" fill="#f2f2f2" stroke="#333" stroke-width="1.5" stroke-dasharray="6 4"/><text x="312.7" y="410.9" text-anchor="middle" font-family="Arial" font-size="12" font-weight="bold" fill="#222">PORCH</text><text x="312.7" y="426.7" text-anchor="middle" font-family="Arial" font-size="10" fill="#555">3.3×1.5 m</text><rect x="130.0" y="130.0" width="113.4" height="147.0" fill="#d9ead3" stroke="#333" stroke-width="1.5"/><text x="186.7" y="195.1" text-anchor="middle" font-family="Arial" font-size="12" font-weight="bold" fill="#222">MASTER BR</text><text x="186.7" y="210.9" text-anchor="middle" font-family="Arial" font-size="10" fill="#555">2.7×3.5 m</text><text x="186.7" y="222.4" text-anchor="middle" font-family="Arial" font-size="10" fill="#555">9.4 sqm</text><rect x="130.0" y="277.0" width="113.4" height="105.0" fill="#d9ead3" stroke="#333" stroke-width="1.5"/><text x="186.7" y="321.1" text-anchor="middle" font-family="Arial" font-size="12" font-weight="bold" fill="#222">BEDROOM</text><text x="186.7" y="336.9" text-anchor="middle" font-family="Arial" font-size="10" fill="#555">2.7×2.5 m</text><text x="186.7" y="348.4" text-anchor="middle" font-family="Arial" font-size="10" fill="#555">6.8 sqm</text><rect x="243.4" y="130.0" width="63.0" height="84.0" fill="#ead1dc" stroke="#333" stroke-width="1.5"/><text x="274.9" y="163.6" text-anchor="middle" font-family="Arial" font-size="12" font-weight="bold" fill="#222">T&amp;B</text><text x="274.9" y="179.4" text-anchor="middle" font-family="Arial" font-size="10" fill="#555">1.5×2.0 m</text><text x="274.9" y="190.9" text-anchor="middle" font-family="Arial" font-size="10" fill="#555">3.0 sqm</text><rect x="243.4" y="298.0" width="138.6" height="84.0" fill="#cfe2f3" stroke="#333" stroke-width="1.5"/><text x="312.7" y="337.4" text-anchor="middle" font-family="Arial" font-size="12" font-weight="bold" fill="#222">LIVING</text><text x="312.7" y="353.2" text-anchor="middle" font-family="Arial" font-size="10" fill="#555">3.3×2.0 m · 6.6 sqm</text><rect x="243.4" y="214.0" width="138.6" height="84.0" fill="#cfe2f3" stroke="#333" stroke-width="1.5"/><text x="312.7" y="253.3" text-anchor="middle" font-family="Arial" font-size="12" font-weight="bold" fill="#222">DINING</text><text x="312.7" y="269.1" text-anchor="middle" font-family="Arial" font-size="10" fill="#555">3.3×2.0 m · 6.6 sqm</text><rect x="306.4" y="130.0" width="75.6" height="84.0" fill="#cfe2f3" stroke="#333" stroke-width="1.5"/><text x="344.2" y="163.6" text-anchor="middle" font-family="Arial" font-size="12" font-weight="bold" fill="#222">KITCHEN</text><text x="344.2" y="179.4" text-anchor="middle" font-family="Arial" font-size="10" fill="#555">1.8×2.0 m</text><text x="344.2" y="190.9" text-anchor="middle" font-family="Arial" font-size="10" fill="#555">3.6 sqm</text><text x="256.0" y="500.0" text-anchor="middle" font-family="Arial" font-size="12" font-weight="bold" fill="#888">FRONT (street)</text><rect x="130.00" y="274.90" width="113.40" height="4.20" fill="#555" stroke="none"/><rect x="241.30" y="130.00" width="4.20" height="84.00" fill="#555" stroke="none"/><rect x="241.30" y="214.00" width="4.20" height="63.00" fill="#555" stroke="none"/><rect x="241.30" y="298.00" width="4.20" height="84.00" fill="#555" stroke="none"/><rect x="241.30" y="277.00" width="4.20" height="21.00" fill="#555" stroke="none"/><rect x="243.40" y="211.90" width="63.00" height="4.20" fill="#555" stroke="none"/><rect x="304.30" y="130.00" width="4.20" height="84.00" fill="#555" stroke="none"/><rect x="130.00" y="125.80" width="113.40" height="8.40" fill="#555" stroke="none"/><rect x="125.80" y="130.00" width="8.40" height="147.00" fill="#555" stroke="none"/><rect x="130.00" y="377.80" width="113.40" height="8.40" fill="#555" stroke="none"/><rect x="125.80" y="277.00" width="8.40" height="105.00" fill="#555" stroke="none"/><rect x="243.40" y="125.80" width="63.00" height="8.40" fill="#555" stroke="none"/><rect x="243.40" y="377.80" width="138.60" height="8.40" fill="#555" stroke="none"/><rect x="377.80" y="298.00" width="8.40" height="84.00" fill="#555" stroke="none"/><rect x="377.80" y="214.00" width="8.40" height="84.00" fill="#555" stroke="none"/><rect x="306.40" y="125.80" width="75.60" height="8.40" fill="#555" stroke="none"/><rect x="377.80" y="130.00" width="8.40" height="84.00" fill="#555" stroke="none"/><rect x="125.80" y="272.80" width="8.40" height="8.40" fill="#555" stroke="none"/><rect x="241.30" y="274.90" width="4.20" height="4.20" fill="#555" stroke="none"/><rect x="241.30" y="211.90" width="4.20" height="4.20" fill="#555" stroke="none"/><rect x="239.20" y="125.80" width="8.40" height="8.40" fill="#555" stroke="none"/><rect x="241.30" y="274.90" width="4.20" height="4.20" fill="#555" stroke="none"/><rect x="241.30" y="211.90" width="4.20" height="4.20" fill="#555" stroke="none"/><rect x="239.20" y="377.80" width="8.40" height="8.40" fill="#555" stroke="none"/><rect x="241.30" y="274.90" width="4.20" height="4.20" fill="#555" stroke="none"/><rect x="241.30" y="211.90" width="4.20" height="4.20" fill="#555" stroke="none"/><rect x="302.20" y="125.80" width="8.40" height="8.40" fill="#555" stroke="none"/><rect x="125.80" y="125.80" width="8.40" height="8.40" fill="#555" stroke="none"/><rect x="239.20" y="125.80" width="8.40" height="8.40" fill="#555" stroke="none"/><rect x="125.80" y="272.80" width="8.40" height="8.40" fill="#555" stroke="none"/><rect x="125.80" y="125.80" width="8.40" height="8.40" fill="#555" stroke="none"/><rect x="125.80" y="377.80" width="8.40" height="8.40" fill="#555" stroke="none"/><rect x="239.20" y="377.80" width="8.40" height="8.40" fill="#555" stroke="none"/><rect x="125.80" y="377.80" width="8.40" height="8.40" fill="#555" stroke="none"/><rect x="125.80" y="272.80" width="8.40" height="8.40" fill="#555" stroke="none"/><rect x="239.20" y="125.80" width="8.40" height="8.40" fill="#555" stroke="none"/><rect x="302.20" y="125.80" width="8.40" height="8.40" fill="#555" stroke="none"/><rect x="239.20" y="377.80" width="8.40" height="8.40" fill="#555" stroke="none"/><rect x="377.80" y="377.80" width="8.40" height="8.40" fill="#555" stroke="none"/><rect x="377.80" y="377.80" width="8.40" height="8.40" fill="#555" stroke="none"/><rect x="302.20" y="125.80" width="8.40" height="8.40" fill="#555" stroke="none"/><rect x="377.80" y="125.80" width="8.40" height="8.40" fill="#555" stroke="none"/><rect x="377.80" y="125.80" width="8.40" height="8.40" fill="#555" stroke="none"/><rect x="245.5" y="298.0" width="134.4" height="5.0" fill="#cfe2f3" stroke="none"/><rect x="245.5" y="293.0" width="134.4" height="5.0" fill="#cfe2f3" stroke="none"/><rect x="308.5" y="214.0" width="71.4" height="5.0" fill="#cfe2f3" stroke="none"/><rect x="308.5" y="209.0" width="71.4" height="5.0" fill="#cfe2f3" stroke="none"/><rect x="301.4" y="178.3" width="5.0" height="29.4" fill="#ead1dc" stroke="none"/><rect x="306.4" y="178.3" width="5.0" height="29.4" fill="#cfe2f3" stroke="none"/><line x1="306.4" y1="207.7" x2="277.0" y2="207.7" stroke="#444" stroke-width="1.4"/><path d="M 277.0 207.7 A 29.4 29.4 0 0 1 306.4 178.3" fill="none" stroke="#999" stroke-width="0.7" stroke-dasharray="2 2"/><rect x="238.4" y="342.1" width="5.0" height="33.6" fill="#d9ead3" stroke="none"/><rect x="243.4" y="342.1" width="5.0" height="33.6" fill="#cfe2f3" stroke="none"/><line x1="243.4" y1="375.7" x2="209.8" y2="375.7" stroke="#444" stroke-width="1.4"/><path d="M 209.8 375.7 A 33.6 33.6 0 0 1 243.4 342.1" fill="none" stroke="#999" stroke-width="0.7" stroke-dasharray="2 2"/><rect x="238.4" y="237.1" width="5.0" height="33.6" fill="#d9ead3" stroke="none"/><rect x="243.4" y="237.1" width="5.0" height="33.6" fill="#cfe2f3" stroke="none"/><line x1="243.4" y1="270.7" x2="209.8" y2="270.7" stroke="#444" stroke-width="1.4"/><path d="M 209.8 270.7 A 33.6 33.6 0 0 1 243.4 237.1" fill="none" stroke="#999" stroke-width="0.7" stroke-dasharray="2 2"/><rect x="337.9" y="377.0" width="37.8" height="5.0" fill="#cfe2f3" stroke="none"/><rect x="337.9" y="382.0" width="37.8" height="5.0" fill="#fbfbf7" stroke="none"/><line x1="375.7" y1="382.0" x2="375.7" y2="344.2" stroke="#444" stroke-width="1.4"/><path d="M 375.7 344.2 A 37.8 37.8 0 0 0 337.9 382.0" fill="none" stroke="#999" stroke-width="0.7" stroke-dasharray="2 2"/><rect x="312.7" y="130.0" width="33.6" height="5.0" fill="#cfe2f3" stroke="none"/><rect x="312.7" y="125.0" width="33.6" height="5.0" fill="#fbfbf7" stroke="none"/><line x1="312.7" y1="130.0" x2="312.7" y2="163.6" stroke="#444" stroke-width="1.4"/><path d="M 312.7 163.6 A 33.6 33.6 0 0 0 346.3 130.0" fill="none" stroke="#999" stroke-width="0.7" stroke-dasharray="2 2"/><rect x="130.0" y="163.1" width="5.0" height="80.8" fill="#d9ead3" stroke="none"/><rect x="125.0" y="163.1" width="5.0" height="80.8" fill="#fbfbf7" stroke="none"/><line x1="127.0" y1="243.9" x2="127.0" y2="163.1" stroke="#222" stroke-width="1.0"/><line x1="130.0" y1="243.9" x2="130.0" y2="163.1" stroke="#222" stroke-width="1.0"/><line x1="133.0" y1="243.9" x2="133.0" y2="163.1" stroke="#222" stroke-width="1.0"/><rect x="155.5" y="130.0" width="62.4" height="5.0" fill="#d9ead3" stroke="none"/><rect x="155.5" y="125.0" width="62.4" height="5.0" fill="#fbfbf7" stroke="none"/><line x1="155.5" y1="127.0" x2="217.9" y2="127.0" stroke="#222" stroke-width="1.0"/><line x1="155.5" y1="130.0" x2="217.9" y2="130.0" stroke="#222" stroke-width="1.0"/><line x1="155.5" y1="133.0" x2="217.9" y2="133.0" stroke="#222" stroke-width="1.0"/><rect x="155.5" y="377.0" width="62.4" height="5.0" fill="#d9ead3" stroke="none"/><rect x="155.5" y="382.0" width="62.4" height="5.0" fill="#fbfbf7" stroke="none"/><line x1="155.5" y1="379.0" x2="217.9" y2="379.0" stroke="#222" stroke-width="1.0"/><line x1="155.5" y1="382.0" x2="217.9" y2="382.0" stroke="#222" stroke-width="1.0"/><line x1="155.5" y1="385.0" x2="217.9" y2="385.0" stroke="#222" stroke-width="1.0"/><rect x="130.0" y="300.6" width="5.0" height="57.8" fill="#d9ead3" stroke="none"/><rect x="125.0" y="300.6" width="5.0" height="57.8" fill="#fbfbf7" stroke="none"/><line x1="127.0" y1="358.4" x2="127.0" y2="300.6" stroke="#222" stroke-width="1.0"/><line x1="130.0" y1="358.4" x2="130.0" y2="300.6" stroke="#222" stroke-width="1.0"/><line x1="133.0" y1="358.4" x2="133.0" y2="300.6" stroke="#222" stroke-width="1.0"/><rect x="259.1" y="130.0" width="31.5" height="5.0" fill="#ead1dc" stroke="none"/><rect x="259.1" y="125.0" width="31.5" height="5.0" fill="#fbfbf7" stroke="none"/><line x1="259.1" y1="127.0" x2="290.6" y2="127.0" stroke="#222" stroke-width="1.0"/><line x1="259.1" y1="130.0" x2="290.6" y2="130.0" stroke="#222" stroke-width="1.0"/><line x1="259.1" y1="133.0" x2="290.6" y2="133.0" stroke="#222" stroke-width="1.0"/><rect x="261.8" y="377.0" width="45.1" height="5.0" fill="#cfe2f3" stroke="none"/><rect x="261.8" y="382.0" width="45.1" height="5.0" fill="#fbfbf7" stroke="none"/><line x1="261.8" y1="379.0" x2="306.9" y2="379.0" stroke="#222" stroke-width="1.0"/><line x1="261.8" y1="382.0" x2="306.9" y2="382.0" stroke="#222" stroke-width="1.0"/><line x1="261.8" y1="385.0" x2="306.9" y2="385.0" stroke="#222" stroke-width="1.0"/><rect x="377.0" y="316.9" width="5.0" height="46.2" fill="#cfe2f3" stroke="none"/><rect x="382.0" y="316.9" width="5.0" height="46.2" fill="#fbfbf7" stroke="none"/><line x1="379.0" y1="363.1" x2="379.0" y2="316.9" stroke="#222" stroke-width="1.0"/><line x1="382.0" y1="363.1" x2="382.0" y2="316.9" stroke="#222" stroke-width="1.0"/><line x1="385.0" y1="363.1" x2="385.0" y2="316.9" stroke="#222" stroke-width="1.0"/><rect x="377.0" y="232.9" width="5.0" height="46.2" fill="#cfe2f3" stroke="none"/><rect x="382.0" y="232.9" width="5.0" height="46.2" fill="#fbfbf7" stroke="none"/><line x1="379.0" y1="279.1" x2="379.0" y2="232.9" stroke="#222" stroke-width="1.0"/><line x1="382.0" y1="279.1" x2="382.0" y2="232.9" stroke="#222" stroke-width="1.0"/><line x1="385.0" y1="279.1" x2="385.0" y2="232.9" stroke="#222" stroke-width="1.0"/><rect x="377.0" y="148.9" width="5.0" height="46.2" fill="#cfe2f3" stroke="none"/><rect x="382.0" y="148.9" width="5.0" height="46.2" fill="#fbfbf7" stroke="none"/><line x1="379.0" y1="195.1" x2="379.0" y2="148.9" stroke="#222" stroke-width="1.0"/><line x1="382.0" y1="195.1" x2="382.0" y2="148.9" stroke="#222" stroke-width="1.0"/><line x1="385.0" y1="195.1" x2="385.0" y2="148.9" stroke="#222" stroke-width="1.0"/></svg>