<svg xmlns="http://www.w3.org/2000/svg" width="596" height="596" viewBox="0 0 596 596"><rect x="0" y="0" width="596" height="596" fill="white"/><rect x="46.0" y="46.0" width="504.0" height="504.0" fill="#fbfbf7" stroke="#333" stroke-width="1.5"/><line x1="46.0" y1="46.0" x2="46.0" y2="38.0" stroke="#888" stroke-width="1"/><line x1="46.0" y1="550.0" x2="46.0" y2="558.0" stroke="#888" stroke-width="1"/><text x="46.0" y="36.0" text-anchor="middle" font-family="Arial" font-size="9" fill="#666">0</text><text x="46.0" y="566.0" text-anchor="middle" font-family="Arial" font-size="9" fill="#666">0</text><line x1="67.0" y1="46.0" x2="67.0" y2="42.0" stroke="#888" stroke-width="1"/><line x1="67.0" y1="550.0" x2="67.0" y2="554.0" stroke="#888" stroke-width="1"/><line x1="88.0" y1="46.0" x2="88.0" y2="38.0" stroke="#888" stroke-width="1"/><line x1="88.0" y1="550.0" x2="88.0" y2="558.0" stroke="#888" stroke-width="1"/><text x="88.0" y="36.0" text-anchor="middle" font-family="Arial" font-size="9" fill="#666">1</text><text x="88.0" y="566.0" text-anchor="middle" font-family="Arial" font-size="9" fill="#666">1</text><line x1="109.0" y1="46.0" x2="109.0" y2="42.0" stroke="#888" stroke-width="1"/><line x1="109.0" y1="550.0" x2="109.0" y2="554.0" stroke="#888" stroke-width="1"/><line x1="130.0" y1="46.0" x2="130.0" y2="38.0" stroke="#888" stroke-width="1"/><line x1="130.0" y1="550.0" x2="130.0" y2="558.0" stroke="#888" stroke-width="1"/><text x="130.0" y="36.0" text-anchor="middle" font-family="Arial" font-size="9" fill="#666">2</text><text x="130.0" y="566.0" text-anchor="middle" font-family="Arial" font-size="9" fill="#666">2</text><line x1="151.0" y1="46.0" x2="151.0" y2="42.0" stroke="#888" stroke-width="1"/><line x1="151.0" y1="550.0" x2="151.0" y2="554.0" stroke="#888" stroke-width="1"/><line x1="172.0" y1="46.0" x2="172.0" y2="38.0" stroke="#888" stroke-width="1"/><line x1="172.0" y1="550.0" x2="172.0" y2="558.0" stroke="#888" stroke-width="1"/><text x="172.0" y="36.0" text-anchor="middle" font-family="Arial" font-size="9" fill="#666">3</text><text x="172.0" y="566.0" text-anchor="middle" font-family="Arial" font-size="9" fill="#666">3</text><line x1="193.0" y1="46.0" x2="193.0" y2="42.0" stroke="#888" stroke-width="1"/><line x1="193.0" y1="550.0" x2="193.0" y2="554.0" stroke="#888" stroke-width="1"/><line x1="214.0" y1="46.0" x2="214.0" y2="38.0" stroke="#888" stroke-width="1"/><line x1="214.0" y1="550.0" x2="214.0" y2="558.0" stroke="#888" stroke-width="1"/><text x="214.0" y="36.0" text-anchor="middle" font-family="Arial" font-size="9" fill="#666">4</text><text x="214.0" y="566.0" text-anchor="middle" font-family="Arial" font-size="9" fill="#666">4</text><line x1="235.0" y1="46.0" x2="235.0" y2="42.0" stroke="#888" stroke-width="1"/><line x1="235.0" y1="550.0" x2="235.0" y2="554.0" stroke="#888" stroke-width="1"/><line x1="256.0" y1="46.0" x2="256.0" y2="38.0" stroke="#888" stroke-width="1"/><line x1="256.0" y1="550.0" x2="256.0" y2="558.0" stroke="#888" stroke-width="1"/><text x="256.0" y="36.0" text-anchor="middle" font-family="Arial" font-size="9" fill="#666">5</text><text x="256.0" y="566.0" text-anchor="middle" font-family="Arial" font-size="9" fill="#666">5</text><line x1="277.0" y1="46.0" x2="277.0" y2="42.0" stroke="#888" stroke-width="1"/><line x1="277.0" y1="550.0" x2="277.0" y2="554.0" stroke="#888" stroke-width="1"/><line x1="298.0" y1="46.0" x2="298.0" y2="38.0" stroke="#888" stroke-width="1"/><line x1="298.0" y1="550.0" x2="298.0" y2="558.0" stroke="#888" stroke-width="1"/><text x="298.0" y="36.0" text-anchor="middle" font-family="Arial" font-size="9" fill="#666">6</text><text x="298.0" y="566.0" text-anchor="middle" font-family="Arial" font-size="9" fill="#666">6</text><line x1="319.0" y1="46.0" x2="319.0" y2="42.0" stroke="#888" stroke-width="1"/><line x1="319.0" y1="550.0" x2="319.0" y2="554.0" stroke="#888" stroke-width="1"/><line x1="340.0" y1="46.0" x2="340.0" y2="38.0" stroke="#888" stroke-width="1"/><line x1="340.0" y1="550.0" x2="340.0" y2="558.0" stroke="#888" stroke-width="1"/><text x="340.0" y="36.0" text-anchor="middle" font-family="Arial" font-size="9" fill="#666">7</text><text x="340.0" y="566.0" text-anchor="middle" font-family="Arial" font-size="9" fill="#666">7</text><line x1="361.0" y1="46.0" x2="361.0" y2="42.0" stroke="#888" stroke-width="1"/><line x1="361.0" y1="550.0" x2="361.0" y2="554.0" stroke="#888" stroke-width="1"/><line x1="382.0" y1="46.0" x2="382.0" y2="38.0" stroke="#888" stroke-width="1"/><line x1="382.0" y1="550.0" x2="382.0" y2="558.0" stroke="#888" stroke-width="1"/><text x="382.0" y="36.0" text-anchor="middle" font-family="Arial" font-size="9" fill="#666">8</text><text x="382.0" y="566.0" text-anchor="middle" font-family="Arial" font-size="9" fill="#666">8</text><line x1="403.0" y1="46.0" x2="403.0" y2="42.0" stroke="#888" stroke-width="1"/><line x1="403.0" y1="550.0" x2="403.0" y2="554.0" stroke="#888" stroke-width="1"/><line x1="424.0" y1="46.0" x2="424.0" y2="38.0" stroke="#888" stroke-width="1"/><line x1="424.0" y1="550.0" x2="424.0" y2="558.0" stroke="#888" stroke-width="1"/><text x="424.0" y="36.0" text-anchor="middle" font-family="Arial" font-size="9" fill="#666">9</text><text x="424.0" y="566.0" text-anchor="middle" font-family="Arial" font-size="9" fill="#666">9</text><line x1="445.0" y1="46.0" x2="445.0" y2="42.0" stroke="#888" stroke-width="1"/><line x1="445.0" y1="550.0" x2="445.0" y2="554.0" stroke="#888" stroke-width="1"/><line x1="466.0" y1="46.0" x2="466.0" y2="38.0" stroke="#888" stroke-width="1"/><line x1="466.0" y1="550.0" x2="466.0" y2="558.0" stroke="#888" stroke-width="1"/><text x="466.0" y="36.0" text-anchor="middle" font-family="Arial" font-size="9" fill="#666">10</text><text x="466.0" y="566.0" text-anchor="middle" font-family="Arial" font-size="9" fill="#666">10</text><line x1="487.0" y1="46.0" x2="487.0" y2="42.0" stroke="#888" stroke-width="1"/><line x1="487.0" y1="550.0" x2="487.0" y2="554.0" stroke="#888" stroke-width="1"/><line x1="508.0" y1="46.0" x2="508.0" y2="38.0" stroke="#888" stroke-width="1"/><line x1="508.0" y1="550.0" x2="508.0" y2="558.0" stroke="#888" stroke-width="1"/><text x="508.0" y="36.0" text-anchor="middle" font-family="Arial" font-size="9" fill="#666">11</text><text x="508.0" y="566.0" text-anchor="middle" font-family="Arial" font-size="9" fill="#666">11</text><line x1="529.0" y1="46.0" x2="529.0" y2="42.0" stroke="#888" stroke-width="1"/><line x1="529.0" y1="550.0" x2="529.0" y2="554.0" stroke="#888" stroke-width="1"/><line x1="550.0" y1="46.0" x2="550.0" y2="38.0" stroke="#888" stroke-width="1"/><line x1="550.0" y1="550.0" x2="550.0" y2="558.0" stroke="#888" stroke-width="1"/><text x="550.0" y="36.0" text-anchor="middle" font-family="Arial" font-size="9" fill="#666">12</text><text x="550.0" y="566.0" text-anchor="middle" font-family="Arial" font-size="9" fill="#666">12</text><line x1="46.0" y1="550.0" x2="38.0" y2="550.0" stroke="#888" stroke-width="1"/><line x1="550.0" y1="550.0" x2="558.0" y2="550.0" stroke="#888" stroke-width="1"/><text x="36.0" y="553.0" text-anchor="end" font-family="Arial" font-size="9" fill="#666">0</text><text x="560.0" y="553.0" text-anchor="start" font-family="Arial" font-size="9" fill="#666">0</text><line x1="46.0" y1="529.0" x2="42.0" y2="529.0" stroke="#888" stroke-width="1"/><line x1="550.0" y1="529.0" x2="554.0" y2="529.0" stroke="#888" stroke-width="1"/><line x1="46.0" y1="508.0" x2="38.0" y2="508.0" stroke="#888" stroke-width="1"/><line x1="550.0" y1="508.0" x2="558.0" y2="508.0" stroke="#888" stroke-width="1"/><text x="36.0" y="511.0" text-anchor="end" font-family="Arial" font-size="9" fill="#666">1</text><text x="560.0" y="511.0" text-anchor="start" font-family="Arial" font-size="9" fill="#666">1</text><line x1="46.0" y1="487.0" x2="42.0" y2="487.0" stroke="#888" stroke-width="1"/><line x1="550.0" y1="487.0" x2="554.0" y2="487.0" stroke="#888" stroke-width="1"/><line x1="46.0" y1="466.0" x2="38.0" y2="466.0" stroke="#888" stroke-width="1"/><line x1="550.0" y1="466.0" x2="558.0" y2="466.0" stroke="#888" stroke-width="1"/><text x="36.0" y="469.0" text-anchor="end" font-family="Arial" font-size="9" fill="#666">2</text><text x="560.0" y="469.0" text-anchor="start" font-family="Arial" font-size="9" fill="#666">2</text><line x1="46.0" y1="445.0" x2="42.0" y2="445.0" stroke="#888" stroke-width="1"/><line x1="550.0" y1="445.0" x2="554.0" y2="445.0" stroke="#888" stroke-width="1"/><line x1="46.0" y1="424.0" x2="38.0" y2="424.0" stroke="#888" stroke-width="1"/><line x1="550.0" y1="424.0" x2="558.0" y2="424.0" stroke="#888" stroke-width="1"/><text x="36.0" y="427.0" text-anchor="end" font-family="Arial" font-size="9" fill="#666">3</text><text x="560.0" y="427.0" text-anchor="start" font-family="Arial" font-size="9" fill="#666">3</text><line x1="46.0" y1="403.0" x2="42.0" y2="403.0" stroke="#888" stroke-width="1"/><line x1="550.0" y1="403.0" x2="554.0" y2="403.0" stroke="#888" stroke-width="1"/><line x1="46.0" y1="382.0" x2="38.0" y2="382.0" stroke="#888" stroke-width="1"/><line x1="550.0" y1="382.0" x2="558.0" y2="382.0" stroke="#888" stroke-width="1"/><text x="36.0" y="385.0" text-anchor="end" font-family="Arial" font-size="9" fill="#666">4</text><text x="560.0" y="385.0" text-anchor="start" font-family="Arial" font-size="9" fill="#666">4</text><line x1="46.0" y1="361.0" x2="42.0" y2="361.0" stroke="#888" stroke-width="1"/><line x1="550.0" y1="361.0" x2="554.0" y2="361.0" stroke="#888" stroke-width="1"/><line x1="46.0" y1="340.0" x2="38.0" y2="340.0" stroke="#888" stroke-width="1"/><line x1="550.0" y1="340.0" x2="558.0" y2="340.0" stroke="#888" stroke-width="1"/><text x="36.0" y="343.0" text-anchor="end" font-family="Arial" font-size="9" fill="#666">5</text><text x="560.0" y="343.0" text-anchor="start" font-family="Arial" font-size="9" fill="#666">5</text><line x1="46.0" y1="319.0" x2="42.0" y2="319.0" stroke="#888" stroke-width="1"/><line x1="550.0" y1="319.0" x2="554.0" y2="319.0" stroke="#888" stroke-width="1"/><line x1="46.0" y1="298.0" x2="38.0" y2="298.0" stroke="#888" stroke-width="1"/><line x1="550.0" y1="298.0" x2="558.0" y2="298.0" stroke="#888" stroke-width="1"/><text x="36.0" y="301.0" text-anchor="end" font-family="Arial" font-size="9" fill="#666">6</text><text x="560.0" y="301.0" text-anchor="start" font-family="Arial" font-size="9" fill="#666">6</text><line x1="46.0" y1="277.0" x2="42.0" y2="277.0" stroke="#888" stroke-width="1"/><line x1="550.0" y1="277.0" x2="554.0" y2="277.0" stroke="#888" stroke-width="1"/><line x1="46.0" y1="256.0" x2="38.0" y2="256.0" stroke="#888" stroke-width="1"/><line x1="550.0" y1="256.0" x2="558.0" y2="256.0" stroke="#888" stroke-width="1"/><text x="36.0" y="259.0" text-anchor="end" font-family="Arial" font-size="9" fill="#666">7</text><text x="560.0" y="259.0" text-anchor="start" font-family="Arial" font-size="9" fill="#666">7</text><line x1="46.0" y1="235.0" x2="42.0" y2="235.0" stroke="#888" stroke-width="1"/><line x1="550.0" y1="235.0" x2="554.0" y2="235.0" stroke="#888" stroke-width="1"/><line x1="46.0" y1="214.0" x2="38.0" y2="214.0" stroke="#888" stroke-width="1"/><line x1="550.0" y1="214.0" x2="558.0" y2="214.0" stroke="#888" stroke-width="1"/><text x="36.0" y="217.0" text-anchor="end" font-family="Arial" font-size="9" fill="#666">8</text><text x="560.0" y="217.0" text-anchor="start" font-family="Arial" font-size="9" fill="#666">8</text><line x1="46.0" y1="193.0" x2="42.0" y2="193.0" stroke="#888" stroke-width="1"/><line x1="550.0" y1="193.0" x2="554.0" y2="193.0" stroke="#888" stroke-width="1"/><line x1="46.0" y1="172.0" x2="38.0" y2="172.0" stroke="#888" stroke-width="1"/><line x1="550.0" y1="172.0" x2="558.0" y2="172.0" stroke="#888" stroke-width="1"/><text x="36.0" y="175.0" text-anchor="end" font-family="Arial" font-size="9" fill="#666">9</text><text x="560.0" y="175.0" text-anchor="start" font-family="Arial" font-size="9" fill="#666">9</text><line x1="46.0" y1="151.0" x2="42.0" y2="151.0" stroke="#888" stroke-width="1"/><line x1="550.0" y1="151.0" x2="554.0" y2="151.0" stroke="#888" stroke-width="1"/><line x1="46.0" y1="130.0" x2="38.0" y2="130.0" stroke="#888" stroke-width="1"/><line x1="550.0" y1="130.0" x2="558.0" y2="130.0" stroke="#888" stroke-width="1"/><text x="36.0" y="133.0" text-anchor="end" font-family="Arial" font-size="9" fill="#666">10</text><text x="560.0" y="133.0" text-anchor="start" font-family="Arial" font-size="9" fill="#666">10</text><line x1="46.0" y1="109.0" x2="42.0" y2="109.0" stroke="#888" stroke-width="1"/><line x1="550.0" y1="109.0" x2="554.0" y2="109.0" stroke="#888" stroke-width="1"/><line x1="46.0" y1="88.0" x2="38.0" y2="88.0" stroke="#888" stroke-width="1"/><line x1="550.0" y1="88.0" x2="558.0" y2="88.0" stroke="#888" stroke-width="1"/><text x="36.0" y="91.0" text-anchor="end" font-family="Arial" font-size="9" fill="#666">11</text><text x="560.0" y="91.0" text-anchor="start" font-family="Arial" font-size="9" fill="#666">11</text><line x1="46.0" y1="67.0" x2="42.0" y2="67.0" stroke="#888" stroke-width="1"/><line x1="550.0" y1="67.0" x2="554.0" y2="67.0" stroke="#888" stroke-width="1"/><line x1="46.0" y1="46.0" x2="38.0" y2="46.0" stroke="#888" stroke-width="1"/><line x1="550.0" y1="46.0" x2="558.0" y2="46.0" stroke="#888" stroke-width="1"/><text x="36.0" y="49.0" text-anchor="end" font-family="Arial" font-size="9" fill="#666">12</text><text x="560.0" y="49.0" text-anchor="start" font-family="Arial" font-size="9" fill="#666">12</text><rect x="130.0" y="130.0" width="336.0" height="336.0" fill="none" stroke="#9aa" stroke-width="1" stroke-dasharray="3 3"/><rect x="424.0" y="298.0" width="126.0" height="252.0" fill="#f2f2f2" stroke="#333" stroke-width="1.5" stroke-dasharray="6 4"/><text x="487.0" y="421.4" text-anchor="middle" font-family="Arial" font-size="12" font-weight="bold" fill="#222">CARPORT</text><text x="487.0" y="437.2" text-anchor="middle" font-family="Arial" font-size="10" fill="#555">3.0×6.0 m</text><rect x="304.3" y="58.6" width="161.7" height="67.2" fill="#f2f2f2" stroke="#333" stroke-width="1.5" stroke-dasharray="6 4"/><text x="385.2" y="89.6" text-anchor="middle" font-family="Arial" font-size="12" font-weight="bold" fill="#222">DIRTY KITCHEN</text><text x="385.2" y="105.4" text-anchor="middle" font-family="Arial" font-size="10" fill="#555">3.9×1.6 m</text><rect x="130.0" y="58.6" width="174.3" height="67.2" fill="#f2f2f2" stroke="#333" stroke-width="1.5" stroke-dasharray="6 4"/><text x="217.2" y="89.6" text-anchor="middle" font-family="Arial" font-size="12" font-weight="bold" fill="#222">SERVICE</text><text x="217.2" y="105.4" text-anchor="middle" font-family="Arial" font-size="10" fill="#555">4.2×1.6 m</text><rect x="130.0" y="272.8" width="111.3" height="193.2" fill="#d9ead3" stroke="#333" stroke-width="1.5"/><text x="185.7" y="361.0" text-anchor="middle" font-family="Arial" font-size="12" font-weight="bold" fill="#222">MASTER BR</text><text x="185.7" y="376.8" text-anchor="middle" font-family="Arial" font-size="10" fill="#555">2.6×4.6 m</text><text x="185.7" y="388.3" text-anchor="middle" font-family="Arial" font-size="10" fill="#555">12.2 sqm</text><rect x="130.0" y="130.0" width="111.3" height="142.8" fill="#d9ead3" stroke="#333" stroke-width="1.5"/><text x="185.7" y="193.0" text-anchor="middle" font-family="Arial" font-size="12" font-weight="bold" fill="#222">BEDROOM</text><text x="185.7" y="208.8" text-anchor="middle" font-family="Arial" font-size="10" fill="#555">2.6×3.4 m</text><text x="185.7" y="220.3" text-anchor="middle" font-family="Arial" font-size="10" fill="#555">9.0 sqm</text><rect x="241.3" y="130.0" width="63.0" height="84.0" fill="#ead1dc" stroke="#333" stroke-width="1.5"/><text x="272.8" y="163.6" text-anchor="middle" font-family="Arial" font-size="12" font-weight="bold" fill="#222">T&amp;B</text><text x="272.8" y="179.4" text-anchor="middle" font-family="Arial" font-size="10" fill="#555">1.5×2.0 m</text><text x="272.8" y="190.9" text-anchor="middle" font-family="Arial" font-size="10" fill="#555">3.0 sqm</text><rect x="241.3" y="214.0" width="182.7" height="252.0" fill="#cfe2f3" stroke="#333" stroke-width="1.5"/><rect x="424.0" y="214.0" width="42.0" height="84.0" fill="#cfe2f3" stroke="#333" stroke-width="1.5"/><text x="332.7" y="337.4" text-anchor="middle" font-family="Arial" font-size="12" font-weight="bold" fill="#222">GREAT ROOM</text><text x="332.7" y="353.2" text-anchor="middle" font-family="Arial" font-size="10" fill="#555">28.1 sqm (L-shaped)</text><rect x="304.3" y="130.0" width="161.7" height="84.0" fill="#fce5cd" stroke="#333" stroke-width="1.5"/><text x="385.2" y="169.3" text-anchor="middle" font-family="Arial" font-size="12" font-weight="bold" fill="#222">KITCHEN</text><text x="385.2" y="185.2" text-anchor="middle" font-family="Arial" font-size="10" fill="#555">3.9×2.0 m · 7.7 sqm</text><text x="298.0" y="584.0" text-anchor="middle" font-family="Arial" font-size="12" font-weight="bold" fill="#888">FRONT (street)</text><rect x="130.00" y="270.70" width="111.30" height="4.20" fill="#555" stroke="none"/><rect x="239.20" y="272.80" width="4.20" height="193.20" fill="#555" stroke="none"/><rect x="239.20" y="130.00" width="4.20" height="84.00" fill="#555" stroke="none"/><rect x="239.20" y="214.00" width="4.20" height="58.80" fill="#555" stroke="none"/><rect x="241.30" y="211.90" width="63.00" height="4.20" fill="#555" stroke="none"/><rect x="302.20" y="130.00" width="4.20" height="84.00" fill="#555" stroke="none"/><rect x="419.80" y="298.00" width="8.40" height="168.00" fill="#555" stroke="none"/><rect x="130.00" y="461.80" width="111.30" height="8.40" fill="#555" stroke="none"/><rect x="125.80" y="272.80" width="8.40" height="193.20" fill="#555" stroke="none"/><rect x="130.00" y="125.80" width="111.30" height="8.40" fill="#555" stroke="none"/><rect x="125.80" y="130.00" width="8.40" height="142.80" fill="#555" stroke="none"/><rect x="241.30" y="125.80" width="63.00" height="8.40" fill="#555" stroke="none"/><rect x="241.30" y="461.80" width="182.70" height="8.40" fill="#555" stroke="none"/><rect x="419.80" y="214.00" width="8.40" height="84.00" fill="#555" stroke="none"/><rect x="304.30" y="125.80" width="161.70" height="8.40" fill="#555" stroke="none"/><rect x="424.00" y="209.80" width="42.00" height="8.40" fill="#555" stroke="none"/><rect x="461.80" y="130.00" width="8.40" height="84.00" fill="#555" stroke="none"/><rect x="125.80" y="268.60" width="8.40" height="8.40" fill="#555" stroke="none"/><rect x="237.10" y="268.60" width="8.40" height="8.40" fill="#555" stroke="none"/><rect x="237.10" y="461.80" width="8.40" height="8.40" fill="#555" stroke="none"/><rect x="237.10" y="268.60" width="8.40" height="8.40" fill="#555" stroke="none"/><rect x="237.10" y="209.80" width="8.40" height="8.40" fill="#555" stroke="none"/><rect x="237.10" y="125.80" width="8.40" height="8.40" fill="#555" stroke="none"/><rect x="237.10" y="268.60" width="8.40" height="8.40" fill="#555" stroke="none"/><rect x="237.10" y="209.80" width="8.40" height="8.40" fill="#555" stroke="none"/><rect x="237.10" y="209.80" width="8.40" height="8.40" fill="#555" stroke="none"/><rect x="300.10" y="209.80" width="8.40" height="8.40" fill="#555" stroke="none"/><rect x="300.10" y="209.80" width="8.40" height="8.40" fill="#555" stroke="none"/><rect x="300.10" y="125.80" width="8.40" height="8.40" fill="#555" stroke="none"/><rect x="419.80" y="461.80" width="8.40" height="8.40" fill="#555" stroke="none"/><rect x="419.80" y="293.80" width="8.40" height="8.40" fill="#555" stroke="none"/><rect x="125.80" y="461.80" width="8.40" height="8.40" fill="#555" stroke="none"/><rect x="237.10" y="461.80" width="8.40" height="8.40" fill="#555" stroke="none"/><rect x="125.80" y="461.80" width="8.40" height="8.40" fill="#555" stroke="none"/><rect x="125.80" y="268.60" width="8.40" height="8.40" fill="#555" stroke="none"/><rect x="125.80" y="125.80" width="8.40" height="8.40" fill="#555" stroke="none"/><rect x="237.10" y="125.80" width="8.40" height="8.40" fill="#555" stroke="none"/><rect x="125.80" y="268.60" width="8.40" height="8.40" fill="#555" stroke="none"/><rect x="125.80" y="125.80" width="8.40" height="8.40" fill="#555" stroke="none"/><rect x="237.10" y="125.80" width="8.40" height="8.40" fill="#555" stroke="none"/><rect x="300.10" y="125.80" width="8.40" height="8.40" fill="#555" stroke="none"/><rect x="237.10" y="461.80" width="8.40" height="8.40" fill="#555" stroke="none"/><rect x="419.80" y="461.80" width="8.40" height="8.40" fill="#555" stroke="none"/><rect x="419.80" y="293.80" width="8.40" height="8.40" fill="#555" stroke="none"/><rect x="419.80" y="209.80" width="8.40" height="8.40" fill="#555" stroke="none"/><rect x="300.10" y="125.80" width="8.40" height="8.40" fill="#555" stroke="none"/><rect x="461.80" y="125.80" width="8.40" height="8.40" fill="#555" stroke="none"/><rect x="419.80" y="209.80" width="8.40" height="8.40" fill="#555" stroke="none"/><rect x="461.80" y="209.80" width="8.40" height="8.40" fill="#555" stroke="none"/><rect x="461.80" y="209.80" width="8.40" height="8.40" fill="#555" stroke="none"/><rect x="461.80" y="125.80" width="8.40" height="8.40" fill="#555" stroke="none"/><rect x="308.5" y="209.0" width="111.3" height="5.0" fill="#fce5cd" stroke="none"/><rect x="308.5" y="214.0" width="111.3" height="5.0" fill="#cfe2f3" stroke="none"/><rect x="236.3" y="426.1" width="5.0" height="33.6" fill="#d9ead3" stroke="none"/><rect x="241.3" y="426.1" width="5.0" height="33.6" fill="#cfe2f3" stroke="none"/><line x1="241.3" y1="459.7" x2="207.7" y2="459.7" stroke="#444" stroke-width="1.4"/><path d="M 207.7 459.7 A 33.6 33.6 0 0 1 241.3 426.1" fill="none" stroke="#999" stroke-width="0.7" stroke-dasharray="2 2"/><rect x="236.3" y="232.9" width="5.0" height="33.6" fill="#d9ead3" stroke="none"/><rect x="241.3" y="232.9" width="5.0" height="33.6" fill="#cfe2f3" stroke="none"/><line x1="241.3" y1="266.5" x2="207.7" y2="266.5" stroke="#444" stroke-width="1.4"/><path d="M 207.7 266.5 A 33.6 33.6 0 0 1 241.3 232.9" fill="none" stroke="#999" stroke-width="0.7" stroke-dasharray="2 2"/><rect x="247.6" y="209.0" width="29.4" height="5.0" fill="#ead1dc" stroke="none"/><rect x="247.6" y="214.0" width="29.4" height="5.0" fill="#cfe2f3" stroke="none"/><line x1="247.6" y1="214.0" x2="247.6" y2="184.6" stroke="#444" stroke-width="1.4"/><path d="M 247.6 184.6 A 29.4 29.4 0 0 1 277.0 214.0" fill="none" stroke="#999" stroke-width="0.7" stroke-dasharray="2 2"/><rect x="313.8" y="461.0" width="37.8" height="5.0" fill="#cfe2f3" stroke="none"/><rect x="313.8" y="466.0" width="37.8" height="5.0" fill="#fbfbf7" stroke="none"/><line x1="313.8" y1="466.0" x2="313.8" y2="428.2" stroke="#444" stroke-width="1.4"/><path d="M 313.8 428.2 A 37.8 37.8 0 0 1 351.6 466.0" fill="none" stroke="#999" stroke-width="0.7" stroke-dasharray="2 2"/><rect x="310.6" y="130.0" width="33.6" height="5.0" fill="#fce5cd" stroke="none"/><rect x="310.6" y="125.0" width="33.6" height="5.0" fill="#fbfbf7" stroke="none"/><line x1="310.6" y1="130.0" x2="310.6" y2="163.6" stroke="#444" stroke-width="1.4"/><path d="M 310.6 163.6 A 33.6 33.6 0 0 0 344.2 130.0" fill="none" stroke="#999" stroke-width="0.7" stroke-dasharray="2 2"/><rect x="130.0" y="319.0" width="5.0" height="100.8" fill="#d9ead3" stroke="none"/><rect x="125.0" y="319.0" width="5.0" height="100.8" fill="#fbfbf7" stroke="none"/><line x1="127.0" y1="419.8" x2="127.0" y2="319.0" stroke="#222" stroke-width="1.0"/><line x1="130.0" y1="419.8" x2="130.0" y2="319.0" stroke="#222" stroke-width="1.0"/><line x1="133.0" y1="419.8" x2="133.0" y2="319.0" stroke="#222" stroke-width="1.0"/><rect x="155.0" y="461.0" width="61.2" height="5.0" fill="#d9ead3" stroke="none"/><rect x="155.0" y="466.0" width="61.2" height="5.0" fill="#fbfbf7" stroke="none"/><line x1="155.0" y1="463.0" x2="216.3" y2="463.0" stroke="#222" stroke-width="1.0"/><line x1="155.0" y1="466.0" x2="216.3" y2="466.0" stroke="#222" stroke-width="1.0"/><line x1="155.0" y1="469.0" x2="216.3" y2="469.0" stroke="#222" stroke-width="1.0"/><rect x="130.0" y="162.1" width="5.0" height="78.5" fill="#d9ead3" stroke="none"/><rect x="125.0" y="162.1" width="5.0" height="78.5" fill="#fbfbf7" stroke="none"/><line x1="127.0" y1="240.7" x2="127.0" y2="162.1" stroke="#222" stroke-width="1.0"/><line x1="130.0" y1="240.7" x2="130.0" y2="162.1" stroke="#222" stroke-width="1.0"/><line x1="133.0" y1="240.7" x2="133.0" y2="162.1" stroke="#222" stroke-width="1.0"/><rect x="155.0" y="130.0" width="61.2" height="5.0" fill="#d9ead3" stroke="none"/><rect x="155.0" y="125.0" width="61.2" height="5.0" fill="#fbfbf7" stroke="none"/><line x1="155.0" y1="127.0" x2="216.3" y2="127.0" stroke="#222" stroke-width="1.0"/><line x1="155.0" y1="130.0" x2="216.3" y2="130.0" stroke="#222" stroke-width="1.0"/><line x1="155.0" y1="133.0" x2="216.3" y2="133.0" stroke="#222" stroke-width="1.0"/><rect x="257.1" y="130.0" width="31.5" height="5.0" fill="#ead1dc" stroke="none"/><rect x="257.1" y="125.0" width="31.5" height="5.0" fill="#fbfbf7" stroke="none"/><line x1="257.1" y1="127.0" x2="288.6" y2="127.0" stroke="#222" stroke-width="1.0"/><line x1="257.1" y1="130.0" x2="288.6" y2="130.0" stroke="#222" stroke-width="1.0"/><line x1="257.1" y1="133.0" x2="288.6" y2="133.0" stroke="#222" stroke-width="1.0"/><rect x="252.3" y="461.0" width="37.8" height="5.0" fill="#cfe2f3" stroke="none"/><rect x="252.3" y="466.0" width="37.8" height="5.0" fill="#fbfbf7" stroke="none"/><line x1="252.3" y1="463.0" x2="290.1" y2="463.0" stroke="#222" stroke-width="1.0"/><line x1="252.3" y1="466.0" x2="290.1" y2="466.0" stroke="#222" stroke-width="1.0"/><line x1="252.3" y1="469.0" x2="290.1" y2="469.0" stroke="#222" stroke-width="1.0"/><rect x="381.4" y="130.0" width="60.1" height="5.0" fill="#fce5cd" stroke="none"/><rect x="381.4" y="125.0" width="60.1" height="5.0" fill="#fbfbf7" stroke="none"/><line x1="381.4" y1="127.0" x2="441.4" y2="127.0" stroke="#222" stroke-width="1.0"/><line x1="381.4" y1="130.0" x2="441.4" y2="130.0" stroke="#222" stroke-width="1.0"/><line x1="381.4" y1="133.0" x2="441.4" y2="133.0" stroke="#222" stroke-width="1.0"/><rect x="461.0" y="148.9" width="5.0" height="46.2" fill="#fce5cd" stroke="none"/><rect x="466.0" y="148.9" width="5.0" height="46.2" fill="#fbfbf7" stroke="none"/><line x1="463.0" y1="195.1" x2="463.0" y2="148.9" stroke="#222" stroke-width="1.0"/><line x1="466.0" y1="195.1" x2="466.0" y2="148.9" stroke="#222" stroke-width="1.0"/><line x1="469.0" y1="195.1" x2="469.0" y2="148.9" stroke="#222" stroke-width="1.0"/></svg>