<svg xmlns="http://www.w3.org/2000/svg" width="554" height="470" viewBox="0 0 554 470"><rect x="0" y="0" width="554" height="470" fill="white"/><rect x="46.0" y="46.0" width="462.0" height="378.0" fill="#fbfbf7" stroke="#333" stroke-width="1.5"/><line x1="46.0" y1="46.0" x2="46.0" y2="38.0" stroke="#888" stroke-width="1"/><line x1="46.0" y1="424.0" x2="46.0" y2="432.0" stroke="#888" stroke-width="1"/><text x="46.0" y="36.0" text-anchor="middle" font-family="Arial" font-size="9" fill="#666">0</text><text x="46.0" y="440.0" text-anchor="middle" font-family="Arial" font-size="9" fill="#666">0</text><line x1="67.0" y1="46.0" x2="67.0" y2="42.0" stroke="#888" stroke-width="1"/><line x1="67.0" y1="424.0" x2="67.0" y2="428.0" stroke="#888" stroke-width="1"/><line x1="88.0" y1="46.0" x2="88.0" y2="38.0" stroke="#888" stroke-width="1"/><line x1="88.0" y1="424.0" x2="88.0" y2="432.0" stroke="#888" stroke-width="1"/><text x="88.0" y="36.0" text-anchor="middle" font-family="Arial" font-size="9" fill="#666">1</text><text x="88.0" y="440.0" text-anchor="middle" font-family="Arial" font-size="9" fill="#666">1</text><line x1="109.0" y1="46.0" x2="109.0" y2="42.0" stroke="#888" stroke-width="1"/><line x1="109.0" y1="424.0" x2="109.0" y2="428.0" stroke="#888" stroke-width="1"/><line x1="130.0" y1="46.0" x2="130.0" y2="38.0" stroke="#888" stroke-width="1"/><line x1="130.0" y1="424.0" x2="130.0" y2="432.0" stroke="#888" stroke-width="1"/><text x="130.0" y="36.0" text-anchor="middle" font-family="Arial" font-size="9" fill="#666">2</text><text x="130.0" y="440.0" text-anchor="middle" font-family="Arial" font-size="9" fill="#666">2</text><line x1="151.0" y1="46.0" x2="151.0" y2="42.0" stroke="#888" stroke-width="1"/><line x1="151.0" y1="424.0" x2="151.0" y2="428.0" stroke="#888" stroke-width="1"/><line x1="172.0" y1="46.0" x2="172.0" y2="38.0" stroke="#888" stroke-width="1"/><line x1="172.0" y1="424.0" x2="172.0" y2="432.0" stroke="#888" stroke-width="1"/><text x="172.0" y="36.0" text-anchor="middle" font-family="Arial" font-size="9" fill="#666">3</text><text x="172.0" y="440.0" text-anchor="middle" font-family="Arial" font-size="9" fill="#666">3</text><line x1="193.0" y1="46.0" x2="193.0" y2="42.0" stroke="#888" stroke-width="1"/><line x1="193.0" y1="424.0" x2="193.0" y2="428.0" stroke="#888" stroke-width="1"/><line x1="214.0" y1="46.0" x2="214.0" y2="38.0" stroke="#888" stroke-width="1"/><line x1="214.0" y1="424.0" x2="214.0" y2="432.0" stroke="#888" stroke-width="1"/><text x="214.0" y="36.0" text-anchor="middle" font-family="Arial" font-size="9" fill="#666">4</text><text x="214.0" y="440.0" text-anchor="middle" font-family="Arial" font-size="9" fill="#666">4</text><line x1="235.0" y1="46.0" x2="235.0" y2="42.0" stroke="#888" stroke-width="1"/><line x1="235.0" y1="424.0" x2="235.0" y2="428.0" stroke="#888" stroke-width="1"/><line x1="256.0" y1="46.0" x2="256.0" y2="38.0" stroke="#888" stroke-width="1"/><line x1="256.0" y1="424.0" x2="256.0" y2="432.0" stroke="#888" stroke-width="1"/><text x="256.0" y="36.0" text-anchor="middle" font-family="Arial" font-size="9" fill="#666">5</text><text x="256.0" y="440.0" text-anchor="middle" font-family="Arial" font-size="9" fill="#666">5</text><line x1="277.0" y1="46.0" x2="277.0" y2="42.0" stroke="#888" stroke-width="1"/><line x1="277.0" y1="424.0" x2="277.0" y2="428.0" stroke="#888" stroke-width="1"/><line x1="298.0" y1="46.0" x2="298.0" y2="38.0" stroke="#888" stroke-width="1"/><line x1="298.0" y1="424.0" x2="298.0" y2="432.0" stroke="#888" stroke-width="1"/><text x="298.0" y="36.0" text-anchor="middle" font-family="Arial" font-size="9" fill="#666">6</text><text x="298.0" y="440.0" text-anchor="middle" font-family="Arial" font-size="9" fill="#666">6</text><line x1="319.0" y1="46.0" x2="319.0" y2="42.0" stroke="#888" stroke-width="1"/><line x1="319.0" y1="424.0" x2="319.0" y2="428.0" stroke="#888" stroke-width="1"/><line x1="340.0" y1="46.0" x2="340.0" y2="38.0" stroke="#888" stroke-width="1"/><line x1="340.0" y1="424.0" x2="340.0" y2="432.0" stroke="#888" stroke-width="1"/><text x="340.0" y="36.0" text-anchor="middle" font-family="Arial" font-size="9" fill="#666">7</text><text x="340.0" y="440.0" text-anchor="middle" font-family="Arial" font-size="9" fill="#666">7</text><line x1="361.0" y1="46.0" x2="361.0" y2="42.0" stroke="#888" stroke-width="1"/><line x1="361.0" y1="424.0" x2="361.0" y2="428.0" stroke="#888" stroke-width="1"/><line x1="382.0" y1="46.0" x2="382.0" y2="38.0" stroke="#888" stroke-width="1"/><line x1="382.0" y1="424.0" x2="382.0" y2="432.0" stroke="#888" stroke-width="1"/><text x="382.0" y="36.0" text-anchor="middle" font-family="Arial" font-size="9" fill="#666">8</text><text x="382.0" y="440.0" text-anchor="middle" font-family="Arial" font-size="9" fill="#666">8</text><line x1="403.0" y1="46.0" x2="403.0" y2="42.0" stroke="#888" stroke-width="1"/><line x1="403.0" y1="424.0" x2="403.0" y2="428.0" stroke="#888" stroke-width="1"/><line x1="424.0" y1="46.0" x2="424.0" y2="38.0" stroke="#888" stroke-width="1"/><line x1="424.0" y1="424.0" x2="424.0" y2="432.0" stroke="#888" stroke-width="1"/><text x="424.0" y="36.0" text-anchor="middle" font-family="Arial" font-size="9" fill="#666">9</text><text x="424.0" y="440.0" text-anchor="middle" font-family="Arial" font-size="9" fill="#666">9</text><line x1="445.0" y1="46.0" x2="445.0" y2="42.0" stroke="#888" stroke-width="1"/><line x1="445.0" y1="424.0" x2="445.0" y2="428.0" stroke="#888" stroke-width="1"/><line x1="466.0" y1="46.0" x2="466.0" y2="38.0" stroke="#888" stroke-width="1"/><line x1="466.0" y1="424.0" x2="466.0" y2="432.0" stroke="#888" stroke-width="1"/><text x="466.0" y="36.0" text-anchor="middle" font-family="Arial" font-size="9" fill="#666">10</text><text x="466.0" y="440.0" text-anchor="middle" font-family="Arial" font-size="9" fill="#666">10</text><line x1="487.0" y1="46.0" x2="487.0" y2="42.0" stroke="#888" stroke-width="1"/><line x1="487.0" y1="424.0" x2="487.0" y2="428.0" stroke="#888" stroke-width="1"/><line x1="508.0" y1="46.0" x2="508.0" y2="38.0" stroke="#888" stroke-width="1"/><line x1="508.0" y1="424.0" x2="508.0" y2="432.0" stroke="#888" stroke-width="1"/><text x="508.0" y="36.0" text-anchor="middle" font-family="Arial" font-size="9" fill="#666">11</text><text x="508.0" y="440.0" text-anchor="middle" font-family="Arial" font-size="9" fill="#666">11</text><line x1="46.0" y1="424.0" x2="38.0" y2="424.0" stroke="#888" stroke-width="1"/><line x1="508.0" y1="424.0" x2="516.0" y2="424.0" stroke="#888" stroke-width="1"/><text x="36.0" y="427.0" text-anchor="end" font-family="Arial" font-size="9" fill="#666">0</text><text x="518.0" y="427.0" text-anchor="start" font-family="Arial" font-size="9" fill="#666">0</text><line x1="46.0" y1="403.0" x2="42.0" y2="403.0" stroke="#888" stroke-width="1"/><line x1="508.0" y1="403.0" x2="512.0" y2="403.0" stroke="#888" stroke-width="1"/><line x1="46.0" y1="382.0" x2="38.0" y2="382.0" stroke="#888" stroke-width="1"/><line x1="508.0" y1="382.0" x2="516.0" y2="382.0" stroke="#888" stroke-width="1"/><text x="36.0" y="385.0" text-anchor="end" font-family="Arial" font-size="9" fill="#666">1</text><text x="518.0" y="385.0" text-anchor="start" font-family="Arial" font-size="9" fill="#666">1</text><line x1="46.0" y1="361.0" x2="42.0" y2="361.0" stroke="#888" stroke-width="1"/><line x1="508.0" y1="361.0" x2="512.0" y2="361.0" stroke="#888" stroke-width="1"/><line x1="46.0" y1="340.0" x2="38.0" y2="340.0" stroke="#888" stroke-width="1"/><line x1="508.0" y1="340.0" x2="516.0" y2="340.0" stroke="#888" stroke-width="1"/><text x="36.0" y="343.0" text-anchor="end" font-family="Arial" font-size="9" fill="#666">2</text><text x="518.0" y="343.0" text-anchor="start" font-family="Arial" font-size="9" fill="#666">2</text><line x1="46.0" y1="319.0" x2="42.0" y2="319.0" stroke="#888" stroke-width="1"/><line x1="508.0" y1="319.0" x2="512.0" y2="319.0" stroke="#888" stroke-width="1"/><line x1="46.0" y1="298.0" x2="38.0" y2="298.0" stroke="#888" stroke-width="1"/><line x1="508.0" y1="298.0" x2="516.0" y2="298.0" stroke="#888" stroke-width="1"/><text x="36.0" y="301.0" text-anchor="end" font-family="Arial" font-size="9" fill="#666">3</text><text x="518.0" y="301.0" text-anchor="start" font-family="Arial" font-size="9" fill="#666">3</text><line x1="46.0" y1="277.0" x2="42.0" y2="277.0" stroke="#888" stroke-width="1"/><line x1="508.0" y1="277.0" x2="512.0" y2="277.0" stroke="#888" stroke-width="1"/><line x1="46.0" y1="256.0" x2="38.0" y2="256.0" stroke="#888" stroke-width="1"/><line x1="508.0" y1="256.0" x2="516.0" y2="256.0" stroke="#888" stroke-width="1"/><text x="36.0" y="259.0" text-anchor="end" font-family="Arial" font-size="9" fill="#666">4</text><text x="518.0" y="259.0" text-anchor="start" font-family="Arial" font-size="9" fill="#666">4</text><line x1="46.0" y1="235.0" x2="42.0" y2="235.0" stroke="#888" stroke-width="1"/><line x1="508.0" y1="235.0" x2="512.0" y2="235.0" stroke="#888" stroke-width="1"/><line x1="46.0" y1="214.0" x2="38.0" y2="214.0" stroke="#888" stroke-width="1"/><line x1="508.0" y1="214.0" x2="516.0" y2="214.0" stroke="#888" stroke-width="1"/><text x="36.0" y="217.0" text-anchor="end" font-family="Arial" font-size="9" fill="#666">5</text><text x="518.0" y="217.0" text-anchor="start" font-family="Arial" font-size="9" fill="#666">5</text><line x1="46.0" y1="193.0" x2="42.0" y2="193.0" stroke="#888" stroke-width="1"/><line x1="508.0" y1="193.0" x2="512.0" y2="193.0" stroke="#888" stroke-width="1"/><line x1="46.0" y1="172.0" x2="38.0" y2="172.0" stroke="#888" stroke-width="1"/><line x1="508.0" y1="172.0" x2="516.0" y2="172.0" stroke="#888" stroke-width="1"/><text x="36.0" y="175.0" text-anchor="end" font-family="Arial" font-size="9" fill="#666">6</text><text x="518.0" y="175.0" text-anchor="start" font-family="Arial" font-size="9" fill="#666">6</text><line x1="46.0" y1="151.0" x2="42.0" y2="151.0" stroke="#888" stroke-width="1"/><line x1="508.0" y1="151.0" x2="512.0" y2="151.0" stroke="#888" stroke-width="1"/><line x1="46.0" y1="130.0" x2="38.0" y2="130.0" stroke="#888" stroke-width="1"/><line x1="508.0" y1="130.0" x2="516.0" y2="130.0" stroke="#888" stroke-width="1"/><text x="36.0" y="133.0" text-anchor="end" font-family="Arial" font-size="9" fill="#666">7</text><text x="518.0" y="133.0" text-anchor="start" font-family="Arial" font-size="9" fill="#666">7</text><line x1="46.0" y1="109.0" x2="42.0" y2="109.0" stroke="#888" stroke-width="1"/><line x1="508.0" y1="109.0" x2="512.0" y2="109.0" stroke="#888" stroke-width="1"/><line x1="46.0" y1="88.0" x2="38.0" y2="88.0" stroke="#888" stroke-width="1"/><line x1="508.0" y1="88.0" x2="516.0" y2="88.0" stroke="#888" stroke-width="1"/><text x="36.0" y="91.0" text-anchor="end" font-family="Arial" font-size="9" fill="#666">8</text><text x="518.0" y="91.0" text-anchor="start" font-family="Arial" font-size="9" fill="#666">8</text><line x1="46.0" y1="67.0" x2="42.0" y2="67.0" stroke="#888" stroke-width="1"/><line x1="508.0" y1="67.0" x2="512.0" y2="67.0" stroke="#888" stroke-width="1"/><line x1="46.0" y1="46.0" x2="38.0" y2="46.0" stroke="#888" stroke-width="1"/><line x1="508.0" y1="46.0" x2="516.0" y2="46.0" stroke="#888" stroke-width="1"/><text x="36.0" y="49.0" text-anchor="end" font-family="Arial" font-size="9" fill="#666">9</text><text x="518.0" y="49.0" text-anchor="start" font-family="Arial" font-size="9" fill="#666">9</text><rect x="130.0" y="130.0" width="294.0" height="210.0" fill="none" stroke="#9aa" stroke-width="1" stroke-dasharray="3 3"/><rect x="320.3" y="341.3" width="102.5" height="60.5" fill="#f2f2f2" stroke="#333" stroke-width="1.5" stroke-dasharray="6 4"/><text x="371.5" y="368.9" text-anchor="middle" font-family="Arial" font-size="12" font-weight="bold" fill="#222">PORCH</text><text x="371.5" y="384.7" text-anchor="middle" font-family="Arial" font-size="10" fill="#555">2.5×1.5 m</text><rect x="130.0" y="245.5" width="189.0" height="94.5" fill="#d9ead3" stroke="#333" stroke-width="1.5"/><text x="224.5" y="290.1" text-anchor="middle" font-family="Arial" font-size="12" font-weight="bold" fill="#222">MASTER BR</text><text x="224.5" y="305.9" text-anchor="middle" font-family="Arial" font-size="10" fill="#555">4.5×2.2 m · 10.1 sqm</text><rect x="130.0" y="130.0" width="105.0" height="115.5" fill="#d9ead3" stroke="#333" stroke-width="1.5"/><text x="182.5" y="179.3" text-anchor="middle" font-family="Arial" font-size="12" font-weight="bold" fill="#222">BEDROOM</text><text x="182.5" y="195.2" text-anchor="middle" font-family="Arial" font-size="10" fill="#555">2.5×2.8 m</text><text x="182.5" y="206.7" text-anchor="middle" font-family="Arial" font-size="10" fill="#555">6.9 sqm</text><rect x="235.0" y="130.0" width="84.0" height="63.0" fill="#ead1dc" stroke="#333" stroke-width="1.5"/><text x="277.0" y="153.1" text-anchor="middle" font-family="Arial" font-size="12" font-weight="bold" fill="#222">T&amp;B</text><text x="277.0" y="168.9" text-anchor="middle" font-family="Arial" font-size="10" fill="#555">2.0×1.5 m</text><text x="277.0" y="180.4" text-anchor="middle" font-family="Arial" font-size="10" fill="#555">3.0 sqm</text><rect x="235.0" y="193.0" width="84.0" height="52.5" fill="#efefef" stroke="#333" stroke-width="1.5"/><text x="277.0" y="210.8" text-anchor="middle" font-family="Arial" font-size="12" font-weight="bold" fill="#222">HALL</text><text x="277.0" y="226.7" text-anchor="middle" font-family="Arial" font-size="10" fill="#555">2.0×1.2 m</text><text x="277.0" y="238.2" text-anchor="middle" font-family="Arial" font-size="10" fill="#555">2.5 sqm</text><rect x="319.0" y="205.6" width="105.0" height="134.4" fill="#cfe2f3" stroke="#333" stroke-width="1.5"/><text x="371.5" y="264.4" text-anchor="middle" font-family="Arial" font-size="12" font-weight="bold" fill="#222">GREAT ROOM</text><text x="371.5" y="280.2" text-anchor="middle" font-family="Arial" font-size="10" fill="#555">2.5×3.2 m</text><text x="371.5" y="291.7" text-anchor="middle" font-family="Arial" font-size="10" fill="#555">8.0 sqm</text><rect x="319.0" y="130.0" width="105.0" height="75.6" fill="#cfe2f3" stroke="#333" stroke-width="1.5"/><text x="371.5" y="159.4" text-anchor="middle" font-family="Arial" font-size="12" font-weight="bold" fill="#222">KITCHEN</text><text x="371.5" y="175.2" text-anchor="middle" font-family="Arial" font-size="10" fill="#555">2.5×1.8 m</text><text x="371.5" y="186.7" text-anchor="middle" font-family="Arial" font-size="10" fill="#555">4.5 sqm</text><text x="277.0" y="458.0" text-anchor="middle" font-family="Arial" font-size="12" font-weight="bold" fill="#888">FRONT (street)</text><rect x="130.00" y="243.40" width="105.00" height="4.20" fill="#555" stroke="none"/><rect x="235.00" y="243.40" width="84.00" height="4.20" fill="#555" stroke="none"/><rect x="316.90" y="245.50" width="4.20" height="94.50" fill="#555" stroke="none"/><rect x="232.90" y="130.00" width="4.20" height="63.00" fill="#555" stroke="none"/><rect x="232.90" y="193.00" width="4.20" height="52.50" fill="#555" stroke="none"/><rect x="235.00" y="190.90" width="84.00" height="4.20" fill="#555" stroke="none"/><rect x="316.90" y="130.00" width="4.20" height="63.00" fill="#555" stroke="none"/><rect x="316.90" y="193.00" width="4.20" height="12.60" fill="#555" stroke="none"/><rect x="130.00" y="335.80" width="189.00" height="8.40" fill="#555" stroke="none"/><rect x="125.80" y="245.50" width="8.40" height="94.50" fill="#555" stroke="none"/><rect x="130.00" y="125.80" width="105.00" height="8.40" fill="#555" stroke="none"/><rect x="125.80" y="130.00" width="8.40" height="115.50" fill="#555" stroke="none"/><rect x="235.00" y="125.80" width="84.00" height="8.40" fill="#555" stroke="none"/><rect x="319.00" y="335.80" width="105.00" height="8.40" fill="#555" stroke="none"/><rect x="419.80" y="205.60" width="8.40" height="134.40" fill="#555" stroke="none"/><rect x="319.00" y="125.80" width="105.00" height="8.40" fill="#555" stroke="none"/><rect x="419.80" y="130.00" width="8.40" height="75.60" fill="#555" stroke="none"/><rect x="125.80" y="241.30" width="8.40" height="8.40" fill="#555" stroke="none"/><rect x="232.90" y="243.40" width="4.20" height="4.20" fill="#555" stroke="none"/><rect x="232.90" y="243.40" width="4.20" height="4.20" fill="#555" stroke="none"/><rect x="314.80" y="335.80" width="8.40" height="8.40" fill="#555" stroke="none"/><rect x="232.90" y="190.90" width="4.20" height="4.20" fill="#555" stroke="none"/><rect x="230.80" y="125.80" width="8.40" height="8.40" fill="#555" stroke="none"/><rect x="232.90" y="243.40" width="4.20" height="4.20" fill="#555" stroke="none"/><rect x="232.90" y="190.90" width="4.20" height="4.20" fill="#555" stroke="none"/><rect x="232.90" y="190.90" width="4.20" height="4.20" fill="#555" stroke="none"/><rect x="316.90" y="190.90" width="4.20" height="4.20" fill="#555" stroke="none"/><rect x="316.90" y="190.90" width="4.20" height="4.20" fill="#555" stroke="none"/><rect x="314.80" y="125.80" width="8.40" height="8.40" fill="#555" stroke="none"/><rect x="316.90" y="190.90" width="4.20" height="4.20" fill="#555" stroke="none"/><rect x="125.80" y="335.80" width="8.40" height="8.40" fill="#555" stroke="none"/><rect x="314.80" y="335.80" width="8.40" height="8.40" fill="#555" stroke="none"/><rect x="125.80" y="335.80" width="8.40" height="8.40" fill="#555" stroke="none"/><rect x="125.80" y="241.30" width="8.40" height="8.40" fill="#555" stroke="none"/><rect x="125.80" y="125.80" width="8.40" height="8.40" fill="#555" stroke="none"/><rect x="230.80" y="125.80" width="8.40" height="8.40" fill="#555" stroke="none"/><rect x="125.80" y="241.30" width="8.40" height="8.40" fill="#555" stroke="none"/><rect x="125.80" y="125.80" width="8.40" height="8.40" fill="#555" stroke="none"/><rect x="230.80" y="125.80" width="8.40" height="8.40" fill="#555" stroke="none"/><rect x="314.80" y="125.80" width="8.40" height="8.40" fill="#555" stroke="none"/><rect x="314.80" y="335.80" width="8.40" height="8.40" fill="#555" stroke="none"/><rect x="419.80" y="335.80" width="8.40" height="8.40" fill="#555" stroke="none"/><rect x="419.80" y="335.80" width="8.40" height="8.40" fill="#555" stroke="none"/><rect x="314.80" y="125.80" width="8.40" height="8.40" fill="#555" stroke="none"/><rect x="419.80" y="125.80" width="8.40" height="8.40" fill="#555" stroke="none"/><rect x="419.80" y="125.80" width="8.40" height="8.40" fill="#555" stroke="none"/><rect x="314.0" y="205.6" width="5.0" height="37.8" fill="#efefef" stroke="none"/><rect x="319.0" y="205.6" width="5.0" height="37.8" fill="#cfe2f3" stroke="none"/><rect x="319.0" y="205.6" width="102.9" height="5.0" fill="#cfe2f3" stroke="none"/><rect x="319.0" y="200.6" width="102.9" height="5.0" fill="#cfe2f3" stroke="none"/><rect x="241.3" y="188.0" width="29.4" height="5.0" fill="#ead1dc" stroke="none"/><rect x="241.3" y="193.0" width="29.4" height="5.0" fill="#efefef" stroke="none"/><line x1="241.3" y1="193.0" x2="241.3" y2="163.6" stroke="#444" stroke-width="1.4"/><path d="M 241.3 163.6 A 29.4 29.4 0 0 1 270.7 193.0" fill="none" stroke="#999" stroke-width="0.7" stroke-dasharray="2 2"/><rect x="279.1" y="245.5" width="33.6" height="5.0" fill="#d9ead3" stroke="none"/><rect x="279.1" y="240.5" width="33.6" height="5.0" fill="#efefef" stroke="none"/><line x1="312.7" y1="245.5" x2="312.7" y2="279.1" stroke="#444" stroke-width="1.4"/><path d="M 312.7 279.1 A 33.6 33.6 0 0 1 279.1 245.5" fill="none" stroke="#999" stroke-width="0.7" stroke-dasharray="2 2"/><rect x="230.0" y="205.6" width="5.0" height="33.6" fill="#d9ead3" stroke="none"/><rect x="235.0" y="205.6" width="5.0" height="33.6" fill="#efefef" stroke="none"/><line x1="235.0" y1="239.2" x2="201.4" y2="239.2" stroke="#444" stroke-width="1.4"/><path d="M 201.4 239.2 A 33.6 33.6 0 0 1 235.0 205.6" fill="none" stroke="#999" stroke-width="0.7" stroke-dasharray="2 2"/><rect x="325.3" y="335.0" width="37.8" height="5.0" fill="#cfe2f3" stroke="none"/><rect x="325.3" y="340.0" width="37.8" height="5.0" fill="#fbfbf7" stroke="none"/><line x1="325.3" y1="340.0" x2="325.3" y2="302.2" stroke="#444" stroke-width="1.4"/><path d="M 325.3 302.2 A 37.8 37.8 0 0 1 363.1 340.0" fill="none" stroke="#999" stroke-width="0.7" stroke-dasharray="2 2"/><rect x="325.3" y="130.0" width="33.6" height="5.0" fill="#cfe2f3" stroke="none"/><rect x="325.3" y="125.0" width="33.6" height="5.0" fill="#fbfbf7" stroke="none"/><line x1="325.3" y1="130.0" x2="325.3" y2="163.6" stroke="#444" stroke-width="1.4"/><path d="M 325.3 163.6 A 33.6 33.6 0 0 0 358.9 130.0" fill="none" stroke="#999" stroke-width="0.7" stroke-dasharray="2 2"/><rect x="174.1" y="335.0" width="100.8" height="5.0" fill="#d9ead3" stroke="none"/><rect x="174.1" y="340.0" width="100.8" height="5.0" fill="#fbfbf7" stroke="none"/><line x1="174.1" y1="337.0" x2="274.9" y2="337.0" stroke="#222" stroke-width="1.0"/><line x1="174.1" y1="340.0" x2="274.9" y2="340.0" stroke="#222" stroke-width="1.0"/><line x1="174.1" y1="343.0" x2="274.9" y2="343.0" stroke="#222" stroke-width="1.0"/><rect x="130.0" y="266.8" width="5.0" height="52.0" fill="#d9ead3" stroke="none"/><rect x="125.0" y="266.8" width="5.0" height="52.0" fill="#fbfbf7" stroke="none"/><line x1="127.0" y1="318.7" x2="127.0" y2="266.8" stroke="#222" stroke-width="1.0"/><line x1="130.0" y1="318.7" x2="130.0" y2="266.8" stroke="#222" stroke-width="1.0"/><line x1="133.0" y1="318.7" x2="133.0" y2="266.8" stroke="#222" stroke-width="1.0"/><rect x="130.0" y="156.0" width="5.0" height="63.5" fill="#d9ead3" stroke="none"/><rect x="125.0" y="156.0" width="5.0" height="63.5" fill="#fbfbf7" stroke="none"/><line x1="127.0" y1="219.5" x2="127.0" y2="156.0" stroke="#222" stroke-width="1.0"/><line x1="130.0" y1="219.5" x2="130.0" y2="156.0" stroke="#222" stroke-width="1.0"/><line x1="133.0" y1="219.5" x2="133.0" y2="156.0" stroke="#222" stroke-width="1.0"/><rect x="153.6" y="130.0" width="57.8" height="5.0" fill="#d9ead3" stroke="none"/><rect x="153.6" y="125.0" width="57.8" height="5.0" fill="#fbfbf7" stroke="none"/><line x1="153.6" y1="127.0" x2="211.4" y2="127.0" stroke="#222" stroke-width="1.0"/><line x1="153.6" y1="130.0" x2="211.4" y2="130.0" stroke="#222" stroke-width="1.0"/><line x1="153.6" y1="133.0" x2="211.4" y2="133.0" stroke="#222" stroke-width="1.0"/><rect x="258.1" y="130.0" width="37.8" height="5.0" fill="#ead1dc" stroke="none"/><rect x="258.1" y="125.0" width="37.8" height="5.0" fill="#fbfbf7" stroke="none"/><line x1="258.1" y1="127.0" x2="295.9" y2="127.0" stroke="#222" stroke-width="1.0"/><line x1="258.1" y1="130.0" x2="295.9" y2="130.0" stroke="#222" stroke-width="1.0"/><line x1="258.1" y1="133.0" x2="295.9" y2="133.0" stroke="#222" stroke-width="1.0"/><rect x="419.0" y="235.8" width="5.0" height="73.9" fill="#cfe2f3" stroke="none"/><rect x="424.0" y="235.8" width="5.0" height="73.9" fill="#fbfbf7" stroke="none"/><line x1="421.0" y1="309.8" x2="421.0" y2="235.8" stroke="#222" stroke-width="1.0"/><line x1="424.0" y1="309.8" x2="424.0" y2="235.8" stroke="#222" stroke-width="1.0"/><line x1="427.0" y1="309.8" x2="427.0" y2="235.8" stroke="#222" stroke-width="1.0"/><rect x="380.9" y="335.0" width="37.8" height="5.0" fill="#cfe2f3" stroke="none"/><rect x="380.9" y="340.0" width="37.8" height="5.0" fill="#fbfbf7" stroke="none"/><line x1="380.9" y1="337.0" x2="418.8" y2="337.0" stroke="#222" stroke-width="1.0"/><line x1="380.9" y1="340.0" x2="418.8" y2="340.0" stroke="#222" stroke-width="1.0"/><line x1="380.9" y1="343.0" x2="418.8" y2="343.0" stroke="#222" stroke-width="1.0"/><rect x="419.0" y="147.0" width="5.0" height="41.6" fill="#cfe2f3" stroke="none"/><rect x="424.0" y="147.0" width="5.0" height="41.6" fill="#fbfbf7" stroke="none"/><line x1="421.0" y1="188.6" x2="421.0" y2="147.0" stroke="#222" stroke-width="1.0"/><line x1="424.0" y1="188.6" x2="424.0" y2="147.0" stroke="#222" stroke-width="1.0"/><line x1="427.0" y1="188.6" x2="427.0" y2="147.0" stroke="#222" stroke-width="1.0"/><rect x="378.8" y="130.0" width="37.8" height="5.0" fill="#cfe2f3" stroke="none"/><rect x="378.8" y="125.0" width="37.8" height="5.0" fill="#fbfbf7" stroke="none"/><line x1="378.8" y1="127.0" x2="416.6" y2="127.0" stroke="#222" stroke-width="1.0"/><line x1="378.8" y1="130.0" x2="416.6" y2="130.0" stroke="#222" stroke-width="1.0"/><line x1="378.8" y1="133.0" x2="416.6" y2="133.0" stroke="#222" stroke-width="1.0"/></svg>