<svg xmlns="http://www.w3.org/2000/svg" width="680" height="554" viewBox="0 0 680 554"><rect x="0" y="0" width="680" height="554" fill="white"/><rect x="46.0" y="46.0" width="588.0" height="462.0" fill="#fbfbf7" stroke="#333" stroke-width="1.5"/><line x1="46.0" y1="46.0" x2="46.0" y2="38.0" stroke="#888" stroke-width="1"/><line x1="46.0" y1="508.0" x2="46.0" y2="516.0" stroke="#888" stroke-width="1"/><text x="46.0" y="36.0" text-anchor="middle" font-family="Arial" font-size="9" fill="#666">0</text><text x="46.0" y="524.0" text-anchor="middle" font-family="Arial" font-size="9" fill="#666">0</text><line x1="67.0" y1="46.0" x2="67.0" y2="42.0" stroke="#888" stroke-width="1"/><line x1="67.0" y1="508.0" x2="67.0" y2="512.0" stroke="#888" stroke-width="1"/><line x1="88.0" y1="46.0" x2="88.0" y2="38.0" stroke="#888" stroke-width="1"/><line x1="88.0" y1="508.0" x2="88.0" y2="516.0" stroke="#888" stroke-width="1"/><text x="88.0" y="36.0" text-anchor="middle" font-family="Arial" font-size="9" fill="#666">1</text><text x="88.0" y="524.0" text-anchor="middle" font-family="Arial" font-size="9" fill="#666">1</text><line x1="109.0" y1="46.0" x2="109.0" y2="42.0" stroke="#888" stroke-width="1"/><line x1="109.0" y1="508.0" x2="109.0" y2="512.0" stroke="#888" stroke-width="1"/><line x1="130.0" y1="46.0" x2="130.0" y2="38.0" stroke="#888" stroke-width="1"/><line x1="130.0" y1="508.0" x2="130.0" y2="516.0" stroke="#888" stroke-width="1"/><text x="130.0" y="36.0" text-anchor="middle" font-family="Arial" font-size="9" fill="#666">2</text><text x="130.0" y="524.0" text-anchor="middle" font-family="Arial" font-size="9" fill="#666">2</text><line x1="151.0" y1="46.0" x2="151.0" y2="42.0" stroke="#888" stroke-width="1"/><line x1="151.0" y1="508.0" x2="151.0" y2="512.0" stroke="#888" stroke-width="1"/><line x1="172.0" y1="46.0" x2="172.0" y2="38.0" stroke="#888" stroke-width="1"/><line x1="172.0" y1="508.0" x2="172.0" y2="516.0" stroke="#888" stroke-width="1"/><text x="172.0" y="36.0" text-anchor="middle" font-family="Arial" font-size="9" fill="#666">3</text><text x="172.0" y="524.0" text-anchor="middle" font-family="Arial" font-size="9" fill="#666">3</text><line x1="193.0" y1="46.0" x2="193.0" y2="42.0" stroke="#888" stroke-width="1"/><line x1="193.0" y1="508.0" x2="193.0" y2="512.0" stroke="#888" stroke-width="1"/><line x1="214.0" y1="46.0" x2="214.0" y2="38.0" stroke="#888" stroke-width="1"/><line x1="214.0" y1="508.0" x2="214.0" y2="516.0" stroke="#888" stroke-width="1"/><text x="214.0" y="36.0" text-anchor="middle" font-family="Arial" font-size="9" fill="#666">4</text><text x="214.0" y="524.0" text-anchor="middle" font-family="Arial" font-size="9" fill="#666">4</text><line x1="235.0" y1="46.0" x2="235.0" y2="42.0" stroke="#888" stroke-width="1"/><line x1="235.0" y1="508.0" x2="235.0" y2="512.0" stroke="#888" stroke-width="1"/><line x1="256.0" y1="46.0" x2="256.0" y2="38.0" stroke="#888" stroke-width="1"/><line x1="256.0" y1="508.0" x2="256.0" y2="516.0" stroke="#888" stroke-width="1"/><text x="256.0" y="36.0" text-anchor="middle" font-family="Arial" font-size="9" fill="#666">5</text><text x="256.0" y="524.0" text-anchor="middle" font-family="Arial" font-size="9" fill="#666">5</text><line x1="277.0" y1="46.0" x2="277.0" y2="42.0" stroke="#888" stroke-width="1"/><line x1="277.0" y1="508.0" x2="277.0" y2="512.0" stroke="#888" stroke-width="1"/><line x1="298.0" y1="46.0" x2="298.0" y2="38.0" stroke="#888" stroke-width="1"/><line x1="298.0" y1="508.0" x2="298.0" y2="516.0" stroke="#888" stroke-width="1"/><text x="298.0" y="36.0" text-anchor="middle" font-family="Arial" font-size="9" fill="#666">6</text><text x="298.0" y="524.0" text-anchor="middle" font-family="Arial" font-size="9" fill="#666">6</text><line x1="319.0" y1="46.0" x2="319.0" y2="42.0" stroke="#888" stroke-width="1"/><line x1="319.0" y1="508.0" x2="319.0" y2="512.0" stroke="#888" stroke-width="1"/><line x1="340.0" y1="46.0" x2="340.0" y2="38.0" stroke="#888" stroke-width="1"/><line x1="340.0" y1="508.0" x2="340.0" y2="516.0" stroke="#888" stroke-width="1"/><text x="340.0" y="36.0" text-anchor="middle" font-family="Arial" font-size="9" fill="#666">7</text><text x="340.0" y="524.0" text-anchor="middle" font-family="Arial" font-size="9" fill="#666">7</text><line x1="361.0" y1="46.0" x2="361.0" y2="42.0" stroke="#888" stroke-width="1"/><line x1="361.0" y1="508.0" x2="361.0" y2="512.0" stroke="#888" stroke-width="1"/><line x1="382.0" y1="46.0" x2="382.0" y2="38.0" stroke="#888" stroke-width="1"/><line x1="382.0" y1="508.0" x2="382.0" y2="516.0" stroke="#888" stroke-width="1"/><text x="382.0" y="36.0" text-anchor="middle" font-family="Arial" font-size="9" fill="#666">8</text><text x="382.0" y="524.0" text-anchor="middle" font-family="Arial" font-size="9" fill="#666">8</text><line x1="403.0" y1="46.0" x2="403.0" y2="42.0" stroke="#888" stroke-width="1"/><line x1="403.0" y1="508.0" x2="403.0" y2="512.0" stroke="#888" stroke-width="1"/><line x1="424.0" y1="46.0" x2="424.0" y2="38.0" stroke="#888" stroke-width="1"/><line x1="424.0" y1="508.0" x2="424.0" y2="516.0" stroke="#888" stroke-width="1"/><text x="424.0" y="36.0" text-anchor="middle" font-family="Arial" font-size="9" fill="#666">9</text><text x="424.0" y="524.0" text-anchor="middle" font-family="Arial" font-size="9" fill="#666">9</text><line x1="445.0" y1="46.0" x2="445.0" y2="42.0" stroke="#888" stroke-width="1"/><line x1="445.0" y1="508.0" x2="445.0" y2="512.0" stroke="#888" stroke-width="1"/><line x1="466.0" y1="46.0" x2="466.0" y2="38.0" stroke="#888" stroke-width="1"/><line x1="466.0" y1="508.0" x2="466.0" y2="516.0" stroke="#888" stroke-width="1"/><text x="466.0" y="36.0" text-anchor="middle" font-family="Arial" font-size="9" fill="#666">10</text><text x="466.0" y="524.0" text-anchor="middle" font-family="Arial" font-size="9" fill="#666">10</text><line x1="487.0" y1="46.0" x2="487.0" y2="42.0" stroke="#888" stroke-width="1"/><line x1="487.0" y1="508.0" x2="487.0" y2="512.0" stroke="#888" stroke-width="1"/><line x1="508.0" y1="46.0" x2="508.0" y2="38.0" stroke="#888" stroke-width="1"/><line x1="508.0" y1="508.0" x2="508.0" y2="516.0" stroke="#888" stroke-width="1"/><text x="508.0" y="36.0" text-anchor="middle" font-family="Arial" font-size="9" fill="#666">11</text><text x="508.0" y="524.0" text-anchor="middle" font-family="Arial" font-size="9" fill="#666">11</text><line x1="529.0" y1="46.0" x2="529.0" y2="42.0" stroke="#888" stroke-width="1"/><line x1="529.0" y1="508.0" x2="529.0" y2="512.0" stroke="#888" stroke-width="1"/><line x1="550.0" y1="46.0" x2="550.0" y2="38.0" stroke="#888" stroke-width="1"/><line x1="550.0" y1="508.0" x2="550.0" y2="516.0" stroke="#888" stroke-width="1"/><text x="550.0" y="36.0" text-anchor="middle" font-family="Arial" font-size="9" fill="#666">12</text><text x="550.0" y="524.0" text-anchor="middle" font-family="Arial" font-size="9" fill="#666">12</text><line x1="571.0" y1="46.0" x2="571.0" y2="42.0" stroke="#888" stroke-width="1"/><line x1="571.0" y1="508.0" x2="571.0" y2="512.0" stroke="#888" stroke-width="1"/><line x1="592.0" y1="46.0" x2="592.0" y2="38.0" stroke="#888" stroke-width="1"/><line x1="592.0" y1="508.0" x2="592.0" y2="516.0" stroke="#888" stroke-width="1"/><text x="592.0" y="36.0" text-anchor="middle" font-family="Arial" font-size="9" fill="#666">13</text><text x="592.0" y="524.0" text-anchor="middle" font-family="Arial" font-size="9" fill="#666">13</text><line x1="613.0" y1="46.0" x2="613.0" y2="42.0" stroke="#888" stroke-width="1"/><line x1="613.0" y1="508.0" x2="613.0" y2="512.0" stroke="#888" stroke-width="1"/><line x1="634.0" y1="46.0" x2="634.0" y2="38.0" stroke="#888" stroke-width="1"/><line x1="634.0" y1="508.0" x2="634.0" y2="516.0" stroke="#888" stroke-width="1"/><text x="634.0" y="36.0" text-anchor="middle" font-family="Arial" font-size="9" fill="#666">14</text><text x="634.0" y="524.0" text-anchor="middle" font-family="Arial" font-size="9" fill="#666">14</text><line x1="46.0" y1="508.0" x2="38.0" y2="508.0" stroke="#888" stroke-width="1"/><line x1="634.0" y1="508.0" x2="642.0" y2="508.0" stroke="#888" stroke-width="1"/><text x="36.0" y="511.0" text-anchor="end" font-family="Arial" font-size="9" fill="#666">0</text><text x="644.0" y="511.0" text-anchor="start" font-family="Arial" font-size="9" fill="#666">0</text><line x1="46.0" y1="487.0" x2="42.0" y2="487.0" stroke="#888" stroke-width="1"/><line x1="634.0" y1="487.0" x2="638.0" y2="487.0" stroke="#888" stroke-width="1"/><line x1="46.0" y1="466.0" x2="38.0" y2="466.0" stroke="#888" stroke-width="1"/><line x1="634.0" y1="466.0" x2="642.0" y2="466.0" stroke="#888" stroke-width="1"/><text x="36.0" y="469.0" text-anchor="end" font-family="Arial" font-size="9" fill="#666">1</text><text x="644.0" y="469.0" text-anchor="start" font-family="Arial" font-size="9" fill="#666">1</text><line x1="46.0" y1="445.0" x2="42.0" y2="445.0" stroke="#888" stroke-width="1"/><line x1="634.0" y1="445.0" x2="638.0" y2="445.0" stroke="#888" stroke-width="1"/><line x1="46.0" y1="424.0" x2="38.0" y2="424.0" stroke="#888" stroke-width="1"/><line x1="634.0" y1="424.0" x2="642.0" y2="424.0" stroke="#888" stroke-width="1"/><text x="36.0" y="427.0" text-anchor="end" font-family="Arial" font-size="9" fill="#666">2</text><text x="644.0" y="427.0" text-anchor="start" font-family="Arial" font-size="9" fill="#666">2</text><line x1="46.0" y1="403.0" x2="42.0" y2="403.0" stroke="#888" stroke-width="1"/><line x1="634.0" y1="403.0" x2="638.0" y2="403.0" stroke="#888" stroke-width="1"/><line x1="46.0" y1="382.0" x2="38.0" y2="382.0" stroke="#888" stroke-width="1"/><line x1="634.0" y1="382.0" x2="642.0" y2="382.0" stroke="#888" stroke-width="1"/><text x="36.0" y="385.0" text-anchor="end" font-family="Arial" font-size="9" fill="#666">3</text><text x="644.0" y="385.0" text-anchor="start" font-family="Arial" font-size="9" fill="#666">3</text><line x1="46.0" y1="361.0" x2="42.0" y2="361.0" stroke="#888" stroke-width="1"/><line x1="634.0" y1="361.0" x2="638.0" y2="361.0" stroke="#888" stroke-width="1"/><line x1="46.0" y1="340.0" x2="38.0" y2="340.0" stroke="#888" stroke-width="1"/><line x1="634.0" y1="340.0" x2="642.0" y2="340.0" stroke="#888" stroke-width="1"/><text x="36.0" y="343.0" text-anchor="end" font-family="Arial" font-size="9" fill="#666">4</text><text x="644.0" y="343.0" text-anchor="start" font-family="Arial" font-size="9" fill="#666">4</text><line x1="46.0" y1="319.0" x2="42.0" y2="319.0" stroke="#888" stroke-width="1"/><line x1="634.0" y1="319.0" x2="638.0" y2="319.0" stroke="#888" stroke-width="1"/><line x1="46.0" y1="298.0" x2="38.0" y2="298.0" stroke="#888" stroke-width="1"/><line x1="634.0" y1="298.0" x2="642.0" y2="298.0" stroke="#888" stroke-width="1"/><text x="36.0" y="301.0" text-anchor="end" font-family="Arial" font-size="9" fill="#666">5</text><text x="644.0" y="301.0" text-anchor="start" font-family="Arial" font-size="9" fill="#666">5</text><line x1="46.0" y1="277.0" x2="42.0" y2="277.0" stroke="#888" stroke-width="1"/><line x1="634.0" y1="277.0" x2="638.0" y2="277.0" stroke="#888" stroke-width="1"/><line x1="46.0" y1="256.0" x2="38.0" y2="256.0" stroke="#888" stroke-width="1"/><line x1="634.0" y1="256.0" x2="642.0" y2="256.0" stroke="#888" stroke-width="1"/><text x="36.0" y="259.0" text-anchor="end" font-family="Arial" font-size="9" fill="#666">6</text><text x="644.0" y="259.0" text-anchor="start" font-family="Arial" font-size="9" fill="#666">6</text><line x1="46.0" y1="235.0" x2="42.0" y2="235.0" stroke="#888" stroke-width="1"/><line x1="634.0" y1="235.0" x2="638.0" y2="235.0" stroke="#888" stroke-width="1"/><line x1="46.0" y1="214.0" x2="38.0" y2="214.0" stroke="#888" stroke-width="1"/><line x1="634.0" y1="214.0" x2="642.0" y2="214.0" stroke="#888" stroke-width="1"/><text x="36.0" y="217.0" text-anchor="end" font-family="Arial" font-size="9" fill="#666">7</text><text x="644.0" y="217.0" text-anchor="start" font-family="Arial" font-size="9" fill="#666">7</text><line x1="46.0" y1="193.0" x2="42.0" y2="193.0" stroke="#888" stroke-width="1"/><line x1="634.0" y1="193.0" x2="638.0" y2="193.0" stroke="#888" stroke-width="1"/><line x1="46.0" y1="172.0" x2="38.0" y2="172.0" stroke="#888" stroke-width="1"/><line x1="634.0" y1="172.0" x2="642.0" y2="172.0" stroke="#888" stroke-width="1"/><text x="36.0" y="175.0" text-anchor="end" font-family="Arial" font-size="9" fill="#666">8</text><text x="644.0" y="175.0" text-anchor="start" font-family="Arial" font-size="9" fill="#666">8</text><line x1="46.0" y1="151.0" x2="42.0" y2="151.0" stroke="#888" stroke-width="1"/><line x1="634.0" y1="151.0" x2="638.0" y2="151.0" stroke="#888" stroke-width="1"/><line x1="46.0" y1="130.0" x2="38.0" y2="130.0" stroke="#888" stroke-width="1"/><line x1="634.0" y1="130.0" x2="642.0" y2="130.0" stroke="#888" stroke-width="1"/><text x="36.0" y="133.0" text-anchor="end" font-family="Arial" font-size="9" fill="#666">9</text><text x="644.0" y="133.0" text-anchor="start" font-family="Arial" font-size="9" fill="#666">9</text><line x1="46.0" y1="109.0" x2="42.0" y2="109.0" stroke="#888" stroke-width="1"/><line x1="634.0" y1="109.0" x2="638.0" y2="109.0" stroke="#888" stroke-width="1"/><line x1="46.0" y1="88.0" x2="38.0" y2="88.0" stroke="#888" stroke-width="1"/><line x1="634.0" y1="88.0" x2="642.0" y2="88.0" stroke="#888" stroke-width="1"/><text x="36.0" y="91.0" text-anchor="end" font-family="Arial" font-size="9" fill="#666">10</text><text x="644.0" y="91.0" text-anchor="start" font-family="Arial" font-size="9" fill="#666">10</text><line x1="46.0" y1="67.0" x2="42.0" y2="67.0" stroke="#888" stroke-width="1"/><line x1="634.0" y1="67.0" x2="638.0" y2="67.0" stroke="#888" stroke-width="1"/><line x1="46.0" y1="46.0" x2="38.0" y2="46.0" stroke="#888" stroke-width="1"/><line x1="634.0" y1="46.0" x2="642.0" y2="46.0" stroke="#888" stroke-width="1"/><text x="36.0" y="49.0" text-anchor="end" font-family="Arial" font-size="9" fill="#666">11</text><text x="644.0" y="49.0" text-anchor="start" font-family="Arial" font-size="9" fill="#666">11</text><rect x="130.0" y="130.0" width="420.0" height="294.0" fill="none" stroke="#9aa" stroke-width="1" stroke-dasharray="3 3"/><rect x="309.8" y="425.3" width="239.0" height="60.5" fill="#f2f2f2" stroke="#333" stroke-width="1.5" stroke-dasharray="6 4"/><text x="429.2" y="452.9" text-anchor="middle" font-family="Arial" font-size="12" font-weight="bold" fill="#222">PORCH</text><text x="429.2" y="468.7" text-anchor="middle" font-family="Arial" font-size="10" fill="#555">5.8×1.5 m</text><rect x="130.0" y="295.9" width="178.5" height="128.1" fill="#d9ead3" stroke="none"/><rect x="226.6" y="247.6" width="81.9" height="48.3" fill="#d9ead3" stroke="none"/><text x="219.2" y="357.3" text-anchor="middle" font-family="Arial" font-size="12" font-weight="bold" fill="#222">MASTER BR</text><text x="219.2" y="373.1" text-anchor="middle" font-family="Arial" font-size="10" fill="#555">15.2 sqm (L-shaped)</text><rect x="130.0" y="247.6" width="96.6" height="48.3" fill="#ead1dc" stroke="#333" stroke-width="1.5"/><text x="178.3" y="263.4" text-anchor="middle" font-family="Arial" font-size="12" font-weight="bold" fill="#222">ENSUITE</text><text x="178.3" y="279.1" text-anchor="middle" font-family="Arial" font-size="10" fill="#555">2.3×1.1 m</text><text x="178.3" y="290.6" text-anchor="middle" font-family="Arial" font-size="10" fill="#555">2.6 sqm</text><rect x="130.0" y="130.0" width="178.5" height="117.6" fill="#d9ead3" stroke="#333" stroke-width="1.5"/><text x="219.2" y="186.2" text-anchor="middle" font-family="Arial" font-size="12" font-weight="bold" fill="#222">BEDROOM</text><text x="219.2" y="202.0" text-anchor="middle" font-family="Arial" font-size="10" fill="#555">4.2×2.8 m · 11.9 sqm</text><rect x="308.5" y="130.0" width="71.4" height="75.6" fill="#ead1dc" stroke="#333" stroke-width="1.5"/><text x="344.2" y="159.4" text-anchor="middle" font-family="Arial" font-size="12" font-weight="bold" fill="#222">T&amp;B</text><text x="344.2" y="175.2" text-anchor="middle" font-family="Arial" font-size="10" fill="#555">1.7×1.8 m</text><text x="344.2" y="186.7" text-anchor="middle" font-family="Arial" font-size="10" fill="#555">3.1 sqm</text><rect x="308.5" y="205.6" width="241.5" height="218.4" fill="#cfe2f3" stroke="#333" stroke-width="1.5"/><text x="429.2" y="312.2" text-anchor="middle" font-family="Arial" font-size="12" font-weight="bold" fill="#222">GREAT ROOM</text><text x="429.2" y="328.0" text-anchor="middle" font-family="Arial" font-size="10" fill="#555">5.8×5.2 m · 29.9 sqm</text><rect x="379.9" y="130.0" width="170.1" height="75.6" fill="#cfe2f3" stroke="#333" stroke-width="1.5"/><text x="464.9" y="165.2" text-anchor="middle" font-family="Arial" font-size="12" font-weight="bold" fill="#222">KITCHEN</text><text x="464.9" y="181.0" text-anchor="middle" font-family="Arial" font-size="10" fill="#555">4.0×1.8 m · 7.3 sqm</text><text x="340.0" y="542.0" text-anchor="middle" font-family="Arial" font-size="12" font-weight="bold" fill="#888">FRONT (street)</text><rect x="130.00" y="293.80" width="96.60" height="4.20" fill="#555" stroke="none"/><rect x="306.40" y="295.90" width="4.20" height="128.10" fill="#555" stroke="none"/><rect x="224.50" y="247.60" width="4.20" height="48.30" fill="#555" stroke="none"/><rect x="226.60" y="245.50" width="81.90" height="4.20" fill="#555" stroke="none"/><rect x="306.40" y="247.60" width="4.20" height="48.30" fill="#555" stroke="none"/><rect x="130.00" y="245.50" width="96.60" height="4.20" fill="#555" stroke="none"/><rect x="306.40" y="130.00" width="4.20" height="75.60" fill="#555" stroke="none"/><rect x="306.40" y="205.60" width="4.20" height="42.00" fill="#555" stroke="none"/><rect x="308.50" y="203.50" width="71.40" height="4.20" fill="#555" stroke="none"/><rect x="377.80" y="130.00" width="4.20" height="75.60" fill="#555" stroke="none"/><rect x="130.00" y="419.80" width="178.50" height="8.40" fill="#555" stroke="none"/><rect x="125.80" y="295.90" width="8.40" height="128.10" fill="#555" stroke="none"/><rect x="125.80" y="247.60" width="8.40" height="48.30" fill="#555" stroke="none"/><rect x="130.00" y="125.80" width="178.50" height="8.40" fill="#555" stroke="none"/><rect x="125.80" y="130.00" width="8.40" height="117.60" fill="#555" stroke="none"/><rect x="308.50" y="125.80" width="71.40" height="8.40" fill="#555" stroke="none"/><rect x="308.50" y="419.80" width="241.50" height="8.40" fill="#555" stroke="none"/><rect x="545.80" y="205.60" width="8.40" height="218.40" fill="#555" stroke="none"/><rect x="379.90" y="125.80" width="170.10" height="8.40" fill="#555" stroke="none"/><rect x="545.80" y="130.00" width="8.40" height="75.60" fill="#555" stroke="none"/><rect x="125.80" y="291.70" width="8.40" height="8.40" fill="#555" stroke="none"/><rect x="224.50" y="293.80" width="4.20" height="4.20" fill="#555" stroke="none"/><rect x="304.30" y="419.80" width="8.40" height="8.40" fill="#555" stroke="none"/><rect x="224.50" y="293.80" width="4.20" height="4.20" fill="#555" stroke="none"/><rect x="224.50" y="245.50" width="4.20" height="4.20" fill="#555" stroke="none"/><rect x="224.50" y="245.50" width="4.20" height="4.20" fill="#555" stroke="none"/><rect x="306.40" y="245.50" width="4.20" height="4.20" fill="#555" stroke="none"/><rect x="306.40" y="245.50" width="4.20" height="4.20" fill="#555" stroke="none"/><rect x="125.80" y="243.40" width="8.40" height="8.40" fill="#555" stroke="none"/><rect x="224.50" y="245.50" width="4.20" height="4.20" fill="#555" stroke="none"/><rect x="306.40" y="203.50" width="4.20" height="4.20" fill="#555" stroke="none"/><rect x="304.30" y="125.80" width="8.40" height="8.40" fill="#555" stroke="none"/><rect x="306.40" y="245.50" width="4.20" height="4.20" fill="#555" stroke="none"/><rect x="306.40" y="203.50" width="4.20" height="4.20" fill="#555" stroke="none"/><rect x="306.40" y="203.50" width="4.20" height="4.20" fill="#555" stroke="none"/><rect x="375.70" y="125.80" width="8.40" height="8.40" fill="#555" stroke="none"/><rect x="125.80" y="419.80" width="8.40" height="8.40" fill="#555" stroke="none"/><rect x="304.30" y="419.80" width="8.40" height="8.40" fill="#555" stroke="none"/><rect x="125.80" y="419.80" width="8.40" height="8.40" fill="#555" stroke="none"/><rect x="125.80" y="291.70" width="8.40" height="8.40" fill="#555" stroke="none"/><rect x="125.80" y="291.70" width="8.40" height="8.40" fill="#555" stroke="none"/><rect x="125.80" y="243.40" width="8.40" height="8.40" fill="#555" stroke="none"/><rect x="125.80" y="125.80" width="8.40" height="8.40" fill="#555" stroke="none"/><rect x="304.30" y="125.80" width="8.40" height="8.40" fill="#555" stroke="none"/><rect x="125.80" y="243.40" width="8.40" height="8.40" fill="#555" stroke="none"/><rect x="125.80" y="125.80" width="8.40" height="8.40" fill="#555" stroke="none"/><rect x="304.30" y="125.80" width="8.40" height="8.40" fill="#555" stroke="none"/><rect x="375.70" y="125.80" width="8.40" height="8.40" fill="#555" stroke="none"/><rect x="304.30" y="419.80" width="8.40" height="8.40" fill="#555" stroke="none"/><rect x="545.80" y="419.80" width="8.40" height="8.40" fill="#555" stroke="none"/><rect x="545.80" y="419.80" width="8.40" height="8.40" fill="#555" stroke="none"/><rect x="375.70" y="125.80" width="8.40" height="8.40" fill="#555" stroke="none"/><rect x="545.80" y="125.80" width="8.40" height="8.40" fill="#555" stroke="none"/><rect x="545.80" y="125.80" width="8.40" height="8.40" fill="#555" stroke="none"/><rect x="382.0" y="205.6" width="165.9" height="5.0" fill="#cfe2f3" stroke="none"/><rect x="382.0" y="200.6" width="165.9" height="5.0" fill="#cfe2f3" stroke="none"/><rect x="136.3" y="295.9" width="29.4" height="5.0" fill="#d9ead3" stroke="none"/><rect x="136.3" y="290.9" width="29.4" height="5.0" fill="#ead1dc" stroke="none"/><line x1="136.3" y1="295.9" x2="136.3" y2="266.5" stroke="#444" stroke-width="1.4"/><path d="M 136.3 266.5 A 29.4 29.4 0 0 1 165.7 295.9" fill="none" stroke="#999" stroke-width="0.7" stroke-dasharray="2 2"/><rect x="303.5" y="253.9" width="5.0" height="33.6" fill="#d9ead3" stroke="none"/><rect x="308.5" y="253.9" width="5.0" height="33.6" fill="#cfe2f3" stroke="none"/><line x1="308.5" y1="253.9" x2="274.9" y2="253.9" stroke="#444" stroke-width="1.4"/><path d="M 274.9 253.9 A 33.6 33.6 0 0 0 308.5 287.5" fill="none" stroke="#999" stroke-width="0.7" stroke-dasharray="2 2"/><rect x="303.5" y="207.7" width="5.0" height="33.6" fill="#d9ead3" stroke="none"/><rect x="308.5" y="207.7" width="5.0" height="33.6" fill="#cfe2f3" stroke="none"/><line x1="308.5" y1="241.3" x2="274.9" y2="241.3" stroke="#444" stroke-width="1.4"/><path d="M 274.9 241.3 A 33.6 33.6 0 0 1 308.5 207.7" fill="none" stroke="#999" stroke-width="0.7" stroke-dasharray="2 2"/><rect x="314.8" y="200.6" width="29.4" height="5.0" fill="#ead1dc" stroke="none"/><rect x="314.8" y="205.6" width="29.4" height="5.0" fill="#cfe2f3" stroke="none"/><line x1="314.8" y1="205.6" x2="314.8" y2="176.2" stroke="#444" stroke-width="1.4"/><path d="M 314.8 176.2 A 29.4 29.4 0 0 1 344.2 205.6" fill="none" stroke="#999" stroke-width="0.7" stroke-dasharray="2 2"/><rect x="505.9" y="419.0" width="37.8" height="5.0" fill="#cfe2f3" stroke="none"/><rect x="505.9" y="424.0" width="37.8" height="5.0" fill="#fbfbf7" stroke="none"/><line x1="543.7" y1="424.0" x2="543.7" y2="386.2" stroke="#444" stroke-width="1.4"/><path d="M 543.7 386.2 A 37.8 37.8 0 0 0 505.9 424.0" fill="none" stroke="#999" stroke-width="0.7" stroke-dasharray="2 2"/><rect x="386.2" y="130.0" width="33.6" height="5.0" fill="#cfe2f3" stroke="none"/><rect x="386.2" y="125.0" width="33.6" height="5.0" fill="#fbfbf7" stroke="none"/><line x1="386.2" y1="130.0" x2="386.2" y2="163.6" stroke="#444" stroke-width="1.4"/><path d="M 386.2 163.6 A 33.6 33.6 0 0 0 419.8 130.0" fill="none" stroke="#999" stroke-width="0.7" stroke-dasharray="2 2"/><rect x="130.0" y="324.8" width="5.0" height="70.4" fill="#d9ead3" stroke="none"/><rect x="125.0" y="324.8" width="5.0" height="70.4" fill="#fbfbf7" stroke="none"/><line x1="127.0" y1="395.2" x2="127.0" y2="324.8" stroke="#222" stroke-width="1.0"/><line x1="130.0" y1="395.2" x2="130.0" y2="324.8" stroke="#222" stroke-width="1.0"/><line x1="133.0" y1="395.2" x2="133.0" y2="324.8" stroke="#222" stroke-width="1.0"/><rect x="170.2" y="419.0" width="98.2" height="5.0" fill="#d9ead3" stroke="none"/><rect x="170.2" y="424.0" width="98.2" height="5.0" fill="#fbfbf7" stroke="none"/><line x1="170.2" y1="421.0" x2="268.3" y2="421.0" stroke="#222" stroke-width="1.0"/><line x1="170.2" y1="424.0" x2="268.3" y2="424.0" stroke="#222" stroke-width="1.0"/><line x1="170.2" y1="427.0" x2="268.3" y2="427.0" stroke="#222" stroke-width="1.0"/><rect x="130.0" y="259.1" width="5.0" height="25.2" fill="#ead1dc" stroke="none"/><rect x="125.0" y="259.1" width="5.0" height="25.2" fill="#fbfbf7" stroke="none"/><line x1="127.0" y1="284.4" x2="127.0" y2="259.1" stroke="#222" stroke-width="1.0"/><line x1="130.0" y1="284.4" x2="130.0" y2="259.1" stroke="#222" stroke-width="1.0"/><line x1="133.0" y1="284.4" x2="133.0" y2="259.1" stroke="#222" stroke-width="1.0"/><rect x="170.2" y="130.0" width="98.2" height="5.0" fill="#d9ead3" stroke="none"/><rect x="170.2" y="125.0" width="98.2" height="5.0" fill="#fbfbf7" stroke="none"/><line x1="170.2" y1="127.0" x2="268.3" y2="127.0" stroke="#222" stroke-width="1.0"/><line x1="170.2" y1="130.0" x2="268.3" y2="130.0" stroke="#222" stroke-width="1.0"/><line x1="170.2" y1="133.0" x2="268.3" y2="133.0" stroke="#222" stroke-width="1.0"/><rect x="130.0" y="156.5" width="5.0" height="64.7" fill="#d9ead3" stroke="none"/><rect x="125.0" y="156.5" width="5.0" height="64.7" fill="#fbfbf7" stroke="none"/><line x1="127.0" y1="221.1" x2="127.0" y2="156.5" stroke="#222" stroke-width="1.0"/><line x1="130.0" y1="221.1" x2="130.0" y2="156.5" stroke="#222" stroke-width="1.0"/><line x1="133.0" y1="221.1" x2="133.0" y2="156.5" stroke="#222" stroke-width="1.0"/><rect x="326.3" y="130.0" width="35.7" height="5.0" fill="#ead1dc" stroke="none"/><rect x="326.3" y="125.0" width="35.7" height="5.0" fill="#fbfbf7" stroke="none"/><line x1="326.3" y1="127.0" x2="362.0" y2="127.0" stroke="#222" stroke-width="1.0"/><line x1="326.3" y1="130.0" x2="362.0" y2="130.0" stroke="#222" stroke-width="1.0"/><line x1="326.3" y1="133.0" x2="362.0" y2="133.0" stroke="#222" stroke-width="1.0"/><rect x="350.5" y="419.0" width="100.8" height="5.0" fill="#cfe2f3" stroke="none"/><rect x="350.5" y="424.0" width="100.8" height="5.0" fill="#fbfbf7" stroke="none"/><line x1="350.5" y1="421.0" x2="451.3" y2="421.0" stroke="#222" stroke-width="1.0"/><line x1="350.5" y1="424.0" x2="451.3" y2="424.0" stroke="#222" stroke-width="1.0"/><line x1="350.5" y1="427.0" x2="451.3" y2="427.0" stroke="#222" stroke-width="1.0"/><rect x="545.0" y="264.4" width="5.0" height="100.8" fill="#cfe2f3" stroke="none"/><rect x="550.0" y="264.4" width="5.0" height="100.8" fill="#fbfbf7" stroke="none"/><line x1="547.0" y1="365.2" x2="547.0" y2="264.4" stroke="#222" stroke-width="1.0"/><line x1="550.0" y1="365.2" x2="550.0" y2="264.4" stroke="#222" stroke-width="1.0"/><line x1="553.0" y1="365.2" x2="553.0" y2="264.4" stroke="#222" stroke-width="1.0"/><rect x="458.9" y="130.0" width="64.7" height="5.0" fill="#cfe2f3" stroke="none"/><rect x="458.9" y="125.0" width="64.7" height="5.0" fill="#fbfbf7" stroke="none"/><line x1="458.9" y1="127.0" x2="523.5" y2="127.0" stroke="#222" stroke-width="1.0"/><line x1="458.9" y1="130.0" x2="523.5" y2="130.0" stroke="#222" stroke-width="1.0"/><line x1="458.9" y1="133.0" x2="523.5" y2="133.0" stroke="#222" stroke-width="1.0"/><rect x="545.0" y="147.0" width="5.0" height="41.6" fill="#cfe2f3" stroke="none"/><rect x="550.0" y="147.0" width="5.0" height="41.6" fill="#fbfbf7" stroke="none"/><line x1="547.0" y1="188.6" x2="547.0" y2="147.0" stroke="#222" stroke-width="1.0"/><line x1="550.0" y1="188.6" x2="550.0" y2="147.0" stroke="#222" stroke-width="1.0"/><line x1="553.0" y1="188.6" x2="553.0" y2="147.0" stroke="#222" stroke-width="1.0"/></svg>