<svg xmlns="http://www.w3.org/2000/svg" width="638" height="638" viewBox="0 0 638 638"><rect x="0" y="0" width="638" height="638" fill="white"/><rect x="46.0" y="46.0" width="546.0" height="546.0" fill="#fbfbf7" stroke="#333" stroke-width="1.5"/><line x1="46.0" y1="46.0" x2="46.0" y2="38.0" stroke="#888" stroke-width="1"/><line x1="46.0" y1="592.0" x2="46.0" y2="600.0" stroke="#888" stroke-width="1"/><text x="46.0" y="36.0" text-anchor="middle" font-family="Arial" font-size="9" fill="#666">0</text><text x="46.0" y="608.0" text-anchor="middle" font-family="Arial" font-size="9" fill="#666">0</text><line x1="67.0" y1="46.0" x2="67.0" y2="42.0" stroke="#888" stroke-width="1"/><line x1="67.0" y1="592.0" x2="67.0" y2="596.0" stroke="#888" stroke-width="1"/><line x1="88.0" y1="46.0" x2="88.0" y2="38.0" stroke="#888" stroke-width="1"/><line x1="88.0" y1="592.0" x2="88.0" y2="600.0" stroke="#888" stroke-width="1"/><text x="88.0" y="36.0" text-anchor="middle" font-family="Arial" font-size="9" fill="#666">1</text><text x="88.0" y="608.0" text-anchor="middle" font-family="Arial" font-size="9" fill="#666">1</text><line x1="109.0" y1="46.0" x2="109.0" y2="42.0" stroke="#888" stroke-width="1"/><line x1="109.0" y1="592.0" x2="109.0" y2="596.0" stroke="#888" stroke-width="1"/><line x1="130.0" y1="46.0" x2="130.0" y2="38.0" stroke="#888" stroke-width="1"/><line x1="130.0" y1="592.0" x2="130.0" y2="600.0" stroke="#888" stroke-width="1"/><text x="130.0" y="36.0" text-anchor="middle" font-family="Arial" font-size="9" fill="#666">2</text><text x="130.0" y="608.0" text-anchor="middle" font-family="Arial" font-size="9" fill="#666">2</text><line x1="151.0" y1="46.0" x2="151.0" y2="42.0" stroke="#888" stroke-width="1"/><line x1="151.0" y1="592.0" x2="151.0" y2="596.0" stroke="#888" stroke-width="1"/><line x1="172.0" y1="46.0" x2="172.0" y2="38.0" stroke="#888" stroke-width="1"/><line x1="172.0" y1="592.0" x2="172.0" y2="600.0" stroke="#888" stroke-width="1"/><text x="172.0" y="36.0" text-anchor="middle" font-family="Arial" font-size="9" fill="#666">3</text><text x="172.0" y="608.0" text-anchor="middle" font-family="Arial" font-size="9" fill="#666">3</text><line x1="193.0" y1="46.0" x2="193.0" y2="42.0" stroke="#888" stroke-width="1"/><line x1="193.0" y1="592.0" x2="193.0" y2="596.0" stroke="#888" stroke-width="1"/><line x1="214.0" y1="46.0" x2="214.0" y2="38.0" stroke="#888" stroke-width="1"/><line x1="214.0" y1="592.0" x2="214.0" y2="600.0" stroke="#888" stroke-width="1"/><text x="214.0" y="36.0" text-anchor="middle" font-family="Arial" font-size="9" fill="#666">4</text><text x="214.0" y="608.0" text-anchor="middle" font-family="Arial" font-size="9" fill="#666">4</text><line x1="235.0" y1="46.0" x2="235.0" y2="42.0" stroke="#888" stroke-width="1"/><line x1="235.0" y1="592.0" x2="235.0" y2="596.0" stroke="#888" stroke-width="1"/><line x1="256.0" y1="46.0" x2="256.0" y2="38.0" stroke="#888" stroke-width="1"/><line x1="256.0" y1="592.0" x2="256.0" y2="600.0" stroke="#888" stroke-width="1"/><text x="256.0" y="36.0" text-anchor="middle" font-family="Arial" font-size="9" fill="#666">5</text><text x="256.0" y="608.0" text-anchor="middle" font-family="Arial" font-size="9" fill="#666">5</text><line x1="277.0" y1="46.0" x2="277.0" y2="42.0" stroke="#888" stroke-width="1"/><line x1="277.0" y1="592.0" x2="277.0" y2="596.0" stroke="#888" stroke-width="1"/><line x1="298.0" y1="46.0" x2="298.0" y2="38.0" stroke="#888" stroke-width="1"/><line x1="298.0" y1="592.0" x2="298.0" y2="600.0" stroke="#888" stroke-width="1"/><text x="298.0" y="36.0" text-anchor="middle" font-family="Arial" font-size="9" fill="#666">6</text><text x="298.0" y="608.0" text-anchor="middle" font-family="Arial" font-size="9" fill="#666">6</text><line x1="319.0" y1="46.0" x2="319.0" y2="42.0" stroke="#888" stroke-width="1"/><line x1="319.0" y1="592.0" x2="319.0" y2="596.0" stroke="#888" stroke-width="1"/><line x1="340.0" y1="46.0" x2="340.0" y2="38.0" stroke="#888" stroke-width="1"/><line x1="340.0" y1="592.0" x2="340.0" y2="600.0" stroke="#888" stroke-width="1"/><text x="340.0" y="36.0" text-anchor="middle" font-family="Arial" font-size="9" fill="#666">7</text><text x="340.0" y="608.0" text-anchor="middle" font-family="Arial" font-size="9" fill="#666">7</text><line x1="361.0" y1="46.0" x2="361.0" y2="42.0" stroke="#888" stroke-width="1"/><line x1="361.0" y1="592.0" x2="361.0" y2="596.0" stroke="#888" stroke-width="1"/><line x1="382.0" y1="46.0" x2="382.0" y2="38.0" stroke="#888" stroke-width="1"/><line x1="382.0" y1="592.0" x2="382.0" y2="600.0" stroke="#888" stroke-width="1"/><text x="382.0" y="36.0" text-anchor="middle" font-family="Arial" font-size="9" fill="#666">8</text><text x="382.0" y="608.0" text-anchor="middle" font-family="Arial" font-size="9" fill="#666">8</text><line x1="403.0" y1="46.0" x2="403.0" y2="42.0" stroke="#888" stroke-width="1"/><line x1="403.0" y1="592.0" x2="403.0" y2="596.0" stroke="#888" stroke-width="1"/><line x1="424.0" y1="46.0" x2="424.0" y2="38.0" stroke="#888" stroke-width="1"/><line x1="424.0" y1="592.0" x2="424.0" y2="600.0" stroke="#888" stroke-width="1"/><text x="424.0" y="36.0" text-anchor="middle" font-family="Arial" font-size="9" fill="#666">9</text><text x="424.0" y="608.0" text-anchor="middle" font-family="Arial" font-size="9" fill="#666">9</text><line x1="445.0" y1="46.0" x2="445.0" y2="42.0" stroke="#888" stroke-width="1"/><line x1="445.0" y1="592.0" x2="445.0" y2="596.0" stroke="#888" stroke-width="1"/><line x1="466.0" y1="46.0" x2="466.0" y2="38.0" stroke="#888" stroke-width="1"/><line x1="466.0" y1="592.0" x2="466.0" y2="600.0" stroke="#888" stroke-width="1"/><text x="466.0" y="36.0" text-anchor="middle" font-family="Arial" font-size="9" fill="#666">10</text><text x="466.0" y="608.0" text-anchor="middle" font-family="Arial" font-size="9" fill="#666">10</text><line x1="487.0" y1="46.0" x2="487.0" y2="42.0" stroke="#888" stroke-width="1"/><line x1="487.0" y1="592.0" x2="487.0" y2="596.0" stroke="#888" stroke-width="1"/><line x1="508.0" y1="46.0" x2="508.0" y2="38.0" stroke="#888" stroke-width="1"/><line x1="508.0" y1="592.0" x2="508.0" y2="600.0" stroke="#888" stroke-width="1"/><text x="508.0" y="36.0" text-anchor="middle" font-family="Arial" font-size="9" fill="#666">11</text><text x="508.0" y="608.0" text-anchor="middle" font-family="Arial" font-size="9" fill="#666">11</text><line x1="529.0" y1="46.0" x2="529.0" y2="42.0" stroke="#888" stroke-width="1"/><line x1="529.0" y1="592.0" x2="529.0" y2="596.0" stroke="#888" stroke-width="1"/><line x1="550.0" y1="46.0" x2="550.0" y2="38.0" stroke="#888" stroke-width="1"/><line x1="550.0" y1="592.0" x2="550.0" y2="600.0" stroke="#888" stroke-width="1"/><text x="550.0" y="36.0" text-anchor="middle" font-family="Arial" font-size="9" fill="#666">12</text><text x="550.0" y="608.0" text-anchor="middle" font-family="Arial" font-size="9" fill="#666">12</text><line x1="571.0" y1="46.0" x2="571.0" y2="42.0" stroke="#888" stroke-width="1"/><line x1="571.0" y1="592.0" x2="571.0" y2="596.0" stroke="#888" stroke-width="1"/><line x1="592.0" y1="46.0" x2="592.0" y2="38.0" stroke="#888" stroke-width="1"/><line x1="592.0" y1="592.0" x2="592.0" y2="600.0" stroke="#888" stroke-width="1"/><text x="592.0" y="36.0" text-anchor="middle" font-family="Arial" font-size="9" fill="#666">13</text><text x="592.0" y="608.0" text-anchor="middle" font-family="Arial" font-size="9" fill="#666">13</text><line x1="46.0" y1="592.0" x2="38.0" y2="592.0" stroke="#888" stroke-width="1"/><line x1="592.0" y1="592.0" x2="600.0" y2="592.0" stroke="#888" stroke-width="1"/><text x="36.0" y="595.0" text-anchor="end" font-family="Arial" font-size="9" fill="#666">0</text><text x="602.0" y="595.0" text-anchor="start" font-family="Arial" font-size="9" fill="#666">0</text><line x1="46.0" y1="571.0" x2="42.0" y2="571.0" stroke="#888" stroke-width="1"/><line x1="592.0" y1="571.0" x2="596.0" y2="571.0" stroke="#888" stroke-width="1"/><line x1="46.0" y1="550.0" x2="38.0" y2="550.0" stroke="#888" stroke-width="1"/><line x1="592.0" y1="550.0" x2="600.0" y2="550.0" stroke="#888" stroke-width="1"/><text x="36.0" y="553.0" text-anchor="end" font-family="Arial" font-size="9" fill="#666">1</text><text x="602.0" y="553.0" text-anchor="start" font-family="Arial" font-size="9" fill="#666">1</text><line x1="46.0" y1="529.0" x2="42.0" y2="529.0" stroke="#888" stroke-width="1"/><line x1="592.0" y1="529.0" x2="596.0" y2="529.0" stroke="#888" stroke-width="1"/><line x1="46.0" y1="508.0" x2="38.0" y2="508.0" stroke="#888" stroke-width="1"/><line x1="592.0" y1="508.0" x2="600.0" y2="508.0" stroke="#888" stroke-width="1"/><text x="36.0" y="511.0" text-anchor="end" font-family="Arial" font-size="9" fill="#666">2</text><text x="602.0" y="511.0" text-anchor="start" font-family="Arial" font-size="9" fill="#666">2</text><line x1="46.0" y1="487.0" x2="42.0" y2="487.0" stroke="#888" stroke-width="1"/><line x1="592.0" y1="487.0" x2="596.0" y2="487.0" stroke="#888" stroke-width="1"/><line x1="46.0" y1="466.0" x2="38.0" y2="466.0" stroke="#888" stroke-width="1"/><line x1="592.0" y1="466.0" x2="600.0" y2="466.0" stroke="#888" stroke-width="1"/><text x="36.0" y="469.0" text-anchor="end" font-family="Arial" font-size="9" fill="#666">3</text><text x="602.0" y="469.0" text-anchor="start" font-family="Arial" font-size="9" fill="#666">3</text><line x1="46.0" y1="445.0" x2="42.0" y2="445.0" stroke="#888" stroke-width="1"/><line x1="592.0" y1="445.0" x2="596.0" y2="445.0" stroke="#888" stroke-width="1"/><line x1="46.0" y1="424.0" x2="38.0" y2="424.0" stroke="#888" stroke-width="1"/><line x1="592.0" y1="424.0" x2="600.0" y2="424.0" stroke="#888" stroke-width="1"/><text x="36.0" y="427.0" text-anchor="end" font-family="Arial" font-size="9" fill="#666">4</text><text x="602.0" y="427.0" text-anchor="start" font-family="Arial" font-size="9" fill="#666">4</text><line x1="46.0" y1="403.0" x2="42.0" y2="403.0" stroke="#888" stroke-width="1"/><line x1="592.0" y1="403.0" x2="596.0" y2="403.0" stroke="#888" stroke-width="1"/><line x1="46.0" y1="382.0" x2="38.0" y2="382.0" stroke="#888" stroke-width="1"/><line x1="592.0" y1="382.0" x2="600.0" y2="382.0" stroke="#888" stroke-width="1"/><text x="36.0" y="385.0" text-anchor="end" font-family="Arial" font-size="9" fill="#666">5</text><text x="602.0" y="385.0" text-anchor="start" font-family="Arial" font-size="9" fill="#666">5</text><line x1="46.0" y1="361.0" x2="42.0" y2="361.0" stroke="#888" stroke-width="1"/><line x1="592.0" y1="361.0" x2="596.0" y2="361.0" stroke="#888" stroke-width="1"/><line x1="46.0" y1="340.0" x2="38.0" y2="340.0" stroke="#888" stroke-width="1"/><line x1="592.0" y1="340.0" x2="600.0" y2="340.0" stroke="#888" stroke-width="1"/><text x="36.0" y="343.0" text-anchor="end" font-family="Arial" font-size="9" fill="#666">6</text><text x="602.0" y="343.0" text-anchor="start" font-family="Arial" font-size="9" fill="#666">6</text><line x1="46.0" y1="319.0" x2="42.0" y2="319.0" stroke="#888" stroke-width="1"/><line x1="592.0" y1="319.0" x2="596.0" y2="319.0" stroke="#888" stroke-width="1"/><line x1="46.0" y1="298.0" x2="38.0" y2="298.0" stroke="#888" stroke-width="1"/><line x1="592.0" y1="298.0" x2="600.0" y2="298.0" stroke="#888" stroke-width="1"/><text x="36.0" y="301.0" text-anchor="end" font-family="Arial" font-size="9" fill="#666">7</text><text x="602.0" y="301.0" text-anchor="start" font-family="Arial" font-size="9" fill="#666">7</text><line x1="46.0" y1="277.0" x2="42.0" y2="277.0" stroke="#888" stroke-width="1"/><line x1="592.0" y1="277.0" x2="596.0" y2="277.0" stroke="#888" stroke-width="1"/><line x1="46.0" y1="256.0" x2="38.0" y2="256.0" stroke="#888" stroke-width="1"/><line x1="592.0" y1="256.0" x2="600.0" y2="256.0" stroke="#888" stroke-width="1"/><text x="36.0" y="259.0" text-anchor="end" font-family="Arial" font-size="9" fill="#666">8</text><text x="602.0" y="259.0" text-anchor="start" font-family="Arial" font-size="9" fill="#666">8</text><line x1="46.0" y1="235.0" x2="42.0" y2="235.0" stroke="#888" stroke-width="1"/><line x1="592.0" y1="235.0" x2="596.0" y2="235.0" stroke="#888" stroke-width="1"/><line x1="46.0" y1="214.0" x2="38.0" y2="214.0" stroke="#888" stroke-width="1"/><line x1="592.0" y1="214.0" x2="600.0" y2="214.0" stroke="#888" stroke-width="1"/><text x="36.0" y="217.0" text-anchor="end" font-family="Arial" font-size="9" fill="#666">9</text><text x="602.0" y="217.0" text-anchor="start" font-family="Arial" font-size="9" fill="#666">9</text><line x1="46.0" y1="193.0" x2="42.0" y2="193.0" stroke="#888" stroke-width="1"/><line x1="592.0" y1="193.0" x2="596.0" y2="193.0" stroke="#888" stroke-width="1"/><line x1="46.0" y1="172.0" x2="38.0" y2="172.0" stroke="#888" stroke-width="1"/><line x1="592.0" y1="172.0" x2="600.0" y2="172.0" stroke="#888" stroke-width="1"/><text x="36.0" y="175.0" text-anchor="end" font-family="Arial" font-size="9" fill="#666">10</text><text x="602.0" y="175.0" text-anchor="start" font-family="Arial" font-size="9" fill="#666">10</text><line x1="46.0" y1="151.0" x2="42.0" y2="151.0" stroke="#888" stroke-width="1"/><line x1="592.0" y1="151.0" x2="596.0" y2="151.0" stroke="#888" stroke-width="1"/><line x1="46.0" y1="130.0" x2="38.0" y2="130.0" stroke="#888" stroke-width="1"/><line x1="592.0" y1="130.0" x2="600.0" y2="130.0" stroke="#888" stroke-width="1"/><text x="36.0" y="133.0" text-anchor="end" font-family="Arial" font-size="9" fill="#666">11</text><text x="602.0" y="133.0" text-anchor="start" font-family="Arial" font-size="9" fill="#666">11</text><line x1="46.0" y1="109.0" x2="42.0" y2="109.0" stroke="#888" stroke-width="1"/><line x1="592.0" y1="109.0" x2="596.0" y2="109.0" stroke="#888" stroke-width="1"/><line x1="46.0" y1="88.0" x2="38.0" y2="88.0" stroke="#888" stroke-width="1"/><line x1="592.0" y1="88.0" x2="600.0" y2="88.0" stroke="#888" stroke-width="1"/><text x="36.0" y="91.0" text-anchor="end" font-family="Arial" font-size="9" fill="#666">12</text><text x="602.0" y="91.0" text-anchor="start" font-family="Arial" font-size="9" fill="#666">12</text><line x1="46.0" y1="67.0" x2="42.0" y2="67.0" stroke="#888" stroke-width="1"/><line x1="592.0" y1="67.0" x2="596.0" y2="67.0" stroke="#888" stroke-width="1"/><line x1="46.0" y1="46.0" x2="38.0" y2="46.0" stroke="#888" stroke-width="1"/><line x1="592.0" y1="46.0" x2="600.0" y2="46.0" stroke="#888" stroke-width="1"/><text x="36.0" y="49.0" text-anchor="end" font-family="Arial" font-size="9" fill="#666">13</text><text x="602.0" y="49.0" text-anchor="start" font-family="Arial" font-size="9" fill="#666">13</text><rect x="130.0" y="130.0" width="336.0" height="378.0" fill="none" stroke="#9aa" stroke-width="1" stroke-dasharray="3 3"/><rect x="467.3" y="341.3" width="123.5" height="249.5" fill="#f2f2f2" stroke="#333" stroke-width="1.5" stroke-dasharray="6 4"/><text x="529.0" y="463.4" text-anchor="middle" font-family="Arial" font-size="12" font-weight="bold" fill="#222">CARPORT</text><text x="529.0" y="479.2" text-anchor="middle" font-family="Arial" font-size="10" fill="#555">3.0×6.0 m</text><rect x="286.7" y="509.3" width="178.1" height="60.5" fill="#f2f2f2" stroke="#333" stroke-width="1.5" stroke-dasharray="6 4"/><text x="375.7" y="536.9" text-anchor="middle" font-family="Arial" font-size="12" font-weight="bold" fill="#222">PORCH</text><text x="375.7" y="552.6" text-anchor="middle" font-family="Arial" font-size="10" fill="#555">4.3×1.5 m</text><rect x="130.0" y="333.7" width="155.4" height="174.3" fill="#d9ead3" stroke="#333" stroke-width="1.5"/><text x="207.7" y="418.2" text-anchor="middle" font-family="Arial" font-size="12" font-weight="bold" fill="#222">MASTER BR</text><text x="207.7" y="434.0" text-anchor="middle" font-family="Arial" font-size="10" fill="#555">3.7×4.2 m · 15.4 sqm</text><rect x="130.0" y="264.4" width="77.7" height="69.3" fill="#ead1dc" stroke="#333" stroke-width="1.5"/><text x="168.8" y="290.6" text-anchor="middle" font-family="Arial" font-size="12" font-weight="bold" fill="#222">ENSUITE</text><text x="168.8" y="306.4" text-anchor="middle" font-family="Arial" font-size="10" fill="#555">1.9×1.6 m</text><text x="168.8" y="317.9" text-anchor="middle" font-family="Arial" font-size="10" fill="#555">3.1 sqm</text><rect x="130.0" y="130.0" width="155.4" height="134.4" fill="#d9ead3" stroke="#333" stroke-width="1.5"/><text x="207.7" y="194.5" text-anchor="middle" font-family="Arial" font-size="12" font-weight="bold" fill="#222">BEDROOM</text><text x="207.7" y="210.3" text-anchor="middle" font-family="Arial" font-size="10" fill="#555">3.7×3.2 m · 11.8 sqm</text><rect x="207.7" y="264.4" width="77.7" height="69.3" fill="#ead1dc" stroke="#333" stroke-width="1.5"/><text x="246.6" y="290.6" text-anchor="middle" font-family="Arial" font-size="12" font-weight="bold" fill="#222">T&amp;B</text><text x="246.6" y="306.4" text-anchor="middle" font-family="Arial" font-size="10" fill="#555">1.9×1.6 m</text><text x="246.6" y="317.9" text-anchor="middle" font-family="Arial" font-size="10" fill="#555">3.1 sqm</text><rect x="285.4" y="214.0" width="180.6" height="294.0" fill="#cfe2f3" stroke="#333" stroke-width="1.5"/><text x="375.7" y="358.4" text-anchor="middle" font-family="Arial" font-size="12" font-weight="bold" fill="#222">GREAT ROOM</text><text x="375.7" y="374.2" text-anchor="middle" font-family="Arial" font-size="10" fill="#555">4.3×7.0 m · 30.1 sqm</text><rect x="285.4" y="130.0" width="180.6" height="84.0" fill="#cfe2f3" stroke="#333" stroke-width="1.5"/><text x="375.7" y="169.3" text-anchor="middle" font-family="Arial" font-size="12" font-weight="bold" fill="#222">KITCHEN</text><text x="375.7" y="185.2" text-anchor="middle" font-family="Arial" font-size="10" fill="#555">4.3×2.0 m · 8.6 sqm</text><text x="319.0" y="626.0" text-anchor="middle" font-family="Arial" font-size="12" font-weight="bold" fill="#888">FRONT (street)</text><rect x="130.00" y="331.60" width="77.70" height="4.20" fill="#555" stroke="none"/><rect x="207.70" y="331.60" width="77.70" height="4.20" fill="#555" stroke="none"/><rect x="283.30" y="333.70" width="4.20" height="174.30" fill="#555" stroke="none"/><rect x="130.00" y="262.30" width="77.70" height="4.20" fill="#555" stroke="none"/><rect x="205.60" y="264.40" width="4.20" height="69.30" fill="#555" stroke="none"/><rect x="207.70" y="262.30" width="77.70" height="4.20" fill="#555" stroke="none"/><rect x="283.30" y="214.00" width="4.20" height="50.40" fill="#555" stroke="none"/><rect x="283.30" y="130.00" width="4.20" height="84.00" fill="#555" stroke="none"/><rect x="283.30" y="264.40" width="4.20" height="69.30" fill="#555" stroke="none"/><rect x="130.00" y="503.80" width="155.40" height="8.40" fill="#555" stroke="none"/><rect x="125.80" y="333.70" width="8.40" height="174.30" fill="#555" stroke="none"/><rect x="125.80" y="264.40" width="8.40" height="69.30" fill="#555" stroke="none"/><rect x="130.00" y="125.80" width="155.40" height="8.40" fill="#555" stroke="none"/><rect x="125.80" y="130.00" width="8.40" height="134.40" fill="#555" stroke="none"/><rect x="285.40" y="503.80" width="180.60" height="8.40" fill="#555" stroke="none"/><rect x="461.80" y="214.00" width="8.40" height="294.00" fill="#555" stroke="none"/><rect x="285.40" y="125.80" width="180.60" height="8.40" fill="#555" stroke="none"/><rect x="461.80" y="130.00" width="8.40" height="84.00" fill="#555" stroke="none"/><rect x="125.80" y="329.50" width="8.40" height="8.40" fill="#555" stroke="none"/><rect x="205.60" y="331.60" width="4.20" height="4.20" fill="#555" stroke="none"/><rect x="205.60" y="331.60" width="4.20" height="4.20" fill="#555" stroke="none"/><rect x="283.30" y="331.60" width="4.20" height="4.20" fill="#555" stroke="none"/><rect x="281.20" y="503.80" width="8.40" height="8.40" fill="#555" stroke="none"/><rect x="283.30" y="331.60" width="4.20" height="4.20" fill="#555" stroke="none"/><rect x="125.80" y="260.20" width="8.40" height="8.40" fill="#555" stroke="none"/><rect x="205.60" y="262.30" width="4.20" height="4.20" fill="#555" stroke="none"/><rect x="205.60" y="331.60" width="4.20" height="4.20" fill="#555" stroke="none"/><rect x="205.60" y="262.30" width="4.20" height="4.20" fill="#555" stroke="none"/><rect x="205.60" y="262.30" width="4.20" height="4.20" fill="#555" stroke="none"/><rect x="283.30" y="262.30" width="4.20" height="4.20" fill="#555" stroke="none"/><rect x="283.30" y="262.30" width="4.20" height="4.20" fill="#555" stroke="none"/><rect x="281.20" y="125.80" width="8.40" height="8.40" fill="#555" stroke="none"/><rect x="283.30" y="331.60" width="4.20" height="4.20" fill="#555" stroke="none"/><rect x="283.30" y="262.30" width="4.20" height="4.20" fill="#555" stroke="none"/><rect x="125.80" y="503.80" width="8.40" height="8.40" fill="#555" stroke="none"/><rect x="281.20" y="503.80" width="8.40" height="8.40" fill="#555" stroke="none"/><rect x="125.80" y="503.80" width="8.40" height="8.40" fill="#555" stroke="none"/><rect x="125.80" y="329.50" width="8.40" height="8.40" fill="#555" stroke="none"/><rect x="125.80" y="329.50" width="8.40" height="8.40" fill="#555" stroke="none"/><rect x="125.80" y="260.20" width="8.40" height="8.40" fill="#555" stroke="none"/><rect x="125.80" y="125.80" width="8.40" height="8.40" fill="#555" stroke="none"/><rect x="281.20" y="125.80" width="8.40" height="8.40" fill="#555" stroke="none"/><rect x="125.80" y="260.20" width="8.40" height="8.40" fill="#555" stroke="none"/><rect x="125.80" y="125.80" width="8.40" height="8.40" fill="#555" stroke="none"/><rect x="281.20" y="503.80" width="8.40" height="8.40" fill="#555" stroke="none"/><rect x="461.80" y="503.80" width="8.40" height="8.40" fill="#555" stroke="none"/><rect x="461.80" y="503.80" width="8.40" height="8.40" fill="#555" stroke="none"/><rect x="281.20" y="125.80" width="8.40" height="8.40" fill="#555" stroke="none"/><rect x="461.80" y="125.80" width="8.40" height="8.40" fill="#555" stroke="none"/><rect x="461.80" y="125.80" width="8.40" height="8.40" fill="#555" stroke="none"/><rect x="287.5" y="214.0" width="176.4" height="5.0" fill="#cfe2f3" stroke="none"/><rect x="287.5" y="209.0" width="176.4" height="5.0" fill="#cfe2f3" stroke="none"/><rect x="136.3" y="333.7" width="29.4" height="5.0" fill="#d9ead3" stroke="none"/><rect x="136.3" y="328.7" width="29.4" height="5.0" fill="#ead1dc" stroke="none"/><line x1="136.3" y1="333.7" x2="136.3" y2="304.3" stroke="#444" stroke-width="1.4"/><path d="M 136.3 304.3 A 29.4 29.4 0 0 1 165.7 333.7" fill="none" stroke="#999" stroke-width="0.7" stroke-dasharray="2 2"/><rect x="280.4" y="340.0" width="5.0" height="33.6" fill="#d9ead3" stroke="none"/><rect x="285.4" y="340.0" width="5.0" height="33.6" fill="#cfe2f3" stroke="none"/><line x1="285.4" y1="340.0" x2="251.8" y2="340.0" stroke="#444" stroke-width="1.4"/><path d="M 251.8 340.0 A 33.6 33.6 0 0 0 285.4 373.6" fill="none" stroke="#999" stroke-width="0.7" stroke-dasharray="2 2"/><rect x="280.4" y="224.5" width="5.0" height="33.6" fill="#d9ead3" stroke="none"/><rect x="285.4" y="224.5" width="5.0" height="33.6" fill="#cfe2f3" stroke="none"/><line x1="285.4" y1="258.1" x2="251.8" y2="258.1" stroke="#444" stroke-width="1.4"/><path d="M 251.8 258.1 A 33.6 33.6 0 0 1 285.4 224.5" fill="none" stroke="#999" stroke-width="0.7" stroke-dasharray="2 2"/><rect x="280.4" y="298.0" width="5.0" height="29.4" fill="#ead1dc" stroke="none"/><rect x="285.4" y="298.0" width="5.0" height="29.4" fill="#cfe2f3" stroke="none"/><line x1="285.4" y1="327.4" x2="256.0" y2="327.4" stroke="#444" stroke-width="1.4"/><path d="M 256.0 327.4 A 29.4 29.4 0 0 1 285.4 298.0" fill="none" stroke="#999" stroke-width="0.7" stroke-dasharray="2 2"/><rect x="421.9" y="503.0" width="37.8" height="5.0" fill="#cfe2f3" stroke="none"/><rect x="421.9" y="508.0" width="37.8" height="5.0" fill="#fbfbf7" stroke="none"/><line x1="459.7" y1="508.0" x2="459.7" y2="470.2" stroke="#444" stroke-width="1.4"/><path d="M 459.7 470.2 A 37.8 37.8 0 0 0 421.9 508.0" fill="none" stroke="#999" stroke-width="0.7" stroke-dasharray="2 2"/><rect x="291.7" y="130.0" width="33.6" height="5.0" fill="#cfe2f3" stroke="none"/><rect x="291.7" y="125.0" width="33.6" height="5.0" fill="#fbfbf7" stroke="none"/><line x1="291.7" y1="130.0" x2="291.7" y2="163.6" stroke="#444" stroke-width="1.4"/><path d="M 291.7 163.6 A 33.6 33.6 0 0 0 325.3 130.0" fill="none" stroke="#999" stroke-width="0.7" stroke-dasharray="2 2"/><rect x="165.0" y="503.0" width="85.5" height="5.0" fill="#d9ead3" stroke="none"/><rect x="165.0" y="508.0" width="85.5" height="5.0" fill="#fbfbf7" stroke="none"/><line x1="165.0" y1="505.0" x2="250.5" y2="505.0" stroke="#222" stroke-width="1.0"/><line x1="165.0" y1="508.0" x2="250.5" y2="508.0" stroke="#222" stroke-width="1.0"/><line x1="165.0" y1="511.0" x2="250.5" y2="511.0" stroke="#222" stroke-width="1.0"/><rect x="130.0" y="372.9" width="5.0" height="95.9" fill="#d9ead3" stroke="none"/><rect x="125.0" y="372.9" width="5.0" height="95.9" fill="#fbfbf7" stroke="none"/><line x1="127.0" y1="468.8" x2="127.0" y2="372.9" stroke="#222" stroke-width="1.0"/><line x1="130.0" y1="468.8" x2="130.0" y2="372.9" stroke="#222" stroke-width="1.0"/><line x1="133.0" y1="468.8" x2="133.0" y2="372.9" stroke="#222" stroke-width="1.0"/><rect x="130.0" y="281.7" width="5.0" height="34.7" fill="#ead1dc" stroke="none"/><rect x="125.0" y="281.7" width="5.0" height="34.7" fill="#fbfbf7" stroke="none"/><line x1="127.0" y1="316.4" x2="127.0" y2="281.7" stroke="#222" stroke-width="1.0"/><line x1="130.0" y1="316.4" x2="130.0" y2="281.7" stroke="#222" stroke-width="1.0"/><line x1="133.0" y1="316.4" x2="133.0" y2="281.7" stroke="#222" stroke-width="1.0"/><rect x="165.0" y="130.0" width="85.5" height="5.0" fill="#d9ead3" stroke="none"/><rect x="165.0" y="125.0" width="85.5" height="5.0" fill="#fbfbf7" stroke="none"/><line x1="165.0" y1="127.0" x2="250.5" y2="127.0" stroke="#222" stroke-width="1.0"/><line x1="165.0" y1="130.0" x2="250.5" y2="130.0" stroke="#222" stroke-width="1.0"/><line x1="165.0" y1="133.0" x2="250.5" y2="133.0" stroke="#222" stroke-width="1.0"/><rect x="130.0" y="160.2" width="5.0" height="73.9" fill="#d9ead3" stroke="none"/><rect x="125.0" y="160.2" width="5.0" height="73.9" fill="#fbfbf7" stroke="none"/><line x1="127.0" y1="234.2" x2="127.0" y2="160.2" stroke="#222" stroke-width="1.0"/><line x1="130.0" y1="234.2" x2="130.0" y2="160.2" stroke="#222" stroke-width="1.0"/><line x1="133.0" y1="234.2" x2="133.0" y2="160.2" stroke="#222" stroke-width="1.0"/><rect x="461.0" y="310.6" width="5.0" height="100.8" fill="#cfe2f3" stroke="none"/><rect x="466.0" y="310.6" width="5.0" height="100.8" fill="#fbfbf7" stroke="none"/><line x1="463.0" y1="411.4" x2="463.0" y2="310.6" stroke="#222" stroke-width="1.0"/><line x1="466.0" y1="411.4" x2="466.0" y2="310.6" stroke="#222" stroke-width="1.0"/><line x1="469.0" y1="411.4" x2="469.0" y2="310.6" stroke="#222" stroke-width="1.0"/><rect x="313.3" y="503.0" width="68.2" height="5.0" fill="#cfe2f3" stroke="none"/><rect x="313.3" y="508.0" width="68.2" height="5.0" fill="#fbfbf7" stroke="none"/><line x1="313.3" y1="505.0" x2="381.5" y2="505.0" stroke="#222" stroke-width="1.0"/><line x1="313.3" y1="508.0" x2="381.5" y2="508.0" stroke="#222" stroke-width="1.0"/><line x1="313.3" y1="511.0" x2="381.5" y2="511.0" stroke="#222" stroke-width="1.0"/><rect x="366.7" y="130.0" width="70.4" height="5.0" fill="#cfe2f3" stroke="none"/><rect x="366.7" y="125.0" width="70.4" height="5.0" fill="#fbfbf7" stroke="none"/><line x1="366.7" y1="127.0" x2="437.1" y2="127.0" stroke="#222" stroke-width="1.0"/><line x1="366.7" y1="130.0" x2="437.1" y2="130.0" stroke="#222" stroke-width="1.0"/><line x1="366.7" y1="133.0" x2="437.1" y2="133.0" stroke="#222" stroke-width="1.0"/><rect x="461.0" y="148.9" width="5.0" height="46.2" fill="#cfe2f3" stroke="none"/><rect x="466.0" y="148.9" width="5.0" height="46.2" fill="#fbfbf7" stroke="none"/><line x1="463.0" y1="195.1" x2="463.0" y2="148.9" stroke="#222" stroke-width="1.0"/><line x1="466.0" y1="195.1" x2="466.0" y2="148.9" stroke="#222" stroke-width="1.0"/><line x1="469.0" y1="195.1" x2="469.0" y2="148.9" stroke="#222" stroke-width="1.0"/></svg>