<svg xmlns="http://www.w3.org/2000/svg" width="596" height="554" viewBox="0 0 596 554"><rect x="0" y="0" width="596" height="554" fill="white"/><rect x="46.0" y="46.0" width="504.0" height="462.0" fill="#fbfbf7" stroke="#333" stroke-width="1.5"/><line x1="46.0" y1="46.0" x2="46.0" y2="38.0" stroke="#888" stroke-width="1"/><line x1="46.0" y1="508.0" x2="46.0" y2="516.0" stroke="#888" stroke-width="1"/><text x="46.0" y="36.0" text-anchor="middle" font-family="Arial" font-size="9" fill="#666">0</text><text x="46.0" y="524.0" text-anchor="middle" font-family="Arial" font-size="9" fill="#666">0</text><line x1="67.0" y1="46.0" x2="67.0" y2="42.0" stroke="#888" stroke-width="1"/><line x1="67.0" y1="508.0" x2="67.0" y2="512.0" stroke="#888" stroke-width="1"/><line x1="88.0" y1="46.0" x2="88.0" y2="38.0" stroke="#888" stroke-width="1"/><line x1="88.0" y1="508.0" x2="88.0" y2="516.0" stroke="#888" stroke-width="1"/><text x="88.0" y="36.0" text-anchor="middle" font-family="Arial" font-size="9" fill="#666">1</text><text x="88.0" y="524.0" text-anchor="middle" font-family="Arial" font-size="9" fill="#666">1</text><line x1="109.0" y1="46.0" x2="109.0" y2="42.0" stroke="#888" stroke-width="1"/><line x1="109.0" y1="508.0" x2="109.0" y2="512.0" stroke="#888" stroke-width="1"/><line x1="130.0" y1="46.0" x2="130.0" y2="38.0" stroke="#888" stroke-width="1"/><line x1="130.0" y1="508.0" x2="130.0" y2="516.0" stroke="#888" stroke-width="1"/><text x="130.0" y="36.0" text-anchor="middle" font-family="Arial" font-size="9" fill="#666">2</text><text x="130.0" y="524.0" text-anchor="middle" font-family="Arial" font-size="9" fill="#666">2</text><line x1="151.0" y1="46.0" x2="151.0" y2="42.0" stroke="#888" stroke-width="1"/><line x1="151.0" y1="508.0" x2="151.0" y2="512.0" stroke="#888" stroke-width="1"/><line x1="172.0" y1="46.0" x2="172.0" y2="38.0" stroke="#888" stroke-width="1"/><line x1="172.0" y1="508.0" x2="172.0" y2="516.0" stroke="#888" stroke-width="1"/><text x="172.0" y="36.0" text-anchor="middle" font-family="Arial" font-size="9" fill="#666">3</text><text x="172.0" y="524.0" text-anchor="middle" font-family="Arial" font-size="9" fill="#666">3</text><line x1="193.0" y1="46.0" x2="193.0" y2="42.0" stroke="#888" stroke-width="1"/><line x1="193.0" y1="508.0" x2="193.0" y2="512.0" stroke="#888" stroke-width="1"/><line x1="214.0" y1="46.0" x2="214.0" y2="38.0" stroke="#888" stroke-width="1"/><line x1="214.0" y1="508.0" x2="214.0" y2="516.0" stroke="#888" stroke-width="1"/><text x="214.0" y="36.0" text-anchor="middle" font-family="Arial" font-size="9" fill="#666">4</text><text x="214.0" y="524.0" text-anchor="middle" font-family="Arial" font-size="9" fill="#666">4</text><line x1="235.0" y1="46.0" x2="235.0" y2="42.0" stroke="#888" stroke-width="1"/><line x1="235.0" y1="508.0" x2="235.0" y2="512.0" stroke="#888" stroke-width="1"/><line x1="256.0" y1="46.0" x2="256.0" y2="38.0" stroke="#888" stroke-width="1"/><line x1="256.0" y1="508.0" x2="256.0" y2="516.0" stroke="#888" stroke-width="1"/><text x="256.0" y="36.0" text-anchor="middle" font-family="Arial" font-size="9" fill="#666">5</text><text x="256.0" y="524.0" text-anchor="middle" font-family="Arial" font-size="9" fill="#666">5</text><line x1="277.0" y1="46.0" x2="277.0" y2="42.0" stroke="#888" stroke-width="1"/><line x1="277.0" y1="508.0" x2="277.0" y2="512.0" stroke="#888" stroke-width="1"/><line x1="298.0" y1="46.0" x2="298.0" y2="38.0" stroke="#888" stroke-width="1"/><line x1="298.0" y1="508.0" x2="298.0" y2="516.0" stroke="#888" stroke-width="1"/><text x="298.0" y="36.0" text-anchor="middle" font-family="Arial" font-size="9" fill="#666">6</text><text x="298.0" y="524.0" text-anchor="middle" font-family="Arial" font-size="9" fill="#666">6</text><line x1="319.0" y1="46.0" x2="319.0" y2="42.0" stroke="#888" stroke-width="1"/><line x1="319.0" y1="508.0" x2="319.0" y2="512.0" stroke="#888" stroke-width="1"/><line x1="340.0" y1="46.0" x2="340.0" y2="38.0" stroke="#888" stroke-width="1"/><line x1="340.0" y1="508.0" x2="340.0" y2="516.0" stroke="#888" stroke-width="1"/><text x="340.0" y="36.0" text-anchor="middle" font-family="Arial" font-size="9" fill="#666">7</text><text x="340.0" y="524.0" text-anchor="middle" font-family="Arial" font-size="9" fill="#666">7</text><line x1="361.0" y1="46.0" x2="361.0" y2="42.0" stroke="#888" stroke-width="1"/><line x1="361.0" y1="508.0" x2="361.0" y2="512.0" stroke="#888" stroke-width="1"/><line x1="382.0" y1="46.0" x2="382.0" y2="38.0" stroke="#888" stroke-width="1"/><line x1="382.0" y1="508.0" x2="382.0" y2="516.0" stroke="#888" stroke-width="1"/><text x="382.0" y="36.0" text-anchor="middle" font-family="Arial" font-size="9" fill="#666">8</text><text x="382.0" y="524.0" text-anchor="middle" font-family="Arial" font-size="9" fill="#666">8</text><line x1="403.0" y1="46.0" x2="403.0" y2="42.0" stroke="#888" stroke-width="1"/><line x1="403.0" y1="508.0" x2="403.0" y2="512.0" stroke="#888" stroke-width="1"/><line x1="424.0" y1="46.0" x2="424.0" y2="38.0" stroke="#888" stroke-width="1"/><line x1="424.0" y1="508.0" x2="424.0" y2="516.0" stroke="#888" stroke-width="1"/><text x="424.0" y="36.0" text-anchor="middle" font-family="Arial" font-size="9" fill="#666">9</text><text x="424.0" y="524.0" text-anchor="middle" font-family="Arial" font-size="9" fill="#666">9</text><line x1="445.0" y1="46.0" x2="445.0" y2="42.0" stroke="#888" stroke-width="1"/><line x1="445.0" y1="508.0" x2="445.0" y2="512.0" stroke="#888" stroke-width="1"/><line x1="466.0" y1="46.0" x2="466.0" y2="38.0" stroke="#888" stroke-width="1"/><line x1="466.0" y1="508.0" x2="466.0" y2="516.0" stroke="#888" stroke-width="1"/><text x="466.0" y="36.0" text-anchor="middle" font-family="Arial" font-size="9" fill="#666">10</text><text x="466.0" y="524.0" text-anchor="middle" font-family="Arial" font-size="9" fill="#666">10</text><line x1="487.0" y1="46.0" x2="487.0" y2="42.0" stroke="#888" stroke-width="1"/><line x1="487.0" y1="508.0" x2="487.0" y2="512.0" stroke="#888" stroke-width="1"/><line x1="508.0" y1="46.0" x2="508.0" y2="38.0" stroke="#888" stroke-width="1"/><line x1="508.0" y1="508.0" x2="508.0" y2="516.0" stroke="#888" stroke-width="1"/><text x="508.0" y="36.0" text-anchor="middle" font-family="Arial" font-size="9" fill="#666">11</text><text x="508.0" y="524.0" text-anchor="middle" font-family="Arial" font-size="9" fill="#666">11</text><line x1="529.0" y1="46.0" x2="529.0" y2="42.0" stroke="#888" stroke-width="1"/><line x1="529.0" y1="508.0" x2="529.0" y2="512.0" stroke="#888" stroke-width="1"/><line x1="550.0" y1="46.0" x2="550.0" y2="38.0" stroke="#888" stroke-width="1"/><line x1="550.0" y1="508.0" x2="550.0" y2="516.0" stroke="#888" stroke-width="1"/><text x="550.0" y="36.0" text-anchor="middle" font-family="Arial" font-size="9" fill="#666">12</text><text x="550.0" y="524.0" text-anchor="middle" font-family="Arial" font-size="9" fill="#666">12</text><line x1="46.0" y1="508.0" x2="38.0" y2="508.0" stroke="#888" stroke-width="1"/><line x1="550.0" y1="508.0" x2="558.0" y2="508.0" stroke="#888" stroke-width="1"/><text x="36.0" y="511.0" text-anchor="end" font-family="Arial" font-size="9" fill="#666">0</text><text x="560.0" y="511.0" text-anchor="start" font-family="Arial" font-size="9" fill="#666">0</text><line x1="46.0" y1="487.0" x2="42.0" y2="487.0" stroke="#888" stroke-width="1"/><line x1="550.0" y1="487.0" x2="554.0" y2="487.0" stroke="#888" stroke-width="1"/><line x1="46.0" y1="466.0" x2="38.0" y2="466.0" stroke="#888" stroke-width="1"/><line x1="550.0" y1="466.0" x2="558.0" y2="466.0" stroke="#888" stroke-width="1"/><text x="36.0" y="469.0" text-anchor="end" font-family="Arial" font-size="9" fill="#666">1</text><text x="560.0" y="469.0" text-anchor="start" font-family="Arial" font-size="9" fill="#666">1</text><line x1="46.0" y1="445.0" x2="42.0" y2="445.0" stroke="#888" stroke-width="1"/><line x1="550.0" y1="445.0" x2="554.0" y2="445.0" stroke="#888" stroke-width="1"/><line x1="46.0" y1="424.0" x2="38.0" y2="424.0" stroke="#888" stroke-width="1"/><line x1="550.0" y1="424.0" x2="558.0" y2="424.0" stroke="#888" stroke-width="1"/><text x="36.0" y="427.0" text-anchor="end" font-family="Arial" font-size="9" fill="#666">2</text><text x="560.0" y="427.0" text-anchor="start" font-family="Arial" font-size="9" fill="#666">2</text><line x1="46.0" y1="403.0" x2="42.0" y2="403.0" stroke="#888" stroke-width="1"/><line x1="550.0" y1="403.0" x2="554.0" y2="403.0" stroke="#888" stroke-width="1"/><line x1="46.0" y1="382.0" x2="38.0" y2="382.0" stroke="#888" stroke-width="1"/><line x1="550.0" y1="382.0" x2="558.0" y2="382.0" stroke="#888" stroke-width="1"/><text x="36.0" y="385.0" text-anchor="end" font-family="Arial" font-size="9" fill="#666">3</text><text x="560.0" y="385.0" text-anchor="start" font-family="Arial" font-size="9" fill="#666">3</text><line x1="46.0" y1="361.0" x2="42.0" y2="361.0" stroke="#888" stroke-width="1"/><line x1="550.0" y1="361.0" x2="554.0" y2="361.0" stroke="#888" stroke-width="1"/><line x1="46.0" y1="340.0" x2="38.0" y2="340.0" stroke="#888" stroke-width="1"/><line x1="550.0" y1="340.0" x2="558.0" y2="340.0" stroke="#888" stroke-width="1"/><text x="36.0" y="343.0" text-anchor="end" font-family="Arial" font-size="9" fill="#666">4</text><text x="560.0" y="343.0" text-anchor="start" font-family="Arial" font-size="9" fill="#666">4</text><line x1="46.0" y1="319.0" x2="42.0" y2="319.0" stroke="#888" stroke-width="1"/><line x1="550.0" y1="319.0" x2="554.0" y2="319.0" stroke="#888" stroke-width="1"/><line x1="46.0" y1="298.0" x2="38.0" y2="298.0" stroke="#888" stroke-width="1"/><line x1="550.0" y1="298.0" x2="558.0" y2="298.0" stroke="#888" stroke-width="1"/><text x="36.0" y="301.0" text-anchor="end" font-family="Arial" font-size="9" fill="#666">5</text><text x="560.0" y="301.0" text-anchor="start" font-family="Arial" font-size="9" fill="#666">5</text><line x1="46.0" y1="277.0" x2="42.0" y2="277.0" stroke="#888" stroke-width="1"/><line x1="550.0" y1="277.0" x2="554.0" y2="277.0" stroke="#888" stroke-width="1"/><line x1="46.0" y1="256.0" x2="38.0" y2="256.0" stroke="#888" stroke-width="1"/><line x1="550.0" y1="256.0" x2="558.0" y2="256.0" stroke="#888" stroke-width="1"/><text x="36.0" y="259.0" text-anchor="end" font-family="Arial" font-size="9" fill="#666">6</text><text x="560.0" y="259.0" text-anchor="start" font-family="Arial" font-size="9" fill="#666">6</text><line x1="46.0" y1="235.0" x2="42.0" y2="235.0" stroke="#888" stroke-width="1"/><line x1="550.0" y1="235.0" x2="554.0" y2="235.0" stroke="#888" stroke-width="1"/><line x1="46.0" y1="214.0" x2="38.0" y2="214.0" stroke="#888" stroke-width="1"/><line x1="550.0" y1="214.0" x2="558.0" y2="214.0" stroke="#888" stroke-width="1"/><text x="36.0" y="217.0" text-anchor="end" font-family="Arial" font-size="9" fill="#666">7</text><text x="560.0" y="217.0" text-anchor="start" font-family="Arial" font-size="9" fill="#666">7</text><line x1="46.0" y1="193.0" x2="42.0" y2="193.0" stroke="#888" stroke-width="1"/><line x1="550.0" y1="193.0" x2="554.0" y2="193.0" stroke="#888" stroke-width="1"/><line x1="46.0" y1="172.0" x2="38.0" y2="172.0" stroke="#888" stroke-width="1"/><line x1="550.0" y1="172.0" x2="558.0" y2="172.0" stroke="#888" stroke-width="1"/><text x="36.0" y="175.0" text-anchor="end" font-family="Arial" font-size="9" fill="#666">8</text><text x="560.0" y="175.0" text-anchor="start" font-family="Arial" font-size="9" fill="#666">8</text><line x1="46.0" y1="151.0" x2="42.0" y2="151.0" stroke="#888" stroke-width="1"/><line x1="550.0" y1="151.0" x2="554.0" y2="151.0" stroke="#888" stroke-width="1"/><line x1="46.0" y1="130.0" x2="38.0" y2="130.0" stroke="#888" stroke-width="1"/><line x1="550.0" y1="130.0" x2="558.0" y2="130.0" stroke="#888" stroke-width="1"/><text x="36.0" y="133.0" text-anchor="end" font-family="Arial" font-size="9" fill="#666">9</text><text x="560.0" y="133.0" text-anchor="start" font-family="Arial" font-size="9" fill="#666">9</text><line x1="46.0" y1="109.0" x2="42.0" y2="109.0" stroke="#888" stroke-width="1"/><line x1="550.0" y1="109.0" x2="554.0" y2="109.0" stroke="#888" stroke-width="1"/><line x1="46.0" y1="88.0" x2="38.0" y2="88.0" stroke="#888" stroke-width="1"/><line x1="550.0" y1="88.0" x2="558.0" y2="88.0" stroke="#888" stroke-width="1"/><text x="36.0" y="91.0" text-anchor="end" font-family="Arial" font-size="9" fill="#666">10</text><text x="560.0" y="91.0" text-anchor="start" font-family="Arial" font-size="9" fill="#666">10</text><line x1="46.0" y1="67.0" x2="42.0" y2="67.0" stroke="#888" stroke-width="1"/><line x1="550.0" y1="67.0" x2="554.0" y2="67.0" stroke="#888" stroke-width="1"/><line x1="46.0" y1="46.0" x2="38.0" y2="46.0" stroke="#888" stroke-width="1"/><line x1="550.0" y1="46.0" x2="558.0" y2="46.0" stroke="#888" stroke-width="1"/><text x="36.0" y="49.0" text-anchor="end" font-family="Arial" font-size="9" fill="#666">11</text><text x="560.0" y="49.0" text-anchor="start" font-family="Arial" font-size="9" fill="#666">11</text><rect x="130.0" y="130.0" width="336.0" height="294.0" fill="none" stroke="#9aa" stroke-width="1" stroke-dasharray="3 3"/><rect x="424.0" y="285.4" width="109.2" height="210.0" fill="#f2f2f2" stroke="#333" stroke-width="1.5" stroke-dasharray="6 4"/><text x="478.6" y="387.8" text-anchor="middle" font-family="Arial" font-size="12" font-weight="bold" fill="#222">CARPORT</text><text x="478.6" y="403.6" text-anchor="middle" font-family="Arial" font-size="10" fill="#555">2.6×5.0 m</text><rect x="382.0" y="58.6" width="84.0" height="67.2" fill="#f2f2f2" stroke="#333" stroke-width="1.5" stroke-dasharray="6 4"/><text x="424.0" y="87.9" text-anchor="middle" font-family="Arial" font-size="8" font-weight="bold" fill="#222">DIRTY KITCHEN</text><text x="424.0" y="103.1" text-anchor="middle" font-family="Arial" font-size="10" fill="#555">2.0×1.6 m</text><rect x="130.0" y="58.6" width="252.0" height="67.2" fill="#f2f2f2" stroke="#333" stroke-width="1.5" stroke-dasharray="6 4"/><text x="256.0" y="89.6" text-anchor="middle" font-family="Arial" font-size="12" font-weight="bold" fill="#222">SERVICE</text><text x="256.0" y="105.4" text-anchor="middle" font-family="Arial" font-size="10" fill="#555">6.0×1.6 m</text><rect x="130.0" y="287.5" width="155.4" height="136.5" fill="#d9ead3" stroke="#333" stroke-width="1.5"/><text x="207.7" y="353.1" text-anchor="middle" font-family="Arial" font-size="12" font-weight="bold" fill="#222">MASTER BR</text><text x="207.7" y="368.9" text-anchor="middle" font-family="Arial" font-size="10" fill="#555">3.7×3.2 m · 12.0 sqm</text><rect x="130.0" y="235.0" width="50.4" height="52.5" fill="#ead1dc" stroke="#333" stroke-width="1.5"/><text x="155.2" y="265.1" text-anchor="middle" font-family="Arial" font-size="9" font-weight="bold" fill="#222">ENSUITE</text><rect x="130.0" y="130.0" width="155.4" height="105.0" fill="#d9ead3" stroke="#333" stroke-width="1.5"/><text x="207.7" y="179.8" text-anchor="middle" font-family="Arial" font-size="12" font-weight="bold" fill="#222">BEDROOM</text><text x="207.7" y="195.7" text-anchor="middle" font-family="Arial" font-size="10" fill="#555">3.7×2.5 m · 9.2 sqm</text><rect x="180.4" y="235.0" width="105.0" height="52.5" fill="#ead1dc" stroke="#333" stroke-width="1.5"/><text x="232.9" y="252.8" text-anchor="middle" font-family="Arial" font-size="12" font-weight="bold" fill="#222">T&amp;B</text><text x="232.9" y="268.6" text-anchor="middle" font-family="Arial" font-size="10" fill="#555">2.5×1.2 m</text><text x="232.9" y="280.1" text-anchor="middle" font-family="Arial" font-size="10" fill="#555">3.1 sqm</text><rect x="285.4" y="312.7" width="138.6" height="111.3" fill="#cfe2f3" stroke="#333" stroke-width="1.5"/><text x="354.7" y="365.7" text-anchor="middle" font-family="Arial" font-size="12" font-weight="bold" fill="#222">LIVING</text><text x="354.7" y="381.5" text-anchor="middle" font-family="Arial" font-size="10" fill="#555">3.3×2.6 m · 8.7 sqm</text><rect x="285.4" y="130.0" width="96.6" height="182.7" fill="#cfe2f3" stroke="#333" stroke-width="1.5"/><text x="333.7" y="212.9" text-anchor="middle" font-family="Arial" font-size="12" font-weight="bold" fill="#222">DINING</text><text x="333.7" y="228.8" text-anchor="middle" font-family="Arial" font-size="10" fill="#555">2.3×4.3 m</text><text x="333.7" y="240.2" text-anchor="middle" font-family="Arial" font-size="10" fill="#555">10.0 sqm</text><rect x="382.0" y="130.0" width="84.0" height="126.0" fill="#fce5cd" stroke="#333" stroke-width="1.5"/><text x="424.0" y="184.6" text-anchor="middle" font-family="Arial" font-size="12" font-weight="bold" fill="#222">KITCHEN</text><text x="424.0" y="200.4" text-anchor="middle" font-family="Arial" font-size="10" fill="#555">2.0×3.0 m</text><text x="424.0" y="211.9" text-anchor="middle" font-family="Arial" font-size="10" fill="#555">6.0 sqm</text><text x="298.0" y="542.0" text-anchor="middle" font-family="Arial" font-size="12" font-weight="bold" fill="#888">FRONT (street)</text><rect x="130.00" y="285.40" width="50.40" height="4.20" fill="#555" stroke="none"/><rect x="180.40" y="285.40" width="105.00" height="4.20" fill="#555" stroke="none"/><rect x="283.30" y="312.70" width="4.20" height="111.30" fill="#555" stroke="none"/><rect x="283.30" y="287.50" width="4.20" height="25.20" fill="#555" stroke="none"/><rect x="130.00" y="232.90" width="50.40" height="4.20" fill="#555" stroke="none"/><rect x="178.30" y="235.00" width="4.20" height="52.50" fill="#555" stroke="none"/><rect x="180.40" y="232.90" width="105.00" height="4.20" fill="#555" stroke="none"/><rect x="283.30" y="130.00" width="4.20" height="105.00" fill="#555" stroke="none"/><rect x="283.30" y="235.00" width="4.20" height="52.50" fill="#555" stroke="none"/><rect x="419.80" y="312.70" width="8.40" height="111.30" fill="#555" stroke="none"/><rect x="424.00" y="251.80" width="42.00" height="8.40" fill="#555" stroke="none"/><rect x="130.00" y="419.80" width="155.40" height="8.40" fill="#555" stroke="none"/><rect x="125.80" y="287.50" width="8.40" height="136.50" fill="#555" stroke="none"/><rect x="125.80" y="235.00" width="8.40" height="52.50" fill="#555" stroke="none"/><rect x="130.00" y="125.80" width="155.40" height="8.40" fill="#555" stroke="none"/><rect x="125.80" y="130.00" width="8.40" height="105.00" fill="#555" stroke="none"/><rect x="382.00" y="308.50" width="42.00" height="8.40" fill="#555" stroke="none"/><rect x="285.40" y="419.80" width="138.60" height="8.40" fill="#555" stroke="none"/><rect x="285.40" y="125.80" width="96.60" height="8.40" fill="#555" stroke="none"/><rect x="377.80" y="256.00" width="8.40" height="56.70" fill="#555" stroke="none"/><rect x="382.00" y="125.80" width="84.00" height="8.40" fill="#555" stroke="none"/><rect x="382.00" y="251.80" width="42.00" height="8.40" fill="#555" stroke="none"/><rect x="461.80" y="130.00" width="8.40" height="126.00" fill="#555" stroke="none"/><rect x="125.80" y="283.30" width="8.40" height="8.40" fill="#555" stroke="none"/><rect x="176.20" y="283.30" width="8.40" height="8.40" fill="#555" stroke="none"/><rect x="176.20" y="283.30" width="8.40" height="8.40" fill="#555" stroke="none"/><rect x="281.20" y="283.30" width="8.40" height="8.40" fill="#555" stroke="none"/><rect x="281.20" y="419.80" width="8.40" height="8.40" fill="#555" stroke="none"/><rect x="281.20" y="308.50" width="8.40" height="8.40" fill="#555" stroke="none"/><rect x="281.20" y="308.50" width="8.40" height="8.40" fill="#555" stroke="none"/><rect x="281.20" y="283.30" width="8.40" height="8.40" fill="#555" stroke="none"/><rect x="125.80" y="230.80" width="8.40" height="8.40" fill="#555" stroke="none"/><rect x="176.20" y="230.80" width="8.40" height="8.40" fill="#555" stroke="none"/><rect x="176.20" y="283.30" width="8.40" height="8.40" fill="#555" stroke="none"/><rect x="176.20" y="230.80" width="8.40" height="8.40" fill="#555" stroke="none"/><rect x="176.20" y="230.80" width="8.40" height="8.40" fill="#555" stroke="none"/><rect x="281.20" y="230.80" width="8.40" height="8.40" fill="#555" stroke="none"/><rect x="281.20" y="230.80" width="8.40" height="8.40" fill="#555" stroke="none"/><rect x="281.20" y="125.80" width="8.40" height="8.40" fill="#555" stroke="none"/><rect x="281.20" y="283.30" width="8.40" height="8.40" fill="#555" stroke="none"/><rect x="281.20" y="230.80" width="8.40" height="8.40" fill="#555" stroke="none"/><rect x="419.80" y="419.80" width="8.40" height="8.40" fill="#555" stroke="none"/><rect x="419.80" y="308.50" width="8.40" height="8.40" fill="#555" stroke="none"/><rect x="419.80" y="251.80" width="8.40" height="8.40" fill="#555" stroke="none"/><rect x="461.80" y="251.80" width="8.40" height="8.40" fill="#555" stroke="none"/><rect x="125.80" y="419.80" width="8.40" height="8.40" fill="#555" stroke="none"/><rect x="281.20" y="419.80" width="8.40" height="8.40" fill="#555" stroke="none"/><rect x="125.80" y="419.80" width="8.40" height="8.40" fill="#555" stroke="none"/><rect x="125.80" y="283.30" width="8.40" height="8.40" fill="#555" stroke="none"/><rect x="125.80" y="283.30" width="8.40" height="8.40" fill="#555" stroke="none"/><rect x="125.80" y="230.80" width="8.40" height="8.40" fill="#555" stroke="none"/><rect x="125.80" y="125.80" width="8.40" height="8.40" fill="#555" stroke="none"/><rect x="281.20" y="125.80" width="8.40" height="8.40" fill="#555" stroke="none"/><rect x="125.80" y="230.80" width="8.40" height="8.40" fill="#555" stroke="none"/><rect x="125.80" y="125.80" width="8.40" height="8.40" fill="#555" stroke="none"/><rect x="377.80" y="308.50" width="8.40" height="8.40" fill="#555" stroke="none"/><rect x="419.80" y="308.50" width="8.40" height="8.40" fill="#555" stroke="none"/><rect x="281.20" y="419.80" width="8.40" height="8.40" fill="#555" stroke="none"/><rect x="419.80" y="419.80" width="8.40" height="8.40" fill="#555" stroke="none"/><rect x="281.20" y="125.80" width="8.40" height="8.40" fill="#555" stroke="none"/><rect x="377.80" y="125.80" width="8.40" height="8.40" fill="#555" stroke="none"/><rect x="377.80" y="308.50" width="8.40" height="8.40" fill="#555" stroke="none"/><rect x="377.80" y="251.80" width="8.40" height="8.40" fill="#555" stroke="none"/><rect x="377.80" y="125.80" width="8.40" height="8.40" fill="#555" stroke="none"/><rect x="461.80" y="125.80" width="8.40" height="8.40" fill="#555" stroke="none"/><rect x="377.80" y="251.80" width="8.40" height="8.40" fill="#555" stroke="none"/><rect x="419.80" y="251.80" width="8.40" height="8.40" fill="#555" stroke="none"/><rect x="461.80" y="251.80" width="8.40" height="8.40" fill="#555" stroke="none"/><rect x="461.80" y="125.80" width="8.40" height="8.40" fill="#555" stroke="none"/><rect x="289.6" y="312.7" width="88.2" height="5.0" fill="#cfe2f3" stroke="none"/><rect x="289.6" y="307.7" width="88.2" height="5.0" fill="#cfe2f3" stroke="none"/><rect x="377.0" y="134.2" width="5.0" height="117.6" fill="#cfe2f3" stroke="none"/><rect x="382.0" y="134.2" width="5.0" height="117.6" fill="#fce5cd" stroke="none"/><rect x="136.3" y="287.5" width="29.4" height="5.0" fill="#d9ead3" stroke="none"/><rect x="136.3" y="282.5" width="29.4" height="5.0" fill="#ead1dc" stroke="none"/><line x1="136.3" y1="287.5" x2="136.3" y2="258.1" stroke="#444" stroke-width="1.4"/><path d="M 136.3 258.1 A 29.4 29.4 0 0 1 165.7 287.5" fill="none" stroke="#999" stroke-width="0.7" stroke-dasharray="2 2"/><rect x="280.4" y="384.1" width="5.0" height="33.6" fill="#d9ead3" stroke="none"/><rect x="285.4" y="384.1" width="5.0" height="33.6" fill="#cfe2f3" stroke="none"/><line x1="285.4" y1="417.7" x2="251.8" y2="417.7" stroke="#444" stroke-width="1.4"/><path d="M 251.8 417.7 A 33.6 33.6 0 0 1 285.4 384.1" fill="none" stroke="#999" stroke-width="0.7" stroke-dasharray="2 2"/><rect x="280.4" y="195.1" width="5.0" height="33.6" fill="#d9ead3" stroke="none"/><rect x="285.4" y="195.1" width="5.0" height="33.6" fill="#cfe2f3" stroke="none"/><line x1="285.4" y1="228.7" x2="251.8" y2="228.7" stroke="#444" stroke-width="1.4"/><path d="M 251.8 228.7 A 33.6 33.6 0 0 1 285.4 195.1" fill="none" stroke="#999" stroke-width="0.7" stroke-dasharray="2 2"/><rect x="280.4" y="251.8" width="5.0" height="29.4" fill="#ead1dc" stroke="none"/><rect x="285.4" y="251.8" width="5.0" height="29.4" fill="#cfe2f3" stroke="none"/><line x1="285.4" y1="281.2" x2="256.0" y2="281.2" stroke="#444" stroke-width="1.4"/><path d="M 256.0 281.2 A 29.4 29.4 0 0 1 285.4 251.8" fill="none" stroke="#999" stroke-width="0.7" stroke-dasharray="2 2"/><rect x="291.7" y="419.0" width="37.8" height="5.0" fill="#cfe2f3" stroke="none"/><rect x="291.7" y="424.0" width="37.8" height="5.0" fill="#fbfbf7" stroke="none"/><line x1="291.7" y1="424.0" x2="291.7" y2="386.2" stroke="#444" stroke-width="1.4"/><path d="M 291.7 386.2 A 37.8 37.8 0 0 1 329.5 424.0" fill="none" stroke="#999" stroke-width="0.7" stroke-dasharray="2 2"/><rect x="426.1" y="130.0" width="33.6" height="5.0" fill="#fce5cd" stroke="none"/><rect x="426.1" y="125.0" width="33.6" height="5.0" fill="#fbfbf7" stroke="none"/><line x1="459.7" y1="130.0" x2="459.7" y2="163.6" stroke="#444" stroke-width="1.4"/><path d="M 459.7 163.6 A 33.6 33.6 0 0 1 426.1 130.0" fill="none" stroke="#999" stroke-width="0.7" stroke-dasharray="2 2"/><rect x="165.0" y="419.0" width="85.5" height="5.0" fill="#d9ead3" stroke="none"/><rect x="165.0" y="424.0" width="85.5" height="5.0" fill="#fbfbf7" stroke="none"/><line x1="165.0" y1="421.0" x2="250.5" y2="421.0" stroke="#222" stroke-width="1.0"/><line x1="165.0" y1="424.0" x2="250.5" y2="424.0" stroke="#222" stroke-width="1.0"/><line x1="165.0" y1="427.0" x2="250.5" y2="427.0" stroke="#222" stroke-width="1.0"/><rect x="130.0" y="318.2" width="5.0" height="75.1" fill="#d9ead3" stroke="none"/><rect x="125.0" y="318.2" width="5.0" height="75.1" fill="#fbfbf7" stroke="none"/><line x1="127.0" y1="393.3" x2="127.0" y2="318.2" stroke="#222" stroke-width="1.0"/><line x1="130.0" y1="393.3" x2="130.0" y2="318.2" stroke="#222" stroke-width="1.0"/><line x1="133.0" y1="393.3" x2="133.0" y2="318.2" stroke="#222" stroke-width="1.0"/><rect x="130.0" y="248.1" width="5.0" height="26.2" fill="#ead1dc" stroke="none"/><rect x="125.0" y="248.1" width="5.0" height="26.2" fill="#fbfbf7" stroke="none"/><line x1="127.0" y1="274.4" x2="127.0" y2="248.1" stroke="#222" stroke-width="1.0"/><line x1="130.0" y1="274.4" x2="130.0" y2="248.1" stroke="#222" stroke-width="1.0"/><line x1="133.0" y1="274.4" x2="133.0" y2="248.1" stroke="#222" stroke-width="1.0"/><rect x="165.0" y="130.0" width="85.5" height="5.0" fill="#d9ead3" stroke="none"/><rect x="165.0" y="125.0" width="85.5" height="5.0" fill="#fbfbf7" stroke="none"/><line x1="165.0" y1="127.0" x2="250.5" y2="127.0" stroke="#222" stroke-width="1.0"/><line x1="165.0" y1="130.0" x2="250.5" y2="130.0" stroke="#222" stroke-width="1.0"/><line x1="165.0" y1="133.0" x2="250.5" y2="133.0" stroke="#222" stroke-width="1.0"/><rect x="130.0" y="153.6" width="5.0" height="57.8" fill="#d9ead3" stroke="none"/><rect x="125.0" y="153.6" width="5.0" height="57.8" fill="#fbfbf7" stroke="none"/><line x1="127.0" y1="211.4" x2="127.0" y2="153.6" stroke="#222" stroke-width="1.0"/><line x1="130.0" y1="211.4" x2="130.0" y2="153.6" stroke="#222" stroke-width="1.0"/><line x1="133.0" y1="211.4" x2="133.0" y2="153.6" stroke="#222" stroke-width="1.0"/><rect x="360.5" y="419.0" width="45.1" height="5.0" fill="#cfe2f3" stroke="none"/><rect x="360.5" y="424.0" width="45.1" height="5.0" fill="#fbfbf7" stroke="none"/><line x1="360.5" y1="421.0" x2="405.6" y2="421.0" stroke="#222" stroke-width="1.0"/><line x1="360.5" y1="424.0" x2="405.6" y2="424.0" stroke="#222" stroke-width="1.0"/><line x1="360.5" y1="427.0" x2="405.6" y2="427.0" stroke="#222" stroke-width="1.0"/><rect x="307.1" y="130.0" width="53.1" height="5.0" fill="#cfe2f3" stroke="none"/><rect x="307.1" y="125.0" width="53.1" height="5.0" fill="#fbfbf7" stroke="none"/><line x1="307.1" y1="127.0" x2="360.2" y2="127.0" stroke="#222" stroke-width="1.0"/><line x1="307.1" y1="130.0" x2="360.2" y2="130.0" stroke="#222" stroke-width="1.0"/><line x1="307.1" y1="133.0" x2="360.2" y2="133.0" stroke="#222" stroke-width="1.0"/><rect x="461.0" y="158.4" width="5.0" height="69.3" fill="#fce5cd" stroke="none"/><rect x="466.0" y="158.4" width="5.0" height="69.3" fill="#fbfbf7" stroke="none"/><line x1="463.0" y1="227.7" x2="463.0" y2="158.4" stroke="#222" stroke-width="1.0"/><line x1="466.0" y1="227.7" x2="466.0" y2="158.4" stroke="#222" stroke-width="1.0"/><line x1="469.0" y1="227.7" x2="469.0" y2="158.4" stroke="#222" stroke-width="1.0"/></svg>