<svg xmlns="http://www.w3.org/2000/svg" width="596" height="596" viewBox="0 0 596 596"><rect x="0" y="0" width="596" height="596" fill="white"/><rect x="46.0" y="46.0" width="504.0" height="504.0" fill="#fbfbf7" stroke="#333" stroke-width="1.5"/><line x1="46.0" y1="46.0" x2="46.0" y2="38.0" stroke="#888" stroke-width="1"/><line x1="46.0" y1="550.0" x2="46.0" y2="558.0" stroke="#888" stroke-width="1"/><text x="46.0" y="36.0" text-anchor="middle" font-family="Arial" font-size="9" fill="#666">0</text><text x="46.0" y="566.0" text-anchor="middle" font-family="Arial" font-size="9" fill="#666">0</text><line x1="67.0" y1="46.0" x2="67.0" y2="42.0" stroke="#888" stroke-width="1"/><line x1="67.0" y1="550.0" x2="67.0" y2="554.0" stroke="#888" stroke-width="1"/><line x1="88.0" y1="46.0" x2="88.0" y2="38.0" stroke="#888" stroke-width="1"/><line x1="88.0" y1="550.0" x2="88.0" y2="558.0" stroke="#888" stroke-width="1"/><text x="88.0" y="36.0" text-anchor="middle" font-family="Arial" font-size="9" fill="#666">1</text><text x="88.0" y="566.0" text-anchor="middle" font-family="Arial" font-size="9" fill="#666">1</text><line x1="109.0" y1="46.0" x2="109.0" y2="42.0" stroke="#888" stroke-width="1"/><line x1="109.0" y1="550.0" x2="109.0" y2="554.0" stroke="#888" stroke-width="1"/><line x1="130.0" y1="46.0" x2="130.0" y2="38.0" stroke="#888" stroke-width="1"/><line x1="130.0" y1="550.0" x2="130.0" y2="558.0" stroke="#888" stroke-width="1"/><text x="130.0" y="36.0" text-anchor="middle" font-family="Arial" font-size="9" fill="#666">2</text><text x="130.0" y="566.0" text-anchor="middle" font-family="Arial" font-size="9" fill="#666">2</text><line x1="151.0" y1="46.0" x2="151.0" y2="42.0" stroke="#888" stroke-width="1"/><line x1="151.0" y1="550.0" x2="151.0" y2="554.0" stroke="#888" stroke-width="1"/><line x1="172.0" y1="46.0" x2="172.0" y2="38.0" stroke="#888" stroke-width="1"/><line x1="172.0" y1="550.0" x2="172.0" y2="558.0" stroke="#888" stroke-width="1"/><text x="172.0" y="36.0" text-anchor="middle" font-family="Arial" font-size="9" fill="#666">3</text><text x="172.0" y="566.0" text-anchor="middle" font-family="Arial" font-size="9" fill="#666">3</text><line x1="193.0" y1="46.0" x2="193.0" y2="42.0" stroke="#888" stroke-width="1"/><line x1="193.0" y1="550.0" x2="193.0" y2="554.0" stroke="#888" stroke-width="1"/><line x1="214.0" y1="46.0" x2="214.0" y2="38.0" stroke="#888" stroke-width="1"/><line x1="214.0" y1="550.0" x2="214.0" y2="558.0" stroke="#888" stroke-width="1"/><text x="214.0" y="36.0" text-anchor="middle" font-family="Arial" font-size="9" fill="#666">4</text><text x="214.0" y="566.0" text-anchor="middle" font-family="Arial" font-size="9" fill="#666">4</text><line x1="235.0" y1="46.0" x2="235.0" y2="42.0" stroke="#888" stroke-width="1"/><line x1="235.0" y1="550.0" x2="235.0" y2="554.0" stroke="#888" stroke-width="1"/><line x1="256.0" y1="46.0" x2="256.0" y2="38.0" stroke="#888" stroke-width="1"/><line x1="256.0" y1="550.0" x2="256.0" y2="558.0" stroke="#888" stroke-width="1"/><text x="256.0" y="36.0" text-anchor="middle" font-family="Arial" font-size="9" fill="#666">5</text><text x="256.0" y="566.0" text-anchor="middle" font-family="Arial" font-size="9" fill="#666">5</text><line x1="277.0" y1="46.0" x2="277.0" y2="42.0" stroke="#888" stroke-width="1"/><line x1="277.0" y1="550.0" x2="277.0" y2="554.0" stroke="#888" stroke-width="1"/><line x1="298.0" y1="46.0" x2="298.0" y2="38.0" stroke="#888" stroke-width="1"/><line x1="298.0" y1="550.0" x2="298.0" y2="558.0" stroke="#888" stroke-width="1"/><text x="298.0" y="36.0" text-anchor="middle" font-family="Arial" font-size="9" fill="#666">6</text><text x="298.0" y="566.0" text-anchor="middle" font-family="Arial" font-size="9" fill="#666">6</text><line x1="319.0" y1="46.0" x2="319.0" y2="42.0" stroke="#888" stroke-width="1"/><line x1="319.0" y1="550.0" x2="319.0" y2="554.0" stroke="#888" stroke-width="1"/><line x1="340.0" y1="46.0" x2="340.0" y2="38.0" stroke="#888" stroke-width="1"/><line x1="340.0" y1="550.0" x2="340.0" y2="558.0" stroke="#888" stroke-width="1"/><text x="340.0" y="36.0" text-anchor="middle" font-family="Arial" font-size="9" fill="#666">7</text><text x="340.0" y="566.0" text-anchor="middle" font-family="Arial" font-size="9" fill="#666">7</text><line x1="361.0" y1="46.0" x2="361.0" y2="42.0" stroke="#888" stroke-width="1"/><line x1="361.0" y1="550.0" x2="361.0" y2="554.0" stroke="#888" stroke-width="1"/><line x1="382.0" y1="46.0" x2="382.0" y2="38.0" stroke="#888" stroke-width="1"/><line x1="382.0" y1="550.0" x2="382.0" y2="558.0" stroke="#888" stroke-width="1"/><text x="382.0" y="36.0" text-anchor="middle" font-family="Arial" font-size="9" fill="#666">8</text><text x="382.0" y="566.0" text-anchor="middle" font-family="Arial" font-size="9" fill="#666">8</text><line x1="403.0" y1="46.0" x2="403.0" y2="42.0" stroke="#888" stroke-width="1"/><line x1="403.0" y1="550.0" x2="403.0" y2="554.0" stroke="#888" stroke-width="1"/><line x1="424.0" y1="46.0" x2="424.0" y2="38.0" stroke="#888" stroke-width="1"/><line x1="424.0" y1="550.0" x2="424.0" y2="558.0" stroke="#888" stroke-width="1"/><text x="424.0" y="36.0" text-anchor="middle" font-family="Arial" font-size="9" fill="#666">9</text><text x="424.0" y="566.0" text-anchor="middle" font-family="Arial" font-size="9" fill="#666">9</text><line x1="445.0" y1="46.0" x2="445.0" y2="42.0" stroke="#888" stroke-width="1"/><line x1="445.0" y1="550.0" x2="445.0" y2="554.0" stroke="#888" stroke-width="1"/><line x1="466.0" y1="46.0" x2="466.0" y2="38.0" stroke="#888" stroke-width="1"/><line x1="466.0" y1="550.0" x2="466.0" y2="558.0" stroke="#888" stroke-width="1"/><text x="466.0" y="36.0" text-anchor="middle" font-family="Arial" font-size="9" fill="#666">10</text><text x="466.0" y="566.0" text-anchor="middle" font-family="Arial" font-size="9" fill="#666">10</text><line x1="487.0" y1="46.0" x2="487.0" y2="42.0" stroke="#888" stroke-width="1"/><line x1="487.0" y1="550.0" x2="487.0" y2="554.0" stroke="#888" stroke-width="1"/><line x1="508.0" y1="46.0" x2="508.0" y2="38.0" stroke="#888" stroke-width="1"/><line x1="508.0" y1="550.0" x2="508.0" y2="558.0" stroke="#888" stroke-width="1"/><text x="508.0" y="36.0" text-anchor="middle" font-family="Arial" font-size="9" fill="#666">11</text><text x="508.0" y="566.0" text-anchor="middle" font-family="Arial" font-size="9" fill="#666">11</text><line x1="529.0" y1="46.0" x2="529.0" y2="42.0" stroke="#888" stroke-width="1"/><line x1="529.0" y1="550.0" x2="529.0" y2="554.0" stroke="#888" stroke-width="1"/><line x1="550.0" y1="46.0" x2="550.0" y2="38.0" stroke="#888" stroke-width="1"/><line x1="550.0" y1="550.0" x2="550.0" y2="558.0" stroke="#888" stroke-width="1"/><text x="550.0" y="36.0" text-anchor="middle" font-family="Arial" font-size="9" fill="#666">12</text><text x="550.0" y="566.0" text-anchor="middle" font-family="Arial" font-size="9" fill="#666">12</text><line x1="46.0" y1="550.0" x2="38.0" y2="550.0" stroke="#888" stroke-width="1"/><line x1="550.0" y1="550.0" x2="558.0" y2="550.0" stroke="#888" stroke-width="1"/><text x="36.0" y="553.0" text-anchor="end" font-family="Arial" font-size="9" fill="#666">0</text><text x="560.0" y="553.0" text-anchor="start" font-family="Arial" font-size="9" fill="#666">0</text><line x1="46.0" y1="529.0" x2="42.0" y2="529.0" stroke="#888" stroke-width="1"/><line x1="550.0" y1="529.0" x2="554.0" y2="529.0" stroke="#888" stroke-width="1"/><line x1="46.0" y1="508.0" x2="38.0" y2="508.0" stroke="#888" stroke-width="1"/><line x1="550.0" y1="508.0" x2="558.0" y2="508.0" stroke="#888" stroke-width="1"/><text x="36.0" y="511.0" text-anchor="end" font-family="Arial" font-size="9" fill="#666">1</text><text x="560.0" y="511.0" text-anchor="start" font-family="Arial" font-size="9" fill="#666">1</text><line x1="46.0" y1="487.0" x2="42.0" y2="487.0" stroke="#888" stroke-width="1"/><line x1="550.0" y1="487.0" x2="554.0" y2="487.0" stroke="#888" stroke-width="1"/><line x1="46.0" y1="466.0" x2="38.0" y2="466.0" stroke="#888" stroke-width="1"/><line x1="550.0" y1="466.0" x2="558.0" y2="466.0" stroke="#888" stroke-width="1"/><text x="36.0" y="469.0" text-anchor="end" font-family="Arial" font-size="9" fill="#666">2</text><text x="560.0" y="469.0" text-anchor="start" font-family="Arial" font-size="9" fill="#666">2</text><line x1="46.0" y1="445.0" x2="42.0" y2="445.0" stroke="#888" stroke-width="1"/><line x1="550.0" y1="445.0" x2="554.0" y2="445.0" stroke="#888" stroke-width="1"/><line x1="46.0" y1="424.0" x2="38.0" y2="424.0" stroke="#888" stroke-width="1"/><line x1="550.0" y1="424.0" x2="558.0" y2="424.0" stroke="#888" stroke-width="1"/><text x="36.0" y="427.0" text-anchor="end" font-family="Arial" font-size="9" fill="#666">3</text><text x="560.0" y="427.0" text-anchor="start" font-family="Arial" font-size="9" fill="#666">3</text><line x1="46.0" y1="403.0" x2="42.0" y2="403.0" stroke="#888" stroke-width="1"/><line x1="550.0" y1="403.0" x2="554.0" y2="403.0" stroke="#888" stroke-width="1"/><line x1="46.0" y1="382.0" x2="38.0" y2="382.0" stroke="#888" stroke-width="1"/><line x1="550.0" y1="382.0" x2="558.0" y2="382.0" stroke="#888" stroke-width="1"/><text x="36.0" y="385.0" text-anchor="end" font-family="Arial" font-size="9" fill="#666">4</text><text x="560.0" y="385.0" text-anchor="start" font-family="Arial" font-size="9" fill="#666">4</text><line x1="46.0" y1="361.0" x2="42.0" y2="361.0" stroke="#888" stroke-width="1"/><line x1="550.0" y1="361.0" x2="554.0" y2="361.0" stroke="#888" stroke-width="1"/><line x1="46.0" y1="340.0" x2="38.0" y2="340.0" stroke="#888" stroke-width="1"/><line x1="550.0" y1="340.0" x2="558.0" y2="340.0" stroke="#888" stroke-width="1"/><text x="36.0" y="343.0" text-anchor="end" font-family="Arial" font-size="9" fill="#666">5</text><text x="560.0" y="343.0" text-anchor="start" font-family="Arial" font-size="9" fill="#666">5</text><line x1="46.0" y1="319.0" x2="42.0" y2="319.0" stroke="#888" stroke-width="1"/><line x1="550.0" y1="319.0" x2="554.0" y2="319.0" stroke="#888" stroke-width="1"/><line x1="46.0" y1="298.0" x2="38.0" y2="298.0" stroke="#888" stroke-width="1"/><line x1="550.0" y1="298.0" x2="558.0" y2="298.0" stroke="#888" stroke-width="1"/><text x="36.0" y="301.0" text-anchor="end" font-family="Arial" font-size="9" fill="#666">6</text><text x="560.0" y="301.0" text-anchor="start" font-family="Arial" font-size="9" fill="#666">6</text><line x1="46.0" y1="277.0" x2="42.0" y2="277.0" stroke="#888" stroke-width="1"/><line x1="550.0" y1="277.0" x2="554.0" y2="277.0" stroke="#888" stroke-width="1"/><line x1="46.0" y1="256.0" x2="38.0" y2="256.0" stroke="#888" stroke-width="1"/><line x1="550.0" y1="256.0" x2="558.0" y2="256.0" stroke="#888" stroke-width="1"/><text x="36.0" y="259.0" text-anchor="end" font-family="Arial" font-size="9" fill="#666">7</text><text x="560.0" y="259.0" text-anchor="start" font-family="Arial" font-size="9" fill="#666">7</text><line x1="46.0" y1="235.0" x2="42.0" y2="235.0" stroke="#888" stroke-width="1"/><line x1="550.0" y1="235.0" x2="554.0" y2="235.0" stroke="#888" stroke-width="1"/><line x1="46.0" y1="214.0" x2="38.0" y2="214.0" stroke="#888" stroke-width="1"/><line x1="550.0" y1="214.0" x2="558.0" y2="214.0" stroke="#888" stroke-width="1"/><text x="36.0" y="217.0" text-anchor="end" font-family="Arial" font-size="9" fill="#666">8</text><text x="560.0" y="217.0" text-anchor="start" font-family="Arial" font-size="9" fill="#666">8</text><line x1="46.0" y1="193.0" x2="42.0" y2="193.0" stroke="#888" stroke-width="1"/><line x1="550.0" y1="193.0" x2="554.0" y2="193.0" stroke="#888" stroke-width="1"/><line x1="46.0" y1="172.0" x2="38.0" y2="172.0" stroke="#888" stroke-width="1"/><line x1="550.0" y1="172.0" x2="558.0" y2="172.0" stroke="#888" stroke-width="1"/><text x="36.0" y="175.0" text-anchor="end" font-family="Arial" font-size="9" fill="#666">9</text><text x="560.0" y="175.0" text-anchor="start" font-family="Arial" font-size="9" fill="#666">9</text><line x1="46.0" y1="151.0" x2="42.0" y2="151.0" stroke="#888" stroke-width="1"/><line x1="550.0" y1="151.0" x2="554.0" y2="151.0" stroke="#888" stroke-width="1"/><line x1="46.0" y1="130.0" x2="38.0" y2="130.0" stroke="#888" stroke-width="1"/><line x1="550.0" y1="130.0" x2="558.0" y2="130.0" stroke="#888" stroke-width="1"/><text x="36.0" y="133.0" text-anchor="end" font-family="Arial" font-size="9" fill="#666">10</text><text x="560.0" y="133.0" text-anchor="start" font-family="Arial" font-size="9" fill="#666">10</text><line x1="46.0" y1="109.0" x2="42.0" y2="109.0" stroke="#888" stroke-width="1"/><line x1="550.0" y1="109.0" x2="554.0" y2="109.0" stroke="#888" stroke-width="1"/><line x1="46.0" y1="88.0" x2="38.0" y2="88.0" stroke="#888" stroke-width="1"/><line x1="550.0" y1="88.0" x2="558.0" y2="88.0" stroke="#888" stroke-width="1"/><text x="36.0" y="91.0" text-anchor="end" font-family="Arial" font-size="9" fill="#666">11</text><text x="560.0" y="91.0" text-anchor="start" font-family="Arial" font-size="9" fill="#666">11</text><line x1="46.0" y1="67.0" x2="42.0" y2="67.0" stroke="#888" stroke-width="1"/><line x1="550.0" y1="67.0" x2="554.0" y2="67.0" stroke="#888" stroke-width="1"/><line x1="46.0" y1="46.0" x2="38.0" y2="46.0" stroke="#888" stroke-width="1"/><line x1="550.0" y1="46.0" x2="558.0" y2="46.0" stroke="#888" stroke-width="1"/><text x="36.0" y="49.0" text-anchor="end" font-family="Arial" font-size="9" fill="#666">12</text><text x="560.0" y="49.0" text-anchor="start" font-family="Arial" font-size="9" fill="#666">12</text><rect x="130.0" y="130.0" width="336.0" height="336.0" fill="none" stroke="#9aa" stroke-width="1" stroke-dasharray="3 3"/><rect x="293.0" y="467.3" width="171.8" height="60.5" fill="#f2f2f2" stroke="#333" stroke-width="1.5" stroke-dasharray="6 4"/><text x="378.9" y="494.9" text-anchor="middle" font-family="Arial" font-size="12" font-weight="bold" fill="#222">PORCH</text><text x="378.9" y="510.7" text-anchor="middle" font-family="Arial" font-size="10" fill="#555">4.2×1.5 m</text><rect x="130.0" y="312.7" width="161.7" height="153.3" fill="#d9ead3" stroke="none"/><rect x="235.0" y="260.2" width="56.7" height="52.5" fill="#d9ead3" stroke="none"/><text x="210.8" y="386.7" text-anchor="middle" font-family="Arial" font-size="12" font-weight="bold" fill="#222">MASTER BR</text><text x="210.8" y="402.5" text-anchor="middle" font-family="Arial" font-size="10" fill="#555">15.7 sqm (L-shaped)</text><rect x="130.0" y="260.2" width="105.0" height="52.5" fill="#ead1dc" stroke="#333" stroke-width="1.5"/><text x="182.5" y="278.1" text-anchor="middle" font-family="Arial" font-size="12" font-weight="bold" fill="#222">ENSUITE</text><text x="182.5" y="293.9" text-anchor="middle" font-family="Arial" font-size="10" fill="#555">2.5×1.2 m</text><text x="182.5" y="305.4" text-anchor="middle" font-family="Arial" font-size="10" fill="#555">3.1 sqm</text><rect x="130.0" y="130.0" width="161.7" height="130.2" fill="#d9ead3" stroke="#333" stroke-width="1.5"/><text x="210.8" y="192.4" text-anchor="middle" font-family="Arial" font-size="12" font-weight="bold" fill="#222">BEDROOM</text><text x="210.8" y="208.2" text-anchor="middle" font-family="Arial" font-size="10" fill="#555">3.9×3.1 m · 11.9 sqm</text><rect x="291.7" y="130.0" width="90.3" height="84.0" fill="#ead1dc" stroke="#333" stroke-width="1.5"/><text x="336.8" y="163.6" text-anchor="middle" font-family="Arial" font-size="12" font-weight="bold" fill="#222">T&amp;B</text><text x="336.8" y="179.4" text-anchor="middle" font-family="Arial" font-size="10" fill="#555">2.1×2.0 m</text><text x="336.8" y="190.9" text-anchor="middle" font-family="Arial" font-size="10" fill="#555">4.3 sqm</text><rect x="291.7" y="354.7" width="174.3" height="111.3" fill="#cfe2f3" stroke="#333" stroke-width="1.5"/><text x="378.8" y="407.7" text-anchor="middle" font-family="Arial" font-size="12" font-weight="bold" fill="#222">LIVING</text><text x="378.8" y="423.5" text-anchor="middle" font-family="Arial" font-size="10" fill="#555">4.2×2.6 m · 11.0 sqm</text><rect x="291.7" y="214.0" width="174.3" height="140.7" fill="#cfe2f3" stroke="#333" stroke-width="1.5"/><text x="378.8" y="281.7" text-anchor="middle" font-family="Arial" font-size="12" font-weight="bold" fill="#222">DINING</text><text x="378.8" y="297.5" text-anchor="middle" font-family="Arial" font-size="10" fill="#555">4.2×3.4 m · 13.9 sqm</text><rect x="382.0" y="130.0" width="84.0" height="84.0" fill="#cfe2f3" stroke="#333" stroke-width="1.5"/><text x="424.0" y="163.6" text-anchor="middle" font-family="Arial" font-size="12" font-weight="bold" fill="#222">KITCHEN</text><text x="424.0" y="179.4" text-anchor="middle" font-family="Arial" font-size="10" fill="#555">2.0×2.0 m</text><text x="424.0" y="190.9" text-anchor="middle" font-family="Arial" font-size="10" fill="#555">4.0 sqm</text><text x="298.0" y="584.0" text-anchor="middle" font-family="Arial" font-size="12" font-weight="bold" fill="#888">FRONT (street)</text><rect x="130.00" y="310.60" width="105.00" height="4.20" fill="#555" stroke="none"/><rect x="289.60" y="354.70" width="4.20" height="111.30" fill="#555" stroke="none"/><rect x="289.60" y="312.70" width="4.20" height="42.00" fill="#555" stroke="none"/><rect x="232.90" y="260.20" width="4.20" height="52.50" fill="#555" stroke="none"/><rect x="235.00" y="258.10" width="56.70" height="4.20" fill="#555" stroke="none"/><rect x="289.60" y="260.20" width="4.20" height="52.50" fill="#555" stroke="none"/><rect x="130.00" y="258.10" width="105.00" height="4.20" fill="#555" stroke="none"/><rect x="289.60" y="130.00" width="4.20" height="84.00" fill="#555" stroke="none"/><rect x="289.60" y="214.00" width="4.20" height="46.20" fill="#555" stroke="none"/><rect x="291.70" y="211.90" width="90.30" height="4.20" fill="#555" stroke="none"/><rect x="379.90" y="130.00" width="4.20" height="84.00" fill="#555" stroke="none"/><rect x="130.00" y="461.80" width="161.70" height="8.40" fill="#555" stroke="none"/><rect x="125.80" y="312.70" width="8.40" height="153.30" fill="#555" stroke="none"/><rect x="125.80" y="260.20" width="8.40" height="52.50" fill="#555" stroke="none"/><rect x="130.00" y="125.80" width="161.70" height="8.40" fill="#555" stroke="none"/><rect x="125.80" y="130.00" width="8.40" height="130.20" fill="#555" stroke="none"/><rect x="291.70" y="125.80" width="90.30" height="8.40" fill="#555" stroke="none"/><rect x="291.70" y="461.80" width="174.30" height="8.40" fill="#555" stroke="none"/><rect x="461.80" y="354.70" width="8.40" height="111.30" fill="#555" stroke="none"/><rect x="461.80" y="214.00" width="8.40" height="140.70" fill="#555" stroke="none"/><rect x="382.00" y="125.80" width="84.00" height="8.40" fill="#555" stroke="none"/><rect x="461.80" y="130.00" width="8.40" height="84.00" fill="#555" stroke="none"/><rect x="125.80" y="308.50" width="8.40" height="8.40" fill="#555" stroke="none"/><rect x="232.90" y="310.60" width="4.20" height="4.20" fill="#555" stroke="none"/><rect x="287.50" y="461.80" width="8.40" height="8.40" fill="#555" stroke="none"/><rect x="232.90" y="310.60" width="4.20" height="4.20" fill="#555" stroke="none"/><rect x="232.90" y="258.10" width="4.20" height="4.20" fill="#555" stroke="none"/><rect x="232.90" y="258.10" width="4.20" height="4.20" fill="#555" stroke="none"/><rect x="289.60" y="258.10" width="4.20" height="4.20" fill="#555" stroke="none"/><rect x="289.60" y="258.10" width="4.20" height="4.20" fill="#555" stroke="none"/><rect x="125.80" y="256.00" width="8.40" height="8.40" fill="#555" stroke="none"/><rect x="232.90" y="258.10" width="4.20" height="4.20" fill="#555" stroke="none"/><rect x="289.60" y="211.90" width="4.20" height="4.20" fill="#555" stroke="none"/><rect x="287.50" y="125.80" width="8.40" height="8.40" fill="#555" stroke="none"/><rect x="289.60" y="258.10" width="4.20" height="4.20" fill="#555" stroke="none"/><rect x="289.60" y="211.90" width="4.20" height="4.20" fill="#555" stroke="none"/><rect x="289.60" y="211.90" width="4.20" height="4.20" fill="#555" stroke="none"/><rect x="377.80" y="125.80" width="8.40" height="8.40" fill="#555" stroke="none"/><rect x="125.80" y="461.80" width="8.40" height="8.40" fill="#555" stroke="none"/><rect x="287.50" y="461.80" width="8.40" height="8.40" fill="#555" stroke="none"/><rect x="125.80" y="461.80" width="8.40" height="8.40" fill="#555" stroke="none"/><rect x="125.80" y="308.50" width="8.40" height="8.40" fill="#555" stroke="none"/><rect x="125.80" y="308.50" width="8.40" height="8.40" fill="#555" stroke="none"/><rect x="125.80" y="256.00" width="8.40" height="8.40" fill="#555" stroke="none"/><rect x="125.80" y="125.80" width="8.40" height="8.40" fill="#555" stroke="none"/><rect x="287.50" y="125.80" width="8.40" height="8.40" fill="#555" stroke="none"/><rect x="125.80" y="256.00" width="8.40" height="8.40" fill="#555" stroke="none"/><rect x="125.80" y="125.80" width="8.40" height="8.40" fill="#555" stroke="none"/><rect x="287.50" y="125.80" width="8.40" height="8.40" fill="#555" stroke="none"/><rect x="377.80" y="125.80" width="8.40" height="8.40" fill="#555" stroke="none"/><rect x="287.50" y="461.80" width="8.40" height="8.40" fill="#555" stroke="none"/><rect x="461.80" y="461.80" width="8.40" height="8.40" fill="#555" stroke="none"/><rect x="461.80" y="461.80" width="8.40" height="8.40" fill="#555" stroke="none"/><rect x="377.80" y="125.80" width="8.40" height="8.40" fill="#555" stroke="none"/><rect x="461.80" y="125.80" width="8.40" height="8.40" fill="#555" stroke="none"/><rect x="461.80" y="125.80" width="8.40" height="8.40" fill="#555" stroke="none"/><rect x="293.8" y="354.7" width="170.1" height="5.0" fill="#cfe2f3" stroke="none"/><rect x="293.8" y="349.7" width="170.1" height="5.0" fill="#cfe2f3" stroke="none"/><rect x="384.1" y="214.0" width="79.8" height="5.0" fill="#cfe2f3" stroke="none"/><rect x="384.1" y="209.0" width="79.8" height="5.0" fill="#cfe2f3" stroke="none"/><rect x="377.0" y="178.3" width="5.0" height="29.4" fill="#ead1dc" stroke="none"/><rect x="382.0" y="178.3" width="5.0" height="29.4" fill="#cfe2f3" stroke="none"/><line x1="382.0" y1="207.7" x2="352.6" y2="207.7" stroke="#444" stroke-width="1.4"/><path d="M 352.6 207.7 A 29.4 29.4 0 0 1 382.0 178.3" fill="none" stroke="#999" stroke-width="0.7" stroke-dasharray="2 2"/><rect x="136.3" y="312.7" width="29.4" height="5.0" fill="#d9ead3" stroke="none"/><rect x="136.3" y="307.7" width="29.4" height="5.0" fill="#ead1dc" stroke="none"/><line x1="136.3" y1="312.7" x2="136.3" y2="283.3" stroke="#444" stroke-width="1.4"/><path d="M 136.3 283.3 A 29.4 29.4 0 0 1 165.7 312.7" fill="none" stroke="#999" stroke-width="0.7" stroke-dasharray="2 2"/><rect x="286.7" y="266.5" width="5.0" height="33.6" fill="#d9ead3" stroke="none"/><rect x="291.7" y="266.5" width="5.0" height="33.6" fill="#cfe2f3" stroke="none"/><line x1="291.7" y1="266.5" x2="258.1" y2="266.5" stroke="#444" stroke-width="1.4"/><path d="M 258.1 266.5 A 33.6 33.6 0 0 0 291.7 300.1" fill="none" stroke="#999" stroke-width="0.7" stroke-dasharray="2 2"/><rect x="286.7" y="220.3" width="5.0" height="33.6" fill="#d9ead3" stroke="none"/><rect x="291.7" y="220.3" width="5.0" height="33.6" fill="#cfe2f3" stroke="none"/><line x1="291.7" y1="253.9" x2="258.1" y2="253.9" stroke="#444" stroke-width="1.4"/><path d="M 258.1 253.9 A 33.6 33.6 0 0 1 291.7 220.3" fill="none" stroke="#999" stroke-width="0.7" stroke-dasharray="2 2"/><rect x="298.0" y="461.0" width="37.8" height="5.0" fill="#cfe2f3" stroke="none"/><rect x="298.0" y="466.0" width="37.8" height="5.0" fill="#fbfbf7" stroke="none"/><line x1="298.0" y1="466.0" x2="298.0" y2="428.2" stroke="#444" stroke-width="1.4"/><path d="M 298.0 428.2 A 37.8 37.8 0 0 1 335.8 466.0" fill="none" stroke="#999" stroke-width="0.7" stroke-dasharray="2 2"/><rect x="388.3" y="130.0" width="33.6" height="5.0" fill="#cfe2f3" stroke="none"/><rect x="388.3" y="125.0" width="33.6" height="5.0" fill="#fbfbf7" stroke="none"/><line x1="388.3" y1="130.0" x2="388.3" y2="163.6" stroke="#444" stroke-width="1.4"/><path d="M 388.3 163.6 A 33.6 33.6 0 0 0 421.9 130.0" fill="none" stroke="#999" stroke-width="0.7" stroke-dasharray="2 2"/><rect x="166.4" y="461.0" width="89.0" height="5.0" fill="#d9ead3" stroke="none"/><rect x="166.4" y="466.0" width="89.0" height="5.0" fill="#fbfbf7" stroke="none"/><line x1="166.4" y1="463.0" x2="255.3" y2="463.0" stroke="#222" stroke-width="1.0"/><line x1="166.4" y1="466.0" x2="255.3" y2="466.0" stroke="#222" stroke-width="1.0"/><line x1="166.4" y1="469.0" x2="255.3" y2="469.0" stroke="#222" stroke-width="1.0"/><rect x="130.0" y="347.2" width="5.0" height="84.3" fill="#d9ead3" stroke="none"/><rect x="125.0" y="347.2" width="5.0" height="84.3" fill="#fbfbf7" stroke="none"/><line x1="127.0" y1="431.5" x2="127.0" y2="347.2" stroke="#222" stroke-width="1.0"/><line x1="130.0" y1="431.5" x2="130.0" y2="347.2" stroke="#222" stroke-width="1.0"/><line x1="133.0" y1="431.5" x2="133.0" y2="347.2" stroke="#222" stroke-width="1.0"/><rect x="130.0" y="273.3" width="5.0" height="26.2" fill="#ead1dc" stroke="none"/><rect x="125.0" y="273.3" width="5.0" height="26.2" fill="#fbfbf7" stroke="none"/><line x1="127.0" y1="299.6" x2="127.0" y2="273.3" stroke="#222" stroke-width="1.0"/><line x1="130.0" y1="299.6" x2="130.0" y2="273.3" stroke="#222" stroke-width="1.0"/><line x1="133.0" y1="299.6" x2="133.0" y2="273.3" stroke="#222" stroke-width="1.0"/><rect x="166.4" y="130.0" width="89.0" height="5.0" fill="#d9ead3" stroke="none"/><rect x="166.4" y="125.0" width="89.0" height="5.0" fill="#fbfbf7" stroke="none"/><line x1="166.4" y1="127.0" x2="255.3" y2="127.0" stroke="#222" stroke-width="1.0"/><line x1="166.4" y1="130.0" x2="255.3" y2="130.0" stroke="#222" stroke-width="1.0"/><line x1="166.4" y1="133.0" x2="255.3" y2="133.0" stroke="#222" stroke-width="1.0"/><rect x="130.0" y="159.3" width="5.0" height="71.6" fill="#d9ead3" stroke="none"/><rect x="125.0" y="159.3" width="5.0" height="71.6" fill="#fbfbf7" stroke="none"/><line x1="127.0" y1="230.9" x2="127.0" y2="159.3" stroke="#222" stroke-width="1.0"/><line x1="130.0" y1="230.9" x2="130.0" y2="159.3" stroke="#222" stroke-width="1.0"/><line x1="133.0" y1="230.9" x2="133.0" y2="159.3" stroke="#222" stroke-width="1.0"/><rect x="317.9" y="130.0" width="37.8" height="5.0" fill="#ead1dc" stroke="none"/><rect x="317.9" y="125.0" width="37.8" height="5.0" fill="#fbfbf7" stroke="none"/><line x1="317.9" y1="127.0" x2="355.8" y2="127.0" stroke="#222" stroke-width="1.0"/><line x1="317.9" y1="130.0" x2="355.8" y2="130.0" stroke="#222" stroke-width="1.0"/><line x1="317.9" y1="133.0" x2="355.8" y2="133.0" stroke="#222" stroke-width="1.0"/><rect x="374.9" y="461.0" width="64.7" height="5.0" fill="#cfe2f3" stroke="none"/><rect x="374.9" y="466.0" width="64.7" height="5.0" fill="#fbfbf7" stroke="none"/><line x1="374.9" y1="463.0" x2="439.5" y2="463.0" stroke="#222" stroke-width="1.0"/><line x1="374.9" y1="466.0" x2="439.5" y2="466.0" stroke="#222" stroke-width="1.0"/><line x1="374.9" y1="469.0" x2="439.5" y2="469.0" stroke="#222" stroke-width="1.0"/><rect x="461.0" y="379.7" width="5.0" height="61.2" fill="#cfe2f3" stroke="none"/><rect x="466.0" y="379.7" width="5.0" height="61.2" fill="#fbfbf7" stroke="none"/><line x1="463.0" y1="441.0" x2="463.0" y2="379.7" stroke="#222" stroke-width="1.0"/><line x1="466.0" y1="441.0" x2="466.0" y2="379.7" stroke="#222" stroke-width="1.0"/><line x1="469.0" y1="441.0" x2="469.0" y2="379.7" stroke="#222" stroke-width="1.0"/><rect x="461.0" y="245.6" width="5.0" height="77.4" fill="#cfe2f3" stroke="none"/><rect x="466.0" y="245.6" width="5.0" height="77.4" fill="#fbfbf7" stroke="none"/><line x1="463.0" y1="323.0" x2="463.0" y2="245.6" stroke="#222" stroke-width="1.0"/><line x1="466.0" y1="323.0" x2="466.0" y2="245.6" stroke="#222" stroke-width="1.0"/><line x1="469.0" y1="323.0" x2="469.0" y2="245.6" stroke="#222" stroke-width="1.0"/><rect x="461.0" y="148.9" width="5.0" height="46.2" fill="#cfe2f3" stroke="none"/><rect x="466.0" y="148.9" width="5.0" height="46.2" fill="#fbfbf7" stroke="none"/><line x1="463.0" y1="195.1" x2="463.0" y2="148.9" stroke="#222" stroke-width="1.0"/><line x1="466.0" y1="195.1" x2="466.0" y2="148.9" stroke="#222" stroke-width="1.0"/><line x1="469.0" y1="195.1" x2="469.0" y2="148.9" stroke="#222" stroke-width="1.0"/></svg>