<svg xmlns="http://www.w3.org/2000/svg" width="764" height="554" viewBox="0 0 764 554"><rect x="0" y="0" width="764" height="554" fill="white"/><rect x="46.0" y="46.0" width="672.0" height="462.0" fill="#fbfbf7" stroke="#333" stroke-width="1.5"/><line x1="46.0" y1="46.0" x2="46.0" y2="38.0" stroke="#888" stroke-width="1"/><line x1="46.0" y1="508.0" x2="46.0" y2="516.0" stroke="#888" stroke-width="1"/><text x="46.0" y="36.0" text-anchor="middle" font-family="Arial" font-size="9" fill="#666">0</text><text x="46.0" y="524.0" text-anchor="middle" font-family="Arial" font-size="9" fill="#666">0</text><line x1="67.0" y1="46.0" x2="67.0" y2="42.0" stroke="#888" stroke-width="1"/><line x1="67.0" y1="508.0" x2="67.0" y2="512.0" stroke="#888" stroke-width="1"/><line x1="88.0" y1="46.0" x2="88.0" y2="38.0" stroke="#888" stroke-width="1"/><line x1="88.0" y1="508.0" x2="88.0" y2="516.0" stroke="#888" stroke-width="1"/><text x="88.0" y="36.0" text-anchor="middle" font-family="Arial" font-size="9" fill="#666">1</text><text x="88.0" y="524.0" text-anchor="middle" font-family="Arial" font-size="9" fill="#666">1</text><line x1="109.0" y1="46.0" x2="109.0" y2="42.0" stroke="#888" stroke-width="1"/><line x1="109.0" y1="508.0" x2="109.0" y2="512.0" stroke="#888" stroke-width="1"/><line x1="130.0" y1="46.0" x2="130.0" y2="38.0" stroke="#888" stroke-width="1"/><line x1="130.0" y1="508.0" x2="130.0" y2="516.0" stroke="#888" stroke-width="1"/><text x="130.0" y="36.0" text-anchor="middle" font-family="Arial" font-size="9" fill="#666">2</text><text x="130.0" y="524.0" text-anchor="middle" font-family="Arial" font-size="9" fill="#666">2</text><line x1="151.0" y1="46.0" x2="151.0" y2="42.0" stroke="#888" stroke-width="1"/><line x1="151.0" y1="508.0" x2="151.0" y2="512.0" stroke="#888" stroke-width="1"/><line x1="172.0" y1="46.0" x2="172.0" y2="38.0" stroke="#888" stroke-width="1"/><line x1="172.0" y1="508.0" x2="172.0" y2="516.0" stroke="#888" stroke-width="1"/><text x="172.0" y="36.0" text-anchor="middle" font-family="Arial" font-size="9" fill="#666">3</text><text x="172.0" y="524.0" text-anchor="middle" font-family="Arial" font-size="9" fill="#666">3</text><line x1="193.0" y1="46.0" x2="193.0" y2="42.0" stroke="#888" stroke-width="1"/><line x1="193.0" y1="508.0" x2="193.0" y2="512.0" stroke="#888" stroke-width="1"/><line x1="214.0" y1="46.0" x2="214.0" y2="38.0" stroke="#888" stroke-width="1"/><line x1="214.0" y1="508.0" x2="214.0" y2="516.0" stroke="#888" stroke-width="1"/><text x="214.0" y="36.0" text-anchor="middle" font-family="Arial" font-size="9" fill="#666">4</text><text x="214.0" y="524.0" text-anchor="middle" font-family="Arial" font-size="9" fill="#666">4</text><line x1="235.0" y1="46.0" x2="235.0" y2="42.0" stroke="#888" stroke-width="1"/><line x1="235.0" y1="508.0" x2="235.0" y2="512.0" stroke="#888" stroke-width="1"/><line x1="256.0" y1="46.0" x2="256.0" y2="38.0" stroke="#888" stroke-width="1"/><line x1="256.0" y1="508.0" x2="256.0" y2="516.0" stroke="#888" stroke-width="1"/><text x="256.0" y="36.0" text-anchor="middle" font-family="Arial" font-size="9" fill="#666">5</text><text x="256.0" y="524.0" text-anchor="middle" font-family="Arial" font-size="9" fill="#666">5</text><line x1="277.0" y1="46.0" x2="277.0" y2="42.0" stroke="#888" stroke-width="1"/><line x1="277.0" y1="508.0" x2="277.0" y2="512.0" stroke="#888" stroke-width="1"/><line x1="298.0" y1="46.0" x2="298.0" y2="38.0" stroke="#888" stroke-width="1"/><line x1="298.0" y1="508.0" x2="298.0" y2="516.0" stroke="#888" stroke-width="1"/><text x="298.0" y="36.0" text-anchor="middle" font-family="Arial" font-size="9" fill="#666">6</text><text x="298.0" y="524.0" text-anchor="middle" font-family="Arial" font-size="9" fill="#666">6</text><line x1="319.0" y1="46.0" x2="319.0" y2="42.0" stroke="#888" stroke-width="1"/><line x1="319.0" y1="508.0" x2="319.0" y2="512.0" stroke="#888" stroke-width="1"/><line x1="340.0" y1="46.0" x2="340.0" y2="38.0" stroke="#888" stroke-width="1"/><line x1="340.0" y1="508.0" x2="340.0" y2="516.0" stroke="#888" stroke-width="1"/><text x="340.0" y="36.0" text-anchor="middle" font-family="Arial" font-size="9" fill="#666">7</text><text x="340.0" y="524.0" text-anchor="middle" font-family="Arial" font-size="9" fill="#666">7</text><line x1="361.0" y1="46.0" x2="361.0" y2="42.0" stroke="#888" stroke-width="1"/><line x1="361.0" y1="508.0" x2="361.0" y2="512.0" stroke="#888" stroke-width="1"/><line x1="382.0" y1="46.0" x2="382.0" y2="38.0" stroke="#888" stroke-width="1"/><line x1="382.0" y1="508.0" x2="382.0" y2="516.0" stroke="#888" stroke-width="1"/><text x="382.0" y="36.0" text-anchor="middle" font-family="Arial" font-size="9" fill="#666">8</text><text x="382.0" y="524.0" text-anchor="middle" font-family="Arial" font-size="9" fill="#666">8</text><line x1="403.0" y1="46.0" x2="403.0" y2="42.0" stroke="#888" stroke-width="1"/><line x1="403.0" y1="508.0" x2="403.0" y2="512.0" stroke="#888" stroke-width="1"/><line x1="424.0" y1="46.0" x2="424.0" y2="38.0" stroke="#888" stroke-width="1"/><line x1="424.0" y1="508.0" x2="424.0" y2="516.0" stroke="#888" stroke-width="1"/><text x="424.0" y="36.0" text-anchor="middle" font-family="Arial" font-size="9" fill="#666">9</text><text x="424.0" y="524.0" text-anchor="middle" font-family="Arial" font-size="9" fill="#666">9</text><line x1="445.0" y1="46.0" x2="445.0" y2="42.0" stroke="#888" stroke-width="1"/><line x1="445.0" y1="508.0" x2="445.0" y2="512.0" stroke="#888" stroke-width="1"/><line x1="466.0" y1="46.0" x2="466.0" y2="38.0" stroke="#888" stroke-width="1"/><line x1="466.0" y1="508.0" x2="466.0" y2="516.0" stroke="#888" stroke-width="1"/><text x="466.0" y="36.0" text-anchor="middle" font-family="Arial" font-size="9" fill="#666">10</text><text x="466.0" y="524.0" text-anchor="middle" font-family="Arial" font-size="9" fill="#666">10</text><line x1="487.0" y1="46.0" x2="487.0" y2="42.0" stroke="#888" stroke-width="1"/><line x1="487.0" y1="508.0" x2="487.0" y2="512.0" stroke="#888" stroke-width="1"/><line x1="508.0" y1="46.0" x2="508.0" y2="38.0" stroke="#888" stroke-width="1"/><line x1="508.0" y1="508.0" x2="508.0" y2="516.0" stroke="#888" stroke-width="1"/><text x="508.0" y="36.0" text-anchor="middle" font-family="Arial" font-size="9" fill="#666">11</text><text x="508.0" y="524.0" text-anchor="middle" font-family="Arial" font-size="9" fill="#666">11</text><line x1="529.0" y1="46.0" x2="529.0" y2="42.0" stroke="#888" stroke-width="1"/><line x1="529.0" y1="508.0" x2="529.0" y2="512.0" stroke="#888" stroke-width="1"/><line x1="550.0" y1="46.0" x2="550.0" y2="38.0" stroke="#888" stroke-width="1"/><line x1="550.0" y1="508.0" x2="550.0" y2="516.0" stroke="#888" stroke-width="1"/><text x="550.0" y="36.0" text-anchor="middle" font-family="Arial" font-size="9" fill="#666">12</text><text x="550.0" y="524.0" text-anchor="middle" font-family="Arial" font-size="9" fill="#666">12</text><line x1="571.0" y1="46.0" x2="571.0" y2="42.0" stroke="#888" stroke-width="1"/><line x1="571.0" y1="508.0" x2="571.0" y2="512.0" stroke="#888" stroke-width="1"/><line x1="592.0" y1="46.0" x2="592.0" y2="38.0" stroke="#888" stroke-width="1"/><line x1="592.0" y1="508.0" x2="592.0" y2="516.0" stroke="#888" stroke-width="1"/><text x="592.0" y="36.0" text-anchor="middle" font-family="Arial" font-size="9" fill="#666">13</text><text x="592.0" y="524.0" text-anchor="middle" font-family="Arial" font-size="9" fill="#666">13</text><line x1="613.0" y1="46.0" x2="613.0" y2="42.0" stroke="#888" stroke-width="1"/><line x1="613.0" y1="508.0" x2="613.0" y2="512.0" stroke="#888" stroke-width="1"/><line x1="634.0" y1="46.0" x2="634.0" y2="38.0" stroke="#888" stroke-width="1"/><line x1="634.0" y1="508.0" x2="634.0" y2="516.0" stroke="#888" stroke-width="1"/><text x="634.0" y="36.0" text-anchor="middle" font-family="Arial" font-size="9" fill="#666">14</text><text x="634.0" y="524.0" text-anchor="middle" font-family="Arial" font-size="9" fill="#666">14</text><line x1="655.0" y1="46.0" x2="655.0" y2="42.0" stroke="#888" stroke-width="1"/><line x1="655.0" y1="508.0" x2="655.0" y2="512.0" stroke="#888" stroke-width="1"/><line x1="676.0" y1="46.0" x2="676.0" y2="38.0" stroke="#888" stroke-width="1"/><line x1="676.0" y1="508.0" x2="676.0" y2="516.0" stroke="#888" stroke-width="1"/><text x="676.0" y="36.0" text-anchor="middle" font-family="Arial" font-size="9" fill="#666">15</text><text x="676.0" y="524.0" text-anchor="middle" font-family="Arial" font-size="9" fill="#666">15</text><line x1="697.0" y1="46.0" x2="697.0" y2="42.0" stroke="#888" stroke-width="1"/><line x1="697.0" y1="508.0" x2="697.0" y2="512.0" stroke="#888" stroke-width="1"/><line x1="718.0" y1="46.0" x2="718.0" y2="38.0" stroke="#888" stroke-width="1"/><line x1="718.0" y1="508.0" x2="718.0" y2="516.0" stroke="#888" stroke-width="1"/><text x="718.0" y="36.0" text-anchor="middle" font-family="Arial" font-size="9" fill="#666">16</text><text x="718.0" y="524.0" text-anchor="middle" font-family="Arial" font-size="9" fill="#666">16</text><line x1="46.0" y1="508.0" x2="38.0" y2="508.0" stroke="#888" stroke-width="1"/><line x1="718.0" y1="508.0" x2="726.0" y2="508.0" stroke="#888" stroke-width="1"/><text x="36.0" y="511.0" text-anchor="end" font-family="Arial" font-size="9" fill="#666">0</text><text x="728.0" y="511.0" text-anchor="start" font-family="Arial" font-size="9" fill="#666">0</text><line x1="46.0" y1="487.0" x2="42.0" y2="487.0" stroke="#888" stroke-width="1"/><line x1="718.0" y1="487.0" x2="722.0" y2="487.0" stroke="#888" stroke-width="1"/><line x1="46.0" y1="466.0" x2="38.0" y2="466.0" stroke="#888" stroke-width="1"/><line x1="718.0" y1="466.0" x2="726.0" y2="466.0" stroke="#888" stroke-width="1"/><text x="36.0" y="469.0" text-anchor="end" font-family="Arial" font-size="9" fill="#666">1</text><text x="728.0" y="469.0" text-anchor="start" font-family="Arial" font-size="9" fill="#666">1</text><line x1="46.0" y1="445.0" x2="42.0" y2="445.0" stroke="#888" stroke-width="1"/><line x1="718.0" y1="445.0" x2="722.0" y2="445.0" stroke="#888" stroke-width="1"/><line x1="46.0" y1="424.0" x2="38.0" y2="424.0" stroke="#888" stroke-width="1"/><line x1="718.0" y1="424.0" x2="726.0" y2="424.0" stroke="#888" stroke-width="1"/><text x="36.0" y="427.0" text-anchor="end" font-family="Arial" font-size="9" fill="#666">2</text><text x="728.0" y="427.0" text-anchor="start" font-family="Arial" font-size="9" fill="#666">2</text><line x1="46.0" y1="403.0" x2="42.0" y2="403.0" stroke="#888" stroke-width="1"/><line x1="718.0" y1="403.0" x2="722.0" y2="403.0" stroke="#888" stroke-width="1"/><line x1="46.0" y1="382.0" x2="38.0" y2="382.0" stroke="#888" stroke-width="1"/><line x1="718.0" y1="382.0" x2="726.0" y2="382.0" stroke="#888" stroke-width="1"/><text x="36.0" y="385.0" text-anchor="end" font-family="Arial" font-size="9" fill="#666">3</text><text x="728.0" y="385.0" text-anchor="start" font-family="Arial" font-size="9" fill="#666">3</text><line x1="46.0" y1="361.0" x2="42.0" y2="361.0" stroke="#888" stroke-width="1"/><line x1="718.0" y1="361.0" x2="722.0" y2="361.0" stroke="#888" stroke-width="1"/><line x1="46.0" y1="340.0" x2="38.0" y2="340.0" stroke="#888" stroke-width="1"/><line x1="718.0" y1="340.0" x2="726.0" y2="340.0" stroke="#888" stroke-width="1"/><text x="36.0" y="343.0" text-anchor="end" font-family="Arial" font-size="9" fill="#666">4</text><text x="728.0" y="343.0" text-anchor="start" font-family="Arial" font-size="9" fill="#666">4</text><line x1="46.0" y1="319.0" x2="42.0" y2="319.0" stroke="#888" stroke-width="1"/><line x1="718.0" y1="319.0" x2="722.0" y2="319.0" stroke="#888" stroke-width="1"/><line x1="46.0" y1="298.0" x2="38.0" y2="298.0" stroke="#888" stroke-width="1"/><line x1="718.0" y1="298.0" x2="726.0" y2="298.0" stroke="#888" stroke-width="1"/><text x="36.0" y="301.0" text-anchor="end" font-family="Arial" font-size="9" fill="#666">5</text><text x="728.0" y="301.0" text-anchor="start" font-family="Arial" font-size="9" fill="#666">5</text><line x1="46.0" y1="277.0" x2="42.0" y2="277.0" stroke="#888" stroke-width="1"/><line x1="718.0" y1="277.0" x2="722.0" y2="277.0" stroke="#888" stroke-width="1"/><line x1="46.0" y1="256.0" x2="38.0" y2="256.0" stroke="#888" stroke-width="1"/><line x1="718.0" y1="256.0" x2="726.0" y2="256.0" stroke="#888" stroke-width="1"/><text x="36.0" y="259.0" text-anchor="end" font-family="Arial" font-size="9" fill="#666">6</text><text x="728.0" y="259.0" text-anchor="start" font-family="Arial" font-size="9" fill="#666">6</text><line x1="46.0" y1="235.0" x2="42.0" y2="235.0" stroke="#888" stroke-width="1"/><line x1="718.0" y1="235.0" x2="722.0" y2="235.0" stroke="#888" stroke-width="1"/><line x1="46.0" y1="214.0" x2="38.0" y2="214.0" stroke="#888" stroke-width="1"/><line x1="718.0" y1="214.0" x2="726.0" y2="214.0" stroke="#888" stroke-width="1"/><text x="36.0" y="217.0" text-anchor="end" font-family="Arial" font-size="9" fill="#666">7</text><text x="728.0" y="217.0" text-anchor="start" font-family="Arial" font-size="9" fill="#666">7</text><line x1="46.0" y1="193.0" x2="42.0" y2="193.0" stroke="#888" stroke-width="1"/><line x1="718.0" y1="193.0" x2="722.0" y2="193.0" stroke="#888" stroke-width="1"/><line x1="46.0" y1="172.0" x2="38.0" y2="172.0" stroke="#888" stroke-width="1"/><line x1="718.0" y1="172.0" x2="726.0" y2="172.0" stroke="#888" stroke-width="1"/><text x="36.0" y="175.0" text-anchor="end" font-family="Arial" font-size="9" fill="#666">8</text><text x="728.0" y="175.0" text-anchor="start" font-family="Arial" font-size="9" fill="#666">8</text><line x1="46.0" y1="151.0" x2="42.0" y2="151.0" stroke="#888" stroke-width="1"/><line x1="718.0" y1="151.0" x2="722.0" y2="151.0" stroke="#888" stroke-width="1"/><line x1="46.0" y1="130.0" x2="38.0" y2="130.0" stroke="#888" stroke-width="1"/><line x1="718.0" y1="130.0" x2="726.0" y2="130.0" stroke="#888" stroke-width="1"/><text x="36.0" y="133.0" text-anchor="end" font-family="Arial" font-size="9" fill="#666">9</text><text x="728.0" y="133.0" text-anchor="start" font-family="Arial" font-size="9" fill="#666">9</text><line x1="46.0" y1="109.0" x2="42.0" y2="109.0" stroke="#888" stroke-width="1"/><line x1="718.0" y1="109.0" x2="722.0" y2="109.0" stroke="#888" stroke-width="1"/><line x1="46.0" y1="88.0" x2="38.0" y2="88.0" stroke="#888" stroke-width="1"/><line x1="718.0" y1="88.0" x2="726.0" y2="88.0" stroke="#888" stroke-width="1"/><text x="36.0" y="91.0" text-anchor="end" font-family="Arial" font-size="9" fill="#666">10</text><text x="728.0" y="91.0" text-anchor="start" font-family="Arial" font-size="9" fill="#666">10</text><line x1="46.0" y1="67.0" x2="42.0" y2="67.0" stroke="#888" stroke-width="1"/><line x1="718.0" y1="67.0" x2="722.0" y2="67.0" stroke="#888" stroke-width="1"/><line x1="46.0" y1="46.0" x2="38.0" y2="46.0" stroke="#888" stroke-width="1"/><line x1="718.0" y1="46.0" x2="726.0" y2="46.0" stroke="#888" stroke-width="1"/><text x="36.0" y="49.0" text-anchor="end" font-family="Arial" font-size="9" fill="#666">11</text><text x="728.0" y="49.0" text-anchor="start" font-family="Arial" font-size="9" fill="#666">11</text><rect x="130.0" y="130.0" width="462.0" height="294.0" fill="none" stroke="#9aa" stroke-width="1" stroke-dasharray="3 3"/><rect x="379.1" y="425.3" width="211.7" height="60.5" fill="#f2f2f2" stroke="#333" stroke-width="1.5" stroke-dasharray="6 4"/><text x="484.9" y="452.9" text-anchor="middle" font-family="Arial" font-size="12" font-weight="bold" fill="#222">PORCH</text><text x="484.9" y="468.7" text-anchor="middle" font-family="Arial" font-size="10" fill="#555">5.1×1.5 m</text><rect x="130.0" y="193.0" width="121.8" height="231.0" fill="#d9ead3" stroke="#333" stroke-width="1.5"/><text x="190.9" y="300.1" text-anchor="middle" font-family="Arial" font-size="12" font-weight="bold" fill="#222">MASTER BR</text><text x="190.9" y="315.9" text-anchor="middle" font-family="Arial" font-size="10" fill="#555">2.9×5.5 m</text><text x="190.9" y="327.4" text-anchor="middle" font-family="Arial" font-size="10" fill="#555">15.9 sqm</text><rect x="130.0" y="130.0" width="123.9" height="63.0" fill="#ead1dc" stroke="#333" stroke-width="1.5"/><text x="192.0" y="153.1" text-anchor="middle" font-family="Arial" font-size="12" font-weight="bold" fill="#222">ENSUITE</text><text x="192.0" y="168.9" text-anchor="middle" font-family="Arial" font-size="10" fill="#555">3.0×1.5 m</text><text x="192.0" y="180.4" text-anchor="middle" font-family="Arial" font-size="10" fill="#555">4.4 sqm</text><rect x="251.8" y="256.0" width="121.8" height="168.0" fill="#d9ead3" stroke="#333" stroke-width="1.5"/><text x="312.7" y="331.6" text-anchor="middle" font-family="Arial" font-size="12" font-weight="bold" fill="#222">BEDROOM</text><text x="312.7" y="347.4" text-anchor="middle" font-family="Arial" font-size="10" fill="#555">2.9×4.0 m</text><text x="312.7" y="358.9" text-anchor="middle" font-family="Arial" font-size="10" fill="#555">11.6 sqm</text><rect x="253.9" y="130.0" width="123.9" height="63.0" fill="#ead1dc" stroke="#333" stroke-width="1.5"/><text x="315.9" y="153.1" text-anchor="middle" font-family="Arial" font-size="12" font-weight="bold" fill="#222">T&amp;B</text><text x="315.9" y="168.9" text-anchor="middle" font-family="Arial" font-size="10" fill="#555">3.0×1.5 m</text><text x="315.9" y="180.4" text-anchor="middle" font-family="Arial" font-size="10" fill="#555">4.4 sqm</text><rect x="251.8" y="193.0" width="126.0" height="63.0" fill="#efefef" stroke="#333" stroke-width="1.5"/><text x="314.8" y="221.8" text-anchor="middle" font-family="Arial" font-size="12" font-weight="bold" fill="#222">HALL</text><text x="314.8" y="237.7" text-anchor="middle" font-family="Arial" font-size="10" fill="#555">3.0×1.5 m · 4.5 sqm</text><rect x="377.8" y="216.1" width="214.2" height="207.9" fill="#cfe2f3" stroke="#333" stroke-width="1.5"/><text x="484.9" y="317.4" text-anchor="middle" font-family="Arial" font-size="12" font-weight="bold" fill="#222">GREAT ROOM</text><text x="484.9" y="333.2" text-anchor="middle" font-family="Arial" font-size="10" fill="#555">5.1×5.0 m · 25.2 sqm</text><rect x="377.8" y="130.0" width="214.2" height="86.1" fill="#cfe2f3" stroke="#333" stroke-width="1.5"/><text x="484.9" y="170.4" text-anchor="middle" font-family="Arial" font-size="12" font-weight="bold" fill="#222">KITCHEN</text><text x="484.9" y="186.2" text-anchor="middle" font-family="Arial" font-size="10" fill="#555">5.1×2.0 m · 10.5 sqm</text><text x="382.0" y="542.0" text-anchor="middle" font-family="Arial" font-size="12" font-weight="bold" fill="#888">FRONT (street)</text><rect x="130.00" y="190.90" width="121.80" height="4.20" fill="#555" stroke="none"/><rect x="249.70" y="256.00" width="4.20" height="168.00" fill="#555" stroke="none"/><rect x="249.70" y="193.00" width="4.20" height="63.00" fill="#555" stroke="none"/><rect x="251.80" y="130.00" width="4.20" height="63.00" fill="#555" stroke="none"/><rect x="251.80" y="190.90" width="2.10" height="4.20" fill="#555" stroke="none"/><rect x="251.80" y="253.90" width="121.80" height="4.20" fill="#555" stroke="none"/><rect x="253.90" y="190.90" width="123.90" height="4.20" fill="#555" stroke="none"/><rect x="375.70" y="130.00" width="4.20" height="63.00" fill="#555" stroke="none"/><rect x="130.00" y="419.80" width="121.80" height="8.40" fill="#555" stroke="none"/><rect x="125.80" y="193.00" width="8.40" height="231.00" fill="#555" stroke="none"/><rect x="130.00" y="125.80" width="123.90" height="8.40" fill="#555" stroke="none"/><rect x="125.80" y="130.00" width="8.40" height="63.00" fill="#555" stroke="none"/><rect x="251.80" y="419.80" width="121.80" height="8.40" fill="#555" stroke="none"/><rect x="371.50" y="256.00" width="4.20" height="168.00" fill="#555" stroke="none"/><rect x="253.90" y="125.80" width="123.90" height="8.40" fill="#555" stroke="none"/><rect x="373.60" y="253.90" width="4.20" height="4.20" fill="#555" stroke="none"/><rect x="377.80" y="419.80" width="214.20" height="8.40" fill="#555" stroke="none"/><rect x="587.80" y="216.10" width="8.40" height="207.90" fill="#555" stroke="none"/><rect x="375.70" y="256.00" width="4.20" height="168.00" fill="#555" stroke="none"/><rect x="377.80" y="125.80" width="214.20" height="8.40" fill="#555" stroke="none"/><rect x="587.80" y="130.00" width="8.40" height="86.10" fill="#555" stroke="none"/><rect x="125.80" y="188.80" width="8.40" height="8.40" fill="#555" stroke="none"/><rect x="249.70" y="190.90" width="4.20" height="4.20" fill="#555" stroke="none"/><rect x="247.60" y="419.80" width="8.40" height="8.40" fill="#555" stroke="none"/><rect x="249.70" y="253.90" width="4.20" height="4.20" fill="#555" stroke="none"/><rect x="249.70" y="253.90" width="4.20" height="4.20" fill="#555" stroke="none"/><rect x="249.70" y="190.90" width="4.20" height="4.20" fill="#555" stroke="none"/><rect x="251.80" y="190.90" width="4.20" height="4.20" fill="#555" stroke="none"/><rect x="249.70" y="125.80" width="8.40" height="8.40" fill="#555" stroke="none"/><rect x="249.70" y="253.90" width="4.20" height="4.20" fill="#555" stroke="none"/><rect x="371.50" y="253.90" width="4.20" height="4.20" fill="#555" stroke="none"/><rect x="251.80" y="190.90" width="4.20" height="4.20" fill="#555" stroke="none"/><rect x="373.60" y="125.80" width="8.40" height="8.40" fill="#555" stroke="none"/><rect x="125.80" y="419.80" width="8.40" height="8.40" fill="#555" stroke="none"/><rect x="247.60" y="419.80" width="8.40" height="8.40" fill="#555" stroke="none"/><rect x="125.80" y="419.80" width="8.40" height="8.40" fill="#555" stroke="none"/><rect x="125.80" y="188.80" width="8.40" height="8.40" fill="#555" stroke="none"/><rect x="125.80" y="125.80" width="8.40" height="8.40" fill="#555" stroke="none"/><rect x="249.70" y="125.80" width="8.40" height="8.40" fill="#555" stroke="none"/><rect x="125.80" y="188.80" width="8.40" height="8.40" fill="#555" stroke="none"/><rect x="125.80" y="125.80" width="8.40" height="8.40" fill="#555" stroke="none"/><rect x="247.60" y="419.80" width="8.40" height="8.40" fill="#555" stroke="none"/><rect x="369.40" y="419.80" width="8.40" height="8.40" fill="#555" stroke="none"/><rect x="369.40" y="419.80" width="8.40" height="8.40" fill="#555" stroke="none"/><rect x="371.50" y="253.90" width="4.20" height="4.20" fill="#555" stroke="none"/><rect x="249.70" y="125.80" width="8.40" height="8.40" fill="#555" stroke="none"/><rect x="373.60" y="125.80" width="8.40" height="8.40" fill="#555" stroke="none"/><rect x="371.50" y="253.90" width="4.20" height="4.20" fill="#555" stroke="none"/><rect x="373.60" y="419.80" width="8.40" height="8.40" fill="#555" stroke="none"/><rect x="587.80" y="419.80" width="8.40" height="8.40" fill="#555" stroke="none"/><rect x="587.80" y="419.80" width="8.40" height="8.40" fill="#555" stroke="none"/><rect x="373.60" y="419.80" width="8.40" height="8.40" fill="#555" stroke="none"/><rect x="373.60" y="125.80" width="8.40" height="8.40" fill="#555" stroke="none"/><rect x="587.80" y="125.80" width="8.40" height="8.40" fill="#555" stroke="none"/><rect x="587.80" y="125.80" width="8.40" height="8.40" fill="#555" stroke="none"/><rect x="372.8" y="216.1" width="5.0" height="37.8" fill="#efefef" stroke="none"/><rect x="377.8" y="216.1" width="5.0" height="37.8" fill="#cfe2f3" stroke="none"/><rect x="372.8" y="195.1" width="5.0" height="21.0" fill="#efefef" stroke="none"/><rect x="377.8" y="195.1" width="5.0" height="21.0" fill="#cfe2f3" stroke="none"/><rect x="377.8" y="216.1" width="212.1" height="5.0" fill="#cfe2f3" stroke="none"/><rect x="377.8" y="211.1" width="212.1" height="5.0" fill="#cfe2f3" stroke="none"/><rect x="260.2" y="188.0" width="29.4" height="5.0" fill="#ead1dc" stroke="none"/><rect x="260.2" y="193.0" width="29.4" height="5.0" fill="#efefef" stroke="none"/><line x1="260.2" y1="193.0" x2="260.2" y2="163.6" stroke="#444" stroke-width="1.4"/><path d="M 260.2 163.6 A 29.4 29.4 0 0 1 289.6 193.0" fill="none" stroke="#999" stroke-width="0.7" stroke-dasharray="2 2"/><rect x="136.3" y="193.0" width="29.4" height="5.0" fill="#d9ead3" stroke="none"/><rect x="136.3" y="188.0" width="29.4" height="5.0" fill="#ead1dc" stroke="none"/><line x1="136.3" y1="193.0" x2="136.3" y2="163.6" stroke="#444" stroke-width="1.4"/><path d="M 136.3 163.6 A 29.4 29.4 0 0 1 165.7 193.0" fill="none" stroke="#999" stroke-width="0.7" stroke-dasharray="2 2"/><rect x="246.8" y="199.3" width="5.0" height="33.6" fill="#d9ead3" stroke="none"/><rect x="251.8" y="199.3" width="5.0" height="33.6" fill="#efefef" stroke="none"/><line x1="251.8" y1="199.3" x2="218.2" y2="199.3" stroke="#444" stroke-width="1.4"/><path d="M 218.2 199.3 A 33.6 33.6 0 0 0 251.8 232.9" fill="none" stroke="#999" stroke-width="0.7" stroke-dasharray="2 2"/><rect x="258.1" y="256.0" width="33.6" height="5.0" fill="#d9ead3" stroke="none"/><rect x="258.1" y="251.0" width="33.6" height="5.0" fill="#efefef" stroke="none"/><line x1="258.1" y1="256.0" x2="258.1" y2="289.6" stroke="#444" stroke-width="1.4"/><path d="M 258.1 289.6 A 33.6 33.6 0 0 0 291.7 256.0" fill="none" stroke="#999" stroke-width="0.7" stroke-dasharray="2 2"/><rect x="547.9" y="419.0" width="37.8" height="5.0" fill="#cfe2f3" stroke="none"/><rect x="547.9" y="424.0" width="37.8" height="5.0" fill="#fbfbf7" stroke="none"/><line x1="585.7" y1="424.0" x2="585.7" y2="386.2" stroke="#444" stroke-width="1.4"/><path d="M 585.7 386.2 A 37.8 37.8 0 0 0 547.9 424.0" fill="none" stroke="#999" stroke-width="0.7" stroke-dasharray="2 2"/><rect x="384.1" y="130.0" width="33.6" height="5.0" fill="#cfe2f3" stroke="none"/><rect x="384.1" y="125.0" width="33.6" height="5.0" fill="#fbfbf7" stroke="none"/><line x1="384.1" y1="130.0" x2="384.1" y2="163.6" stroke="#444" stroke-width="1.4"/><path d="M 384.1 163.6 A 33.6 33.6 0 0 0 417.7 130.0" fill="none" stroke="#999" stroke-width="0.7" stroke-dasharray="2 2"/><rect x="157.4" y="419.0" width="67.0" height="5.0" fill="#d9ead3" stroke="none"/><rect x="157.4" y="424.0" width="67.0" height="5.0" fill="#fbfbf7" stroke="none"/><line x1="157.4" y1="421.0" x2="224.4" y2="421.0" stroke="#222" stroke-width="1.0"/><line x1="157.4" y1="424.0" x2="224.4" y2="424.0" stroke="#222" stroke-width="1.0"/><line x1="157.4" y1="427.0" x2="224.4" y2="427.0" stroke="#222" stroke-width="1.0"/><rect x="130.0" y="258.1" width="5.0" height="100.8" fill="#d9ead3" stroke="none"/><rect x="125.0" y="258.1" width="5.0" height="100.8" fill="#fbfbf7" stroke="none"/><line x1="127.0" y1="358.9" x2="127.0" y2="258.1" stroke="#222" stroke-width="1.0"/><line x1="130.0" y1="358.9" x2="130.0" y2="258.1" stroke="#222" stroke-width="1.0"/><line x1="133.0" y1="358.9" x2="133.0" y2="258.1" stroke="#222" stroke-width="1.0"/><rect x="173.1" y="130.0" width="37.8" height="5.0" fill="#ead1dc" stroke="none"/><rect x="173.1" y="125.0" width="37.8" height="5.0" fill="#fbfbf7" stroke="none"/><line x1="173.1" y1="127.0" x2="210.8" y2="127.0" stroke="#222" stroke-width="1.0"/><line x1="173.1" y1="130.0" x2="210.8" y2="130.0" stroke="#222" stroke-width="1.0"/><line x1="173.1" y1="133.0" x2="210.8" y2="133.0" stroke="#222" stroke-width="1.0"/><rect x="130.0" y="145.8" width="5.0" height="31.5" fill="#ead1dc" stroke="none"/><rect x="125.0" y="145.8" width="5.0" height="31.5" fill="#fbfbf7" stroke="none"/><line x1="127.0" y1="177.2" x2="127.0" y2="145.8" stroke="#222" stroke-width="1.0"/><line x1="130.0" y1="177.2" x2="130.0" y2="145.8" stroke="#222" stroke-width="1.0"/><line x1="133.0" y1="177.2" x2="133.0" y2="145.8" stroke="#222" stroke-width="1.0"/><rect x="279.2" y="419.0" width="67.0" height="5.0" fill="#d9ead3" stroke="none"/><rect x="279.2" y="424.0" width="67.0" height="5.0" fill="#fbfbf7" stroke="none"/><line x1="279.2" y1="421.0" x2="346.2" y2="421.0" stroke="#222" stroke-width="1.0"/><line x1="279.2" y1="424.0" x2="346.2" y2="424.0" stroke="#222" stroke-width="1.0"/><line x1="279.2" y1="427.0" x2="346.2" y2="427.0" stroke="#222" stroke-width="1.0"/><rect x="296.9" y="130.0" width="37.8" height="5.0" fill="#ead1dc" stroke="none"/><rect x="296.9" y="125.0" width="37.8" height="5.0" fill="#fbfbf7" stroke="none"/><line x1="296.9" y1="127.0" x2="334.8" y2="127.0" stroke="#222" stroke-width="1.0"/><line x1="296.9" y1="130.0" x2="334.8" y2="130.0" stroke="#222" stroke-width="1.0"/><line x1="296.9" y1="133.0" x2="334.8" y2="133.0" stroke="#222" stroke-width="1.0"/><rect x="413.2" y="419.0" width="86.6" height="5.0" fill="#cfe2f3" stroke="none"/><rect x="413.2" y="424.0" width="86.6" height="5.0" fill="#fbfbf7" stroke="none"/><line x1="413.2" y1="421.0" x2="499.9" y2="421.0" stroke="#222" stroke-width="1.0"/><line x1="413.2" y1="424.0" x2="499.9" y2="424.0" stroke="#222" stroke-width="1.0"/><line x1="413.2" y1="427.0" x2="499.9" y2="427.0" stroke="#222" stroke-width="1.0"/><rect x="587.0" y="269.6" width="5.0" height="100.8" fill="#cfe2f3" stroke="none"/><rect x="592.0" y="269.6" width="5.0" height="100.8" fill="#fbfbf7" stroke="none"/><line x1="589.0" y1="370.4" x2="589.0" y2="269.6" stroke="#222" stroke-width="1.0"/><line x1="592.0" y1="370.4" x2="592.0" y2="269.6" stroke="#222" stroke-width="1.0"/><line x1="595.0" y1="370.4" x2="595.0" y2="269.6" stroke="#222" stroke-width="1.0"/><rect x="466.7" y="130.0" width="89.0" height="5.0" fill="#cfe2f3" stroke="none"/><rect x="466.7" y="125.0" width="89.0" height="5.0" fill="#fbfbf7" stroke="none"/><line x1="466.7" y1="127.0" x2="555.6" y2="127.0" stroke="#222" stroke-width="1.0"/><line x1="466.7" y1="130.0" x2="555.6" y2="130.0" stroke="#222" stroke-width="1.0"/><line x1="466.7" y1="133.0" x2="555.6" y2="133.0" stroke="#222" stroke-width="1.0"/><rect x="587.0" y="149.4" width="5.0" height="47.3" fill="#cfe2f3" stroke="none"/><rect x="592.0" y="149.4" width="5.0" height="47.3" fill="#fbfbf7" stroke="none"/><line x1="589.0" y1="196.7" x2="589.0" y2="149.4" stroke="#222" stroke-width="1.0"/><line x1="592.0" y1="196.7" x2="592.0" y2="149.4" stroke="#222" stroke-width="1.0"/><line x1="595.0" y1="196.7" x2="595.0" y2="149.4" stroke="#222" stroke-width="1.0"/></svg>