<svg xmlns="http://www.w3.org/2000/svg" width="764" height="554" viewBox="0 0 764 554"><rect x="0" y="0" width="764" height="554" fill="white"/><rect x="46.0" y="46.0" width="672.0" height="462.0" fill="#fbfbf7" stroke="#333" stroke-width="1.5"/><line x1="46.0" y1="46.0" x2="46.0" y2="38.0" stroke="#888" stroke-width="1"/><line x1="46.0" y1="508.0" x2="46.0" y2="516.0" stroke="#888" stroke-width="1"/><text x="46.0" y="36.0" text-anchor="middle" font-family="Arial" font-size="9" fill="#666">0</text><text x="46.0" y="524.0" text-anchor="middle" font-family="Arial" font-size="9" fill="#666">0</text><line x1="67.0" y1="46.0" x2="67.0" y2="42.0" stroke="#888" stroke-width="1"/><line x1="67.0" y1="508.0" x2="67.0" y2="512.0" stroke="#888" stroke-width="1"/><line x1="88.0" y1="46.0" x2="88.0" y2="38.0" stroke="#888" stroke-width="1"/><line x1="88.0" y1="508.0" x2="88.0" y2="516.0" stroke="#888" stroke-width="1"/><text x="88.0" y="36.0" text-anchor="middle" font-family="Arial" font-size="9" fill="#666">1</text><text x="88.0" y="524.0" text-anchor="middle" font-family="Arial" font-size="9" fill="#666">1</text><line x1="109.0" y1="46.0" x2="109.0" y2="42.0" stroke="#888" stroke-width="1"/><line x1="109.0" y1="508.0" x2="109.0" y2="512.0" stroke="#888" stroke-width="1"/><line x1="130.0" y1="46.0" x2="130.0" y2="38.0" stroke="#888" stroke-width="1"/><line x1="130.0" y1="508.0" x2="130.0" y2="516.0" stroke="#888" stroke-width="1"/><text x="130.0" y="36.0" text-anchor="middle" font-family="Arial" font-size="9" fill="#666">2</text><text x="130.0" y="524.0" text-anchor="middle" font-family="Arial" font-size="9" fill="#666">2</text><line x1="151.0" y1="46.0" x2="151.0" y2="42.0" stroke="#888" stroke-width="1"/><line x1="151.0" y1="508.0" x2="151.0" y2="512.0" stroke="#888" stroke-width="1"/><line x1="172.0" y1="46.0" x2="172.0" y2="38.0" stroke="#888" stroke-width="1"/><line x1="172.0" y1="508.0" x2="172.0" y2="516.0" stroke="#888" stroke-width="1"/><text x="172.0" y="36.0" text-anchor="middle" font-family="Arial" font-size="9" fill="#666">3</text><text x="172.0" y="524.0" text-anchor="middle" font-family="Arial" font-size="9" fill="#666">3</text><line x1="193.0" y1="46.0" x2="193.0" y2="42.0" stroke="#888" stroke-width="1"/><line x1="193.0" y1="508.0" x2="193.0" y2="512.0" stroke="#888" stroke-width="1"/><line x1="214.0" y1="46.0" x2="214.0" y2="38.0" stroke="#888" stroke-width="1"/><line x1="214.0" y1="508.0" x2="214.0" y2="516.0" stroke="#888" stroke-width="1"/><text x="214.0" y="36.0" text-anchor="middle" font-family="Arial" font-size="9" fill="#666">4</text><text x="214.0" y="524.0" text-anchor="middle" font-family="Arial" font-size="9" fill="#666">4</text><line x1="235.0" y1="46.0" x2="235.0" y2="42.0" stroke="#888" stroke-width="1"/><line x1="235.0" y1="508.0" x2="235.0" y2="512.0" stroke="#888" stroke-width="1"/><line x1="256.0" y1="46.0" x2="256.0" y2="38.0" stroke="#888" stroke-width="1"/><line x1="256.0" y1="508.0" x2="256.0" y2="516.0" stroke="#888" stroke-width="1"/><text x="256.0" y="36.0" text-anchor="middle" font-family="Arial" font-size="9" fill="#666">5</text><text x="256.0" y="524.0" text-anchor="middle" font-family="Arial" font-size="9" fill="#666">5</text><line x1="277.0" y1="46.0" x2="277.0" y2="42.0" stroke="#888" stroke-width="1"/><line x1="277.0" y1="508.0" x2="277.0" y2="512.0" stroke="#888" stroke-width="1"/><line x1="298.0" y1="46.0" x2="298.0" y2="38.0" stroke="#888" stroke-width="1"/><line x1="298.0" y1="508.0" x2="298.0" y2="516.0" stroke="#888" stroke-width="1"/><text x="298.0" y="36.0" text-anchor="middle" font-family="Arial" font-size="9" fill="#666">6</text><text x="298.0" y="524.0" text-anchor="middle" font-family="Arial" font-size="9" fill="#666">6</text><line x1="319.0" y1="46.0" x2="319.0" y2="42.0" stroke="#888" stroke-width="1"/><line x1="319.0" y1="508.0" x2="319.0" y2="512.0" stroke="#888" stroke-width="1"/><line x1="340.0" y1="46.0" x2="340.0" y2="38.0" stroke="#888" stroke-width="1"/><line x1="340.0" y1="508.0" x2="340.0" y2="516.0" stroke="#888" stroke-width="1"/><text x="340.0" y="36.0" text-anchor="middle" font-family="Arial" font-size="9" fill="#666">7</text><text x="340.0" y="524.0" text-anchor="middle" font-family="Arial" font-size="9" fill="#666">7</text><line x1="361.0" y1="46.0" x2="361.0" y2="42.0" stroke="#888" stroke-width="1"/><line x1="361.0" y1="508.0" x2="361.0" y2="512.0" stroke="#888" stroke-width="1"/><line x1="382.0" y1="46.0" x2="382.0" y2="38.0" stroke="#888" stroke-width="1"/><line x1="382.0" y1="508.0" x2="382.0" y2="516.0" stroke="#888" stroke-width="1"/><text x="382.0" y="36.0" text-anchor="middle" font-family="Arial" font-size="9" fill="#666">8</text><text x="382.0" y="524.0" text-anchor="middle" font-family="Arial" font-size="9" fill="#666">8</text><line x1="403.0" y1="46.0" x2="403.0" y2="42.0" stroke="#888" stroke-width="1"/><line x1="403.0" y1="508.0" x2="403.0" y2="512.0" stroke="#888" stroke-width="1"/><line x1="424.0" y1="46.0" x2="424.0" y2="38.0" stroke="#888" stroke-width="1"/><line x1="424.0" y1="508.0" x2="424.0" y2="516.0" stroke="#888" stroke-width="1"/><text x="424.0" y="36.0" text-anchor="middle" font-family="Arial" font-size="9" fill="#666">9</text><text x="424.0" y="524.0" text-anchor="middle" font-family="Arial" font-size="9" fill="#666">9</text><line x1="445.0" y1="46.0" x2="445.0" y2="42.0" stroke="#888" stroke-width="1"/><line x1="445.0" y1="508.0" x2="445.0" y2="512.0" stroke="#888" stroke-width="1"/><line x1="466.0" y1="46.0" x2="466.0" y2="38.0" stroke="#888" stroke-width="1"/><line x1="466.0" y1="508.0" x2="466.0" y2="516.0" stroke="#888" stroke-width="1"/><text x="466.0" y="36.0" text-anchor="middle" font-family="Arial" font-size="9" fill="#666">10</text><text x="466.0" y="524.0" text-anchor="middle" font-family="Arial" font-size="9" fill="#666">10</text><line x1="487.0" y1="46.0" x2="487.0" y2="42.0" stroke="#888" stroke-width="1"/><line x1="487.0" y1="508.0" x2="487.0" y2="512.0" stroke="#888" stroke-width="1"/><line x1="508.0" y1="46.0" x2="508.0" y2="38.0" stroke="#888" stroke-width="1"/><line x1="508.0" y1="508.0" x2="508.0" y2="516.0" stroke="#888" stroke-width="1"/><text x="508.0" y="36.0" text-anchor="middle" font-family="Arial" font-size="9" fill="#666">11</text><text x="508.0" y="524.0" text-anchor="middle" font-family="Arial" font-size="9" fill="#666">11</text><line x1="529.0" y1="46.0" x2="529.0" y2="42.0" stroke="#888" stroke-width="1"/><line x1="529.0" y1="508.0" x2="529.0" y2="512.0" stroke="#888" stroke-width="1"/><line x1="550.0" y1="46.0" x2="550.0" y2="38.0" stroke="#888" stroke-width="1"/><line x1="550.0" y1="508.0" x2="550.0" y2="516.0" stroke="#888" stroke-width="1"/><text x="550.0" y="36.0" text-anchor="middle" font-family="Arial" font-size="9" fill="#666">12</text><text x="550.0" y="524.0" text-anchor="middle" font-family="Arial" font-size="9" fill="#666">12</text><line x1="571.0" y1="46.0" x2="571.0" y2="42.0" stroke="#888" stroke-width="1"/><line x1="571.0" y1="508.0" x2="571.0" y2="512.0" stroke="#888" stroke-width="1"/><line x1="592.0" y1="46.0" x2="592.0" y2="38.0" stroke="#888" stroke-width="1"/><line x1="592.0" y1="508.0" x2="592.0" y2="516.0" stroke="#888" stroke-width="1"/><text x="592.0" y="36.0" text-anchor="middle" font-family="Arial" font-size="9" fill="#666">13</text><text x="592.0" y="524.0" text-anchor="middle" font-family="Arial" font-size="9" fill="#666">13</text><line x1="613.0" y1="46.0" x2="613.0" y2="42.0" stroke="#888" stroke-width="1"/><line x1="613.0" y1="508.0" x2="613.0" y2="512.0" stroke="#888" stroke-width="1"/><line x1="634.0" y1="46.0" x2="634.0" y2="38.0" stroke="#888" stroke-width="1"/><line x1="634.0" y1="508.0" x2="634.0" y2="516.0" stroke="#888" stroke-width="1"/><text x="634.0" y="36.0" text-anchor="middle" font-family="Arial" font-size="9" fill="#666">14</text><text x="634.0" y="524.0" text-anchor="middle" font-family="Arial" font-size="9" fill="#666">14</text><line x1="655.0" y1="46.0" x2="655.0" y2="42.0" stroke="#888" stroke-width="1"/><line x1="655.0" y1="508.0" x2="655.0" y2="512.0" stroke="#888" stroke-width="1"/><line x1="676.0" y1="46.0" x2="676.0" y2="38.0" stroke="#888" stroke-width="1"/><line x1="676.0" y1="508.0" x2="676.0" y2="516.0" stroke="#888" stroke-width="1"/><text x="676.0" y="36.0" text-anchor="middle" font-family="Arial" font-size="9" fill="#666">15</text><text x="676.0" y="524.0" text-anchor="middle" font-family="Arial" font-size="9" fill="#666">15</text><line x1="697.0" y1="46.0" x2="697.0" y2="42.0" stroke="#888" stroke-width="1"/><line x1="697.0" y1="508.0" x2="697.0" y2="512.0" stroke="#888" stroke-width="1"/><line x1="718.0" y1="46.0" x2="718.0" y2="38.0" stroke="#888" stroke-width="1"/><line x1="718.0" y1="508.0" x2="718.0" y2="516.0" stroke="#888" stroke-width="1"/><text x="718.0" y="36.0" text-anchor="middle" font-family="Arial" font-size="9" fill="#666">16</text><text x="718.0" y="524.0" text-anchor="middle" font-family="Arial" font-size="9" fill="#666">16</text><line x1="46.0" y1="508.0" x2="38.0" y2="508.0" stroke="#888" stroke-width="1"/><line x1="718.0" y1="508.0" x2="726.0" y2="508.0" stroke="#888" stroke-width="1"/><text x="36.0" y="511.0" text-anchor="end" font-family="Arial" font-size="9" fill="#666">0</text><text x="728.0" y="511.0" text-anchor="start" font-family="Arial" font-size="9" fill="#666">0</text><line x1="46.0" y1="487.0" x2="42.0" y2="487.0" stroke="#888" stroke-width="1"/><line x1="718.0" y1="487.0" x2="722.0" y2="487.0" stroke="#888" stroke-width="1"/><line x1="46.0" y1="466.0" x2="38.0" y2="466.0" stroke="#888" stroke-width="1"/><line x1="718.0" y1="466.0" x2="726.0" y2="466.0" stroke="#888" stroke-width="1"/><text x="36.0" y="469.0" text-anchor="end" font-family="Arial" font-size="9" fill="#666">1</text><text x="728.0" y="469.0" text-anchor="start" font-family="Arial" font-size="9" fill="#666">1</text><line x1="46.0" y1="445.0" x2="42.0" y2="445.0" stroke="#888" stroke-width="1"/><line x1="718.0" y1="445.0" x2="722.0" y2="445.0" stroke="#888" stroke-width="1"/><line x1="46.0" y1="424.0" x2="38.0" y2="424.0" stroke="#888" stroke-width="1"/><line x1="718.0" y1="424.0" x2="726.0" y2="424.0" stroke="#888" stroke-width="1"/><text x="36.0" y="427.0" text-anchor="end" font-family="Arial" font-size="9" fill="#666">2</text><text x="728.0" y="427.0" text-anchor="start" font-family="Arial" font-size="9" fill="#666">2</text><line x1="46.0" y1="403.0" x2="42.0" y2="403.0" stroke="#888" stroke-width="1"/><line x1="718.0" y1="403.0" x2="722.0" y2="403.0" stroke="#888" stroke-width="1"/><line x1="46.0" y1="382.0" x2="38.0" y2="382.0" stroke="#888" stroke-width="1"/><line x1="718.0" y1="382.0" x2="726.0" y2="382.0" stroke="#888" stroke-width="1"/><text x="36.0" y="385.0" text-anchor="end" font-family="Arial" font-size="9" fill="#666">3</text><text x="728.0" y="385.0" text-anchor="start" font-family="Arial" font-size="9" fill="#666">3</text><line x1="46.0" y1="361.0" x2="42.0" y2="361.0" stroke="#888" stroke-width="1"/><line x1="718.0" y1="361.0" x2="722.0" y2="361.0" stroke="#888" stroke-width="1"/><line x1="46.0" y1="340.0" x2="38.0" y2="340.0" stroke="#888" stroke-width="1"/><line x1="718.0" y1="340.0" x2="726.0" y2="340.0" stroke="#888" stroke-width="1"/><text x="36.0" y="343.0" text-anchor="end" font-family="Arial" font-size="9" fill="#666">4</text><text x="728.0" y="343.0" text-anchor="start" font-family="Arial" font-size="9" fill="#666">4</text><line x1="46.0" y1="319.0" x2="42.0" y2="319.0" stroke="#888" stroke-width="1"/><line x1="718.0" y1="319.0" x2="722.0" y2="319.0" stroke="#888" stroke-width="1"/><line x1="46.0" y1="298.0" x2="38.0" y2="298.0" stroke="#888" stroke-width="1"/><line x1="718.0" y1="298.0" x2="726.0" y2="298.0" stroke="#888" stroke-width="1"/><text x="36.0" y="301.0" text-anchor="end" font-family="Arial" font-size="9" fill="#666">5</text><text x="728.0" y="301.0" text-anchor="start" font-family="Arial" font-size="9" fill="#666">5</text><line x1="46.0" y1="277.0" x2="42.0" y2="277.0" stroke="#888" stroke-width="1"/><line x1="718.0" y1="277.0" x2="722.0" y2="277.0" stroke="#888" stroke-width="1"/><line x1="46.0" y1="256.0" x2="38.0" y2="256.0" stroke="#888" stroke-width="1"/><line x1="718.0" y1="256.0" x2="726.0" y2="256.0" stroke="#888" stroke-width="1"/><text x="36.0" y="259.0" text-anchor="end" font-family="Arial" font-size="9" fill="#666">6</text><text x="728.0" y="259.0" text-anchor="start" font-family="Arial" font-size="9" fill="#666">6</text><line x1="46.0" y1="235.0" x2="42.0" y2="235.0" stroke="#888" stroke-width="1"/><line x1="718.0" y1="235.0" x2="722.0" y2="235.0" stroke="#888" stroke-width="1"/><line x1="46.0" y1="214.0" x2="38.0" y2="214.0" stroke="#888" stroke-width="1"/><line x1="718.0" y1="214.0" x2="726.0" y2="214.0" stroke="#888" stroke-width="1"/><text x="36.0" y="217.0" text-anchor="end" font-family="Arial" font-size="9" fill="#666">7</text><text x="728.0" y="217.0" text-anchor="start" font-family="Arial" font-size="9" fill="#666">7</text><line x1="46.0" y1="193.0" x2="42.0" y2="193.0" stroke="#888" stroke-width="1"/><line x1="718.0" y1="193.0" x2="722.0" y2="193.0" stroke="#888" stroke-width="1"/><line x1="46.0" y1="172.0" x2="38.0" y2="172.0" stroke="#888" stroke-width="1"/><line x1="718.0" y1="172.0" x2="726.0" y2="172.0" stroke="#888" stroke-width="1"/><text x="36.0" y="175.0" text-anchor="end" font-family="Arial" font-size="9" fill="#666">8</text><text x="728.0" y="175.0" text-anchor="start" font-family="Arial" font-size="9" fill="#666">8</text><line x1="46.0" y1="151.0" x2="42.0" y2="151.0" stroke="#888" stroke-width="1"/><line x1="718.0" y1="151.0" x2="722.0" y2="151.0" stroke="#888" stroke-width="1"/><line x1="46.0" y1="130.0" x2="38.0" y2="130.0" stroke="#888" stroke-width="1"/><line x1="718.0" y1="130.0" x2="726.0" y2="130.0" stroke="#888" stroke-width="1"/><text x="36.0" y="133.0" text-anchor="end" font-family="Arial" font-size="9" fill="#666">9</text><text x="728.0" y="133.0" text-anchor="start" font-family="Arial" font-size="9" fill="#666">9</text><line x1="46.0" y1="109.0" x2="42.0" y2="109.0" stroke="#888" stroke-width="1"/><line x1="718.0" y1="109.0" x2="722.0" y2="109.0" stroke="#888" stroke-width="1"/><line x1="46.0" y1="88.0" x2="38.0" y2="88.0" stroke="#888" stroke-width="1"/><line x1="718.0" y1="88.0" x2="726.0" y2="88.0" stroke="#888" stroke-width="1"/><text x="36.0" y="91.0" text-anchor="end" font-family="Arial" font-size="9" fill="#666">10</text><text x="728.0" y="91.0" text-anchor="start" font-family="Arial" font-size="9" fill="#666">10</text><line x1="46.0" y1="67.0" x2="42.0" y2="67.0" stroke="#888" stroke-width="1"/><line x1="718.0" y1="67.0" x2="722.0" y2="67.0" stroke="#888" stroke-width="1"/><line x1="46.0" y1="46.0" x2="38.0" y2="46.0" stroke="#888" stroke-width="1"/><line x1="718.0" y1="46.0" x2="726.0" y2="46.0" stroke="#888" stroke-width="1"/><text x="36.0" y="49.0" text-anchor="end" font-family="Arial" font-size="9" fill="#666">11</text><text x="728.0" y="49.0" text-anchor="start" font-family="Arial" font-size="9" fill="#666">11</text><rect x="172.0" y="130.0" width="462.0" height="294.0" fill="none" stroke="#9aa" stroke-width="1" stroke-dasharray="3 3"/><rect x="62.8" y="285.4" width="109.2" height="210.0" fill="#f2f2f2" stroke="#333" stroke-width="1.5" stroke-dasharray="6 4"/><text x="117.4" y="387.8" text-anchor="middle" font-family="Arial" font-size="12" font-weight="bold" fill="#222">CARPORT</text><text x="117.4" y="403.6" text-anchor="middle" font-family="Arial" font-size="10" fill="#555">2.6×5.0 m</text><rect x="445.0" y="58.6" width="115.5" height="67.2" fill="#f2f2f2" stroke="#333" stroke-width="1.5" stroke-dasharray="6 4"/><text x="502.8" y="89.6" text-anchor="middle" font-family="Arial" font-size="12" font-weight="bold" fill="#222">DIRTY KITCHEN</text><text x="502.8" y="105.4" text-anchor="middle" font-family="Arial" font-size="10" fill="#555">2.8×1.6 m</text><rect x="172.0" y="58.6" width="273.0" height="67.2" fill="#f2f2f2" stroke="#333" stroke-width="1.5" stroke-dasharray="6 4"/><text x="308.5" y="89.6" text-anchor="middle" font-family="Arial" font-size="12" font-weight="bold" fill="#222">SERVICE</text><text x="308.5" y="105.4" text-anchor="middle" font-family="Arial" font-size="10" fill="#555">6.5×1.6 m</text><rect x="172.0" y="130.0" width="273.0" height="168.0" fill="#cfe2f3" stroke="#333" stroke-width="1.5"/><text x="308.5" y="211.3" text-anchor="middle" font-family="Arial" font-size="12" font-weight="bold" fill="#222">GREAT ROOM</text><text x="308.5" y="227.2" text-anchor="middle" font-family="Arial" font-size="10" fill="#555">6.5×4.0 m · 26.0 sqm</text><rect x="172.0" y="298.0" width="310.8" height="126.0" fill="#d9ead3" stroke="#333" stroke-width="1.5"/><text x="327.4" y="358.4" text-anchor="middle" font-family="Arial" font-size="12" font-weight="bold" fill="#222">MASTER BR</text><text x="327.4" y="374.2" text-anchor="middle" font-family="Arial" font-size="10" fill="#555">7.4×3.0 m · 22.2 sqm</text><rect x="482.8" y="298.0" width="151.2" height="126.0" fill="#d9ead3" stroke="#333" stroke-width="1.5"/><text x="558.4" y="358.4" text-anchor="middle" font-family="Arial" font-size="12" font-weight="bold" fill="#222">BEDROOM</text><text x="558.4" y="374.2" text-anchor="middle" font-family="Arial" font-size="10" fill="#555">3.6×3.0 m · 10.8 sqm</text><rect x="445.0" y="237.1" width="151.2" height="60.9" fill="#efefef" stroke="#333" stroke-width="1.5"/><text x="520.6" y="264.9" text-anchor="middle" font-family="Arial" font-size="12" font-weight="bold" fill="#222">HALL</text><text x="520.6" y="280.7" text-anchor="middle" font-family="Arial" font-size="10" fill="#555">3.6×1.4 m · 5.2 sqm</text><rect x="445.0" y="130.0" width="115.5" height="107.1" fill="#fce5cd" stroke="#333" stroke-width="1.5"/><text x="502.8" y="175.2" text-anchor="middle" font-family="Arial" font-size="12" font-weight="bold" fill="#222">KITCHEN</text><text x="502.8" y="191.0" text-anchor="middle" font-family="Arial" font-size="10" fill="#555">2.8×2.5 m</text><text x="502.8" y="202.5" text-anchor="middle" font-family="Arial" font-size="10" fill="#555">7.0 sqm</text><rect x="560.5" y="130.0" width="73.5" height="107.1" fill="#ead1dc" stroke="#333" stroke-width="1.5"/><text x="597.2" y="175.2" text-anchor="middle" font-family="Arial" font-size="12" font-weight="bold" fill="#222">T&amp;B</text><text x="597.2" y="191.0" text-anchor="middle" font-family="Arial" font-size="10" fill="#555">1.8×2.5 m</text><text x="597.2" y="202.5" text-anchor="middle" font-family="Arial" font-size="10" fill="#555">4.5 sqm</text><rect x="596.2" y="237.1" width="37.8" height="60.9" fill="#ead1dc" stroke="#333" stroke-width="1.5"/><text x="615.1" y="272.7" text-anchor="middle" font-family="Arial" font-size="12" font-weight="bold" fill="#222">WC</text><text x="382.0" y="542.0" text-anchor="middle" font-family="Arial" font-size="12" font-weight="bold" fill="#888">FRONT (street)</text><rect x="172.00" y="295.90" width="273.00" height="4.20" fill="#555" stroke="none"/><rect x="480.70" y="298.00" width="4.20" height="126.00" fill="#555" stroke="none"/><rect x="445.00" y="295.90" width="37.80" height="4.20" fill="#555" stroke="none"/><rect x="482.80" y="295.90" width="113.40" height="4.20" fill="#555" stroke="none"/><rect x="596.20" y="295.90" width="37.80" height="4.20" fill="#555" stroke="none"/><rect x="445.00" y="235.00" width="115.50" height="4.20" fill="#555" stroke="none"/><rect x="560.50" y="235.00" width="35.70" height="4.20" fill="#555" stroke="none"/><rect x="594.10" y="237.10" width="4.20" height="60.90" fill="#555" stroke="none"/><rect x="558.40" y="130.00" width="4.20" height="107.10" fill="#555" stroke="none"/><rect x="596.20" y="235.00" width="37.80" height="4.20" fill="#555" stroke="none"/><rect x="172.00" y="125.80" width="273.00" height="8.40" fill="#555" stroke="none"/><rect x="167.80" y="130.00" width="8.40" height="168.00" fill="#555" stroke="none"/><rect x="172.00" y="419.80" width="310.80" height="8.40" fill="#555" stroke="none"/><rect x="167.80" y="298.00" width="8.40" height="126.00" fill="#555" stroke="none"/><rect x="482.80" y="419.80" width="151.20" height="8.40" fill="#555" stroke="none"/><rect x="629.80" y="298.00" width="8.40" height="126.00" fill="#555" stroke="none"/><rect x="445.00" y="125.80" width="115.50" height="8.40" fill="#555" stroke="none"/><rect x="560.50" y="125.80" width="73.50" height="8.40" fill="#555" stroke="none"/><rect x="629.80" y="130.00" width="8.40" height="107.10" fill="#555" stroke="none"/><rect x="629.80" y="237.10" width="8.40" height="60.90" fill="#555" stroke="none"/><rect x="167.80" y="293.80" width="8.40" height="8.40" fill="#555" stroke="none"/><rect x="440.80" y="293.80" width="8.40" height="8.40" fill="#555" stroke="none"/><rect x="478.60" y="419.80" width="8.40" height="8.40" fill="#555" stroke="none"/><rect x="478.60" y="293.80" width="8.40" height="8.40" fill="#555" stroke="none"/><rect x="440.80" y="293.80" width="8.40" height="8.40" fill="#555" stroke="none"/><rect x="478.60" y="293.80" width="8.40" height="8.40" fill="#555" stroke="none"/><rect x="478.60" y="293.80" width="8.40" height="8.40" fill="#555" stroke="none"/><rect x="592.00" y="293.80" width="8.40" height="8.40" fill="#555" stroke="none"/><rect x="592.00" y="293.80" width="8.40" height="8.40" fill="#555" stroke="none"/><rect x="629.80" y="293.80" width="8.40" height="8.40" fill="#555" stroke="none"/><rect x="440.80" y="232.90" width="8.40" height="8.40" fill="#555" stroke="none"/><rect x="556.30" y="232.90" width="8.40" height="8.40" fill="#555" stroke="none"/><rect x="556.30" y="232.90" width="8.40" height="8.40" fill="#555" stroke="none"/><rect x="592.00" y="232.90" width="8.40" height="8.40" fill="#555" stroke="none"/><rect x="592.00" y="293.80" width="8.40" height="8.40" fill="#555" stroke="none"/><rect x="592.00" y="232.90" width="8.40" height="8.40" fill="#555" stroke="none"/><rect x="556.30" y="232.90" width="8.40" height="8.40" fill="#555" stroke="none"/><rect x="556.30" y="125.80" width="8.40" height="8.40" fill="#555" stroke="none"/><rect x="592.00" y="232.90" width="8.40" height="8.40" fill="#555" stroke="none"/><rect x="629.80" y="232.90" width="8.40" height="8.40" fill="#555" stroke="none"/><rect x="167.80" y="125.80" width="8.40" height="8.40" fill="#555" stroke="none"/><rect x="440.80" y="125.80" width="8.40" height="8.40" fill="#555" stroke="none"/><rect x="167.80" y="293.80" width="8.40" height="8.40" fill="#555" stroke="none"/><rect x="167.80" y="125.80" width="8.40" height="8.40" fill="#555" stroke="none"/><rect x="167.80" y="419.80" width="8.40" height="8.40" fill="#555" stroke="none"/><rect x="478.60" y="419.80" width="8.40" height="8.40" fill="#555" stroke="none"/><rect x="167.80" y="419.80" width="8.40" height="8.40" fill="#555" stroke="none"/><rect x="167.80" y="293.80" width="8.40" height="8.40" fill="#555" stroke="none"/><rect x="478.60" y="419.80" width="8.40" height="8.40" fill="#555" stroke="none"/><rect x="629.80" y="419.80" width="8.40" height="8.40" fill="#555" stroke="none"/><rect x="629.80" y="419.80" width="8.40" height="8.40" fill="#555" stroke="none"/><rect x="629.80" y="293.80" width="8.40" height="8.40" fill="#555" stroke="none"/><rect x="440.80" y="125.80" width="8.40" height="8.40" fill="#555" stroke="none"/><rect x="556.30" y="125.80" width="8.40" height="8.40" fill="#555" stroke="none"/><rect x="556.30" y="125.80" width="8.40" height="8.40" fill="#555" stroke="none"/><rect x="629.80" y="125.80" width="8.40" height="8.40" fill="#555" stroke="none"/><rect x="629.80" y="232.90" width="8.40" height="8.40" fill="#555" stroke="none"/><rect x="629.80" y="125.80" width="8.40" height="8.40" fill="#555" stroke="none"/><rect x="629.80" y="293.80" width="8.40" height="8.40" fill="#555" stroke="none"/><rect x="629.80" y="232.90" width="8.40" height="8.40" fill="#555" stroke="none"/><rect x="440.0" y="241.3" width="5.0" height="52.5" fill="#cfe2f3" stroke="none"/><rect x="445.0" y="241.3" width="5.0" height="52.5" fill="#efefef" stroke="none"/><rect x="440.0" y="134.2" width="5.0" height="98.7" fill="#cfe2f3" stroke="none"/><rect x="445.0" y="134.2" width="5.0" height="98.7" fill="#fce5cd" stroke="none"/><rect x="445.0" y="298.0" width="33.6" height="5.0" fill="#d9ead3" stroke="none"/><rect x="445.0" y="293.0" width="33.6" height="5.0" fill="#efefef" stroke="none"/><line x1="478.6" y1="298.0" x2="478.6" y2="331.6" stroke="#444" stroke-width="1.4"/><path d="M 478.6 331.6 A 33.6 33.6 0 0 1 445.0 298.0" fill="none" stroke="#999" stroke-width="0.7" stroke-dasharray="2 2"/><rect x="489.1" y="298.0" width="33.6" height="5.0" fill="#d9ead3" stroke="none"/><rect x="489.1" y="293.0" width="33.6" height="5.0" fill="#efefef" stroke="none"/><line x1="489.1" y1="298.0" x2="489.1" y2="331.6" stroke="#444" stroke-width="1.4"/><path d="M 489.1 331.6 A 33.6 33.6 0 0 0 522.7 298.0" fill="none" stroke="#999" stroke-width="0.7" stroke-dasharray="2 2"/><rect x="566.8" y="232.1" width="29.4" height="5.0" fill="#ead1dc" stroke="none"/><rect x="566.8" y="237.1" width="29.4" height="5.0" fill="#efefef" stroke="none"/><line x1="566.8" y1="237.1" x2="566.8" y2="207.7" stroke="#444" stroke-width="1.4"/><path d="M 566.8 207.7 A 29.4 29.4 0 0 1 596.2 237.1" fill="none" stroke="#999" stroke-width="0.7" stroke-dasharray="2 2"/><rect x="596.2" y="262.3" width="5.0" height="29.4" fill="#ead1dc" stroke="none"/><rect x="591.2" y="262.3" width="5.0" height="29.4" fill="#efefef" stroke="none"/><line x1="596.2" y1="291.7" x2="625.6" y2="291.7" stroke="#444" stroke-width="1.4"/><path d="M 625.6 291.7 A 29.4 29.4 0 0 0 596.2 262.3" fill="none" stroke="#999" stroke-width="0.7" stroke-dasharray="2 2"/><rect x="172.0" y="195.1" width="5.0" height="37.8" fill="#cfe2f3" stroke="none"/><rect x="167.0" y="195.1" width="5.0" height="37.8" fill="#fbfbf7" stroke="none"/><line x1="172.0" y1="232.9" x2="209.8" y2="232.9" stroke="#444" stroke-width="1.4"/><path d="M 209.8 232.9 A 37.8 37.8 0 0 0 172.0 195.1" fill="none" stroke="#999" stroke-width="0.7" stroke-dasharray="2 2"/><rect x="520.6" y="130.0" width="33.6" height="5.0" fill="#fce5cd" stroke="none"/><rect x="520.6" y="125.0" width="33.6" height="5.0" fill="#fbfbf7" stroke="none"/><line x1="554.2" y1="130.0" x2="554.2" y2="163.6" stroke="#444" stroke-width="1.4"/><path d="M 554.2 163.6 A 33.6 33.6 0 0 1 520.6 130.0" fill="none" stroke="#999" stroke-width="0.7" stroke-dasharray="2 2"/><rect x="258.1" y="130.0" width="100.8" height="5.0" fill="#cfe2f3" stroke="none"/><rect x="258.1" y="125.0" width="100.8" height="5.0" fill="#fbfbf7" stroke="none"/><line x1="258.1" y1="127.0" x2="358.9" y2="127.0" stroke="#222" stroke-width="1.0"/><line x1="258.1" y1="130.0" x2="358.9" y2="130.0" stroke="#222" stroke-width="1.0"/><line x1="258.1" y1="133.0" x2="358.9" y2="133.0" stroke="#222" stroke-width="1.0"/><rect x="172.0" y="252.8" width="5.0" height="37.8" fill="#cfe2f3" stroke="none"/><rect x="167.0" y="252.8" width="5.0" height="37.8" fill="#fbfbf7" stroke="none"/><line x1="169.0" y1="290.6" x2="169.0" y2="252.8" stroke="#222" stroke-width="1.0"/><line x1="172.0" y1="290.6" x2="172.0" y2="252.8" stroke="#222" stroke-width="1.0"/><line x1="175.0" y1="290.6" x2="175.0" y2="252.8" stroke="#222" stroke-width="1.0"/><rect x="277.0" y="419.0" width="100.8" height="5.0" fill="#d9ead3" stroke="none"/><rect x="277.0" y="424.0" width="100.8" height="5.0" fill="#fbfbf7" stroke="none"/><line x1="277.0" y1="421.0" x2="377.8" y2="421.0" stroke="#222" stroke-width="1.0"/><line x1="277.0" y1="424.0" x2="377.8" y2="424.0" stroke="#222" stroke-width="1.0"/><line x1="277.0" y1="427.0" x2="377.8" y2="427.0" stroke="#222" stroke-width="1.0"/><rect x="172.0" y="326.4" width="5.0" height="69.3" fill="#d9ead3" stroke="none"/><rect x="167.0" y="326.4" width="5.0" height="69.3" fill="#fbfbf7" stroke="none"/><line x1="169.0" y1="395.6" x2="169.0" y2="326.4" stroke="#222" stroke-width="1.0"/><line x1="172.0" y1="395.6" x2="172.0" y2="326.4" stroke="#222" stroke-width="1.0"/><line x1="175.0" y1="395.6" x2="175.0" y2="326.4" stroke="#222" stroke-width="1.0"/><rect x="516.8" y="419.0" width="83.2" height="5.0" fill="#d9ead3" stroke="none"/><rect x="516.8" y="424.0" width="83.2" height="5.0" fill="#fbfbf7" stroke="none"/><line x1="516.8" y1="421.0" x2="600.0" y2="421.0" stroke="#222" stroke-width="1.0"/><line x1="516.8" y1="424.0" x2="600.0" y2="424.0" stroke="#222" stroke-width="1.0"/><line x1="516.8" y1="427.0" x2="600.0" y2="427.0" stroke="#222" stroke-width="1.0"/><rect x="629.0" y="326.4" width="5.0" height="69.3" fill="#d9ead3" stroke="none"/><rect x="634.0" y="326.4" width="5.0" height="69.3" fill="#fbfbf7" stroke="none"/><line x1="631.0" y1="395.6" x2="631.0" y2="326.4" stroke="#222" stroke-width="1.0"/><line x1="634.0" y1="395.6" x2="634.0" y2="326.4" stroke="#222" stroke-width="1.0"/><line x1="637.0" y1="395.6" x2="637.0" y2="326.4" stroke="#222" stroke-width="1.0"/><rect x="457.6" y="130.0" width="37.8" height="5.0" fill="#fce5cd" stroke="none"/><rect x="457.6" y="125.0" width="37.8" height="5.0" fill="#fbfbf7" stroke="none"/><line x1="457.6" y1="127.0" x2="495.4" y2="127.0" stroke="#222" stroke-width="1.0"/><line x1="457.6" y1="130.0" x2="495.4" y2="130.0" stroke="#222" stroke-width="1.0"/><line x1="457.6" y1="133.0" x2="495.4" y2="133.0" stroke="#222" stroke-width="1.0"/><rect x="629.0" y="164.6" width="5.0" height="37.8" fill="#ead1dc" stroke="none"/><rect x="634.0" y="164.6" width="5.0" height="37.8" fill="#fbfbf7" stroke="none"/><line x1="631.0" y1="202.4" x2="631.0" y2="164.6" stroke="#222" stroke-width="1.0"/><line x1="634.0" y1="202.4" x2="634.0" y2="164.6" stroke="#222" stroke-width="1.0"/><line x1="637.0" y1="202.4" x2="637.0" y2="164.6" stroke="#222" stroke-width="1.0"/><rect x="578.9" y="130.0" width="36.8" height="5.0" fill="#ead1dc" stroke="none"/><rect x="578.9" y="125.0" width="36.8" height="5.0" fill="#fbfbf7" stroke="none"/><line x1="578.9" y1="127.0" x2="615.6" y2="127.0" stroke="#222" stroke-width="1.0"/><line x1="578.9" y1="130.0" x2="615.6" y2="130.0" stroke="#222" stroke-width="1.0"/><line x1="578.9" y1="133.0" x2="615.6" y2="133.0" stroke="#222" stroke-width="1.0"/><rect x="629.0" y="252.3" width="5.0" height="30.4" fill="#ead1dc" stroke="none"/><rect x="634.0" y="252.3" width="5.0" height="30.4" fill="#fbfbf7" stroke="none"/><line x1="631.0" y1="282.8" x2="631.0" y2="252.3" stroke="#222" stroke-width="1.0"/><line x1="634.0" y1="282.8" x2="634.0" y2="252.3" stroke="#222" stroke-width="1.0"/><line x1="637.0" y1="282.8" x2="637.0" y2="252.3" stroke="#222" stroke-width="1.0"/></svg>