<svg xmlns="http://www.w3.org/2000/svg" width="651" height="638" viewBox="0 0 651 638"><rect x="0" y="0" width="651" height="638" fill="white"/><rect x="46.0" y="46.0" width="558.6" height="546.0" fill="#fbfbf7" stroke="#333" stroke-width="1.5"/><line x1="46.0" y1="46.0" x2="46.0" y2="38.0" stroke="#888" stroke-width="1"/><line x1="46.0" y1="592.0" x2="46.0" y2="600.0" stroke="#888" stroke-width="1"/><text x="46.0" y="36.0" text-anchor="middle" font-family="Arial" font-size="9" fill="#666">0</text><text x="46.0" y="608.0" text-anchor="middle" font-family="Arial" font-size="9" fill="#666">0</text><line x1="67.0" y1="46.0" x2="67.0" y2="42.0" stroke="#888" stroke-width="1"/><line x1="67.0" y1="592.0" x2="67.0" y2="596.0" stroke="#888" stroke-width="1"/><line x1="88.0" y1="46.0" x2="88.0" y2="38.0" stroke="#888" stroke-width="1"/><line x1="88.0" y1="592.0" x2="88.0" y2="600.0" stroke="#888" stroke-width="1"/><text x="88.0" y="36.0" text-anchor="middle" font-family="Arial" font-size="9" fill="#666">1</text><text x="88.0" y="608.0" text-anchor="middle" font-family="Arial" font-size="9" fill="#666">1</text><line x1="109.0" y1="46.0" x2="109.0" y2="42.0" stroke="#888" stroke-width="1"/><line x1="109.0" y1="592.0" x2="109.0" y2="596.0" stroke="#888" stroke-width="1"/><line x1="130.0" y1="46.0" x2="130.0" y2="38.0" stroke="#888" stroke-width="1"/><line x1="130.0" y1="592.0" x2="130.0" y2="600.0" stroke="#888" stroke-width="1"/><text x="130.0" y="36.0" text-anchor="middle" font-family="Arial" font-size="9" fill="#666">2</text><text x="130.0" y="608.0" text-anchor="middle" font-family="Arial" font-size="9" fill="#666">2</text><line x1="151.0" y1="46.0" x2="151.0" y2="42.0" stroke="#888" stroke-width="1"/><line x1="151.0" y1="592.0" x2="151.0" y2="596.0" stroke="#888" stroke-width="1"/><line x1="172.0" y1="46.0" x2="172.0" y2="38.0" stroke="#888" stroke-width="1"/><line x1="172.0" y1="592.0" x2="172.0" y2="600.0" stroke="#888" stroke-width="1"/><text x="172.0" y="36.0" text-anchor="middle" font-family="Arial" font-size="9" fill="#666">3</text><text x="172.0" y="608.0" text-anchor="middle" font-family="Arial" font-size="9" fill="#666">3</text><line x1="193.0" y1="46.0" x2="193.0" y2="42.0" stroke="#888" stroke-width="1"/><line x1="193.0" y1="592.0" x2="193.0" y2="596.0" stroke="#888" stroke-width="1"/><line x1="214.0" y1="46.0" x2="214.0" y2="38.0" stroke="#888" stroke-width="1"/><line x1="214.0" y1="592.0" x2="214.0" y2="600.0" stroke="#888" stroke-width="1"/><text x="214.0" y="36.0" text-anchor="middle" font-family="Arial" font-size="9" fill="#666">4</text><text x="214.0" y="608.0" text-anchor="middle" font-family="Arial" font-size="9" fill="#666">4</text><line x1="235.0" y1="46.0" x2="235.0" y2="42.0" stroke="#888" stroke-width="1"/><line x1="235.0" y1="592.0" x2="235.0" y2="596.0" stroke="#888" stroke-width="1"/><line x1="256.0" y1="46.0" x2="256.0" y2="38.0" stroke="#888" stroke-width="1"/><line x1="256.0" y1="592.0" x2="256.0" y2="600.0" stroke="#888" stroke-width="1"/><text x="256.0" y="36.0" text-anchor="middle" font-family="Arial" font-size="9" fill="#666">5</text><text x="256.0" y="608.0" text-anchor="middle" font-family="Arial" font-size="9" fill="#666">5</text><line x1="277.0" y1="46.0" x2="277.0" y2="42.0" stroke="#888" stroke-width="1"/><line x1="277.0" y1="592.0" x2="277.0" y2="596.0" stroke="#888" stroke-width="1"/><line x1="298.0" y1="46.0" x2="298.0" y2="38.0" stroke="#888" stroke-width="1"/><line x1="298.0" y1="592.0" x2="298.0" y2="600.0" stroke="#888" stroke-width="1"/><text x="298.0" y="36.0" text-anchor="middle" font-family="Arial" font-size="9" fill="#666">6</text><text x="298.0" y="608.0" text-anchor="middle" font-family="Arial" font-size="9" fill="#666">6</text><line x1="319.0" y1="46.0" x2="319.0" y2="42.0" stroke="#888" stroke-width="1"/><line x1="319.0" y1="592.0" x2="319.0" y2="596.0" stroke="#888" stroke-width="1"/><line x1="340.0" y1="46.0" x2="340.0" y2="38.0" stroke="#888" stroke-width="1"/><line x1="340.0" y1="592.0" x2="340.0" y2="600.0" stroke="#888" stroke-width="1"/><text x="340.0" y="36.0" text-anchor="middle" font-family="Arial" font-size="9" fill="#666">7</text><text x="340.0" y="608.0" text-anchor="middle" font-family="Arial" font-size="9" fill="#666">7</text><line x1="361.0" y1="46.0" x2="361.0" y2="42.0" stroke="#888" stroke-width="1"/><line x1="361.0" y1="592.0" x2="361.0" y2="596.0" stroke="#888" stroke-width="1"/><line x1="382.0" y1="46.0" x2="382.0" y2="38.0" stroke="#888" stroke-width="1"/><line x1="382.0" y1="592.0" x2="382.0" y2="600.0" stroke="#888" stroke-width="1"/><text x="382.0" y="36.0" text-anchor="middle" font-family="Arial" font-size="9" fill="#666">8</text><text x="382.0" y="608.0" text-anchor="middle" font-family="Arial" font-size="9" fill="#666">8</text><line x1="403.0" y1="46.0" x2="403.0" y2="42.0" stroke="#888" stroke-width="1"/><line x1="403.0" y1="592.0" x2="403.0" y2="596.0" stroke="#888" stroke-width="1"/><line x1="424.0" y1="46.0" x2="424.0" y2="38.0" stroke="#888" stroke-width="1"/><line x1="424.0" y1="592.0" x2="424.0" y2="600.0" stroke="#888" stroke-width="1"/><text x="424.0" y="36.0" text-anchor="middle" font-family="Arial" font-size="9" fill="#666">9</text><text x="424.0" y="608.0" text-anchor="middle" font-family="Arial" font-size="9" fill="#666">9</text><line x1="445.0" y1="46.0" x2="445.0" y2="42.0" stroke="#888" stroke-width="1"/><line x1="445.0" y1="592.0" x2="445.0" y2="596.0" stroke="#888" stroke-width="1"/><line x1="466.0" y1="46.0" x2="466.0" y2="38.0" stroke="#888" stroke-width="1"/><line x1="466.0" y1="592.0" x2="466.0" y2="600.0" stroke="#888" stroke-width="1"/><text x="466.0" y="36.0" text-anchor="middle" font-family="Arial" font-size="9" fill="#666">10</text><text x="466.0" y="608.0" text-anchor="middle" font-family="Arial" font-size="9" fill="#666">10</text><line x1="487.0" y1="46.0" x2="487.0" y2="42.0" stroke="#888" stroke-width="1"/><line x1="487.0" y1="592.0" x2="487.0" y2="596.0" stroke="#888" stroke-width="1"/><line x1="508.0" y1="46.0" x2="508.0" y2="38.0" stroke="#888" stroke-width="1"/><line x1="508.0" y1="592.0" x2="508.0" y2="600.0" stroke="#888" stroke-width="1"/><text x="508.0" y="36.0" text-anchor="middle" font-family="Arial" font-size="9" fill="#666">11</text><text x="508.0" y="608.0" text-anchor="middle" font-family="Arial" font-size="9" fill="#666">11</text><line x1="529.0" y1="46.0" x2="529.0" y2="42.0" stroke="#888" stroke-width="1"/><line x1="529.0" y1="592.0" x2="529.0" y2="596.0" stroke="#888" stroke-width="1"/><line x1="550.0" y1="46.0" x2="550.0" y2="38.0" stroke="#888" stroke-width="1"/><line x1="550.0" y1="592.0" x2="550.0" y2="600.0" stroke="#888" stroke-width="1"/><text x="550.0" y="36.0" text-anchor="middle" font-family="Arial" font-size="9" fill="#666">12</text><text x="550.0" y="608.0" text-anchor="middle" font-family="Arial" font-size="9" fill="#666">12</text><line x1="571.0" y1="46.0" x2="571.0" y2="42.0" stroke="#888" stroke-width="1"/><line x1="571.0" y1="592.0" x2="571.0" y2="596.0" stroke="#888" stroke-width="1"/><line x1="592.0" y1="46.0" x2="592.0" y2="38.0" stroke="#888" stroke-width="1"/><line x1="592.0" y1="592.0" x2="592.0" y2="600.0" stroke="#888" stroke-width="1"/><text x="592.0" y="36.0" text-anchor="middle" font-family="Arial" font-size="9" fill="#666">13</text><text x="592.0" y="608.0" text-anchor="middle" font-family="Arial" font-size="9" fill="#666">13</text><line x1="613.0" y1="46.0" x2="613.0" y2="42.0" stroke="#888" stroke-width="1"/><line x1="613.0" y1="592.0" x2="613.0" y2="596.0" stroke="#888" stroke-width="1"/><line x1="46.0" y1="592.0" x2="38.0" y2="592.0" stroke="#888" stroke-width="1"/><line x1="604.6" y1="592.0" x2="612.6" y2="592.0" stroke="#888" stroke-width="1"/><text x="36.0" y="595.0" text-anchor="end" font-family="Arial" font-size="9" fill="#666">0</text><text x="614.6" y="595.0" text-anchor="start" font-family="Arial" font-size="9" fill="#666">0</text><line x1="46.0" y1="571.0" x2="42.0" y2="571.0" stroke="#888" stroke-width="1"/><line x1="604.6" y1="571.0" x2="608.6" y2="571.0" stroke="#888" stroke-width="1"/><line x1="46.0" y1="550.0" x2="38.0" y2="550.0" stroke="#888" stroke-width="1"/><line x1="604.6" y1="550.0" x2="612.6" y2="550.0" stroke="#888" stroke-width="1"/><text x="36.0" y="553.0" text-anchor="end" font-family="Arial" font-size="9" fill="#666">1</text><text x="614.6" y="553.0" text-anchor="start" font-family="Arial" font-size="9" fill="#666">1</text><line x1="46.0" y1="529.0" x2="42.0" y2="529.0" stroke="#888" stroke-width="1"/><line x1="604.6" y1="529.0" x2="608.6" y2="529.0" stroke="#888" stroke-width="1"/><line x1="46.0" y1="508.0" x2="38.0" y2="508.0" stroke="#888" stroke-width="1"/><line x1="604.6" y1="508.0" x2="612.6" y2="508.0" stroke="#888" stroke-width="1"/><text x="36.0" y="511.0" text-anchor="end" font-family="Arial" font-size="9" fill="#666">2</text><text x="614.6" y="511.0" text-anchor="start" font-family="Arial" font-size="9" fill="#666">2</text><line x1="46.0" y1="487.0" x2="42.0" y2="487.0" stroke="#888" stroke-width="1"/><line x1="604.6" y1="487.0" x2="608.6" y2="487.0" stroke="#888" stroke-width="1"/><line x1="46.0" y1="466.0" x2="38.0" y2="466.0" stroke="#888" stroke-width="1"/><line x1="604.6" y1="466.0" x2="612.6" y2="466.0" stroke="#888" stroke-width="1"/><text x="36.0" y="469.0" text-anchor="end" font-family="Arial" font-size="9" fill="#666">3</text><text x="614.6" y="469.0" text-anchor="start" font-family="Arial" font-size="9" fill="#666">3</text><line x1="46.0" y1="445.0" x2="42.0" y2="445.0" stroke="#888" stroke-width="1"/><line x1="604.6" y1="445.0" x2="608.6" y2="445.0" stroke="#888" stroke-width="1"/><line x1="46.0" y1="424.0" x2="38.0" y2="424.0" stroke="#888" stroke-width="1"/><line x1="604.6" y1="424.0" x2="612.6" y2="424.0" stroke="#888" stroke-width="1"/><text x="36.0" y="427.0" text-anchor="end" font-family="Arial" font-size="9" fill="#666">4</text><text x="614.6" y="427.0" text-anchor="start" font-family="Arial" font-size="9" fill="#666">4</text><line x1="46.0" y1="403.0" x2="42.0" y2="403.0" stroke="#888" stroke-width="1"/><line x1="604.6" y1="403.0" x2="608.6" y2="403.0" stroke="#888" stroke-width="1"/><line x1="46.0" y1="382.0" x2="38.0" y2="382.0" stroke="#888" stroke-width="1"/><line x1="604.6" y1="382.0" x2="612.6" y2="382.0" stroke="#888" stroke-width="1"/><text x="36.0" y="385.0" text-anchor="end" font-family="Arial" font-size="9" fill="#666">5</text><text x="614.6" y="385.0" text-anchor="start" font-family="Arial" font-size="9" fill="#666">5</text><line x1="46.0" y1="361.0" x2="42.0" y2="361.0" stroke="#888" stroke-width="1"/><line x1="604.6" y1="361.0" x2="608.6" y2="361.0" stroke="#888" stroke-width="1"/><line x1="46.0" y1="340.0" x2="38.0" y2="340.0" stroke="#888" stroke-width="1"/><line x1="604.6" y1="340.0" x2="612.6" y2="340.0" stroke="#888" stroke-width="1"/><text x="36.0" y="343.0" text-anchor="end" font-family="Arial" font-size="9" fill="#666">6</text><text x="614.6" y="343.0" text-anchor="start" font-family="Arial" font-size="9" fill="#666">6</text><line x1="46.0" y1="319.0" x2="42.0" y2="319.0" stroke="#888" stroke-width="1"/><line x1="604.6" y1="319.0" x2="608.6" y2="319.0" stroke="#888" stroke-width="1"/><line x1="46.0" y1="298.0" x2="38.0" y2="298.0" stroke="#888" stroke-width="1"/><line x1="604.6" y1="298.0" x2="612.6" y2="298.0" stroke="#888" stroke-width="1"/><text x="36.0" y="301.0" text-anchor="end" font-family="Arial" font-size="9" fill="#666">7</text><text x="614.6" y="301.0" text-anchor="start" font-family="Arial" font-size="9" fill="#666">7</text><line x1="46.0" y1="277.0" x2="42.0" y2="277.0" stroke="#888" stroke-width="1"/><line x1="604.6" y1="277.0" x2="608.6" y2="277.0" stroke="#888" stroke-width="1"/><line x1="46.0" y1="256.0" x2="38.0" y2="256.0" stroke="#888" stroke-width="1"/><line x1="604.6" y1="256.0" x2="612.6" y2="256.0" stroke="#888" stroke-width="1"/><text x="36.0" y="259.0" text-anchor="end" font-family="Arial" font-size="9" fill="#666">8</text><text x="614.6" y="259.0" text-anchor="start" font-family="Arial" font-size="9" fill="#666">8</text><line x1="46.0" y1="235.0" x2="42.0" y2="235.0" stroke="#888" stroke-width="1"/><line x1="604.6" y1="235.0" x2="608.6" y2="235.0" stroke="#888" stroke-width="1"/><line x1="46.0" y1="214.0" x2="38.0" y2="214.0" stroke="#888" stroke-width="1"/><line x1="604.6" y1="214.0" x2="612.6" y2="214.0" stroke="#888" stroke-width="1"/><text x="36.0" y="217.0" text-anchor="end" font-family="Arial" font-size="9" fill="#666">9</text><text x="614.6" y="217.0" text-anchor="start" font-family="Arial" font-size="9" fill="#666">9</text><line x1="46.0" y1="193.0" x2="42.0" y2="193.0" stroke="#888" stroke-width="1"/><line x1="604.6" y1="193.0" x2="608.6" y2="193.0" stroke="#888" stroke-width="1"/><line x1="46.0" y1="172.0" x2="38.0" y2="172.0" stroke="#888" stroke-width="1"/><line x1="604.6" y1="172.0" x2="612.6" y2="172.0" stroke="#888" stroke-width="1"/><text x="36.0" y="175.0" text-anchor="end" font-family="Arial" font-size="9" fill="#666">10</text><text x="614.6" y="175.0" text-anchor="start" font-family="Arial" font-size="9" fill="#666">10</text><line x1="46.0" y1="151.0" x2="42.0" y2="151.0" stroke="#888" stroke-width="1"/><line x1="604.6" y1="151.0" x2="608.6" y2="151.0" stroke="#888" stroke-width="1"/><line x1="46.0" y1="130.0" x2="38.0" y2="130.0" stroke="#888" stroke-width="1"/><line x1="604.6" y1="130.0" x2="612.6" y2="130.0" stroke="#888" stroke-width="1"/><text x="36.0" y="133.0" text-anchor="end" font-family="Arial" font-size="9" fill="#666">11</text><text x="614.6" y="133.0" text-anchor="start" font-family="Arial" font-size="9" fill="#666">11</text><line x1="46.0" y1="109.0" x2="42.0" y2="109.0" stroke="#888" stroke-width="1"/><line x1="604.6" y1="109.0" x2="608.6" y2="109.0" stroke="#888" stroke-width="1"/><line x1="46.0" y1="88.0" x2="38.0" y2="88.0" stroke="#888" stroke-width="1"/><line x1="604.6" y1="88.0" x2="612.6" y2="88.0" stroke="#888" stroke-width="1"/><text x="36.0" y="91.0" text-anchor="end" font-family="Arial" font-size="9" fill="#666">12</text><text x="614.6" y="91.0" text-anchor="start" font-family="Arial" font-size="9" fill="#666">12</text><line x1="46.0" y1="67.0" x2="42.0" y2="67.0" stroke="#888" stroke-width="1"/><line x1="604.6" y1="67.0" x2="608.6" y2="67.0" stroke="#888" stroke-width="1"/><line x1="46.0" y1="46.0" x2="38.0" y2="46.0" stroke="#888" stroke-width="1"/><line x1="604.6" y1="46.0" x2="612.6" y2="46.0" stroke="#888" stroke-width="1"/><text x="36.0" y="49.0" text-anchor="end" font-family="Arial" font-size="9" fill="#666">13</text><text x="614.6" y="49.0" text-anchor="start" font-family="Arial" font-size="9" fill="#666">13</text><rect x="130.0" y="130.0" width="390.6" height="378.0" fill="none" stroke="#9aa" stroke-width="1" stroke-dasharray="3 3"/><rect x="131.3" y="509.3" width="249.5" height="60.5" fill="#f2f2f2" stroke="#333" stroke-width="1.5" stroke-dasharray="6 4"/><text x="256.0" y="536.9" text-anchor="middle" font-family="Arial" font-size="12" font-weight="bold" fill="#222">PORCH</text><text x="256.0" y="552.6" text-anchor="middle" font-family="Arial" font-size="10" fill="#555">6.0×1.5 m</text><rect x="365.2" y="130.0" width="113.4" height="182.7" fill="#d9ead3" stroke="#333" stroke-width="1.5"/><text x="421.9" y="213.0" text-anchor="middle" font-family="Arial" font-size="12" font-weight="bold" fill="#222">MASTER BR</text><text x="421.9" y="228.8" text-anchor="middle" font-family="Arial" font-size="10" fill="#555">2.7×4.3 m</text><text x="421.9" y="240.3" text-anchor="middle" font-family="Arial" font-size="10" fill="#555">11.7 sqm</text><rect x="442.9" y="312.7" width="77.7" height="50.4" fill="#ead1dc" stroke="#333" stroke-width="1.5"/><text x="481.8" y="329.5" text-anchor="middle" font-family="Arial" font-size="12" font-weight="bold" fill="#222">ENSUITE</text><text x="481.8" y="345.3" text-anchor="middle" font-family="Arial" font-size="10" fill="#555">1.9×1.2 m</text><text x="481.8" y="356.8" text-anchor="middle" font-family="Arial" font-size="10" fill="#555">2.2 sqm</text><rect x="251.8" y="130.0" width="113.4" height="140.7" fill="#d9ead3" stroke="#333" stroke-width="1.5"/><text x="308.5" y="191.9" text-anchor="middle" font-family="Arial" font-size="12" font-weight="bold" fill="#222">BEDROOM</text><text x="308.5" y="207.7" text-anchor="middle" font-family="Arial" font-size="10" fill="#555">2.7×3.4 m</text><text x="308.5" y="219.2" text-anchor="middle" font-family="Arial" font-size="10" fill="#555">9.0 sqm</text><rect x="148.9" y="130.0" width="102.9" height="192.8" fill="#d9ead3" stroke="#333" stroke-width="1.5"/><text x="200.4" y="218.0" text-anchor="middle" font-family="Arial" font-size="12" font-weight="bold" fill="#222">BEDROOM</text><text x="200.4" y="233.8" text-anchor="middle" font-family="Arial" font-size="10" fill="#555">2.5×4.6 m</text><text x="200.4" y="245.3" text-anchor="middle" font-family="Arial" font-size="10" fill="#555">11.2 sqm</text><rect x="365.2" y="312.7" width="77.7" height="50.4" fill="#ead1dc" stroke="#333" stroke-width="1.5"/><text x="404.1" y="329.5" text-anchor="middle" font-family="Arial" font-size="12" font-weight="bold" fill="#222">T&amp;B</text><text x="404.1" y="345.3" text-anchor="middle" font-family="Arial" font-size="10" fill="#555">1.9×1.2 m</text><text x="404.1" y="356.8" text-anchor="middle" font-family="Arial" font-size="10" fill="#555">2.2 sqm</text><rect x="251.8" y="270.7" width="113.4" height="92.4" fill="#efefef" stroke="#333" stroke-width="1.5"/><text x="308.5" y="308.5" text-anchor="middle" font-family="Arial" font-size="12" font-weight="bold" fill="#222">HALL</text><text x="308.5" y="324.3" text-anchor="middle" font-family="Arial" font-size="10" fill="#555">2.7×2.2 m</text><text x="308.5" y="335.8" text-anchor="middle" font-family="Arial" font-size="10" fill="#555">5.9 sqm</text><rect x="130.0" y="363.1" width="252.0" height="144.9" fill="#cfe2f3" stroke="#333" stroke-width="1.5"/><text x="256.0" y="432.9" text-anchor="middle" font-family="Arial" font-size="12" font-weight="bold" fill="#222">LIVING</text><text x="256.0" y="448.7" text-anchor="middle" font-family="Arial" font-size="10" fill="#555">6.0×3.5 m · 20.7 sqm</text><rect x="382.0" y="363.1" width="138.6" height="144.9" fill="#cfe2f3" stroke="#333" stroke-width="1.5"/><text x="451.3" y="432.9" text-anchor="middle" font-family="Arial" font-size="12" font-weight="bold" fill="#222">KITCHEN</text><text x="451.3" y="448.7" text-anchor="middle" font-family="Arial" font-size="10" fill="#555">3.3×3.5 m · 11.4 sqm</text><text x="325.3" y="626.0" text-anchor="middle" font-family="Arial" font-size="12" font-weight="bold" fill="#888">FRONT (street)</text><rect x="442.90" y="310.60" width="35.70" height="4.20" fill="#555" stroke="none"/><rect x="363.10" y="130.00" width="4.20" height="140.70" fill="#555" stroke="none"/><rect x="365.20" y="310.60" width="77.70" height="4.20" fill="#555" stroke="none"/><rect x="363.10" y="270.70" width="4.20" height="42.00" fill="#555" stroke="none"/><rect x="440.80" y="312.70" width="4.20" height="50.40" fill="#555" stroke="none"/><rect x="442.90" y="361.00" width="77.70" height="4.20" fill="#555" stroke="none"/><rect x="249.70" y="130.00" width="4.20" height="140.70" fill="#555" stroke="none"/><rect x="251.80" y="268.60" width="113.40" height="4.20" fill="#555" stroke="none"/><rect x="249.70" y="270.70" width="4.20" height="52.07" fill="#555" stroke="none"/><rect x="363.10" y="312.70" width="4.20" height="50.40" fill="#555" stroke="none"/><rect x="365.20" y="361.00" width="16.80" height="4.20" fill="#555" stroke="none"/><rect x="382.00" y="361.00" width="60.90" height="4.20" fill="#555" stroke="none"/><rect x="365.20" y="125.80" width="113.40" height="8.40" fill="#555" stroke="none"/><rect x="476.50" y="130.00" width="4.20" height="182.70" fill="#555" stroke="none"/><rect x="478.60" y="310.60" width="42.00" height="4.20" fill="#555" stroke="none"/><rect x="516.40" y="312.70" width="8.40" height="50.40" fill="#555" stroke="none"/><rect x="251.80" y="125.80" width="113.40" height="8.40" fill="#555" stroke="none"/><rect x="148.90" y="125.80" width="102.90" height="8.40" fill="#555" stroke="none"/><rect x="148.90" y="320.67" width="102.90" height="4.20" fill="#555" stroke="none"/><rect x="146.80" y="130.00" width="4.20" height="192.77" fill="#555" stroke="none"/><rect x="249.70" y="322.77" width="4.20" height="40.33" fill="#555" stroke="none"/><rect x="130.00" y="361.00" width="121.80" height="4.20" fill="#555" stroke="none"/><rect x="130.00" y="503.80" width="252.00" height="8.40" fill="#555" stroke="none"/><rect x="125.80" y="363.10" width="8.40" height="144.90" fill="#555" stroke="none"/><rect x="382.00" y="503.80" width="138.60" height="8.40" fill="#555" stroke="none"/><rect x="516.40" y="363.10" width="8.40" height="144.90" fill="#555" stroke="none"/><rect x="440.80" y="310.60" width="4.20" height="4.20" fill="#555" stroke="none"/><rect x="476.50" y="310.60" width="4.20" height="4.20" fill="#555" stroke="none"/><rect x="363.10" y="268.60" width="4.20" height="4.20" fill="#555" stroke="none"/><rect x="361.00" y="125.80" width="8.40" height="8.40" fill="#555" stroke="none"/><rect x="363.10" y="310.60" width="4.20" height="4.20" fill="#555" stroke="none"/><rect x="440.80" y="310.60" width="4.20" height="4.20" fill="#555" stroke="none"/><rect x="363.10" y="310.60" width="4.20" height="4.20" fill="#555" stroke="none"/><rect x="363.10" y="268.60" width="4.20" height="4.20" fill="#555" stroke="none"/><rect x="440.80" y="361.00" width="4.20" height="4.20" fill="#555" stroke="none"/><rect x="440.80" y="310.60" width="4.20" height="4.20" fill="#555" stroke="none"/><rect x="440.80" y="361.00" width="4.20" height="4.20" fill="#555" stroke="none"/><rect x="516.40" y="358.90" width="8.40" height="8.40" fill="#555" stroke="none"/><rect x="249.70" y="268.60" width="4.20" height="4.20" fill="#555" stroke="none"/><rect x="247.60" y="125.80" width="8.40" height="8.40" fill="#555" stroke="none"/><rect x="249.70" y="268.60" width="4.20" height="4.20" fill="#555" stroke="none"/><rect x="363.10" y="268.60" width="4.20" height="4.20" fill="#555" stroke="none"/><rect x="249.70" y="320.67" width="4.20" height="4.20" fill="#555" stroke="none"/><rect x="249.70" y="268.60" width="4.20" height="4.20" fill="#555" stroke="none"/><rect x="363.10" y="310.60" width="4.20" height="4.20" fill="#555" stroke="none"/><rect x="440.80" y="361.00" width="4.20" height="4.20" fill="#555" stroke="none"/><rect x="361.00" y="125.80" width="8.40" height="8.40" fill="#555" stroke="none"/><rect x="474.40" y="125.80" width="8.40" height="8.40" fill="#555" stroke="none"/><rect x="476.50" y="310.60" width="4.20" height="4.20" fill="#555" stroke="none"/><rect x="474.40" y="125.80" width="8.40" height="8.40" fill="#555" stroke="none"/><rect x="476.50" y="310.60" width="4.20" height="4.20" fill="#555" stroke="none"/><rect x="516.40" y="308.50" width="8.40" height="8.40" fill="#555" stroke="none"/><rect x="516.40" y="358.90" width="8.40" height="8.40" fill="#555" stroke="none"/><rect x="516.40" y="308.50" width="8.40" height="8.40" fill="#555" stroke="none"/><rect x="247.60" y="125.80" width="8.40" height="8.40" fill="#555" stroke="none"/><rect x="361.00" y="125.80" width="8.40" height="8.40" fill="#555" stroke="none"/><rect x="144.70" y="125.80" width="8.40" height="8.40" fill="#555" stroke="none"/><rect x="247.60" y="125.80" width="8.40" height="8.40" fill="#555" stroke="none"/><rect x="146.80" y="320.67" width="4.20" height="4.20" fill="#555" stroke="none"/><rect x="249.70" y="320.67" width="4.20" height="4.20" fill="#555" stroke="none"/><rect x="146.80" y="320.67" width="4.20" height="4.20" fill="#555" stroke="none"/><rect x="144.70" y="125.80" width="8.40" height="8.40" fill="#555" stroke="none"/><rect x="249.70" y="320.67" width="4.20" height="4.20" fill="#555" stroke="none"/><rect x="125.80" y="358.90" width="8.40" height="8.40" fill="#555" stroke="none"/><rect x="125.80" y="503.80" width="8.40" height="8.40" fill="#555" stroke="none"/><rect x="125.80" y="503.80" width="8.40" height="8.40" fill="#555" stroke="none"/><rect x="125.80" y="358.90" width="8.40" height="8.40" fill="#555" stroke="none"/><rect x="516.40" y="503.80" width="8.40" height="8.40" fill="#555" stroke="none"/><rect x="516.40" y="503.80" width="8.40" height="8.40" fill="#555" stroke="none"/><rect x="516.40" y="358.90" width="8.40" height="8.40" fill="#555" stroke="none"/><rect x="377.0" y="365.2" width="5.0" height="140.7" fill="#cfe2f3" stroke="none"/><rect x="382.0" y="365.2" width="5.0" height="140.7" fill="#cfe2f3" stroke="none"/><rect x="253.9" y="358.1" width="109.2" height="5.0" fill="#efefef" stroke="none"/><rect x="253.9" y="363.1" width="109.2" height="5.0" fill="#cfe2f3" stroke="none"/><rect x="442.9" y="307.7" width="29.4" height="5.0" fill="#d9ead3" stroke="none"/><rect x="442.9" y="312.7" width="29.4" height="5.0" fill="#ead1dc" stroke="none"/><line x1="442.9" y1="312.7" x2="442.9" y2="342.1" stroke="#444" stroke-width="1.4"/><path d="M 442.9 342.1 A 29.4 29.4 0 0 0 472.3 312.7" fill="none" stroke="#999" stroke-width="0.7" stroke-dasharray="2 2"/><rect x="365.2" y="272.8" width="5.0" height="33.6" fill="#d9ead3" stroke="none"/><rect x="360.2" y="272.8" width="5.0" height="33.6" fill="#efefef" stroke="none"/><line x1="365.2" y1="306.4" x2="398.8" y2="306.4" stroke="#444" stroke-width="1.4"/><path d="M 398.8 306.4 A 33.6 33.6 0 0 0 365.2 272.8" fill="none" stroke="#999" stroke-width="0.7" stroke-dasharray="2 2"/><rect x="258.1" y="265.7" width="33.6" height="5.0" fill="#d9ead3" stroke="none"/><rect x="258.1" y="270.7" width="33.6" height="5.0" fill="#efefef" stroke="none"/><line x1="258.1" y1="270.7" x2="258.1" y2="237.1" stroke="#444" stroke-width="1.4"/><path d="M 258.1 237.1 A 33.6 33.6 0 0 1 291.7 270.7" fill="none" stroke="#999" stroke-width="0.7" stroke-dasharray="2 2"/><rect x="246.8" y="282.9" width="5.0" height="33.6" fill="#d9ead3" stroke="none"/><rect x="251.8" y="282.9" width="5.0" height="33.6" fill="#efefef" stroke="none"/><line x1="251.8" y1="316.5" x2="218.2" y2="316.5" stroke="#444" stroke-width="1.4"/><path d="M 218.2 316.5 A 33.6 33.6 0 0 1 251.8 282.9" fill="none" stroke="#999" stroke-width="0.7" stroke-dasharray="2 2"/><rect x="365.2" y="327.4" width="5.0" height="29.4" fill="#ead1dc" stroke="none"/><rect x="360.2" y="327.4" width="5.0" height="29.4" fill="#efefef" stroke="none"/><line x1="365.2" y1="356.8" x2="394.6" y2="356.8" stroke="#444" stroke-width="1.4"/><path d="M 394.6 356.8 A 29.4 29.4 0 0 0 365.2 327.4" fill="none" stroke="#999" stroke-width="0.7" stroke-dasharray="2 2"/><rect x="136.3" y="503.0" width="37.8" height="5.0" fill="#cfe2f3" stroke="none"/><rect x="136.3" y="508.0" width="37.8" height="5.0" fill="#fbfbf7" stroke="none"/><line x1="136.3" y1="508.0" x2="136.3" y2="470.2" stroke="#444" stroke-width="1.4"/><path d="M 136.3 470.2 A 37.8 37.8 0 0 1 174.1 508.0" fill="none" stroke="#999" stroke-width="0.7" stroke-dasharray="2 2"/><rect x="390.7" y="130.0" width="62.4" height="5.0" fill="#d9ead3" stroke="none"/><rect x="390.7" y="125.0" width="62.4" height="5.0" fill="#fbfbf7" stroke="none"/><line x1="390.7" y1="127.0" x2="453.1" y2="127.0" stroke="#222" stroke-width="1.0"/><line x1="390.7" y1="130.0" x2="453.1" y2="130.0" stroke="#222" stroke-width="1.0"/><line x1="390.7" y1="133.0" x2="453.1" y2="133.0" stroke="#222" stroke-width="1.0"/><rect x="515.6" y="325.3" width="5.0" height="25.2" fill="#ead1dc" stroke="none"/><rect x="520.6" y="325.3" width="5.0" height="25.2" fill="#fbfbf7" stroke="none"/><line x1="517.6" y1="350.5" x2="517.6" y2="325.3" stroke="#222" stroke-width="1.0"/><line x1="520.6" y1="350.5" x2="520.6" y2="325.3" stroke="#222" stroke-width="1.0"/><line x1="523.6" y1="350.5" x2="523.6" y2="325.3" stroke="#222" stroke-width="1.0"/><rect x="277.3" y="130.0" width="62.4" height="5.0" fill="#d9ead3" stroke="none"/><rect x="277.3" y="125.0" width="62.4" height="5.0" fill="#fbfbf7" stroke="none"/><line x1="277.3" y1="127.0" x2="339.7" y2="127.0" stroke="#222" stroke-width="1.0"/><line x1="277.3" y1="130.0" x2="339.7" y2="130.0" stroke="#222" stroke-width="1.0"/><line x1="277.3" y1="133.0" x2="339.7" y2="133.0" stroke="#222" stroke-width="1.0"/><rect x="172.0" y="130.0" width="56.6" height="5.0" fill="#d9ead3" stroke="none"/><rect x="172.0" y="125.0" width="56.6" height="5.0" fill="#fbfbf7" stroke="none"/><line x1="172.0" y1="127.0" x2="228.7" y2="127.0" stroke="#222" stroke-width="1.0"/><line x1="172.0" y1="130.0" x2="228.7" y2="130.0" stroke="#222" stroke-width="1.0"/><line x1="172.0" y1="133.0" x2="228.7" y2="133.0" stroke="#222" stroke-width="1.0"/><rect x="233.9" y="503.0" width="100.8" height="5.0" fill="#cfe2f3" stroke="none"/><rect x="233.9" y="508.0" width="100.8" height="5.0" fill="#fbfbf7" stroke="none"/><line x1="233.9" y1="505.0" x2="334.8" y2="505.0" stroke="#222" stroke-width="1.0"/><line x1="233.9" y1="508.0" x2="334.8" y2="508.0" stroke="#222" stroke-width="1.0"/><line x1="233.9" y1="511.0" x2="334.8" y2="511.0" stroke="#222" stroke-width="1.0"/><rect x="130.0" y="395.7" width="5.0" height="79.7" fill="#cfe2f3" stroke="none"/><rect x="125.0" y="395.7" width="5.0" height="79.7" fill="#fbfbf7" stroke="none"/><line x1="127.0" y1="475.4" x2="127.0" y2="395.7" stroke="#222" stroke-width="1.0"/><line x1="130.0" y1="475.4" x2="130.0" y2="395.7" stroke="#222" stroke-width="1.0"/><line x1="133.0" y1="475.4" x2="133.0" y2="395.7" stroke="#222" stroke-width="1.0"/><rect x="515.6" y="395.7" width="5.0" height="79.7" fill="#cfe2f3" stroke="none"/><rect x="520.6" y="395.7" width="5.0" height="79.7" fill="#fbfbf7" stroke="none"/><line x1="517.6" y1="475.4" x2="517.6" y2="395.7" stroke="#222" stroke-width="1.0"/><line x1="520.6" y1="475.4" x2="520.6" y2="395.7" stroke="#222" stroke-width="1.0"/><line x1="523.6" y1="475.4" x2="523.6" y2="395.7" stroke="#222" stroke-width="1.0"/><rect x="413.2" y="503.0" width="76.2" height="5.0" fill="#cfe2f3" stroke="none"/><rect x="413.2" y="508.0" width="76.2" height="5.0" fill="#fbfbf7" stroke="none"/><line x1="413.2" y1="505.0" x2="489.4" y2="505.0" stroke="#222" stroke-width="1.0"/><line x1="413.2" y1="508.0" x2="489.4" y2="508.0" stroke="#222" stroke-width="1.0"/><line x1="413.2" y1="511.0" x2="489.4" y2="511.0" stroke="#222" stroke-width="1.0"/></svg>