<svg xmlns="http://www.w3.org/2000/svg" width="659" height="701" viewBox="0 0 659 701"><rect x="0" y="0" width="659" height="701" fill="white"/><rect x="46.0" y="46.0" width="567.0" height="609.0" fill="#fbfbf7" stroke="#333" stroke-width="1.5"/><line x1="46.0" y1="46.0" x2="46.0" y2="38.0" stroke="#888" stroke-width="1"/><line x1="46.0" y1="655.0" x2="46.0" y2="663.0" stroke="#888" stroke-width="1"/><text x="46.0" y="36.0" text-anchor="middle" font-family="Arial" font-size="9" fill="#666">0</text><text x="46.0" y="671.0" text-anchor="middle" font-family="Arial" font-size="9" fill="#666">0</text><line x1="67.0" y1="46.0" x2="67.0" y2="42.0" stroke="#888" stroke-width="1"/><line x1="67.0" y1="655.0" x2="67.0" y2="659.0" stroke="#888" stroke-width="1"/><line x1="88.0" y1="46.0" x2="88.0" y2="38.0" stroke="#888" stroke-width="1"/><line x1="88.0" y1="655.0" x2="88.0" y2="663.0" stroke="#888" stroke-width="1"/><text x="88.0" y="36.0" text-anchor="middle" font-family="Arial" font-size="9" fill="#666">1</text><text x="88.0" y="671.0" text-anchor="middle" font-family="Arial" font-size="9" fill="#666">1</text><line x1="109.0" y1="46.0" x2="109.0" y2="42.0" stroke="#888" stroke-width="1"/><line x1="109.0" y1="655.0" x2="109.0" y2="659.0" stroke="#888" stroke-width="1"/><line x1="130.0" y1="46.0" x2="130.0" y2="38.0" stroke="#888" stroke-width="1"/><line x1="130.0" y1="655.0" x2="130.0" y2="663.0" stroke="#888" stroke-width="1"/><text x="130.0" y="36.0" text-anchor="middle" font-family="Arial" font-size="9" fill="#666">2</text><text x="130.0" y="671.0" text-anchor="middle" font-family="Arial" font-size="9" fill="#666">2</text><line x1="151.0" y1="46.0" x2="151.0" y2="42.0" stroke="#888" stroke-width="1"/><line x1="151.0" y1="655.0" x2="151.0" y2="659.0" stroke="#888" stroke-width="1"/><line x1="172.0" y1="46.0" x2="172.0" y2="38.0" stroke="#888" stroke-width="1"/><line x1="172.0" y1="655.0" x2="172.0" y2="663.0" stroke="#888" stroke-width="1"/><text x="172.0" y="36.0" text-anchor="middle" font-family="Arial" font-size="9" fill="#666">3</text><text x="172.0" y="671.0" text-anchor="middle" font-family="Arial" font-size="9" fill="#666">3</text><line x1="193.0" y1="46.0" x2="193.0" y2="42.0" stroke="#888" stroke-width="1"/><line x1="193.0" y1="655.0" x2="193.0" y2="659.0" stroke="#888" stroke-width="1"/><line x1="214.0" y1="46.0" x2="214.0" y2="38.0" stroke="#888" stroke-width="1"/><line x1="214.0" y1="655.0" x2="214.0" y2="663.0" stroke="#888" stroke-width="1"/><text x="214.0" y="36.0" text-anchor="middle" font-family="Arial" font-size="9" fill="#666">4</text><text x="214.0" y="671.0" text-anchor="middle" font-family="Arial" font-size="9" fill="#666">4</text><line x1="235.0" y1="46.0" x2="235.0" y2="42.0" stroke="#888" stroke-width="1"/><line x1="235.0" y1="655.0" x2="235.0" y2="659.0" stroke="#888" stroke-width="1"/><line x1="256.0" y1="46.0" x2="256.0" y2="38.0" stroke="#888" stroke-width="1"/><line x1="256.0" y1="655.0" x2="256.0" y2="663.0" stroke="#888" stroke-width="1"/><text x="256.0" y="36.0" text-anchor="middle" font-family="Arial" font-size="9" fill="#666">5</text><text x="256.0" y="671.0" text-anchor="middle" font-family="Arial" font-size="9" fill="#666">5</text><line x1="277.0" y1="46.0" x2="277.0" y2="42.0" stroke="#888" stroke-width="1"/><line x1="277.0" y1="655.0" x2="277.0" y2="659.0" stroke="#888" stroke-width="1"/><line x1="298.0" y1="46.0" x2="298.0" y2="38.0" stroke="#888" stroke-width="1"/><line x1="298.0" y1="655.0" x2="298.0" y2="663.0" stroke="#888" stroke-width="1"/><text x="298.0" y="36.0" text-anchor="middle" font-family="Arial" font-size="9" fill="#666">6</text><text x="298.0" y="671.0" text-anchor="middle" font-family="Arial" font-size="9" fill="#666">6</text><line x1="319.0" y1="46.0" x2="319.0" y2="42.0" stroke="#888" stroke-width="1"/><line x1="319.0" y1="655.0" x2="319.0" y2="659.0" stroke="#888" stroke-width="1"/><line x1="340.0" y1="46.0" x2="340.0" y2="38.0" stroke="#888" stroke-width="1"/><line x1="340.0" y1="655.0" x2="340.0" y2="663.0" stroke="#888" stroke-width="1"/><text x="340.0" y="36.0" text-anchor="middle" font-family="Arial" font-size="9" fill="#666">7</text><text x="340.0" y="671.0" text-anchor="middle" font-family="Arial" font-size="9" fill="#666">7</text><line x1="361.0" y1="46.0" x2="361.0" y2="42.0" stroke="#888" stroke-width="1"/><line x1="361.0" y1="655.0" x2="361.0" y2="659.0" stroke="#888" stroke-width="1"/><line x1="382.0" y1="46.0" x2="382.0" y2="38.0" stroke="#888" stroke-width="1"/><line x1="382.0" y1="655.0" x2="382.0" y2="663.0" stroke="#888" stroke-width="1"/><text x="382.0" y="36.0" text-anchor="middle" font-family="Arial" font-size="9" fill="#666">8</text><text x="382.0" y="671.0" text-anchor="middle" font-family="Arial" font-size="9" fill="#666">8</text><line x1="403.0" y1="46.0" x2="403.0" y2="42.0" stroke="#888" stroke-width="1"/><line x1="403.0" y1="655.0" x2="403.0" y2="659.0" stroke="#888" stroke-width="1"/><line x1="424.0" y1="46.0" x2="424.0" y2="38.0" stroke="#888" stroke-width="1"/><line x1="424.0" y1="655.0" x2="424.0" y2="663.0" stroke="#888" stroke-width="1"/><text x="424.0" y="36.0" text-anchor="middle" font-family="Arial" font-size="9" fill="#666">9</text><text x="424.0" y="671.0" text-anchor="middle" font-family="Arial" font-size="9" fill="#666">9</text><line x1="445.0" y1="46.0" x2="445.0" y2="42.0" stroke="#888" stroke-width="1"/><line x1="445.0" y1="655.0" x2="445.0" y2="659.0" stroke="#888" stroke-width="1"/><line x1="466.0" y1="46.0" x2="466.0" y2="38.0" stroke="#888" stroke-width="1"/><line x1="466.0" y1="655.0" x2="466.0" y2="663.0" stroke="#888" stroke-width="1"/><text x="466.0" y="36.0" text-anchor="middle" font-family="Arial" font-size="9" fill="#666">10</text><text x="466.0" y="671.0" text-anchor="middle" font-family="Arial" font-size="9" fill="#666">10</text><line x1="487.0" y1="46.0" x2="487.0" y2="42.0" stroke="#888" stroke-width="1"/><line x1="487.0" y1="655.0" x2="487.0" y2="659.0" stroke="#888" stroke-width="1"/><line x1="508.0" y1="46.0" x2="508.0" y2="38.0" stroke="#888" stroke-width="1"/><line x1="508.0" y1="655.0" x2="508.0" y2="663.0" stroke="#888" stroke-width="1"/><text x="508.0" y="36.0" text-anchor="middle" font-family="Arial" font-size="9" fill="#666">11</text><text x="508.0" y="671.0" text-anchor="middle" font-family="Arial" font-size="9" fill="#666">11</text><line x1="529.0" y1="46.0" x2="529.0" y2="42.0" stroke="#888" stroke-width="1"/><line x1="529.0" y1="655.0" x2="529.0" y2="659.0" stroke="#888" stroke-width="1"/><line x1="550.0" y1="46.0" x2="550.0" y2="38.0" stroke="#888" stroke-width="1"/><line x1="550.0" y1="655.0" x2="550.0" y2="663.0" stroke="#888" stroke-width="1"/><text x="550.0" y="36.0" text-anchor="middle" font-family="Arial" font-size="9" fill="#666">12</text><text x="550.0" y="671.0" text-anchor="middle" font-family="Arial" font-size="9" fill="#666">12</text><line x1="571.0" y1="46.0" x2="571.0" y2="42.0" stroke="#888" stroke-width="1"/><line x1="571.0" y1="655.0" x2="571.0" y2="659.0" stroke="#888" stroke-width="1"/><line x1="592.0" y1="46.0" x2="592.0" y2="38.0" stroke="#888" stroke-width="1"/><line x1="592.0" y1="655.0" x2="592.0" y2="663.0" stroke="#888" stroke-width="1"/><text x="592.0" y="36.0" text-anchor="middle" font-family="Arial" font-size="9" fill="#666">13</text><text x="592.0" y="671.0" text-anchor="middle" font-family="Arial" font-size="9" fill="#666">13</text><line x1="613.0" y1="46.0" x2="613.0" y2="42.0" stroke="#888" stroke-width="1"/><line x1="613.0" y1="655.0" x2="613.0" y2="659.0" stroke="#888" stroke-width="1"/><line x1="46.0" y1="655.0" x2="38.0" y2="655.0" stroke="#888" stroke-width="1"/><line x1="613.0" y1="655.0" x2="621.0" y2="655.0" stroke="#888" stroke-width="1"/><text x="36.0" y="658.0" text-anchor="end" font-family="Arial" font-size="9" fill="#666">0</text><text x="623.0" y="658.0" text-anchor="start" font-family="Arial" font-size="9" fill="#666">0</text><line x1="46.0" y1="634.0" x2="42.0" y2="634.0" stroke="#888" stroke-width="1"/><line x1="613.0" y1="634.0" x2="617.0" y2="634.0" stroke="#888" stroke-width="1"/><line x1="46.0" y1="613.0" x2="38.0" y2="613.0" stroke="#888" stroke-width="1"/><line x1="613.0" y1="613.0" x2="621.0" y2="613.0" stroke="#888" stroke-width="1"/><text x="36.0" y="616.0" text-anchor="end" font-family="Arial" font-size="9" fill="#666">1</text><text x="623.0" y="616.0" text-anchor="start" font-family="Arial" font-size="9" fill="#666">1</text><line x1="46.0" y1="592.0" x2="42.0" y2="592.0" stroke="#888" stroke-width="1"/><line x1="613.0" y1="592.0" x2="617.0" y2="592.0" stroke="#888" stroke-width="1"/><line x1="46.0" y1="571.0" x2="38.0" y2="571.0" stroke="#888" stroke-width="1"/><line x1="613.0" y1="571.0" x2="621.0" y2="571.0" stroke="#888" stroke-width="1"/><text x="36.0" y="574.0" text-anchor="end" font-family="Arial" font-size="9" fill="#666">2</text><text x="623.0" y="574.0" text-anchor="start" font-family="Arial" font-size="9" fill="#666">2</text><line x1="46.0" y1="550.0" x2="42.0" y2="550.0" stroke="#888" stroke-width="1"/><line x1="613.0" y1="550.0" x2="617.0" y2="550.0" stroke="#888" stroke-width="1"/><line x1="46.0" y1="529.0" x2="38.0" y2="529.0" stroke="#888" stroke-width="1"/><line x1="613.0" y1="529.0" x2="621.0" y2="529.0" stroke="#888" stroke-width="1"/><text x="36.0" y="532.0" text-anchor="end" font-family="Arial" font-size="9" fill="#666">3</text><text x="623.0" y="532.0" text-anchor="start" font-family="Arial" font-size="9" fill="#666">3</text><line x1="46.0" y1="508.0" x2="42.0" y2="508.0" stroke="#888" stroke-width="1"/><line x1="613.0" y1="508.0" x2="617.0" y2="508.0" stroke="#888" stroke-width="1"/><line x1="46.0" y1="487.0" x2="38.0" y2="487.0" stroke="#888" stroke-width="1"/><line x1="613.0" y1="487.0" x2="621.0" y2="487.0" stroke="#888" stroke-width="1"/><text x="36.0" y="490.0" text-anchor="end" font-family="Arial" font-size="9" fill="#666">4</text><text x="623.0" y="490.0" text-anchor="start" font-family="Arial" font-size="9" fill="#666">4</text><line x1="46.0" y1="466.0" x2="42.0" y2="466.0" stroke="#888" stroke-width="1"/><line x1="613.0" y1="466.0" x2="617.0" y2="466.0" stroke="#888" stroke-width="1"/><line x1="46.0" y1="445.0" x2="38.0" y2="445.0" stroke="#888" stroke-width="1"/><line x1="613.0" y1="445.0" x2="621.0" y2="445.0" stroke="#888" stroke-width="1"/><text x="36.0" y="448.0" text-anchor="end" font-family="Arial" font-size="9" fill="#666">5</text><text x="623.0" y="448.0" text-anchor="start" font-family="Arial" font-size="9" fill="#666">5</text><line x1="46.0" y1="424.0" x2="42.0" y2="424.0" stroke="#888" stroke-width="1"/><line x1="613.0" y1="424.0" x2="617.0" y2="424.0" stroke="#888" stroke-width="1"/><line x1="46.0" y1="403.0" x2="38.0" y2="403.0" stroke="#888" stroke-width="1"/><line x1="613.0" y1="403.0" x2="621.0" y2="403.0" stroke="#888" stroke-width="1"/><text x="36.0" y="406.0" text-anchor="end" font-family="Arial" font-size="9" fill="#666">6</text><text x="623.0" y="406.0" text-anchor="start" font-family="Arial" font-size="9" fill="#666">6</text><line x1="46.0" y1="382.0" x2="42.0" y2="382.0" stroke="#888" stroke-width="1"/><line x1="613.0" y1="382.0" x2="617.0" y2="382.0" stroke="#888" stroke-width="1"/><line x1="46.0" y1="361.0" x2="38.0" y2="361.0" stroke="#888" stroke-width="1"/><line x1="613.0" y1="361.0" x2="621.0" y2="361.0" stroke="#888" stroke-width="1"/><text x="36.0" y="364.0" text-anchor="end" font-family="Arial" font-size="9" fill="#666">7</text><text x="623.0" y="364.0" text-anchor="start" font-family="Arial" font-size="9" fill="#666">7</text><line x1="46.0" y1="340.0" x2="42.0" y2="340.0" stroke="#888" stroke-width="1"/><line x1="613.0" y1="340.0" x2="617.0" y2="340.0" stroke="#888" stroke-width="1"/><line x1="46.0" y1="319.0" x2="38.0" y2="319.0" stroke="#888" stroke-width="1"/><line x1="613.0" y1="319.0" x2="621.0" y2="319.0" stroke="#888" stroke-width="1"/><text x="36.0" y="322.0" text-anchor="end" font-family="Arial" font-size="9" fill="#666">8</text><text x="623.0" y="322.0" text-anchor="start" font-family="Arial" font-size="9" fill="#666">8</text><line x1="46.0" y1="298.0" x2="42.0" y2="298.0" stroke="#888" stroke-width="1"/><line x1="613.0" y1="298.0" x2="617.0" y2="298.0" stroke="#888" stroke-width="1"/><line x1="46.0" y1="277.0" x2="38.0" y2="277.0" stroke="#888" stroke-width="1"/><line x1="613.0" y1="277.0" x2="621.0" y2="277.0" stroke="#888" stroke-width="1"/><text x="36.0" y="280.0" text-anchor="end" font-family="Arial" font-size="9" fill="#666">9</text><text x="623.0" y="280.0" text-anchor="start" font-family="Arial" font-size="9" fill="#666">9</text><line x1="46.0" y1="256.0" x2="42.0" y2="256.0" stroke="#888" stroke-width="1"/><line x1="613.0" y1="256.0" x2="617.0" y2="256.0" stroke="#888" stroke-width="1"/><line x1="46.0" y1="235.0" x2="38.0" y2="235.0" stroke="#888" stroke-width="1"/><line x1="613.0" y1="235.0" x2="621.0" y2="235.0" stroke="#888" stroke-width="1"/><text x="36.0" y="238.0" text-anchor="end" font-family="Arial" font-size="9" fill="#666">10</text><text x="623.0" y="238.0" text-anchor="start" font-family="Arial" font-size="9" fill="#666">10</text><line x1="46.0" y1="214.0" x2="42.0" y2="214.0" stroke="#888" stroke-width="1"/><line x1="613.0" y1="214.0" x2="617.0" y2="214.0" stroke="#888" stroke-width="1"/><line x1="46.0" y1="193.0" x2="38.0" y2="193.0" stroke="#888" stroke-width="1"/><line x1="613.0" y1="193.0" x2="621.0" y2="193.0" stroke="#888" stroke-width="1"/><text x="36.0" y="196.0" text-anchor="end" font-family="Arial" font-size="9" fill="#666">11</text><text x="623.0" y="196.0" text-anchor="start" font-family="Arial" font-size="9" fill="#666">11</text><line x1="46.0" y1="172.0" x2="42.0" y2="172.0" stroke="#888" stroke-width="1"/><line x1="613.0" y1="172.0" x2="617.0" y2="172.0" stroke="#888" stroke-width="1"/><line x1="46.0" y1="151.0" x2="38.0" y2="151.0" stroke="#888" stroke-width="1"/><line x1="613.0" y1="151.0" x2="621.0" y2="151.0" stroke="#888" stroke-width="1"/><text x="36.0" y="154.0" text-anchor="end" font-family="Arial" font-size="9" fill="#666">12</text><text x="623.0" y="154.0" text-anchor="start" font-family="Arial" font-size="9" fill="#666">12</text><line x1="46.0" y1="130.0" x2="42.0" y2="130.0" stroke="#888" stroke-width="1"/><line x1="613.0" y1="130.0" x2="617.0" y2="130.0" stroke="#888" stroke-width="1"/><line x1="46.0" y1="109.0" x2="38.0" y2="109.0" stroke="#888" stroke-width="1"/><line x1="613.0" y1="109.0" x2="621.0" y2="109.0" stroke="#888" stroke-width="1"/><text x="36.0" y="112.0" text-anchor="end" font-family="Arial" font-size="9" fill="#666">13</text><text x="623.0" y="112.0" text-anchor="start" font-family="Arial" font-size="9" fill="#666">13</text><line x1="46.0" y1="88.0" x2="42.0" y2="88.0" stroke="#888" stroke-width="1"/><line x1="613.0" y1="88.0" x2="617.0" y2="88.0" stroke="#888" stroke-width="1"/><line x1="46.0" y1="67.0" x2="38.0" y2="67.0" stroke="#888" stroke-width="1"/><line x1="613.0" y1="67.0" x2="621.0" y2="67.0" stroke="#888" stroke-width="1"/><text x="36.0" y="70.0" text-anchor="end" font-family="Arial" font-size="9" fill="#666">14</text><text x="623.0" y="70.0" text-anchor="start" font-family="Arial" font-size="9" fill="#666">14</text><line x1="46.0" y1="46.0" x2="42.0" y2="46.0" stroke="#888" stroke-width="1"/><line x1="613.0" y1="46.0" x2="617.0" y2="46.0" stroke="#888" stroke-width="1"/><rect x="130.0" y="130.0" width="399.0" height="441.0" fill="none" stroke="#9aa" stroke-width="1" stroke-dasharray="3 3"/><rect x="488.3" y="404.3" width="123.5" height="249.5" fill="#f2f2f2" stroke="#333" stroke-width="1.5" stroke-dasharray="6 4"/><text x="550.0" y="526.4" text-anchor="middle" font-family="Arial" font-size="12" font-weight="bold" fill="#222">CARPORT</text><text x="550.0" y="542.1" text-anchor="middle" font-family="Arial" font-size="10" fill="#555">3.0×6.0 m</text><rect x="131.3" y="572.3" width="239.0" height="60.5" fill="#f2f2f2" stroke="#333" stroke-width="1.5" stroke-dasharray="6 4"/><text x="250.8" y="599.9" text-anchor="middle" font-family="Arial" font-size="12" font-weight="bold" fill="#222">PORCH</text><text x="250.8" y="615.6" text-anchor="middle" font-family="Arial" font-size="10" fill="#555">5.8×1.5 m</text><rect x="205.6" y="130.0" width="157.5" height="100.8" fill="#d9ead3" stroke="#333" stroke-width="1.5"/><text x="284.4" y="177.8" text-anchor="middle" font-family="Arial" font-size="12" font-weight="bold" fill="#222">MASTER BR</text><text x="284.4" y="193.6" text-anchor="middle" font-family="Arial" font-size="10" fill="#555">3.8×2.4 m · 9.0 sqm</text><rect x="130.0" y="130.0" width="75.6" height="100.8" fill="#ead1dc" stroke="#333" stroke-width="1.5"/><text x="167.8" y="172.0" text-anchor="middle" font-family="Arial" font-size="12" font-weight="bold" fill="#222">ENSUITE</text><text x="167.8" y="187.8" text-anchor="middle" font-family="Arial" font-size="10" fill="#555">1.8×2.4 m</text><text x="167.8" y="199.3" text-anchor="middle" font-family="Arial" font-size="10" fill="#555">4.3 sqm</text><rect x="371.5" y="314.8" width="157.5" height="88.2" fill="#d9ead3" stroke="#333" stroke-width="1.5"/><text x="450.2" y="356.3" text-anchor="middle" font-family="Arial" font-size="12" font-weight="bold" fill="#222">BEDROOM</text><text x="450.2" y="372.1" text-anchor="middle" font-family="Arial" font-size="10" fill="#555">3.8×2.1 m · 7.9 sqm</text><rect x="380.2" y="130.0" width="148.8" height="100.8" fill="#d9ead3" stroke="#333" stroke-width="1.5"/><text x="454.6" y="177.8" text-anchor="middle" font-family="Arial" font-size="12" font-weight="bold" fill="#222">BEDROOM</text><text x="454.6" y="193.6" text-anchor="middle" font-family="Arial" font-size="10" fill="#555">3.5×2.4 m · 8.5 sqm</text><rect x="432.4" y="230.8" width="96.6" height="84.0" fill="#ead1dc" stroke="#333" stroke-width="1.5"/><text x="480.7" y="264.4" text-anchor="middle" font-family="Arial" font-size="12" font-weight="bold" fill="#222">T&amp;B</text><text x="480.7" y="280.2" text-anchor="middle" font-family="Arial" font-size="10" fill="#555">2.3×2.0 m</text><text x="480.7" y="291.7" text-anchor="middle" font-family="Arial" font-size="10" fill="#555">4.6 sqm</text><rect x="256.0" y="230.8" width="176.4" height="84.0" fill="#efefef" stroke="#333" stroke-width="1.5"/><text x="344.2" y="270.2" text-anchor="middle" font-family="Arial" font-size="12" font-weight="bold" fill="#222">HALL</text><text x="344.2" y="286.0" text-anchor="middle" font-family="Arial" font-size="10" fill="#555">4.2×2.0 m · 8.4 sqm</text><rect x="130.0" y="314.8" width="241.5" height="256.2" fill="#cfe2f3" stroke="none"/><rect x="371.5" y="403.0" width="115.5" height="168.0" fill="#cfe2f3" stroke="none"/><text x="250.8" y="440.2" text-anchor="middle" font-family="Arial" font-size="12" font-weight="bold" fill="#222">GREAT ROOM</text><text x="250.8" y="456.1" text-anchor="middle" font-family="Arial" font-size="10" fill="#555">46.1 sqm (L-shaped)</text><rect x="130.0" y="230.8" width="126.0" height="84.0" fill="#cfe2f3" stroke="#333" stroke-width="1.5"/><text x="193.0" y="270.2" text-anchor="middle" font-family="Arial" font-size="12" font-weight="bold" fill="#222">KITCHEN</text><text x="193.0" y="286.0" text-anchor="middle" font-family="Arial" font-size="10" fill="#555">3.0×2.0 m · 6.0 sqm</text><text x="329.5" y="689.0" text-anchor="middle" font-family="Arial" font-size="12" font-weight="bold" fill="#888">FRONT (street)</text><rect x="203.50" y="130.00" width="4.20" height="100.80" fill="#555" stroke="none"/><rect x="256.00" y="228.70" width="107.10" height="4.20" fill="#555" stroke="none"/><rect x="205.60" y="228.70" width="50.40" height="4.20" fill="#555" stroke="none"/><rect x="130.00" y="228.70" width="75.60" height="4.20" fill="#555" stroke="none"/><rect x="432.40" y="312.70" width="96.60" height="4.20" fill="#555" stroke="none"/><rect x="371.50" y="312.70" width="60.90" height="4.20" fill="#555" stroke="none"/><rect x="369.40" y="314.80" width="4.20" height="88.20" fill="#555" stroke="none"/><rect x="371.50" y="400.90" width="115.50" height="4.20" fill="#555" stroke="none"/><rect x="432.40" y="228.70" width="96.60" height="4.20" fill="#555" stroke="none"/><rect x="380.25" y="228.70" width="52.15" height="4.20" fill="#555" stroke="none"/><rect x="430.30" y="230.80" width="4.20" height="84.00" fill="#555" stroke="none"/><rect x="253.90" y="230.80" width="4.20" height="84.00" fill="#555" stroke="none"/><rect x="487.00" y="398.80" width="42.00" height="8.40" fill="#555" stroke="none"/><rect x="482.80" y="403.00" width="8.40" height="168.00" fill="#555" stroke="none"/><rect x="205.60" y="125.80" width="157.50" height="8.40" fill="#555" stroke="none"/><rect x="361.00" y="130.00" width="4.20" height="100.80" fill="#555" stroke="none"/><rect x="130.00" y="125.80" width="75.60" height="8.40" fill="#555" stroke="none"/><rect x="125.80" y="130.00" width="8.40" height="100.80" fill="#555" stroke="none"/><rect x="524.80" y="314.80" width="8.40" height="88.20" fill="#555" stroke="none"/><rect x="380.25" y="125.80" width="148.75" height="8.40" fill="#555" stroke="none"/><rect x="524.80" y="130.00" width="8.40" height="100.80" fill="#555" stroke="none"/><rect x="378.15" y="130.00" width="4.20" height="100.80" fill="#555" stroke="none"/><rect x="524.80" y="230.80" width="8.40" height="84.00" fill="#555" stroke="none"/><rect x="363.10" y="228.70" width="17.15" height="4.20" fill="#555" stroke="none"/><rect x="130.00" y="566.80" width="241.50" height="8.40" fill="#555" stroke="none"/><rect x="125.80" y="314.80" width="8.40" height="256.20" fill="#555" stroke="none"/><rect x="371.50" y="566.80" width="115.50" height="8.40" fill="#555" stroke="none"/><rect x="125.80" y="230.80" width="8.40" height="84.00" fill="#555" stroke="none"/><rect x="203.50" y="228.70" width="4.20" height="4.20" fill="#555" stroke="none"/><rect x="201.40" y="125.80" width="8.40" height="8.40" fill="#555" stroke="none"/><rect x="253.90" y="228.70" width="4.20" height="4.20" fill="#555" stroke="none"/><rect x="361.00" y="228.70" width="4.20" height="4.20" fill="#555" stroke="none"/><rect x="203.50" y="228.70" width="4.20" height="4.20" fill="#555" stroke="none"/><rect x="253.90" y="228.70" width="4.20" height="4.20" fill="#555" stroke="none"/><rect x="125.80" y="226.60" width="8.40" height="8.40" fill="#555" stroke="none"/><rect x="203.50" y="228.70" width="4.20" height="4.20" fill="#555" stroke="none"/><rect x="430.30" y="312.70" width="4.20" height="4.20" fill="#555" stroke="none"/><rect x="524.80" y="310.60" width="8.40" height="8.40" fill="#555" stroke="none"/><rect x="430.30" y="312.70" width="4.20" height="4.20" fill="#555" stroke="none"/><rect x="369.40" y="400.90" width="4.20" height="4.20" fill="#555" stroke="none"/><rect x="369.40" y="400.90" width="4.20" height="4.20" fill="#555" stroke="none"/><rect x="482.80" y="398.80" width="8.40" height="8.40" fill="#555" stroke="none"/><rect x="430.30" y="228.70" width="4.20" height="4.20" fill="#555" stroke="none"/><rect x="524.80" y="226.60" width="8.40" height="8.40" fill="#555" stroke="none"/><rect x="378.15" y="228.70" width="4.20" height="4.20" fill="#555" stroke="none"/><rect x="430.30" y="228.70" width="4.20" height="4.20" fill="#555" stroke="none"/><rect x="430.30" y="312.70" width="4.20" height="4.20" fill="#555" stroke="none"/><rect x="430.30" y="228.70" width="4.20" height="4.20" fill="#555" stroke="none"/><rect x="253.90" y="228.70" width="4.20" height="4.20" fill="#555" stroke="none"/><rect x="482.80" y="398.80" width="8.40" height="8.40" fill="#555" stroke="none"/><rect x="524.80" y="398.80" width="8.40" height="8.40" fill="#555" stroke="none"/><rect x="482.80" y="566.80" width="8.40" height="8.40" fill="#555" stroke="none"/><rect x="482.80" y="398.80" width="8.40" height="8.40" fill="#555" stroke="none"/><rect x="201.40" y="125.80" width="8.40" height="8.40" fill="#555" stroke="none"/><rect x="358.90" y="125.80" width="8.40" height="8.40" fill="#555" stroke="none"/><rect x="361.00" y="228.70" width="4.20" height="4.20" fill="#555" stroke="none"/><rect x="358.90" y="125.80" width="8.40" height="8.40" fill="#555" stroke="none"/><rect x="125.80" y="125.80" width="8.40" height="8.40" fill="#555" stroke="none"/><rect x="201.40" y="125.80" width="8.40" height="8.40" fill="#555" stroke="none"/><rect x="125.80" y="226.60" width="8.40" height="8.40" fill="#555" stroke="none"/><rect x="125.80" y="125.80" width="8.40" height="8.40" fill="#555" stroke="none"/><rect x="524.80" y="398.80" width="8.40" height="8.40" fill="#555" stroke="none"/><rect x="524.80" y="310.60" width="8.40" height="8.40" fill="#555" stroke="none"/><rect x="376.05" y="125.80" width="8.40" height="8.40" fill="#555" stroke="none"/><rect x="524.80" y="125.80" width="8.40" height="8.40" fill="#555" stroke="none"/><rect x="524.80" y="226.60" width="8.40" height="8.40" fill="#555" stroke="none"/><rect x="524.80" y="125.80" width="8.40" height="8.40" fill="#555" stroke="none"/><rect x="378.15" y="228.70" width="4.20" height="4.20" fill="#555" stroke="none"/><rect x="376.05" y="125.80" width="8.40" height="8.40" fill="#555" stroke="none"/><rect x="524.80" y="310.60" width="8.40" height="8.40" fill="#555" stroke="none"/><rect x="524.80" y="226.60" width="8.40" height="8.40" fill="#555" stroke="none"/><rect x="361.00" y="228.70" width="4.20" height="4.20" fill="#555" stroke="none"/><rect x="378.15" y="228.70" width="4.20" height="4.20" fill="#555" stroke="none"/><rect x="125.80" y="566.80" width="8.40" height="8.40" fill="#555" stroke="none"/><rect x="125.80" y="566.80" width="8.40" height="8.40" fill="#555" stroke="none"/><rect x="482.80" y="566.80" width="8.40" height="8.40" fill="#555" stroke="none"/><rect x="125.80" y="226.60" width="8.40" height="8.40" fill="#555" stroke="none"/><rect x="256.0" y="309.8" width="113.4" height="5.0" fill="#efefef" stroke="none"/><rect x="256.0" y="314.8" width="113.4" height="5.0" fill="#cfe2f3" stroke="none"/><rect x="132.1" y="314.8" width="123.9" height="5.0" fill="#cfe2f3" stroke="none"/><rect x="132.1" y="309.8" width="123.9" height="5.0" fill="#cfe2f3" stroke="none"/><rect x="205.6" y="195.1" width="5.0" height="29.4" fill="#d9ead3" stroke="none"/><rect x="200.6" y="195.1" width="5.0" height="29.4" fill="#ead1dc" stroke="none"/><line x1="205.6" y1="224.5" x2="176.2" y2="224.5" stroke="#444" stroke-width="1.4"/><path d="M 176.2 224.5 A 29.4 29.4 0 0 1 205.6 195.1" fill="none" stroke="#999" stroke-width="0.7" stroke-dasharray="2 2"/><rect x="323.2" y="225.8" width="33.6" height="5.0" fill="#d9ead3" stroke="none"/><rect x="323.2" y="230.8" width="33.6" height="5.0" fill="#efefef" stroke="none"/><line x1="356.8" y1="230.8" x2="356.8" y2="197.2" stroke="#444" stroke-width="1.4"/><path d="M 356.8 197.2 A 33.6 33.6 0 0 0 323.2 230.8" fill="none" stroke="#999" stroke-width="0.7" stroke-dasharray="2 2"/><rect x="386.5" y="225.8" width="33.6" height="5.0" fill="#d9ead3" stroke="none"/><rect x="386.5" y="230.8" width="33.6" height="5.0" fill="#efefef" stroke="none"/><line x1="386.5" y1="230.8" x2="386.5" y2="197.2" stroke="#444" stroke-width="1.4"/><path d="M 386.5 197.2 A 33.6 33.6 0 0 1 420.1 230.8" fill="none" stroke="#999" stroke-width="0.7" stroke-dasharray="2 2"/><rect x="432.4" y="279.1" width="5.0" height="29.4" fill="#ead1dc" stroke="none"/><rect x="427.4" y="279.1" width="5.0" height="29.4" fill="#efefef" stroke="none"/><line x1="432.4" y1="308.5" x2="461.8" y2="308.5" stroke="#444" stroke-width="1.4"/><path d="M 461.8 308.5 A 29.4 29.4 0 0 0 432.4 279.1" fill="none" stroke="#999" stroke-width="0.7" stroke-dasharray="2 2"/><rect x="377.8" y="398.0" width="33.6" height="5.0" fill="#d9ead3" stroke="none"/><rect x="377.8" y="403.0" width="33.6" height="5.0" fill="#cfe2f3" stroke="none"/><line x1="377.8" y1="403.0" x2="377.8" y2="369.4" stroke="#444" stroke-width="1.4"/><path d="M 377.8 369.4 A 33.6 33.6 0 0 1 411.4 403.0" fill="none" stroke="#999" stroke-width="0.7" stroke-dasharray="2 2"/><rect x="136.3" y="566.0" width="37.8" height="5.0" fill="#cfe2f3" stroke="none"/><rect x="136.3" y="571.0" width="37.8" height="5.0" fill="#fbfbf7" stroke="none"/><line x1="136.3" y1="571.0" x2="136.3" y2="533.2" stroke="#444" stroke-width="1.4"/><path d="M 136.3 533.2 A 37.8 37.8 0 0 1 174.1 571.0" fill="none" stroke="#999" stroke-width="0.7" stroke-dasharray="2 2"/><rect x="241.0" y="130.0" width="86.6" height="5.0" fill="#d9ead3" stroke="none"/><rect x="241.0" y="125.0" width="86.6" height="5.0" fill="#fbfbf7" stroke="none"/><line x1="241.0" y1="127.0" x2="327.7" y2="127.0" stroke="#222" stroke-width="1.0"/><line x1="241.0" y1="130.0" x2="327.7" y2="130.0" stroke="#222" stroke-width="1.0"/><line x1="241.0" y1="133.0" x2="327.7" y2="133.0" stroke="#222" stroke-width="1.0"/><rect x="130.0" y="161.5" width="5.0" height="37.8" fill="#ead1dc" stroke="none"/><rect x="125.0" y="161.5" width="5.0" height="37.8" fill="#fbfbf7" stroke="none"/><line x1="127.0" y1="199.3" x2="127.0" y2="161.5" stroke="#222" stroke-width="1.0"/><line x1="130.0" y1="199.3" x2="130.0" y2="161.5" stroke="#222" stroke-width="1.0"/><line x1="133.0" y1="199.3" x2="133.0" y2="161.5" stroke="#222" stroke-width="1.0"/><rect x="148.9" y="130.0" width="37.8" height="5.0" fill="#ead1dc" stroke="none"/><rect x="148.9" y="125.0" width="37.8" height="5.0" fill="#fbfbf7" stroke="none"/><line x1="148.9" y1="127.0" x2="186.7" y2="127.0" stroke="#222" stroke-width="1.0"/><line x1="148.9" y1="130.0" x2="186.7" y2="130.0" stroke="#222" stroke-width="1.0"/><line x1="148.9" y1="133.0" x2="186.7" y2="133.0" stroke="#222" stroke-width="1.0"/><rect x="524.0" y="334.7" width="5.0" height="48.5" fill="#d9ead3" stroke="none"/><rect x="529.0" y="334.7" width="5.0" height="48.5" fill="#fbfbf7" stroke="none"/><line x1="526.0" y1="383.2" x2="526.0" y2="334.7" stroke="#222" stroke-width="1.0"/><line x1="529.0" y1="383.2" x2="529.0" y2="334.7" stroke="#222" stroke-width="1.0"/><line x1="532.0" y1="383.2" x2="532.0" y2="334.7" stroke="#222" stroke-width="1.0"/><rect x="413.7" y="130.0" width="81.8" height="5.0" fill="#d9ead3" stroke="none"/><rect x="413.7" y="125.0" width="81.8" height="5.0" fill="#fbfbf7" stroke="none"/><line x1="413.7" y1="127.0" x2="495.5" y2="127.0" stroke="#222" stroke-width="1.0"/><line x1="413.7" y1="130.0" x2="495.5" y2="130.0" stroke="#222" stroke-width="1.0"/><line x1="413.7" y1="133.0" x2="495.5" y2="133.0" stroke="#222" stroke-width="1.0"/><rect x="524.0" y="152.7" width="5.0" height="55.4" fill="#d9ead3" stroke="none"/><rect x="529.0" y="152.7" width="5.0" height="55.4" fill="#fbfbf7" stroke="none"/><line x1="526.0" y1="208.1" x2="526.0" y2="152.7" stroke="#222" stroke-width="1.0"/><line x1="529.0" y1="208.1" x2="529.0" y2="152.7" stroke="#222" stroke-width="1.0"/><line x1="532.0" y1="208.1" x2="532.0" y2="152.7" stroke="#222" stroke-width="1.0"/><rect x="524.0" y="253.9" width="5.0" height="37.8" fill="#ead1dc" stroke="none"/><rect x="529.0" y="253.9" width="5.0" height="37.8" fill="#fbfbf7" stroke="none"/><line x1="526.0" y1="291.7" x2="526.0" y2="253.9" stroke="#222" stroke-width="1.0"/><line x1="529.0" y1="291.7" x2="529.0" y2="253.9" stroke="#222" stroke-width="1.0"/><line x1="532.0" y1="291.7" x2="532.0" y2="253.9" stroke="#222" stroke-width="1.0"/><rect x="130.0" y="392.5" width="5.0" height="100.8" fill="#cfe2f3" stroke="none"/><rect x="125.0" y="392.5" width="5.0" height="100.8" fill="#fbfbf7" stroke="none"/><line x1="127.0" y1="493.3" x2="127.0" y2="392.5" stroke="#222" stroke-width="1.0"/><line x1="130.0" y1="493.3" x2="130.0" y2="392.5" stroke="#222" stroke-width="1.0"/><line x1="133.0" y1="493.3" x2="133.0" y2="392.5" stroke="#222" stroke-width="1.0"/><rect x="228.7" y="566.0" width="100.8" height="5.0" fill="#cfe2f3" stroke="none"/><rect x="228.7" y="571.0" width="100.8" height="5.0" fill="#fbfbf7" stroke="none"/><line x1="228.7" y1="568.0" x2="329.5" y2="568.0" stroke="#222" stroke-width="1.0"/><line x1="228.7" y1="571.0" x2="329.5" y2="571.0" stroke="#222" stroke-width="1.0"/><line x1="228.7" y1="574.0" x2="329.5" y2="574.0" stroke="#222" stroke-width="1.0"/><rect x="130.0" y="249.7" width="5.0" height="46.2" fill="#cfe2f3" stroke="none"/><rect x="125.0" y="249.7" width="5.0" height="46.2" fill="#fbfbf7" stroke="none"/><line x1="127.0" y1="295.9" x2="127.0" y2="249.7" stroke="#222" stroke-width="1.0"/><line x1="130.0" y1="295.9" x2="130.0" y2="249.7" stroke="#222" stroke-width="1.0"/><line x1="133.0" y1="295.9" x2="133.0" y2="249.7" stroke="#222" stroke-width="1.0"/></svg>