<svg xmlns="http://www.w3.org/2000/svg" width="575" height="512" viewBox="0 0 575 512"><rect x="0" y="0" width="575" height="512" fill="white"/><rect x="46.0" y="46.0" width="483.0" height="420.0" fill="#fbfbf7" stroke="#333" stroke-width="1.5"/><line x1="46.0" y1="46.0" x2="46.0" y2="38.0" stroke="#888" stroke-width="1"/><line x1="46.0" y1="466.0" x2="46.0" y2="474.0" stroke="#888" stroke-width="1"/><text x="46.0" y="36.0" text-anchor="middle" font-family="Arial" font-size="9" fill="#666">0</text><text x="46.0" y="482.0" text-anchor="middle" font-family="Arial" font-size="9" fill="#666">0</text><line x1="67.0" y1="46.0" x2="67.0" y2="42.0" stroke="#888" stroke-width="1"/><line x1="67.0" y1="466.0" x2="67.0" y2="470.0" stroke="#888" stroke-width="1"/><line x1="88.0" y1="46.0" x2="88.0" y2="38.0" stroke="#888" stroke-width="1"/><line x1="88.0" y1="466.0" x2="88.0" y2="474.0" stroke="#888" stroke-width="1"/><text x="88.0" y="36.0" text-anchor="middle" font-family="Arial" font-size="9" fill="#666">1</text><text x="88.0" y="482.0" text-anchor="middle" font-family="Arial" font-size="9" fill="#666">1</text><line x1="109.0" y1="46.0" x2="109.0" y2="42.0" stroke="#888" stroke-width="1"/><line x1="109.0" y1="466.0" x2="109.0" y2="470.0" stroke="#888" stroke-width="1"/><line x1="130.0" y1="46.0" x2="130.0" y2="38.0" stroke="#888" stroke-width="1"/><line x1="130.0" y1="466.0" x2="130.0" y2="474.0" stroke="#888" stroke-width="1"/><text x="130.0" y="36.0" text-anchor="middle" font-family="Arial" font-size="9" fill="#666">2</text><text x="130.0" y="482.0" text-anchor="middle" font-family="Arial" font-size="9" fill="#666">2</text><line x1="151.0" y1="46.0" x2="151.0" y2="42.0" stroke="#888" stroke-width="1"/><line x1="151.0" y1="466.0" x2="151.0" y2="470.0" stroke="#888" stroke-width="1"/><line x1="172.0" y1="46.0" x2="172.0" y2="38.0" stroke="#888" stroke-width="1"/><line x1="172.0" y1="466.0" x2="172.0" y2="474.0" stroke="#888" stroke-width="1"/><text x="172.0" y="36.0" text-anchor="middle" font-family="Arial" font-size="9" fill="#666">3</text><text x="172.0" y="482.0" text-anchor="middle" font-family="Arial" font-size="9" fill="#666">3</text><line x1="193.0" y1="46.0" x2="193.0" y2="42.0" stroke="#888" stroke-width="1"/><line x1="193.0" y1="466.0" x2="193.0" y2="470.0" stroke="#888" stroke-width="1"/><line x1="214.0" y1="46.0" x2="214.0" y2="38.0" stroke="#888" stroke-width="1"/><line x1="214.0" y1="466.0" x2="214.0" y2="474.0" stroke="#888" stroke-width="1"/><text x="214.0" y="36.0" text-anchor="middle" font-family="Arial" font-size="9" fill="#666">4</text><text x="214.0" y="482.0" text-anchor="middle" font-family="Arial" font-size="9" fill="#666">4</text><line x1="235.0" y1="46.0" x2="235.0" y2="42.0" stroke="#888" stroke-width="1"/><line x1="235.0" y1="466.0" x2="235.0" y2="470.0" stroke="#888" stroke-width="1"/><line x1="256.0" y1="46.0" x2="256.0" y2="38.0" stroke="#888" stroke-width="1"/><line x1="256.0" y1="466.0" x2="256.0" y2="474.0" stroke="#888" stroke-width="1"/><text x="256.0" y="36.0" text-anchor="middle" font-family="Arial" font-size="9" fill="#666">5</text><text x="256.0" y="482.0" text-anchor="middle" font-family="Arial" font-size="9" fill="#666">5</text><line x1="277.0" y1="46.0" x2="277.0" y2="42.0" stroke="#888" stroke-width="1"/><line x1="277.0" y1="466.0" x2="277.0" y2="470.0" stroke="#888" stroke-width="1"/><line x1="298.0" y1="46.0" x2="298.0" y2="38.0" stroke="#888" stroke-width="1"/><line x1="298.0" y1="466.0" x2="298.0" y2="474.0" stroke="#888" stroke-width="1"/><text x="298.0" y="36.0" text-anchor="middle" font-family="Arial" font-size="9" fill="#666">6</text><text x="298.0" y="482.0" text-anchor="middle" font-family="Arial" font-size="9" fill="#666">6</text><line x1="319.0" y1="46.0" x2="319.0" y2="42.0" stroke="#888" stroke-width="1"/><line x1="319.0" y1="466.0" x2="319.0" y2="470.0" stroke="#888" stroke-width="1"/><line x1="340.0" y1="46.0" x2="340.0" y2="38.0" stroke="#888" stroke-width="1"/><line x1="340.0" y1="466.0" x2="340.0" y2="474.0" stroke="#888" stroke-width="1"/><text x="340.0" y="36.0" text-anchor="middle" font-family="Arial" font-size="9" fill="#666">7</text><text x="340.0" y="482.0" text-anchor="middle" font-family="Arial" font-size="9" fill="#666">7</text><line x1="361.0" y1="46.0" x2="361.0" y2="42.0" stroke="#888" stroke-width="1"/><line x1="361.0" y1="466.0" x2="361.0" y2="470.0" stroke="#888" stroke-width="1"/><line x1="382.0" y1="46.0" x2="382.0" y2="38.0" stroke="#888" stroke-width="1"/><line x1="382.0" y1="466.0" x2="382.0" y2="474.0" stroke="#888" stroke-width="1"/><text x="382.0" y="36.0" text-anchor="middle" font-family="Arial" font-size="9" fill="#666">8</text><text x="382.0" y="482.0" text-anchor="middle" font-family="Arial" font-size="9" fill="#666">8</text><line x1="403.0" y1="46.0" x2="403.0" y2="42.0" stroke="#888" stroke-width="1"/><line x1="403.0" y1="466.0" x2="403.0" y2="470.0" stroke="#888" stroke-width="1"/><line x1="424.0" y1="46.0" x2="424.0" y2="38.0" stroke="#888" stroke-width="1"/><line x1="424.0" y1="466.0" x2="424.0" y2="474.0" stroke="#888" stroke-width="1"/><text x="424.0" y="36.0" text-anchor="middle" font-family="Arial" font-size="9" fill="#666">9</text><text x="424.0" y="482.0" text-anchor="middle" font-family="Arial" font-size="9" fill="#666">9</text><line x1="445.0" y1="46.0" x2="445.0" y2="42.0" stroke="#888" stroke-width="1"/><line x1="445.0" y1="466.0" x2="445.0" y2="470.0" stroke="#888" stroke-width="1"/><line x1="466.0" y1="46.0" x2="466.0" y2="38.0" stroke="#888" stroke-width="1"/><line x1="466.0" y1="466.0" x2="466.0" y2="474.0" stroke="#888" stroke-width="1"/><text x="466.0" y="36.0" text-anchor="middle" font-family="Arial" font-size="9" fill="#666">10</text><text x="466.0" y="482.0" text-anchor="middle" font-family="Arial" font-size="9" fill="#666">10</text><line x1="487.0" y1="46.0" x2="487.0" y2="42.0" stroke="#888" stroke-width="1"/><line x1="487.0" y1="466.0" x2="487.0" y2="470.0" stroke="#888" stroke-width="1"/><line x1="508.0" y1="46.0" x2="508.0" y2="38.0" stroke="#888" stroke-width="1"/><line x1="508.0" y1="466.0" x2="508.0" y2="474.0" stroke="#888" stroke-width="1"/><text x="508.0" y="36.0" text-anchor="middle" font-family="Arial" font-size="9" fill="#666">11</text><text x="508.0" y="482.0" text-anchor="middle" font-family="Arial" font-size="9" fill="#666">11</text><line x1="529.0" y1="46.0" x2="529.0" y2="42.0" stroke="#888" stroke-width="1"/><line x1="529.0" y1="466.0" x2="529.0" y2="470.0" stroke="#888" stroke-width="1"/><line x1="46.0" y1="466.0" x2="38.0" y2="466.0" stroke="#888" stroke-width="1"/><line x1="529.0" y1="466.0" x2="537.0" y2="466.0" stroke="#888" stroke-width="1"/><text x="36.0" y="469.0" text-anchor="end" font-family="Arial" font-size="9" fill="#666">0</text><text x="539.0" y="469.0" text-anchor="start" font-family="Arial" font-size="9" fill="#666">0</text><line x1="46.0" y1="445.0" x2="42.0" y2="445.0" stroke="#888" stroke-width="1"/><line x1="529.0" y1="445.0" x2="533.0" y2="445.0" stroke="#888" stroke-width="1"/><line x1="46.0" y1="424.0" x2="38.0" y2="424.0" stroke="#888" stroke-width="1"/><line x1="529.0" y1="424.0" x2="537.0" y2="424.0" stroke="#888" stroke-width="1"/><text x="36.0" y="427.0" text-anchor="end" font-family="Arial" font-size="9" fill="#666">1</text><text x="539.0" y="427.0" text-anchor="start" font-family="Arial" font-size="9" fill="#666">1</text><line x1="46.0" y1="403.0" x2="42.0" y2="403.0" stroke="#888" stroke-width="1"/><line x1="529.0" y1="403.0" x2="533.0" y2="403.0" stroke="#888" stroke-width="1"/><line x1="46.0" y1="382.0" x2="38.0" y2="382.0" stroke="#888" stroke-width="1"/><line x1="529.0" y1="382.0" x2="537.0" y2="382.0" stroke="#888" stroke-width="1"/><text x="36.0" y="385.0" text-anchor="end" font-family="Arial" font-size="9" fill="#666">2</text><text x="539.0" y="385.0" text-anchor="start" font-family="Arial" font-size="9" fill="#666">2</text><line x1="46.0" y1="361.0" x2="42.0" y2="361.0" stroke="#888" stroke-width="1"/><line x1="529.0" y1="361.0" x2="533.0" y2="361.0" stroke="#888" stroke-width="1"/><line x1="46.0" y1="340.0" x2="38.0" y2="340.0" stroke="#888" stroke-width="1"/><line x1="529.0" y1="340.0" x2="537.0" y2="340.0" stroke="#888" stroke-width="1"/><text x="36.0" y="343.0" text-anchor="end" font-family="Arial" font-size="9" fill="#666">3</text><text x="539.0" y="343.0" text-anchor="start" font-family="Arial" font-size="9" fill="#666">3</text><line x1="46.0" y1="319.0" x2="42.0" y2="319.0" stroke="#888" stroke-width="1"/><line x1="529.0" y1="319.0" x2="533.0" y2="319.0" stroke="#888" stroke-width="1"/><line x1="46.0" y1="298.0" x2="38.0" y2="298.0" stroke="#888" stroke-width="1"/><line x1="529.0" y1="298.0" x2="537.0" y2="298.0" stroke="#888" stroke-width="1"/><text x="36.0" y="301.0" text-anchor="end" font-family="Arial" font-size="9" fill="#666">4</text><text x="539.0" y="301.0" text-anchor="start" font-family="Arial" font-size="9" fill="#666">4</text><line x1="46.0" y1="277.0" x2="42.0" y2="277.0" stroke="#888" stroke-width="1"/><line x1="529.0" y1="277.0" x2="533.0" y2="277.0" stroke="#888" stroke-width="1"/><line x1="46.0" y1="256.0" x2="38.0" y2="256.0" stroke="#888" stroke-width="1"/><line x1="529.0" y1="256.0" x2="537.0" y2="256.0" stroke="#888" stroke-width="1"/><text x="36.0" y="259.0" text-anchor="end" font-family="Arial" font-size="9" fill="#666">5</text><text x="539.0" y="259.0" text-anchor="start" font-family="Arial" font-size="9" fill="#666">5</text><line x1="46.0" y1="235.0" x2="42.0" y2="235.0" stroke="#888" stroke-width="1"/><line x1="529.0" y1="235.0" x2="533.0" y2="235.0" stroke="#888" stroke-width="1"/><line x1="46.0" y1="214.0" x2="38.0" y2="214.0" stroke="#888" stroke-width="1"/><line x1="529.0" y1="214.0" x2="537.0" y2="214.0" stroke="#888" stroke-width="1"/><text x="36.0" y="217.0" text-anchor="end" font-family="Arial" font-size="9" fill="#666">6</text><text x="539.0" y="217.0" text-anchor="start" font-family="Arial" font-size="9" fill="#666">6</text><line x1="46.0" y1="193.0" x2="42.0" y2="193.0" stroke="#888" stroke-width="1"/><line x1="529.0" y1="193.0" x2="533.0" y2="193.0" stroke="#888" stroke-width="1"/><line x1="46.0" y1="172.0" x2="38.0" y2="172.0" stroke="#888" stroke-width="1"/><line x1="529.0" y1="172.0" x2="537.0" y2="172.0" stroke="#888" stroke-width="1"/><text x="36.0" y="175.0" text-anchor="end" font-family="Arial" font-size="9" fill="#666">7</text><text x="539.0" y="175.0" text-anchor="start" font-family="Arial" font-size="9" fill="#666">7</text><line x1="46.0" y1="151.0" x2="42.0" y2="151.0" stroke="#888" stroke-width="1"/><line x1="529.0" y1="151.0" x2="533.0" y2="151.0" stroke="#888" stroke-width="1"/><line x1="46.0" y1="130.0" x2="38.0" y2="130.0" stroke="#888" stroke-width="1"/><line x1="529.0" y1="130.0" x2="537.0" y2="130.0" stroke="#888" stroke-width="1"/><text x="36.0" y="133.0" text-anchor="end" font-family="Arial" font-size="9" fill="#666">8</text><text x="539.0" y="133.0" text-anchor="start" font-family="Arial" font-size="9" fill="#666">8</text><line x1="46.0" y1="109.0" x2="42.0" y2="109.0" stroke="#888" stroke-width="1"/><line x1="529.0" y1="109.0" x2="533.0" y2="109.0" stroke="#888" stroke-width="1"/><line x1="46.0" y1="88.0" x2="38.0" y2="88.0" stroke="#888" stroke-width="1"/><line x1="529.0" y1="88.0" x2="537.0" y2="88.0" stroke="#888" stroke-width="1"/><text x="36.0" y="91.0" text-anchor="end" font-family="Arial" font-size="9" fill="#666">9</text><text x="539.0" y="91.0" text-anchor="start" font-family="Arial" font-size="9" fill="#666">9</text><line x1="46.0" y1="67.0" x2="42.0" y2="67.0" stroke="#888" stroke-width="1"/><line x1="529.0" y1="67.0" x2="533.0" y2="67.0" stroke="#888" stroke-width="1"/><line x1="46.0" y1="46.0" x2="38.0" y2="46.0" stroke="#888" stroke-width="1"/><line x1="529.0" y1="46.0" x2="537.0" y2="46.0" stroke="#888" stroke-width="1"/><text x="36.0" y="49.0" text-anchor="end" font-family="Arial" font-size="9" fill="#666">10</text><text x="539.0" y="49.0" text-anchor="start" font-family="Arial" font-size="9" fill="#666">10</text><rect x="130.0" y="130.0" width="315.0" height="252.0" fill="none" stroke="#9aa" stroke-width="1" stroke-dasharray="3 3"/><rect x="255.2" y="383.3" width="188.6" height="60.5" fill="#f2f2f2" stroke="#333" stroke-width="1.5" stroke-dasharray="6 4"/><text x="349.5" y="410.9" text-anchor="middle" font-family="Arial" font-size="12" font-weight="bold" fill="#222">PORCH</text><text x="349.5" y="426.7" text-anchor="middle" font-family="Arial" font-size="10" fill="#555">4.5×1.5 m</text><rect x="130.0" y="228.7" width="123.9" height="153.3" fill="#d9ead3" stroke="#333" stroke-width="1.5"/><text x="192.0" y="296.9" text-anchor="middle" font-family="Arial" font-size="12" font-weight="bold" fill="#222">MASTER BR</text><text x="192.0" y="312.8" text-anchor="middle" font-family="Arial" font-size="10" fill="#555">3.0×3.6 m</text><text x="192.0" y="324.2" text-anchor="middle" font-family="Arial" font-size="10" fill="#555">10.8 sqm</text><rect x="130.0" y="130.0" width="174.3" height="98.7" fill="#d9ead3" stroke="#333" stroke-width="1.5"/><text x="217.2" y="176.7" text-anchor="middle" font-family="Arial" font-size="12" font-weight="bold" fill="#222">BEDROOM</text><text x="217.2" y="192.5" text-anchor="middle" font-family="Arial" font-size="10" fill="#555">4.2×2.4 m · 9.8 sqm</text><rect x="304.3" y="130.0" width="52.5" height="98.7" fill="#ead1dc" stroke="#333" stroke-width="1.5"/><text x="330.6" y="176.7" text-anchor="middle" font-family="Arial" font-size="12" font-weight="bold" fill="#222">T&amp;B</text><text x="330.6" y="192.5" text-anchor="middle" font-family="Arial" font-size="10" fill="#555">2.9 sqm</text><rect x="253.9" y="228.7" width="191.1" height="153.3" fill="#cfe2f3" stroke="#333" stroke-width="1.5"/><text x="349.4" y="302.7" text-anchor="middle" font-family="Arial" font-size="12" font-weight="bold" fill="#222">GREAT ROOM</text><text x="349.4" y="318.5" text-anchor="middle" font-family="Arial" font-size="10" fill="#555">4.5×3.6 m · 16.6 sqm</text><rect x="356.8" y="130.0" width="88.2" height="98.7" fill="#cfe2f3" stroke="#333" stroke-width="1.5"/><text x="400.9" y="170.9" text-anchor="middle" font-family="Arial" font-size="12" font-weight="bold" fill="#222">KITCHEN</text><text x="400.9" y="186.8" text-anchor="middle" font-family="Arial" font-size="10" fill="#555">2.1×2.4 m</text><text x="400.9" y="198.2" text-anchor="middle" font-family="Arial" font-size="10" fill="#555">4.9 sqm</text><text x="287.5" y="500.0" text-anchor="middle" font-family="Arial" font-size="12" font-weight="bold" fill="#888">FRONT (street)</text><rect x="130.00" y="226.60" width="123.90" height="4.20" fill="#555" stroke="none"/><rect x="251.80" y="228.70" width="4.20" height="153.30" fill="#555" stroke="none"/><rect x="302.20" y="130.00" width="4.20" height="98.70" fill="#555" stroke="none"/><rect x="253.90" y="226.60" width="50.40" height="4.20" fill="#555" stroke="none"/><rect x="304.30" y="226.60" width="52.50" height="4.20" fill="#555" stroke="none"/><rect x="354.70" y="130.00" width="4.20" height="98.70" fill="#555" stroke="none"/><rect x="130.00" y="377.80" width="123.90" height="8.40" fill="#555" stroke="none"/><rect x="125.80" y="228.70" width="8.40" height="153.30" fill="#555" stroke="none"/><rect x="130.00" y="125.80" width="174.30" height="8.40" fill="#555" stroke="none"/><rect x="125.80" y="130.00" width="8.40" height="98.70" fill="#555" stroke="none"/><rect x="304.30" y="125.80" width="52.50" height="8.40" fill="#555" stroke="none"/><rect x="253.90" y="377.80" width="191.10" height="8.40" fill="#555" stroke="none"/><rect x="440.80" y="228.70" width="8.40" height="153.30" fill="#555" stroke="none"/><rect x="356.80" y="125.80" width="88.20" height="8.40" fill="#555" stroke="none"/><rect x="440.80" y="130.00" width="8.40" height="98.70" fill="#555" stroke="none"/><rect x="125.80" y="224.50" width="8.40" height="8.40" fill="#555" stroke="none"/><rect x="251.80" y="226.60" width="4.20" height="4.20" fill="#555" stroke="none"/><rect x="249.70" y="377.80" width="8.40" height="8.40" fill="#555" stroke="none"/><rect x="251.80" y="226.60" width="4.20" height="4.20" fill="#555" stroke="none"/><rect x="302.20" y="226.60" width="4.20" height="4.20" fill="#555" stroke="none"/><rect x="300.10" y="125.80" width="8.40" height="8.40" fill="#555" stroke="none"/><rect x="251.80" y="226.60" width="4.20" height="4.20" fill="#555" stroke="none"/><rect x="302.20" y="226.60" width="4.20" height="4.20" fill="#555" stroke="none"/><rect x="302.20" y="226.60" width="4.20" height="4.20" fill="#555" stroke="none"/><rect x="352.60" y="125.80" width="8.40" height="8.40" fill="#555" stroke="none"/><rect x="125.80" y="377.80" width="8.40" height="8.40" fill="#555" stroke="none"/><rect x="249.70" y="377.80" width="8.40" height="8.40" fill="#555" stroke="none"/><rect x="125.80" y="377.80" width="8.40" height="8.40" fill="#555" stroke="none"/><rect x="125.80" y="224.50" width="8.40" height="8.40" fill="#555" stroke="none"/><rect x="125.80" y="125.80" width="8.40" height="8.40" fill="#555" stroke="none"/><rect x="300.10" y="125.80" width="8.40" height="8.40" fill="#555" stroke="none"/><rect x="125.80" y="224.50" width="8.40" height="8.40" fill="#555" stroke="none"/><rect x="125.80" y="125.80" width="8.40" height="8.40" fill="#555" stroke="none"/><rect x="300.10" y="125.80" width="8.40" height="8.40" fill="#555" stroke="none"/><rect x="352.60" y="125.80" width="8.40" height="8.40" fill="#555" stroke="none"/><rect x="249.70" y="377.80" width="8.40" height="8.40" fill="#555" stroke="none"/><rect x="440.80" y="377.80" width="8.40" height="8.40" fill="#555" stroke="none"/><rect x="440.80" y="377.80" width="8.40" height="8.40" fill="#555" stroke="none"/><rect x="352.60" y="125.80" width="8.40" height="8.40" fill="#555" stroke="none"/><rect x="440.80" y="125.80" width="8.40" height="8.40" fill="#555" stroke="none"/><rect x="440.80" y="125.80" width="8.40" height="8.40" fill="#555" stroke="none"/><rect x="358.9" y="223.7" width="84.0" height="5.0" fill="#cfe2f3" stroke="none"/><rect x="358.9" y="228.7" width="84.0" height="5.0" fill="#cfe2f3" stroke="none"/><rect x="351.8" y="193.0" width="5.0" height="29.4" fill="#ead1dc" stroke="none"/><rect x="356.8" y="193.0" width="5.0" height="29.4" fill="#cfe2f3" stroke="none"/><line x1="356.8" y1="222.4" x2="327.4" y2="222.4" stroke="#444" stroke-width="1.4"/><path d="M 327.4 222.4 A 29.4 29.4 0 0 1 356.8 193.0" fill="none" stroke="#999" stroke-width="0.7" stroke-dasharray="2 2"/><rect x="248.9" y="235.0" width="5.0" height="33.6" fill="#d9ead3" stroke="none"/><rect x="253.9" y="235.0" width="5.0" height="33.6" fill="#cfe2f3" stroke="none"/><line x1="253.9" y1="235.0" x2="220.3" y2="235.0" stroke="#444" stroke-width="1.4"/><path d="M 220.3 235.0 A 33.6 33.6 0 0 0 253.9 268.6" fill="none" stroke="#999" stroke-width="0.7" stroke-dasharray="2 2"/><rect x="264.4" y="223.7" width="33.6" height="5.0" fill="#d9ead3" stroke="none"/><rect x="264.4" y="228.7" width="33.6" height="5.0" fill="#cfe2f3" stroke="none"/><line x1="298.0" y1="228.7" x2="298.0" y2="195.1" stroke="#444" stroke-width="1.4"/><path d="M 298.0 195.1 A 33.6 33.6 0 0 0 264.4 228.7" fill="none" stroke="#999" stroke-width="0.7" stroke-dasharray="2 2"/><rect x="260.2" y="377.0" width="37.8" height="5.0" fill="#cfe2f3" stroke="none"/><rect x="260.2" y="382.0" width="37.8" height="5.0" fill="#fbfbf7" stroke="none"/><line x1="260.2" y1="382.0" x2="260.2" y2="344.2" stroke="#444" stroke-width="1.4"/><path d="M 260.2 344.2 A 37.8 37.8 0 0 1 298.0 382.0" fill="none" stroke="#999" stroke-width="0.7" stroke-dasharray="2 2"/><rect x="363.1" y="130.0" width="33.6" height="5.0" fill="#cfe2f3" stroke="none"/><rect x="363.1" y="125.0" width="33.6" height="5.0" fill="#fbfbf7" stroke="none"/><line x1="363.1" y1="130.0" x2="363.1" y2="163.6" stroke="#444" stroke-width="1.4"/><path d="M 363.1 163.6 A 33.6 33.6 0 0 0 396.7 130.0" fill="none" stroke="#999" stroke-width="0.7" stroke-dasharray="2 2"/><rect x="130.0" y="263.2" width="5.0" height="84.3" fill="#d9ead3" stroke="none"/><rect x="125.0" y="263.2" width="5.0" height="84.3" fill="#fbfbf7" stroke="none"/><line x1="127.0" y1="347.5" x2="127.0" y2="263.2" stroke="#222" stroke-width="1.0"/><line x1="130.0" y1="347.5" x2="130.0" y2="263.2" stroke="#222" stroke-width="1.0"/><line x1="133.0" y1="347.5" x2="133.0" y2="263.2" stroke="#222" stroke-width="1.0"/><rect x="157.9" y="377.0" width="68.2" height="5.0" fill="#d9ead3" stroke="none"/><rect x="157.9" y="382.0" width="68.2" height="5.0" fill="#fbfbf7" stroke="none"/><line x1="157.9" y1="379.0" x2="226.1" y2="379.0" stroke="#222" stroke-width="1.0"/><line x1="157.9" y1="382.0" x2="226.1" y2="382.0" stroke="#222" stroke-width="1.0"/><line x1="157.9" y1="385.0" x2="226.1" y2="385.0" stroke="#222" stroke-width="1.0"/><rect x="169.2" y="130.0" width="95.9" height="5.0" fill="#d9ead3" stroke="none"/><rect x="169.2" y="125.0" width="95.9" height="5.0" fill="#fbfbf7" stroke="none"/><line x1="169.2" y1="127.0" x2="265.1" y2="127.0" stroke="#222" stroke-width="1.0"/><line x1="169.2" y1="130.0" x2="265.1" y2="130.0" stroke="#222" stroke-width="1.0"/><line x1="169.2" y1="133.0" x2="265.1" y2="133.0" stroke="#222" stroke-width="1.0"/><rect x="130.0" y="152.2" width="5.0" height="54.3" fill="#d9ead3" stroke="none"/><rect x="125.0" y="152.2" width="5.0" height="54.3" fill="#fbfbf7" stroke="none"/><line x1="127.0" y1="206.5" x2="127.0" y2="152.2" stroke="#222" stroke-width="1.0"/><line x1="130.0" y1="206.5" x2="130.0" y2="152.2" stroke="#222" stroke-width="1.0"/><line x1="133.0" y1="206.5" x2="133.0" y2="152.2" stroke="#222" stroke-width="1.0"/><rect x="317.4" y="130.0" width="26.2" height="5.0" fill="#ead1dc" stroke="none"/><rect x="317.4" y="125.0" width="26.2" height="5.0" fill="#fbfbf7" stroke="none"/><line x1="317.4" y1="127.0" x2="343.7" y2="127.0" stroke="#222" stroke-width="1.0"/><line x1="317.4" y1="130.0" x2="343.7" y2="130.0" stroke="#222" stroke-width="1.0"/><line x1="317.4" y1="133.0" x2="343.7" y2="133.0" stroke="#222" stroke-width="1.0"/><rect x="340.8" y="377.0" width="73.9" height="5.0" fill="#cfe2f3" stroke="none"/><rect x="340.8" y="382.0" width="73.9" height="5.0" fill="#fbfbf7" stroke="none"/><line x1="340.8" y1="379.0" x2="414.8" y2="379.0" stroke="#222" stroke-width="1.0"/><line x1="340.8" y1="382.0" x2="414.8" y2="382.0" stroke="#222" stroke-width="1.0"/><line x1="340.8" y1="385.0" x2="414.8" y2="385.0" stroke="#222" stroke-width="1.0"/><rect x="440.0" y="263.2" width="5.0" height="84.3" fill="#cfe2f3" stroke="none"/><rect x="445.0" y="263.2" width="5.0" height="84.3" fill="#fbfbf7" stroke="none"/><line x1="442.0" y1="347.5" x2="442.0" y2="263.2" stroke="#222" stroke-width="1.0"/><line x1="445.0" y1="347.5" x2="445.0" y2="263.2" stroke="#222" stroke-width="1.0"/><line x1="448.0" y1="347.5" x2="448.0" y2="263.2" stroke="#222" stroke-width="1.0"/><rect x="440.0" y="152.2" width="5.0" height="54.3" fill="#cfe2f3" stroke="none"/><rect x="445.0" y="152.2" width="5.0" height="54.3" fill="#fbfbf7" stroke="none"/><line x1="442.0" y1="206.5" x2="442.0" y2="152.2" stroke="#222" stroke-width="1.0"/><line x1="445.0" y1="206.5" x2="445.0" y2="152.2" stroke="#222" stroke-width="1.0"/><line x1="448.0" y1="206.5" x2="448.0" y2="152.2" stroke="#222" stroke-width="1.0"/></svg>