<svg xmlns="http://www.w3.org/2000/svg" width="512" height="512" viewBox="0 0 512 512"><rect x="0" y="0" width="512" height="512" fill="white"/><rect x="46.0" y="46.0" width="420.0" height="420.0" fill="#fbfbf7" stroke="#333" stroke-width="1.5"/><line x1="46.0" y1="46.0" x2="46.0" y2="38.0" stroke="#888" stroke-width="1"/><line x1="46.0" y1="466.0" x2="46.0" y2="474.0" stroke="#888" stroke-width="1"/><text x="46.0" y="36.0" text-anchor="middle" font-family="Arial" font-size="9" fill="#666">0</text><text x="46.0" y="482.0" text-anchor="middle" font-family="Arial" font-size="9" fill="#666">0</text><line x1="67.0" y1="46.0" x2="67.0" y2="42.0" stroke="#888" stroke-width="1"/><line x1="67.0" y1="466.0" x2="67.0" y2="470.0" stroke="#888" stroke-width="1"/><line x1="88.0" y1="46.0" x2="88.0" y2="38.0" stroke="#888" stroke-width="1"/><line x1="88.0" y1="466.0" x2="88.0" y2="474.0" stroke="#888" stroke-width="1"/><text x="88.0" y="36.0" text-anchor="middle" font-family="Arial" font-size="9" fill="#666">1</text><text x="88.0" y="482.0" text-anchor="middle" font-family="Arial" font-size="9" fill="#666">1</text><line x1="109.0" y1="46.0" x2="109.0" y2="42.0" stroke="#888" stroke-width="1"/><line x1="109.0" y1="466.0" x2="109.0" y2="470.0" stroke="#888" stroke-width="1"/><line x1="130.0" y1="46.0" x2="130.0" y2="38.0" stroke="#888" stroke-width="1"/><line x1="130.0" y1="466.0" x2="130.0" y2="474.0" stroke="#888" stroke-width="1"/><text x="130.0" y="36.0" text-anchor="middle" font-family="Arial" font-size="9" fill="#666">2</text><text x="130.0" y="482.0" text-anchor="middle" font-family="Arial" font-size="9" fill="#666">2</text><line x1="151.0" y1="46.0" x2="151.0" y2="42.0" stroke="#888" stroke-width="1"/><line x1="151.0" y1="466.0" x2="151.0" y2="470.0" stroke="#888" stroke-width="1"/><line x1="172.0" y1="46.0" x2="172.0" y2="38.0" stroke="#888" stroke-width="1"/><line x1="172.0" y1="466.0" x2="172.0" y2="474.0" stroke="#888" stroke-width="1"/><text x="172.0" y="36.0" text-anchor="middle" font-family="Arial" font-size="9" fill="#666">3</text><text x="172.0" y="482.0" text-anchor="middle" font-family="Arial" font-size="9" fill="#666">3</text><line x1="193.0" y1="46.0" x2="193.0" y2="42.0" stroke="#888" stroke-width="1"/><line x1="193.0" y1="466.0" x2="193.0" y2="470.0" stroke="#888" stroke-width="1"/><line x1="214.0" y1="46.0" x2="214.0" y2="38.0" stroke="#888" stroke-width="1"/><line x1="214.0" y1="466.0" x2="214.0" y2="474.0" stroke="#888" stroke-width="1"/><text x="214.0" y="36.0" text-anchor="middle" font-family="Arial" font-size="9" fill="#666">4</text><text x="214.0" y="482.0" text-anchor="middle" font-family="Arial" font-size="9" fill="#666">4</text><line x1="235.0" y1="46.0" x2="235.0" y2="42.0" stroke="#888" stroke-width="1"/><line x1="235.0" y1="466.0" x2="235.0" y2="470.0" stroke="#888" stroke-width="1"/><line x1="256.0" y1="46.0" x2="256.0" y2="38.0" stroke="#888" stroke-width="1"/><line x1="256.0" y1="466.0" x2="256.0" y2="474.0" stroke="#888" stroke-width="1"/><text x="256.0" y="36.0" text-anchor="middle" font-family="Arial" font-size="9" fill="#666">5</text><text x="256.0" y="482.0" text-anchor="middle" font-family="Arial" font-size="9" fill="#666">5</text><line x1="277.0" y1="46.0" x2="277.0" y2="42.0" stroke="#888" stroke-width="1"/><line x1="277.0" y1="466.0" x2="277.0" y2="470.0" stroke="#888" stroke-width="1"/><line x1="298.0" y1="46.0" x2="298.0" y2="38.0" stroke="#888" stroke-width="1"/><line x1="298.0" y1="466.0" x2="298.0" y2="474.0" stroke="#888" stroke-width="1"/><text x="298.0" y="36.0" text-anchor="middle" font-family="Arial" font-size="9" fill="#666">6</text><text x="298.0" y="482.0" text-anchor="middle" font-family="Arial" font-size="9" fill="#666">6</text><line x1="319.0" y1="46.0" x2="319.0" y2="42.0" stroke="#888" stroke-width="1"/><line x1="319.0" y1="466.0" x2="319.0" y2="470.0" stroke="#888" stroke-width="1"/><line x1="340.0" y1="46.0" x2="340.0" y2="38.0" stroke="#888" stroke-width="1"/><line x1="340.0" y1="466.0" x2="340.0" y2="474.0" stroke="#888" stroke-width="1"/><text x="340.0" y="36.0" text-anchor="middle" font-family="Arial" font-size="9" fill="#666">7</text><text x="340.0" y="482.0" text-anchor="middle" font-family="Arial" font-size="9" fill="#666">7</text><line x1="361.0" y1="46.0" x2="361.0" y2="42.0" stroke="#888" stroke-width="1"/><line x1="361.0" y1="466.0" x2="361.0" y2="470.0" stroke="#888" stroke-width="1"/><line x1="382.0" y1="46.0" x2="382.0" y2="38.0" stroke="#888" stroke-width="1"/><line x1="382.0" y1="466.0" x2="382.0" y2="474.0" stroke="#888" stroke-width="1"/><text x="382.0" y="36.0" text-anchor="middle" font-family="Arial" font-size="9" fill="#666">8</text><text x="382.0" y="482.0" text-anchor="middle" font-family="Arial" font-size="9" fill="#666">8</text><line x1="403.0" y1="46.0" x2="403.0" y2="42.0" stroke="#888" stroke-width="1"/><line x1="403.0" y1="466.0" x2="403.0" y2="470.0" stroke="#888" stroke-width="1"/><line x1="424.0" y1="46.0" x2="424.0" y2="38.0" stroke="#888" stroke-width="1"/><line x1="424.0" y1="466.0" x2="424.0" y2="474.0" stroke="#888" stroke-width="1"/><text x="424.0" y="36.0" text-anchor="middle" font-family="Arial" font-size="9" fill="#666">9</text><text x="424.0" y="482.0" text-anchor="middle" font-family="Arial" font-size="9" fill="#666">9</text><line x1="445.0" y1="46.0" x2="445.0" y2="42.0" stroke="#888" stroke-width="1"/><line x1="445.0" y1="466.0" x2="445.0" y2="470.0" stroke="#888" stroke-width="1"/><line x1="466.0" y1="46.0" x2="466.0" y2="38.0" stroke="#888" stroke-width="1"/><line x1="466.0" y1="466.0" x2="466.0" y2="474.0" stroke="#888" stroke-width="1"/><text x="466.0" y="36.0" text-anchor="middle" font-family="Arial" font-size="9" fill="#666">10</text><text x="466.0" y="482.0" text-anchor="middle" font-family="Arial" font-size="9" fill="#666">10</text><line x1="46.0" y1="466.0" x2="38.0" y2="466.0" stroke="#888" stroke-width="1"/><line x1="466.0" y1="466.0" x2="474.0" y2="466.0" stroke="#888" stroke-width="1"/><text x="36.0" y="469.0" text-anchor="end" font-family="Arial" font-size="9" fill="#666">0</text><text x="476.0" y="469.0" text-anchor="start" font-family="Arial" font-size="9" fill="#666">0</text><line x1="46.0" y1="445.0" x2="42.0" y2="445.0" stroke="#888" stroke-width="1"/><line x1="466.0" y1="445.0" x2="470.0" y2="445.0" stroke="#888" stroke-width="1"/><line x1="46.0" y1="424.0" x2="38.0" y2="424.0" stroke="#888" stroke-width="1"/><line x1="466.0" y1="424.0" x2="474.0" y2="424.0" stroke="#888" stroke-width="1"/><text x="36.0" y="427.0" text-anchor="end" font-family="Arial" font-size="9" fill="#666">1</text><text x="476.0" y="427.0" text-anchor="start" font-family="Arial" font-size="9" fill="#666">1</text><line x1="46.0" y1="403.0" x2="42.0" y2="403.0" stroke="#888" stroke-width="1"/><line x1="466.0" y1="403.0" x2="470.0" y2="403.0" stroke="#888" stroke-width="1"/><line x1="46.0" y1="382.0" x2="38.0" y2="382.0" stroke="#888" stroke-width="1"/><line x1="466.0" y1="382.0" x2="474.0" y2="382.0" stroke="#888" stroke-width="1"/><text x="36.0" y="385.0" text-anchor="end" font-family="Arial" font-size="9" fill="#666">2</text><text x="476.0" y="385.0" text-anchor="start" font-family="Arial" font-size="9" fill="#666">2</text><line x1="46.0" y1="361.0" x2="42.0" y2="361.0" stroke="#888" stroke-width="1"/><line x1="466.0" y1="361.0" x2="470.0" y2="361.0" stroke="#888" stroke-width="1"/><line x1="46.0" y1="340.0" x2="38.0" y2="340.0" stroke="#888" stroke-width="1"/><line x1="466.0" y1="340.0" x2="474.0" y2="340.0" stroke="#888" stroke-width="1"/><text x="36.0" y="343.0" text-anchor="end" font-family="Arial" font-size="9" fill="#666">3</text><text x="476.0" y="343.0" text-anchor="start" font-family="Arial" font-size="9" fill="#666">3</text><line x1="46.0" y1="319.0" x2="42.0" y2="319.0" stroke="#888" stroke-width="1"/><line x1="466.0" y1="319.0" x2="470.0" y2="319.0" stroke="#888" stroke-width="1"/><line x1="46.0" y1="298.0" x2="38.0" y2="298.0" stroke="#888" stroke-width="1"/><line x1="466.0" y1="298.0" x2="474.0" y2="298.0" stroke="#888" stroke-width="1"/><text x="36.0" y="301.0" text-anchor="end" font-family="Arial" font-size="9" fill="#666">4</text><text x="476.0" y="301.0" text-anchor="start" font-family="Arial" font-size="9" fill="#666">4</text><line x1="46.0" y1="277.0" x2="42.0" y2="277.0" stroke="#888" stroke-width="1"/><line x1="466.0" y1="277.0" x2="470.0" y2="277.0" stroke="#888" stroke-width="1"/><line x1="46.0" y1="256.0" x2="38.0" y2="256.0" stroke="#888" stroke-width="1"/><line x1="466.0" y1="256.0" x2="474.0" y2="256.0" stroke="#888" stroke-width="1"/><text x="36.0" y="259.0" text-anchor="end" font-family="Arial" font-size="9" fill="#666">5</text><text x="476.0" y="259.0" text-anchor="start" font-family="Arial" font-size="9" fill="#666">5</text><line x1="46.0" y1="235.0" x2="42.0" y2="235.0" stroke="#888" stroke-width="1"/><line x1="466.0" y1="235.0" x2="470.0" y2="235.0" stroke="#888" stroke-width="1"/><line x1="46.0" y1="214.0" x2="38.0" y2="214.0" stroke="#888" stroke-width="1"/><line x1="466.0" y1="214.0" x2="474.0" y2="214.0" stroke="#888" stroke-width="1"/><text x="36.0" y="217.0" text-anchor="end" font-family="Arial" font-size="9" fill="#666">6</text><text x="476.0" y="217.0" text-anchor="start" font-family="Arial" font-size="9" fill="#666">6</text><line x1="46.0" y1="193.0" x2="42.0" y2="193.0" stroke="#888" stroke-width="1"/><line x1="466.0" y1="193.0" x2="470.0" y2="193.0" stroke="#888" stroke-width="1"/><line x1="46.0" y1="172.0" x2="38.0" y2="172.0" stroke="#888" stroke-width="1"/><line x1="466.0" y1="172.0" x2="474.0" y2="172.0" stroke="#888" stroke-width="1"/><text x="36.0" y="175.0" text-anchor="end" font-family="Arial" font-size="9" fill="#666">7</text><text x="476.0" y="175.0" text-anchor="start" font-family="Arial" font-size="9" fill="#666">7</text><line x1="46.0" y1="151.0" x2="42.0" y2="151.0" stroke="#888" stroke-width="1"/><line x1="466.0" y1="151.0" x2="470.0" y2="151.0" stroke="#888" stroke-width="1"/><line x1="46.0" y1="130.0" x2="38.0" y2="130.0" stroke="#888" stroke-width="1"/><line x1="466.0" y1="130.0" x2="474.0" y2="130.0" stroke="#888" stroke-width="1"/><text x="36.0" y="133.0" text-anchor="end" font-family="Arial" font-size="9" fill="#666">8</text><text x="476.0" y="133.0" text-anchor="start" font-family="Arial" font-size="9" fill="#666">8</text><line x1="46.0" y1="109.0" x2="42.0" y2="109.0" stroke="#888" stroke-width="1"/><line x1="466.0" y1="109.0" x2="470.0" y2="109.0" stroke="#888" stroke-width="1"/><line x1="46.0" y1="88.0" x2="38.0" y2="88.0" stroke="#888" stroke-width="1"/><line x1="466.0" y1="88.0" x2="474.0" y2="88.0" stroke="#888" stroke-width="1"/><text x="36.0" y="91.0" text-anchor="end" font-family="Arial" font-size="9" fill="#666">9</text><text x="476.0" y="91.0" text-anchor="start" font-family="Arial" font-size="9" fill="#666">9</text><line x1="46.0" y1="67.0" x2="42.0" y2="67.0" stroke="#888" stroke-width="1"/><line x1="466.0" y1="67.0" x2="470.0" y2="67.0" stroke="#888" stroke-width="1"/><line x1="46.0" y1="46.0" x2="38.0" y2="46.0" stroke="#888" stroke-width="1"/><line x1="466.0" y1="46.0" x2="474.0" y2="46.0" stroke="#888" stroke-width="1"/><text x="36.0" y="49.0" text-anchor="end" font-family="Arial" font-size="9" fill="#666">10</text><text x="476.0" y="49.0" text-anchor="start" font-family="Arial" font-size="9" fill="#666">10</text><rect x="130.0" y="130.0" width="252.0" height="252.0" fill="none" stroke="#9aa" stroke-width="1" stroke-dasharray="3 3"/><rect x="225.8" y="383.3" width="155.0" height="60.5" fill="#f2f2f2" stroke="#333" stroke-width="1.5" stroke-dasharray="6 4"/><text x="303.2" y="410.9" text-anchor="middle" font-family="Arial" font-size="12" font-weight="bold" fill="#222">PORCH</text><text x="303.2" y="426.7" text-anchor="middle" font-family="Arial" font-size="10" fill="#555">3.8×1.5 m</text><rect x="130.0" y="245.5" width="94.5" height="136.5" fill="#d9ead3" stroke="#333" stroke-width="1.5"/><text x="177.2" y="305.4" text-anchor="middle" font-family="Arial" font-size="12" font-weight="bold" fill="#222">MASTER BR</text><text x="177.2" y="321.2" text-anchor="middle" font-family="Arial" font-size="10" fill="#555">2.2×3.2 m</text><text x="177.2" y="332.7" text-anchor="middle" font-family="Arial" font-size="10" fill="#555">7.3 sqm</text><rect x="130.0" y="130.0" width="94.5" height="115.5" fill="#d9ead3" stroke="#333" stroke-width="1.5"/><text x="177.2" y="179.3" text-anchor="middle" font-family="Arial" font-size="12" font-weight="bold" fill="#222">BEDROOM</text><text x="177.2" y="195.2" text-anchor="middle" font-family="Arial" font-size="10" fill="#555">2.2×2.8 m</text><text x="177.2" y="206.7" text-anchor="middle" font-family="Arial" font-size="10" fill="#555">6.2 sqm</text><rect x="224.5" y="130.0" width="37.8" height="65.1" fill="#ead1dc" stroke="#333" stroke-width="1.5"/><text x="243.4" y="159.9" text-anchor="middle" font-family="Arial" font-size="12" font-weight="bold" fill="#222">T&amp;B</text><text x="243.4" y="175.7" text-anchor="middle" font-family="Arial" font-size="10" fill="#555">1.4 sqm</text><rect x="262.3" y="130.0" width="37.8" height="65.1" fill="#ead1dc" stroke="#333" stroke-width="1.5"/><text x="281.2" y="159.9" text-anchor="middle" font-family="Arial" font-size="12" font-weight="bold" fill="#222">WC</text><text x="281.2" y="175.7" text-anchor="middle" font-family="Arial" font-size="10" fill="#555">1.4 sqm</text><rect x="224.5" y="195.1" width="157.5" height="186.9" fill="#cfe2f3" stroke="#333" stroke-width="1.5"/><text x="303.2" y="285.9" text-anchor="middle" font-family="Arial" font-size="12" font-weight="bold" fill="#222">GREAT ROOM</text><text x="303.2" y="301.7" text-anchor="middle" font-family="Arial" font-size="10" fill="#555">3.8×4.5 m · 16.7 sqm</text><rect x="300.1" y="130.0" width="81.9" height="65.1" fill="#cfe2f3" stroke="#333" stroke-width="1.5"/><text x="341.0" y="154.1" text-anchor="middle" font-family="Arial" font-size="12" font-weight="bold" fill="#222">KITCHEN</text><text x="341.0" y="169.9" text-anchor="middle" font-family="Arial" font-size="10" fill="#555">1.9×1.6 m</text><text x="341.0" y="181.4" text-anchor="middle" font-family="Arial" font-size="10" fill="#555">3.0 sqm</text><text x="256.0" y="500.0" text-anchor="middle" font-family="Arial" font-size="12" font-weight="bold" fill="#888">FRONT (street)</text><rect x="130.00" y="243.40" width="94.50" height="4.20" fill="#555" stroke="none"/><rect x="222.40" y="245.50" width="4.20" height="136.50" fill="#555" stroke="none"/><rect x="222.40" y="130.00" width="4.20" height="65.10" fill="#555" stroke="none"/><rect x="222.40" y="195.10" width="4.20" height="50.40" fill="#555" stroke="none"/><rect x="260.20" y="130.00" width="4.20" height="65.10" fill="#555" stroke="none"/><rect x="224.50" y="193.00" width="37.80" height="4.20" fill="#555" stroke="none"/><rect x="262.30" y="193.00" width="37.80" height="4.20" fill="#555" stroke="none"/><rect x="298.00" y="130.00" width="4.20" height="65.10" fill="#555" stroke="none"/><rect x="130.00" y="377.80" width="94.50" height="8.40" fill="#555" stroke="none"/><rect x="125.80" y="245.50" width="8.40" height="136.50" fill="#555" stroke="none"/><rect x="130.00" y="125.80" width="94.50" height="8.40" fill="#555" stroke="none"/><rect x="125.80" y="130.00" width="8.40" height="115.50" fill="#555" stroke="none"/><rect x="224.50" y="125.80" width="37.80" height="8.40" fill="#555" stroke="none"/><rect x="262.30" y="125.80" width="37.80" height="8.40" fill="#555" stroke="none"/><rect x="224.50" y="377.80" width="157.50" height="8.40" fill="#555" stroke="none"/><rect x="377.80" y="195.10" width="8.40" height="186.90" fill="#555" stroke="none"/><rect x="300.10" y="125.80" width="81.90" height="8.40" fill="#555" stroke="none"/><rect x="377.80" y="130.00" width="8.40" height="65.10" fill="#555" stroke="none"/><rect x="125.80" y="241.30" width="8.40" height="8.40" fill="#555" stroke="none"/><rect x="222.40" y="243.40" width="4.20" height="4.20" fill="#555" stroke="none"/><rect x="220.30" y="377.80" width="8.40" height="8.40" fill="#555" stroke="none"/><rect x="222.40" y="243.40" width="4.20" height="4.20" fill="#555" stroke="none"/><rect x="222.40" y="193.00" width="4.20" height="4.20" fill="#555" stroke="none"/><rect x="220.30" y="125.80" width="8.40" height="8.40" fill="#555" stroke="none"/><rect x="222.40" y="243.40" width="4.20" height="4.20" fill="#555" stroke="none"/><rect x="222.40" y="193.00" width="4.20" height="4.20" fill="#555" stroke="none"/><rect x="260.20" y="193.00" width="4.20" height="4.20" fill="#555" stroke="none"/><rect x="258.10" y="125.80" width="8.40" height="8.40" fill="#555" stroke="none"/><rect x="222.40" y="193.00" width="4.20" height="4.20" fill="#555" stroke="none"/><rect x="260.20" y="193.00" width="4.20" height="4.20" fill="#555" stroke="none"/><rect x="260.20" y="193.00" width="4.20" height="4.20" fill="#555" stroke="none"/><rect x="295.90" y="125.80" width="8.40" height="8.40" fill="#555" stroke="none"/><rect x="125.80" y="377.80" width="8.40" height="8.40" fill="#555" stroke="none"/><rect x="220.30" y="377.80" width="8.40" height="8.40" fill="#555" stroke="none"/><rect x="125.80" y="377.80" width="8.40" height="8.40" fill="#555" stroke="none"/><rect x="125.80" y="241.30" width="8.40" height="8.40" fill="#555" stroke="none"/><rect x="125.80" y="125.80" width="8.40" height="8.40" fill="#555" stroke="none"/><rect x="220.30" y="125.80" width="8.40" height="8.40" fill="#555" stroke="none"/><rect x="125.80" y="241.30" width="8.40" height="8.40" fill="#555" stroke="none"/><rect x="125.80" y="125.80" width="8.40" height="8.40" fill="#555" stroke="none"/><rect x="220.30" y="125.80" width="8.40" height="8.40" fill="#555" stroke="none"/><rect x="258.10" y="125.80" width="8.40" height="8.40" fill="#555" stroke="none"/><rect x="258.10" y="125.80" width="8.40" height="8.40" fill="#555" stroke="none"/><rect x="295.90" y="125.80" width="8.40" height="8.40" fill="#555" stroke="none"/><rect x="220.30" y="377.80" width="8.40" height="8.40" fill="#555" stroke="none"/><rect x="377.80" y="377.80" width="8.40" height="8.40" fill="#555" stroke="none"/><rect x="377.80" y="377.80" width="8.40" height="8.40" fill="#555" stroke="none"/><rect x="295.90" y="125.80" width="8.40" height="8.40" fill="#555" stroke="none"/><rect x="377.80" y="125.80" width="8.40" height="8.40" fill="#555" stroke="none"/><rect x="377.80" y="125.80" width="8.40" height="8.40" fill="#555" stroke="none"/><rect x="302.2" y="190.1" width="77.7" height="5.0" fill="#cfe2f3" stroke="none"/><rect x="302.2" y="195.1" width="77.7" height="5.0" fill="#cfe2f3" stroke="none"/><rect x="219.5" y="251.8" width="5.0" height="33.6" fill="#d9ead3" stroke="none"/><rect x="224.5" y="251.8" width="5.0" height="33.6" fill="#cfe2f3" stroke="none"/><line x1="224.5" y1="251.8" x2="190.9" y2="251.8" stroke="#444" stroke-width="1.4"/><path d="M 190.9 251.8 A 33.6 33.6 0 0 0 224.5 285.4" fill="none" stroke="#999" stroke-width="0.7" stroke-dasharray="2 2"/><rect x="219.5" y="205.6" width="5.0" height="33.6" fill="#d9ead3" stroke="none"/><rect x="224.5" y="205.6" width="5.0" height="33.6" fill="#cfe2f3" stroke="none"/><line x1="224.5" y1="239.2" x2="190.9" y2="239.2" stroke="#444" stroke-width="1.4"/><path d="M 190.9 239.2 A 33.6 33.6 0 0 1 224.5 205.6" fill="none" stroke="#999" stroke-width="0.7" stroke-dasharray="2 2"/><rect x="230.8" y="190.1" width="29.4" height="5.0" fill="#ead1dc" stroke="none"/><rect x="230.8" y="195.1" width="29.4" height="5.0" fill="#cfe2f3" stroke="none"/><line x1="230.8" y1="195.1" x2="230.8" y2="165.7" stroke="#444" stroke-width="1.4"/><path d="M 230.8 165.7 A 29.4 29.4 0 0 1 260.2 195.1" fill="none" stroke="#999" stroke-width="0.7" stroke-dasharray="2 2"/><rect x="268.6" y="190.1" width="29.4" height="5.0" fill="#ead1dc" stroke="none"/><rect x="268.6" y="195.1" width="29.4" height="5.0" fill="#cfe2f3" stroke="none"/><line x1="268.6" y1="195.1" x2="268.6" y2="165.7" stroke="#444" stroke-width="1.4"/><path d="M 268.6 165.7 A 29.4 29.4 0 0 1 298.0 195.1" fill="none" stroke="#999" stroke-width="0.7" stroke-dasharray="2 2"/><rect x="337.9" y="377.0" width="37.8" height="5.0" fill="#cfe2f3" stroke="none"/><rect x="337.9" y="382.0" width="37.8" height="5.0" fill="#fbfbf7" stroke="none"/><line x1="375.7" y1="382.0" x2="375.7" y2="344.2" stroke="#444" stroke-width="1.4"/><path d="M 375.7 344.2 A 37.8 37.8 0 0 0 337.9 382.0" fill="none" stroke="#999" stroke-width="0.7" stroke-dasharray="2 2"/><rect x="306.4" y="130.0" width="33.6" height="5.0" fill="#cfe2f3" stroke="none"/><rect x="306.4" y="125.0" width="33.6" height="5.0" fill="#fbfbf7" stroke="none"/><line x1="306.4" y1="130.0" x2="306.4" y2="163.6" stroke="#444" stroke-width="1.4"/><path d="M 306.4 163.6 A 33.6 33.6 0 0 0 340.0 130.0" fill="none" stroke="#999" stroke-width="0.7" stroke-dasharray="2 2"/><rect x="130.0" y="276.2" width="5.0" height="75.1" fill="#d9ead3" stroke="none"/><rect x="125.0" y="276.2" width="5.0" height="75.1" fill="#fbfbf7" stroke="none"/><line x1="127.0" y1="351.3" x2="127.0" y2="276.2" stroke="#222" stroke-width="1.0"/><line x1="130.0" y1="351.3" x2="130.0" y2="276.2" stroke="#222" stroke-width="1.0"/><line x1="133.0" y1="351.3" x2="133.0" y2="276.2" stroke="#222" stroke-width="1.0"/><rect x="151.3" y="377.0" width="52.0" height="5.0" fill="#d9ead3" stroke="none"/><rect x="151.3" y="382.0" width="52.0" height="5.0" fill="#fbfbf7" stroke="none"/><line x1="151.3" y1="379.0" x2="203.2" y2="379.0" stroke="#222" stroke-width="1.0"/><line x1="151.3" y1="382.0" x2="203.2" y2="382.0" stroke="#222" stroke-width="1.0"/><line x1="151.3" y1="385.0" x2="203.2" y2="385.0" stroke="#222" stroke-width="1.0"/><rect x="130.0" y="156.0" width="5.0" height="63.5" fill="#d9ead3" stroke="none"/><rect x="125.0" y="156.0" width="5.0" height="63.5" fill="#fbfbf7" stroke="none"/><line x1="127.0" y1="219.5" x2="127.0" y2="156.0" stroke="#222" stroke-width="1.0"/><line x1="130.0" y1="219.5" x2="130.0" y2="156.0" stroke="#222" stroke-width="1.0"/><line x1="133.0" y1="219.5" x2="133.0" y2="156.0" stroke="#222" stroke-width="1.0"/><rect x="151.3" y="130.0" width="52.0" height="5.0" fill="#d9ead3" stroke="none"/><rect x="151.3" y="125.0" width="52.0" height="5.0" fill="#fbfbf7" stroke="none"/><line x1="151.3" y1="127.0" x2="203.2" y2="127.0" stroke="#222" stroke-width="1.0"/><line x1="151.3" y1="130.0" x2="203.2" y2="130.0" stroke="#222" stroke-width="1.0"/><line x1="151.3" y1="133.0" x2="203.2" y2="133.0" stroke="#222" stroke-width="1.0"/><rect x="230.8" y="130.0" width="25.2" height="5.0" fill="#ead1dc" stroke="none"/><rect x="230.8" y="125.0" width="25.2" height="5.0" fill="#fbfbf7" stroke="none"/><line x1="230.8" y1="127.0" x2="256.0" y2="127.0" stroke="#222" stroke-width="1.0"/><line x1="230.8" y1="130.0" x2="256.0" y2="130.0" stroke="#222" stroke-width="1.0"/><line x1="230.8" y1="133.0" x2="256.0" y2="133.0" stroke="#222" stroke-width="1.0"/><rect x="268.6" y="130.0" width="25.2" height="5.0" fill="#ead1dc" stroke="none"/><rect x="268.6" y="125.0" width="25.2" height="5.0" fill="#fbfbf7" stroke="none"/><line x1="268.6" y1="127.0" x2="293.8" y2="127.0" stroke="#222" stroke-width="1.0"/><line x1="268.6" y1="130.0" x2="293.8" y2="130.0" stroke="#222" stroke-width="1.0"/><line x1="268.6" y1="133.0" x2="293.8" y2="133.0" stroke="#222" stroke-width="1.0"/><rect x="377.0" y="238.2" width="5.0" height="100.8" fill="#cfe2f3" stroke="none"/><rect x="382.0" y="238.2" width="5.0" height="100.8" fill="#fbfbf7" stroke="none"/><line x1="379.0" y1="338.9" x2="379.0" y2="238.2" stroke="#222" stroke-width="1.0"/><line x1="382.0" y1="338.9" x2="382.0" y2="238.2" stroke="#222" stroke-width="1.0"/><line x1="385.0" y1="338.9" x2="385.0" y2="238.2" stroke="#222" stroke-width="1.0"/><rect x="247.2" y="377.0" width="55.4" height="5.0" fill="#cfe2f3" stroke="none"/><rect x="247.2" y="382.0" width="55.4" height="5.0" fill="#fbfbf7" stroke="none"/><line x1="247.2" y1="379.0" x2="302.6" y2="379.0" stroke="#222" stroke-width="1.0"/><line x1="247.2" y1="382.0" x2="302.6" y2="382.0" stroke="#222" stroke-width="1.0"/><line x1="247.2" y1="385.0" x2="302.6" y2="385.0" stroke="#222" stroke-width="1.0"/><rect x="377.0" y="143.6" width="5.0" height="37.8" fill="#cfe2f3" stroke="none"/><rect x="382.0" y="143.6" width="5.0" height="37.8" fill="#fbfbf7" stroke="none"/><line x1="379.0" y1="181.4" x2="379.0" y2="143.6" stroke="#222" stroke-width="1.0"/><line x1="382.0" y1="181.4" x2="382.0" y2="143.6" stroke="#222" stroke-width="1.0"/><line x1="385.0" y1="181.4" x2="385.0" y2="143.6" stroke="#222" stroke-width="1.0"/></svg>