<svg xmlns="http://www.w3.org/2000/svg" viewBox="0 0 2.52 1.97" width="302" height="236" data-fixture="dining_4" data-units="m" data-footprint-w="1.4" data-footprint-d="0.85" data-footprint-shape="rect" data-origin-x="0.56" data-origin-y="0.56"><title>Dining table, 4-seat — 1.4 × 0.85 m</title><desc>Local space is metres. The wall this fixture backs onto is at y=0 (top). It faces +y, into the room. Footprint origin is at (0.56, 0.56) in this viewBox.</desc><g id="dining_4"><rect x="0.56" y="0.56" width="1.4" height="0.85" rx="0.03" class="fx-body" fill="#e3ded4" stroke="#8a8378" stroke-width="0.9" vector-effect="non-scaling-stroke" stroke-linejoin="round"/><rect x="0.61" y="0.61" width="1.3" height="0.75" rx="0.02" class="fx-detail" fill="none" stroke="#8a8378" stroke-width="0.6" vector-effect="non-scaling-stroke" stroke-linejoin="round"/><g transform="translate(0.91,0.285) rotate(0) translate(-0.225,-0.225)"><rect x="0.03" y="0.1" width="0.39" height="0.32" rx="0.04" class="fx-body" fill="#e3ded4" stroke="#8a8378" stroke-width="0.9" vector-effect="non-scaling-stroke" stroke-linejoin="round"/><rect x="0.03" y="0" width="0.39" height="0.09" rx="0.03" class="fx-accent" fill="#cbc4b4" stroke="#8a8378" stroke-width="0.6" vector-effect="non-scaling-stroke" stroke-linejoin="round"/></g><g transform="translate(0.91,1.685) rotate(180) translate(-0.225,-0.225)"><rect x="0.03" y="0.1" width="0.39" height="0.32" rx="0.04" class="fx-body" fill="#e3ded4" stroke="#8a8378" stroke-width="0.9" vector-effect="non-scaling-stroke" stroke-linejoin="round"/><rect x="0.03" y="0" width="0.39" height="0.09" rx="0.03" class="fx-accent" fill="#cbc4b4" stroke="#8a8378" stroke-width="0.6" vector-effect="non-scaling-stroke" stroke-linejoin="round"/></g><g transform="translate(1.61,0.285) rotate(0) translate(-0.225,-0.225)"><rect x="0.03" y="0.1" width="0.39" height="0.32" rx="0.04" class="fx-body" fill="#e3ded4" stroke="#8a8378" stroke-width="0.9" vector-effect="non-scaling-stroke" stroke-linejoin="round"/><rect x="0.03" y="0" width="0.39" height="0.09" rx="0.03" class="fx-accent" fill="#cbc4b4" stroke="#8a8378" stroke-width="0.6" vector-effect="non-scaling-stroke" stroke-linejoin="round"/></g><g transform="translate(1.61,1.685) rotate(180) translate(-0.225,-0.225)"><rect x="0.03" y="0.1" width="0.39" height="0.32" rx="0.04" class="fx-body" fill="#e3ded4" stroke="#8a8378" stroke-width="0.9" vector-effect="non-scaling-stroke" stroke-linejoin="round"/><rect x="0.03" y="0" width="0.39" height="0.09" rx="0.03" class="fx-accent" fill="#cbc4b4" stroke="#8a8378" stroke-width="0.6" vector-effect="non-scaling-stroke" stroke-linejoin="round"/></g></g></svg>